<?xml version="1.0" standalone="no"?>
<!DOCTYPE svg PUBLIC "-//W3C//DTD SVG 1.1//EN" "http://www.w3.org/Graphics/SVG/1.1/DTD/svg11.dtd" >
<svg xmlns="http://www.w3.org/2000/svg" xmlns:xlink="http://www.w3.org/1999/xlink" version="1.1">
<metadata>
Created by FontForge 20170731 at Thu Jul 16 12:58:20 2015
 By Aleksey,,,
Copyright 2015 Dalton Maag Ltd. All rights reserved. This font may not be altered in any way without prior permission of Dalton Maag Ltd.
</metadata>
<defs>
<font id="AmazonEmber-MediumItalic" horiz-adv-x="586" >
  <font-face 
    font-family="Amazon Ember Medium"
    font-weight="500"
    font-style="italic"
    font-stretch="normal"
    units-per-em="1000"
    panose-1="2 11 6 3 2 2 4 10 2 4"
    ascent="800"
    descent="-200"
    x-height="509"
    cap-height="693"
    bbox="-291 -284 1289 976"
    underline-thickness="80"
    underline-position="-229"
    slope="-11.02"
    unicode-range="U+0008-FFFD"
  />
<missing-glyph horiz-adv-x="500" 
d="M50 0v750h400v-750h-400zM400 700h-300v-650h300v650z" />
    <glyph glyph-name="ff" unicode="ff" horiz-adv-x="718" 
d="M390 0l82 421h-218l-82 -421h-114l82 421h-87l14 72l90 13l13 68q17 89 66 134.5t128 45.5q51 0 94 -19l-16 -80q-35 8 -64 8q-42 0 -63 -18t-29 -59l-15 -77h218l13 65q36 180 199 180q26 0 53 -6t46 -15l-16 -80q-40 10 -74 10q-42 0 -63 -18t-29 -59l-15 -77h151
l-17 -88h-151l-82 -421h-114z" />
    <glyph glyph-name="fi" unicode="fi" horiz-adv-x="629" 
d="M390 0l82 421h-218l-82 -421h-114l82 421h-87l14 72l90 13l13 68q17 89 66 134.5t128 45.5q51 0 94 -19l-16 -80q-35 8 -64 8q-42 0 -63 -18t-29 -59l-15 -77h332l-99 -509h-114zM647 672q0 -33 -23.5 -56t-57.5 -23q-30 0 -46.5 14.5t-16.5 42.5q0 33 23.5 56t57.5 23
q30 0 46.5 -14.5t16.5 -42.5z" />
    <glyph glyph-name="fl" unicode="fl" horiz-adv-x="657" 
d="M58 0l82 421h-87l14 72l90 13l13 68q17 89 66 134.5t128 45.5q51 0 94 -19l-16 -80q-35 8 -64 8q-42 0 -63 -18t-29 -59l-15 -77h142l-17 -88h-142l-82 -421h-114zM621 22q-48 -28 -108 -28q-51 0 -77.5 27t-26.5 78q0 34 12 95l106 546h114l-106 -546q-9 -45 -10.5 -56
t-1.5 -22q0 -15 10 -24t28 -9q17 0 37 5z" />
    <glyph glyph-name="ffi" unicode="ffi" horiz-adv-x="961" 
d="M390 0l82 421h-218l-82 -421h-114l82 421h-87l14 72l90 13l13 68q17 89 66 134.5t128 45.5q51 0 94 -19l-16 -80q-35 8 -64 8q-42 0 -63 -18t-29 -59l-15 -77h218l13 65q18 89 67 134.5t127 45.5q51 0 94 -19l-16 -80q-35 8 -64 8q-42 0 -63 -18t-29 -59l-15 -77h332
l-99 -509h-114l82 421h-218l-82 -421h-114zM979 672q0 -33 -23.5 -56t-57.5 -23q-30 0 -46.5 14.5t-16.5 42.5q0 33 23.5 56t57.5 23q30 0 46.5 -14.5t16.5 -42.5z" />
    <glyph glyph-name="ffl" unicode="ffl" horiz-adv-x="989" 
d="M390 0l82 421h-218l-82 -421h-114l82 421h-87l14 72l90 13l13 68q17 89 66 134.5t128 45.5q51 0 94 -19l-16 -80q-35 8 -64 8q-42 0 -63 -18t-29 -59l-15 -77h218l13 65q18 89 67 134.5t127 45.5q51 0 94 -19l-16 -80q-35 8 -64 8q-42 0 -63 -18t-29 -59l-15 -77h142
l-17 -88h-142l-82 -421h-114zM953 22q-48 -28 -108 -28q-51 0 -77.5 27t-26.5 78q0 34 12 95l106 546h114l-106 -546q-9 -45 -10.5 -56t-1.5 -22q0 -15 10 -24t28 -9q17 0 37 5z" />
    <glyph glyph-name=".notdef" horiz-adv-x="500" 
d="M50 0v750h400v-750h-400zM400 700h-300v-650h300v650z" />
    <glyph glyph-name=".null" horiz-adv-x="0" 
 />
    <glyph glyph-name=".null" horiz-adv-x="0" 
 />
    <glyph glyph-name=".null" horiz-adv-x="0" 
 />
    <glyph glyph-name="nonmarkingreturn" unicode="&#x9;" horiz-adv-x="262" 
 />
    <glyph glyph-name="nonmarkingreturn" unicode="&#xd;" horiz-adv-x="262" 
 />
    <glyph glyph-name="space" unicode=" " horiz-adv-x="262" 
 />
    <glyph glyph-name="exclam" unicode="!" horiz-adv-x="270" 
d="M82 218l76 474q35 16 66 16q32 0 60 -16l-112 -474h-90zM90 -10q-30 0 -47.5 17.5t-17.5 46.5q0 37 25 62.5t62 25.5q30 0 47.5 -17.5t17.5 -46.5q0 -37 -25 -62.5t-62 -25.5z" />
    <glyph glyph-name="quotedbl" unicode="&#x22;" horiz-adv-x="411" 
d="M99 442l39 248q32 15 61 15t53 -15l-71 -248h-82zM286 442l39 248q32 15 61 15t53 -15l-71 -248h-82z" />
    <glyph glyph-name="numbersign" unicode="#" 
d="M261 0l62 179h-140l-62 -179h-84l62 179h-83l14 79h96l63 180h-95l14 79h109l61 176h84l-61 -176h140l61 176h84l-61 -176h82l-14 -79h-96l-63 -180h95l-14 -79h-108l-62 -179h-84zM413 438h-140l-63 -180h140z" />
    <glyph glyph-name="dollar" unicode="$" 
d="M180 -130l24 125q-97 12 -174 70l16 84q100 -60 175 -67l45 230l-34 16q-126 59 -126 168q0 54 29.5 99.5t83 73t121.5 27.5l24 121h68l-25 -127q77 -14 139 -57l-16 -84q-79 44 -140 54l-44 -228l33 -15q72 -33 102 -70.5t30 -92.5q0 -89 -66.5 -146.5t-173.5 -60.5
l-23 -120h-68zM410 190q0 30 -18 50.5t-64 42.5l-39 -204q34 1 61.5 15t43.5 39t16 57zM206 501q0 -31 17.5 -53t59.5 -45l40 206q-51 -1 -84 -31.5t-33 -76.5z" />
    <glyph glyph-name="percent" unicode="%" horiz-adv-x="940" 
d="M215 0l452 693h95l-452 -693h-95zM698 -10q-66 0 -103 38.5t-37 106.5q0 119 55.5 193t144.5 74q66 0 103 -38.5t37 -106.5q0 -119 -55.5 -193t-144.5 -74zM706 58q45 0 74 54t29 137q0 85 -59 85q-45 0 -74 -54t-29 -137q0 -85 59 -85zM219 291q-66 0 -103 38.5
t-37 106.5q0 119 55.5 193t144.5 74q66 0 103 -38.5t37 -106.5q0 -119 -55.5 -193t-144.5 -74zM227 359q45 0 74 54t29 137q0 85 -59 85q-45 0 -74 -54t-29 -137q0 -85 59 -85z" />
    <glyph glyph-name="ampersand" unicode="&#x26;" horiz-adv-x="722" 
d="M666 20q-20 -13 -46 -20t-54 -7q-66 0 -115 48q-89 -58 -196 -58q-64 0 -113 22t-77 63t-28 97q0 143 185 216q-53 80 -53 150q0 49 25 89.5t71 64.5t106 24q77 0 125 -39t48 -102q0 -60 -45.5 -112.5t-127.5 -87.5l-20 -8l125 -190q60 80 80 216h96q-27 -175 -128 -283
q25 -22 67 -22q17 0 51 7zM277 72q33 0 67 9t59 25l-143 219q-55 -22 -86 -60t-31 -85q0 -50 36 -79t98 -29zM269 534q0 -48 44 -118q64 26 98 62.5t34 77.5q0 34 -21.5 54t-57.5 20q-42 0 -69.5 -27.5t-27.5 -68.5z" />
    <glyph glyph-name="quotesingle" unicode="'" horiz-adv-x="224" 
d="M99 442l39 248q32 15 61 15t53 -15l-71 -248h-82z" />
    <glyph glyph-name="parenleft" unicode="(" horiz-adv-x="318" 
d="M115 -144q-31 69 -47.5 149.5t-16.5 162.5q0 157 60.5 308t174.5 278h112q-107 -124 -167 -278t-60 -304q0 -187 52 -316h-108z" />
    <glyph glyph-name="parenright" unicode=")" horiz-adv-x="318" 
d="M-62 -144q107 124 167 278t60 304q0 187 -52 316h108q31 -69 47.5 -149.5t16.5 -162.5q0 -157 -60.5 -308t-174.5 -278h-112z" />
    <glyph glyph-name="asterisk" unicode="*" horiz-adv-x="382" 
d="M229 476l-92 -122q-47 8 -63 53l112 101l-110 22q0 47 44 84l96 -52l8 123q24 11 46 11q23 0 45 -11l-41 -124l117 53q18 -22 18 -52q0 -20 -7 -32l-120 -25l74 -97q-15 -23 -37 -37.5t-45 -16.5z" />
    <glyph glyph-name="plus" unicode="+" 
d="M349 302l-36 -188h-99l36 188h-178l18 91h178l36 188h99l-36 -188h178l-18 -91h-178z" />
    <glyph glyph-name="comma" unicode="," horiz-adv-x="260" 
d="M-42 -155l107 286h57q28 0 41 -9t13 -29q0 -26 -25 -66l-112 -182h-81z" />
    <glyph glyph-name="hyphen" unicode="-" horiz-adv-x="407" 
d="M39 209l19 99h316l-19 -99h-316z" />
    <glyph glyph-name="period" unicode="." horiz-adv-x="260" 
d="M85 -10q-30 0 -47.5 17.5t-17.5 46.5q0 37 25 62.5t62 25.5q30 0 47.5 -17.5t17.5 -46.5q0 -37 -25 -62.5t-62 -25.5z" />
    <glyph glyph-name="slash" unicode="/" horiz-adv-x="466" 
d="M-51 -144l503 898h117l-503 -898h-117z" />
    <glyph glyph-name="zero" unicode="0" 
d="M258 -15q-101 0 -156 64.5t-55 183.5q0 135 38.5 242.5t110 170.5t165.5 63q101 0 156 -64.5t55 -183.5q0 -135 -38.5 -242.5t-110 -170.5t-165.5 -63zM267 81q52 0 94.5 47t68 133t25.5 195q0 157 -103 157q-52 0 -94.5 -47t-68 -133t-25.5 -195q0 -157 103 -157z" />
    <glyph glyph-name="one" unicode="1" 
d="M234 0l112 576l-196 -69l19 95l214 91h101l-135 -693h-115z" />
    <glyph glyph-name="two" unicode="2" 
d="M25 0l17 86q177 153 257 231t109 123.5t29 84.5q0 41 -26.5 63.5t-75.5 22.5q-83 0 -190 -74l-19 82q104 90 229 90q92 0 146.5 -46t54.5 -124q0 -60 -35.5 -118t-116.5 -134t-228 -194h326l-18 -93h-459z" />
    <glyph glyph-name="three" unicode="3" 
d="M50 120q95 -40 174 -40q73 0 115 37.5t42 102.5q0 48 -34 72.5t-99 24.5q-35 0 -73 -5l15 76l230 212h-275l18 93h405l-18 -90l-232 -204q81 -1 130.5 -48.5t49.5 -124.5q0 -67 -34.5 -121.5t-98 -87t-146.5 -32.5q-49 0 -99 13t-87 35z" />
    <glyph glyph-name="four" unicode="4" 
d="M299 0l28 144h-315l17 89l399 460h109l-89 -457h101l-18 -92h-101l-28 -144h-103zM345 236l60 309l-268 -309h208z" />
    <glyph glyph-name="five" unicode="5" 
d="M55 120q98 -40 176 -40q76 0 120.5 38.5t44.5 104.5q0 56 -34.5 82t-107.5 26q-61 0 -139 -11l11 60l76 313h372l-18 -93h-275l-44 -187q43 8 78 8q91 0 144.5 -50t53.5 -136q0 -72 -35.5 -128.5t-101 -89t-151.5 -32.5q-49 0 -98.5 12.5t-88.5 35.5z" />
    <glyph glyph-name="six" unicode="6" 
d="M559 586q-70 30 -131 30q-93 0 -157 -63t-86 -175q39 19 85 30.5t87 11.5q86 0 136 -49.5t50 -135.5q0 -69 -32.5 -125.5t-92.5 -90.5t-136 -34q-108 0 -165 71.5t-57 207.5q0 123 45.5 224t129 161t190.5 60q89 0 150 -38zM313 330q-67 0 -140 -31v-43q0 -88 31 -133
t91 -45q59 0 95 40.5t36 105.5q0 54 -28 80t-85 26z" />
    <glyph glyph-name="seven" unicode="7" 
d="M81 0l384 600h-350l18 93h468l-17 -90l-377 -603h-126z" />
    <glyph glyph-name="eight" unicode="8" 
d="M573 548q0 -62 -39.5 -112.5t-111.5 -79.5q57 -33 84 -73t27 -91q0 -60 -33 -106.5t-94.5 -73.5t-142.5 -27q-105 0 -163.5 45.5t-58.5 127.5q0 70 44.5 123.5t128.5 85.5q-80 56 -80 143q0 54 30.5 99.5t86 72.5t125.5 27q89 0 143 -44t54 -117zM291 324l-6 -2
q-65 -22 -99 -59t-34 -85t33.5 -76t90.5 -28q62 0 104 31.5t42 78.5q0 71 -108 128zM243 516q0 -68 84 -110l18 -9l6 2q52 17 82.5 53.5t30.5 81.5q0 41 -26.5 65.5t-71.5 24.5q-52 0 -87.5 -31t-35.5 -77z" />
    <glyph glyph-name="nine" unicode="9" 
d="M213 78q81 0 138.5 54t81.5 153q-77 -36 -151 -36q-88 0 -142 56.5t-54 149.5q0 70 32 127.5t91 92t134 34.5q108 0 165 -74t57 -214q0 -124 -43.5 -222.5t-124.5 -156t-187 -57.5q-95 0 -160 45l16 85q82 -37 147 -37zM322 339q52 0 124 26q4 45 4 77q0 86 -29.5 130
t-86.5 44q-58 0 -94.5 -42.5t-36.5 -110.5q0 -61 30.5 -92.5t88.5 -31.5z" />
    <glyph glyph-name="colon" unicode=":" horiz-adv-x="260" 
d="M85 -10q-30 0 -47.5 17.5t-17.5 46.5q0 37 25 62.5t62 25.5q30 0 47.5 -17.5t17.5 -46.5q0 -37 -25 -62.5t-62 -25.5zM161 368q-30 0 -47.5 17.5t-17.5 46.5q0 37 25 62.5t62 25.5q30 0 47.5 -17.5t17.5 -46.5q0 -37 -25 -62.5t-62 -25.5z" />
    <glyph glyph-name="semicolon" unicode=";" horiz-adv-x="260" 
d="M-43 -155l107 286h57q28 0 41 -9t13 -29q0 -26 -25 -66l-112 -182h-81zM161 368q-30 0 -47.5 17.5t-17.5 46.5q0 37 25 62.5t62 25.5q30 0 47.5 -17.5t17.5 -46.5q0 -37 -25 -62.5t-62 -25.5z" />
    <glyph glyph-name="less" unicode="&#x3c;" 
d="M79 301l18 94l465 190l-21 -108l-347 -133l295 -132l-19 -101z" />
    <glyph glyph-name="equal" unicode="=" 
d="M51 191l18 91h455l-18 -91h-455zM93 413l18 91h455l-18 -91h-455z" />
    <glyph glyph-name="greater" unicode="&#x3e;" 
d="M60 111l21 108l347 133l-295 132l19 101l391 -190l-18 -94z" />
    <glyph glyph-name="question" unicode="?" horiz-adv-x="432" 
d="M130 218l20 148l51 24q74 35 110 72t36 78q0 35 -24.5 55t-68.5 20q-66 0 -135 -43l-17 79q39 28 84.5 43t91.5 15q81 0 130.5 -43t49.5 -113q0 -73 -53.5 -130.5t-162.5 -101.5l-22 -103h-90zM138 -10q-30 0 -47.5 17.5t-17.5 46.5q0 37 25 62.5t62 25.5
q30 0 47.5 -17.5t17.5 -46.5q0 -37 -25 -62.5t-62 -25.5z" />
    <glyph glyph-name="at" unicode="@" horiz-adv-x="960" 
d="M581 -177q-93 -41 -202 -41q-162 0 -249.5 88t-87.5 252q0 147 68.5 273t191.5 204t275 78q104 0 181 -38.5t119 -112.5t42 -177q0 -93 -33.5 -174.5t-94 -132.5t-132.5 -51q-48 0 -76.5 23.5t-34.5 69.5q-81 -95 -174 -95q-57 0 -87 37.5t-30 109.5q0 84 39 160
t108.5 124.5t151.5 48.5q37 0 79 -10t77 -26l-59 -240q-12 -50 -12 -80q0 -23 8.5 -34t27.5 -11q36 0 69.5 37.5t56 102.5t22.5 138q0 118 -66 182.5t-187 64.5q-114 0 -211.5 -59t-157.5 -166.5t-60 -240.5q0 -129 63.5 -195t186.5 -66q73 0 173 30zM415 69q32 0 66.5 22
t69.5 65q4 24 11 49l46 176q-39 10 -64 10q-44 0 -86 -32.5t-70.5 -89.5t-28.5 -122q0 -41 13.5 -59.5t42.5 -18.5z" />
    <glyph glyph-name="A" unicode="A" horiz-adv-x="620" 
d="M449 0l-22 175h-256l-89 -175h-124l376 693h129l110 -693h-124zM215 262h203l-41 320z" />
    <glyph glyph-name="B" unicode="B" horiz-adv-x="617" 
d="M41 0l135 693h224q88 0 139 -44.5t51 -120.5q0 -60 -32 -105t-90 -66q48 -19 73.5 -56t25.5 -86q0 -63 -32.5 -111.5t-93.5 -76t-143 -27.5h-257zM214 311l-44 -222h139q66 0 103.5 34.5t37.5 96.5q0 43 -25.5 67t-71.5 24h-139zM271 604l-41 -208h122q55 0 89 34t34 90
q0 41 -25 62.5t-72 21.5h-107z" />
    <glyph glyph-name="C" unicode="C" horiz-adv-x="596" 
d="M545 55q-103 -72 -226 -72q-124 0 -193.5 75.5t-69.5 211.5q0 116 51 216t144 161.5t208 61.5q89 0 155 -36l-18 -93q-68 27 -133 27q-79 0 -143.5 -40t-102.5 -114.5t-38 -171.5q0 -96 40.5 -146t117.5 -50q40 0 86.5 14t93.5 41z" />
    <glyph glyph-name="D" unicode="D" horiz-adv-x="703" 
d="M41 0l135 693h222q129 0 203 -72.5t74 -197.5q0 -115 -48.5 -211t-137 -154t-200.5 -58h-248zM276 599l-99 -505h109q75 0 136 40t97 113.5t36 168.5q0 88 -42.5 135.5t-121.5 47.5h-115z" />
    <glyph glyph-name="E" unicode="E" horiz-adv-x="561" 
d="M41 0l135 693h430l-19 -96h-312l-37 -193h259l-19 -96h-259l-41 -212h312l-19 -96h-430z" />
    <glyph glyph-name="F" unicode="F" horiz-adv-x="528" 
d="M41 0l135 693h410l-19 -96h-292l-39 -203h239l-19 -96h-239l-58 -298h-118z" />
    <glyph glyph-name="G" unicode="G" horiz-adv-x="678" 
d="M351 83q55 0 119 20l35 180h-142l19 96h250l-66 -339q-46 -27 -106.5 -42t-123.5 -15q-135 0 -207.5 73t-72.5 210q0 118 51.5 218.5t145 162.5t208.5 62q52 0 107 -12.5t89 -32.5l-18 -90q-42 17 -87.5 26t-85.5 9q-82 0 -147.5 -41t-103.5 -116.5t-38 -174.5
t42.5 -146.5t131.5 -47.5z" />
    <glyph glyph-name="H" unicode="H" horiz-adv-x="729" 
d="M468 0l60 305h-309l-60 -305h-118l135 693h118l-57 -292h309l57 292h118l-135 -693h-118z" />
    <glyph glyph-name="I" unicode="I" horiz-adv-x="310" 
d="M45 0l135 693h118l-135 -693h-118z" />
    <glyph glyph-name="J" unicode="J" horiz-adv-x="435" 
d="M315 693h118l-97 -496q-42 -214 -230 -214q-63 0 -135 32l17 89q69 -19 115 -19q50 0 77 28.5t40 95.5z" />
    <glyph glyph-name="K" unicode="K" horiz-adv-x="619" 
d="M41 0l135 693h118l-58 -300l321 300h147l-364 -334l237 -359h-135l-218 333l-65 -333h-118z" />
    <glyph glyph-name="L" unicode="L" horiz-adv-x="525" 
d="M41 0l135 693h118l-116 -595h301l-19 -98h-419z" />
    <glyph glyph-name="M" unicode="M" horiz-adv-x="848" 
d="M597 0l103 526l-242 -352h-100l-106 358l-103 -532h-108l135 693h130l122 -413l282 413h130l-135 -693h-108z" />
    <glyph glyph-name="N" unicode="N" horiz-adv-x="723" 
d="M455 0l-204 541l-105 -541h-105l135 693h125l204 -541l105 541h105l-135 -693h-125z" />
    <glyph glyph-name="O" unicode="O" horiz-adv-x="749" 
d="M331 -17q-128 0 -201.5 75.5t-73.5 205.5q0 124 47.5 224.5t135.5 160.5t202 60q128 0 201.5 -75.5t73.5 -205.5q0 -124 -47.5 -224.5t-135.5 -160.5t-202 -60zM342 83q71 0 128.5 41.5t91.5 118t34 175.5q0 90 -44 140.5t-122 50.5q-71 0 -128.5 -41.5t-91.5 -118
t-34 -175.5q0 -90 44 -140.5t122 -50.5z" />
    <glyph glyph-name="P" unicode="P" horiz-adv-x="601" 
d="M41 0l135 693h210q103 0 160 -49.5t57 -138.5q0 -71 -35.5 -126t-102 -86.5t-155.5 -31.5h-103l-51 -261h-115zM225 353h87q81 0 127.5 39t46.5 107q0 52 -30.5 77t-94.5 25h-88z" />
    <glyph glyph-name="Q" unicode="Q" horiz-adv-x="749" 
d="M605 -167q-83 13 -159 52t-132 98q-121 6 -189.5 80.5t-68.5 200.5q0 124 47.5 224.5t135.5 160.5t202 60q128 0 201.5 -75.5t73.5 -205.5q0 -79 -20 -149.5t-58 -128.5t-93 -98.5t-123 -57.5q76 -48 203 -61zM342 83q71 0 128.5 41.5t91.5 118t34 175.5q0 90 -44 140.5
t-122 50.5q-71 0 -128.5 -41.5t-91.5 -118t-34 -175.5q0 -90 44 -140.5t122 -50.5z" />
    <glyph glyph-name="R" unicode="R" horiz-adv-x="620" 
d="M432 0l-107 277h-115l-54 -277h-115l135 693h210q103 0 160 -48.5t57 -135.5q0 -77 -44.5 -132.5t-125.5 -81.5l120 -295h-121zM228 368h89q80 0 124.5 35t44.5 99q0 51 -31 75.5t-94 24.5h-88z" />
    <glyph glyph-name="S" unicode="S" horiz-adv-x="547" 
d="M225 318q-69 32 -101 74t-32 100q0 60 32 109.5t92 78.5t136 29q49 0 95.5 -12.5t82.5 -34.5l-17 -89q-32 18 -75 28t-84 10q-67 0 -105.5 -27.5t-38.5 -75.5q0 -31 18 -51.5t63 -40.5l73 -33q68 -31 98 -71t30 -99q0 -67 -34 -119t-98.5 -81.5t-150.5 -29.5
q-58 0 -110 13.5t-90 38.5l19 88q96 -42 183 -42q74 0 118.5 30.5t44.5 82.5q0 31 -20.5 52.5t-72.5 45.5z" />
    <glyph glyph-name="T" unicode="T" horiz-adv-x="572" 
d="M173 0l116 595h-210l19 98h538l-19 -98h-210l-116 -595h-118z" />
    <glyph glyph-name="U" unicode="U" horiz-adv-x="707" 
d="M587 693h118l-89 -457q-24 -122 -102.5 -187.5t-201.5 -65.5q-110 0 -172 54t-62 149q0 55 21 163l67 344h118l-67 -345q-23 -115 -23 -147q0 -58 33 -88t97 -30q71 0 115 37.5t58 111.5z" />
    <glyph glyph-name="V" unicode="V" horiz-adv-x="615" 
d="M185 0l-108 693h126l69 -573l290 573h128l-376 -693h-129z" />
    <glyph glyph-name="W" unicode="W" horiz-adv-x="911" 
d="M519 0l-20 527l-222 -527h-129l-57 693h125l23 -560l223 541h131l18 -541l235 560h129l-327 -693h-129z" />
    <glyph glyph-name="X" unicode="X" horiz-adv-x="578" 
d="M408 0l-112 271l-210 -271h-137l300 370l-141 323h126l99 -245l190 245h137l-279 -343l153 -350h-126z" />
    <glyph glyph-name="Y" unicode="Y" horiz-adv-x="558" 
d="M160 0l50 255l-142 438h123l92 -343l228 343h129l-315 -441l-49 -252h-116z" />
    <glyph glyph-name="Z" unicode="Z" horiz-adv-x="556" 
d="M-20 0l17 88l449 509h-332l19 96h470l-17 -88l-449 -509h351l-19 -96h-489z" />
    <glyph glyph-name="bracketleft" unicode="[" horiz-adv-x="349" 
d="M-2 -144l175 898h253l-18 -92h-135l-139 -714h136l-18 -92h-254z" />
    <glyph glyph-name="backslash" unicode="\" horiz-adv-x="466" 
d="M254 -144l-147 898h110l147 -898h-110z" />
    <glyph glyph-name="bracketright" unicode="]" horiz-adv-x="349" 
d="M-74 -144l18 92h135l139 714h-136l18 92h254l-175 -898h-253z" />
    <glyph glyph-name="asciicircum" unicode="^" 
d="M436 295l-72 293l-184 -293h-117l271 398h95l118 -398h-111z" />
    <glyph glyph-name="underscore" unicode="_" horiz-adv-x="500" 
d="M-64 -155l17 91h500l-17 -91h-500z" />
    <glyph glyph-name="grave" unicode="`" horiz-adv-x="588" 
d="M351 601l-95 163h128l63 -163h-96z" />
    <glyph glyph-name="a" unicode="a" horiz-adv-x="558" 
d="M342 0l3 89q-86 -104 -182 -104q-63 0 -97.5 45t-34.5 127q0 93 41 176.5t114 137t159 53.5q40 0 92 -11t93 -29l-94 -484h-94zM208 76q31 0 69 26t80 75l48 251q-28 7 -62 7q-49 0 -93.5 -34.5t-73.5 -96.5t-29 -134q0 -94 61 -94z" />
    <glyph glyph-name="b" unicode="b" horiz-adv-x="557" 
d="M222 428q82 96 173 96q64 0 97.5 -46t33.5 -134q0 -96 -39.5 -177.5t-111 -131.5t-160.5 -50q-41 0 -91 11t-94 29l139 715h114zM350 433q-30 0 -68.5 -26.5t-78.5 -74.5l-48 -251q29 -7 60 -7q54 0 98 31.5t70.5 89t26.5 131.5q0 107 -60 107z" />
    <glyph glyph-name="c" unicode="c" horiz-adv-x="450" 
d="M407 50q-39 -31 -89.5 -48t-102.5 -17q-88 0 -136 51t-48 144q0 87 40 165.5t110.5 128.5t153.5 50q32 0 64 -7t57 -20l-16 -84q-51 18 -96 18q-54 0 -98 -29.5t-70.5 -84.5t-26.5 -126q0 -59 21.5 -86t69.5 -27q29 0 61 10t75 33z" />
    <glyph glyph-name="d" unicode="d" horiz-adv-x="558" 
d="M342 0l3 89q-86 -104 -182 -104q-62 0 -97 44.5t-35 124.5q0 93 39.5 177.5t109 138.5t151.5 54q43 0 89 -19l46 235h114l-144 -740h-94zM208 76q31 0 69 26t80 75l48 251q-28 7 -62 7q-49 0 -93.5 -34.5t-73.5 -96.5t-29 -134q0 -94 61 -94z" />
    <glyph glyph-name="e" unicode="e" horiz-adv-x="488" 
d="M422 48q-44 -30 -100 -47.5t-112 -17.5q-89 0 -134 47.5t-45 140.5q0 91 39.5 171.5t110.5 132t156 51.5q65 0 102 -32t37 -88q0 -78 -72.5 -136t-203.5 -84l-60 -12q0 -55 22 -79.5t72 -24.5q72 0 158 46zM314 440q-37 0 -72 -23.5t-61.5 -67t-36.5 -98.5l60 14
q77 18 122 52.5t45 74.5q0 23 -14.5 35.5t-42.5 12.5z" />
    <glyph glyph-name="f" unicode="f" horiz-adv-x="386" 
d="M58 0l82 421h-87l14 72l90 13l13 68q34 180 199 180q26 0 53 -6t46 -15l-16 -80q-40 10 -74 10q-42 0 -63 -18t-29 -59l-15 -77h151l-17 -88h-151l-82 -421h-114z" />
    <glyph glyph-name="g" unicode="g" horiz-adv-x="558" 
d="M343 111q-39 -49 -85 -75.5t-91 -26.5q-65 0 -100.5 42.5t-35.5 121.5q0 89 40.5 168.5t112.5 131t158 51.5q42 0 93 -11t95 -29l-82 -423q-27 -138 -106 -208.5t-206 -70.5q-40 0 -78.5 9.5t-70.5 27.5l17 84q72 -29 134 -29q86 0 133 46.5t65 149.5zM208 100
q33 0 73 28t82 81l42 219q-27 7 -64 7q-49 0 -93 -32.5t-72.5 -90.5t-28.5 -126q0 -42 15.5 -64t45.5 -22z" />
    <glyph glyph-name="h" unicode="h" horiz-adv-x="588" 
d="M357 0l52 267q14 74 14 107q0 59 -60 59q-33 0 -75.5 -27.5t-84.5 -75.5l-64 -330h-114l144 740h114l-61 -314q42 47 89.5 72.5t94.5 25.5q64 0 98.5 -35t34.5 -99q0 -41 -16 -123l-52 -267h-114z" />
    <glyph glyph-name="i" unicode="i" horiz-adv-x="268" 
d="M205 593q-30 0 -46.5 14.5t-16.5 42.5q0 33 23.5 56t57.5 23q30 0 46.5 -14.5t16.5 -42.5q0 -33 -23.5 -56t-57.5 -23zM29 0l99 509h114l-99 -509h-114z" />
    <glyph glyph-name="j" unicode="j" horiz-adv-x="268" 
d="M-109 -121q27 -8 56 -8q30 0 47.5 19.5t25.5 61.5l108 557h114l-108 -557q-33 -170 -159 -170q-55 0 -99 22zM205 593q-30 0 -46.5 14.5t-16.5 42.5q0 33 23.5 56t57.5 23q30 0 46.5 -14.5t16.5 -42.5q0 -33 -23.5 -56t-57.5 -23z" />
    <glyph glyph-name="k" unicode="k" horiz-adv-x="518" 
d="M25 0l144 740h114l-86 -441l214 210h145l-259 -239l187 -270h-131l-166 247l-48 -247h-114z" />
    <glyph glyph-name="l" unicode="l" horiz-adv-x="299" 
d="M263 22q-48 -28 -108 -28q-51 0 -77.5 27t-26.5 78q0 34 12 95l106 546h114l-106 -546q-9 -45 -10.5 -56t-1.5 -22q0 -15 10 -24t28 -9q17 0 37 5z" />
    <glyph glyph-name="m" unicode="m" horiz-adv-x="894" 
d="M663 0l52 267q15 78 15 103q0 32 -13 47.5t-41 15.5q-69 0 -153 -89q-5 -36 -13 -77l-52 -267h-114l52 267q14 76 14 105q0 61 -51 61q-71 0 -156 -103l-64 -330h-114l99 509h94l-3 -91q85 106 185 106q51 0 84 -28t40 -78q88 106 195 106q61 0 93.5 -35.5t32.5 -102.5
q0 -35 -16 -119l-52 -267h-114z" />
    <glyph glyph-name="n" unicode="n" horiz-adv-x="588" 
d="M357 0l52 267q14 74 14 107q0 59 -60 59q-33 0 -75.5 -27.5t-84.5 -75.5l-64 -330h-114l99 509h94l-3 -91q43 51 92.5 78.5t98.5 27.5q64 0 98.5 -35t34.5 -99q0 -41 -16 -123l-52 -267h-114z" />
    <glyph glyph-name="o" unicode="o" horiz-adv-x="547" 
d="M226 -15q-92 0 -143.5 56.5t-51.5 157.5q0 87 36.5 160.5t103.5 119t150 45.5q92 0 143.5 -56.5t51.5 -157.5q0 -87 -36.5 -160.5t-103.5 -119t-150 -45.5zM238 76q43 0 80 29t59.5 82t22.5 119q0 62 -23 94.5t-68 32.5q-43 0 -80 -29t-59.5 -82t-22.5 -119
q0 -62 23 -94.5t68 -32.5z" />
    <glyph glyph-name="p" unicode="p" horiz-adv-x="557" 
d="M-15 -206l139 715h94l-3 -89q86 104 180 104q64 0 97.5 -46t33.5 -134q0 -95 -38 -176.5t-107 -132t-153 -50.5q-43 0 -88 18l-41 -209h-114zM350 433q-30 0 -68.5 -26.5t-78.5 -74.5l-48 -251q29 -7 60 -7q54 0 98 31.5t70.5 89t26.5 131.5q0 107 -60 107z" />
    <glyph glyph-name="q" unicode="q" horiz-adv-x="558" 
d="M282 -206l56 287q-81 -96 -175 -96q-63 0 -97.5 45t-34.5 127q0 93 41 176.5t114 137t159 53.5q40 0 92 -11t93 -29l-134 -690h-114zM208 76q31 0 69 26t80 75l48 251q-28 7 -62 7q-49 0 -93.5 -34.5t-73.5 -96.5t-29 -134q0 -94 61 -94z" />
    <glyph glyph-name="r" unicode="r" horiz-adv-x="382" 
d="M25 0l99 509h94l-3 -92q39 49 78 72.5t83 23.5q25 0 43 -5l-21 -106q-32 5 -51 5q-39 0 -76 -20t-68 -57l-64 -330h-114z" />
    <glyph glyph-name="s" unicode="s" horiz-adv-x="437" 
d="M158 237q-46 25 -66.5 55.5t-20.5 71.5q0 72 55 116t145 44q39 0 78 -8.5t67 -23.5l-16 -83q-25 12 -60 19.5t-68 7.5q-46 0 -69.5 -16t-23.5 -47q0 -19 11.5 -31.5t47.5 -32.5l53 -30q51 -29 71 -57t20 -70q0 -77 -55.5 -122t-151.5 -45q-45 0 -91.5 10.5t-80.5 27.5
l16 83q35 -15 79 -24t78 -9q47 0 71.5 16.5t24.5 48.5q0 20 -12.5 34.5t-44.5 32.5z" />
    <glyph glyph-name="t" unicode="t" horiz-adv-x="396" 
d="M353 38q-27 -20 -65.5 -32.5t-75.5 -12.5q-136 0 -136 116q0 27 15 103l41 209h-87l14 72l93 14l45 142h93l-27 -140h144l-17 -88h-144l-39 -200q-15 -75 -15 -92q0 -24 13 -34.5t42 -10.5q39 0 81 20z" />
    <glyph glyph-name="u" unicode="u" horiz-adv-x="573" 
d="M357 0l3 89q-39 -49 -88 -76.5t-99 -27.5q-62 0 -94.5 34.5t-32.5 99.5q0 41 16 123l52 267h114l-52 -267q-14 -74 -14 -107q0 -30 13 -44.5t42 -14.5q31 0 72.5 27t82.5 74l64 332h114l-99 -509h-94z" />
    <glyph glyph-name="v" unicode="v" horiz-adv-x="499" 
d="M142 0l-93 509h118l54 -403q63 110 113.5 215t81.5 188h115q-41 -105 -119 -246t-163 -263h-107z" />
    <glyph glyph-name="w" unicode="w" horiz-adv-x="755" 
d="M423 0l-25 382l-163 -382h-112l-68 509h119l31 -394l159 394h111l28 -403q48 96 90 201t71 202h115q-34 -102 -106 -253t-138 -256h-112z" />
    <glyph glyph-name="x" unicode="x" horiz-adv-x="482" 
d="M309 0l-80 180l-142 -180h-128l228 263l-121 246h120l73 -170l132 170h128l-215 -250l125 -259h-120z" />
    <glyph glyph-name="y" unicode="y" horiz-adv-x="489" 
d="M-66 -141q76 30 120.5 60.5t88.5 84.5l-101 505h118l62 -403q107 195 184 403h115q-58 -147 -141 -301t-154 -246q-115 -151 -242 -181z" />
    <glyph glyph-name="z" unicode="z" horiz-adv-x="460" 
d="M-17 0l16 82l326 339h-253l17 88h390l-16 -82l-326 -339h265l-17 -88h-402z" />
    <glyph glyph-name="braceleft" unicode="{" horiz-adv-x="381" 
d="M309 -126q-47 -26 -109 -26q-65 0 -97.5 31.5t-32.5 96.5q0 31 11 88l18 93q11 55 11 73q0 23 -12.5 33.5t-41.5 10.5h-21l18 90h20q38 0 55.5 14.5t24.5 52.5l30 159q16 84 63.5 128t122.5 44q54 0 90 -17l-15 -79q-39 7 -57 7q-36 0 -56.5 -21t-29.5 -67l-29 -149
q-10 -49 -37 -77.5t-75 -40.5q32 -7 51.5 -27t19.5 -45q0 -22 -15 -100l-14 -69q-15 -76 -15 -96q0 -44 56 -44q13 0 27 2.5t20 5.5z" />
    <glyph glyph-name="bar" unicode="|" horiz-adv-x="288" 
d="M-5 -206l187 960h116l-187 -960h-116z" />
    <glyph glyph-name="braceright" unicode="}" horiz-adv-x="381" 
d="M321 246q-38 0 -55.5 -14.5t-24.5 -52.5l-30 -159q-16 -84 -63.5 -128t-122.5 -44q-54 0 -90 17l15 79q39 -7 57 -7q36 0 56.5 21t29.5 67l29 149q10 49 37 77.5t75 40.5q-32 7 -51.5 27t-19.5 45q0 22 15 100l14 69q15 77 15 96q0 44 -56 44q-13 0 -27 -2.5t-20 -5.5
l-19 71q47 26 109 26q65 0 97.5 -31.5t32.5 -96.5q0 -31 -15 -109l-14 -72q-11 -55 -11 -73q0 -23 12.5 -33.5t41.5 -10.5h21l-18 -90h-20z" />
    <glyph glyph-name="asciitilde" unicode="~" 
d="M477 435h81q-1 -84 -40.5 -132.5t-106.5 -48.5q-31 0 -59 12.5t-63 41.5q-34 28 -49.5 36.5t-31.5 8.5q-24 0 -38 -14t-20 -44l-7 -35h-81q1 84 40.5 132.5t106.5 48.5q31 0 59 -12.5t63 -41.5q34 -28 49.5 -36.5t31.5 -8.5q24 0 38 14t20 44z" />
    <glyph glyph-name="uni00A0" unicode="&#xa0;" horiz-adv-x="262" 
 />
    <glyph glyph-name="exclamdown" unicode="&#xa1;" horiz-adv-x="270" 
d="M104 292h90l-76 -474q-35 -16 -66 -16q-32 0 -60 16zM164 368q-30 0 -47.5 17.5t-17.5 46.5q0 37 25 62.5t62 25.5q30 0 47.5 -17.5t17.5 -46.5q0 -37 -25 -62.5t-62 -25.5z" />
    <glyph glyph-name="cent" unicode="&#xa2;" 
d="M226 -130l28 147q-81 5 -126 55t-45 136q0 79 34.5 151t97.5 122.5t141 61.5l29 150h68l-29 -147q67 -5 107 -25l-16 -80q-64 18 -107 18l-68 -349q53 9 111 40l30 -67q-32 -23 -74 -39.5t-84 -23.5l-29 -150h-68zM197 218q0 -49 18 -75.5t57 -33.5l65 338
q-62 -23 -101 -86.5t-39 -142.5z" />
    <glyph glyph-name="sterling" unicode="&#xa3;" 
d="M287 298q-7 -65 -31 -113t-70 -90h320l-18 -95h-447l17 87q107 67 120 211h-104l18 90h87q-4 45 -4 78q0 70 30 124.5t86.5 85.5t131.5 31q102 0 176 -56l-16 -84q-78 43 -153 43q-70 0 -107 -38t-37 -111q0 -37 2 -73h196l-18 -90h-179z" />
    <glyph glyph-name="currency" unicode="&#xa4;" 
d="M438 58l-62 83q-46 -27 -116 -27q-59 0 -103 28l-95 -84l-58 63l93 80q-21 35 -21 94q0 52 19 100t55 85l-64 83l83 59l62 -83q47 27 116 27q59 0 103 -28l95 84l58 -63l-93 -80q21 -34 21 -94q0 -52 -19 -100t-55 -85l64 -83zM275 194q41 0 76.5 23.5t57 66.5t21.5 96
q0 106 -98 106q-41 0 -76.5 -23.5t-57 -66.5t-21.5 -96q0 -106 98 -106z" />
    <glyph glyph-name="yen" unicode="&#xa5;" 
d="M320 151l-29 -151h-112l29 151h-162l14 73h162l6 30l-16 54h-136l14 73h101l-90 312h125l79 -345l211 345h125l-213 -312h102l-14 -73h-138l-38 -56l-6 -28h167l-14 -73h-167z" />
    <glyph glyph-name="brokenbar" unicode="&#xa6;" horiz-adv-x="288" 
d="M-5 -206l70 357h116l-70 -357h-116zM112 397l70 357h116l-70 -357h-116z" />
    <glyph glyph-name="section" unicode="&#xa7;" horiz-adv-x="477" 
d="M158 159q-59 28 -83.5 58t-24.5 74q0 56 34 94.5t97 53.5q-66 44 -66 112q0 70 56.5 114t147.5 44q42 0 85 -9.5t75 -26.5l-16 -80q-67 29 -141 29q-101 0 -101 -66q0 -21 11.5 -34.5t42.5 -29.5l73 -36q59 -29 82.5 -59t23.5 -76q0 -109 -117 -151q51 -42 51 -107
q0 -73 -54.5 -116t-148.5 -43q-50 0 -100 11.5t-87 30.5l16 80q38 -16 84.5 -25.5t86.5 -9.5q49 0 73 16t24 49q0 25 -15.5 41.5t-56.5 36.5zM255 400q-101 -15 -101 -90q0 -27 16 -44.5t61 -38.5l40 -19q79 24 79 93q0 31 -17 51t-58 39z" />
    <glyph glyph-name="dieresis" unicode="&#xa8;" horiz-adv-x="588" 
d="M254 592q-27 0 -42 14t-15 39q0 33 22 54t56 21q27 0 42 -14t15 -39q0 -33 -22 -54t-56 -21zM475 592q-27 0 -42 14t-15 39q0 33 22 54t56 21q27 0 42 -14t15 -39q0 -33 -22 -54t-56 -21z" />
    <glyph glyph-name="copyright" unicode="&#xa9;" horiz-adv-x="778" 
d="M771 345q0 -101 -45 -183t-128.5 -130.5t-191.5 -48.5q-103 0 -185.5 45t-131 127.5t-48.5 189.5q0 101 45 183t128.5 130.5t191.5 48.5q103 0 185.5 -45t131 -127.5t48.5 -189.5zM406 53q82 0 146 35.5t100 102t36 154.5q0 85 -34 151t-98.5 103.5t-149.5 37.5
q-82 0 -146 -35.5t-100 -102t-36 -154.5q0 -85 34 -151t98.5 -103.5t149.5 -37.5zM526 165q-48 -20 -99 -20q-90 0 -139.5 53t-49.5 151q0 96 50.5 150t139.5 54q53 0 93 -20v-68q-43 12 -83 12q-104 0 -104 -117v-20q0 -119 108 -119q37 0 84 14v-70z" />
    <glyph glyph-name="ordfeminine" unicode="&#xaa;" horiz-adv-x="398" 
d="M165 336q-42 0 -66.5 25t-24.5 68q0 56 41 89t110 33q41 0 84 -12l6 30q3 15 3 30q0 41 -59 41q-50 0 -118 -29l-14 58q33 18 73.5 28t79.5 10q61 0 93 -24.5t32 -70.5q0 -15 -5 -44l-43 -222h-71l-2 38q-61 -48 -119 -48zM39 209l13 67h291l-13 -67h-291zM206 397
q31 0 82 33l11 60q-35 9 -62 9q-36 -1 -56 -16.5t-20 -42.5q0 -21 12 -32t33 -11z" />
    <glyph glyph-name="guillemotleft" unicode="&#xab;" horiz-adv-x="544" 
d="M146 51l-99 208l177 208h111l-176 -212l92 -204h-105zM357 51l-99 208l177 208h111l-176 -212l92 -204h-105z" />
    <glyph glyph-name="logicalnot" unicode="&#xac;" 
d="M411 214l35 177h-357l18 91h455l-52 -268h-99z" />
    <glyph glyph-name="uni00AD" unicode="&#xad;" horiz-adv-x="407" 
d="M39 209l19 99h316l-19 -99h-316z" />
    <glyph glyph-name="registered" unicode="&#xae;" horiz-adv-x="534" 
d="M556 514q0 -68 -29.5 -122t-85 -86t-128.5 -32q-70 0 -125 29.5t-87 84.5t-32 126q0 69 30 123t85.5 85.5t128.5 31.5q69 0 124 -29.5t87 -84.5t32 -126zM312 318q86 0 138 53.5t52 142.5t-52 142.5t-138 53.5t-137.5 -53.5t-51.5 -142.5t51.5 -142.5t137.5 -53.5z
M221 385v262h101q44 0 67.5 -21.5t23.5 -61.5q0 -25 -13 -43.5t-37 -28.5l68 -107h-61l-58 98h-36v-98h-55zM276 527h36q43 0 43 37q0 18 -10 27.5t-28 9.5h-41v-74z" />
    <glyph glyph-name="macron" unicode="&#xaf;" horiz-adv-x="588" 
d="M208 630l14 75h324l-14 -75h-324z" />
    <glyph glyph-name="degree" unicode="&#xb0;" horiz-adv-x="307" 
d="M339 581q0 -44 -20.5 -81t-58 -59t-83.5 -22q-54 0 -86 32t-32 88q0 44 20.5 81t58 59t83.5 22q54 0 86 -32t32 -88zM185 483q34 0 57 26.5t23 66.5q0 28 -14 44.5t-38 16.5q-34 0 -57 -26.5t-23 -66.5q0 -28 14 -44.5t38 -16.5z" />
    <glyph glyph-name="plusminus" unicode="&#xb1;" 
d="M361 370l-36 -188h-99l36 188h-178l18 91h178l36 188h99l-36 -188h178l-18 -91h-178zM18 16l18 91h455l-18 -91h-455z" />
    <glyph glyph-name="uni00B2" unicode="&#xb2;" horiz-adv-x="410" 
d="M93 390l12 59q127 95 175 144.5t48 84.5q0 21 -13.5 33t-37.5 12q-43 0 -110 -44l-15 59q73 55 150 55q54 0 85.5 -26t31.5 -71q0 -50 -46 -104t-156 -134h172l-13 -68h-283z" />
    <glyph glyph-name="uni00B3" unicode="&#xb3;" horiz-adv-x="410" 
d="M110 470q55 -21 108 -21q45 0 70.5 18t25.5 49q0 25 -17.5 36.5t-53.5 11.5q-25 0 -62 -4l8 41l127 113h-157l13 68h254l-11 -57l-126 -110h7q49 0 76 -25t27 -70q0 -61 -50 -100t-130 -39q-67 0 -121 26z" />
    <glyph glyph-name="acute" unicode="&#xb4;" horiz-adv-x="588" 
d="M275 601l120 163h136l-160 -163h-96z" />
    <glyph glyph-name="mu" unicode="&#xb5;" 
d="M557 20q-21 -12 -49 -19t-53 -7q-44 0 -69 24t-28 69q-31 -46 -75 -74t-85 -28q-53 0 -78 48l-47 -239h-107l139 715h114l-52 -267q-13 -62 -13 -102q0 -31 15 -47.5t43 -16.5q35 0 75 26t75 71l65 336h114l-54 -277q-19 -98 -19 -114q0 -36 36 -36q12 0 28 4z" />
    <glyph glyph-name="paragraph" unicode="&#xb6;" horiz-adv-x="600" 
d="M355 -104l138 712h-97l-158 -814h-92l86 446q-83 30 -121 79t-38 129q0 117 71 181t199 64h259l-155 -797h-92z" />
    <glyph glyph-name="periodcentered" unicode="&#xb7;" horiz-adv-x="260" 
d="M119 185q-30 0 -47.5 17.5t-17.5 46.5q0 37 25 62.5t62 25.5q30 0 47.5 -17.5t17.5 -46.5q0 -37 -25 -62.5t-62 -25.5z" />
    <glyph glyph-name="cedilla" unicode="&#xb8;" horiz-adv-x="588" 
d="M106 -242q54 30 76.5 50.5t22.5 39.5q0 23 -33 23q-13 0 -34 -3l13 61q35 10 64 10q38 0 59.5 -17.5t21.5 -49.5q0 -82 -151 -156z" />
    <glyph glyph-name="uni00B9" unicode="&#xb9;" horiz-adv-x="410" 
d="M220 390l60 308l-126 -41l13 69l135 56h82l-76 -392h-88z" />
    <glyph glyph-name="ordmasculine" unicode="&#xba;" horiz-adv-x="418" 
d="M39 209l13 67h315l-13 -67h-315zM227 331q-64 0 -102 38.5t-38 102.5q0 66 25 119t71 84.5t105 31.5q64 0 102 -38.5t38 -102.5q0 -66 -25 -119t-71 -84.5t-105 -31.5zM235 400q45 0 74.5 45.5t29.5 113.5q0 35 -16 57t-43 22q-45 0 -74.5 -45.5t-29.5 -113.5
q0 -35 16 -57t43 -22z" />
    <glyph glyph-name="guillemotright" unicode="&#xbb;" horiz-adv-x="544" 
d="M9 51l176 212l-92 204h105l99 -208l-177 -208h-111zM220 51l176 212l-92 204h105l99 -208l-177 -208h-111z" />
    <glyph glyph-name="onequarter" unicode="&#xbc;" horiz-adv-x="940" 
d="M221 0l452 693h95l-452 -693h-95zM725 0l15 79h-198l12 63l242 256h85l-50 -255h61l-12 -64h-62l-15 -79h-78zM753 143l30 157l-148 -157h118zM191 301l60 308l-126 -41l13 69l135 56h82l-76 -392h-88z" />
    <glyph glyph-name="onehalf" unicode="&#xbd;" horiz-adv-x="940" 
d="M190 0l452 693h95l-452 -693h-95zM552 0l12 59q127 95 175 144.5t48 84.5q0 21 -13.5 33t-37.5 12q-43 0 -110 -44l-15 59q73 55 150 55q54 0 85.5 -26t31.5 -71q0 -50 -46 -104t-156 -134h172l-13 -68h-283zM191 301l60 308l-126 -41l13 69l135 56h82l-76 -392h-88z" />
    <glyph glyph-name="threequarters" unicode="&#xbe;" horiz-adv-x="940" 
d="M235 0l452 693h95l-452 -693h-95zM725 0l15 79h-198l12 63l242 256h85l-50 -255h61l-12 -64h-62l-15 -79h-78zM753 143l30 157l-148 -157h118zM88 381q55 -21 108 -21q45 0 70.5 18t25.5 49q0 25 -17.5 36.5t-53.5 11.5q-25 0 -62 -4l8 41l127 113h-157l13 68h254
l-11 -57l-126 -110h7q49 0 76 -25t27 -70q0 -61 -50 -100t-130 -39q-67 0 -121 26z" />
    <glyph glyph-name="questiondown" unicode="&#xbf;" horiz-adv-x="432" 
d="M330 -141q-39 -28 -84.5 -43t-91.5 -15q-81 0 -130.5 43t-49.5 113q0 73 53.5 130.5t162.5 101.5l22 103h90l-20 -148l-51 -24q-74 -35 -110 -72t-36 -78q0 -35 24.5 -55t68.5 -20q66 0 135 43zM272 368q-30 0 -47.5 17.5t-17.5 46.5q0 37 25 62.5t62 25.5
q30 0 47.5 -17.5t17.5 -46.5q0 -37 -25 -62.5t-62 -25.5z" />
    <glyph glyph-name="Agrave" unicode="&#xc0;" horiz-adv-x="620" 
d="M449 0l-22 175h-256l-89 -175h-124l376 693h129l110 -693h-124zM215 262h203l-41 320zM354 769l-104 125h129l77 -125h-102z" />
    <glyph glyph-name="Aacute" unicode="&#xc1;" horiz-adv-x="620" 
d="M449 0l-22 175h-256l-89 -175h-124l376 693h129l110 -693h-124zM215 262h203l-41 320zM456 769h-102l118 125h137z" />
    <glyph glyph-name="Acircumflex" unicode="&#xc2;" horiz-adv-x="620" 
d="M449 0l-22 175h-256l-89 -175h-124l376 693h129l110 -693h-124zM215 262h203l-41 320zM492 769l-68 78l-99 -78h-111l158 137h121l104 -137h-105z" />
    <glyph glyph-name="Atilde" unicode="&#xc3;" horiz-adv-x="620" 
d="M449 0l-22 175h-256l-89 -175h-124l376 693h129l110 -693h-124zM215 262h203l-41 320zM532 900h69q0 -13 -4 -34q-11 -48 -42 -74.5t-76 -26.5q-21 0 -40.5 9t-43.5 31q-18 17 -27 22.5t-17 5.5q-13 0 -22 -9t-13 -26l-7 -28h-69q0 13 4 34q11 48 42 74.5t76 26.5
q21 0 40.5 -9t43.5 -31q18 -17 27 -22.5t17 -5.5q13 0 22 9.5t13 25.5z" />
    <glyph glyph-name="Adieresis" unicode="&#xc4;" horiz-adv-x="620" 
d="M449 0l-22 175h-256l-89 -175h-124l376 693h129l110 -693h-124zM215 262h203l-41 320zM314 775q-27 0 -42.5 14.5t-15.5 40.5q0 32 23 53.5t58 21.5q27 0 42.5 -14.5t15.5 -40.5q0 -32 -23 -53.5t-58 -21.5zM518 775q-27 0 -42.5 14.5t-15.5 40.5q0 32 23 53.5t58 21.5
q27 0 42.5 -14.5t15.5 -40.5q0 -32 -23 -53.5t-58 -21.5z" />
    <glyph glyph-name="Aring" unicode="&#xc5;" horiz-adv-x="620" 
d="M449 0l-22 175h-256l-89 -175h-124l376 693h129l110 -693h-124zM215 262h203l-41 320zM411 735q-46 0 -72 23t-26 63q0 50 37 83t92 33q46 0 72 -23t26 -63q0 -50 -37 -83t-92 -33zM418 788q22 0 38 17t16 41q0 17 -10 27.5t-27 10.5q-22 0 -38 -17t-16 -41
q0 -17 10 -27.5t27 -10.5z" />
    <glyph glyph-name="AE" unicode="&#xc6;" horiz-adv-x="918" 
d="M398 0l36 184h-233l-132 -184h-128l509 693h513l-19 -96h-312l-37 -193h259l-19 -96h-259l-41 -212h312l-19 -96h-430zM262 271h189l63 326h-18z" />
    <glyph glyph-name="Ccedilla" unicode="&#xc7;" horiz-adv-x="596" 
d="M545 55q-103 -72 -226 -72q-124 0 -193.5 75.5t-69.5 211.5q0 116 51 216t144 161.5t208 61.5q89 0 155 -36l-18 -93q-68 27 -133 27q-79 0 -143.5 -40t-102.5 -114.5t-38 -171.5q0 -96 40.5 -146t117.5 -50q40 0 86.5 14t93.5 41zM196 -241q51 28 74.5 49t23.5 40
q0 21 -31 21q-13 0 -34 -3l13 63q35 10 64 10q38 0 59.5 -17.5t21.5 -49.5q0 -82 -151 -156z" />
    <glyph glyph-name="Egrave" unicode="&#xc8;" horiz-adv-x="561" 
d="M41 0l135 693h430l-19 -96h-312l-37 -193h259l-19 -96h-259l-41 -212h312l-19 -96h-430zM347 769l-104 125h129l77 -125h-102z" />
    <glyph glyph-name="Eacute" unicode="&#xc9;" horiz-adv-x="561" 
d="M41 0l135 693h430l-19 -96h-312l-37 -193h259l-19 -96h-259l-41 -212h312l-19 -96h-430zM449 769h-102l118 125h137z" />
    <glyph glyph-name="Ecircumflex" unicode="&#xca;" horiz-adv-x="561" 
d="M41 0l135 693h430l-19 -96h-312l-37 -193h259l-19 -96h-259l-41 -212h312l-19 -96h-430zM485 769l-68 78l-99 -78h-111l158 137h121l104 -137h-105z" />
    <glyph glyph-name="Edieresis" unicode="&#xcb;" horiz-adv-x="561" 
d="M41 0l135 693h430l-19 -96h-312l-37 -193h259l-19 -96h-259l-41 -212h312l-19 -96h-430zM307 775q-27 0 -42.5 14.5t-15.5 40.5q0 32 23 53.5t58 21.5q27 0 42.5 -14.5t15.5 -40.5q0 -32 -23 -53.5t-58 -21.5zM511 775q-27 0 -42.5 14.5t-15.5 40.5q0 32 23 53.5t58 21.5
q27 0 42.5 -14.5t15.5 -40.5q0 -32 -23 -53.5t-58 -21.5z" />
    <glyph glyph-name="Igrave" unicode="&#xcc;" horiz-adv-x="310" 
d="M45 0l135 693h118l-135 -693h-118zM195 769l-104 125h129l77 -125h-102z" />
    <glyph glyph-name="Iacute" unicode="&#xcd;" horiz-adv-x="310" 
d="M45 0l135 693h118l-135 -693h-118zM297 769h-102l118 125h137z" />
    <glyph glyph-name="Icircumflex" unicode="&#xce;" horiz-adv-x="310" 
d="M45 0l135 693h118l-135 -693h-118zM333 769l-68 78l-99 -78h-111l158 137h121l104 -137h-105z" />
    <glyph glyph-name="Idieresis" unicode="&#xcf;" horiz-adv-x="310" 
d="M45 0l135 693h118l-135 -693h-118zM155 775q-27 0 -42.5 14.5t-15.5 40.5q0 32 23 53.5t58 21.5q27 0 42.5 -14.5t15.5 -40.5q0 -32 -23 -53.5t-58 -21.5zM359 775q-27 0 -42.5 14.5t-15.5 40.5q0 32 23 53.5t58 21.5q27 0 42.5 -14.5t15.5 -40.5q0 -32 -23 -53.5
t-58 -21.5z" />
    <glyph glyph-name="Eth" unicode="&#xd0;" horiz-adv-x="711" 
d="M49 0l61 313h-82l17 88h82l57 292h222q129 0 203 -72.5t74 -197.5q0 -115 -48.5 -211t-137 -154t-200.5 -58h-248zM228 313l-43 -219h109q75 0 136 40t97 113.5t36 168.5q0 88 -42.5 135.5t-121.5 47.5h-115l-39 -198h150l-17 -88h-150z" />
    <glyph glyph-name="Ntilde" unicode="&#xd1;" horiz-adv-x="723" 
d="M455 0l-204 541l-105 -541h-105l135 693h125l204 -541l105 541h105l-135 -693h-125zM579 900h69q0 -13 -4 -34q-11 -48 -42 -74.5t-76 -26.5q-21 0 -40.5 9t-43.5 31q-18 17 -27 22.5t-17 5.5q-13 0 -22 -9t-13 -26l-7 -28h-69q0 13 4 34q11 48 42 74.5t76 26.5
q21 0 40.5 -9t43.5 -31q18 -17 27 -22.5t17 -5.5q13 0 22 9.5t13 25.5z" />
    <glyph glyph-name="Ograve" unicode="&#xd2;" horiz-adv-x="749" 
d="M331 -17q-128 0 -201.5 75.5t-73.5 205.5q0 124 47.5 224.5t135.5 160.5t202 60q128 0 201.5 -75.5t73.5 -205.5q0 -124 -47.5 -224.5t-135.5 -160.5t-202 -60zM342 83q71 0 128.5 41.5t91.5 118t34 175.5q0 90 -44 140.5t-122 50.5q-71 0 -128.5 -41.5t-91.5 -118
t-34 -175.5q0 -90 44 -140.5t122 -50.5zM409 769l-104 125h129l77 -125h-102z" />
    <glyph glyph-name="Oacute" unicode="&#xd3;" horiz-adv-x="749" 
d="M331 -17q-128 0 -201.5 75.5t-73.5 205.5q0 124 47.5 224.5t135.5 160.5t202 60q128 0 201.5 -75.5t73.5 -205.5q0 -124 -47.5 -224.5t-135.5 -160.5t-202 -60zM342 83q71 0 128.5 41.5t91.5 118t34 175.5q0 90 -44 140.5t-122 50.5q-71 0 -128.5 -41.5t-91.5 -118
t-34 -175.5q0 -90 44 -140.5t122 -50.5zM511 769h-102l118 125h137z" />
    <glyph glyph-name="Ocircumflex" unicode="&#xd4;" horiz-adv-x="749" 
d="M331 -17q-128 0 -201.5 75.5t-73.5 205.5q0 124 47.5 224.5t135.5 160.5t202 60q128 0 201.5 -75.5t73.5 -205.5q0 -124 -47.5 -224.5t-135.5 -160.5t-202 -60zM342 83q71 0 128.5 41.5t91.5 118t34 175.5q0 90 -44 140.5t-122 50.5q-71 0 -128.5 -41.5t-91.5 -118
t-34 -175.5q0 -90 44 -140.5t122 -50.5zM547 769l-68 78l-99 -78h-111l158 137h121l104 -137h-105z" />
    <glyph glyph-name="Otilde" unicode="&#xd5;" horiz-adv-x="749" 
d="M331 -17q-128 0 -201.5 75.5t-73.5 205.5q0 124 47.5 224.5t135.5 160.5t202 60q128 0 201.5 -75.5t73.5 -205.5q0 -124 -47.5 -224.5t-135.5 -160.5t-202 -60zM342 83q71 0 128.5 41.5t91.5 118t34 175.5q0 90 -44 140.5t-122 50.5q-71 0 -128.5 -41.5t-91.5 -118
t-34 -175.5q0 -90 44 -140.5t122 -50.5zM587 900h69q0 -13 -4 -34q-11 -48 -42 -74.5t-76 -26.5q-21 0 -40.5 9t-43.5 31q-18 17 -27 22.5t-17 5.5q-13 0 -22 -9t-13 -26l-7 -28h-69q0 13 4 34q11 48 42 74.5t76 26.5q21 0 40.5 -9t43.5 -31q18 -17 27 -22.5t17 -5.5
q13 0 22 9.5t13 25.5z" />
    <glyph glyph-name="Odieresis" unicode="&#xd6;" horiz-adv-x="749" 
d="M331 -17q-128 0 -201.5 75.5t-73.5 205.5q0 124 47.5 224.5t135.5 160.5t202 60q128 0 201.5 -75.5t73.5 -205.5q0 -124 -47.5 -224.5t-135.5 -160.5t-202 -60zM342 83q71 0 128.5 41.5t91.5 118t34 175.5q0 90 -44 140.5t-122 50.5q-71 0 -128.5 -41.5t-91.5 -118
t-34 -175.5q0 -90 44 -140.5t122 -50.5zM369 775q-27 0 -42.5 14.5t-15.5 40.5q0 32 23 53.5t58 21.5q27 0 42.5 -14.5t15.5 -40.5q0 -32 -23 -53.5t-58 -21.5zM573 775q-27 0 -42.5 14.5t-15.5 40.5q0 32 23 53.5t58 21.5q27 0 42.5 -14.5t15.5 -40.5q0 -32 -23 -53.5
t-58 -21.5z" />
    <glyph glyph-name="multiply" unicode="&#xd7;" 
d="M421 130l-117 152l-177 -152l-53 66l178 154l-119 154l73 57l117 -152l177 152l53 -66l-178 -154l119 -154z" />
    <glyph glyph-name="Oslash" unicode="&#xd8;" horiz-adv-x="749" 
d="M-4 5l98 99q-38 68 -38 160q0 124 47.5 224.5t135.5 160.5t202 60q117 0 190 -65l86 87l53 -49l-93 -94q39 -67 39 -160q0 -124 -47.5 -224.5t-135.5 -160.5t-202 -60q-118 0 -191 65l-91 -92zM342 83q71 0 128.5 41.5t91.5 118t34 175.5q0 44 -11 79l-363 -366
q45 -48 120 -48zM176 274q0 -41 10 -78l363 366q-44 47 -119 47q-71 0 -128.5 -41.5t-91.5 -118t-34 -175.5z" />
    <glyph glyph-name="Ugrave" unicode="&#xd9;" horiz-adv-x="707" 
d="M587 693h118l-89 -457q-24 -122 -102.5 -187.5t-201.5 -65.5q-110 0 -172 54t-62 149q0 55 21 163l67 344h118l-67 -345q-23 -115 -23 -147q0 -58 33 -88t97 -30q71 0 115 37.5t58 111.5zM390 769l-104 125h129l77 -125h-102z" />
    <glyph glyph-name="Uacute" unicode="&#xda;" horiz-adv-x="707" 
d="M587 693h118l-89 -457q-24 -122 -102.5 -187.5t-201.5 -65.5q-110 0 -172 54t-62 149q0 55 21 163l67 344h118l-67 -345q-23 -115 -23 -147q0 -58 33 -88t97 -30q71 0 115 37.5t58 111.5zM492 769h-102l118 125h137z" />
    <glyph glyph-name="Ucircumflex" unicode="&#xdb;" horiz-adv-x="707" 
d="M587 693h118l-89 -457q-24 -122 -102.5 -187.5t-201.5 -65.5q-110 0 -172 54t-62 149q0 55 21 163l67 344h118l-67 -345q-23 -115 -23 -147q0 -58 33 -88t97 -30q71 0 115 37.5t58 111.5zM528 769l-68 78l-99 -78h-111l158 137h121l104 -137h-105z" />
    <glyph glyph-name="Udieresis" unicode="&#xdc;" horiz-adv-x="707" 
d="M587 693h118l-89 -457q-24 -122 -102.5 -187.5t-201.5 -65.5q-110 0 -172 54t-62 149q0 55 21 163l67 344h118l-67 -345q-23 -115 -23 -147q0 -58 33 -88t97 -30q71 0 115 37.5t58 111.5zM350 775q-27 0 -42.5 14.5t-15.5 40.5q0 32 23 53.5t58 21.5q27 0 42.5 -14.5
t15.5 -40.5q0 -32 -23 -53.5t-58 -21.5zM554 775q-27 0 -42.5 14.5t-15.5 40.5q0 32 23 53.5t58 21.5q27 0 42.5 -14.5t15.5 -40.5q0 -32 -23 -53.5t-58 -21.5z" />
    <glyph glyph-name="Yacute" unicode="&#xdd;" horiz-adv-x="558" 
d="M160 0l50 255l-142 438h123l92 -343l228 343h129l-315 -441l-49 -252h-116zM412 769h-102l118 125h137z" />
    <glyph glyph-name="Thorn" unicode="&#xde;" horiz-adv-x="591" 
d="M41 0l135 693h115l-24 -126h101q102 0 159 -49.5t57 -138.5q0 -69 -35.5 -122.5t-102.5 -84.5t-155 -31h-107l-28 -141h-115zM201 233h93q79 0 126 38t47 101q0 53 -30.5 78t-94.5 25h-93z" />
    <glyph glyph-name="germandbls" unicode="&#xdf;" horiz-adv-x="578" 
d="M214 101q30 -13 63.5 -20.5t61.5 -7.5q43 0 70 19t27 49q0 37 -50 73l-32 23q-73 53 -73 119q0 34 19.5 64.5t76.5 72.5q40 30 55 52t15 47q0 34 -23.5 54t-63.5 20q-54 0 -88 -39t-49 -117l-99 -510h-114l101 517q22 115 87.5 176t168.5 61q86 0 138.5 -41t52.5 -108
q0 -44 -24.5 -82t-92.5 -89q-31 -23 -41.5 -38t-10.5 -32q0 -16 11 -29.5t44 -38.5l29 -22q39 -29 56 -58t17 -65q0 -45 -25.5 -83t-73 -60.5t-108.5 -22.5q-38 0 -76.5 9t-64.5 24z" />
    <glyph glyph-name="agrave" unicode="&#xe0;" horiz-adv-x="558" 
d="M342 0l3 89q-86 -104 -182 -104q-63 0 -97.5 45t-34.5 127q0 93 41 176.5t114 137t159 53.5q40 0 92 -11t93 -29l-94 -484h-94zM208 76q31 0 69 26t80 75l48 251q-28 7 -62 7q-49 0 -93.5 -34.5t-73.5 -96.5t-29 -134q0 -94 61 -94zM295 601l-95 163h128l63 -163h-96z
" />
    <glyph glyph-name="aacute" unicode="&#xe1;" horiz-adv-x="558" 
d="M342 0l3 89q-86 -104 -182 -104q-63 0 -97.5 45t-34.5 127q0 93 41 176.5t114 137t159 53.5q40 0 92 -11t93 -29l-94 -484h-94zM208 76q31 0 69 26t80 75l48 251q-28 7 -62 7q-49 0 -93.5 -34.5t-73.5 -96.5t-29 -134q0 -94 61 -94zM305 601l120 163h136l-160 -163h-96z
" />
    <glyph glyph-name="acircumflex" unicode="&#xe2;" horiz-adv-x="558" 
d="M342 0l3 89q-86 -104 -182 -104q-63 0 -97.5 45t-34.5 127q0 93 41 176.5t114 137t159 53.5q40 0 92 -11t93 -29l-94 -484h-94zM208 76q31 0 69 26t80 75l48 251q-28 7 -62 7q-49 0 -93.5 -34.5t-73.5 -96.5t-29 -134q0 -94 61 -94zM447 601l-71 101l-110 -101h-100
l160 164h118l97 -164h-94z" />
    <glyph glyph-name="atilde" unicode="&#xe3;" horiz-adv-x="558" 
d="M342 0l3 89q-86 -104 -182 -104q-63 0 -97.5 45t-34.5 127q0 93 41 176.5t114 137t159 53.5q40 0 92 -11t93 -29l-94 -484h-94zM208 76q31 0 69 26t80 75l48 251q-28 7 -62 7q-49 0 -93.5 -34.5t-73.5 -96.5t-29 -134q0 -94 61 -94zM488 733h68q0 -15 -3 -35
q-5 -29 -21 -52t-41 -35.5t-56 -12.5q-23 0 -41.5 8.5t-39.5 28.5q-22 22 -30.5 27.5t-16.5 5.5q-14 0 -22.5 -8.5t-13.5 -26.5l-8 -30h-68q0 16 3 35q5 29 21 52t41 35.5t56 12.5q23 0 41.5 -8.5t39.5 -28.5q22 -22 30.5 -27.5t16.5 -5.5q14 0 22.5 8.5t13.5 26.5z" />
    <glyph glyph-name="adieresis" unicode="&#xe4;" horiz-adv-x="558" 
d="M342 0l3 89q-86 -104 -182 -104q-63 0 -97.5 45t-34.5 127q0 93 41 176.5t114 137t159 53.5q40 0 92 -11t93 -29l-94 -484h-94zM208 76q31 0 69 26t80 75l48 251q-28 7 -62 7q-49 0 -93.5 -34.5t-73.5 -96.5t-29 -134q0 -94 61 -94zM252 592q-27 0 -42 14t-15 39
q0 33 22 54t56 21q27 0 42 -14t15 -39q0 -33 -22 -54t-56 -21zM473 592q-27 0 -42 14t-15 39q0 33 22 54t56 21q27 0 42 -14t15 -39q0 -33 -22 -54t-56 -21z" />
    <glyph glyph-name="aring" unicode="&#xe5;" horiz-adv-x="558" 
d="M342 0l3 89q-86 -104 -182 -104q-63 0 -97.5 45t-34.5 127q0 93 41 176.5t114 137t159 53.5q40 0 92 -11t93 -29l-94 -484h-94zM208 76q31 0 69 26t80 75l48 251q-28 7 -62 7q-49 0 -93.5 -34.5t-73.5 -96.5t-29 -134q0 -94 61 -94zM365 585q-49 0 -78 25.5t-29 69.5
q0 53 40.5 89t99.5 36q49 0 78 -25.5t29 -69.5q0 -53 -40.5 -89t-99.5 -36zM372 642q25 0 42.5 19t17.5 45q0 19 -11 30.5t-30 11.5q-25 0 -42.5 -19t-17.5 -45q0 -19 11 -30.5t30 -11.5z" />
    <glyph glyph-name="ae" unicode="&#xe6;" horiz-adv-x="814" 
d="M748 48q-44 -30 -100 -47.5t-112 -17.5q-66 0 -109.5 32.5t-56.5 90.5q-36 -59 -89 -90t-115 -31q-65 0 -100 44.5t-35 127.5q0 93 41 176.5t114 137t159 53.5q85 0 165 -51q71 53 153 53q65 0 102 -32t37 -88q0 -78 -72.5 -136t-203.5 -84l-60 -12q0 -55 22 -79.5
t72 -24.5q72 0 158 46zM444 406q-51 29 -101 29q-49 0 -93.5 -34.5t-73.5 -96.5t-29 -134q0 -49 15.5 -71.5t50.5 -22.5q34 0 63 20.5t53 61t46 107.5q18 56 32 83t37 58zM530 265q77 18 122 52.5t45 74.5q0 23 -14.5 35.5t-42.5 12.5q-37 0 -72 -23.5t-61.5 -67
t-36.5 -98.5z" />
    <glyph glyph-name="ccedilla" unicode="&#xe7;" horiz-adv-x="450" 
d="M407 50q-39 -31 -89.5 -48t-102.5 -17q-88 0 -136 51t-48 144q0 87 40 165.5t110.5 128.5t153.5 50q32 0 64 -7t57 -20l-16 -84q-51 18 -96 18q-54 0 -98 -29.5t-70.5 -84.5t-26.5 -126q0 -59 21.5 -86t69.5 -27q29 0 61 10t75 33zM95 -242q54 30 76.5 50.5t22.5 39.5
q0 23 -33 23q-13 0 -34 -3l13 61q35 10 64 10q38 0 59.5 -17.5t21.5 -49.5q0 -82 -151 -156z" />
    <glyph glyph-name="egrave" unicode="&#xe8;" horiz-adv-x="488" 
d="M422 48q-44 -30 -100 -47.5t-112 -17.5q-89 0 -134 47.5t-45 140.5q0 91 39.5 171.5t110.5 132t156 51.5q65 0 102 -32t37 -88q0 -78 -72.5 -136t-203.5 -84l-60 -12q0 -55 22 -79.5t72 -24.5q72 0 158 46zM314 440q-37 0 -72 -23.5t-61.5 -67t-36.5 -98.5l60 14
q77 18 122 52.5t45 74.5q0 23 -14.5 35.5t-42.5 12.5zM279 601l-95 163h128l63 -163h-96z" />
    <glyph glyph-name="eacute" unicode="&#xe9;" horiz-adv-x="488" 
d="M422 48q-44 -30 -100 -47.5t-112 -17.5q-89 0 -134 47.5t-45 140.5q0 91 39.5 171.5t110.5 132t156 51.5q65 0 102 -32t37 -88q0 -78 -72.5 -136t-203.5 -84l-60 -12q0 -55 22 -79.5t72 -24.5q72 0 158 46zM314 440q-37 0 -72 -23.5t-61.5 -67t-36.5 -98.5l60 14
q77 18 122 52.5t45 74.5q0 23 -14.5 35.5t-42.5 12.5zM289 601l120 163h136l-160 -163h-96z" />
    <glyph glyph-name="ecircumflex" unicode="&#xea;" horiz-adv-x="488" 
d="M422 48q-44 -30 -100 -47.5t-112 -17.5q-89 0 -134 47.5t-45 140.5q0 91 39.5 171.5t110.5 132t156 51.5q65 0 102 -32t37 -88q0 -78 -72.5 -136t-203.5 -84l-60 -12q0 -55 22 -79.5t72 -24.5q72 0 158 46zM314 440q-37 0 -72 -23.5t-61.5 -67t-36.5 -98.5l60 14
q77 18 122 52.5t45 74.5q0 23 -14.5 35.5t-42.5 12.5zM431 601l-71 101l-110 -101h-100l160 164h118l97 -164h-94z" />
    <glyph glyph-name="edieresis" unicode="&#xeb;" horiz-adv-x="488" 
d="M422 48q-44 -30 -100 -47.5t-112 -17.5q-89 0 -134 47.5t-45 140.5q0 91 39.5 171.5t110.5 132t156 51.5q65 0 102 -32t37 -88q0 -78 -72.5 -136t-203.5 -84l-60 -12q0 -55 22 -79.5t72 -24.5q72 0 158 46zM314 440q-37 0 -72 -23.5t-61.5 -67t-36.5 -98.5l60 14
q77 18 122 52.5t45 74.5q0 23 -14.5 35.5t-42.5 12.5zM236 592q-27 0 -42 14t-15 39q0 33 22 54t56 21q27 0 42 -14t15 -39q0 -33 -22 -54t-56 -21zM457 592q-27 0 -42 14t-15 39q0 33 22 54t56 21q27 0 42 -14t15 -39q0 -33 -22 -54t-56 -21z" />
    <glyph glyph-name="igrave" unicode="&#xec;" horiz-adv-x="268" 
d="M29 0l99 509h114l-99 -509h-114zM135 601l-95 163h128l63 -163h-96z" />
    <glyph glyph-name="iacute" unicode="&#xed;" horiz-adv-x="268" 
d="M29 0l99 509h114l-99 -509h-114zM145 601l120 163h136l-160 -163h-96z" />
    <glyph glyph-name="icircumflex" unicode="&#xee;" horiz-adv-x="268" 
d="M29 0l99 509h114l-99 -509h-114zM287 601l-71 101l-110 -101h-100l160 164h118l97 -164h-94z" />
    <glyph glyph-name="idieresis" unicode="&#xef;" horiz-adv-x="268" 
d="M29 0l99 509h114l-99 -509h-114zM92 592q-27 0 -42 14t-15 39q0 33 22 54t56 21q27 0 42 -14t15 -39q0 -33 -22 -54t-56 -21zM313 592q-27 0 -42 14t-15 39q0 33 22 54t56 21q27 0 42 -14t15 -39q0 -33 -22 -54t-56 -21z" />
    <glyph glyph-name="eth" unicode="&#xf0;" horiz-adv-x="557" 
d="M419 647q100 -109 100 -298q0 -110 -34 -192t-99 -127t-155 -45q-95 0 -147.5 51.5t-52.5 146.5q0 78 34 146.5t95.5 111.5t135.5 43q82 0 131 -55q-13 63 -30.5 101t-47.5 67l-98 -70l-33 53l77 55q-35 22 -100 40l17 87q96 -25 159 -72l118 84l33 -53zM245 70
q44 0 81 26t60 74t23 107t-25.5 90.5t-73.5 31.5q-44 0 -81 -26t-60 -74t-23 -107t25.5 -90.5t73.5 -31.5z" />
    <glyph glyph-name="ntilde" unicode="&#xf1;" horiz-adv-x="588" 
d="M357 0l52 267q14 74 14 107q0 59 -60 59q-33 0 -75.5 -27.5t-84.5 -75.5l-64 -330h-114l99 509h94l-3 -91q43 51 92.5 78.5t98.5 27.5q64 0 98.5 -35t34.5 -99q0 -41 -16 -123l-52 -267h-114zM490 733h68q0 -15 -3 -35q-5 -29 -21 -52t-41 -35.5t-56 -12.5
q-23 0 -41.5 8.5t-39.5 28.5q-22 22 -30.5 27.5t-16.5 5.5q-14 0 -22.5 -8.5t-13.5 -26.5l-8 -30h-68q0 16 3 35q5 29 21 52t41 35.5t56 12.5q23 0 41.5 -8.5t39.5 -28.5q22 -22 30.5 -27.5t16.5 -5.5q14 0 22.5 8.5t13.5 26.5z" />
    <glyph glyph-name="ograve" unicode="&#xf2;" horiz-adv-x="547" 
d="M226 -15q-92 0 -143.5 56.5t-51.5 157.5q0 87 36.5 160.5t103.5 119t150 45.5q92 0 143.5 -56.5t51.5 -157.5q0 -87 -36.5 -160.5t-103.5 -119t-150 -45.5zM238 76q43 0 80 29t59.5 82t22.5 119q0 62 -23 94.5t-68 32.5q-43 0 -80 -29t-59.5 -82t-22.5 -119
q0 -62 23 -94.5t68 -32.5zM272 601l-95 163h128l63 -163h-96z" />
    <glyph glyph-name="oacute" unicode="&#xf3;" horiz-adv-x="547" 
d="M226 -15q-92 0 -143.5 56.5t-51.5 157.5q0 87 36.5 160.5t103.5 119t150 45.5q92 0 143.5 -56.5t51.5 -157.5q0 -87 -36.5 -160.5t-103.5 -119t-150 -45.5zM238 76q43 0 80 29t59.5 82t22.5 119q0 62 -23 94.5t-68 32.5q-43 0 -80 -29t-59.5 -82t-22.5 -119
q0 -62 23 -94.5t68 -32.5zM282 601l120 163h136l-160 -163h-96z" />
    <glyph glyph-name="ocircumflex" unicode="&#xf4;" horiz-adv-x="547" 
d="M226 -15q-92 0 -143.5 56.5t-51.5 157.5q0 87 36.5 160.5t103.5 119t150 45.5q92 0 143.5 -56.5t51.5 -157.5q0 -87 -36.5 -160.5t-103.5 -119t-150 -45.5zM238 76q43 0 80 29t59.5 82t22.5 119q0 62 -23 94.5t-68 32.5q-43 0 -80 -29t-59.5 -82t-22.5 -119
q0 -62 23 -94.5t68 -32.5zM424 601l-71 101l-110 -101h-100l160 164h118l97 -164h-94z" />
    <glyph glyph-name="otilde" unicode="&#xf5;" horiz-adv-x="547" 
d="M226 -15q-92 0 -143.5 56.5t-51.5 157.5q0 87 36.5 160.5t103.5 119t150 45.5q92 0 143.5 -56.5t51.5 -157.5q0 -87 -36.5 -160.5t-103.5 -119t-150 -45.5zM238 76q43 0 80 29t59.5 82t22.5 119q0 62 -23 94.5t-68 32.5q-43 0 -80 -29t-59.5 -82t-22.5 -119
q0 -62 23 -94.5t68 -32.5zM465 733h68q0 -15 -3 -35q-5 -29 -21 -52t-41 -35.5t-56 -12.5q-23 0 -41.5 8.5t-39.5 28.5q-22 22 -30.5 27.5t-16.5 5.5q-14 0 -22.5 -8.5t-13.5 -26.5l-8 -30h-68q0 16 3 35q5 29 21 52t41 35.5t56 12.5q23 0 41.5 -8.5t39.5 -28.5
q22 -22 30.5 -27.5t16.5 -5.5q14 0 22.5 8.5t13.5 26.5z" />
    <glyph glyph-name="odieresis" unicode="&#xf6;" horiz-adv-x="547" 
d="M226 -15q-92 0 -143.5 56.5t-51.5 157.5q0 87 36.5 160.5t103.5 119t150 45.5q92 0 143.5 -56.5t51.5 -157.5q0 -87 -36.5 -160.5t-103.5 -119t-150 -45.5zM238 76q43 0 80 29t59.5 82t22.5 119q0 62 -23 94.5t-68 32.5q-43 0 -80 -29t-59.5 -82t-22.5 -119
q0 -62 23 -94.5t68 -32.5zM229 592q-27 0 -42 14t-15 39q0 33 22 54t56 21q27 0 42 -14t15 -39q0 -33 -22 -54t-56 -21zM450 592q-27 0 -42 14t-15 39q0 33 22 54t56 21q27 0 42 -14t15 -39q0 -33 -22 -54t-56 -21z" />
    <glyph glyph-name="divide" unicode="&#xf7;" 
d="M334 464q-26 0 -41.5 15t-15.5 39q0 32 22.5 55t52.5 23q26 0 41.5 -15t15.5 -39q0 -32 -22.5 -55t-52.5 -23zM72 302l18 91h455l-18 -91h-455zM265 99q-26 0 -41.5 15t-15.5 39q0 32 22.5 55t52.5 23q26 0 41.5 -15t15.5 -39q0 -32 -22.5 -55t-52.5 -23z" />
    <glyph glyph-name="oslash" unicode="&#xf8;" horiz-adv-x="547" 
d="M-16 9l72 72q-25 52 -25 118q0 87 36.5 160.5t103.5 119t150 45.5q81 0 132 -45l64 64l46 -43l-72 -72q25 -52 25 -118q0 -87 -36.5 -160.5t-103.5 -119t-150 -45.5q-81 0 -132 45l-64 -64zM147 203q0 -16 2 -29l227 228q-23 31 -67 31q-43 0 -80 -29t-59.5 -82
t-22.5 -119zM238 76q43 0 80 29t59.5 82t22.5 119q0 16 -2 29l-227 -228q23 -31 67 -31z" />
    <glyph glyph-name="ugrave" unicode="&#xf9;" horiz-adv-x="573" 
d="M357 0l3 89q-39 -49 -88 -76.5t-99 -27.5q-62 0 -94.5 34.5t-32.5 99.5q0 41 16 123l52 267h114l-52 -267q-14 -74 -14 -107q0 -30 13 -44.5t42 -14.5q31 0 72.5 27t82.5 74l64 332h114l-99 -509h-94zM282 601l-95 163h128l63 -163h-96z" />
    <glyph glyph-name="uacute" unicode="&#xfa;" horiz-adv-x="573" 
d="M357 0l3 89q-39 -49 -88 -76.5t-99 -27.5q-62 0 -94.5 34.5t-32.5 99.5q0 41 16 123l52 267h114l-52 -267q-14 -74 -14 -107q0 -30 13 -44.5t42 -14.5q31 0 72.5 27t82.5 74l64 332h114l-99 -509h-94zM292 601l120 163h136l-160 -163h-96z" />
    <glyph glyph-name="ucircumflex" unicode="&#xfb;" horiz-adv-x="573" 
d="M357 0l3 89q-39 -49 -88 -76.5t-99 -27.5q-62 0 -94.5 34.5t-32.5 99.5q0 41 16 123l52 267h114l-52 -267q-14 -74 -14 -107q0 -30 13 -44.5t42 -14.5q31 0 72.5 27t82.5 74l64 332h114l-99 -509h-94zM434 601l-71 101l-110 -101h-100l160 164h118l97 -164h-94z" />
    <glyph glyph-name="udieresis" unicode="&#xfc;" horiz-adv-x="573" 
d="M357 0l3 89q-39 -49 -88 -76.5t-99 -27.5q-62 0 -94.5 34.5t-32.5 99.5q0 41 16 123l52 267h114l-52 -267q-14 -74 -14 -107q0 -30 13 -44.5t42 -14.5q31 0 72.5 27t82.5 74l64 332h114l-99 -509h-94zM239 592q-27 0 -42 14t-15 39q0 33 22 54t56 21q27 0 42 -14t15 -39
q0 -33 -22 -54t-56 -21zM460 592q-27 0 -42 14t-15 39q0 33 22 54t56 21q27 0 42 -14t15 -39q0 -33 -22 -54t-56 -21z" />
    <glyph glyph-name="yacute" unicode="&#xfd;" horiz-adv-x="489" 
d="M-66 -141q76 30 120.5 60.5t88.5 84.5l-101 505h118l62 -403q107 195 184 403h115q-58 -147 -141 -301t-154 -246q-115 -151 -242 -181zM242 601l120 163h136l-160 -163h-96z" />
    <glyph glyph-name="thorn" unicode="&#xfe;" horiz-adv-x="557" 
d="M-15 -206l184 946h114l-61 -312q82 96 173 96q64 0 97.5 -46t33.5 -134q0 -95 -38 -176.5t-107 -132t-153 -50.5q-43 0 -88 18l-41 -209h-114zM350 433q-30 0 -68.5 -26.5t-78.5 -74.5l-48 -251q29 -7 60 -7q54 0 98 31.5t70.5 89t26.5 131.5q0 107 -60 107z" />
    <glyph glyph-name="ydieresis" unicode="&#xff;" horiz-adv-x="489" 
d="M-66 -141q76 30 120.5 60.5t88.5 84.5l-101 505h118l62 -403q107 195 184 403h115q-58 -147 -141 -301t-154 -246q-115 -151 -242 -181zM189 592q-27 0 -42 14t-15 39q0 33 22 54t56 21q27 0 42 -14t15 -39q0 -33 -22 -54t-56 -21zM410 592q-27 0 -42 14t-15 39
q0 33 22 54t56 21q27 0 42 -14t15 -39q0 -33 -22 -54t-56 -21z" />
    <glyph glyph-name="Amacron" unicode="&#x100;" horiz-adv-x="620" 
d="M449 0l-22 175h-256l-89 -175h-124l376 693h129l110 -693h-124zM215 262h203l-41 320zM256 795l14 77h324l-14 -77h-324z" />
    <glyph glyph-name="amacron" unicode="&#x101;" horiz-adv-x="558" 
d="M342 0l3 89q-86 -104 -182 -104q-63 0 -97.5 45t-34.5 127q0 93 41 176.5t114 137t159 53.5q40 0 92 -11t93 -29l-94 -484h-94zM208 76q31 0 69 26t80 75l48 251q-28 7 -62 7q-49 0 -93.5 -34.5t-73.5 -96.5t-29 -134q0 -94 61 -94zM207 630l14 75h324l-14 -75h-324z" />
    <glyph glyph-name="Abreve" unicode="&#x102;" horiz-adv-x="620" 
d="M449 0l-22 175h-256l-89 -175h-124l376 693h129l110 -693h-124zM215 262h203l-41 320zM505 903h73q0 -61 -48 -100t-124 -39q-59 0 -93.5 24.5t-34.5 66.5q0 26 11 48h69q-3 -16 -3 -25q0 -41 60 -41q70 0 87 56z" />
    <glyph glyph-name="abreve" unicode="&#x103;" horiz-adv-x="558" 
d="M342 0l3 89q-86 -104 -182 -104q-63 0 -97.5 45t-34.5 127q0 93 41 176.5t114 137t159 53.5q40 0 92 -11t93 -29l-94 -484h-94zM208 76q31 0 69 26t80 75l48 251q-28 7 -62 7q-49 0 -93.5 -34.5t-73.5 -96.5t-29 -134q0 -94 61 -94zM461 755h71q-1 -46 -22 -81.5
t-60 -55.5t-89 -20q-60 0 -95 27t-35 74q0 26 13 56h67q-4 -20 -4 -34q0 -51 62 -51q69 0 87 66z" />
    <glyph glyph-name="Aogonek" unicode="&#x104;" horiz-adv-x="620" 
d="M579 -202q-51 -25 -106 -25q-51 0 -77 19.5t-26 56.5q0 80 118 151h-39l-22 175h-256l-89 -175h-124l376 693h129l110 -693q-106 -68 -106 -121q0 -33 40 -33q17 0 47 9zM215 262h203l-41 320z" />
    <glyph glyph-name="aogonek" unicode="&#x105;" horiz-adv-x="558" 
d="M441 -202q-47 -25 -105 -25q-49 0 -75.5 19.5t-26.5 56.5q0 78 118 151h-10l3 89q-86 -104 -182 -104q-63 0 -97.5 45t-34.5 127q0 93 41 176.5t114 137t159 53.5q40 0 92 -11t93 -29l-94 -484q-107 -69 -107 -123q0 -33 42 -33q19 0 46 9zM208 76q31 0 69 26t80 75
l48 251q-28 7 -62 7q-49 0 -93.5 -34.5t-73.5 -96.5t-29 -134q0 -94 61 -94z" />
    <glyph glyph-name="Cacute" unicode="&#x106;" horiz-adv-x="596" 
d="M545 55q-103 -72 -226 -72q-124 0 -193.5 75.5t-69.5 211.5q0 116 51 216t144 161.5t208 61.5q89 0 155 -36l-18 -93q-68 27 -133 27q-79 0 -143.5 -40t-102.5 -114.5t-38 -171.5q0 -96 40.5 -146t117.5 -50q40 0 86.5 14t93.5 41zM516 769h-102l118 125h137z" />
    <glyph glyph-name="cacute" unicode="&#x107;" horiz-adv-x="450" 
d="M407 50q-39 -31 -89.5 -48t-102.5 -17q-88 0 -136 51t-48 144q0 87 40 165.5t110.5 128.5t153.5 50q32 0 64 -7t57 -20l-16 -84q-51 18 -96 18q-54 0 -98 -29.5t-70.5 -84.5t-26.5 -126q0 -59 21.5 -86t69.5 -27q29 0 61 10t75 33zM289 601l120 163h136l-160 -163h-96z
" />
    <glyph glyph-name="Ccircumflex" unicode="&#x108;" horiz-adv-x="596" 
d="M545 55q-103 -72 -226 -72q-124 0 -193.5 75.5t-69.5 211.5q0 116 51 216t144 161.5t208 61.5q89 0 155 -36l-18 -93q-68 27 -133 27q-79 0 -143.5 -40t-102.5 -114.5t-38 -171.5q0 -96 40.5 -146t117.5 -50q40 0 86.5 14t93.5 41zM552 769l-68 78l-99 -78h-111l158 137
h121l104 -137h-105z" />
    <glyph glyph-name="ccircumflex" unicode="&#x109;" horiz-adv-x="450" 
d="M407 50q-39 -31 -89.5 -48t-102.5 -17q-88 0 -136 51t-48 144q0 87 40 165.5t110.5 128.5t153.5 50q32 0 64 -7t57 -20l-16 -84q-51 18 -96 18q-54 0 -98 -29.5t-70.5 -84.5t-26.5 -126q0 -59 21.5 -86t69.5 -27q29 0 61 10t75 33zM431 601l-71 101l-110 -101h-100
l160 164h118l97 -164h-94z" />
    <glyph glyph-name="Cdotaccent" unicode="&#x10a;" horiz-adv-x="596" 
d="M545 55q-103 -72 -226 -72q-124 0 -193.5 75.5t-69.5 211.5q0 116 51 216t144 161.5t208 61.5q89 0 155 -36l-18 -93q-68 27 -133 27q-79 0 -143.5 -40t-102.5 -114.5t-38 -171.5q0 -96 40.5 -146t117.5 -50q40 0 86.5 14t93.5 41zM473 775q-31 0 -48 15t-17 43
q0 34 23.5 57t57.5 23q31 0 48 -15t17 -43q0 -34 -23.5 -57t-57.5 -23z" />
    <glyph glyph-name="cdotaccent" unicode="&#x10b;" horiz-adv-x="450" 
d="M407 50q-39 -31 -89.5 -48t-102.5 -17q-88 0 -136 51t-48 144q0 87 40 165.5t110.5 128.5t153.5 50q32 0 64 -7t57 -20l-16 -84q-51 18 -96 18q-54 0 -98 -29.5t-70.5 -84.5t-26.5 -126q0 -59 21.5 -86t69.5 -27q29 0 61 10t75 33zM350 593q-30 0 -46.5 14.5t-16.5 42.5
q0 33 23.5 56t57.5 23q30 0 46.5 -14.5t16.5 -42.5q0 -33 -23.5 -56t-57.5 -23z" />
    <glyph glyph-name="Ccaron" unicode="&#x10c;" horiz-adv-x="596" 
d="M545 55q-103 -72 -226 -72q-124 0 -193.5 75.5t-69.5 211.5q0 116 51 216t144 161.5t208 61.5q89 0 155 -36l-18 -93q-68 27 -133 27q-79 0 -143.5 -40t-102.5 -114.5t-38 -171.5q0 -96 40.5 -146t117.5 -50q40 0 86.5 14t93.5 41zM525 769h-121l-104 137h121l49 -87
l85 87h128z" />
    <glyph glyph-name="ccaron" unicode="&#x10d;" horiz-adv-x="450" 
d="M407 50q-39 -31 -89.5 -48t-102.5 -17q-88 0 -136 51t-48 144q0 87 40 165.5t110.5 128.5t153.5 50q32 0 64 -7t57 -20l-16 -84q-51 18 -96 18q-54 0 -98 -29.5t-70.5 -84.5t-26.5 -126q0 -59 21.5 -86t69.5 -27q29 0 61 10t75 33zM278 601l-97 164h111l52 -110l96 110
h116l-160 -164h-118z" />
    <glyph glyph-name="Dcaron" unicode="&#x10e;" horiz-adv-x="703" 
d="M41 0l135 693h222q129 0 203 -72.5t74 -197.5q0 -115 -48.5 -211t-137 -154t-200.5 -58h-248zM276 599l-99 -505h109q75 0 136 40t97 113.5t36 168.5q0 88 -42.5 135.5t-121.5 47.5h-115zM483 769h-121l-104 137h121l49 -87l85 87h128z" />
    <glyph glyph-name="dcaron" unicode="&#x10f;" horiz-adv-x="636" 
d="M342 0l3 89q-86 -104 -182 -104q-62 0 -97 44.5t-35 124.5q0 93 39.5 177.5t109 138.5t151.5 54q43 0 89 -19l46 235h114l-144 -740h-94zM208 76q31 0 69 26t80 75l48 251q-28 7 -62 7q-49 0 -93.5 -34.5t-73.5 -96.5t-29 -134q0 -94 61 -94zM613 542l39 200q24 10 53 10
q38 0 57 -17l-74 -193h-75z" />
    <glyph glyph-name="Dcroat" unicode="&#x110;" horiz-adv-x="711" 
d="M49 0l61 313h-82l17 88h82l57 292h222q129 0 203 -72.5t74 -197.5q0 -115 -48.5 -211t-137 -154t-200.5 -58h-248zM228 313l-43 -219h109q75 0 136 40t97 113.5t36 168.5q0 88 -42.5 135.5t-121.5 47.5h-115l-39 -198h150l-17 -88h-150z" />
    <glyph glyph-name="dcroat" unicode="&#x111;" horiz-adv-x="558" 
d="M342 0l3 89q-86 -104 -182 -104q-62 0 -97 44.5t-35 124.5q0 93 39.5 177.5t109 138.5t151.5 54q43 0 89 -19l16 84h-158l15 76h158l15 75h114l-15 -75h80l-15 -76h-80l-114 -589h-94zM208 76q31 0 69 26t80 75l48 251q-28 7 -62 7q-49 0 -93.5 -34.5t-73.5 -96.5
t-29 -134q0 -94 61 -94z" />
    <glyph glyph-name="Emacron" unicode="&#x112;" horiz-adv-x="561" 
d="M41 0l135 693h430l-19 -96h-312l-37 -193h259l-19 -96h-259l-41 -212h312l-19 -96h-430zM249 795l14 77h324l-14 -77h-324z" />
    <glyph glyph-name="emacron" unicode="&#x113;" horiz-adv-x="488" 
d="M422 48q-44 -30 -100 -47.5t-112 -17.5q-89 0 -134 47.5t-45 140.5q0 91 39.5 171.5t110.5 132t156 51.5q65 0 102 -32t37 -88q0 -78 -72.5 -136t-203.5 -84l-60 -12q0 -55 22 -79.5t72 -24.5q72 0 158 46zM314 440q-37 0 -72 -23.5t-61.5 -67t-36.5 -98.5l60 14
q77 18 122 52.5t45 74.5q0 23 -14.5 35.5t-42.5 12.5zM191 630l14 75h324l-14 -75h-324z" />
    <glyph glyph-name="Ebreve" unicode="&#x114;" horiz-adv-x="561" 
d="M41 0l135 693h430l-19 -96h-312l-37 -193h259l-19 -96h-259l-41 -212h312l-19 -96h-430zM498 903h73q0 -61 -48 -100t-124 -39q-59 0 -93.5 24.5t-34.5 66.5q0 26 11 48h69q-3 -16 -3 -25q0 -41 60 -41q70 0 87 56z" />
    <glyph glyph-name="ebreve" unicode="&#x115;" horiz-adv-x="488" 
d="M422 48q-44 -30 -100 -47.5t-112 -17.5q-89 0 -134 47.5t-45 140.5q0 91 39.5 171.5t110.5 132t156 51.5q65 0 102 -32t37 -88q0 -78 -72.5 -136t-203.5 -84l-60 -12q0 -55 22 -79.5t72 -24.5q72 0 158 46zM314 440q-37 0 -72 -23.5t-61.5 -67t-36.5 -98.5l60 14
q77 18 122 52.5t45 74.5q0 23 -14.5 35.5t-42.5 12.5zM445 755h71q-1 -46 -22 -81.5t-60 -55.5t-89 -20q-60 0 -95 27t-35 74q0 26 13 56h67q-4 -20 -4 -34q0 -51 62 -51q69 0 87 66z" />
    <glyph glyph-name="Edotaccent" unicode="&#x116;" horiz-adv-x="561" 
d="M41 0l135 693h430l-19 -96h-312l-37 -193h259l-19 -96h-259l-41 -212h312l-19 -96h-430zM406 775q-31 0 -48 15t-17 43q0 34 23.5 57t57.5 23q31 0 48 -15t17 -43q0 -34 -23.5 -57t-57.5 -23z" />
    <glyph glyph-name="edotaccent" unicode="&#x117;" horiz-adv-x="488" 
d="M422 48q-44 -30 -100 -47.5t-112 -17.5q-89 0 -134 47.5t-45 140.5q0 91 39.5 171.5t110.5 132t156 51.5q65 0 102 -32t37 -88q0 -78 -72.5 -136t-203.5 -84l-60 -12q0 -55 22 -79.5t72 -24.5q72 0 158 46zM314 440q-37 0 -72 -23.5t-61.5 -67t-36.5 -98.5l60 14
q77 18 122 52.5t45 74.5q0 23 -14.5 35.5t-42.5 12.5zM350 593q-30 0 -46.5 14.5t-16.5 42.5q0 33 23.5 56t57.5 23q30 0 46.5 -14.5t16.5 -42.5q0 -33 -23.5 -56t-57.5 -23z" />
    <glyph glyph-name="Eogonek" unicode="&#x118;" horiz-adv-x="561" 
d="M477 -202q-51 -25 -106 -25q-51 0 -77 19.5t-26 56.5q0 80 118 151h-345l135 693h430l-19 -96h-312l-37 -193h259l-19 -96h-259l-41 -212h312l-19 -96q-106 -68 -106 -121q0 -33 40 -33q17 0 47 9z" />
    <glyph glyph-name="eogonek" unicode="&#x119;" horiz-adv-x="488" 
d="M331 -202q-47 -25 -105 -25q-49 0 -75.5 19.5t-26.5 56.5q0 71 90 134h-4q-89 0 -134 47.5t-45 140.5q0 91 39.5 171.5t110.5 132t156 51.5q65 0 102 -32t37 -88q0 -78 -72.5 -136t-203.5 -84l-60 -12q0 -55 22 -79.5t72 -24.5q72 0 158 46l30 -68q-22 -15 -42 -25
t-53 -24q-48 -20 -78 -54t-30 -68q0 -33 42 -33q19 0 46 9zM314 440q-37 0 -72 -23.5t-61.5 -67t-36.5 -98.5l60 14q77 18 122 52.5t45 74.5q0 23 -14.5 35.5t-42.5 12.5z" />
    <glyph glyph-name="Ecaron" unicode="&#x11a;" horiz-adv-x="561" 
d="M41 0l135 693h430l-19 -96h-312l-37 -193h259l-19 -96h-259l-41 -212h312l-19 -96h-430zM458 769h-121l-104 137h121l49 -87l85 87h128z" />
    <glyph glyph-name="ecaron" unicode="&#x11b;" horiz-adv-x="488" 
d="M422 48q-44 -30 -100 -47.5t-112 -17.5q-89 0 -134 47.5t-45 140.5q0 91 39.5 171.5t110.5 132t156 51.5q65 0 102 -32t37 -88q0 -78 -72.5 -136t-203.5 -84l-60 -12q0 -55 22 -79.5t72 -24.5q72 0 158 46zM314 440q-37 0 -72 -23.5t-61.5 -67t-36.5 -98.5l60 14
q77 18 122 52.5t45 74.5q0 23 -14.5 35.5t-42.5 12.5zM278 601l-97 164h111l52 -110l96 110h116l-160 -164h-118z" />
    <glyph glyph-name="Gcircumflex" unicode="&#x11c;" horiz-adv-x="678" 
d="M351 83q55 0 119 20l35 180h-142l19 96h250l-66 -339q-46 -27 -106.5 -42t-123.5 -15q-135 0 -207.5 73t-72.5 210q0 118 51.5 218.5t145 162.5t208.5 62q52 0 107 -12.5t89 -32.5l-18 -90q-42 17 -87.5 26t-85.5 9q-82 0 -147.5 -41t-103.5 -116.5t-38 -174.5
t42.5 -146.5t131.5 -47.5zM552 769l-68 78l-99 -78h-111l158 137h121l104 -137h-105z" />
    <glyph glyph-name="gcircumflex" unicode="&#x11d;" horiz-adv-x="558" 
d="M343 111q-39 -49 -85 -75.5t-91 -26.5q-65 0 -100.5 42.5t-35.5 121.5q0 89 40.5 168.5t112.5 131t158 51.5q42 0 93 -11t95 -29l-82 -423q-27 -138 -106 -208.5t-206 -70.5q-40 0 -78.5 9.5t-70.5 27.5l17 84q72 -29 134 -29q86 0 133 46.5t65 149.5zM208 100
q33 0 73 28t82 81l42 219q-27 7 -64 7q-49 0 -93 -32.5t-72.5 -90.5t-28.5 -126q0 -42 15.5 -64t45.5 -22zM447 601l-71 101l-110 -101h-100l160 164h118l97 -164h-94z" />
    <glyph glyph-name="Gbreve" unicode="&#x11e;" horiz-adv-x="678" 
d="M351 83q55 0 119 20l35 180h-142l19 96h250l-66 -339q-46 -27 -106.5 -42t-123.5 -15q-135 0 -207.5 73t-72.5 210q0 118 51.5 218.5t145 162.5t208.5 62q52 0 107 -12.5t89 -32.5l-18 -90q-42 17 -87.5 26t-85.5 9q-82 0 -147.5 -41t-103.5 -116.5t-38 -174.5
t42.5 -146.5t131.5 -47.5zM565 903h73q0 -61 -48 -100t-124 -39q-59 0 -93.5 24.5t-34.5 66.5q0 26 11 48h69q-3 -16 -3 -25q0 -41 60 -41q70 0 87 56z" />
    <glyph glyph-name="gbreve" unicode="&#x11f;" horiz-adv-x="558" 
d="M343 111q-39 -49 -85 -75.5t-91 -26.5q-65 0 -100.5 42.5t-35.5 121.5q0 89 40.5 168.5t112.5 131t158 51.5q42 0 93 -11t95 -29l-82 -423q-27 -138 -106 -208.5t-206 -70.5q-40 0 -78.5 9.5t-70.5 27.5l17 84q72 -29 134 -29q86 0 133 46.5t65 149.5zM208 100
q33 0 73 28t82 81l42 219q-27 7 -64 7q-49 0 -93 -32.5t-72.5 -90.5t-28.5 -126q0 -42 15.5 -64t45.5 -22zM461 755h71q-1 -46 -22 -81.5t-60 -55.5t-89 -20q-60 0 -95 27t-35 74q0 26 13 56h67q-4 -20 -4 -34q0 -51 62 -51q69 0 87 66z" />
    <glyph glyph-name="Gdotaccent" unicode="&#x120;" horiz-adv-x="678" 
d="M351 83q55 0 119 20l35 180h-142l19 96h250l-66 -339q-46 -27 -106.5 -42t-123.5 -15q-135 0 -207.5 73t-72.5 210q0 118 51.5 218.5t145 162.5t208.5 62q52 0 107 -12.5t89 -32.5l-18 -90q-42 17 -87.5 26t-85.5 9q-82 0 -147.5 -41t-103.5 -116.5t-38 -174.5
t42.5 -146.5t131.5 -47.5zM473 775q-31 0 -48 15t-17 43q0 34 23.5 57t57.5 23q31 0 48 -15t17 -43q0 -34 -23.5 -57t-57.5 -23z" />
    <glyph glyph-name="gdotaccent" unicode="&#x121;" horiz-adv-x="558" 
d="M343 111q-39 -49 -85 -75.5t-91 -26.5q-65 0 -100.5 42.5t-35.5 121.5q0 89 40.5 168.5t112.5 131t158 51.5q42 0 93 -11t95 -29l-82 -423q-27 -138 -106 -208.5t-206 -70.5q-40 0 -78.5 9.5t-70.5 27.5l17 84q72 -29 134 -29q86 0 133 46.5t65 149.5zM208 100
q33 0 73 28t82 81l42 219q-27 7 -64 7q-49 0 -93 -32.5t-72.5 -90.5t-28.5 -126q0 -42 15.5 -64t45.5 -22zM366 593q-30 0 -46.5 14.5t-16.5 42.5q0 33 23.5 56t57.5 23q30 0 46.5 -14.5t16.5 -42.5q0 -33 -23.5 -56t-57.5 -23z" />
    <glyph glyph-name="uni0122" unicode="&#x122;" horiz-adv-x="678" 
d="M351 83q55 0 119 20l35 180h-142l19 96h250l-66 -339q-46 -27 -106.5 -42t-123.5 -15q-135 0 -207.5 73t-72.5 210q0 118 51.5 218.5t145 162.5t208.5 62q52 0 107 -12.5t89 -32.5l-18 -90q-42 17 -87.5 26t-85.5 9q-82 0 -147.5 -41t-103.5 -116.5t-38 -174.5
t42.5 -146.5t131.5 -47.5zM214 -281l76 217h48q24 0 35 -7.5t11 -23.5q0 -11 -5.5 -23.5t-24.5 -46.5l-66 -116h-74z" />
    <glyph glyph-name="uni0123" unicode="&#x123;" horiz-adv-x="558" 
d="M343 111q-39 -49 -85 -75.5t-91 -26.5q-65 0 -100.5 42.5t-35.5 121.5q0 89 40.5 168.5t112.5 131t158 51.5q42 0 93 -11t95 -29l-82 -423q-27 -138 -106 -208.5t-206 -70.5q-40 0 -78.5 9.5t-70.5 27.5l17 84q72 -29 134 -29q86 0 133 46.5t65 149.5zM208 100
q33 0 73 28t82 81l42 219q-27 7 -64 7q-49 0 -93 -32.5t-72.5 -90.5t-28.5 -126q0 -42 15.5 -64t45.5 -22zM362 588q-24 0 -35 7.5t-11 23.5q0 11 5.5 23.5t24.5 46.5l69 124h72l-79 -225h-46z" />
    <glyph glyph-name="Hcircumflex" unicode="&#x124;" horiz-adv-x="729" 
d="M468 0l60 305h-309l-60 -305h-118l135 693h118l-57 -292h309l57 292h118l-135 -693h-118zM542 769l-68 78l-99 -78h-111l158 137h121l104 -137h-105z" />
    <glyph glyph-name="hcircumflex" unicode="&#x125;" horiz-adv-x="588" 
d="M357 0l52 267q14 74 14 107q0 59 -60 59q-33 0 -75.5 -27.5t-84.5 -75.5l-64 -330h-114l144 740h114l-61 -314q42 47 89.5 72.5t94.5 25.5q64 0 98.5 -35t34.5 -99q0 -41 -16 -123l-52 -267h-114zM315 789l-68 78l-99 -78h-111l158 137h121l104 -137h-105z" />
    <glyph glyph-name="Hbar" unicode="&#x126;" horiz-adv-x="749" 
d="M477 0l60 305h-309l-60 -305h-118l97 501h-79l16 78h79l22 114h118l-22 -114h309l22 114h118l-22 -114h79l-16 -78h-78l-98 -501h-118zM555 401l20 100h-310l-19 -100h309z" />
    <glyph glyph-name="hbar" unicode="&#x127;" horiz-adv-x="588" 
d="M357 0l52 267q14 74 14 107q0 59 -60 59q-33 0 -75.5 -27.5t-84.5 -75.5l-64 -330h-114l114 589h-79l15 76h79l15 75h114l-15 -75h166l-15 -76h-166l-31 -163q42 47 89.5 72.5t94.5 25.5q64 0 98.5 -35t34.5 -99q0 -41 -16 -123l-52 -267h-114z" />
    <glyph glyph-name="Itilde" unicode="&#x128;" horiz-adv-x="310" 
d="M45 0l135 693h118l-135 -693h-118zM373 900h69q0 -13 -4 -34q-11 -48 -42 -74.5t-76 -26.5q-21 0 -40.5 9t-43.5 31q-18 17 -27 22.5t-17 5.5q-13 0 -22 -9t-13 -26l-7 -28h-69q0 13 4 34q11 48 42 74.5t76 26.5q21 0 40.5 -9t43.5 -31q18 -17 27 -22.5t17 -5.5
q13 0 22 9.5t13 25.5z" />
    <glyph glyph-name="itilde" unicode="&#x129;" horiz-adv-x="268" 
d="M29 0l99 509h114l-99 -509h-114zM328 733h68q0 -15 -3 -35q-5 -29 -21 -52t-41 -35.5t-56 -12.5q-23 0 -41.5 8.5t-39.5 28.5q-22 22 -30.5 27.5t-16.5 5.5q-14 0 -22.5 -8.5t-13.5 -26.5l-8 -30h-68q0 16 3 35q5 29 21 52t41 35.5t56 12.5q23 0 41.5 -8.5t39.5 -28.5
q22 -22 30.5 -27.5t16.5 -5.5q14 0 22.5 8.5t13.5 26.5z" />
    <glyph glyph-name="Imacron" unicode="&#x12a;" horiz-adv-x="310" 
d="M45 0l135 693h118l-135 -693h-118zM97 795l14 77h324l-14 -77h-324z" />
    <glyph glyph-name="imacron" unicode="&#x12b;" horiz-adv-x="268" 
d="M29 0l99 509h114l-99 -509h-114zM47 630l14 75h324l-14 -75h-324z" />
    <glyph glyph-name="Ibreve" unicode="&#x12c;" horiz-adv-x="310" 
d="M45 0l135 693h118l-135 -693h-118zM346 903h73q0 -61 -48 -100t-124 -39q-59 0 -93.5 24.5t-34.5 66.5q0 26 11 48h69q-3 -16 -3 -25q0 -41 60 -41q70 0 87 56z" />
    <glyph glyph-name="ibreve" unicode="&#x12d;" horiz-adv-x="268" 
d="M29 0l99 509h114l-99 -509h-114zM301 755h71q-1 -46 -22 -81.5t-60 -55.5t-89 -20q-60 0 -95 27t-35 74q0 26 13 56h67q-4 -20 -4 -34q0 -51 62 -51q69 0 87 66z" />
    <glyph glyph-name="Iogonek" unicode="&#x12e;" horiz-adv-x="310" 
d="M169 -202q-51 -25 -106 -25q-51 0 -77 19.5t-26 56.5q0 80 118 151h-33l135 693h118l-135 -693q-106 -68 -106 -121q0 -33 40 -33q17 0 47 9z" />
    <glyph glyph-name="iogonek" unicode="&#x12f;" horiz-adv-x="268" 
d="M148 -202q-47 -25 -105 -25q-49 0 -75.5 19.5t-26.5 56.5q0 78 118 151h-30l99 509h114l-99 -509q-107 -69 -107 -123q0 -33 42 -33q19 0 46 9zM286 672q0 -33 -23.5 -56t-57.5 -23q-30 0 -46.5 14.5t-16.5 42.5q0 33 23.5 56t57.5 23q30 0 46.5 -14.5t16.5 -42.5z" />
    <glyph glyph-name="Idotaccent" unicode="&#x130;" horiz-adv-x="310" 
d="M45 0l135 693h118l-135 -693h-118zM254 775q-31 0 -48 15t-17 43q0 34 23.5 57t57.5 23q31 0 48 -15t17 -43q0 -34 -23.5 -57t-57.5 -23z" />
    <glyph glyph-name="dotlessi" unicode="&#x131;" horiz-adv-x="268" 
d="M29 0l99 509h114l-99 -509h-114z" />
    <glyph glyph-name="IJ" unicode="&#x132;" horiz-adv-x="723" 
d="M603 693h118l-97 -496q-42 -214 -230 -214q-63 0 -135 32l17 89q69 -19 115 -19q50 0 77 28.5t40 95.5zM45 0l135 693h118l-135 -693h-118z" />
    <glyph glyph-name="ij" unicode="&#x133;" horiz-adv-x="536" 
d="M159 -121q27 -8 56 -8q30 0 47.5 19.5t25.5 61.5l108 557h114l-108 -557q-33 -170 -159 -170q-55 0 -99 22zM473 593q-30 0 -46.5 14.5t-16.5 42.5q0 33 23.5 56t57.5 23q30 0 46.5 -14.5t16.5 -42.5q0 -33 -23.5 -56t-57.5 -23zM205 593q-30 0 -46.5 14.5t-16.5 42.5
q0 33 23.5 56t57.5 23q30 0 46.5 -14.5t16.5 -42.5q0 -33 -23.5 -56t-57.5 -23zM29 0l99 509h114l-99 -509h-114z" />
    <glyph glyph-name="Jcircumflex" unicode="&#x134;" horiz-adv-x="435" 
d="M315 693h118l-97 -496q-42 -214 -230 -214q-63 0 -135 32l17 89q69 -19 115 -19q50 0 77 28.5t40 95.5zM468 769l-68 78l-99 -78h-111l158 137h121l104 -137h-105z" />
    <glyph glyph-name="jcircumflex" unicode="&#x135;" horiz-adv-x="268" 
d="M-109 -121q27 -8 56 -8q30 0 47.5 19.5t25.5 61.5l108 557h114l-108 -557q-33 -170 -159 -170q-55 0 -99 22zM287 601l-71 101l-110 -101h-100l160 164h118l97 -164h-94z" />
    <glyph glyph-name="uni0136" unicode="&#x136;" horiz-adv-x="619" 
d="M41 0l135 693h118l-58 -300l321 300h147l-364 -334l237 -359h-135l-218 333l-65 -333h-118zM164 -281l76 217h48q24 0 35 -7.5t11 -23.5q0 -11 -5.5 -23.5t-24.5 -46.5l-66 -116h-74z" />
    <glyph glyph-name="uni0137" unicode="&#x137;" horiz-adv-x="518" 
d="M25 0l144 740h114l-86 -441l214 210h145l-259 -239l187 -270h-131l-166 247l-48 -247h-114zM110 -281l76 217h46q24 0 35 -7.5t11 -23.5q0 -11 -5.5 -23.5t-24.5 -46.5l-66 -116h-72z" />
    <glyph glyph-name="kgreenlandic" unicode="&#x138;" horiz-adv-x="515" 
d="M25 0l99 509h114l-45 -230l221 230h139l-259 -256l190 -253h-132l-169 227l-44 -227h-114z" />
    <glyph glyph-name="Lacute" unicode="&#x139;" horiz-adv-x="525" 
d="M41 0l135 693h118l-116 -595h301l-19 -98h-419zM293 769h-102l118 125h137z" />
    <glyph glyph-name="lacute" unicode="&#x13a;" horiz-adv-x="299" 
d="M263 22q-48 -28 -108 -28q-51 0 -77.5 27t-26.5 78q0 34 12 95l106 546h114l-106 -546q-9 -45 -10.5 -56t-1.5 -22q0 -15 10 -24t28 -9q17 0 37 5zM279 789h-102l118 125h137z" />
    <glyph glyph-name="uni013B" unicode="&#x13b;" horiz-adv-x="525" 
d="M41 0l135 693h118l-116 -595h301l-19 -98h-419zM125 -281l76 217h48q24 0 35 -7.5t11 -23.5q0 -11 -5.5 -23.5t-24.5 -46.5l-66 -116h-74z" />
    <glyph glyph-name="uni013C" unicode="&#x13c;" horiz-adv-x="299" 
d="M263 22q-48 -28 -108 -28q-51 0 -77.5 27t-26.5 78q0 34 12 95l106 546h114l-106 -546q-9 -45 -10.5 -56t-1.5 -22q0 -15 10 -24t28 -9q17 0 37 5zM10 -281l76 217h46q24 0 35 -7.5t11 -23.5q0 -11 -5.5 -23.5t-24.5 -46.5l-66 -116h-72z" />
    <glyph glyph-name="Lcaron" unicode="&#x13d;" horiz-adv-x="525" 
d="M41 0l135 693h118l-116 -595h301l-19 -98h-419zM360 522l39 200q24 10 53 10q38 0 57 -17l-74 -193h-75z" />
    <glyph glyph-name="lcaron" unicode="&#x13e;" horiz-adv-x="339" 
d="M263 22q-48 -28 -108 -28q-51 0 -77.5 27t-26.5 78q0 34 12 95l106 546h114l-106 -546q-9 -45 -10.5 -56t-1.5 -22q0 -15 10 -24t28 -9q17 0 37 5zM316 542l39 200q24 10 53 10q38 0 57 -17l-74 -193h-75z" />
    <glyph glyph-name="Ldot" unicode="&#x13f;" horiz-adv-x="525" 
d="M41 0l135 693h118l-116 -595h301l-19 -98h-419zM488 387q0 -30 -21.5 -52t-52.5 -22q-28 0 -44 14t-16 40q0 30 21.5 52t52.5 22q28 0 44 -14t16 -40z" />
    <glyph glyph-name="ldot" unicode="&#x140;" horiz-adv-x="393" 
d="M263 22q-48 -28 -108 -28q-51 0 -77.5 27t-26.5 78q0 34 12 95l106 546h114l-106 -546q-9 -45 -10.5 -56t-1.5 -22q0 -15 10 -24t28 -9q17 0 37 5zM413 376q0 -30 -21.5 -52t-52.5 -22q-28 0 -44 14t-16 40q0 30 21.5 52t52.5 22q28 0 44 -14t16 -40z" />
    <glyph glyph-name="Lslash" unicode="&#x141;" horiz-adv-x="525" 
d="M41 0l45 234l-90 -48l19 96l90 48l71 363h118l-57 -292l186 100l-19 -96l-186 -100l-40 -207h301l-19 -98h-419z" />
    <glyph glyph-name="lslash" unicode="&#x142;" horiz-adv-x="298" 
d="M262 22q-48 -28 -108 -28q-51 0 -77.5 27t-26.5 78q0 34 12 95l18 94l-87 -47l17 85l87 47l71 367h114l-58 -300l106 57l-17 -85l-106 -57l-31 -161q-9 -45 -10.5 -56t-1.5 -22q0 -15 10 -24t28 -9q17 0 37 5z" />
    <glyph glyph-name="Nacute" unicode="&#x143;" horiz-adv-x="723" 
d="M455 0l-204 541l-105 -541h-105l135 693h125l204 -541l105 541h105l-135 -693h-125zM503 769h-102l118 125h137z" />
    <glyph glyph-name="nacute" unicode="&#x144;" horiz-adv-x="588" 
d="M357 0l52 267q14 74 14 107q0 59 -60 59q-33 0 -75.5 -27.5t-84.5 -75.5l-64 -330h-114l99 509h94l-3 -91q43 51 92.5 78.5t98.5 27.5q64 0 98.5 -35t34.5 -99q0 -41 -16 -123l-52 -267h-114zM307 601l120 163h136l-160 -163h-96z" />
    <glyph glyph-name="uni0145" unicode="&#x145;" horiz-adv-x="723" 
d="M455 0l-204 541l-105 -541h-105l135 693h125l204 -541l105 541h105l-135 -693h-125zM185 -281l76 217h48q24 0 35 -7.5t11 -23.5q0 -11 -5.5 -23.5t-24.5 -46.5l-66 -116h-74z" />
    <glyph glyph-name="uni0146" unicode="&#x146;" horiz-adv-x="588" 
d="M357 0l52 267q14 74 14 107q0 59 -60 59q-33 0 -75.5 -27.5t-84.5 -75.5l-64 -330h-114l99 509h94l-3 -91q43 51 92.5 78.5t98.5 27.5q64 0 98.5 -35t34.5 -99q0 -41 -16 -123l-52 -267h-114zM120 -281l76 217h46q24 0 35 -7.5t11 -23.5q0 -11 -5.5 -23.5t-24.5 -46.5
l-66 -116h-72z" />
    <glyph glyph-name="Ncaron" unicode="&#x147;" horiz-adv-x="723" 
d="M455 0l-204 541l-105 -541h-105l135 693h125l204 -541l105 541h105l-135 -693h-125zM512 769h-121l-104 137h121l49 -87l85 87h128z" />
    <glyph glyph-name="ncaron" unicode="&#x148;" horiz-adv-x="588" 
d="M357 0l52 267q14 74 14 107q0 59 -60 59q-33 0 -75.5 -27.5t-84.5 -75.5l-64 -330h-114l99 509h94l-3 -91q43 51 92.5 78.5t98.5 27.5q64 0 98.5 -35t34.5 -99q0 -41 -16 -123l-52 -267h-114zM296 601l-97 164h111l52 -110l96 110h116l-160 -164h-118z" />
    <glyph glyph-name="napostrophe" unicode="&#x149;" horiz-adv-x="770" 
d="M539 0l52 267q14 74 14 107q0 59 -60 59q-33 0 -75.5 -27.5t-84.5 -75.5l-64 -330h-114l99 509h94l-3 -91q43 51 92.5 78.5t98.5 27.5q64 0 98.5 -35t34.5 -99q0 -41 -16 -123l-52 -267h-114zM90 424l98 269h51q54 0 54 -38q0 -23 -25 -66l-98 -165h-80z" />
    <glyph glyph-name="Eng" unicode="&#x14a;" horiz-adv-x="723" 
d="M466 -1l-215 542l-105 -541h-105l135 693h125l208 -524l101 524h105l-136 -697q-42 -214 -230 -214q-63 0 -135 32l17 89q69 -19 115 -19q49 0 78 27t41 82z" />
    <glyph glyph-name="eng" unicode="&#x14b;" horiz-adv-x="588" 
d="M409 267q14 74 14 107q0 59 -60 59q-33 0 -75.5 -27.5t-84.5 -75.5l-64 -330h-114l99 509h94l-3 -91q43 51 92.5 78.5t98.5 27.5q64 0 98.5 -35t34.5 -99q0 -41 -16 -123l-60 -308q-34 -177 -186 -177q-55 0 -99 22l15 75q30 -8 65 -8q40 0 60.5 19.5t30.5 68.5z" />
    <glyph glyph-name="Omacron" unicode="&#x14c;" horiz-adv-x="749" 
d="M331 -17q-128 0 -201.5 75.5t-73.5 205.5q0 124 47.5 224.5t135.5 160.5t202 60q128 0 201.5 -75.5t73.5 -205.5q0 -124 -47.5 -224.5t-135.5 -160.5t-202 -60zM342 83q71 0 128.5 41.5t91.5 118t34 175.5q0 90 -44 140.5t-122 50.5q-71 0 -128.5 -41.5t-91.5 -118
t-34 -175.5q0 -90 44 -140.5t122 -50.5zM311 795l14 77h324l-14 -77h-324z" />
    <glyph glyph-name="omacron" unicode="&#x14d;" horiz-adv-x="547" 
d="M226 -15q-92 0 -143.5 56.5t-51.5 157.5q0 87 36.5 160.5t103.5 119t150 45.5q92 0 143.5 -56.5t51.5 -157.5q0 -87 -36.5 -160.5t-103.5 -119t-150 -45.5zM238 76q43 0 80 29t59.5 82t22.5 119q0 62 -23 94.5t-68 32.5q-43 0 -80 -29t-59.5 -82t-22.5 -119
q0 -62 23 -94.5t68 -32.5zM184 630l14 75h324l-14 -75h-324z" />
    <glyph glyph-name="Obreve" unicode="&#x14e;" horiz-adv-x="749" 
d="M331 -17q-128 0 -201.5 75.5t-73.5 205.5q0 124 47.5 224.5t135.5 160.5t202 60q128 0 201.5 -75.5t73.5 -205.5q0 -124 -47.5 -224.5t-135.5 -160.5t-202 -60zM342 83q71 0 128.5 41.5t91.5 118t34 175.5q0 90 -44 140.5t-122 50.5q-71 0 -128.5 -41.5t-91.5 -118
t-34 -175.5q0 -90 44 -140.5t122 -50.5zM560 903h73q0 -61 -48 -100t-124 -39q-59 0 -93.5 24.5t-34.5 66.5q0 26 11 48h69q-3 -16 -3 -25q0 -41 60 -41q70 0 87 56z" />
    <glyph glyph-name="obreve" unicode="&#x14f;" horiz-adv-x="547" 
d="M226 -15q-92 0 -143.5 56.5t-51.5 157.5q0 87 36.5 160.5t103.5 119t150 45.5q92 0 143.5 -56.5t51.5 -157.5q0 -87 -36.5 -160.5t-103.5 -119t-150 -45.5zM238 76q43 0 80 29t59.5 82t22.5 119q0 62 -23 94.5t-68 32.5q-43 0 -80 -29t-59.5 -82t-22.5 -119
q0 -62 23 -94.5t68 -32.5zM438 755h71q-1 -46 -22 -81.5t-60 -55.5t-89 -20q-60 0 -95 27t-35 74q0 26 13 56h67q-4 -20 -4 -34q0 -51 62 -51q69 0 87 66z" />
    <glyph glyph-name="Ohungarumlaut" unicode="&#x150;" horiz-adv-x="749" 
d="M331 -17q-128 0 -201.5 75.5t-73.5 205.5q0 124 47.5 224.5t135.5 160.5t202 60q128 0 201.5 -75.5t73.5 -205.5q0 -124 -47.5 -224.5t-135.5 -160.5t-202 -60zM342 83q71 0 128.5 41.5t91.5 118t34 175.5q0 90 -44 140.5t-122 50.5q-71 0 -128.5 -41.5t-91.5 -118
t-34 -175.5q0 -90 44 -140.5t122 -50.5zM405 769h-102l123 125h132zM592 769h-102l123 125h132z" />
    <glyph glyph-name="ohungarumlaut" unicode="&#x151;" horiz-adv-x="547" 
d="M226 -15q-92 0 -143.5 56.5t-51.5 157.5q0 87 36.5 160.5t103.5 119t150 45.5q92 0 143.5 -56.5t51.5 -157.5q0 -87 -36.5 -160.5t-103.5 -119t-150 -45.5zM238 76q43 0 80 29t59.5 82t22.5 119q0 62 -23 94.5t-68 32.5q-43 0 -80 -29t-59.5 -82t-22.5 -119
q0 -62 23 -94.5t68 -32.5zM168 601l126 163h130l-160 -163h-96zM362 601l126 163h130l-160 -163h-96z" />
    <glyph glyph-name="OE" unicode="&#x152;" horiz-adv-x="1028" 
d="M510 0l12 62q-88 -79 -199 -79q-124 0 -195.5 75.5t-71.5 206.5q0 124 46.5 224.5t132.5 160t196 59.5q66 0 116.5 -25.5t81.5 -73.5l16 83h428l-19 -96h-312l-37 -193h259l-19 -96h-259l-41 -212h312l-19 -96h-428zM331 83q71 0 127.5 42t90 119t33.5 177
q0 89 -41 138.5t-114 49.5q-71 0 -127.5 -42t-90 -119t-33.5 -177q0 -89 41 -138.5t114 -49.5z" />
    <glyph glyph-name="oe" unicode="&#x153;" horiz-adv-x="846" 
d="M780 48q-44 -31 -101.5 -48t-116.5 -17q-55 0 -93.5 25t-56.5 74q-36 -47 -84 -72t-102 -25q-92 0 -143.5 56.5t-51.5 157.5q0 87 36.5 160.5t103.5 119t150 45.5q55 0 97.5 -29.5t59.5 -79.5q43 54 99 82.5t118 28.5q65 0 102 -32t37 -88q0 -78 -72.5 -136t-203.5 -84
l-60 -12q0 -55 22 -79.5t72 -24.5q72 0 158 46zM238 76q43 0 80 29t59.5 82t22.5 119q0 62 -23 94.5t-68 32.5q-43 0 -80 -29t-59.5 -82t-22.5 -119q0 -62 23 -94.5t68 -32.5zM562 265q77 18 122 52.5t45 74.5q0 23 -14.5 35.5t-42.5 12.5q-37 0 -72 -23.5t-61.5 -67
t-36.5 -98.5z" />
    <glyph glyph-name="Racute" unicode="&#x154;" horiz-adv-x="620" 
d="M432 0l-107 277h-115l-54 -277h-115l135 693h210q103 0 160 -48.5t57 -135.5q0 -77 -44.5 -132.5t-125.5 -81.5l120 -295h-121zM228 368h89q80 0 124.5 35t44.5 99q0 51 -31 75.5t-94 24.5h-88zM456 769h-102l118 125h137z" />
    <glyph glyph-name="racute" unicode="&#x155;" horiz-adv-x="382" 
d="M25 0l99 509h94l-3 -92q39 49 78 72.5t83 23.5q25 0 43 -5l-21 -106q-32 5 -51 5q-39 0 -76 -20t-68 -57l-64 -330h-114zM225 601l120 163h136l-160 -163h-96z" />
    <glyph glyph-name="uni0156" unicode="&#x156;" horiz-adv-x="620" 
d="M432 0l-107 277h-115l-54 -277h-115l135 693h210q103 0 160 -48.5t57 -135.5q0 -77 -44.5 -132.5t-125.5 -81.5l120 -295h-121zM228 368h89q80 0 124.5 35t44.5 99q0 51 -31 75.5t-94 24.5h-88zM160 -281l76 217h48q24 0 35 -7.5t11 -23.5q0 -11 -5.5 -23.5t-24.5 -46.5
l-66 -116h-74z" />
    <glyph glyph-name="uni0157" unicode="&#x157;" horiz-adv-x="382" 
d="M25 0l99 509h94l-3 -92q39 49 78 72.5t83 23.5q25 0 43 -5l-21 -106q-32 5 -51 5q-39 0 -76 -20t-68 -57l-64 -330h-114zM-46 -281l76 217h46q24 0 35 -7.5t11 -23.5q0 -11 -5.5 -23.5t-24.5 -46.5l-66 -116h-72z" />
    <glyph glyph-name="Rcaron" unicode="&#x158;" horiz-adv-x="620" 
d="M432 0l-107 277h-115l-54 -277h-115l135 693h210q103 0 160 -48.5t57 -135.5q0 -77 -44.5 -132.5t-125.5 -81.5l120 -295h-121zM228 368h89q80 0 124.5 35t44.5 99q0 51 -31 75.5t-94 24.5h-88zM465 769h-121l-104 137h121l49 -87l85 87h128z" />
    <glyph glyph-name="rcaron" unicode="&#x159;" horiz-adv-x="382" 
d="M25 0l99 509h94l-3 -92q39 49 78 72.5t83 23.5q25 0 43 -5l-21 -106q-32 5 -51 5q-39 0 -76 -20t-68 -57l-64 -330h-114zM214 601l-97 164h111l52 -110l96 110h116l-160 -164h-118z" />
    <glyph glyph-name="Sacute" unicode="&#x15a;" horiz-adv-x="547" 
d="M225 318q-69 32 -101 74t-32 100q0 60 32 109.5t92 78.5t136 29q49 0 95.5 -12.5t82.5 -34.5l-17 -89q-32 18 -75 28t-84 10q-67 0 -105.5 -27.5t-38.5 -75.5q0 -31 18 -51.5t63 -40.5l73 -33q68 -31 98 -71t30 -99q0 -67 -34 -119t-98.5 -81.5t-150.5 -29.5
q-58 0 -110 13.5t-90 38.5l19 88q96 -42 183 -42q74 0 118.5 30.5t44.5 82.5q0 31 -20.5 52.5t-72.5 45.5zM404 769h-102l118 125h137z" />
    <glyph glyph-name="sacute" unicode="&#x15b;" horiz-adv-x="437" 
d="M158 237q-46 25 -66.5 55.5t-20.5 71.5q0 72 55 116t145 44q39 0 78 -8.5t67 -23.5l-16 -83q-25 12 -60 19.5t-68 7.5q-46 0 -69.5 -16t-23.5 -47q0 -19 11.5 -31.5t47.5 -32.5l53 -30q51 -29 71 -57t20 -70q0 -77 -55.5 -122t-151.5 -45q-45 0 -91.5 10.5t-80.5 27.5
l16 83q35 -15 79 -24t78 -9q47 0 71.5 16.5t24.5 48.5q0 20 -12.5 34.5t-44.5 32.5zM237 601l120 163h136l-160 -163h-96z" />
    <glyph glyph-name="Scircumflex" unicode="&#x15c;" horiz-adv-x="547" 
d="M225 318q-69 32 -101 74t-32 100q0 60 32 109.5t92 78.5t136 29q49 0 95.5 -12.5t82.5 -34.5l-17 -89q-32 18 -75 28t-84 10q-67 0 -105.5 -27.5t-38.5 -75.5q0 -31 18 -51.5t63 -40.5l73 -33q68 -31 98 -71t30 -99q0 -67 -34 -119t-98.5 -81.5t-150.5 -29.5
q-58 0 -110 13.5t-90 38.5l19 88q96 -42 183 -42q74 0 118.5 30.5t44.5 82.5q0 31 -20.5 52.5t-72.5 45.5zM440 769l-68 78l-99 -78h-111l158 137h121l104 -137h-105z" />
    <glyph glyph-name="scircumflex" unicode="&#x15d;" horiz-adv-x="437" 
d="M158 237q-46 25 -66.5 55.5t-20.5 71.5q0 72 55 116t145 44q39 0 78 -8.5t67 -23.5l-16 -83q-25 12 -60 19.5t-68 7.5q-46 0 -69.5 -16t-23.5 -47q0 -19 11.5 -31.5t47.5 -32.5l53 -30q51 -29 71 -57t20 -70q0 -77 -55.5 -122t-151.5 -45q-45 0 -91.5 10.5t-80.5 27.5
l16 83q35 -15 79 -24t78 -9q47 0 71.5 16.5t24.5 48.5q0 20 -12.5 34.5t-44.5 32.5zM379 601l-71 101l-110 -101h-100l160 164h118l97 -164h-94z" />
    <glyph glyph-name="Scedilla" unicode="&#x15e;" horiz-adv-x="547" 
d="M225 318q-69 32 -101 74t-32 100q0 60 32 109.5t92 78.5t136 29q49 0 95.5 -12.5t82.5 -34.5l-17 -89q-32 18 -75 28t-84 10q-67 0 -105.5 -27.5t-38.5 -75.5q0 -31 18 -51.5t63 -40.5l73 -33q68 -31 98 -71t30 -99q0 -67 -34 -119t-98.5 -81.5t-150.5 -29.5
q-58 0 -110 13.5t-90 38.5l19 88q96 -42 183 -42q74 0 118.5 30.5t44.5 82.5q0 31 -20.5 52.5t-72.5 45.5zM93 -241q51 28 74.5 49t23.5 40q0 21 -31 21q-13 0 -34 -3l13 63q35 10 64 10q38 0 59.5 -17.5t21.5 -49.5q0 -82 -151 -156z" />
    <glyph glyph-name="scedilla" unicode="&#x15f;" horiz-adv-x="437" 
d="M158 237q-46 25 -66.5 55.5t-20.5 71.5q0 72 55 116t145 44q39 0 78 -8.5t67 -23.5l-16 -83q-25 12 -60 19.5t-68 7.5q-46 0 -69.5 -16t-23.5 -47q0 -19 11.5 -31.5t47.5 -32.5l53 -30q51 -29 71 -57t20 -70q0 -77 -55.5 -122t-151.5 -45q-45 0 -91.5 10.5t-80.5 27.5
l16 83q35 -15 79 -24t78 -9q47 0 71.5 16.5t24.5 48.5q0 20 -12.5 34.5t-44.5 32.5zM43 -242q54 30 76.5 50.5t22.5 39.5q0 23 -33 23q-13 0 -34 -3l13 61q35 10 64 10q38 0 59.5 -17.5t21.5 -49.5q0 -82 -151 -156z" />
    <glyph glyph-name="Scaron" unicode="&#x160;" horiz-adv-x="547" 
d="M225 318q-69 32 -101 74t-32 100q0 60 32 109.5t92 78.5t136 29q49 0 95.5 -12.5t82.5 -34.5l-17 -89q-32 18 -75 28t-84 10q-67 0 -105.5 -27.5t-38.5 -75.5q0 -31 18 -51.5t63 -40.5l73 -33q68 -31 98 -71t30 -99q0 -67 -34 -119t-98.5 -81.5t-150.5 -29.5
q-58 0 -110 13.5t-90 38.5l19 88q96 -42 183 -42q74 0 118.5 30.5t44.5 82.5q0 31 -20.5 52.5t-72.5 45.5zM413 769h-121l-104 137h121l49 -87l85 87h128z" />
    <glyph glyph-name="scaron" unicode="&#x161;" horiz-adv-x="437" 
d="M158 237q-46 25 -66.5 55.5t-20.5 71.5q0 72 55 116t145 44q39 0 78 -8.5t67 -23.5l-16 -83q-25 12 -60 19.5t-68 7.5q-46 0 -69.5 -16t-23.5 -47q0 -19 11.5 -31.5t47.5 -32.5l53 -30q51 -29 71 -57t20 -70q0 -77 -55.5 -122t-151.5 -45q-45 0 -91.5 10.5t-80.5 27.5
l16 83q35 -15 79 -24t78 -9q47 0 71.5 16.5t24.5 48.5q0 20 -12.5 34.5t-44.5 32.5zM226 601l-97 164h111l52 -110l96 110h116l-160 -164h-118z" />
    <glyph glyph-name="uni0162" unicode="&#x162;" horiz-adv-x="572" 
d="M173 0l116 595h-210l19 98h538l-19 -98h-210l-116 -595h-118zM105 -241q51 28 74.5 49t23.5 40q0 21 -31 21q-13 0 -34 -3l13 63q35 10 64 10q38 0 59.5 -17.5t21.5 -49.5q0 -82 -151 -156z" />
    <glyph glyph-name="uni0163" unicode="&#x163;" horiz-adv-x="396" 
d="M353 38q-27 -20 -65.5 -32.5t-75.5 -12.5q-136 0 -136 116q0 27 15 103l41 209h-87l14 72l93 14l45 142h93l-27 -140h144l-17 -88h-144l-39 -200q-15 -75 -15 -92q0 -24 13 -34.5t42 -10.5q39 0 81 20zM60 -242q54 30 76.5 50.5t22.5 39.5q0 23 -33 23q-13 0 -34 -3
l13 61q35 10 64 10q38 0 59.5 -17.5t21.5 -49.5q0 -82 -151 -156z" />
    <glyph glyph-name="Tcaron" unicode="&#x164;" horiz-adv-x="572" 
d="M173 0l116 595h-210l19 98h538l-19 -98h-210l-116 -595h-118zM434 769h-121l-104 137h121l49 -87l85 87h128z" />
    <glyph glyph-name="tcaron" unicode="&#x165;" horiz-adv-x="462" 
d="M353 38q-27 -20 -65.5 -32.5t-75.5 -12.5q-136 0 -136 116q0 27 15 103l41 209h-87l14 72l93 14l45 142h93l-27 -140h144l-17 -88h-144l-39 -200q-15 -75 -15 -92q0 -24 13 -34.5t42 -10.5q39 0 81 20zM347 572l34 180q27 10 55 10q35 0 54 -17l-68 -173h-75z" />
    <glyph glyph-name="Tbar" unicode="&#x166;" horiz-adv-x="572" 
d="M173 0l61 310h-136l16 78h135l40 207h-210l19 98h538l-19 -98h-210l-40 -207h136l-16 -78h-135l-61 -310h-118z" />
    <glyph glyph-name="tbar" unicode="&#x167;" horiz-adv-x="437" 
d="M372 38q-27 -20 -65.5 -32.5t-75.5 -12.5q-136 0 -136 116q0 27 15 103l3 14h-85l15 76h85l23 119h-87l14 72l93 14l45 142h93l-27 -140h144l-17 -88h-144l-23 -119h141l-15 -76h-141l-1 -5q-15 -75 -15 -92q0 -24 13 -34.5t42 -10.5q39 0 81 20z" />
    <glyph glyph-name="Utilde" unicode="&#x168;" horiz-adv-x="707" 
d="M587 693h118l-89 -457q-24 -122 -102.5 -187.5t-201.5 -65.5q-110 0 -172 54t-62 149q0 55 21 163l67 344h118l-67 -345q-23 -115 -23 -147q0 -58 33 -88t97 -30q71 0 115 37.5t58 111.5zM568 900h69q0 -13 -4 -34q-11 -48 -42 -74.5t-76 -26.5q-21 0 -40.5 9t-43.5 31
q-18 17 -27 22.5t-17 5.5q-13 0 -22 -9t-13 -26l-7 -28h-69q0 13 4 34q11 48 42 74.5t76 26.5q21 0 40.5 -9t43.5 -31q18 -17 27 -22.5t17 -5.5q13 0 22 9.5t13 25.5z" />
    <glyph glyph-name="utilde" unicode="&#x169;" horiz-adv-x="573" 
d="M357 0l3 89q-39 -49 -88 -76.5t-99 -27.5q-62 0 -94.5 34.5t-32.5 99.5q0 41 16 123l52 267h114l-52 -267q-14 -74 -14 -107q0 -30 13 -44.5t42 -14.5q31 0 72.5 27t82.5 74l64 332h114l-99 -509h-94zM475 733h68q0 -15 -3 -35q-5 -29 -21 -52t-41 -35.5t-56 -12.5
q-23 0 -41.5 8.5t-39.5 28.5q-22 22 -30.5 27.5t-16.5 5.5q-14 0 -22.5 -8.5t-13.5 -26.5l-8 -30h-68q0 16 3 35q5 29 21 52t41 35.5t56 12.5q23 0 41.5 -8.5t39.5 -28.5q22 -22 30.5 -27.5t16.5 -5.5q14 0 22.5 8.5t13.5 26.5z" />
    <glyph glyph-name="Umacron" unicode="&#x16a;" horiz-adv-x="707" 
d="M587 693h118l-89 -457q-24 -122 -102.5 -187.5t-201.5 -65.5q-110 0 -172 54t-62 149q0 55 21 163l67 344h118l-67 -345q-23 -115 -23 -147q0 -58 33 -88t97 -30q71 0 115 37.5t58 111.5zM292 795l14 77h324l-14 -77h-324z" />
    <glyph glyph-name="umacron" unicode="&#x16b;" horiz-adv-x="573" 
d="M357 0l3 89q-39 -49 -88 -76.5t-99 -27.5q-62 0 -94.5 34.5t-32.5 99.5q0 41 16 123l52 267h114l-52 -267q-14 -74 -14 -107q0 -30 13 -44.5t42 -14.5q31 0 72.5 27t82.5 74l64 332h114l-99 -509h-94zM194 630l14 75h324l-14 -75h-324z" />
    <glyph glyph-name="Ubreve" unicode="&#x16c;" horiz-adv-x="707" 
d="M587 693h118l-89 -457q-24 -122 -102.5 -187.5t-201.5 -65.5q-110 0 -172 54t-62 149q0 55 21 163l67 344h118l-67 -345q-23 -115 -23 -147q0 -58 33 -88t97 -30q71 0 115 37.5t58 111.5zM541 903h73q0 -61 -48 -100t-124 -39q-59 0 -93.5 24.5t-34.5 66.5q0 26 11 48h69
q-3 -16 -3 -25q0 -41 60 -41q70 0 87 56z" />
    <glyph glyph-name="ubreve" unicode="&#x16d;" horiz-adv-x="573" 
d="M357 0l3 89q-39 -49 -88 -76.5t-99 -27.5q-62 0 -94.5 34.5t-32.5 99.5q0 41 16 123l52 267h114l-52 -267q-14 -74 -14 -107q0 -30 13 -44.5t42 -14.5q31 0 72.5 27t82.5 74l64 332h114l-99 -509h-94zM448 755h71q-1 -46 -22 -81.5t-60 -55.5t-89 -20q-60 0 -95 27
t-35 74q0 26 13 56h67q-4 -20 -4 -34q0 -51 62 -51q69 0 87 66z" />
    <glyph glyph-name="Uring" unicode="&#x16e;" horiz-adv-x="707" 
d="M587 693h118l-89 -457q-24 -122 -102.5 -187.5t-201.5 -65.5q-110 0 -172 54t-62 149q0 55 21 163l67 344h118l-67 -345q-23 -115 -23 -147q0 -58 33 -88t97 -30q71 0 115 37.5t58 111.5zM447 735q-46 0 -72 23t-26 63q0 50 37 83t92 33q46 0 72 -23t26 -63
q0 -50 -37 -83t-92 -33zM454 788q22 0 38 17t16 41q0 17 -10 27.5t-27 10.5q-22 0 -38 -17t-16 -41q0 -17 10 -27.5t27 -10.5z" />
    <glyph glyph-name="uring" unicode="&#x16f;" horiz-adv-x="573" 
d="M357 0l3 89q-39 -49 -88 -76.5t-99 -27.5q-62 0 -94.5 34.5t-32.5 99.5q0 41 16 123l52 267h114l-52 -267q-14 -74 -14 -107q0 -30 13 -44.5t42 -14.5q31 0 72.5 27t82.5 74l64 332h114l-99 -509h-94zM352 585q-49 0 -78 25.5t-29 69.5q0 53 40.5 89t99.5 36
q49 0 78 -25.5t29 -69.5q0 -53 -40.5 -89t-99.5 -36zM359 642q25 0 42.5 19t17.5 45q0 19 -11 30.5t-30 11.5q-25 0 -42.5 -19t-17.5 -45q0 -19 11 -30.5t30 -11.5z" />
    <glyph glyph-name="Uhungarumlaut" unicode="&#x170;" horiz-adv-x="707" 
d="M587 693h118l-89 -457q-24 -122 -102.5 -187.5t-201.5 -65.5q-110 0 -172 54t-62 149q0 55 21 163l67 344h118l-67 -345q-23 -115 -23 -147q0 -58 33 -88t97 -30q71 0 115 37.5t58 111.5zM386 769h-102l123 125h132zM573 769h-102l123 125h132z" />
    <glyph glyph-name="uhungarumlaut" unicode="&#x171;" horiz-adv-x="573" 
d="M357 0l3 89q-39 -49 -88 -76.5t-99 -27.5q-62 0 -94.5 34.5t-32.5 99.5q0 41 16 123l52 267h114l-52 -267q-14 -74 -14 -107q0 -30 13 -44.5t42 -14.5q31 0 72.5 27t82.5 74l64 332h114l-99 -509h-94zM178 601l126 163h130l-160 -163h-96zM372 601l126 163h130l-160 -163
h-96z" />
    <glyph glyph-name="Uogonek" unicode="&#x172;" horiz-adv-x="707" 
d="M436 -202q-51 -25 -106 -25q-51 0 -77 19.5t-26 56.5q0 73 89 134h-4q-110 0 -172 54t-62 149q0 55 21 163l67 344h118l-67 -345q-23 -115 -23 -147q0 -58 33 -88t97 -30q71 0 115 37.5t58 111.5l90 461h118l-89 -457q-17 -87 -61 -144t-118 -89q-51 -22 -82 -56.5
t-31 -67.5t40 -33q17 0 47 9z" />
    <glyph glyph-name="uogonek" unicode="&#x173;" horiz-adv-x="573" 
d="M456 -202q-47 -25 -105 -25q-49 0 -75.5 19.5t-26.5 56.5q0 78 118 151h-10l3 89q-39 -49 -88 -76.5t-99 -27.5q-62 0 -94.5 34.5t-32.5 99.5q0 41 16 123l52 267h114l-52 -267q-14 -74 -14 -107q0 -30 13 -44.5t42 -14.5q31 0 72.5 27t82.5 74l64 332h114l-99 -509
q-107 -69 -107 -123q0 -33 42 -33q19 0 46 9z" />
    <glyph glyph-name="Wcircumflex" unicode="&#x174;" horiz-adv-x="911" 
d="M519 0l-20 527l-222 -527h-129l-57 693h125l23 -560l223 541h131l18 -541l235 560h129l-327 -693h-129zM629 769l-68 78l-99 -78h-111l158 137h121l104 -137h-105z" />
    <glyph glyph-name="wcircumflex" unicode="&#x175;" horiz-adv-x="755" 
d="M423 0l-25 382l-163 -382h-112l-68 509h119l31 -394l159 394h111l28 -403q48 96 90 201t71 202h115q-34 -102 -106 -253t-138 -256h-112zM519 601l-71 101l-110 -101h-100l160 164h118l97 -164h-94z" />
    <glyph glyph-name="Ycircumflex" unicode="&#x176;" horiz-adv-x="558" 
d="M160 0l50 255l-142 438h123l92 -343l228 343h129l-315 -441l-49 -252h-116zM448 769l-68 78l-99 -78h-111l158 137h121l104 -137h-105z" />
    <glyph glyph-name="ycircumflex" unicode="&#x177;" horiz-adv-x="489" 
d="M-66 -141q76 30 120.5 60.5t88.5 84.5l-101 505h118l62 -403q107 195 184 403h115q-58 -147 -141 -301t-154 -246q-115 -151 -242 -181zM384 601l-71 101l-110 -101h-100l160 164h118l97 -164h-94z" />
    <glyph glyph-name="Ydieresis" unicode="&#x178;" horiz-adv-x="558" 
d="M160 0l50 255l-142 438h123l92 -343l228 343h129l-315 -441l-49 -252h-116zM270 775q-27 0 -42.5 14.5t-15.5 40.5q0 32 23 53.5t58 21.5q27 0 42.5 -14.5t15.5 -40.5q0 -32 -23 -53.5t-58 -21.5zM474 775q-27 0 -42.5 14.5t-15.5 40.5q0 32 23 53.5t58 21.5
q27 0 42.5 -14.5t15.5 -40.5q0 -32 -23 -53.5t-58 -21.5z" />
    <glyph glyph-name="Zacute" unicode="&#x179;" horiz-adv-x="556" 
d="M-20 0l17 88l449 509h-332l19 96h470l-17 -88l-449 -509h351l-19 -96h-489zM426 769h-102l118 125h137z" />
    <glyph glyph-name="zacute" unicode="&#x17a;" horiz-adv-x="460" 
d="M-17 0l16 82l326 339h-253l17 88h390l-16 -82l-326 -339h265l-17 -88h-402zM244 601l120 163h136l-160 -163h-96z" />
    <glyph glyph-name="Zdotaccent" unicode="&#x17b;" horiz-adv-x="556" 
d="M-20 0l17 88l449 509h-332l19 96h470l-17 -88l-449 -509h351l-19 -96h-489zM383 775q-31 0 -48 15t-17 43q0 34 23.5 57t57.5 23q31 0 48 -15t17 -43q0 -34 -23.5 -57t-57.5 -23z" />
    <glyph glyph-name="zdotaccent" unicode="&#x17c;" horiz-adv-x="460" 
d="M-17 0l16 82l326 339h-253l17 88h390l-16 -82l-326 -339h265l-17 -88h-402zM305 593q-30 0 -46.5 14.5t-16.5 42.5q0 33 23.5 56t57.5 23q30 0 46.5 -14.5t16.5 -42.5q0 -33 -23.5 -56t-57.5 -23z" />
    <glyph glyph-name="Zcaron" unicode="&#x17d;" horiz-adv-x="556" 
d="M-20 0l17 88l449 509h-332l19 96h470l-17 -88l-449 -509h351l-19 -96h-489zM435 769h-121l-104 137h121l49 -87l85 87h128z" />
    <glyph glyph-name="zcaron" unicode="&#x17e;" horiz-adv-x="460" 
d="M-17 0l16 82l326 339h-253l17 88h390l-16 -82l-326 -339h265l-17 -88h-402zM233 601l-97 164h111l52 -110l96 110h116l-160 -164h-118z" />
    <glyph glyph-name="longs" unicode="&#x17f;" horiz-adv-x="268" 
d="M25 0l112 574q36 180 199 180q26 0 53 -6t46 -15l-16 -80q-40 10 -74 10q-42 0 -63 -18t-29 -59l-114 -586h-114z" />
    <glyph glyph-name="florin" unicode="&#x192;" horiz-adv-x="386" 
d="M-106 -121q30 -8 65 -8q40 0 60.5 19.5t30.5 68.5l90 462h-87l14 72l90 13l13 68q34 180 199 180q26 0 53 -6t46 -15l-16 -80q-40 10 -74 10q-42 0 -63 -18t-29 -59l-15 -77h151l-17 -88h-151l-90 -462q-34 -177 -186 -177q-55 0 -99 22z" />
    <glyph glyph-name="uni01D3" unicode="&#x1d3;" horiz-adv-x="707" 
d="M587 693h118l-89 -457q-24 -122 -102.5 -187.5t-201.5 -65.5q-110 0 -172 54t-62 149q0 55 21 163l67 344h118l-67 -345q-23 -115 -23 -147q0 -58 33 -88t97 -30q71 0 115 37.5t58 111.5zM501 769h-121l-104 137h121l49 -87l85 87h128z" />
    <glyph glyph-name="uni01D4" unicode="&#x1d4;" horiz-adv-x="573" 
d="M357 0l3 89q-39 -49 -88 -76.5t-99 -27.5q-62 0 -94.5 34.5t-32.5 99.5q0 41 16 123l52 267h114l-52 -267q-14 -74 -14 -107q0 -30 13 -44.5t42 -14.5q31 0 72.5 27t82.5 74l64 332h114l-99 -509h-94zM281 601l-97 164h111l52 -110l96 110h116l-160 -164h-118z" />
    <glyph glyph-name="Aringacute" unicode="&#x1fa;" horiz-adv-x="620" 
d="M449 0l-22 175h-256l-89 -175h-124l354 641q-23 23 -23 61q0 50 37 83t92 33q46 0 72 -23t26 -63q0 -59 -51 -94l108 -638h-124zM215 262h203l-41 320zM476 851h-95l118 125h130zM394 669q22 0 38 17t16 41q0 17 -10 27.5t-27 10.5q-22 0 -38 -17t-16 -41q0 -17 10 -27.5
t27 -10.5z" />
    <glyph glyph-name="aringacute" unicode="&#x1fb;" horiz-adv-x="558" 
d="M342 0l3 89q-86 -104 -182 -104q-63 0 -97.5 45t-34.5 127q0 93 41 176.5t114 137t159 53.5q40 0 92 -11t93 -29l-94 -484h-94zM208 76q31 0 69 26t80 75l48 251q-28 7 -62 7q-49 0 -93.5 -34.5t-73.5 -96.5t-29 -134q0 -94 61 -94zM358 581q-46 0 -72 23t-26 63
q0 50 37 83t92 33q46 0 72 -23t26 -63q0 -50 -37 -83t-92 -33zM365 634q22 0 38 17t16 41q0 17 -10 27.5t-27 10.5q-22 0 -38 -17t-16 -41q0 -17 10 -27.5t27 -10.5zM447 816h-95l118 125h130z" />
    <glyph glyph-name="AEacute" unicode="&#x1fc;" horiz-adv-x="918" 
d="M398 0l36 184h-233l-132 -184h-128l509 693h513l-19 -96h-312l-37 -193h259l-19 -96h-259l-41 -212h312l-19 -96h-430zM262 271h189l63 326h-18zM764 769h-102l118 125h137z" />
    <glyph glyph-name="aeacute" unicode="&#x1fd;" horiz-adv-x="814" 
d="M748 48q-44 -30 -100 -47.5t-112 -17.5q-66 0 -109.5 32.5t-56.5 90.5q-36 -59 -89 -90t-115 -31q-65 0 -100 44.5t-35 127.5q0 93 41 176.5t114 137t159 53.5q85 0 165 -51q71 53 153 53q65 0 102 -32t37 -88q0 -78 -72.5 -136t-203.5 -84l-60 -12q0 -55 22 -79.5
t72 -24.5q72 0 158 46zM444 406q-51 29 -101 29q-49 0 -93.5 -34.5t-73.5 -96.5t-29 -134q0 -49 15.5 -71.5t50.5 -22.5q34 0 63 20.5t53 61t46 107.5q18 56 32 83t37 58zM530 265q77 18 122 52.5t45 74.5q0 23 -14.5 35.5t-42.5 12.5q-37 0 -72 -23.5t-61.5 -67
t-36.5 -98.5zM470 601l120 163h136l-160 -163h-96z" />
    <glyph glyph-name="Oslashacute" unicode="&#x1fe;" horiz-adv-x="749" 
d="M-4 5l98 99q-38 68 -38 160q0 124 47.5 224.5t135.5 160.5t202 60q117 0 190 -65l86 87l53 -49l-93 -94q39 -67 39 -160q0 -124 -47.5 -224.5t-135.5 -160.5t-202 -60q-118 0 -191 65l-91 -92zM342 83q71 0 128.5 41.5t91.5 118t34 175.5q0 44 -11 79l-363 -366
q45 -48 120 -48zM176 274q0 -41 10 -78l363 366q-44 47 -119 47q-71 0 -128.5 -41.5t-91.5 -118t-34 -175.5zM511 769h-102l118 125h137z" />
    <glyph glyph-name="oslashacute" unicode="&#x1ff;" horiz-adv-x="547" 
d="M-16 9l72 72q-25 52 -25 118q0 87 36.5 160.5t103.5 119t150 45.5q81 0 132 -45l64 64l46 -43l-72 -72q25 -52 25 -118q0 -87 -36.5 -160.5t-103.5 -119t-150 -45.5q-81 0 -132 45l-64 -64zM147 203q0 -16 2 -29l227 228q-23 31 -67 31q-43 0 -80 -29t-59.5 -82
t-22.5 -119zM238 76q43 0 80 29t59.5 82t22.5 119q0 16 -2 29l-227 -228q23 -31 67 -31zM282 601l120 163h136l-160 -163h-96z" />
    <glyph glyph-name="uni0218" unicode="&#x218;" horiz-adv-x="547" 
d="M225 318q-69 32 -101 74t-32 100q0 60 32 109.5t92 78.5t136 29q49 0 95.5 -12.5t82.5 -34.5l-17 -89q-32 18 -75 28t-84 10q-67 0 -105.5 -27.5t-38.5 -75.5q0 -31 18 -51.5t63 -40.5l73 -33q68 -31 98 -71t30 -99q0 -67 -34 -119t-98.5 -81.5t-150.5 -29.5
q-58 0 -110 13.5t-90 38.5l19 88q96 -42 183 -42q74 0 118.5 30.5t44.5 82.5q0 31 -20.5 52.5t-72.5 45.5zM95 -281l76 217h48q24 0 35 -7.5t11 -23.5q0 -11 -5.5 -23.5t-24.5 -46.5l-66 -116h-74z" />
    <glyph glyph-name="uni0219" unicode="&#x219;" horiz-adv-x="437" 
d="M158 237q-46 25 -66.5 55.5t-20.5 71.5q0 72 55 116t145 44q39 0 78 -8.5t67 -23.5l-16 -83q-25 12 -60 19.5t-68 7.5q-46 0 -69.5 -16t-23.5 -47q0 -19 11.5 -31.5t47.5 -32.5l53 -30q51 -29 71 -57t20 -70q0 -77 -55.5 -122t-151.5 -45q-45 0 -91.5 10.5t-80.5 27.5
l16 83q35 -15 79 -24t78 -9q47 0 71.5 16.5t24.5 48.5q0 20 -12.5 34.5t-44.5 32.5zM41 -281l76 217h46q24 0 35 -7.5t11 -23.5q0 -11 -5.5 -23.5t-24.5 -46.5l-66 -116h-72z" />
    <glyph glyph-name="uni021A" unicode="&#x21a;" horiz-adv-x="572" 
d="M173 0l116 595h-210l19 98h538l-19 -98h-210l-116 -595h-118zM107 -281l76 217h48q24 0 35 -7.5t11 -23.5q0 -11 -5.5 -23.5t-24.5 -46.5l-66 -116h-74z" />
    <glyph glyph-name="uni021B" unicode="&#x21b;" horiz-adv-x="396" 
d="M353 38q-27 -20 -65.5 -32.5t-75.5 -12.5q-136 0 -136 116q0 27 15 103l41 209h-87l14 72l93 14l45 142h93l-27 -140h144l-17 -88h-144l-39 -200q-15 -75 -15 -92q0 -24 13 -34.5t42 -10.5q39 0 81 20zM58 -281l76 217h46q24 0 35 -7.5t11 -23.5q0 -11 -5.5 -23.5
t-24.5 -46.5l-66 -116h-72z" />
    <glyph glyph-name="uni0237" unicode="&#x237;" horiz-adv-x="268" 
d="M-109 -121q27 -8 56 -8q30 0 47.5 19.5t25.5 61.5l108 557h114l-108 -557q-33 -170 -159 -170q-55 0 -99 22z" />
    <glyph glyph-name="uni02B9" unicode="&#x2b9;" horiz-adv-x="277" 
d="M89 475l111 219q33 15 69 15q34 0 59 -15l-154 -219h-85z" />
    <glyph glyph-name="uni02BA" unicode="&#x2ba;" horiz-adv-x="469" 
d="M89 475l111 219q33 15 69 15q34 0 59 -15l-154 -219h-85zM281 475l111 219q33 15 69 15q34 0 59 -15l-154 -219h-85z" />
    <glyph glyph-name="uni02BB" unicode="&#x2bb;" horiz-adv-x="262" 
d="M318 664q-74 -78 -104 -170q-11 -34 -19 -82h-51q-55 0 -55 36q0 51 52.5 126t128.5 131z" />
    <glyph glyph-name="uni02BC" unicode="&#x2bc;" horiz-adv-x="262" 
d="M63 441q74 78 104 170q11 34 19 82h51q55 0 55 -36q0 -51 -52.5 -126t-128.5 -131z" />
    <glyph glyph-name="circumflex" unicode="&#x2c6;" horiz-adv-x="588" 
d="M450 601l-71 101l-110 -101h-100l160 164h118l97 -164h-94z" />
    <glyph glyph-name="caron" unicode="&#x2c7;" horiz-adv-x="588" 
d="M299 601l-97 164h111l52 -110l96 110h116l-160 -164h-118z" />
    <glyph glyph-name="uni02C9" unicode="&#x2c9;" horiz-adv-x="588" 
d="M208 630l14 75h324l-14 -75h-324z" />
    <glyph glyph-name="uni02CA" unicode="&#x2ca;" horiz-adv-x="588" 
d="M275 601l120 163h136l-160 -163h-96z" />
    <glyph glyph-name="uni02CB" unicode="&#x2cb;" horiz-adv-x="588" 
d="M351 601l-95 163h128l63 -163h-96z" />
    <glyph glyph-name="breve" unicode="&#x2d8;" horiz-adv-x="588" 
d="M463 755h71q-1 -46 -22 -81.5t-60 -55.5t-89 -20q-60 0 -95 27t-35 74q0 26 13 56h67q-4 -20 -4 -34q0 -51 62 -51q69 0 87 66z" />
    <glyph glyph-name="dotaccent" unicode="&#x2d9;" horiz-adv-x="588" 
d="M368 593q-30 0 -46.5 14.5t-16.5 42.5q0 33 23.5 56t57.5 23q30 0 46.5 -14.5t16.5 -42.5q0 -33 -23.5 -56t-57.5 -23z" />
    <glyph glyph-name="ring" unicode="&#x2da;" horiz-adv-x="588" 
d="M361 585q-49 0 -78 25.5t-29 69.5q0 53 40.5 89t99.5 36q49 0 78 -25.5t29 -69.5q0 -53 -40.5 -89t-99.5 -36zM368 642q25 0 42.5 19t17.5 45q0 19 -11 30.5t-30 11.5q-25 0 -42.5 -19t-17.5 -45q0 -19 11 -30.5t30 -11.5z" />
    <glyph glyph-name="ogonek" unicode="&#x2db;" horiz-adv-x="588" 
d="M307 -202q-47 -25 -105 -25q-49 0 -75.5 19.5t-26.5 56.5q0 87 144 166l58 -15q-107 -69 -107 -123q0 -33 42 -33q19 0 46 9z" />
    <glyph glyph-name="tilde" unicode="&#x2dc;" horiz-adv-x="588" 
d="M490 733h68q0 -15 -3 -35q-5 -29 -21 -52t-41 -35.5t-56 -12.5q-23 0 -41.5 8.5t-39.5 28.5q-22 22 -30.5 27.5t-16.5 5.5q-14 0 -22.5 -8.5t-13.5 -26.5l-8 -30h-68q0 16 3 35q5 29 21 52t41 35.5t56 12.5q23 0 41.5 -8.5t39.5 -28.5q22 -22 30.5 -27.5t16.5 -5.5
q14 0 22.5 8.5t13.5 26.5z" />
    <glyph glyph-name="hungarumlaut" unicode="&#x2dd;" horiz-adv-x="588" 
d="M169 601l126 163h130l-160 -163h-96zM363 601l126 163h130l-160 -163h-96z" />
    <glyph glyph-name="gravecomb" unicode="&#x300;" horiz-adv-x="0" 
d="M-58 601l-95 163h128l63 -163h-96z" />
    <glyph glyph-name="acutecomb" unicode="&#x301;" horiz-adv-x="0" 
d="M-48 601l120 163h136l-160 -163h-96z" />
    <glyph glyph-name="uni0302" unicode="&#x302;" horiz-adv-x="0" 
d="M94 601l-71 101l-110 -101h-100l160 164h118l97 -164h-94z" />
    <glyph glyph-name="tildecomb" unicode="&#x303;" horiz-adv-x="0" 
d="M135 733h68q0 -15 -3 -35q-5 -29 -21 -52t-41 -35.5t-56 -12.5q-23 0 -41.5 8.5t-39.5 28.5q-22 22 -30.5 27.5t-16.5 5.5q-14 0 -22.5 -8.5t-13.5 -26.5l-8 -30h-68q0 16 3 35q5 29 21 52t41 35.5t56 12.5q23 0 41.5 -8.5t39.5 -28.5q22 -22 30.5 -27.5t16.5 -5.5
q14 0 22.5 8.5t13.5 26.5z" />
    <glyph glyph-name="uni0304" unicode="&#x304;" horiz-adv-x="0" 
d="M-146 630l14 75h324l-14 -75h-324z" />
    <glyph glyph-name="uni0306" unicode="&#x306;" horiz-adv-x="0" 
d="M108 755h71q-1 -46 -22 -81.5t-60 -55.5t-89 -20q-60 0 -95 27t-35 74q0 26 13 56h67q-4 -20 -4 -34q0 -51 62 -51q69 0 87 66z" />
    <glyph glyph-name="uni0307" unicode="&#x307;" horiz-adv-x="0" 
d="M13 593q-30 0 -46.5 14.5t-16.5 42.5q0 33 23.5 56t57.5 23q30 0 46.5 -14.5t16.5 -42.5q0 -33 -23.5 -56t-57.5 -23z" />
    <glyph glyph-name="uni0308" unicode="&#x308;" horiz-adv-x="0" 
d="M-101 592q-27 0 -42 14t-15 39q0 33 22 54t56 21q27 0 42 -14t15 -39q0 -33 -22 -54t-56 -21zM120 592q-27 0 -42 14t-15 39q0 33 22 54t56 21q27 0 42 -14t15 -39q0 -33 -22 -54t-56 -21z" />
    <glyph glyph-name="uni030A" unicode="&#x30a;" horiz-adv-x="0" 
d="M12 585q-49 0 -78 25.5t-29 69.5q0 53 40.5 89t99.5 36q49 0 78 -25.5t29 -69.5q0 -53 -40.5 -89t-99.5 -36zM19 642q25 0 42.5 19t17.5 45q0 19 -11 30.5t-30 11.5q-25 0 -42.5 -19t-17.5 -45q0 -19 11 -30.5t30 -11.5z" />
    <glyph glyph-name="uni030B" unicode="&#x30b;" horiz-adv-x="0" 
d="M-162 601l126 163h130l-160 -163h-96zM32 601l126 163h130l-160 -163h-96z" />
    <glyph glyph-name="uni030C" unicode="&#x30c;" horiz-adv-x="0" 
d="M-59 601l-97 164h111l52 -110l96 110h116l-160 -164h-118z" />
    <glyph glyph-name="uni0312" unicode="&#x312;" horiz-adv-x="0" 
d="M9 588q-24 0 -35 7.5t-11 23.5q0 11 5.5 23.5t24.5 46.5l69 124h72l-79 -225h-46z" />
    <glyph glyph-name="uni0315" unicode="&#x315;" horiz-adv-x="0" 
d="M-50 542l39 200q24 10 53 10q38 0 57 -17l-74 -193h-75z" />
    <glyph glyph-name="uni0326" unicode="&#x326;" horiz-adv-x="0" 
d="M-122 -281l76 217h46q24 0 35 -7.5t11 -23.5q0 -11 -5.5 -23.5t-24.5 -46.5l-66 -116h-72z" />
    <glyph glyph-name="uni0327" unicode="&#x327;" horiz-adv-x="0" 
d="M-120 -242q54 30 76.5 50.5t22.5 39.5q0 23 -33 23q-13 0 -34 -3l13 61q35 10 64 10q38 0 59.5 -17.5t21.5 -49.5q0 -82 -151 -156z" />
    <glyph glyph-name="uni0328" unicode="&#x328;" horiz-adv-x="0" 
d="M5 -202q-47 -25 -105 -25q-49 0 -75.5 19.5t-26.5 56.5q0 87 144 166l58 -15q-107 -69 -107 -123q0 -33 42 -33q19 0 46 9z" />
    <glyph glyph-name="uni0344" unicode="&#x344;" horiz-adv-x="0" 
d="M-104 592q-26 0 -40.5 13.5t-14.5 37.5q0 31 21.5 51t53.5 20q26 0 40.5 -13.5t14.5 -37.5q0 -31 -21.5 -51t-53.5 -20zM122 592q-26 0 -40.5 13.5t-14.5 37.5q0 31 21.5 51t53.5 20q26 0 40.5 -13.5t14.5 -37.5q0 -31 -21.5 -51t-53.5 -20zM-11 737l87 164h126
l-133 -164h-80z" />
    <glyph glyph-name="uni0374" unicode="&#x374;" horiz-adv-x="277" 
d="M89 475l111 219q33 15 69 15q34 0 59 -15l-154 -219h-85z" />
    <glyph glyph-name="uni0375" unicode="&#x375;" horiz-adv-x="277" 
d="M65 0q33 15 69 15q34 0 59 -15l-154 -219h-85z" />
    <glyph glyph-name="uni037E" unicode="&#x37e;" horiz-adv-x="260" 
d="M-43 -155l107 286h57q28 0 41 -9t13 -29q0 -26 -25 -66l-112 -182h-81zM161 368q-30 0 -47.5 17.5t-17.5 46.5q0 37 25 62.5t62 25.5q30 0 47.5 -17.5t17.5 -46.5q0 -37 -25 -62.5t-62 -25.5z" />
    <glyph glyph-name="tonos" unicode="&#x384;" horiz-adv-x="588" 
d="M275 776h126l-134 -175h-80z" />
    <glyph glyph-name="dieresistonos" unicode="&#x385;" horiz-adv-x="588" 
d="M165 592q-26 0 -40.5 13.5t-14.5 37.5q0 31 21.5 51t53.5 20q26 0 40.5 -13.5t14.5 -37.5q0 -31 -21.5 -51t-53.5 -20zM391 592q-26 0 -40.5 13.5t-14.5 37.5q0 31 21.5 51t53.5 20q26 0 40.5 -13.5t14.5 -37.5q0 -31 -21.5 -51t-53.5 -20zM258 737l87 164h126l-133 -164
h-80z" />
    <glyph glyph-name="Alphatonos" unicode="&#x386;" horiz-adv-x="628" 
d="M457 0l-22 175h-256l-89 -175h-124l376 693h129l110 -693h-124zM223 262h203l-41 320zM124 693h128l-134 -175h-82z" />
    <glyph glyph-name="anoteleia" unicode="&#x387;" horiz-adv-x="260" 
d="M161 368q-30 0 -47.5 17.5t-17.5 46.5q0 37 25 62.5t62 25.5q30 0 47.5 -17.5t17.5 -46.5q0 -37 -25 -62.5t-62 -25.5z" />
    <glyph glyph-name="Epsilontonos" unicode="&#x388;" horiz-adv-x="687" 
d="M167 0l135 693h430l-19 -96h-312l-37 -193h259l-19 -96h-259l-41 -212h312l-19 -96h-430zM122 693h128l-134 -175h-82z" />
    <glyph glyph-name="Etatonos" unicode="&#x389;" horiz-adv-x="855" 
d="M594 0l60 305h-309l-60 -305h-118l135 693h118l-57 -292h309l57 292h118l-135 -693h-118zM122 693h128l-134 -175h-82z" />
    <glyph glyph-name="Iotatonos" unicode="&#x38a;" horiz-adv-x="432" 
d="M167 0l135 693h118l-135 -693h-118zM122 693h128l-134 -175h-82z" />
    <glyph glyph-name="Omicrontonos" unicode="&#x38c;" horiz-adv-x="855" 
d="M437 -17q-128 0 -201.5 75.5t-73.5 205.5q0 124 47.5 224.5t135.5 160.5t202 60q128 0 201.5 -75.5t73.5 -205.5q0 -124 -47.5 -224.5t-135.5 -160.5t-202 -60zM448 83q71 0 128.5 41.5t91.5 118t34 175.5q0 90 -44 140.5t-122 50.5q-71 0 -128.5 -41.5t-91.5 -118
t-34 -175.5q0 -90 44 -140.5t122 -50.5zM122 693h128l-134 -175h-82z" />
    <glyph glyph-name="Upsilontonos" unicode="&#x38e;" horiz-adv-x="774" 
d="M376 0l50 255l-142 438h123l92 -343l228 343h129l-315 -441l-49 -252h-116zM122 693h128l-134 -175h-82z" />
    <glyph glyph-name="Omegatonos" unicode="&#x38f;" horiz-adv-x="845" 
d="M112 92h142q-79 91 -79 225q0 106 46.5 195t132 143t192.5 54q81 0 141.5 -33t94 -95.5t33.5 -148.5q0 -66 -20.5 -129t-59.5 -117t-95 -94h146l-18 -92h-289l17 88q92 50 145.5 139.5t53.5 194.5q0 90 -41.5 138.5t-118.5 48.5q-66 0 -120.5 -36t-87 -102.5
t-32.5 -152.5q0 -71 23.5 -132t66.5 -98l-17 -88h-274zM122 693h128l-134 -175h-82z" />
    <glyph glyph-name="iotadieresistonos" unicode="&#x390;" horiz-adv-x="306" 
d="M162 -6q-110 0 -110 106q0 39 11 94l61 315h114l-61 -315q-11 -60 -11 -75q0 -37 41 -37q22 0 44 8l25 -66q-55 -30 -114 -30zM85 592q-26 0 -40.5 13.5t-14.5 37.5q0 31 21.5 51t53.5 20q26 0 40.5 -13.5t14.5 -37.5q0 -31 -21.5 -51t-53.5 -20zM311 592
q-26 0 -40.5 13.5t-14.5 37.5q0 31 21.5 51t53.5 20q26 0 40.5 -13.5t14.5 -37.5q0 -31 -21.5 -51t-53.5 -20zM178 737l87 164h126l-133 -164h-80z" />
    <glyph glyph-name="Alpha" unicode="&#x391;" horiz-adv-x="620" 
d="M449 0l-22 175h-256l-89 -175h-124l376 693h129l110 -693h-124zM215 262h203l-41 320z" />
    <glyph glyph-name="Beta" unicode="&#x392;" horiz-adv-x="617" 
d="M41 0l135 693h224q88 0 139 -44.5t51 -120.5q0 -60 -32 -105t-90 -66q48 -19 73.5 -56t25.5 -86q0 -63 -32.5 -111.5t-93.5 -76t-143 -27.5h-257zM214 311l-44 -222h139q66 0 103.5 34.5t37.5 96.5q0 43 -25.5 67t-71.5 24h-139zM271 604l-41 -208h122q55 0 89 34t34 90
q0 41 -25 62.5t-72 21.5h-107z" />
    <glyph glyph-name="Gamma" unicode="&#x393;" horiz-adv-x="525" 
d="M41 0l135 693h405l-19 -98h-287l-116 -595h-118z" />
    <glyph glyph-name="uni0394" unicode="&#x394;" horiz-adv-x="615" 
d="M-9 89l338 604h134l98 -604l-17 -89h-570zM441 92l-67 493l-261 -493h328z" />
    <glyph glyph-name="Epsilon" unicode="&#x395;" horiz-adv-x="561" 
d="M41 0l135 693h430l-19 -96h-312l-37 -193h259l-19 -96h-259l-41 -212h312l-19 -96h-430z" />
    <glyph glyph-name="Zeta" unicode="&#x396;" horiz-adv-x="556" 
d="M-20 0l17 88l449 509h-332l19 96h470l-17 -88l-449 -509h351l-19 -96h-489z" />
    <glyph glyph-name="Eta" unicode="&#x397;" horiz-adv-x="729" 
d="M468 0l60 305h-309l-60 -305h-118l135 693h118l-57 -292h309l57 292h118l-135 -693h-118z" />
    <glyph glyph-name="Theta" unicode="&#x398;" horiz-adv-x="749" 
d="M331 -17q-128 0 -201.5 75.5t-73.5 205.5q0 124 47.5 224.5t135.5 160.5t202 60q128 0 201.5 -75.5t73.5 -205.5q0 -124 -47.5 -224.5t-135.5 -160.5t-202 -60zM342 83q71 0 128.5 41.5t91.5 118t34 175.5q0 90 -44 140.5t-122 50.5q-71 0 -128.5 -41.5t-91.5 -118
t-34 -175.5q0 -90 44 -140.5t122 -50.5zM271 404h249l-19 -96h-249z" />
    <glyph glyph-name="Iota" unicode="&#x399;" horiz-adv-x="310" 
d="M45 0l135 693h118l-135 -693h-118z" />
    <glyph glyph-name="Kappa" unicode="&#x39a;" horiz-adv-x="619" 
d="M41 0l135 693h118l-58 -300l321 300h147l-364 -334l237 -359h-135l-218 333l-65 -333h-118z" />
    <glyph glyph-name="Lambda" unicode="&#x39b;" horiz-adv-x="608" 
d="M368 565l-283 -565h-127l370 693h129l104 -693h-127z" />
    <glyph glyph-name="Mu" unicode="&#x39c;" horiz-adv-x="848" 
d="M597 0l103 526l-242 -352h-100l-106 358l-103 -532h-108l135 693h130l122 -413l282 413h130l-135 -693h-108z" />
    <glyph glyph-name="Nu" unicode="&#x39d;" horiz-adv-x="723" 
d="M455 0l-204 541l-105 -541h-105l135 693h125l204 -541l105 541h105l-135 -693h-125z" />
    <glyph glyph-name="Xi" unicode="&#x39e;" horiz-adv-x="571" 
d="M18 100h475l-20 -100h-475zM137 403h355l-20 -100h-355zM142 693h456l-20 -100h-456z" />
    <glyph glyph-name="Omicron" unicode="&#x39f;" horiz-adv-x="749" 
d="M331 -17q-128 0 -201.5 75.5t-73.5 205.5q0 124 47.5 224.5t135.5 160.5t202 60q128 0 201.5 -75.5t73.5 -205.5q0 -124 -47.5 -224.5t-135.5 -160.5t-202 -60zM342 83q71 0 128.5 41.5t91.5 118t34 175.5q0 90 -44 140.5t-122 50.5q-71 0 -128.5 -41.5t-91.5 -118
t-34 -175.5q0 -90 44 -140.5t122 -50.5z" />
    <glyph glyph-name="Pi" unicode="&#x3a0;" horiz-adv-x="710" 
d="M449 0l116 597h-290l-116 -597h-118l135 693h526l-135 -693h-118z" />
    <glyph glyph-name="Rho" unicode="&#x3a1;" horiz-adv-x="601" 
d="M41 0l135 693h210q103 0 160 -49.5t57 -138.5q0 -71 -35.5 -126t-102 -86.5t-155.5 -31.5h-103l-51 -261h-115zM225 353h87q81 0 127.5 39t46.5 107q0 52 -30.5 77t-94.5 25h-88z" />
    <glyph glyph-name="Sigma" unicode="&#x3a3;" horiz-adv-x="530" 
d="M-4 88l250 270l-139 247l17 88h463l-19 -96h-333l138 -241l-237 -260h351l-19 -96h-489z" />
    <glyph glyph-name="Tau" unicode="&#x3a4;" horiz-adv-x="572" 
d="M173 0l116 595h-210l19 98h538l-19 -98h-210l-116 -595h-118z" />
    <glyph glyph-name="Upsilon" unicode="&#x3a5;" horiz-adv-x="558" 
d="M160 0l50 255l-142 438h123l92 -343l228 343h129l-315 -441l-49 -252h-116z" />
    <glyph glyph-name="Phi" unicode="&#x3a6;" horiz-adv-x="811" 
d="M314 57q-128 13 -195 76.5t-67 171.5q0 90 45.5 163t131 118t198.5 51l17 86h100l-17 -86q128 -13 195 -76.5t67 -171.5q0 -90 -45.5 -163t-131 -118t-198.5 -51l-17 -87h-100zM165 313q0 -77 40 -119.5t125 -52.5l80 411q-114 -9 -179.5 -73t-65.5 -166zM676 381
q0 77 -40 119.5t-125 52.5l-80 -411q114 9 179.5 73t65.5 166z" />
    <glyph glyph-name="Chi" unicode="&#x3a7;" horiz-adv-x="578" 
d="M408 0l-112 271l-210 -271h-137l300 370l-141 323h126l99 -245l190 245h137l-279 -343l153 -350h-126z" />
    <glyph glyph-name="Psi" unicode="&#x3a8;" horiz-adv-x="771" 
d="M272 0l35 179q-102 10 -159.5 64.5t-57.5 141.5q0 32 15 108l39 200h115l-40 -205q-15 -74 -15 -101q0 -53 30 -81.5t91 -34.5l82 422h115l-82 -422q74 11 121 59t63 128l46 235h115l-44 -226q-25 -130 -107.5 -204.5t-211.5 -83.5l-35 -179h-115z" />
    <glyph glyph-name="uni03A9" unicode="&#x3a9;" horiz-adv-x="731" 
d="M-2 92h142q-79 91 -79 225q0 106 46.5 195t132 143t192.5 54q81 0 141.5 -33t94 -95.5t33.5 -148.5q0 -66 -20.5 -129t-59.5 -117t-95 -94h146l-18 -92h-289l17 88q92 50 145.5 139.5t53.5 194.5q0 90 -41.5 138.5t-118.5 48.5q-66 0 -120.5 -36t-87 -102.5t-32.5 -152.5
q0 -71 23.5 -132t66.5 -98l-17 -88h-274z" />
    <glyph glyph-name="Iotadieresis" unicode="&#x3aa;" horiz-adv-x="310" 
d="M45 0l135 693h118l-135 -693h-118zM155 775q-27 0 -42.5 14.5t-15.5 40.5q0 32 23 53.5t58 21.5q27 0 42.5 -14.5t15.5 -40.5q0 -32 -23 -53.5t-58 -21.5zM359 775q-27 0 -42.5 14.5t-15.5 40.5q0 32 23 53.5t58 21.5q27 0 42.5 -14.5t15.5 -40.5q0 -32 -23 -53.5
t-58 -21.5z" />
    <glyph glyph-name="Upsilondieresis" unicode="&#x3ab;" horiz-adv-x="558" 
d="M160 0l50 255l-142 438h123l92 -343l228 343h129l-315 -441l-49 -252h-116zM270 775q-27 0 -42.5 14.5t-15.5 40.5q0 32 23 53.5t58 21.5q27 0 42.5 -14.5t15.5 -40.5q0 -32 -23 -53.5t-58 -21.5zM474 775q-27 0 -42.5 14.5t-15.5 40.5q0 32 23 53.5t58 21.5
q27 0 42.5 -14.5t15.5 -40.5q0 -32 -23 -53.5t-58 -21.5z" />
    <glyph glyph-name="alphatonos" unicode="&#x3ac;" horiz-adv-x="609" 
d="M585 22q-53 -28 -99 -28q-103 0 -103 105q0 19 2 35q-82 -149 -207 -149q-71 0 -109 49t-38 140q0 88 34 167.5t94 131t132 51.5q110 0 137 -134q18 69 38 119h119l-30 -76q-35 -88 -54 -165.5t-19 -129.5q0 -35 11 -46q10 -10 30 -10q18 0 37 6zM214 76q49 0 98.5 52.5
t81.5 138.5q-7 166 -91 166q-39 0 -74.5 -33.5t-58.5 -92t-23 -125.5q0 -106 67 -106zM392 776h126l-134 -175h-80z" />
    <glyph glyph-name="epsilontonos" unicode="&#x3ad;" horiz-adv-x="453" 
d="M203 -15q-80 0 -128.5 37t-48.5 99q0 56 38 95.5t102 51.5q-78 32 -78 107q0 66 55.5 107.5t143.5 41.5q40 0 83.5 -9.5t76.5 -26.5l-15 -77q-29 12 -64.5 19t-66.5 7q-48 0 -76 -20t-28 -52q0 -28 21 -43.5t60 -15.5h89l-17 -85h-89q-57 0 -90.5 -22.5t-33.5 -60.5
q0 -32 24 -49t70 -17q71 0 148 44l30 -66q-37 -30 -93 -47.5t-113 -17.5zM346 776h126l-134 -175h-80z" />
    <glyph glyph-name="etatonos" unicode="&#x3ae;" horiz-adv-x="612" 
d="M433 267q14 74 14 107q0 59 -60 59q-33 0 -75.5 -27.5t-84.5 -75.5l-64 -330h-114l61 314q12 59 12 76q0 34 -36 34q-12 0 -29 -3l-22 69q45 25 97 25q47 0 73.5 -27t28.5 -76q44 54 94.5 83t101.5 29q64 0 98.5 -35t34.5 -99q0 -41 -16 -123l-92 -473h-114zM427 776h126
l-134 -175h-80z" />
    <glyph glyph-name="iotatonos" unicode="&#x3af;" horiz-adv-x="306" 
d="M162 -6q-110 0 -110 106q0 39 11 94l61 315h114l-61 -315q-11 -60 -11 -75q0 -37 41 -37q22 0 44 8l25 -66q-55 -30 -114 -30zM237 776h126l-134 -175h-80z" />
    <glyph glyph-name="upsilondieresistonos" unicode="&#x3b0;" horiz-adv-x="551" 
d="M247 -15q-80 0 -125 42t-45 117q0 28 7 66l20 104q12 59 12 76q0 34 -36 34q-12 0 -29 -3l-22 69q45 25 97 25q50 0 77.5 -27.5t27.5 -77.5q0 -30 -6 -60l-27 -140q-7 -37 -7 -67q0 -70 65 -70q70 0 110 71t40 196q0 81 -22 169h105q30 -75 30 -176q0 -102 -33 -180.5
t-94.5 -123t-144.5 -44.5zM200 592q-26 0 -40.5 13.5t-14.5 37.5q0 31 21.5 51t53.5 20q26 0 40.5 -13.5t14.5 -37.5q0 -31 -21.5 -51t-53.5 -20zM426 592q-26 0 -40.5 13.5t-14.5 37.5q0 31 21.5 51t53.5 20q26 0 40.5 -13.5t14.5 -37.5q0 -31 -21.5 -51t-53.5 -20z
M293 737l87 164h126l-133 -164h-80z" />
    <glyph glyph-name="alpha" unicode="&#x3b1;" horiz-adv-x="609" 
d="M585 22q-53 -28 -99 -28q-103 0 -103 105q0 19 2 35q-82 -149 -207 -149q-71 0 -109 49t-38 140q0 88 34 167.5t94 131t132 51.5q110 0 137 -134q18 69 38 119h119l-30 -76q-35 -88 -54 -165.5t-19 -129.5q0 -35 11 -46q10 -10 30 -10q18 0 37 6zM214 76q49 0 98.5 52.5
t81.5 138.5q-7 166 -91 166q-39 0 -74.5 -33.5t-58.5 -92t-23 -125.5q0 -106 67 -106z" />
    <glyph glyph-name="beta" unicode="&#x3b2;" horiz-adv-x="565" 
d="M123 502q24 121 87 186.5t157 65.5q79 0 126 -44t47 -119q0 -43 -16.5 -81.5t-47 -68t-72.5 -43.5q55 -16 85 -60t30 -108q0 -67 -32 -122.5t-89.5 -89t-130.5 -33.5q-70 0 -131 32l-44 -223h-108zM151 95q20 -10 48 -15.5t54 -5.5q71 0 111.5 40t40.5 109q0 60 -30.5 91
t-88.5 31h-23l16 84h20q36 0 67.5 19.5t50.5 55t19 77.5q0 41 -19.5 64.5t-54.5 23.5q-47 0 -81 -43t-50 -124z" />
    <glyph glyph-name="gamma" unicode="&#x3b3;" horiz-adv-x="496" 
d="M96 -206q21 133 21 221q0 61 -6 126t-19 142.5t-43 225.5h118q44 -246 47 -411q131 185 183 411h115q-18 -83 -59.5 -178t-100.5 -188t-125 -164q-1 -84 -18 -185h-113z" />
    <glyph glyph-name="delta" unicode="&#x3b4;" horiz-adv-x="540" 
d="M220 -15q-88 0 -138.5 51.5t-50.5 141.5q0 97 58 176.5t154 114.5q-36 28 -51 56t-15 64q0 73 57 119t149 46q44 0 88 -10.5t76 -29.5l-16 -80q-68 29 -143 29q-101 0 -101 -60q0 -15 6 -28t19.5 -26.5t44.5 -36.5q51 -39 75 -64.5t38 -52.5t21 -56.5t7 -62.5
q0 -78 -35 -144t-99 -106.5t-144 -40.5zM382 270q0 48 -16 82t-62 71q-75 -34 -116 -95.5t-41 -138.5q0 -113 87 -113q63 0 105.5 55.5t42.5 138.5z" />
    <glyph glyph-name="epsilon" unicode="&#x3b5;" horiz-adv-x="453" 
d="M203 -15q-80 0 -128.5 37t-48.5 99q0 56 38 95.5t102 51.5q-78 32 -78 107q0 66 55.5 107.5t143.5 41.5q40 0 83.5 -9.5t76.5 -26.5l-15 -77q-29 12 -64.5 19t-66.5 7q-48 0 -76 -20t-28 -52q0 -28 21 -43.5t60 -15.5h89l-17 -85h-89q-57 0 -90.5 -22.5t-33.5 -60.5
q0 -32 24 -49t70 -17q71 0 148 44l30 -66q-37 -30 -93 -47.5t-113 -17.5z" />
    <glyph glyph-name="zeta" unicode="&#x3b6;" horiz-adv-x="428" 
d="M198 -154q48 28 69.5 49.5t21.5 41.5q0 14 -14 25t-50 24l-48 17q-74 27 -110 73t-36 114q0 114 84.5 223.5t271.5 238.5h-247l17 88h366l-16 -82q-182 -132 -270 -242t-88 -206q0 -47 19.5 -72.5t73.5 -47.5l50 -20q58 -23 81.5 -47.5t23.5 -63.5q0 -52 -40 -96.5
t-118 -79.5z" />
    <glyph glyph-name="eta" unicode="&#x3b7;" horiz-adv-x="612" 
d="M433 267q14 74 14 107q0 59 -60 59q-33 0 -75.5 -27.5t-84.5 -75.5l-64 -330h-114l61 314q12 59 12 76q0 34 -36 34q-12 0 -29 -3l-22 69q45 25 97 25q47 0 73.5 -27t28.5 -76q44 54 94.5 83t101.5 29q64 0 98.5 -35t34.5 -99q0 -41 -16 -123l-92 -473h-114z" />
    <glyph glyph-name="theta" unicode="&#x3b8;" horiz-adv-x="578" 
d="M240 -15q-95 0 -141 63.5t-46 197.5q0 92 21.5 187t61.5 167.5t98.5 113t133.5 40.5q95 0 141 -63.5t46 -197.5q0 -92 -21.5 -187t-61.5 -167.5t-98.5 -113t-133.5 -40.5zM257 74q59 0 103 65.5t67 185.5h-259q-5 -48 -5 -78q0 -91 22 -132t72 -41zM351 665
q-59 0 -103 -65.5t-67 -185.5h259q5 48 5 78q0 91 -22 132t-72 41z" />
    <glyph glyph-name="iota" unicode="&#x3b9;" horiz-adv-x="306" 
d="M162 -6q-110 0 -110 106q0 39 11 94l61 315h114l-61 -315q-11 -60 -11 -75q0 -37 41 -37q22 0 44 8l25 -66q-55 -30 -114 -30z" />
    <glyph glyph-name="kappa" unicode="&#x3ba;" horiz-adv-x="542" 
d="M318 293q34 -73 81.5 -150t100.5 -143h-131q-70 97 -130 226l-69 -59l-32 -167h-113l99 509h113l-42 -216l232 216h145z" />
    <glyph glyph-name="lambda" unicode="&#x3bb;" horiz-adv-x="500" 
d="M330 0l-52 383q-56 -88 -105 -191t-77 -192h-114q39 120 116 261t158 238l-13 90q-6 42 -18 58t-37 16q-20 0 -46 -8l-22 69q50 30 101 30q57 0 87.5 -37t43.5 -122l94 -595h-116z" />
    <glyph glyph-name="uni03BC" unicode="&#x3bc;" horiz-adv-x="619" 
d="M576 20q-21 -12 -49 -19t-53 -7q-44 0 -69 24t-28 69q-31 -46 -75 -74t-85 -28q-53 0 -78 48l-47 -239h-107l139 715h114l-52 -267q-13 -62 -13 -102q0 -31 15 -47.5t43 -16.5q35 0 75 26t75 71l65 336h114l-54 -277q-19 -98 -19 -114q0 -36 36 -36q12 0 28 4z" />
    <glyph glyph-name="nu" unicode="&#x3bd;" horiz-adv-x="504" 
d="M49 509h118l46 -409q69 108 117.5 212t74.5 197h115q-24 -108 -102 -249t-179 -260h-106z" />
    <glyph glyph-name="xi" unicode="&#x3be;" horiz-adv-x="434" 
d="M200 -154q48 28 69.5 49.5t21.5 41.5q0 14 -14 25t-50 24l-48 17q-80 29 -114 70t-34 105q0 85 51 144t137 74q-48 18 -73.5 55t-25.5 89q0 60 31 108.5t89 77t132 28.5q73 0 143 -30l-15 -80q-71 19 -119 19q-66 0 -106.5 -35t-40.5 -93q0 -49 30.5 -76t86.5 -27h57
l-17 -88h-82q-74 0 -118 -39.5t-44 -105.5q0 -28 9 -46.5t28.5 -32.5t59.5 -30l50 -20q58 -23 81.5 -47.5t23.5 -63.5q0 -52 -40 -96.5t-118 -79.5z" />
    <glyph glyph-name="omicron" unicode="&#x3bf;" horiz-adv-x="543" 
d="M225 -15q-92 0 -143 56.5t-51 158.5q0 86 36 160t102 119t149 45q92 0 143 -56.5t51 -158.5q0 -86 -36 -160t-102 -119t-149 -45zM237 76q42 0 78 29.5t58.5 82.5t22.5 117q0 62 -23 95t-67 33q-42 0 -78 -29.5t-58.5 -82.5t-22.5 -117q0 -62 23 -95t67 -33z" />
    <glyph glyph-name="pi" unicode="&#x3c0;" horiz-adv-x="619" 
d="M460 -6q-54 0 -80.5 25.5t-26.5 80.5q0 39 11 94l44 227h-141q-32 -154 -58.5 -242.5t-62.5 -178.5h-116q47 114 76.5 211.5t49.5 209.5h-112l17 88h578l-17 -88h-103l-44 -227q-11 -60 -11 -75q0 -37 41 -37q22 0 44 8l25 -66q-55 -30 -114 -30z" />
    <glyph glyph-name="rho" unicode="&#x3c1;" horiz-adv-x="544" 
d="M64 269q24 123 92.5 189t171.5 66q89 0 137 -50t48 -143q0 -87 -39 -166t-107.5 -129.5t-151.5 -50.5q-43 0 -88 18l-40 -209h-114zM142 81q29 -7 60 -7q38 0 72.5 17t62 50t44 79t16.5 99q0 114 -84 114q-102 0 -135 -164z" />
    <glyph glyph-name="sigma1" unicode="&#x3c2;" horiz-adv-x="444" 
d="M189 -154q48 28 69.5 49.5t21.5 41.5q0 14 -14 25t-50 24l-48 17q-71 25 -104 70t-33 117q0 82 40 158t111 126t153 50q32 0 64 -7t57 -20l-16 -84q-51 18 -96 18q-53 0 -97 -29t-71 -81.5t-27 -116.5q0 -32 8 -52t26 -34.5t50 -27.5l50 -20q58 -23 81.5 -47.5
t23.5 -63.5q0 -52 -40 -96.5t-118 -79.5z" />
    <glyph glyph-name="sigma" unicode="&#x3c3;" horiz-adv-x="579" 
d="M226 -15q-92 0 -143.5 55.5t-51.5 155.5q0 85 36.5 156t103.5 114t151 43h268l-17 -88h-133q27 -35 41 -77.5t14 -86.5q0 -72 -34.5 -134t-96.5 -100t-138 -38zM386 283q0 39 -10 75.5t-27 62.5h-37q-44 0 -81.5 -28t-60.5 -78.5t-23 -113.5q0 -61 23 -93t67 -32
q40 0 74 26t54.5 74t20.5 107z" />
    <glyph glyph-name="tau" unicode="&#x3c4;" horiz-adv-x="473" 
d="M258 -6q-62 0 -91.5 26t-29.5 80q0 37 11 94l44 227h-152l17 88h438l-17 -88h-172l-44 -227q-11 -59 -11 -77q0 -34 45 -34q22 0 64 12l26 -68q-58 -33 -128 -33z" />
    <glyph glyph-name="upsilon" unicode="&#x3c5;" horiz-adv-x="551" 
d="M247 -15q-80 0 -125 42t-45 117q0 28 7 66l20 104q12 59 12 76q0 34 -36 34q-12 0 -29 -3l-22 69q45 25 97 25q50 0 77.5 -27.5t27.5 -77.5q0 -30 -6 -60l-27 -140q-7 -37 -7 -67q0 -70 65 -70q70 0 110 71t40 196q0 81 -22 169h105q30 -75 30 -176q0 -102 -33 -180.5
t-94.5 -123t-144.5 -44.5z" />
    <glyph glyph-name="phi" unicode="&#x3c6;" horiz-adv-x="746" 
d="M229 -206l37 191q-114 5 -174.5 60.5t-60.5 156.5q0 84 42.5 155t120.5 116.5t177 50.5l22 115h109l-22 -115q114 -5 174.5 -60.5t60.5 -156.5q0 -84 -42.5 -155t-120.5 -116.5t-177 -50.5l-37 -191h-109zM142 209q0 -128 140 -143l73 377q-57 -4 -105.5 -35.5t-78 -84
t-29.5 -114.5zM604 300q0 128 -140 143l-73 -377q57 4 105.5 35.5t78 84t29.5 114.5z" />
    <glyph glyph-name="chi" unicode="&#x3c7;" horiz-adv-x="480" 
d="M180 171l-47 199q-7 29 -20 41.5t-35 12.5q-13 0 -31 -3l-16 71q46 23 92 23q44 0 70 -25.5t38 -80.5l31 -142l161 242h117l-249 -353l46 -221q6 -29 19 -41.5t36 -12.5q13 0 31 3l16 -71q-46 -23 -92 -23q-86 0 -106 98l-33 171l-175 -265h-117z" />
    <glyph glyph-name="psi" unicode="&#x3c8;" horiz-adv-x="755" 
d="M104 314q12 58 12 76q0 34 -36 34q-12 0 -29 -3l-22 69q21 12 47 18.5t50 6.5q47 0 74 -26t27 -71q0 -28 -10 -79l-19 -94q-5 -27 -5 -49q0 -54 28 -85.5t82 -37.5l110 566h109l-110 -567q98 6 151 75t53 193q0 83 -22 169h99q30 -75 30 -173q0 -101 -39.5 -179.5
t-114.5 -124t-174 -47.5l-37 -191h-109l37 192q-94 9 -147.5 62t-53.5 136q0 25 6 61z" />
    <glyph glyph-name="omega" unicode="&#x3c9;" horiz-adv-x="725" 
d="M168 -9q-66 0 -101.5 43t-35.5 123q0 90 43.5 185.5t117.5 166.5h114q-77 -87 -118.5 -175.5t-41.5 -165.5q0 -89 56 -89q34 0 58.5 32.5t36.5 95.5l27 139h110l-27 -139q-6 -28 -6 -55q0 -34 16 -53.5t44 -19.5q49 0 79.5 59t30.5 154q0 54 -12.5 104t-41.5 113h110
q28 -44 43.5 -102t15.5 -118q0 -80 -28.5 -148t-79.5 -109t-115 -41q-53 0 -86 30t-43 87q-26 -56 -68.5 -86.5t-97.5 -30.5z" />
    <glyph glyph-name="iotadieresis" unicode="&#x3ca;" horiz-adv-x="306" 
d="M162 -6q-110 0 -110 106q0 39 11 94l61 315h114l-61 -315q-11 -60 -11 -75q0 -37 41 -37q22 0 44 8l25 -66q-55 -30 -114 -30zM88 592q-27 0 -42 14t-15 39q0 33 22 54t56 21q27 0 42 -14t15 -39q0 -33 -22 -54t-56 -21zM309 592q-27 0 -42 14t-15 39q0 33 22 54t56 21
q27 0 42 -14t15 -39q0 -33 -22 -54t-56 -21z" />
    <glyph glyph-name="upsilondieresis" unicode="&#x3cb;" horiz-adv-x="551" 
d="M247 -15q-80 0 -125 42t-45 117q0 28 7 66l20 104q12 59 12 76q0 34 -36 34q-12 0 -29 -3l-22 69q45 25 97 25q50 0 77.5 -27.5t27.5 -77.5q0 -30 -6 -60l-27 -140q-7 -37 -7 -67q0 -70 65 -70q70 0 110 71t40 196q0 81 -22 169h105q30 -75 30 -176q0 -102 -33 -180.5
t-94.5 -123t-144.5 -44.5zM203 592q-27 0 -42 14t-15 39q0 33 22 54t56 21q27 0 42 -14t15 -39q0 -33 -22 -54t-56 -21zM424 592q-27 0 -42 14t-15 39q0 33 22 54t56 21q27 0 42 -14t15 -39q0 -33 -22 -54t-56 -21z" />
    <glyph glyph-name="omicrontonos" unicode="&#x3cc;" horiz-adv-x="543" 
d="M225 -15q-92 0 -143 56.5t-51 158.5q0 86 36 160t102 119t149 45q92 0 143 -56.5t51 -158.5q0 -86 -36 -160t-102 -119t-149 -45zM237 76q42 0 78 29.5t58.5 82.5t22.5 117q0 62 -23 95t-67 33q-42 0 -78 -29.5t-58.5 -82.5t-22.5 -117q0 -62 23 -95t67 -33zM376 776h126
l-134 -175h-80z" />
    <glyph glyph-name="upsilontonos" unicode="&#x3cd;" horiz-adv-x="551" 
d="M247 -15q-80 0 -125 42t-45 117q0 28 7 66l20 104q12 59 12 76q0 34 -36 34q-12 0 -29 -3l-22 69q45 25 97 25q50 0 77.5 -27.5t27.5 -77.5q0 -30 -6 -60l-27 -140q-7 -37 -7 -67q0 -70 65 -70q70 0 110 71t40 196q0 81 -22 169h105q30 -75 30 -176q0 -102 -33 -180.5
t-94.5 -123t-144.5 -44.5zM352 776h126l-134 -175h-80z" />
    <glyph glyph-name="omegatonos" unicode="&#x3ce;" horiz-adv-x="725" 
d="M168 -9q-66 0 -101.5 43t-35.5 123q0 90 43.5 185.5t117.5 166.5h114q-77 -87 -118.5 -175.5t-41.5 -165.5q0 -89 56 -89q34 0 58.5 32.5t36.5 95.5l27 139h110l-27 -139q-6 -28 -6 -55q0 -34 16 -53.5t44 -19.5q49 0 79.5 59t30.5 154q0 54 -12.5 104t-41.5 113h110
q28 -44 43.5 -102t15.5 -118q0 -80 -28.5 -148t-79.5 -109t-115 -41q-53 0 -86 30t-43 87q-26 -56 -68.5 -86.5t-97.5 -30.5zM465 776h126l-134 -175h-80z" />
    <glyph glyph-name="uni03D7" unicode="&#x3d7;" horiz-adv-x="542" 
d="M496 36q-18 -129 -83.5 -191.5t-183.5 -62.5q-69 0 -123 23l16 75q48 -12 101 -12q71 0 108.5 31t53.5 103q-38 34 -70.5 83t-75.5 141l-69 -59l-32 -167h-113l99 509h113l-42 -216l232 216h145l-254 -216q75 -167 178 -257z" />
    <glyph glyph-name="uni0400" unicode="&#x400;" horiz-adv-x="561" 
d="M41 0l135 693h430l-19 -96h-312l-37 -193h259l-19 -96h-259l-41 -212h312l-19 -96h-430zM347 769l-104 125h129l77 -125h-102z" />
    <glyph glyph-name="uni0401" unicode="&#x401;" horiz-adv-x="561" 
d="M41 0l135 693h430l-19 -96h-312l-37 -193h259l-19 -96h-259l-41 -212h312l-19 -96h-430zM307 775q-27 0 -42.5 14.5t-15.5 40.5q0 32 23 53.5t58 21.5q27 0 42.5 -14.5t15.5 -40.5q0 -32 -23 -53.5t-58 -21.5zM511 775q-27 0 -42.5 14.5t-15.5 40.5q0 32 23 53.5t58 21.5
q27 0 42.5 -14.5t15.5 -40.5q0 -32 -23 -53.5t-58 -21.5z" />
    <glyph glyph-name="uni0402" unicode="&#x402;" horiz-adv-x="753" 
d="M265 595h-186l19 98h530l-19 -98h-226l-41 -207q45 18 93 27.5t90 9.5q91 0 139 -46.5t48 -133.5q0 -73 -33.5 -131.5t-95.5 -92t-143 -33.5q-45 0 -84 13l16 83q28 -5 59 -5q76 0 119.5 42.5t43.5 114.5q0 51 -25.5 73.5t-81.5 22.5q-35 0 -78.5 -8t-82.5 -21l-59 -303
h-118z" />
    <glyph glyph-name="uni0403" unicode="&#x403;" horiz-adv-x="525" 
d="M41 0l135 693h405l-19 -98h-287l-116 -595h-118zM436 769h-102l118 125h137z" />
    <glyph glyph-name="uni0404" unicode="&#x404;" horiz-adv-x="596" 
d="M545 55q-103 -72 -226 -72q-124 0 -193.5 75.5t-69.5 211.5q0 116 51 216t144 161.5t208 61.5q89 0 155 -36l-18 -93q-68 27 -133 27q-94 0 -166.5 -55.5t-102.5 -151.5h331l-19 -94h-329q-1 -7 -1 -13.5v-13.5q0 -95 41.5 -144.5t119.5 -49.5q40 0 86.5 14t93.5 41z" />
    <glyph glyph-name="uni0405" unicode="&#x405;" horiz-adv-x="547" 
d="M225 318q-69 32 -101 74t-32 100q0 60 32 109.5t92 78.5t136 29q49 0 95.5 -12.5t82.5 -34.5l-17 -89q-32 18 -75 28t-84 10q-67 0 -105.5 -27.5t-38.5 -75.5q0 -31 18 -51.5t63 -40.5l73 -33q68 -31 98 -71t30 -99q0 -67 -34 -119t-98.5 -81.5t-150.5 -29.5
q-58 0 -110 13.5t-90 38.5l19 88q96 -42 183 -42q74 0 118.5 30.5t44.5 82.5q0 31 -20.5 52.5t-72.5 45.5z" />
    <glyph glyph-name="uni0406" unicode="&#x406;" horiz-adv-x="310" 
d="M45 0l135 693h118l-135 -693h-118z" />
    <glyph glyph-name="uni0407" unicode="&#x407;" horiz-adv-x="310" 
d="M45 0l135 693h118l-135 -693h-118zM155 775q-27 0 -42.5 14.5t-15.5 40.5q0 32 23 53.5t58 21.5q27 0 42.5 -14.5t15.5 -40.5q0 -32 -23 -53.5t-58 -21.5zM359 775q-27 0 -42.5 14.5t-15.5 40.5q0 32 23 53.5t58 21.5q27 0 42.5 -14.5t15.5 -40.5q0 -32 -23 -53.5
t-58 -21.5z" />
    <glyph glyph-name="uni0408" unicode="&#x408;" horiz-adv-x="435" 
d="M315 693h118l-97 -496q-42 -214 -230 -214q-63 0 -135 32l17 89q69 -19 115 -19q50 0 77 28.5t40 95.5z" />
    <glyph glyph-name="uni0409" unicode="&#x409;" horiz-adv-x="939" 
d="M518 597h-138q-48 -186 -89.5 -302.5t-83.5 -182.5t-88 -94t-104 -28q-33 0 -51 7l18 93q9 -1 22 -1q70 0 135 127t135 402l19 75h362l-53 -272h81q99 0 154.5 -51t55.5 -141q0 -104 -71.5 -166.5t-190.5 -62.5h-229zM584 330l-46 -239h102q63 0 99.5 35.5t36.5 98.5
q0 105 -108 105h-84z" />
    <glyph glyph-name="uni040A" unicode="&#x40a;" horiz-adv-x="963" 
d="M426 0l60 305h-267l-60 -305h-118l135 693h118l-57 -292h267l57 292h118l-54 -277h80q101 0 156.5 -49t55.5 -138q0 -104 -71.5 -166.5t-190.5 -62.5h-229zM607 325l-45 -234h102q63 0 99.5 35.5t36.5 98.5q0 51 -27 75.5t-83 24.5h-83z" />
    <glyph glyph-name="uni040B" unicode="&#x40b;" horiz-adv-x="781" 
d="M149 0l116 595h-186l19 98h530l-19 -98h-226l-42 -213q104 43 199 43q83 0 128 -35t45 -100q0 -31 -7 -69l-43 -221h-118l43 222q6 28 6 49q0 32 -22 46.5t-71 14.5q-83 0 -176 -36l-58 -296h-118z" />
    <glyph glyph-name="uni040C" unicode="&#x40c;" horiz-adv-x="619" 
d="M41 0l135 693h118l-60 -311l323 311h147l-354 -330l227 -363h-135l-216 346l-67 -346h-118zM482 769h-102l118 125h137z" />
    <glyph glyph-name="uni040D" unicode="&#x40d;" horiz-adv-x="732" 
d="M474 0l100 512l-416 -512h-117l135 693h115l-100 -512l416 512h117l-135 -693h-115zM406 769l-104 125h129l77 -125h-102z" />
    <glyph glyph-name="uni040E" unicode="&#x40e;" horiz-adv-x="615" 
d="M218 693l100 -396l232 396h129l-336 -548q-38 -62 -72 -96.5t-70.5 -49t-83.5 -14.5q-35 0 -63 7l18 95q26 -2 39 -2q35 0 57 8.5t40 28t39 54.5l-156 517h127zM397 762q-65 0 -105 28.5t-40 75.5q0 30 17 60h73q-7 -30 -7 -44q0 -47 67 -47q78 0 95 65l6 26h79
q0 -47 -22.5 -84t-65 -58.5t-97.5 -21.5z" />
    <glyph glyph-name="uni040F" unicode="&#x40f;" horiz-adv-x="699" 
d="M245 0h-204l135 693h118l-116 -597h279l116 597h118l-135 -693h-204l-34 -176h-107z" />
    <glyph glyph-name="uni0410" unicode="&#x410;" horiz-adv-x="620" 
d="M449 0l-22 175h-256l-89 -175h-124l376 693h129l110 -693h-124zM215 262h203l-41 320z" />
    <glyph glyph-name="uni0411" unicode="&#x411;" horiz-adv-x="597" 
d="M41 0l135 693h419l-19 -96h-304l-36 -185h108q98 0 153 -50t55 -139q0 -67 -31 -117t-90.5 -78t-140.5 -28h-249zM218 321l-45 -230h126q65 0 100.5 34t35.5 95q0 101 -107 101h-110z" />
    <glyph glyph-name="uni0412" unicode="&#x412;" horiz-adv-x="617" 
d="M41 0l135 693h224q88 0 139 -44.5t51 -120.5q0 -60 -32 -105t-90 -66q48 -19 73.5 -56t25.5 -86q0 -63 -32.5 -111.5t-93.5 -76t-143 -27.5h-257zM214 311l-44 -222h139q66 0 103.5 34.5t37.5 96.5q0 43 -25.5 67t-71.5 24h-139zM271 604l-41 -208h122q55 0 89 34t34 90
q0 41 -25 62.5t-72 21.5h-107z" />
    <glyph glyph-name="uni0413" unicode="&#x413;" horiz-adv-x="525" 
d="M41 0l135 693h405l-19 -98h-287l-116 -595h-118z" />
    <glyph glyph-name="uni0414" unicode="&#x414;" horiz-adv-x="720" 
d="M-5 95h48q73 62 133 190.5t112 332.5l19 75h383l-116 -598h92l-53 -271h-107l34 176h-457l-34 -176h-107zM392 598q-57 -201 -113 -324t-116 -179h295l97 503h-163z" />
    <glyph glyph-name="uni0415" unicode="&#x415;" horiz-adv-x="561" 
d="M41 0l135 693h430l-19 -96h-312l-37 -193h259l-19 -96h-259l-41 -212h312l-19 -96h-430z" />
    <glyph glyph-name="uni0416" unicode="&#x416;" horiz-adv-x="826" 
d="M-56 0l331 375l-183 318h121l169 -311l60 311h112l-61 -311l283 311h133l-313 -335l199 -358h-126l-183 346l-67 -346h-112l67 346l-291 -346h-139z" />
    <glyph glyph-name="uni0417" unicode="&#x417;" horiz-adv-x="555" 
d="M207 -14q-111 0 -196 52l17 90q38 -20 85 -31.5t89 -11.5q75 0 121 36.5t46 96.5q0 91 -118 91h-88l18 92h91q64 0 102.5 31.5t38.5 84.5q0 45 -29.5 68t-86.5 23q-73 0 -159 -36l-27 83q39 24 93.5 38t107.5 14q98 0 157 -48t59 -128q0 -62 -36 -108t-100 -66
q97 -36 97 -145q0 -66 -34.5 -117t-98.5 -80t-149 -29z" />
    <glyph glyph-name="uni0418" unicode="&#x418;" horiz-adv-x="732" 
d="M474 0l100 512l-416 -512h-117l135 693h115l-100 -512l416 512h117l-135 -693h-115z" />
    <glyph glyph-name="uni0419" unicode="&#x419;" horiz-adv-x="732" 
d="M474 0l100 512l-416 -512h-117l135 693h115l-100 -512l416 512h117l-135 -693h-115zM462 762q-65 0 -105 28.5t-40 75.5q0 30 17 60h73q-7 -30 -7 -44q0 -47 67 -47q78 0 95 65l6 26h79q0 -47 -22.5 -84t-65 -58.5t-97.5 -21.5z" />
    <glyph glyph-name="uni041A" unicode="&#x41a;" horiz-adv-x="619" 
d="M41 0l135 693h118l-60 -311l323 311h147l-354 -330l227 -363h-135l-216 346l-67 -346h-118z" />
    <glyph glyph-name="uni041B" unicode="&#x41b;" horiz-adv-x="684" 
d="M539 597h-159q-48 -186 -89.5 -302.5t-83.5 -182.5t-88 -94t-104 -28q-33 0 -51 7l18 93q9 -1 22 -1q70 0 135 127t135 402l19 75h383l-135 -693h-118z" />
    <glyph glyph-name="uni041C" unicode="&#x41c;" horiz-adv-x="848" 
d="M597 0l103 526l-242 -352h-100l-106 358l-103 -532h-108l135 693h130l122 -413l282 413h130l-135 -693h-108z" />
    <glyph glyph-name="uni041D" unicode="&#x41d;" horiz-adv-x="729" 
d="M468 0l60 305h-309l-60 -305h-118l135 693h118l-57 -292h309l57 292h118l-135 -693h-118z" />
    <glyph glyph-name="uni041E" unicode="&#x41e;" horiz-adv-x="749" 
d="M331 -17q-128 0 -201.5 75.5t-73.5 205.5q0 124 47.5 224.5t135.5 160.5t202 60q128 0 201.5 -75.5t73.5 -205.5q0 -124 -47.5 -224.5t-135.5 -160.5t-202 -60zM342 83q71 0 128.5 41.5t91.5 118t34 175.5q0 90 -44 140.5t-122 50.5q-71 0 -128.5 -41.5t-91.5 -118
t-34 -175.5q0 -90 44 -140.5t122 -50.5z" />
    <glyph glyph-name="uni041F" unicode="&#x41f;" horiz-adv-x="710" 
d="M449 0l116 597h-290l-116 -597h-118l135 693h526l-135 -693h-118z" />
    <glyph glyph-name="uni0420" unicode="&#x420;" horiz-adv-x="601" 
d="M41 0l135 693h210q103 0 160 -49.5t57 -138.5q0 -71 -35.5 -126t-102 -86.5t-155.5 -31.5h-103l-51 -261h-115zM225 353h87q81 0 127.5 39t46.5 107q0 52 -30.5 77t-94.5 25h-88z" />
    <glyph glyph-name="uni0421" unicode="&#x421;" horiz-adv-x="596" 
d="M545 55q-103 -72 -226 -72q-124 0 -193.5 75.5t-69.5 211.5q0 116 51 216t144 161.5t208 61.5q89 0 155 -36l-18 -93q-68 27 -133 27q-79 0 -143.5 -40t-102.5 -114.5t-38 -171.5q0 -96 40.5 -146t117.5 -50q40 0 86.5 14t93.5 41z" />
    <glyph glyph-name="uni0422" unicode="&#x422;" horiz-adv-x="572" 
d="M173 0l116 595h-210l19 98h538l-19 -98h-210l-116 -595h-118z" />
    <glyph glyph-name="uni0423" unicode="&#x423;" horiz-adv-x="615" 
d="M218 693l100 -396l232 396h129l-336 -548q-38 -62 -72 -96.5t-70.5 -49t-83.5 -14.5q-35 0 -63 7l18 95q26 -2 39 -2q35 0 57 8.5t40 28t39 54.5l-156 517h127z" />
    <glyph glyph-name="uni0424" unicode="&#x424;" horiz-adv-x="811" 
d="M314 57q-128 13 -195 76.5t-67 171.5q0 90 45.5 163t131 118t198.5 51l17 86h100l-17 -86q128 -13 195 -76.5t67 -171.5q0 -90 -45.5 -163t-131 -118t-198.5 -51l-17 -87h-100zM165 313q0 -77 40 -119.5t125 -52.5l80 411q-114 -9 -179.5 -73t-65.5 -166zM676 381
q0 77 -40 119.5t-125 52.5l-80 -411q114 9 179.5 73t65.5 166z" />
    <glyph glyph-name="uni0425" unicode="&#x425;" horiz-adv-x="578" 
d="M408 0l-112 271l-210 -271h-137l300 370l-141 323h126l99 -245l190 245h137l-279 -343l153 -350h-126z" />
    <glyph glyph-name="uni0426" unicode="&#x426;" horiz-adv-x="707" 
d="M493 -176l34 176h-486l135 693h118l-116 -597h265l116 597h118l-116 -597h92l-53 -272h-107z" />
    <glyph glyph-name="uni0427" unicode="&#x427;" horiz-adv-x="657" 
d="M396 0l57 292q-38 -18 -90 -29t-102 -11q-85 0 -131 34.5t-46 97.5q0 36 17 123l36 186h118l-36 -184q-10 -53 -12.5 -69.5t-2.5 -28.5q0 -37 20 -52t69 -15q89 0 177 36l61 313h118l-135 -693h-118z" />
    <glyph glyph-name="uni0428" unicode="&#x428;" horiz-adv-x="983" 
d="M176 693h115l-116 -597h227l116 597h115l-116 -597h227l116 597h115l-135 -693h-799z" />
    <glyph glyph-name="uni0429" unicode="&#x429;" horiz-adv-x="985" 
d="M771 -176l34 176h-764l135 693h115l-116 -597h217l116 597h115l-116 -597h217l116 597h115l-116 -597h92l-53 -272h-107z" />
    <glyph glyph-name="uni042A" unicode="&#x42a;" horiz-adv-x="688" 
d="M257 597h-188l19 96h306l-53 -272h91q99 0 154.5 -51t55.5 -141q0 -104 -71.5 -166.5t-190.5 -62.5h-239zM323 330l-46 -239h112q63 0 99.5 35.5t36.5 98.5q0 105 -108 105h-94z" />
    <glyph glyph-name="uni042B" unicode="&#x42b;" horiz-adv-x="829" 
d="M41 0l135 693h118l-53 -272h81q99 0 154.5 -51t55.5 -141q0 -104 -71.5 -166.5t-190.5 -62.5h-229zM568 0l135 693h118l-135 -693h-118zM223 330l-46 -239h102q63 0 99.5 35.5t36.5 98.5q0 105 -108 105h-84z" />
    <glyph glyph-name="uni042C" unicode="&#x42c;" horiz-adv-x="611" 
d="M41 0l135 693h118l-53 -272h114q99 0 154.5 -51t55.5 -141q0 -104 -71.5 -166.5t-190.5 -62.5h-262zM223 330l-46 -239h135q63 0 99.5 35.5t36.5 98.5q0 105 -108 105h-117z" />
    <glyph glyph-name="uni042D" unicode="&#x42d;" horiz-adv-x="624" 
d="M188 -17q-90 0 -155 37l18 92q68 -27 133 -27q104 0 178.5 59t98.5 162h-297l19 94h288q0 102 -40.5 154.5t-120.5 52.5q-40 0 -86.5 -14t-93.5 -41l-28 85q103 72 226 72q125 0 194 -76.5t69 -214.5q0 -122 -50 -220.5t-142 -156.5t-211 -58z" />
    <glyph glyph-name="uni042E" unicode="&#x42e;" horiz-adv-x="980" 
d="M41 0l135 693h117l-57 -292h129q21 92 68.5 161.5t115.5 108t149 38.5q74 0 130.5 -33.5t87.5 -97t31 -151.5q0 -91 -24 -170.5t-69.5 -141t-111 -97t-143.5 -35.5q-74 0 -130.5 33.5t-87.5 97t-31 151.5v20t1 20h-133l-60 -305h-117zM606 83q62 0 112 42t80 119t30 176
q0 90 -36 139.5t-101 49.5q-62 0 -112 -42t-80 -119t-30 -176q0 -91 36 -140t101 -49z" />
    <glyph glyph-name="uni042F" unicode="&#x42f;" horiz-adv-x="613" 
d="M207 301q-50 22 -75.5 63.5t-25.5 101.5q0 66 31 117.5t89.5 80.5t138.5 29h240l-135 -693h-115l54 277h-101l-207 -277h-139zM231 469q0 -100 105 -100h91l45 232h-102q-65 0 -102 -35.5t-37 -96.5z" />
    <glyph glyph-name="uni0430" unicode="&#x430;" horiz-adv-x="562" 
d="M342 0l3 89q-86 -104 -182 -104q-63 0 -97.5 45t-34.5 127q0 93 41 176.5t114 137t159 53.5q40 0 92 -11t93 -29l-94 -484h-94zM208 76q31 0 69 26t80 75l48 251q-28 7 -62 7q-49 0 -93.5 -34.5t-73.5 -96.5t-29 -134q0 -94 61 -94z" />
    <glyph glyph-name="uni0431" unicode="&#x431;" horiz-adv-x="551" 
d="M232 -15q-98 0 -143.5 60t-45.5 187q0 121 37 223t103 163q37 34 86.5 55t126.5 36l187 37l-25 -100l-174 -32q-58 -11 -85.5 -21t-44.5 -27q-22 -21 -43 -62.5t-33 -86.5q36 25 81 39.5t89 14.5q82 0 127.5 -51t45.5 -142q0 -81 -36 -147.5t-102 -106t-151 -39.5z
M309 387q-30 0 -71 -11.5t-74 -29.5q-9 -52 -9 -110q0 -82 23.5 -121t74.5 -39q42 0 77 24.5t56 69t21 99.5q0 58 -25 88t-73 30z" />
    <glyph glyph-name="uni0432" unicode="&#x432;" horiz-adv-x="520" 
d="M482 410q0 -94 -115 -142q86 -27 86 -113q0 -76 -63 -124t-164 -48q-195 0 -195 200q0 93 38.5 171t108.5 125t157 47q69 0 108 -30.5t39 -85.5zM133 208v-27q0 -115 106 -115q52 0 83 25t31 68q0 35 -20.5 55t-57.5 22zM317 445q-63 0 -111 -46t-65 -124l98 21
q144 31 144 99q0 50 -66 50z" />
    <glyph glyph-name="uni0433" unicode="&#x433;" horiz-adv-x="454" 
d="M185 -15q-78 0 -122 35.5t-44 97.5q0 114 157 169l59 21q50 18 69.5 34.5t19.5 40.5q0 53 -80 53q-61 0 -131 -31l-30 67q39 25 88 38.5t98 13.5q76 0 119.5 -34.5t43.5 -95.5q0 -110 -154 -166l-67 -24q-43 -15 -62.5 -33t-19.5 -44q0 -54 79 -54q62 0 145 35l30 -67
q-41 -26 -94 -41t-104 -15z" />
    <glyph glyph-name="uni0434" unicode="&#x434;" horiz-adv-x="567" 
d="M232 -15q-92 0 -146.5 55.5t-54.5 151.5q0 76 34 142t95.5 108t135.5 42q53 0 91 -23.5t56 -64.5q2 17 2 58q0 94 -36 140.5t-119 59.5l-33 5l10 91q148 -2 215 -75t67 -233q0 -129 -38.5 -233t-110.5 -164t-168 -60zM241 75q43 0 82 27.5t64 76.5t25 104q0 54 -26 82.5
t-74 28.5q-45 0 -83 -25.5t-60.5 -71.5t-22.5 -103q0 -58 25 -88.5t70 -30.5z" />
    <glyph glyph-name="uni0435" unicode="&#x435;" horiz-adv-x="488" 
d="M422 48q-44 -30 -100 -47.5t-112 -17.5q-89 0 -134 47.5t-45 140.5q0 91 39.5 171.5t110.5 132t156 51.5q65 0 102 -32t37 -88q0 -78 -72.5 -136t-203.5 -84l-60 -12q0 -55 22 -79.5t72 -24.5q72 0 158 46zM314 440q-37 0 -72 -23.5t-61.5 -67t-36.5 -98.5l60 14
q77 18 122 52.5t45 74.5q0 23 -14.5 35.5t-42.5 12.5z" />
    <glyph glyph-name="uni0436" unicode="&#x436;" horiz-adv-x="934" 
d="M406 217h-94q-30 -105 -95 -168.5t-148 -63.5q-54 0 -88 23l15 78q35 -15 66 -15q46 0 83 31.5t59.5 91t22.5 127.5q0 117 -77 117q-38 0 -81 -28l-28 62q28 24 65.5 38t74.5 14q69 0 108.5 -49t39.5 -135q0 -15 -2 -37h96l40 206h100l-40 -206h95q32 101 95.5 161
t144.5 60q54 0 88 -23l-15 -78q-34 15 -66 15q-46 0 -83 -31.5t-59.5 -91t-22.5 -127.5q0 -117 77 -117q38 0 81 28l28 -62q-28 -24 -65.5 -38t-74.5 -14q-69 0 -108.5 49t-39.5 135q0 18 2 48h-94l-42 -217h-100z" />
    <glyph glyph-name="uni0437" unicode="&#x437;" horiz-adv-x="441" 
d="M151 -15q-91 0 -160 30l16 81q86 -24 141 -24q60 0 95 23.5t35 63.5q0 31 -25.5 45t-85.5 14h-72l15 77h70q55 0 85 21.5t30 59.5q0 61 -82 61q-53 0 -122 -33l-30 69q33 23 82 37t96 14q75 0 119.5 -36t44.5 -96q0 -45 -26 -80t-71 -50q79 -32 79 -112q0 -74 -64 -119.5
t-170 -45.5z" />
    <glyph glyph-name="uni0438" unicode="&#x438;" horiz-adv-x="581" 
d="M361 0l3 89q-39 -49 -88 -76.5t-99 -27.5q-62 0 -94.5 34.5t-32.5 99.5q0 41 16 123l52 267h114l-52 -267q-14 -74 -14 -107q0 -30 13 -44.5t42 -14.5q31 0 72.5 27t82.5 74l64 332h114l-99 -509h-94z" />
    <glyph glyph-name="uni0439" unicode="&#x439;" horiz-adv-x="581" 
d="M361 0l3 89q-39 -49 -88 -76.5t-99 -27.5q-62 0 -94.5 34.5t-32.5 99.5q0 41 16 123l52 267h114l-52 -267q-14 -74 -14 -107q0 -30 13 -44.5t42 -14.5q31 0 72.5 27t82.5 74l64 332h114l-99 -509h-94zM353 595q-66 0 -105 30t-39 81q0 35 17 66h71q-6 -24 -6 -48
q0 -29 16.5 -43t51.5 -14q39 0 62.5 18.5t33.5 57.5l7 29h77q0 -80 -51 -128.5t-135 -48.5z" />
    <glyph glyph-name="uni043A" unicode="&#x43a;" horiz-adv-x="522" 
d="M29 0l99 509h114l-45 -230l227 230h136l-262 -256l190 -253h-133l-168 227l-44 -227h-114z" />
    <glyph glyph-name="uni043B" unicode="&#x43b;" horiz-adv-x="599" 
d="M44 -15q-35 0 -67 15l16 77q15 -3 22 -3q28 0 49 20t37 62l60 153q34 86 67 131.5t73 64.5t96 19q36 0 84 -7t89 -19l-97 -498h-113l85 434q-25 4 -47 4q-35 0 -56.5 -13t-39.5 -43.5t-40 -86.5l-57 -145q-37 -93 -72 -129t-89 -36z" />
    <glyph glyph-name="uni043C" unicode="&#x43c;" horiz-adv-x="682" 
d="M458 0l68 349l-169 -245h-88l-73 252l-69 -356h-98l99 509h119l83 -302l206 302h119l-99 -509h-98z" />
    <glyph glyph-name="uni043D" unicode="&#x43d;" horiz-adv-x="595" 
d="M355 0l42 215h-212l-42 -215h-114l99 509h114l-40 -206h212l40 206h114l-99 -509h-114z" />
    <glyph glyph-name="uni043E" unicode="&#x43e;" horiz-adv-x="547" 
d="M226 -15q-92 0 -143.5 56.5t-51.5 157.5q0 87 36.5 160.5t103.5 119t150 45.5q92 0 143.5 -56.5t51.5 -157.5q0 -87 -36.5 -160.5t-103.5 -119t-150 -45.5zM238 76q43 0 80 29t59.5 82t22.5 119q0 62 -23 94.5t-68 32.5q-43 0 -80 -29t-59.5 -82t-22.5 -119
q0 -62 23 -94.5t68 -32.5z" />
    <glyph glyph-name="uni043F" unicode="&#x43f;" horiz-adv-x="596" 
d="M361 0l52 267q14 74 14 107q0 59 -60 59q-33 0 -75.5 -27.5t-84.5 -75.5l-64 -330h-114l99 509h94l-3 -91q43 51 92.5 78.5t98.5 27.5q64 0 98.5 -35t34.5 -99q0 -41 -16 -123l-52 -267h-114z" />
    <glyph glyph-name="uni0440" unicode="&#x440;" horiz-adv-x="561" 
d="M-11 -206l139 715h94l-3 -89q86 104 180 104q64 0 97.5 -46t33.5 -134q0 -95 -38 -176.5t-107 -132t-153 -50.5q-43 0 -88 18l-41 -209h-114zM354 433q-30 0 -68.5 -26.5t-78.5 -74.5l-48 -251q29 -7 60 -7q54 0 98 31.5t70.5 89t26.5 131.5q0 107 -60 107z" />
    <glyph glyph-name="uni0441" unicode="&#x441;" horiz-adv-x="450" 
d="M407 50q-39 -31 -89.5 -48t-102.5 -17q-88 0 -136 51t-48 144q0 87 40 165.5t110.5 128.5t153.5 50q32 0 64 -7t57 -20l-16 -84q-51 18 -96 18q-54 0 -98 -29.5t-70.5 -84.5t-26.5 -126q0 -59 21.5 -86t69.5 -27q29 0 61 10t75 33z" />
    <glyph glyph-name="uni0442" unicode="&#x442;" horiz-adv-x="902" 
d="M667 0l52 267q15 78 15 103q0 32 -13 47.5t-41 15.5q-69 0 -153 -89q-5 -36 -13 -77l-52 -267h-114l52 267q14 76 14 105q0 61 -51 61q-71 0 -156 -103l-64 -330h-114l99 509h94l-3 -91q85 106 185 106q51 0 84 -28t40 -78q88 106 195 106q61 0 93.5 -35.5t32.5 -102.5
q0 -35 -16 -119l-52 -267h-114z" />
    <glyph glyph-name="uni0443" unicode="&#x443;" horiz-adv-x="489" 
d="M-66 -141q76 30 120.5 60.5t88.5 84.5l-101 505h118l62 -403q107 195 184 403h115q-58 -147 -141 -301t-154 -246q-115 -151 -242 -181z" />
    <glyph glyph-name="uni0444" unicode="&#x444;" horiz-adv-x="767" 
d="M291 34q-26 -23 -60 -36t-69 -13q-131 0 -131 179q0 67 18.5 130.5t53.5 115t83.5 83t103.5 31.5q48 0 91 -23l47 239h100l-52 -265q55 49 130 49q64 0 97 -45t33 -134q0 -67 -18.5 -130.5t-53.5 -115t-83.5 -83t-103.5 -31.5q-48 0 -91 23l-42 -214h-100zM558 434
q-22 0 -48 -10t-49 -27l-61 -316q34 -8 64 -8q43 0 80 32.5t59.5 91t22.5 130.5q0 55 -16.5 81t-51.5 26zM209 75q22 0 48 10t49 27l61 316q-35 8 -64 8q-43 0 -80 -32.5t-59.5 -91t-22.5 -130.5q0 -55 16.5 -81t51.5 -26z" />
    <glyph glyph-name="uni0445" unicode="&#x445;" horiz-adv-x="482" 
d="M309 0l-80 180l-142 -180h-128l228 263l-121 246h120l73 -170l132 170h128l-215 -250l125 -259h-120z" />
    <glyph glyph-name="uni0446" unicode="&#x446;" horiz-adv-x="592" 
d="M407 -164l32 163q-36 2 -54.5 25.5t-18.5 66.5q-41 -51 -90 -78.5t-99 -27.5q-62 0 -94.5 34.5t-32.5 99.5q0 41 16 123l52 267h114l-52 -267q-14 -74 -14 -107q0 -30 13 -44.5t42 -14.5q31 0 72.5 27t82.5 74l64 332h114l-56 -286q-16 -84 -16 -107q0 -17 9 -24.5
t30 -7.5q16 0 38 4l-49 -252h-103z" />
    <glyph glyph-name="uni0447" unicode="&#x447;" horiz-adv-x="543" 
d="M303 0l42 214q-72 -33 -150 -33q-63 0 -98.5 30.5t-35.5 84.5q0 44 13 106l21 107h114l-21 -107q-10 -51 -10 -80t15 -42t50 -13q50 0 117 24l42 218h114l-99 -509h-114z" />
    <glyph glyph-name="uni0448" unicode="&#x448;" horiz-adv-x="859" 
d="M639 0l3 83q-36 -46 -81.5 -72t-88.5 -26q-54 0 -85 28.5t-36 82.5q-36 -51 -84.5 -81t-94.5 -30q-59 0 -90.5 34.5t-31.5 99.5q0 41 16 123l52 267h114l-52 -267q-14 -72 -14 -107q0 -31 11.5 -45t37.5 -14q28 0 64.5 25.5t74.5 70.5q4 30 12 70l52 267h114l-52 -267
q-14 -72 -14 -107q0 -31 11.5 -45t37.5 -14q27 0 64 25.5t74 70.5l65 337h114l-99 -509h-94z" />
    <glyph glyph-name="uni0449" unicode="&#x449;" horiz-adv-x="870" 
d="M685 -164l32 163q-34 2 -52.5 24t-20.5 62q-36 -47 -82 -73.5t-90 -26.5q-54 0 -85 28.5t-36 82.5q-36 -51 -84.5 -81t-94.5 -30q-59 0 -90.5 34.5t-31.5 99.5q0 41 16 123l52 267h114l-52 -267q-14 -72 -14 -107q0 -31 11.5 -45t37.5 -14q28 0 64.5 25.5t74.5 70.5
q4 30 12 70l52 267h114l-52 -267q-14 -72 -14 -107q0 -31 11.5 -45t37.5 -14q27 0 64 25.5t74 70.5l65 337h114l-56 -286q-16 -84 -16 -107q0 -17 9 -24.5t30 -7.5q16 0 38 4l-49 -252h-103z" />
    <glyph glyph-name="uni044A" unicode="&#x44a;" horiz-adv-x="554" 
d="M276 -15q-80 0 -122 37.5t-42 109.5q0 31 7 64l51 225h-151l17 88h265l-44 -194q60 33 120 33q67 0 106.5 -39t39.5 -105q0 -59 -31 -109t-88 -80t-128 -30zM332 261q-44 0 -92 -19l-10 -46q-8 -40 -8 -59q0 -30 18.5 -47.5t48.5 -17.5q51 0 86.5 34t35.5 84q0 71 -79 71
z" />
    <glyph glyph-name="uni044B" unicode="&#x44b;" horiz-adv-x="716" 
d="M199 -15q-76 0 -118 37.5t-42 106.5q0 31 7 66l61 314h110l-38 -196q58 35 122 35t101.5 -39t37.5 -106q0 -60 -30.5 -109.5t-85.5 -79t-125 -29.5zM476 0l99 509h114l-99 -509h-114zM257 261q-40 0 -92 -21l-9 -45q-7 -37 -7 -59q0 -31 17.5 -47.5t48.5 -16.5
q47 0 80 34.5t33 84.5q0 70 -71 70z" />
    <glyph glyph-name="uni044C" unicode="&#x44c;" horiz-adv-x="488" 
d="M205 -15q-81 0 -123.5 37t-42.5 107q0 30 7 66l61 314h110l-38 -196q58 35 125 35q72 0 112.5 -38.5t40.5 -106.5q0 -60 -31.5 -109.5t-89 -79t-131.5 -29.5zM259 261q-44 0 -94 -21l-9 -45q-7 -37 -7 -61q0 -28 19.5 -45t50.5 -17q53 0 89.5 34t36.5 83q0 72 -86 72z
" />
    <glyph glyph-name="uni044D" unicode="&#x44d;" horiz-adv-x="482" 
d="M100 296h237v20q0 56 -30.5 86.5t-85.5 30.5q-50 0 -124 -34l-31 69q80 56 181 56q97 0 150.5 -55.5t53.5 -155.5q0 -87 -40.5 -161.5t-114.5 -120.5t-165 -46q-69 0 -126 27l16 82q53 -18 99 -18q78 0 131 37.5t73 105.5h-239z" />
    <glyph glyph-name="uni044E" unicode="&#x44e;" horiz-adv-x="796" 
d="M491 -15q-86 0 -137.5 55.5t-51.5 147.5q0 17 1 27h-121l-42 -215h-111l99 509h111l-40 -206h118q28 101 97 161t159 60q87 0 139.5 -55t52.5 -148t-34 -169.5t-97 -121.5t-143 -45zM499 74q43 0 77.5 31t55 87.5t20.5 129.5q0 53 -23 83t-64 30q-43 0 -77.5 -31
t-55 -87.5t-20.5 -129.5q0 -53 23 -83t64 -30z" />
    <glyph glyph-name="uni044F" unicode="&#x44f;" horiz-adv-x="526" 
d="M154 218q-40 16 -62 49.5t-22 77.5q0 81 61 130t162 49q93 0 204 -27l-97 -497h-108l39 202h-79l-151 -202h-127zM180 345q0 -37 26 -54.5t82 -17.5h57l31 161q-43 5 -74 5q-62 0 -92 -23t-30 -71z" />
    <glyph glyph-name="uni0450" unicode="&#x450;" horiz-adv-x="488" 
d="M422 48q-44 -30 -100 -47.5t-112 -17.5q-89 0 -134 47.5t-45 140.5q0 91 39.5 171.5t110.5 132t156 51.5q65 0 102 -32t37 -88q0 -78 -72.5 -136t-203.5 -84l-60 -12q0 -55 22 -79.5t72 -24.5q72 0 158 46zM314 440q-37 0 -72 -23.5t-61.5 -67t-36.5 -98.5l60 14
q77 18 122 52.5t45 74.5q0 23 -14.5 35.5t-42.5 12.5zM279 601l-95 163h128l63 -163h-96z" />
    <glyph glyph-name="uni0451" unicode="&#x451;" horiz-adv-x="488" 
d="M422 48q-44 -30 -100 -47.5t-112 -17.5q-89 0 -134 47.5t-45 140.5q0 91 39.5 171.5t110.5 132t156 51.5q65 0 102 -32t37 -88q0 -78 -72.5 -136t-203.5 -84l-60 -12q0 -55 22 -79.5t72 -24.5q72 0 158 46zM314 440q-37 0 -72 -23.5t-61.5 -67t-36.5 -98.5l60 14
q77 18 122 52.5t45 74.5q0 23 -14.5 35.5t-42.5 12.5zM236 592q-27 0 -42 14t-15 39q0 33 22 54t56 21q27 0 42 -14t15 -39q0 -33 -22 -54t-56 -21zM457 592q-27 0 -42 14t-15 39q0 33 22 54t56 21q27 0 42 -14t15 -39q0 -33 -22 -54t-56 -21z" />
    <glyph glyph-name="uni0452" unicode="&#x452;" horiz-adv-x="590" 
d="M65 634h87l21 106h114l-21 -106h165l-15 -76h-164l-39 -200q42 47 89.5 72.5t94.5 25.5q65 0 95.5 -46.5t30.5 -144.5q0 -121 -38.5 -231t-107.5 -181t-150 -71q-40 0 -74 17l15 75q26 -5 44 -5q48 0 92.5 51.5t73.5 142t29 194.5q0 59 -12 83.5t-41 24.5
q-33 0 -75.5 -27.5t-84.5 -75.5l-51 -262h-114l109 558h-88z" />
    <glyph glyph-name="uni0453" unicode="&#x453;" horiz-adv-x="454" 
d="M185 -15q-78 0 -122 35.5t-44 97.5q0 114 157 169l59 21q50 18 69.5 34.5t19.5 40.5q0 53 -80 53q-61 0 -131 -31l-30 67q39 25 88 38.5t98 13.5q76 0 119.5 -34.5t43.5 -95.5q0 -110 -154 -166l-67 -24q-43 -15 -62.5 -33t-19.5 -44q0 -54 79 -54q62 0 145 35l30 -67
q-41 -26 -94 -41t-104 -15zM214 601l120 163h136l-160 -163h-96z" />
    <glyph glyph-name="uni0454" unicode="&#x454;" horiz-adv-x="465" 
d="M386 219h-240q-1 -8 -1 -27q0 -57 28.5 -86.5t83.5 -29.5q63 0 134 40l31 -69q-41 -29 -92.5 -45.5t-102.5 -16.5q-94 0 -145 53t-51 149q0 88 41 164.5t114.5 124.5t162.5 48q71 0 122 -27l-16 -82q-58 18 -99 18q-67 0 -119 -37t-75 -100h239z" />
    <glyph glyph-name="uni0455" unicode="&#x455;" horiz-adv-x="437" 
d="M158 237q-46 25 -66.5 55.5t-20.5 71.5q0 72 55 116t145 44q39 0 78 -8.5t67 -23.5l-16 -83q-25 12 -60 19.5t-68 7.5q-46 0 -69.5 -16t-23.5 -47q0 -19 11.5 -31.5t47.5 -32.5l53 -30q51 -29 71 -57t20 -70q0 -77 -55.5 -122t-151.5 -45q-45 0 -91.5 10.5t-80.5 27.5
l16 83q35 -15 79 -24t78 -9q47 0 71.5 16.5t24.5 48.5q0 20 -12.5 34.5t-44.5 32.5z" />
    <glyph glyph-name="uni0456" unicode="&#x456;" horiz-adv-x="276" 
d="M209 593q-30 0 -46.5 14.5t-16.5 42.5q0 33 23.5 56t57.5 23q30 0 46.5 -14.5t16.5 -42.5q0 -33 -23.5 -56t-57.5 -23zM33 0l99 509h114l-99 -509h-114z" />
    <glyph glyph-name="uni0457" unicode="&#x457;" horiz-adv-x="276" 
d="M33 0l99 509h114l-99 -509h-114zM96 592q-27 0 -42 14t-15 39q0 33 22 54t56 21q27 0 42 -14t15 -39q0 -33 -22 -54t-56 -21zM317 592q-27 0 -42 14t-15 39q0 33 22 54t56 21q27 0 42 -14t15 -39q0 -33 -22 -54t-56 -21z" />
    <glyph glyph-name="uni0458" unicode="&#x458;" horiz-adv-x="276" 
d="M-105 -121q27 -8 56 -8q30 0 47.5 19.5t25.5 61.5l108 557h114l-108 -557q-33 -170 -159 -170q-55 0 -99 22zM209 593q-30 0 -46.5 14.5t-16.5 42.5q0 33 23.5 56t57.5 23q30 0 46.5 -14.5t16.5 -42.5q0 -33 -23.5 -56t-57.5 -23z" />
    <glyph glyph-name="uni0459" unicode="&#x459;" horiz-adv-x="804" 
d="M426 437q-14 1 -30 1q-34 0 -55 -13.5t-39 -43.5t-40 -86l-57 -145q-37 -93 -72 -129t-89 -36q-35 0 -67 15l16 77q15 -3 22 -3q28 0 49 20t37 62l60 153q34 85 67 131t73 65t97 19q64 0 151 -21l-37 -190q58 35 122 35t101.5 -39t37.5 -106q0 -60 -30.5 -109.5
t-85.5 -79t-125 -29.5q-76 0 -118 37.5t-42 106.5q0 31 7 66zM590 261q-40 0 -92 -21l-9 -45q-7 -37 -7 -59q0 -31 17.5 -47.5t48.5 -16.5q47 0 80 34.5t33 84.5q0 70 -71 70z" />
    <glyph glyph-name="uni045A" unicode="&#x45a;" horiz-adv-x="774" 
d="M502 -15q-76 0 -118 37.5t-42 106.5q0 31 7 66l4 20h-168l-42 -215h-114l99 509h114l-40 -206h168l40 206h110l-38 -196q58 35 122 35t101.5 -39t37.5 -106q0 -60 -30.5 -109.5t-85.5 -79t-125 -29.5zM560 261q-40 0 -92 -21l-9 -45q-7 -37 -7 -59q0 -31 17.5 -47.5
t48.5 -16.5q47 0 80 34.5t33 84.5q0 70 -71 70z" />
    <glyph glyph-name="uni045B" unicode="&#x45b;" horiz-adv-x="596" 
d="M361 0l39 199q14 74 14 107q0 59 -60 59q-33 0 -75.5 -27.5t-84.5 -75.5l-51 -262h-114l109 558h-88l15 76h87l21 106h114l-21 -106h165l-15 -76h-164l-39 -200q42 47 89.5 72.5t94.5 25.5q64 0 98.5 -35t34.5 -99q0 -41 -16 -123l-39 -199h-114z" />
    <glyph glyph-name="uni045C" unicode="&#x45c;" horiz-adv-x="522" 
d="M29 0l99 509h114l-45 -230l227 230h136l-262 -256l190 -253h-133l-168 227l-44 -227h-114zM289 601l120 163h136l-160 -163h-96z" />
    <glyph glyph-name="uni045D" unicode="&#x45d;" horiz-adv-x="581" 
d="M361 0l3 89q-39 -49 -88 -76.5t-99 -27.5q-62 0 -94.5 34.5t-32.5 99.5q0 41 16 123l52 267h114l-52 -267q-14 -74 -14 -107q0 -30 13 -44.5t42 -14.5q31 0 72.5 27t82.5 74l64 332h114l-99 -509h-94zM286 601l-95 163h128l63 -163h-96z" />
    <glyph glyph-name="uni045E" unicode="&#x45e;" horiz-adv-x="489" 
d="M-66 -141q76 30 120.5 60.5t88.5 84.5l-101 505h118l62 -403q107 195 184 403h115q-58 -147 -141 -301t-154 -246q-115 -151 -242 -181zM299 595q-66 0 -105 30t-39 81q0 35 17 66h71q-6 -24 -6 -48q0 -29 16.5 -43t51.5 -14q39 0 62.5 18.5t33.5 57.5l7 29h77
q0 -80 -51 -128.5t-135 -48.5z" />
    <glyph glyph-name="uni045F" unicode="&#x45f;" horiz-adv-x="581" 
d="M361 0l3 89q-39 -49 -88 -76.5t-99 -27.5q-62 0 -94.5 34.5t-32.5 99.5q0 41 16 123l52 267h114l-52 -267q-14 -74 -14 -107q0 -30 13 -44.5t42 -14.5q31 0 72.5 27t82.5 74l64 332h114l-99 -509h-94zM133 -235l51 171h85l-35 -171h-101z" />
    <glyph glyph-name="uni0462" unicode="&#x462;" horiz-adv-x="638" 
d="M91 0l103 532h-141l18 90h141l21 108h118l-21 -108h208l-18 -90h-208l-26 -132h100q97 0 151.5 -47t54.5 -132q0 -66 -31 -116t-89 -77.5t-139 -27.5h-242zM269 309l-42 -218h115q64 0 98.5 33t34.5 94q0 91 -105 91h-101z" />
    <glyph glyph-name="uni0463" unicode="&#x463;" horiz-adv-x="772" 
d="M500 -15q-76 0 -118 37.5t-42 106.5q0 31 7 66q20 95 25.5 129.5t5.5 53.5q0 55 -38 55q-26 0 -62.5 -27t-69.5 -70l-65 -336h-114l99 509h94l-3 -89q37 50 80 77t88 27q50 0 77.5 -33t27.5 -92q0 -27 -12 -86q58 35 122 35t101.5 -39t37.5 -106q0 -60 -30.5 -109.5
t-85.5 -79t-125 -29.5zM558 261q-40 0 -92 -21l-9 -45q-7 -37 -7 -59q0 -31 17.5 -47.5t48.5 -16.5q47 0 80 34.5t33 84.5q0 70 -71 70z" />
    <glyph glyph-name="uni0472" unicode="&#x472;" horiz-adv-x="749" 
d="M331 -17q-128 0 -201.5 75.5t-73.5 205.5q0 124 47.5 224.5t135.5 160.5t202 60q128 0 201.5 -75.5t73.5 -205.5q0 -124 -47.5 -224.5t-135.5 -160.5t-202 -60zM342 81q87 0 153.5 60.5t92.5 164.5h-416q-1 -12 -1 -33q0 -89 45.5 -140.5t125.5 -51.5zM430 611
q-84 0 -149 -56.5t-93 -152.5h413v17q0 89 -45.5 140.5t-125.5 51.5z" />
    <glyph glyph-name="uni0473" unicode="&#x473;" horiz-adv-x="547" 
d="M226 -15q-92 0 -143.5 56.5t-51.5 157.5q0 87 36.5 160.5t103.5 119t150 45.5q92 0 143.5 -56.5t51.5 -157.5q0 -87 -36.5 -160.5t-103.5 -119t-150 -45.5zM237 73q35 0 66.5 17.5t56 51t36.5 78.5h-256v-18q0 -62 25 -95.5t72 -33.5zM310 436q-54 0 -96.5 -38.5
t-61.5 -104.5h255v14q0 62 -25 95.5t-72 33.5z" />
    <glyph glyph-name="uni0474" unicode="&#x474;" horiz-adv-x="620" 
d="M185 0l-108 693h126l69 -573l216 444q36 75 78 106.5t107 31.5q38 0 59 -9l-17 -91q-8 1 -15.5 1.5t-15.5 0.5q-31 0 -49 -13t-36 -48l-285 -543h-129z" />
    <glyph glyph-name="uni0475" unicode="&#x475;" horiz-adv-x="524" 
d="M139 0l-90 509h118l48 -401l142 277q38 74 73 103.5t84 29.5q31 0 61 -11l-16 -80q-15 3 -31 3q-20 0 -34 -12t-32 -44l-208 -374h-115z" />
    <glyph glyph-name="uni0490" unicode="&#x490;" horiz-adv-x="525" 
d="M41 0l135 693h301l27 139h104l-46 -237h-287l-116 -595h-118z" />
    <glyph glyph-name="uni0491" unicode="&#x491;" horiz-adv-x="418" 
d="M29 0l99 509h224l25 128h99l-43 -221h-209l-81 -416h-114z" />
    <glyph glyph-name="Wgrave" unicode="&#x1e80;" horiz-adv-x="911" 
d="M519 0l-20 527l-222 -527h-129l-57 693h125l23 -560l223 541h131l18 -541l235 560h129l-327 -693h-129zM491 769l-104 125h129l77 -125h-102z" />
    <glyph glyph-name="wgrave" unicode="&#x1e81;" horiz-adv-x="755" 
d="M423 0l-25 382l-163 -382h-112l-68 509h119l31 -394l159 394h111l28 -403q48 96 90 201t71 202h115q-34 -102 -106 -253t-138 -256h-112zM367 601l-95 163h128l63 -163h-96z" />
    <glyph glyph-name="Wacute" unicode="&#x1e82;" horiz-adv-x="911" 
d="M519 0l-20 527l-222 -527h-129l-57 693h125l23 -560l223 541h131l18 -541l235 560h129l-327 -693h-129zM593 769h-102l118 125h137z" />
    <glyph glyph-name="wacute" unicode="&#x1e83;" horiz-adv-x="755" 
d="M423 0l-25 382l-163 -382h-112l-68 509h119l31 -394l159 394h111l28 -403q48 96 90 201t71 202h115q-34 -102 -106 -253t-138 -256h-112zM377 601l120 163h136l-160 -163h-96z" />
    <glyph glyph-name="Wdieresis" unicode="&#x1e84;" horiz-adv-x="911" 
d="M519 0l-20 527l-222 -527h-129l-57 693h125l23 -560l223 541h131l18 -541l235 560h129l-327 -693h-129zM451 775q-27 0 -42.5 14.5t-15.5 40.5q0 32 23 53.5t58 21.5q27 0 42.5 -14.5t15.5 -40.5q0 -32 -23 -53.5t-58 -21.5zM655 775q-27 0 -42.5 14.5t-15.5 40.5
q0 32 23 53.5t58 21.5q27 0 42.5 -14.5t15.5 -40.5q0 -32 -23 -53.5t-58 -21.5z" />
    <glyph glyph-name="wdieresis" unicode="&#x1e85;" horiz-adv-x="755" 
d="M423 0l-25 382l-163 -382h-112l-68 509h119l31 -394l159 394h111l28 -403q48 96 90 201t71 202h115q-34 -102 -106 -253t-138 -256h-112zM324 592q-27 0 -42 14t-15 39q0 33 22 54t56 21q27 0 42 -14t15 -39q0 -33 -22 -54t-56 -21zM545 592q-27 0 -42 14t-15 39
q0 33 22 54t56 21q27 0 42 -14t15 -39q0 -33 -22 -54t-56 -21z" />
    <glyph glyph-name="uni1E9E" unicode="&#x1e9e;" horiz-adv-x="663" 
d="M229 103q75 -23 129 -23q68 0 109 36.5t41 97.5q0 96 -115 96q-37 0 -70 -5l14 75l182 214q-65 19 -114 19q-156 0 -188 -165l-87 -448h-117l84 435q26 131 109.5 202.5t209.5 71.5q53 0 103 -14t104 -44l-15 -81l-158 -179q10 1 17 1q69 0 114 -47.5t45 -123.5
q0 -65 -33.5 -118.5t-94.5 -85.5t-139 -32q-79 0 -147 30z" />
    <glyph glyph-name="Ygrave" unicode="&#x1ef2;" horiz-adv-x="558" 
d="M160 0l50 255l-142 438h123l92 -343l228 343h129l-315 -441l-49 -252h-116zM310 769l-104 125h129l77 -125h-102z" />
    <glyph glyph-name="ygrave" unicode="&#x1ef3;" horiz-adv-x="489" 
d="M-66 -141q76 30 120.5 60.5t88.5 84.5l-101 505h118l62 -403q107 195 184 403h115q-58 -147 -141 -301t-154 -246q-115 -151 -242 -181zM232 601l-95 163h128l63 -163h-96z" />
    <glyph glyph-name="uni2000" unicode="&#x2000;" horiz-adv-x="500" 
 />
    <glyph glyph-name="uni2001" unicode="&#x2001;" horiz-adv-x="1000" 
 />
    <glyph glyph-name="uni2002" unicode="&#x2002;" horiz-adv-x="500" 
 />
    <glyph glyph-name="uni2003" unicode="&#x2003;" horiz-adv-x="1000" 
 />
    <glyph glyph-name="uni2004" unicode="&#x2004;" horiz-adv-x="333" 
 />
    <glyph glyph-name="uni2005" unicode="&#x2005;" horiz-adv-x="250" 
 />
    <glyph glyph-name="uni2006" unicode="&#x2006;" horiz-adv-x="166" 
 />
    <glyph glyph-name="uni2007" unicode="&#x2007;" 
 />
    <glyph glyph-name="uni2008" unicode="&#x2008;" horiz-adv-x="260" 
 />
    <glyph glyph-name="uni2009" unicode="&#x2009;" horiz-adv-x="200" 
 />
    <glyph glyph-name="uni200A" unicode="&#x200a;" horiz-adv-x="50" 
 />
    <glyph glyph-name="uni200B" unicode="&#x200b;" horiz-adv-x="0" 
 />
    <glyph glyph-name="uni2010" unicode="&#x2010;" horiz-adv-x="407" 
d="M39 209l19 99h316l-19 -99h-316z" />
    <glyph glyph-name="uni2012" unicode="&#x2012;" 
d="M49 301l17 91h500l-17 -91h-500z" />
    <glyph glyph-name="endash" unicode="&#x2013;" horiz-adv-x="500" 
d="M-9 213l17 91h500l-17 -91h-500z" />
    <glyph glyph-name="emdash" unicode="&#x2014;" horiz-adv-x="1000" 
d="M-9 213l17 91h1000l-17 -91h-1000z" />
    <glyph glyph-name="uni2015" unicode="&#x2015;" horiz-adv-x="1000" 
d="M-8 213l17 91h1000l-17 -91h-1000z" />
    <glyph glyph-name="quoteleft" unicode="&#x2018;" horiz-adv-x="263" 
d="M144 424q-54 0 -54 38q0 23 25 66l98 165h80l-98 -269h-51z" />
    <glyph glyph-name="quoteright" unicode="&#x2019;" horiz-adv-x="263" 
d="M90 424l98 269h51q54 0 54 -38q0 -23 -25 -66l-98 -165h-80z" />
    <glyph glyph-name="quotesinglbase" unicode="&#x201a;" horiz-adv-x="263" 
d="M-28 -151l98 269h51q54 0 54 -38q0 -23 -25 -66l-98 -165h-80z" />
    <glyph glyph-name="uni201B" unicode="&#x201b;" horiz-adv-x="263" 
d="M162 424l-24 161q-7 42 -7 62q0 46 63 46h52l-9 -269h-75z" />
    <glyph glyph-name="quotedblleft" unicode="&#x201c;" horiz-adv-x="456" 
d="M144 424q-54 0 -54 38q0 23 25 66l98 165h80l-98 -269h-51zM337 424q-54 0 -54 38q0 23 25 66l98 165h80l-98 -269h-51z" />
    <glyph glyph-name="quotedblright" unicode="&#x201d;" horiz-adv-x="456" 
d="M90 424l98 269h51q54 0 54 -38q0 -23 -25 -66l-98 -165h-80zM283 424l98 269h51q54 0 54 -38q0 -23 -25 -66l-98 -165h-80z" />
    <glyph glyph-name="quotedblbase" unicode="&#x201e;" horiz-adv-x="456" 
d="M-28 -151l98 269h51q54 0 54 -38q0 -23 -25 -66l-98 -165h-80zM164 -151l98 269h51q54 0 54 -38q0 -23 -25 -66l-98 -165h-80z" />
    <glyph glyph-name="uni201F" unicode="&#x201f;" horiz-adv-x="452" 
d="M162 424l-24 161q-7 42 -7 62q0 46 63 46h52l-9 -269h-75zM351 424l-24 161q-7 42 -7 62q0 46 63 46h52l-9 -269h-75z" />
    <glyph glyph-name="dagger" unicode="&#x2020;" horiz-adv-x="508" 
d="M113 -126l121 564l-178 -7l17 92l175 -6l33 223h119l-54 -223l176 6l-17 -92l-173 7l-100 -564h-119z" />
    <glyph glyph-name="daggerdbl" unicode="&#x2021;" horiz-adv-x="508" 
d="M113 -126l54 223l-176 -6l17 92l173 -7l17 131l36 131l-178 -7l17 92l175 -6l33 223h119l-54 -223l176 6l-17 -92l-173 7l-17 -131l-36 -131l178 7l-17 -92l-175 6l-33 -223h-119z" />
    <glyph glyph-name="bullet" unicode="&#x2022;" horiz-adv-x="372" 
d="M169 115q-59 0 -92.5 32.5t-33.5 89.5q0 43 20.5 80.5t57.5 61t82 23.5q59 0 92.5 -32.5t33.5 -89.5q0 -43 -20.5 -80.5t-57.5 -61t-82 -23.5z" />
    <glyph glyph-name="ellipsis" unicode="&#x2026;" horiz-adv-x="1000" 
d="M787 -10q-30 0 -47.5 17.5t-17.5 46.5q0 37 25 62.5t62 25.5q30 0 47.5 -17.5t17.5 -46.5q0 -37 -25 -62.5t-62 -25.5zM121 -10q-30 0 -47.5 17.5t-17.5 46.5q0 37 25 62.5t62 25.5q30 0 47.5 -17.5t17.5 -46.5q0 -37 -25 -62.5t-62 -25.5zM454 -10q-30 0 -47.5 17.5
t-17.5 46.5q0 37 25 62.5t62 25.5q30 0 47.5 -17.5t17.5 -46.5q0 -37 -25 -62.5t-62 -25.5z" />
    <glyph glyph-name="perthousand" unicode="&#x2030;" horiz-adv-x="1331" 
d="M215 0l452 693h95l-452 -693h-95zM698 -10q-66 0 -103 38.5t-37 106.5q0 119 55.5 193t144.5 74q66 0 103 -38.5t37 -106.5q0 -119 -55.5 -193t-144.5 -74zM706 58q45 0 74 54t29 137q0 85 -59 85q-45 0 -74 -54t-29 -137q0 -85 59 -85zM1089 -10q-66 0 -103 38.5
t-37 106.5q0 119 55.5 193t144.5 74q66 0 103 -38.5t37 -106.5q0 -119 -55.5 -193t-144.5 -74zM1097 58q45 0 74 54t29 137q0 85 -59 85q-45 0 -74 -54t-29 -137q0 -85 59 -85zM219 291q-66 0 -103 38.5t-37 106.5q0 119 55.5 193t144.5 74q66 0 103 -38.5t37 -106.5
q0 -119 -55.5 -193t-144.5 -74zM227 359q45 0 74 54t29 137q0 85 -59 85q-45 0 -74 -54t-29 -137q0 -85 59 -85z" />
    <glyph glyph-name="minute" unicode="&#x2032;" horiz-adv-x="277" 
d="M89 475l111 219q33 15 69 15q34 0 59 -15l-154 -219h-85z" />
    <glyph glyph-name="second" unicode="&#x2033;" horiz-adv-x="469" 
d="M89 475l111 219q33 15 69 15q34 0 59 -15l-154 -219h-85zM281 475l111 219q33 15 69 15q34 0 59 -15l-154 -219h-85z" />
    <glyph glyph-name="guilsinglleft" unicode="&#x2039;" horiz-adv-x="333" 
d="M146 51l-99 208l177 208h111l-176 -212l92 -204h-105z" />
    <glyph glyph-name="guilsinglright" unicode="&#x203a;" horiz-adv-x="333" 
d="M9 51l176 212l-92 204h105l99 -208l-177 -208h-111z" />
    <glyph glyph-name="uni203D" unicode="&#x203d;" horiz-adv-x="444" 
d="M130 218l37 308q25 14 56 14q29 0 53 -14l-22 -118q109 55 109 129q0 37 -27.5 57.5t-77.5 20.5q-69 0 -139 -43l-17 79q39 28 84.5 43t91.5 15q86 0 139 -43t53 -113q0 -74 -56 -131t-172 -101l-22 -103h-90zM138 -10q-30 0 -47.5 17.5t-17.5 46.5q0 37 25 62.5t62 25.5
q30 0 47.5 -17.5t17.5 -46.5q0 -37 -25 -62.5t-62 -25.5z" />
    <glyph glyph-name="fraction" unicode="&#x2044;" horiz-adv-x="0" 
d="M-273 0l452 693h95l-452 -693h-95z" />
    <glyph glyph-name="uni2052" unicode="&#x2052;" 
d="M180 600q-32 0 -50.5 18.5t-18.5 49.5q0 38 25.5 64t63.5 26q32 0 50.5 -18.5t18.5 -49.5q0 -38 -25.5 -64t-63.5 -26zM-25 -144l502 898h116l-502 -898h-116zM368 -148q-32 0 -50.5 18.5t-18.5 49.5q0 38 25.5 64t63.5 26q32 0 50.5 -18.5t18.5 -49.5q0 -38 -25.5 -64
t-63.5 -26z" />
    <glyph glyph-name="uni2070" unicode="&#x2070;" horiz-adv-x="410" 
d="M234 381q-66 0 -103 38.5t-37 106.5q0 119 55.5 193t144.5 74q66 0 103 -38.5t37 -106.5q0 -119 -55.5 -193t-144.5 -74zM242 449q45 0 74 54t29 137q0 85 -59 85q-45 0 -74 -54t-29 -137q0 -85 59 -85z" />
    <glyph glyph-name="uni2074" unicode="&#x2074;" horiz-adv-x="410" 
d="M263 390l15 79h-198l12 63l242 256h85l-50 -255h61l-12 -64h-62l-15 -79h-78zM291 533l30 157l-148 -157h118z" />
    <glyph glyph-name="uni2075" unicode="&#x2075;" horiz-adv-x="410" 
d="M259 714l-23 -93q20 5 46 5q55 0 86 -27.5t31 -76.5q0 -62 -50 -101.5t-129 -39.5q-61 0 -120 30l13 64q64 -26 108 -26q43 0 68 18.5t25 50.5q0 47 -72 47q-43 0 -97 -6l8 48l45 175h229l-13 -68h-155z" />
    <glyph glyph-name="uni2076" unicode="&#x2076;" horiz-adv-x="410" 
d="M423 709q-49 17 -86 17q-51 0 -86.5 -30t-49.5 -86q50 26 102 26t82 -27.5t30 -75.5q0 -40 -21 -75t-59.5 -56t-86.5 -21q-65 0 -101 41t-36 116q0 69 28.5 127t80 93t115.5 35q54 0 100 -22zM276 573q-36 0 -83 -19v-20q0 -41 17.5 -63.5t48.5 -22.5q32 0 52.5 21
t20.5 53q0 51 -56 51z" />
    <glyph glyph-name="uni2077" unicode="&#x2077;" horiz-adv-x="410" 
d="M123 390l221 324h-201l13 68h293l-12 -64l-219 -328h-95z" />
    <glyph glyph-name="uni2078" unicode="&#x2078;" horiz-adv-x="410" 
d="M429 699q0 -34 -23.5 -62t-66.5 -46q37 -22 52.5 -42.5t15.5 -47.5q0 -34 -21 -61t-59.5 -43t-88.5 -16q-66 0 -104 26t-38 72q0 37 25.5 67.5t73.5 49.5q-45 33 -45 79q0 51 43 84.5t109 33.5q57 0 92 -26t35 -68zM244 566q-66 -28 -66 -72q0 -22 18 -34.5t49 -12.5
q35 0 57.5 14t22.5 36q0 14 -11 26t-36 25zM230 677q0 -16 11 -28.5t36 -25.5l13 -7q27 13 43 32.5t16 40.5q0 19 -14.5 30.5t-37.5 11.5q-29 0 -48 -15.5t-19 -38.5z" />
    <glyph glyph-name="uni2079" unicode="&#x2079;" horiz-adv-x="410" 
d="M200 448q98 0 129 102q-42 -22 -91 -22q-54 0 -86.5 32t-32.5 86q0 63 45 105t113 42q67 0 105.5 -44t38.5 -121q0 -66 -27.5 -122t-78 -90.5t-112.5 -34.5q-58 0 -107 30l13 61q50 -24 91 -24zM266 591q36 0 71 15q2 16 2 28q0 44 -18 68t-50 24q-30 0 -49.5 -21
t-19.5 -54q0 -60 64 -60z" />
    <glyph glyph-name="uni207A" unicode="&#x207a;" horiz-adv-x="410" 
d="M298 552l-20 -106h-80l21 106h-102l14 71h102l20 106h80l-21 -106h102l-14 -71h-102z" />
    <glyph glyph-name="uni207B" unicode="&#x207b;" horiz-adv-x="410" 
d="M117 552l14 71h283l-14 -71h-283z" />
    <glyph glyph-name="uni207C" unicode="&#x207c;" horiz-adv-x="410" 
d="M102 476l14 71h283l-14 -71h-283zM131 628l14 71h283l-14 -71h-283z" />
    <glyph glyph-name="uni207D" unicode="&#x207d;" horiz-adv-x="231" 
d="M136 334q-34 91 -34 177q0 89 34 173t99 156h87q-63 -73 -97 -158.5t-34 -171.5q0 -43 8 -93.5t19 -82.5h-82z" />
    <glyph glyph-name="uni207E" unicode="&#x207e;" horiz-adv-x="231" 
d="M32 334q63 73 97 158.5t34 171.5q0 43 -8 93.5t-19 82.5h82q34 -91 34 -177q0 -89 -34 -173t-99 -156h-87z" />
    <glyph glyph-name="uni207F" unicode="&#x207f;" horiz-adv-x="439" 
d="M321 390l40 207q12 63 12 85q0 40 -40 40q-26 0 -58.5 -19t-61.5 -53l-50 -260h-90l76 392h75v-62q67 73 145 73q95 0 95 -102q0 -26 -13 -94l-40 -207h-90z" />
    <glyph glyph-name="uni2080" unicode="&#x2080;" horiz-adv-x="410" 
d="M148 -113q-66 0 -103 38.5t-37 106.5q0 119 55.5 193t144.5 74q66 0 103 -38.5t37 -106.5q0 -119 -55.5 -193t-144.5 -74zM156 -45q45 0 74 54t29 137q0 85 -59 85q-45 0 -74 -54t-29 -137q0 -85 59 -85z" />
    <glyph glyph-name="uni2081" unicode="&#x2081;" horiz-adv-x="410" 
d="M134 -104l60 308l-126 -41l13 69l135 56h82l-76 -392h-88z" />
    <glyph glyph-name="uni2082" unicode="&#x2082;" horiz-adv-x="410" 
d="M7 -104l12 59q127 95 175 144.5t48 84.5q0 21 -13.5 33t-37.5 12q-43 0 -110 -44l-15 59q73 55 150 55q54 0 85.5 -26t31.5 -71q0 -50 -46 -104t-156 -134h172l-13 -68h-283z" />
    <glyph glyph-name="uni2083" unicode="&#x2083;" horiz-adv-x="410" 
d="M24 -24q55 -21 108 -21q45 0 70.5 18t25.5 49q0 25 -17.5 36.5t-53.5 11.5q-25 0 -62 -4l8 41l127 113h-157l13 68h254l-11 -57l-126 -110h7q49 0 76 -25t27 -70q0 -61 -50 -100t-130 -39q-67 0 -121 26z" />
    <glyph glyph-name="uni2084" unicode="&#x2084;" horiz-adv-x="410" 
d="M177 -104l15 79h-198l12 63l242 256h85l-50 -255h61l-12 -64h-62l-15 -79h-78zM205 39l30 157l-148 -157h118z" />
    <glyph glyph-name="uni2085" unicode="&#x2085;" horiz-adv-x="410" 
d="M173 220l-23 -93q20 5 46 5q55 0 86 -27.5t31 -76.5q0 -62 -50 -101.5t-129 -39.5q-61 0 -120 30l13 64q64 -26 108 -26q43 0 68 18.5t25 50.5q0 47 -72 47q-43 0 -97 -6l8 48l45 175h229l-13 -68h-155z" />
    <glyph glyph-name="uni2086" unicode="&#x2086;" horiz-adv-x="410" 
d="M337 215q-49 17 -86 17q-51 0 -86.5 -30t-49.5 -86q50 26 102 26t82 -27.5t30 -75.5q0 -40 -21 -75t-59.5 -56t-86.5 -21q-65 0 -101 41t-36 116q0 69 28.5 127t80 93t115.5 35q54 0 100 -22zM190 79q-36 0 -83 -19v-20q0 -41 17.5 -63.5t48.5 -22.5q32 0 52.5 21
t20.5 53q0 51 -56 51z" />
    <glyph glyph-name="uni2087" unicode="&#x2087;" horiz-adv-x="410" 
d="M37 -104l221 324h-201l13 68h293l-12 -64l-219 -328h-95z" />
    <glyph glyph-name="uni2088" unicode="&#x2088;" horiz-adv-x="410" 
d="M343 205q0 -34 -23.5 -62t-66.5 -46q37 -22 52.5 -42.5t15.5 -47.5q0 -34 -21 -61t-59.5 -43t-88.5 -16q-66 0 -104 26t-38 72q0 37 25.5 67.5t73.5 49.5q-45 33 -45 79q0 51 43 84.5t109 33.5q57 0 92 -26t35 -68zM158 72q-66 -28 -66 -72q0 -22 18 -34.5t49 -12.5
q35 0 57.5 14t22.5 36q0 14 -11 26t-36 25zM144 183q0 -16 11 -28.5t36 -25.5l13 -7q27 13 43 32.5t16 40.5q0 19 -14.5 30.5t-37.5 11.5q-29 0 -48 -15.5t-19 -38.5z" />
    <glyph glyph-name="uni2089" unicode="&#x2089;" horiz-adv-x="410" 
d="M114 -46q98 0 129 102q-42 -22 -91 -22q-54 0 -86.5 32t-32.5 86q0 63 45 105t113 42q67 0 105.5 -44t38.5 -121q0 -66 -27.5 -122t-78 -90.5t-112.5 -34.5q-58 0 -107 30l13 61q50 -24 91 -24zM180 97q36 0 71 15q2 16 2 28q0 44 -18 68t-50 24q-30 0 -49.5 -21
t-19.5 -54q0 -60 64 -60z" />
    <glyph glyph-name="uni208A" unicode="&#x208a;" horiz-adv-x="410" 
d="M212 58l-20 -106h-80l21 106h-102l14 71h102l20 106h80l-21 -106h102l-14 -71h-102z" />
    <glyph glyph-name="uni208B" unicode="&#x208b;" horiz-adv-x="410" 
d="M31 58l14 71h283l-14 -71h-283z" />
    <glyph glyph-name="uni208C" unicode="&#x208c;" horiz-adv-x="410" 
d="M17 -17l14 71h283l-14 -71h-283zM46 134l14 71h283l-14 -71h-283z" />
    <glyph glyph-name="uni208D" unicode="&#x208d;" horiz-adv-x="231" 
d="M50 -160q-34 91 -34 177q0 89 34 173t99 156h87q-63 -73 -97 -158.5t-34 -171.5q0 -43 8 -93.5t19 -82.5h-82z" />
    <glyph glyph-name="uni208E" unicode="&#x208e;" horiz-adv-x="231" 
d="M-55 -160q63 73 97 158.5t34 171.5q0 43 -8 93.5t-19 82.5h82q34 -91 34 -177q0 -89 -34 -173t-99 -156h-87z" />
    <glyph glyph-name="Euro" unicode="&#x20ac;" 
d="M224 228q8 -70 44.5 -106.5t99.5 -36.5q74 0 165 49l27 -81q-94 -65 -207 -65q-111 0 -175 62t-74 178h-84l14 74h70q4 43 13 83h-67l14 74h78q31 73 82 128t117 85t139 30q79 0 148 -36l-17 -89q-62 28 -125 28q-71 0 -128.5 -38t-93.5 -108h255l-35 -74h-248
q-11 -40 -14 -83h227l-35 -74h-190z" />
    <glyph glyph-name="uni20B9" unicode="&#x20b9;" 
d="M277 0l-194 270l15 77h100q151 0 184 96h-265l14 74h259q-5 48 -39 71t-100 23h-102l16 82h471l-31 -82h-161q22 -17 34 -41t14 -53h77l-28 -74h-56q-22 -81 -94 -126.5t-179 -47.5l205 -269h-140z" />
    <glyph glyph-name="uni20BA" unicode="&#x20ba;" 
d="M236 267l-33 -171h24q92 0 151 48.5t72 135.5l2 14h103l-2 -19q-9 -85 -52 -147t-116 -95t-171 -33h-139l41 214l-96 -43l15 77l96 43l19 96l-98 -43l15 77l98 43l45 229h109l-34 -176l183 82l-15 -77l-183 -82l-19 -96l185 82l-15 -77z" />
    <glyph glyph-name="uni2105" unicode="&#x2105;" horiz-adv-x="949" 
d="M694 -10q-72 0 -112 43.5t-40 119.5q0 66 28.5 122.5t80.5 91.5t116 35q72 0 112 -43.5t40 -119.5q0 -66 -28.5 -122.5t-80.5 -91.5t-116 -35zM703 58q53 0 90 52t37 126q0 48 -18.5 73t-53.5 25q-53 0 -90 -51.5t-37 -125.5q0 -49 18.5 -74t53.5 -25zM346 341
q-31 -23 -70.5 -36t-79.5 -13q-69 0 -106 39t-37 111q0 67 31 126.5t86.5 97.5t121.5 38q25 0 50.5 -5.5t41.5 -14.5l-13 -66q-41 13 -73 13q-41 0 -75.5 -22.5t-55.5 -63.5t-21 -93q0 -45 17 -66t54 -21q40 0 104 32zM204 0l452 693h95l-452 -693h-95z" />
    <glyph glyph-name="uni2113" unicode="&#x2113;" horiz-adv-x="426" 
d="M28 209l76 52v316q0 83 39.5 130t108.5 47q70 0 109 -48t39 -134q0 -95 -49.5 -181.5t-141.5 -151.5v-94q0 -37 15.5 -55.5t49.5 -18.5q39 0 91 20v-80q-49 -27 -115 -27q-71 0 -108.5 38t-37.5 110v37l-76 -51v91zM209 337q42 40 66.5 104.5t24.5 135.5q0 46 -11.5 68
t-35.5 22q-23 0 -33.5 -20t-10.5 -63v-247z" />
    <glyph glyph-name="uni2116" unicode="&#x2116;" horiz-adv-x="1051" 
d="M423 0l-177 543l-106 -543h-99l135 693h119l177 -543l106 543h99l-135 -693h-119zM864 331q-63 0 -100 38.5t-37 102.5q0 65 24.5 118t69.5 85t103 32q63 0 100 -38t37 -103t-24.5 -118t-69.5 -85t-103 -32zM872 398q46 0 76 45.5t30 115.5q0 39 -16 60t-46 21
q-46 0 -76 -45.5t-30 -115.5q0 -39 16 -60t46 -21zM682 210l13 65h307l-13 -65h-307z" />
    <glyph glyph-name="uni2117" unicode="&#x2117;" horiz-adv-x="778" 
d="M771 345q0 -101 -45 -183t-128.5 -130.5t-191.5 -48.5q-103 0 -185.5 45t-131 127.5t-48.5 189.5q0 101 45 183t128.5 130.5t191.5 48.5q103 0 185.5 -45t131 -127.5t48.5 -189.5zM406 53q82 0 146 35.5t100 102t36 154.5q0 85 -34 151t-98.5 103.5t-149.5 37.5
q-82 0 -146 -35.5t-100 -102t-36 -154.5q0 -85 34 -151t98.5 -103.5t149.5 -37.5zM290 146v397h140q62 0 99 -35.5t37 -95.5t-37 -95.5t-99 -35.5h-54v-135h-86zM376 347h45q27 0 42 16.5t15 46.5q0 67 -57 67h-45v-130z" />
    <glyph glyph-name="trademark" unicode="&#x2122;" horiz-adv-x="846" 
d="M761 309v260l-80 -167h-79l-80 167v-260h-79v384h91l108 -217l107 217h91v-384h-79zM178 309v314h-118v70h324v-70h-118v-314h-88z" />
    <glyph glyph-name="uni2126" unicode="&#x2126;" horiz-adv-x="731" 
d="M-2 92h142q-79 91 -79 225q0 106 46.5 195t132 143t192.5 54q81 0 141.5 -33t94 -95.5t33.5 -148.5q0 -66 -20.5 -129t-59.5 -117t-95 -94h146l-18 -92h-289l17 88q92 50 145.5 139.5t53.5 194.5q0 90 -41.5 138.5t-118.5 48.5q-66 0 -120.5 -36t-87 -102.5t-32.5 -152.5
q0 -71 23.5 -132t66.5 -98l-17 -88h-274z" />
    <glyph glyph-name="estimated" unicode="&#x212e;" horiz-adv-x="882" 
d="M771 124q-50 -63 -130.5 -98t-176.5 -35q-110 0 -197.5 43.5t-138.5 124t-51 185.5q0 99 48 180t136.5 129.5t201.5 48.5q109 0 197 -43.5t139.5 -123.5t51.5 -184v-15h-624q-6 0 -6 -6v-196q0 -12 9 -22q84 -96 234 -96q74 0 138 28t107 80h62zM708 557q0 15 -9 25
q-45 45 -107 70t-129 25q-146 0 -234 -98q-8 -10 -8 -25v-190q0 -6 6 -6h475q6 0 6 6v193z" />
    <glyph glyph-name="oneseventh" unicode="&#x2150;" horiz-adv-x="940" 
d="M185 0l452 693h95l-452 -693h-95zM599 0l221 324h-201l13 68h293l-12 -64l-219 -328h-95zM191 301l60 308l-126 -41l13 69l135 56h82l-76 -392h-88z" />
    <glyph glyph-name="oneninth" unicode="&#x2151;" horiz-adv-x="940" 
d="M192 0l452 693h95l-452 -693h-95zM663 58q98 0 129 102q-42 -22 -91 -22q-54 0 -86.5 32t-32.5 86q0 63 45 105t113 42q67 0 105.5 -44t38.5 -121q0 -66 -27.5 -122t-78 -90.5t-112.5 -34.5q-58 0 -107 30l13 61q50 -24 91 -24zM729 201q36 0 71 15q2 16 2 28
q0 44 -18 68t-50 24q-30 0 -49.5 -21t-19.5 -54q0 -60 64 -60zM191 301l60 308l-126 -41l13 69l135 56h82l-76 -392h-88z" />
    <glyph glyph-name="onethird" unicode="&#x2153;" horiz-adv-x="940" 
d="M196 0l452 693h95l-452 -693h-95zM580 80q55 -21 108 -21q45 0 70.5 18t25.5 49q0 25 -17.5 36.5t-53.5 11.5q-25 0 -62 -4l8 41l127 113h-157l13 68h254l-11 -57l-126 -110h7q49 0 76 -25t27 -70q0 -61 -50 -100t-130 -39q-67 0 -121 26zM191 301l60 308l-126 -41l13 69
l135 56h82l-76 -392h-88z" />
    <glyph glyph-name="twothirds" unicode="&#x2154;" horiz-adv-x="940" 
d="M223 0l452 693h95l-452 -693h-95zM580 80q55 -21 108 -21q45 0 70.5 18t25.5 49q0 25 -17.5 36.5t-53.5 11.5q-25 0 -62 -4l8 41l127 113h-157l13 68h254l-11 -57l-126 -110h7q49 0 76 -25t27 -70q0 -61 -50 -100t-130 -39q-67 0 -121 26zM63 300l12 59q127 95 175 144.5
t48 84.5q0 21 -13.5 33t-37.5 12q-43 0 -110 -44l-15 59q73 55 150 55q54 0 85.5 -26t31.5 -71q0 -50 -46 -104t-156 -134h172l-13 -68h-283z" />
    <glyph glyph-name="onefifth" unicode="&#x2155;" horiz-adv-x="940" 
d="M203 0l452 693h95l-452 -693h-95zM734 324l-23 -93q20 5 46 5q55 0 86 -27.5t31 -76.5q0 -62 -50 -101.5t-129 -39.5q-61 0 -120 30l13 64q64 -26 108 -26q43 0 68 18.5t25 50.5q0 47 -72 47q-43 0 -97 -6l8 48l45 175h229l-13 -68h-155zM191 301l60 308l-126 -41l13 69
l135 56h82l-76 -392h-88z" />
    <glyph glyph-name="twofifths" unicode="&#x2156;" horiz-adv-x="940" 
d="M235 0l452 693h95l-452 -693h-95zM734 324l-23 -93q20 5 46 5q55 0 86 -27.5t31 -76.5q0 -62 -50 -101.5t-129 -39.5q-61 0 -120 30l13 64q64 -26 108 -26q43 0 68 18.5t25 50.5q0 47 -72 47q-43 0 -97 -6l8 48l45 175h229l-13 -68h-155zM63 300l12 59q127 95 175 144.5
t48 84.5q0 21 -13.5 33t-37.5 12q-43 0 -110 -44l-15 59q73 55 150 55q54 0 85.5 -26t31.5 -71q0 -50 -46 -104t-156 -134h172l-13 -68h-283z" />
    <glyph glyph-name="threefifths" unicode="&#x2157;" horiz-adv-x="940" 
d="M222 0l452 693h95l-452 -693h-95zM734 324l-23 -93q20 5 46 5q55 0 86 -27.5t31 -76.5q0 -62 -50 -101.5t-129 -39.5q-61 0 -120 30l13 64q64 -26 108 -26q43 0 68 18.5t25 50.5q0 47 -72 47q-43 0 -97 -6l8 48l45 175h229l-13 -68h-155zM88 381q55 -21 108 -21
q45 0 70.5 18t25.5 49q0 25 -17.5 36.5t-53.5 11.5q-25 0 -62 -4l8 41l127 113h-157l13 68h254l-11 -57l-126 -110h7q49 0 76 -25t27 -70q0 -61 -50 -100t-130 -39q-67 0 -121 26z" />
    <glyph glyph-name="fourfifths" unicode="&#x2158;" horiz-adv-x="940" 
d="M236 0l452 693h95l-452 -693h-95zM734 324l-23 -93q20 5 46 5q55 0 86 -27.5t31 -76.5q0 -62 -50 -101.5t-129 -39.5q-61 0 -120 30l13 64q64 -26 108 -26q43 0 68 18.5t25 50.5q0 47 -72 47q-43 0 -97 -6l8 48l45 175h229l-13 -68h-155zM240 301l15 79h-198l12 63
l242 256h85l-50 -255h61l-12 -64h-62l-15 -79h-78zM268 444l30 157l-148 -157h118z" />
    <glyph glyph-name="onesixth" unicode="&#x2159;" horiz-adv-x="940" 
d="M199 0l452 693h95l-452 -693h-95zM886 319q-49 17 -86 17q-51 0 -86.5 -30t-49.5 -86q50 26 102 26t82 -27.5t30 -75.5q0 -40 -21 -75t-59.5 -56t-86.5 -21q-65 0 -101 41t-36 116q0 69 28.5 127t80 93t115.5 35q54 0 100 -22zM739 183q-36 0 -83 -19v-20
q0 -41 17.5 -63.5t48.5 -22.5q32 0 52.5 21t20.5 53q0 51 -56 51zM191 301l60 308l-126 -41l13 69l135 56h82l-76 -392h-88z" />
    <glyph glyph-name="fivesixths" unicode="&#x215a;" horiz-adv-x="940" 
d="M220 0l452 693h95l-452 -693h-95zM886 319q-49 17 -86 17q-51 0 -86.5 -30t-49.5 -86q50 26 102 26t82 -27.5t30 -75.5q0 -40 -21 -75t-59.5 -56t-86.5 -21q-65 0 -101 41t-36 116q0 69 28.5 127t80 93t115.5 35q54 0 100 -22zM739 183q-36 0 -83 -19v-20
q0 -41 17.5 -63.5t48.5 -22.5q32 0 52.5 21t20.5 53q0 51 -56 51zM235 625l-23 -93q20 5 46 5q55 0 86 -27.5t31 -76.5q0 -62 -50 -101.5t-129 -39.5q-61 0 -120 30l13 64q64 -26 108 -26q43 0 68 18.5t25 50.5q0 47 -72 47q-43 0 -97 -6l8 48l45 175h229l-13 -68h-155z" />
    <glyph glyph-name="oneeighth" unicode="&#x215b;" horiz-adv-x="940" 
d="M202 0l452 693h95l-452 -693h-95zM893 309q0 -34 -23.5 -62t-66.5 -46q37 -22 52.5 -42.5t15.5 -47.5q0 -34 -21 -61t-59.5 -43t-88.5 -16q-66 0 -104 26t-38 72q0 37 25.5 67.5t73.5 49.5q-45 33 -45 79q0 51 43 84.5t109 33.5q57 0 92 -26t35 -68zM708 176
q-66 -28 -66 -72q0 -22 18 -34.5t49 -12.5q35 0 57.5 14t22.5 36q0 14 -11 26t-36 25zM694 287q0 -16 11 -28.5t36 -25.5l13 -7q27 13 43 32.5t16 40.5q0 19 -14.5 30.5t-37.5 11.5q-29 0 -48 -15.5t-19 -38.5zM191 301l60 308l-126 -41l13 69l135 56h82l-76 -392h-88z" />
    <glyph glyph-name="threeeighths" unicode="&#x215c;" horiz-adv-x="940" 
d="M221 0l452 693h95l-452 -693h-95zM893 309q0 -34 -23.5 -62t-66.5 -46q37 -22 52.5 -42.5t15.5 -47.5q0 -34 -21 -61t-59.5 -43t-88.5 -16q-66 0 -104 26t-38 72q0 37 25.5 67.5t73.5 49.5q-45 33 -45 79q0 51 43 84.5t109 33.5q57 0 92 -26t35 -68zM708 176
q-66 -28 -66 -72q0 -22 18 -34.5t49 -12.5q35 0 57.5 14t22.5 36q0 14 -11 26t-36 25zM694 287q0 -16 11 -28.5t36 -25.5l13 -7q27 13 43 32.5t16 40.5q0 19 -14.5 30.5t-37.5 11.5q-29 0 -48 -15.5t-19 -38.5zM88 381q55 -21 108 -21q45 0 70.5 18t25.5 49q0 25 -17.5 36.5
t-53.5 11.5q-25 0 -62 -4l8 41l127 113h-157l13 68h254l-11 -57l-126 -110h7q49 0 76 -25t27 -70q0 -61 -50 -100t-130 -39q-67 0 -121 26z" />
    <glyph glyph-name="fiveeighths" unicode="&#x215d;" horiz-adv-x="940" 
d="M217 0l452 693h95l-452 -693h-95zM893 309q0 -34 -23.5 -62t-66.5 -46q37 -22 52.5 -42.5t15.5 -47.5q0 -34 -21 -61t-59.5 -43t-88.5 -16q-66 0 -104 26t-38 72q0 37 25.5 67.5t73.5 49.5q-45 33 -45 79q0 51 43 84.5t109 33.5q57 0 92 -26t35 -68zM708 176
q-66 -28 -66 -72q0 -22 18 -34.5t49 -12.5q35 0 57.5 14t22.5 36q0 14 -11 26t-36 25zM694 287q0 -16 11 -28.5t36 -25.5l13 -7q27 13 43 32.5t16 40.5q0 19 -14.5 30.5t-37.5 11.5q-29 0 -48 -15.5t-19 -38.5zM235 625l-23 -93q20 5 46 5q55 0 86 -27.5t31 -76.5
q0 -62 -50 -101.5t-129 -39.5q-61 0 -120 30l13 64q64 -26 108 -26q43 0 68 18.5t25 50.5q0 47 -72 47q-43 0 -97 -6l8 48l45 175h229l-13 -68h-155z" />
    <glyph glyph-name="seveneighths" unicode="&#x215e;" horiz-adv-x="940" 
d="M187 0l452 693h95l-452 -693h-95zM893 309q0 -34 -23.5 -62t-66.5 -46q37 -22 52.5 -42.5t15.5 -47.5q0 -34 -21 -61t-59.5 -43t-88.5 -16q-66 0 -104 26t-38 72q0 37 25.5 67.5t73.5 49.5q-45 33 -45 79q0 51 43 84.5t109 33.5q57 0 92 -26t35 -68zM708 176
q-66 -28 -66 -72q0 -22 18 -34.5t49 -12.5q35 0 57.5 14t22.5 36q0 14 -11 26t-36 25zM694 287q0 -16 11 -28.5t36 -25.5l13 -7q27 13 43 32.5t16 40.5q0 19 -14.5 30.5t-37.5 11.5q-29 0 -48 -15.5t-19 -38.5zM100 301l221 324h-201l13 68h293l-12 -64l-219 -328h-95z" />
    <glyph glyph-name="partialdiff" unicode="&#x2202;" 
d="M331 618q-64 0 -136 -37l-18 77q78 51 178 51q109 0 160.5 -63.5t51.5 -195.5q0 -126 -44 -231.5t-124 -169.5t-181 -64q-91 0 -145 50.5t-54 135.5q0 65 32.5 121.5t91.5 91.5t132 35q50 0 94.5 -17.5t78.5 -50.5q9 60 9 103q0 83 -31 123.5t-95 40.5zM232 76
q64 0 117 54t82 148q-67 58 -143 58q-70 0 -112 -41t-42 -109q0 -52 26 -81t72 -29z" />
    <glyph glyph-name="uni2206" unicode="&#x2206;" 
d="M-25 0l17 89l329 604h129l95 -604l-17 -89h-553zM114 89h315l-66 491z" />
    <glyph glyph-name="product" unicode="&#x220f;" 
d="M364 -120l141 722h-294l-140 -722h-114l159 813h520l-158 -813h-114z" />
    <glyph glyph-name="summation" unicode="&#x2211;" 
d="M-40 -120l18 94l266 322l-135 303l18 94h476l-19 -96h-361l140 -308l-260 -313h389l-19 -96h-513z" />
    <glyph glyph-name="minus" unicode="&#x2212;" 
d="M72 302l18 91h455l-18 -91h-455z" />
    <glyph glyph-name="uni2215" unicode="&#x2215;" 
d="M20 0l452 693h95l-452 -693h-95z" />
    <glyph glyph-name="uni2219" unicode="&#x2219;" 
d="M279 251q-30 0 -47.5 17.5t-17.5 46.5q0 37 25 62.5t62 25.5q30 0 47.5 -17.5t17.5 -46.5q0 -37 -25 -62.5t-62 -25.5z" />
    <glyph glyph-name="radical" unicode="&#x221a;" 
d="M163 0l-54 274h-86l17 88h161l40 -262l341 640h111l-402 -740h-128z" />
    <glyph glyph-name="infinity" unicode="&#x221e;" 
d="M420 190q-42 0 -72 23t-52 71q-41 -49 -79 -71.5t-78 -22.5q-53 0 -83.5 33t-30.5 91q0 48 22 90t62.5 68t89.5 26q42 0 72 -23t52 -71q41 49 79 71.5t78 22.5q53 0 83.5 -33t30.5 -91q0 -48 -22 -90t-62.5 -68t-89.5 -26zM427 263q35 0 59.5 28.5t24.5 68.5
q0 30 -15 47.5t-40 17.5q-26 0 -52.5 -19t-59.5 -61q16 -43 36 -62.5t47 -19.5zM163 263q26 0 52.5 19t59.5 61q-16 43 -36 62.5t-47 19.5q-35 0 -59.5 -28.5t-24.5 -68.5q0 -30 15 -47.5t40 -17.5z" />
    <glyph glyph-name="integral" unicode="&#x222b;" 
d="M297 574q17 89 66 134.5t127 45.5q58 0 92 -21l-16 -80q-43 10 -65 10q-38 0 -59 -18t-29 -59l-122 -624q-17 -89 -66 -134.5t-127 -45.5q-57 0 -92 21l16 80q43 -10 65 -10q38 0 59 18t29 59z" />
    <glyph glyph-name="approxequal" unicode="&#x2248;" 
d="M462 320h81q-1 -84 -40.5 -132.5t-106.5 -48.5q-31 0 -59 12.5t-63 41.5q-34 28 -49.5 36.5t-31.5 8.5q-24 0 -38 -14t-20 -44l-7 -35h-81q1 84 40.5 132.5t106.5 48.5q31 0 59 -12.5t63 -41.5q34 -28 49.5 -36.5t31.5 -8.5q24 0 38 14t20 44zM507 554h81
q-1 -84 -40.5 -132.5t-106.5 -48.5q-31 0 -59 12.5t-63 41.5q-34 28 -49.5 36.5t-31.5 8.5q-24 0 -38 -14t-20 -44l-7 -35h-81q1 84 40.5 132.5t106.5 48.5q31 0 59 -12.5t63 -41.5q34 -28 49.5 -36.5t31.5 -8.5q24 0 38 14t20 44z" />
    <glyph glyph-name="notequal" unicode="&#x2260;" 
d="M234 190l-72 -91h-92l72 91h-92l17 91h146l104 132h-224l17 91h279l72 91h92l-72 -91h85l-17 -91h-140l-104 -132h218l-17 -91h-272z" />
    <glyph glyph-name="lessequal" unicode="&#x2264;" 
d="M113 370l18 94l465 190l-21 -108l-347 -133l295 -132l-19 -101zM24 16l18 91h455l-18 -91h-455z" />
    <glyph glyph-name="greaterequal" unicode="&#x2265;" 
d="M79 180l21 108l347 133l-295 132l19 101l391 -190l-18 -94zM37 16l18 91h455l-18 -91h-455z" />
    <glyph glyph-name="lozenge" unicode="&#x25ca;" 
d="M181 0l-131 346l267 347h110l131 -346l-267 -347h-110zM446 356l-89 242l-195 -261l89 -242z" />
    <glyph glyph-name="uni27E8" unicode="&#x27e8;" horiz-adv-x="342" 
d="M123 -144l-69 452l241 446h109l-243 -449l68 -449h-106z" />
    <glyph glyph-name="uni27E9" unicode="&#x27e9;" horiz-adv-x="342" 
d="M-62 -144l243 449l-68 449h106l69 -452l-241 -446h-109z" />
    <glyph glyph-name="twosevenths" unicode="&#xf507;" horiz-adv-x="940" 
d="M217 0l452 693h95l-452 -693h-95zM599 0l221 324h-201l13 68h293l-12 -64l-219 -328h-95zM63 300l12 59q127 95 175 144.5t48 84.5q0 21 -13.5 33t-37.5 12q-43 0 -110 -44l-15 59q73 55 150 55q54 0 85.5 -26t31.5 -71q0 -50 -46 -104t-156 -134h172l-13 -68h-283z" />
    <glyph glyph-name="threesevenths" unicode="&#xf508;" horiz-adv-x="940" 
d="M205 0l452 693h95l-452 -693h-95zM599 0l221 324h-201l13 68h293l-12 -64l-219 -328h-95zM88 381q55 -21 108 -21q45 0 70.5 18t25.5 49q0 25 -17.5 36.5t-53.5 11.5q-25 0 -62 -4l8 41l127 113h-157l13 68h254l-11 -57l-126 -110h7q49 0 76 -25t27 -70q0 -61 -50 -100
t-130 -39q-67 0 -121 26z" />
    <glyph glyph-name="foursevenths" unicode="&#xf509;" horiz-adv-x="940" 
d="M220 0l452 693h95l-452 -693h-95zM599 0l221 324h-201l13 68h293l-12 -64l-219 -328h-95zM240 301l15 79h-198l12 63l242 256h85l-50 -255h61l-12 -64h-62l-15 -79h-78zM268 444l30 157l-148 -157h118z" />
    <glyph glyph-name="fivesevenths" unicode="&#xf50a;" horiz-adv-x="940" 
d="M203 0l452 693h95l-452 -693h-95zM599 0l221 324h-201l13 68h293l-12 -64l-219 -328h-95zM235 625l-23 -93q20 5 46 5q55 0 86 -27.5t31 -76.5q0 -62 -50 -101.5t-129 -39.5q-61 0 -120 30l13 64q64 -26 108 -26q43 0 68 18.5t25 50.5q0 47 -72 47q-43 0 -97 -6l8 48
l45 175h229l-13 -68h-155z" />
    <glyph glyph-name="sixsevenths" unicode="&#xf50b;" horiz-adv-x="940" 
d="M210 0l452 693h95l-452 -693h-95zM599 0l221 324h-201l13 68h293l-12 -64l-219 -328h-95zM394 619q-49 17 -86 17q-51 0 -86.5 -30t-49.5 -86q50 26 102 26t82 -27.5t30 -75.5q0 -40 -21 -75t-59.5 -56t-86.5 -21q-65 0 -101 41t-36 116q0 69 28.5 127t80 93t115.5 35
q54 0 100 -22zM247 483q-36 0 -83 -19v-20q0 -41 17.5 -63.5t48.5 -22.5q32 0 52.5 21t20.5 53q0 51 -56 51z" />
    <glyph glyph-name="twoninths" unicode="&#xf50d;" horiz-adv-x="940" 
d="M217 0l452 693h95l-452 -693h-95zM663 58q98 0 129 102q-42 -22 -91 -22q-54 0 -86.5 32t-32.5 86q0 63 45 105t113 42q67 0 105.5 -44t38.5 -121q0 -66 -27.5 -122t-78 -90.5t-112.5 -34.5q-58 0 -107 30l13 61q50 -24 91 -24zM729 201q36 0 71 15q2 16 2 28
q0 44 -18 68t-50 24q-30 0 -49.5 -21t-19.5 -54q0 -60 64 -60zM63 300l12 59q127 95 175 144.5t48 84.5q0 21 -13.5 33t-37.5 12q-43 0 -110 -44l-15 59q73 55 150 55q54 0 85.5 -26t31.5 -71q0 -50 -46 -104t-156 -134h172l-13 -68h-283z" />
    <glyph glyph-name="fourninths" unicode="&#xf50e;" horiz-adv-x="940" 
d="M218 0l452 693h95l-452 -693h-95zM663 58q98 0 129 102q-42 -22 -91 -22q-54 0 -86.5 32t-32.5 86q0 63 45 105t113 42q67 0 105.5 -44t38.5 -121q0 -66 -27.5 -122t-78 -90.5t-112.5 -34.5q-58 0 -107 30l13 61q50 -24 91 -24zM729 201q36 0 71 15q2 16 2 28
q0 44 -18 68t-50 24q-30 0 -49.5 -21t-19.5 -54q0 -60 64 -60zM240 301l15 79h-198l12 63l242 256h85l-50 -255h61l-12 -64h-62l-15 -79h-78zM268 444l30 157l-148 -157h118z" />
    <glyph glyph-name="fiveninths" unicode="&#xf50f;" horiz-adv-x="940" 
d="M207 0l452 693h95l-452 -693h-95zM663 58q98 0 129 102q-42 -22 -91 -22q-54 0 -86.5 32t-32.5 86q0 63 45 105t113 42q67 0 105.5 -44t38.5 -121q0 -66 -27.5 -122t-78 -90.5t-112.5 -34.5q-58 0 -107 30l13 61q50 -24 91 -24zM729 201q36 0 71 15q2 16 2 28
q0 44 -18 68t-50 24q-30 0 -49.5 -21t-19.5 -54q0 -60 64 -60zM235 625l-23 -93q20 5 46 5q55 0 86 -27.5t31 -76.5q0 -62 -50 -101.5t-129 -39.5q-61 0 -120 30l13 64q64 -26 108 -26q43 0 68 18.5t25 50.5q0 47 -72 47q-43 0 -97 -6l8 48l45 175h229l-13 -68h-155z" />
    <glyph glyph-name="sevenninths" unicode="&#xf510;" horiz-adv-x="940" 
d="M175 0l452 693h95l-452 -693h-95zM663 58q98 0 129 102q-42 -22 -91 -22q-54 0 -86.5 32t-32.5 86q0 63 45 105t113 42q67 0 105.5 -44t38.5 -121q0 -66 -27.5 -122t-78 -90.5t-112.5 -34.5q-58 0 -107 30l13 61q50 -24 91 -24zM729 201q36 0 71 15q2 16 2 28
q0 44 -18 68t-50 24q-30 0 -49.5 -21t-19.5 -54q0 -60 64 -60zM100 301l221 324h-201l13 68h293l-12 -64l-219 -328h-95z" />
    <glyph glyph-name="eightninths" unicode="&#xf511;" horiz-adv-x="940" 
d="M211 0l452 693h95l-452 -693h-95zM663 58q98 0 129 102q-42 -22 -91 -22q-54 0 -86.5 32t-32.5 86q0 63 45 105t113 42q67 0 105.5 -44t38.5 -121q0 -66 -27.5 -122t-78 -90.5t-112.5 -34.5q-58 0 -107 30l13 61q50 -24 91 -24zM729 201q36 0 71 15q2 16 2 28
q0 44 -18 68t-50 24q-30 0 -49.5 -21t-19.5 -54q0 -60 64 -60zM397 609q0 -34 -23.5 -62t-66.5 -46q37 -22 52.5 -42.5t15.5 -47.5q0 -34 -21 -61t-59.5 -43t-88.5 -16q-66 0 -104 26t-38 72q0 37 25.5 67.5t73.5 49.5q-45 33 -45 79q0 51 43 84.5t109 33.5q57 0 92 -26
t35 -68zM212 476q-66 -28 -66 -72q0 -22 18 -34.5t49 -12.5q35 0 57.5 14t22.5 36q0 14 -11 26t-36 25zM198 587q0 -16 11 -28.5t36 -25.5l13 -7q27 13 43 32.5t16 40.5q0 19 -14.5 30.5t-37.5 11.5q-29 0 -48 -15.5t-19 -38.5z" />
    <glyph glyph-name="uniFEFF" unicode="&#xfeff;" horiz-adv-x="0" 
 />
    <glyph glyph-name="uniFFFD" unicode="&#xfffd;" horiz-adv-x="1000" 
d="M29 340l471 471l471 -471l-471 -471zM609 458q0 -41 -26.5 -72t-86.5 -59l-47 -22l9 -136h78v103q86 39 125.5 85.5t39.5 108.5q0 73 -47.5 114t-131.5 41q-92 0 -166 -46v-74q78 42 149 42q104 0 104 -85zM500 -6q25 0 40.5 16t15.5 41t-15.5 41t-40.5 16t-40.5 -16
t-15.5 -41t15.5 -41t40.5 -16z" />
    <glyph glyph-name="zero.pnum" horiz-adv-x="597" 
d="M263 -15q-101 0 -156 64.5t-55 183.5q0 135 38.5 242.5t110 170.5t165.5 63q101 0 156 -64.5t55 -183.5q0 -135 -38.5 -242.5t-110 -170.5t-165.5 -63zM272 81q52 0 94.5 47t68 133t25.5 195q0 157 -103 157q-52 0 -94.5 -47t-68 -133t-25.5 -195q0 -157 103 -157z" />
    <glyph glyph-name="one.pnum" horiz-adv-x="439" 
d="M154 0l112 576l-196 -69l19 95l214 91h101l-135 -693h-115z" />
    <glyph glyph-name="two.pnum" horiz-adv-x="537" 
d="M-8 0l17 86q177 153 257 231t109 123.5t29 84.5q0 41 -26.5 63.5t-75.5 22.5q-83 0 -190 -74l-19 82q104 90 229 90q92 0 146.5 -46t54.5 -124q0 -60 -35.5 -118t-116.5 -134t-228 -194h326l-18 -93h-459z" />
    <glyph glyph-name="three.pnum" horiz-adv-x="522" 
d="M17 120q95 -40 174 -40q73 0 115 37.5t42 102.5q0 48 -34 72.5t-99 24.5q-35 0 -73 -5l15 76l230 212h-275l18 93h405l-18 -90l-232 -204q81 -1 130.5 -48.5t49.5 -124.5q0 -67 -34.5 -121.5t-98 -87t-146.5 -32.5q-49 0 -99 13t-87 35z" />
    <glyph glyph-name="four.pnum" horiz-adv-x="573" 
d="M299 0l28 144h-315l17 89l399 460h109l-89 -457h101l-18 -92h-101l-28 -144h-103zM345 236l60 309l-268 -309h208z" />
    <glyph glyph-name="five.pnum" horiz-adv-x="527" 
d="M27 120q98 -40 176 -40q76 0 120.5 38.5t44.5 104.5q0 56 -34.5 82t-107.5 26q-61 0 -139 -11l11 60l76 313h372l-18 -93h-275l-44 -187q43 8 78 8q91 0 144.5 -50t53.5 -136q0 -72 -35.5 -128.5t-101 -89t-151.5 -32.5q-49 0 -98.5 12.5t-88.5 35.5z" />
    <glyph glyph-name="six.pnum" horiz-adv-x="574" 
d="M558 586q-70 30 -131 30q-93 0 -157 -63t-86 -175q39 19 85 30.5t87 11.5q86 0 136 -49.5t50 -135.5q0 -69 -32.5 -125.5t-92.5 -90.5t-136 -34q-108 0 -165 71.5t-57 207.5q0 123 45.5 224t129 161t190.5 60q89 0 150 -38zM312 330q-67 0 -140 -31v-43q0 -88 31 -133
t91 -45q59 0 95 40.5t36 105.5q0 54 -28 80t-85 26z" />
    <glyph glyph-name="seven.pnum" horiz-adv-x="524" 
d="M39 0l384 600h-350l18 93h468l-17 -90l-377 -603h-126z" />
    <glyph glyph-name="eight.pnum" horiz-adv-x="594" 
d="M573 548q0 -62 -39.5 -112.5t-111.5 -79.5q57 -33 84 -73t27 -91q0 -60 -33 -106.5t-94.5 -73.5t-142.5 -27q-105 0 -163.5 45.5t-58.5 127.5q0 70 44.5 123.5t128.5 85.5q-80 56 -80 143q0 54 30.5 99.5t86 72.5t125.5 27q89 0 143 -44t54 -117zM291 324l-6 -2
q-65 -22 -99 -59t-34 -85t33.5 -76t90.5 -28q62 0 104 31.5t42 78.5q0 71 -108 128zM243 516q0 -68 84 -110l18 -9l6 2q52 17 82.5 53.5t30.5 81.5q0 41 -26.5 65.5t-71.5 24.5q-52 0 -87.5 -31t-35.5 -77z" />
    <glyph glyph-name="nine.pnum" horiz-adv-x="573" 
d="M197 78q81 0 138.5 54t81.5 153q-77 -36 -151 -36q-88 0 -142 56.5t-54 149.5q0 70 32 127.5t91 92t134 34.5q108 0 165 -74t57 -214q0 -124 -43.5 -222.5t-124.5 -156t-187 -57.5q-95 0 -160 45l16 85q82 -37 147 -37zM306 339q52 0 124 26q4 45 4 77q0 86 -29.5 130
t-86.5 44q-58 0 -94.5 -42.5t-36.5 -110.5q0 -61 30.5 -92.5t88.5 -31.5z" />
    <glyph glyph-name="florin.crcy" 
d="M-6 -121q30 -8 65 -8q40 0 60.5 19.5t30.5 68.5l90 462h-87l14 72l90 13l13 68q34 180 199 180q26 0 53 -6t46 -15l-16 -80q-40 10 -74 10q-42 0 -63 -18t-29 -59l-15 -77h151l-17 -88h-151l-90 -462q-34 -177 -186 -177q-55 0 -99 22z" />
    <glyph glyph-name="hyphen.case" horiz-adv-x="407" 
d="M53 302l19 99h316l-19 -99h-316z" />
    <glyph glyph-name="endash.case" horiz-adv-x="500" 
d="M9 306l17 91h500l-17 -91h-500z" />
    <glyph glyph-name="emdash.case" horiz-adv-x="1000" 
d="M9 306l17 91h1000l-17 -91h-1000z" />
    <glyph glyph-name="parenleft.case" horiz-adv-x="318" 
d="M119 -113q-31 69 -47.5 149.5t-16.5 162.5q0 157 60.5 308t174.5 278h112q-107 -124 -167 -278t-60 -304q0 -187 52 -316h-108z" />
    <glyph glyph-name="parenright.case" horiz-adv-x="318" 
d="M-54 -113q107 124 167 278t60 304q0 187 -52 316h108q31 -69 47.5 -149.5t16.5 -162.5q0 -157 -60.5 -308t-174.5 -278h-112z" />
    <glyph glyph-name="slash.case" horiz-adv-x="466" 
d="M-54 -113l503 898h117l-503 -898h-117z" />
    <glyph glyph-name="backslash.case" horiz-adv-x="466" 
d="M270 -113l-147 898h110l147 -898h-110z" />
    <glyph glyph-name="bracketleft.case" horiz-adv-x="349" 
d="M4 -113l175 898h253l-18 -92h-135l-139 -714h136l-18 -92h-254z" />
    <glyph glyph-name="bracketright.case" horiz-adv-x="349" 
d="M-68 -113l18 92h135l139 714h-136l18 92h254l-175 -898h-253z" />
    <glyph glyph-name="braceleft.case" horiz-adv-x="381" 
d="M315 -95q-47 -26 -109 -26q-65 0 -97.5 31.5t-32.5 96.5q0 31 11 88l18 93q11 55 11 73q0 23 -12.5 33.5t-41.5 10.5h-21l18 90h20q38 0 55.5 14.5t24.5 52.5l30 159q16 84 63.5 128t122.5 44q54 0 90 -17l-15 -79q-39 7 -57 7q-36 0 -56.5 -21t-29.5 -67l-29 -149
q-10 -49 -37 -77.5t-75 -40.5q32 -7 51.5 -27t19.5 -45q0 -22 -15 -100l-14 -69q-15 -76 -15 -96q0 -44 56 -44q13 0 27 2.5t20 5.5z" />
    <glyph glyph-name="braceright.case" horiz-adv-x="381" 
d="M327 277q-38 0 -55.5 -14.5t-24.5 -52.5l-30 -159q-16 -84 -63.5 -128t-122.5 -44q-54 0 -90 17l15 79q39 -7 57 -7q36 0 56.5 21t29.5 67l29 149q10 49 37 77.5t75 40.5q-32 7 -51.5 27t-19.5 45q0 22 15 100l14 69q15 77 15 96q0 44 -56 44q-13 0 -27 -2.5t-20 -5.5
l-19 71q47 26 109 26q65 0 97.5 -31.5t32.5 -96.5q0 -31 -15 -109l-14 -72q-11 -55 -11 -73q0 -23 12.5 -33.5t41.5 -10.5h21l-18 -90h-20z" />
    <glyph glyph-name="bullet.case" horiz-adv-x="372" 
d="M185 208q-59 0 -92.5 32.5t-33.5 89.5q0 43 20.5 80.5t57.5 61t82 23.5q59 0 92.5 -32.5t33.5 -89.5q0 -43 -20.5 -80.5t-57.5 -61t-82 -23.5z" />
    <glyph glyph-name="guilsinglleft.case" horiz-adv-x="333" 
d="M160 144l-99 208l177 208h111l-176 -212l92 -204h-105z" />
    <glyph glyph-name="guilsinglright.case" horiz-adv-x="333" 
d="M23 144l176 212l-92 204h105l99 -208l-177 -208h-111z" />
    <glyph glyph-name="guillemotleft.case" horiz-adv-x="544" 
d="M160 144l-99 208l177 208h111l-176 -212l92 -204h-105zM371 144l-99 208l177 208h111l-176 -212l92 -204h-105z" />
    <glyph glyph-name="guillemotright.case" horiz-adv-x="544" 
d="M23 144l176 212l-92 204h105l99 -208l-177 -208h-111zM234 144l176 212l-92 204h105l99 -208l-177 -208h-111z" />
    <glyph glyph-name="at.case" horiz-adv-x="960" 
d="M597 -84q-93 -41 -202 -41q-162 0 -249.5 88t-87.5 252q0 147 68.5 273t191.5 204t275 78q104 0 181 -38.5t119 -112.5t42 -177q0 -93 -33.5 -174.5t-94 -132.5t-132.5 -51q-48 0 -76.5 23.5t-34.5 69.5q-81 -95 -174 -95q-57 0 -87 37.5t-30 109.5q0 84 39 160
t108.5 124.5t151.5 48.5q37 0 79 -10t77 -26l-59 -240q-12 -50 -12 -80q0 -23 8.5 -34t27.5 -11q36 0 69.5 37.5t56 102.5t22.5 138q0 118 -66 182.5t-187 64.5q-114 0 -211.5 -59t-157.5 -166.5t-60 -240.5q0 -129 63.5 -195t186.5 -66q73 0 173 30zM431 162q32 0 66.5 22
t69.5 65q4 24 11 49l46 176q-39 10 -64 10q-44 0 -86 -32.5t-70.5 -89.5t-28.5 -122q0 -41 13.5 -59.5t42.5 -18.5z" />
    <glyph glyph-name="periodcentered.case" horiz-adv-x="260" 
d="M138 280q-30 0 -47.5 17.5t-17.5 46.5q0 37 25 62.5t62 25.5q30 0 47.5 -17.5t17.5 -46.5q0 -37 -25 -62.5t-62 -25.5z" />
    <glyph glyph-name="periodcentered.locl_CAT" horiz-adv-x="250" 
d="M208 373q0 -30 -21.5 -52t-52.5 -22q-28 0 -44 14t-16 40q0 30 21.5 52t52.5 22q28 0 44 -14t16 -40z" />
    <glyph glyph-name="periodcentered.locl_CAT.cap" horiz-adv-x="250" 
d="M208 389q0 -30 -21.5 -52t-52.5 -22q-28 0 -44 14t-16 40q0 30 21.5 52t52.5 22q28 0 44 -14t16 -40z" />
    </font>
</defs>
</svg>
