<?xml version="1.0" standalone="no"?>
<!DOCTYPE svg PUBLIC "-//W3C//DTD SVG 1.1//EN" "http://www.w3.org/Graphics/SVG/1.1/DTD/svg11.dtd" >
<svg>
<metadata>
Created by FontForge 20090914 at Tue Jul 27 10:01:26 2021
 By www-data
Copyright 2016 Dalton Maag Ltd. Modification of this file requires prior written permission from Dalton Maag Ltd.
</metadata>
<defs>
<font id="AmazonEmber-Heavy" horiz-adv-x="598" >
  <font-face 
    font-family="Amazon Ember Heavy"
    font-weight="800"
    font-stretch="normal"
    units-per-em="1000"
    panose-1="2 11 8 3 2 2 4 2 2 4"
    ascent="800"
    descent="-200"
    x-height="515"
    cap-height="693"
    bbox="-235 -306.002 1371 984.001"
    underline-thickness="80"
    underline-position="-69"
    unicode-range="U+0008-U+FFFD"
  />
<missing-glyph horiz-adv-x="500" 
d="M50 0v750h400v-750h-400zM400 700h-300v-650h300v650z" />
    <glyph glyph-name="ff" unicode="ff" horiz-adv-x="759" 
d="M437 0l0.000976562 387h-166v-387h-188v387h-75v106l75 17v26c0 145.333 70 218 210 218c33.333 0 63.333 -5.66699 90 -17v-122c-10.667 0.666992 -21.334 1 -32.001 1c-30 0 -50.833 -4.66699 -62.5 -14s-17.5 -27 -17.5 -53v-34h166v21c0 145.333 70 218 210 218
c44 0 83.667 -6.66699 119 -20v-122c-22 2.66699 -42.333 4 -61 4c-30 0 -50.833 -4.66699 -62.5 -14s-17.5 -27 -17.5 -53v-34h135v-128h-135v-387h-188z" />
    <glyph glyph-name="fi" unicode="fi" horiz-adv-x="689" 
d="M83 510l0.000976562 26c0 145.333 70 218 210 218c33.333 0 63.333 -5.66699 90 -17v-122c-10.667 0.666992 -21.334 1 -32.001 1c-30 0 -50.833 -4.66699 -62.5 -14s-17.5 -27 -17.5 -53v-34h354v-515h-188v387h-166v-387h-188v387h-75v106zM531.001 580
c-32 0 -57.5 8.66699 -76.5 26s-28.5 40.333 -28.5 69s9.5 51.667 28.5 69s44.5 26 76.5 26s57.5 -8.66699 76.5 -26s28.5 -40.333 28.5 -69s-9.5 -51.667 -28.5 -69s-44.5 -26 -76.5 -26z" />
    <glyph glyph-name="fl" unicode="fl" horiz-adv-x="719" 
d="M701 6c-32.667 -14 -69.333 -21 -110 -21c-53.333 0 -93 14.333 -119 43s-39 72 -39 130v582h188v-567c0 -17.333 3 -30 9 -38s16 -12 30 -12c11.333 0 25 1.33301 41 4v-121zM383.001 515l0.000976562 -128h-112v-387h-188v387h-75v106l75 17v26
c0 145.333 70 218 210 218c33.333 0 63.333 -5.66699 90 -17v-122c-10.667 0.666992 -21.334 1 -32.001 1c-30 0 -50.833 -4.66699 -62.5 -14s-17.5 -27 -17.5 -53v-34h112z" />
    <glyph glyph-name="ffi" unicode="ffi" horiz-adv-x="1043" 
d="M885 580c-32 0 -57.5 8.66699 -76.5 26s-28.5 40.333 -28.5 69s9.5 51.667 28.5 69s44.5 26 76.5 26s57.5 -8.66699 76.5 -26s28.5 -40.333 28.5 -69s-9.5 -51.667 -28.5 -69s-44.5 -26 -76.5 -26zM437 515l0.00195312 21c0 145.333 70 218 210 218
c33.333 0 63.333 -5.66699 90 -17v-122c-10.667 0.666992 -21.334 1 -32.001 1c-30 0 -50.833 -4.66699 -62.5 -14s-17.5 -27 -17.5 -53v-34h354v-515h-188v387h-166v-387h-188v387h-166v-387h-188v387h-75v106l75 17v26c0 145.333 70 218 210 218
c33.333 0 63.333 -5.66699 90 -17v-122c-10.667 0.666992 -21.334 1 -32.001 1c-30 0 -50.833 -4.66699 -62.5 -14s-17.5 -27 -17.5 -53v-34h166z" />
    <glyph glyph-name="ffl" unicode="ffl" horiz-adv-x="1073" 
d="M1055 6c-32.667 -14 -69.333 -21 -110 -21c-53.333 0 -93 14.333 -119 43s-39 72 -39 130v582h188v-567c0 -17.333 3 -30 9 -38s16 -12 30 -12c11.333 0 25 1.33301 41 4v-121zM737.001 515l0.00195312 -128h-112v-387h-188v387h-166v-387h-188v387h-75v106l75 17v26
c0 145.333 70 218 210 218c33.333 0 63.333 -5.66699 90 -17v-122c-10.667 0.666992 -21.334 1 -32.001 1c-30 0 -50.833 -4.66699 -62.5 -14s-17.5 -27 -17.5 -53v-34h166v21c0 145.333 70 218 210 218c33.333 0 63.333 -5.66699 90 -17v-122
c-10.667 0.666992 -21.334 1 -32.001 1c-30 0 -50.833 -4.66699 -62.5 -14s-17.5 -27 -17.5 -53v-34h112z" />
    <glyph glyph-name=".notdef" horiz-adv-x="500" 
d="M50 0v750h400v-750h-400zM400 700h-300v-650h300v650z" />
    <glyph glyph-name=".null" horiz-adv-x="0" 
 />
    <glyph glyph-name=".null" horiz-adv-x="0" 
 />
    <glyph glyph-name=".null" horiz-adv-x="0" 
 />
    <glyph glyph-name="nonmarkingreturn" unicode="&#x9;" horiz-adv-x="248" 
 />
    <glyph glyph-name="nonmarkingreturn" unicode="&#xd;" horiz-adv-x="248" 
 />
    <glyph glyph-name="space" unicode=" " horiz-adv-x="248" 
 />
    <glyph glyph-name="exclam" unicode="!" horiz-adv-x="326" 
d="M89 248l-29 442c34 16 68.333 24 103 24s69 -8 103 -24l-29 -442h-148zM163 -13c-32 0 -57.833 9.66699 -77.5 29s-29.5 44.666 -29.5 75.999s9.83301 56.666 29.5 75.999s45.5 29 77.5 29s57.833 -9.66699 77.5 -29s29.5 -44.666 29.5 -75.999
s-9.83301 -56.666 -29.5 -75.999s-45.5 -29 -77.5 -29z" />
    <glyph glyph-name="quotedbl" unicode="&#x22;" horiz-adv-x="512" 
d="M75 417l-22 272c26 14 54.333 21 85 21s59 -7 85 -21l-22 -272h-126zM311 417l-22 272c26 14 54.333 21 85 21s59 -7 85 -21l-22 -272h-126z" />
    <glyph glyph-name="numbersign" unicode="#" 
d="M64 0l26 161h-77v119h95l21 136h-86v119h105l26 158h129l-26 -158h103l26 158h129l-26 -158h77v-119h-95l-21 -136h86v-119h-105l-26 -161h-129l26 161h-103l-26 -161h-129zM237 280h104l21 136h-104z" />
    <glyph glyph-name="dollar" unicode="$" 
d="M62 193c49.333 -24 88.001 -40.498 116.001 -49.498s55 -14.5 81 -16.5v152l-40 14c-58.667 21.333 -101.5 46.833 -128.5 76.5s-40.5 66.5 -40.5 110.5c0 58.667 19.833 107.667 59.5 147s92.167 62.333 157.5 69v121h79v-122
c51.333 -4.66699 102.666 -21.334 153.999 -50.001v-136c-29.333 14.667 -56.333 26.167 -81 34.5s-49 14.166 -73 17.499v-157l24 -8c66.667 -23.333 114.5 -50 143.5 -80s43.5 -67.333 43.5 -112c0 -58 -20 -106.333 -60 -145s-93 -60.667 -159 -66v-123h-79v122
c-34 2 -68.5 8.83301 -103.5 20.5s-66.167 26.5 -93.5 44.5v136zM208.001 494.002c0 -16 5.16699 -29.668 15.5 -41.001s24.833 -19.666 43.5 -24.999v134c-18.667 -4 -33.167 -12 -43.5 -24s-15.5 -26.667 -15.5 -44zM397.001 190.001c0 32.667 -19.667 54.999 -59 66.999
v-129c17.333 1.33301 31.5 7.83301 42.5 19.5s16.5 25.834 16.5 42.501z" />
    <glyph glyph-name="percent" unicode="%" horiz-adv-x="984" 
d="M260 0l331 693h133l-331 -693h-133zM779 -8c-56.667 0 -101.334 18.5 -134.001 55.5s-49 88.167 -49 153.5s16.333 116.5 49 153.5s77.334 55.5 134.001 55.5s101.334 -18.5 134.001 -55.5s49 -88.167 49 -153.5s-16.333 -116.5 -49 -153.5s-77.334 -55.5 -134.001 -55.5
zM779 94c17.333 0 30 8.5 38 25.5s12 44.167 12 81.5s-4 64.5 -12 81.5s-20.667 25.5 -38 25.5s-30 -8.5 -38 -25.5s-12 -44.167 -12 -81.5s4 -64.5 12 -81.5s20.667 -25.5 38 -25.5zM205 283c-56.667 0 -101.334 18.5 -134.001 55.5s-49 88.167 -49 153.5
s16.333 116.5 49 153.5s77.334 55.5 134.001 55.5s101.334 -18.5 134.001 -55.5s49 -88.167 49 -153.5s-16.333 -116.5 -49 -153.5s-77.334 -55.5 -134.001 -55.5zM205 385c17.333 0 30 8.5 38 25.5s12 44.167 12 81.5s-4 64.5 -12 81.5s-20.667 25.5 -38 25.5
s-30 -8.5 -38 -25.5s-12 -44.167 -12 -81.5s4 -64.5 12 -81.5s20.667 -25.5 38 -25.5z" />
    <glyph glyph-name="ampersand" unicode="&#x26;" horiz-adv-x="758" 
d="M22 185c0 45.333 12.0029 83.666 36.0029 114.999s60.667 57 110 77c-29.333 34 -50 63.333 -62 88s-18 50.667 -18 78c0 51.333 20 92.166 60 122.499s94 45.5 162 45.5c69.333 0 123.5 -13.667 162.5 -41s58.5 -65.666 58.5 -114.999
c0 -77.333 -51.667 -140.666 -155 -189.999l120 -129c18 39.333 27 82.333 27 129v27h149v-40c0 -82 -23 -155 -69 -219c16 -6 38 -9 66 -9c24 0 46 1.66699 66 5v-115c-12 -6 -29.333 -11.167 -52 -15.5s-44.334 -6.5 -65.001 -6.5c-26.667 0 -49.5 3.16699 -68.5 9.5
s-38.167 16.833 -57.5 31.5c-58.667 -34 -125.334 -51 -200.001 -51c-86.667 0 -153.334 17.5 -200.001 52.5s-70 85.167 -70 150.5zM298.003 117c33.333 0 62.667 5.33301 88 16l-145 162c-15.333 -12.667 -27.333 -27.667 -36 -45s-13 -35.333 -13 -54
c0 -52.667 35.333 -79 106 -79zM247.004 539c0 -15.333 3.5 -28.667 10.5 -40s23.5 -31.333 49.5 -60c47.333 26 71 58.667 71 98c0 17.333 -6 31 -18 41s-28 15 -48 15s-35.833 -5 -47.5 -15s-17.5 -23 -17.5 -39z" />
    <glyph glyph-name="quotesingle" unicode="'" horiz-adv-x="276" 
d="M75 417l-22 272c26 14 54.333 21 85 21s59 -7 85 -21l-22 -272h-126z" />
    <glyph glyph-name="parenleft" unicode="(" horiz-adv-x="384" 
d="M197 -144c-46.667 62 -82.5 131.663 -107.5 208.996s-37.5 157.333 -37.5 240s12.5 162.667 37.5 240s60.833 147 107.5 209h175c-40.667 -61.333 -71.834 -130.666 -93.501 -207.999s-32.5 -157.666 -32.5 -240.999s10.833 -163.666 32.5 -240.999
s52.834 -146.666 93.501 -207.999h-175z" />
    <glyph glyph-name="parenright" unicode=")" horiz-adv-x="384" 
d="M187 754c46.667 -62 82.5 -131.663 107.5 -208.996s37.5 -157.333 37.5 -240s-12.5 -162.667 -37.5 -240s-60.833 -147 -107.5 -209h-175c40.667 61.333 71.834 130.666 93.501 207.999s32.5 157.666 32.5 240.999s-10.833 163.666 -32.5 240.999
s-52.834 146.666 -93.501 207.999h175z" />
    <glyph glyph-name="asterisk" unicode="*" horiz-adv-x="412" 
d="M206 450l-56 -113c-22 2.66699 -42.333 10.667 -61 24s-33.667 30.666 -45 51.999l95 79l-110 15c-1.33301 8 -2 15.667 -2 23c0 38 14 70.333 42 97l96 -59l-24 116c21.333 10 43 15 65 15s43.667 -5 65 -15l-24 -116l96 59c28 -26.667 42 -59 42 -97
c0 -7.33301 -0.666992 -15 -2 -23l-110 -15l95 -79c-11.333 -21.333 -26.333 -38.666 -45 -51.999s-39 -21.333 -61 -24z" />
    <glyph glyph-name="plus" unicode="+" 
d="M223 102v178h-167v132h167v178h152v-178h167v-132h-167v-178h-152z" />
    <glyph glyph-name="comma" unicode="," horiz-adv-x="312" 
d="M21 -165l58.999 353.002h53c42 0 72.167 -5.33301 90.5 -16s27.5 -28.334 27.5 -53.001c0 -8.66699 -1.66699 -18.834 -5 -30.501s-9.66602 -28.167 -18.999 -49.5l-88 -204h-118z" />
    <glyph glyph-name="hyphen" unicode="-" horiz-adv-x="413" 
d="M36 182v152h341v-152h-341z" />
    <glyph glyph-name="period" unicode="." horiz-adv-x="312" 
d="M156 -13c-32.667 0 -59.167 10 -79.5 30s-30.5 46 -30.5 78s10.167 58 30.5 78s46.833 30 79.5 30s59.167 -10 79.5 -30s30.5 -46 30.5 -78s-10.167 -58 -30.5 -78s-46.833 -30 -79.5 -30z" />
    <glyph glyph-name="slash" unicode="/" horiz-adv-x="555" 
d="M14 -144l340 898h187l-340 -898h-187z" />
    <glyph glyph-name="zero" unicode="0" 
d="M299 133c20 0 35.667 6.5 47 19.5s19.666 34.833 24.999 65.5s8 74 8 130c0 80 -5.83301 135.667 -17.5 167s-32.5 47 -62.5 47c-20 0 -35.667 -6.5 -47 -19.5s-19.666 -34.667 -24.999 -65s-8 -73.5 -8 -129.5c0 -80.667 5.83301 -136.667 17.5 -168s32.5 -47 62.5 -47z
M299 -15c-87.333 0 -154.333 31.333 -201 94s-70 152.334 -70 269.001s23.167 206.167 69.5 268.5s113.5 93.5 201.5 93.5c87.333 0 154.333 -31.167 201 -93.5s70 -151.833 70 -268.5s-23.167 -206.334 -69.5 -269.001s-113.5 -94 -201.5 -94z" />
    <glyph glyph-name="one" unicode="1" 
d="M253 0v512l-168 -42v139l193 84h166v-693h-191z" />
    <glyph glyph-name="two" unicode="2" 
d="M50 0l0.00292969 133.998c75.333 72.667 133.666 131.334 174.999 176.001s71.166 81.5 89.499 110.5s27.5 54.833 27.5 77.5c0 18 -6 32.667 -18 44s-28 17 -48 17c-58.667 0 -128 -27 -208 -81v149c72 55.333 151.333 83 238 83c70 0 125.667 -17.333 167 -52
s62 -81 62 -139c0 -33.333 -8.33301 -67.333 -25 -102s-44.334 -73.167 -83.001 -115.5s-94 -94.166 -166 -155.499h301v-146h-512z" />
    <glyph glyph-name="three" unicode="3" 
d="M514 559l-153 -148c58.667 -8 104.334 -29 137.001 -63s49 -77.333 49 -130c0 -72.667 -25.667 -129.667 -77 -171s-122.333 -62 -213 -62c-31.333 0 -63.5 3.66699 -96.5 11s-64.167 18 -93.5 32v141c76 -26.667 136.667 -40 182 -40c74 0 111 28.667 111 86
c0 24 -8.66699 41.667 -26 53s-44.666 17 -81.999 17c-10.667 0 -25.834 -0.833008 -45.501 -2.5s-34.834 -3.5 -45.501 -5.5v114l153 160h-244v142h444v-134z" />
    <glyph glyph-name="four" unicode="4" 
d="M340 0v127h-320v132l308 434h171v-431h82v-135h-82v-127h-159zM340 262v212l-151 -212h151z" />
    <glyph glyph-name="five" unicode="5" 
d="M58 169c82 -26.667 148.331 -40.0029 198.998 -40.0029c34.667 0 60.167 7 76.5 21s24.5 35.667 24.5 65c0 28.667 -8.66699 49.834 -26 63.501s-43.666 20.5 -78.999 20.5c-25.333 0 -54.833 -1.16699 -88.5 -3.5s-61.167 -5.16602 -82.5 -8.49902v113l19 293h417v-142
h-262l-9 -129c25.333 6 49.333 9 72 9c68.667 0 123.834 -19.333 165.501 -58s62.5 -90 62.5 -154c0 -48.667 -11.667 -90.667 -35 -126s-55.833 -62.166 -97.5 -80.499s-90.5 -27.5 -146.5 -27.5c-77.333 0 -147.333 14.667 -210 44v140z" />
    <glyph glyph-name="six" unicode="6" 
d="M372 570c-48.667 0 -84.8311 -13.3311 -108.498 -39.998s-37.5 -69.334 -41.5 -128.001c44 24 90.333 36 139 36c64 0 115 -18.833 153 -56.5s57 -87.834 57 -150.501c0 -74.667 -24.167 -134.334 -72.5 -179.001s-113.5 -67 -195.5 -67c-86 0 -151.5 28.333 -196.5 85
s-67.5 139.334 -67.5 248.001c0 123.333 27.333 219.5 82 288.5s130.667 103.5 228 103.5c30.667 0 61.667 -3.5 93 -10.5s58.666 -16.167 81.999 -27.5v-129c-21.333 8 -45.833 14.5 -73.5 19.5s-53.834 7.5 -78.501 7.5zM298.003 305.002
c-24.667 0 -49.668 -5.33496 -75.001 -16.002c0.666992 -59.333 7.5 -101.5 20.5 -126.5s35.5 -37.5 67.5 -37.5c26.667 0 46.334 6.83301 59.001 20.5s19 34.834 19 63.501c0 30.667 -7.83301 54.334 -23.5 71.001s-38.167 25 -67.5 25z" />
    <glyph glyph-name="seven" unicode="7" 
d="M109 0l250 547h-322v146h517v-136l-241 -557h-204z" />
    <glyph glyph-name="eight" unicode="8" 
d="M541 525c0 -32 -9.00195 -61.498 -27.002 -88.498s-42.667 -48.167 -74 -63.5c44.667 -22.667 76.834 -47.5 96.501 -74.5s29.5 -60.167 29.5 -99.5c0 -67.333 -23.5 -119.833 -70.5 -157.5s-112.833 -56.5 -197.5 -56.5c-55.333 0 -102.833 8 -142.5 24
s-70.167 38.5 -91.5 67.5s-32 62.833 -32 101.5c0 40.667 9.66699 76 29 106s48 53.667 86 71c-30.667 19.333 -53.167 41.166 -67.5 65.499s-21.5 53.833 -21.5 88.5c0 61.333 21.833 110.333 65.5 147s101.834 55 174.501 55c72 0 130.5 -17.333 175.5 -52
s67.5 -79.334 67.5 -134.001zM249.998 306.002c-27.333 -27.333 -40.998 -59.668 -40.998 -97.001c0 -28 7.66699 -49.667 23 -65s38 -23 68 -23c28.667 0 50.667 6.66699 66 20s23 32.333 23 57c0 13.333 -3.33301 24.833 -10 34.5s-17.834 19.334 -33.501 29.001
s-37.834 20.5 -66.501 32.5zM228 519c0 -38.667 30.667 -70.333 92 -95l18 -8c22 26 33 54.333 33 85c0 26.667 -6.66699 47 -20 61s-32 21 -56 21c-21.333 0 -37.833 -5.5 -49.5 -16.5s-17.5 -26.833 -17.5 -47.5z" />
    <glyph glyph-name="nine" unicode="9" 
d="M59 163c28 -12 57.332 -21.3311 87.999 -27.998s58.334 -10 83.001 -10c47.333 0 81.666 11.667 102.999 35s34.333 63.666 39 120.999c-16.667 -10.667 -37.167 -19.167 -61.5 -25.5s-48.5 -9.5 -72.5 -9.5c-42 0 -78.667 9.33301 -110 28s-55.333 44.167 -72 76.5
s-25 69.5 -25 111.5c0 50 11.333 93.833 34 131.5s54 66.5 94 86.5s85.667 30 137 30c84 0 148.667 -28.833 194 -86.5s68 -139.834 68 -246.501c0 -126.667 -26.167 -223.667 -78.5 -291s-128.166 -101 -227.499 -101c-36 0 -71.167 4.33301 -105.5 13
s-63.5 20.667 -87.5 36v129zM300.999 379.002c28 0 52.334 5 73.001 15c-0.666992 62 -7.16699 106.833 -19.5 134.5s-32.833 41.5 -61.5 41.5c-24.667 0 -43.834 -7.66699 -57.501 -23s-20.5 -37 -20.5 -65c0 -33.333 7.33301 -58.833 22 -76.5s36 -26.5 64 -26.5z" />
    <glyph glyph-name="colon" unicode=":" horiz-adv-x="312" 
d="M156 -13c-32.667 0 -59.167 10 -79.5 30s-30.5 46 -30.5 78s10.167 58 30.5 78s46.833 30 79.5 30s59.167 -10 79.5 -30s30.5 -46 30.5 -78s-10.167 -58 -30.5 -78s-46.833 -30 -79.5 -30zM156 312c-32.667 0 -59.167 10 -79.5 30s-30.5 46 -30.5 78s10.167 58 30.5 78
s46.833 30 79.5 30s59.167 -10 79.5 -30s30.5 -46 30.5 -78s-10.167 -58 -30.5 -78s-46.833 -30 -79.5 -30z" />
    <glyph glyph-name="semicolon" unicode=";" horiz-adv-x="312" 
d="M21 -165l58.999 353.002h53c42 0 72.167 -5.33301 90.5 -16s27.5 -28.334 27.5 -53.001c0 -8.66699 -1.66699 -18.834 -5 -30.501s-9.66602 -28.167 -18.999 -49.5l-88 -204h-118zM155.999 312.002c-32.667 0 -59.167 10 -79.5 30s-30.5 46 -30.5 78s10.167 58 30.5 78
s46.833 30 79.5 30s59.167 -10 79.5 -30s30.5 -46 30.5 -78s-10.167 -58 -30.5 -78s-46.833 -30 -79.5 -30z" />
    <glyph glyph-name="less" unicode="&#x3c;" 
d="M64 274v144l469 185v-163l-295 -93l295 -92v-166z" />
    <glyph glyph-name="equal" unicode="=" 
d="M56 393v132h486v-132h-486zM56 173v132h486v-132h-486z" />
    <glyph glyph-name="greater" unicode="&#x3e;" 
d="M534 418v-144l-469 -185v163l296 93l-296 92v166z" />
    <glyph glyph-name="question" unicode="?" horiz-adv-x="458" 
d="M255 511c0 20.667 -6.50098 36.332 -19.501 46.999s-31.833 16 -56.5 16c-44.667 0 -95.667 -13.333 -153 -40v133c60.667 31.333 124 47 190 47c68.667 0 122.334 -16.5 161.001 -49.5s58 -78.833 58 -137.5c0 -46 -13 -86 -39 -120s-68.667 -67 -128 -99v-60h-146
l-11 124l58 31c30.667 16.667 52.667 33.334 66 50.001s20 36 20 58zM196.999 -13.002c-32 0 -57.833 9.66699 -77.5 29s-29.5 44.666 -29.5 75.999s9.83301 56.666 29.5 75.999s45.5 29 77.5 29s57.833 -9.66699 77.5 -29s29.5 -44.666 29.5 -75.999
s-9.83301 -56.666 -29.5 -75.999s-45.5 -29 -77.5 -29z" />
    <glyph glyph-name="at" unicode="@" horiz-adv-x="999" 
d="M449 -96c58 0 117.333 8.99902 178 26.999v-112c-51.333 -24.667 -115.666 -37 -192.999 -37c-83.333 0 -154.666 15.5 -213.999 46.5s-104.5 75.333 -135.5 133s-46.5 125.834 -46.5 204.501c0 99.333 23.667 188 71 266s110.5 138.333 189.5 181s166.5 64 262.5 64
c84 0 156.167 -14.833 216.5 -44.5s106 -71.834 137 -126.501s46.5 -119.334 46.5 -194.001c0 -63.333 -11.333 -119.666 -34 -168.999s-53.334 -87.333 -92.001 -114s-81.667 -40 -129 -40c-32.667 0 -61 5.33301 -85 16s-42.667 25.667 -56 45
c-15.333 -18 -35.333 -33 -60 -45s-48.334 -18 -71.001 -18c-53.333 0 -93.5 15.5 -120.5 46.5s-40.5 76.833 -40.5 137.5c0 54.667 11 105.334 33 152.001s49.833 83.167 83.5 109.5s68.5 39.5 104.5 39.5c46 0 83 -17.667 111 -53l16 38h126l-53 -304
c-2 -8.66699 -3 -17.667 -3 -27c0 -8.66699 3 -15.667 9 -21s14 -8 24 -8c28 0 51.5 20.167 70.5 60.5s28.5 90.5 28.5 150.5c0 164.667 -89.333 247 -268 247c-72 0 -136.167 -17.167 -192.5 -51.5s-99.5 -80.833 -129.5 -139.5s-45 -124 -45 -196
c0 -84 22.5 -149 67.5 -195s109.5 -69 193.5 -69zM490 100.999c9.33301 0 19.165 2.83203 29.498 8.49902s18.833 13.167 25.5 22.5c0 10.667 1.33301 23.667 4 39l30 174c-19.333 8.66699 -36.666 13 -51.999 13c-25.333 0 -47.666 -17.167 -66.999 -51.5
s-29 -74.166 -29 -119.499c0 -57.333 19.667 -86 59 -86z" />
    <glyph glyph-name="A" unicode="A" horiz-adv-x="705" 
d="M492 0l-38 134h-212l-36 -134h-204l244 693h213l244 -693h-211zM278 270h140l-71 257z" />
    <glyph glyph-name="B" unicode="B" horiz-adv-x="651" 
d="M74 693h273.999c71.333 0 128.333 -16.833 171 -50.5s64 -78.5 64 -134.5c0 -31.333 -7.66699 -59 -23 -83s-37.666 -43 -66.999 -57c40.667 -14.667 71.5 -36.5 92.5 -65.5s31.5 -63.833 31.5 -104.5s-10.833 -76 -32.5 -106s-52 -52.833 -91 -68.5
s-84.167 -23.5 -135.5 -23.5h-284v693zM253.999 290v-158h93c28 0 48.667 6.16699 62 18.5s20 31.833 20 58.5c0 54 -30.333 81 -91 81h-84zM253.999 561l0.000976562 -146.001h68c50 0 75 23.667 75 71c0 24.667 -5.83301 43.334 -17.5 56.001s-28.834 19 -51.501 19h-74z
" />
    <glyph glyph-name="C" unicode="C" horiz-adv-x="623" 
d="M595 18c-54.667 -20.667 -117.997 -31.002 -189.997 -31.002c-114.667 0 -201.834 30.333 -261.501 91s-89.5 149.334 -89.5 266.001c0 114.667 31.167 203.667 93.5 267s149.166 95 260.499 95c61.333 0 120.333 -9.66699 177 -29v-146c-56 12 -104 18 -144 18
c-61.333 0 -107.666 -16.167 -138.999 -48.5s-47 -80.166 -47 -143.499v-22c0 -62 15.167 -109.333 45.5 -142s75.166 -49 134.499 -49c45.333 0 98.666 6.66699 159.999 20v-146z" />
    <glyph glyph-name="D" unicode="D" horiz-adv-x="735" 
d="M74 0l-0.00195312 693h271c106.667 0 189.334 -30 248.001 -90s88 -145.333 88 -256c0 -72.667 -13 -135.167 -39 -187.5s-63.167 -92 -111.5 -119s-106.166 -40.5 -173.499 -40.5h-283zM266.998 545v-397h66c100.667 0 151 63.333 151 190v18
c0 126 -49.667 189 -149 189h-68z" />
    <glyph glyph-name="E" unicode="E" horiz-adv-x="593" 
d="M74 0v693h483v-146h-295v-121h240v-146h-240v-134h297v-146h-485z" />
    <glyph glyph-name="F" unicode="F" horiz-adv-x="557" 
d="M74 0v693h465v-148h-272v-145h220v-148h-220v-252h-193z" />
    <glyph glyph-name="G" unicode="G" horiz-adv-x="727" 
d="M431 135c22 0 42.6689 1.33203 62.002 3.99902v128h-115v134h287v-358c-32.667 -16.667 -73.334 -30.167 -122.001 -40.5s-97 -15.5 -145 -15.5c-72.667 0 -134.834 14.167 -186.501 42.5s-90.834 68.833 -117.501 121.5s-40 115.334 -40 188.001
c0 117.333 32.5 207.833 97.5 271.5s156.833 95.5 275.5 95.5c35.333 0 72.5 -4.16699 111.5 -12.5s72.167 -19.166 99.5 -32.499v-140c-30.667 10 -63.667 18 -99 24s-66.666 9 -93.999 9c-66.667 0 -116 -16.833 -148 -50.5s-48 -84.834 -48 -153.501v-15
c0 -133.333 60.667 -200 182 -200z" />
    <glyph glyph-name="H" unicode="H" horiz-adv-x="759" 
d="M492 0v277h-225v-277h-193v693h193v-266h225v266h193v-693h-193z" />
    <glyph glyph-name="I" unicode="I" horiz-adv-x="349" 
d="M78 0v693h193v-693h-193z" />
    <glyph glyph-name="J" unicode="J" horiz-adv-x="471" 
d="M16 150c34 -8 67.002 -12 99.002 -12c33.333 0 57.166 7.83301 71.499 23.5s21.5 42.5 21.5 80.5v451h193v-450c0 -87.333 -20.833 -152.5 -62.5 -195.5s-104.5 -64.5 -188.5 -64.5c-48.667 0 -93.334 8 -134.001 24v143z" />
    <glyph glyph-name="K" unicode="K" horiz-adv-x="722" 
d="M74 0v693h193v-286l224 286h215l-261 -319l284 -374h-224l-238 328v-328h-193z" />
    <glyph glyph-name="L" unicode="L" horiz-adv-x="561" 
d="M74 0v693h193v-537h289v-156h-482z" />
    <glyph glyph-name="M" unicode="M" horiz-adv-x="889" 
d="M649 0v428l-120 -270h-169l-120 270v-428h-166v693h205l168 -376l170 376h198v-693h-166z" />
    <glyph glyph-name="N" unicode="N" horiz-adv-x="757" 
d="M240 434v-434h-166v693h200l243 -438v438h166v-693h-200z" />
    <glyph glyph-name="O" unicode="O" horiz-adv-x="807" 
d="M403 -17c-72.667 0 -135.333 15.168 -188 45.501s-92.667 72.833 -120 127.5s-41 118.667 -41 192c0 75.333 14.333 140.166 43 194.499s69.167 95.833 121.5 124.5s113.833 43 184.5 43c72.667 0 135.334 -15 188.001 -45s92.834 -72.333 120.501 -127
s41.5 -119 41.5 -193c0 -75.333 -14.333 -140.333 -43 -195s-69.334 -96.167 -122.001 -124.5s-114.334 -42.5 -185.001 -42.5zM403.001 136.001c50.667 0 88.833 17.667 114.5 53s38.5 87.333 38.5 156c0 70 -13 122.833 -39 158.5s-64 53.5 -114 53.5
s-87.833 -17.667 -113.5 -53s-38.5 -87.333 -38.5 -156c0 -69.333 12.833 -122 38.5 -158s63.5 -54 113.5 -54z" />
    <glyph glyph-name="P" unicode="P" horiz-adv-x="636" 
d="M260 225v-224.998h-186v693h284c79.333 0 142.166 -20.833 188.499 -62.5s69.5 -98.834 69.5 -171.501s-23.167 -129.834 -69.5 -171.501s-109.166 -62.5 -188.499 -62.5h-98zM260 365.002h70c30.667 0 54.334 8.33301 71.001 25s25 39.667 25 69s-8.33301 52.333 -25 69
s-40.334 25 -71.001 25h-70v-188z" />
    <glyph glyph-name="Q" unicode="Q" horiz-adv-x="807" 
d="M739 -185c-62.667 7.33301 -125.502 26.335 -188.502 57.002s-116.833 68 -161.5 112c-104 3.33301 -185.833 37.333 -245.5 102s-89.5 152 -89.5 262c0 75.333 14.333 140.166 43 194.499s69.167 95.833 121.5 124.5s113.833 43 184.5 43
c72.667 0 135.334 -15 188.001 -45s92.834 -72.333 120.501 -127s41.5 -119 41.5 -193c0 -83.333 -17.5 -154 -52.5 -212s-85.167 -99.667 -150.5 -125c24 -12.667 50.5 -22.334 79.5 -29.001s65.5 -10.667 109.5 -12v-152zM402.998 136.002
c50.667 0 88.833 17.667 114.5 53s38.5 87.333 38.5 156c0 70 -13 122.833 -39 158.5s-64 53.5 -114 53.5s-87.833 -17.667 -113.5 -53s-38.5 -87.333 -38.5 -156c0 -69.333 12.833 -122 38.5 -158s63.5 -54 113.5 -54z" />
    <glyph glyph-name="R" unicode="R" horiz-adv-x="667" 
d="M74 0l-0.000976562 692.999h286c79.333 0 142.333 -20.167 189 -60.5s70 -95.166 70 -164.499c0 -40.667 -9.16699 -77 -27.5 -109s-44.166 -57.667 -77.499 -77l153 -282h-200l-122 242h-88v-242h-183zM256.999 371.999h82.001c29.333 0 52.166 8 68.499 24
s24.5 39 24.5 69c0 60.667 -31.667 91 -95 91h-80v-184z" />
    <glyph glyph-name="S" unicode="S" horiz-adv-x="603" 
d="M221 280c-63.333 22 -109.004 49.668 -137.004 83.001s-42 77 -42 131c0 44 12 82.333 36 115s56.833 57.667 98.5 75s89.5 26 143.5 26c70 0 136.333 -12 199 -36v-140c-63.333 18 -124.333 27 -183 27c-68.667 0 -103 -18 -103 -54c0 -13.333 6 -24.666 18 -33.999
s34 -19.333 66 -30l60 -20c68.667 -22.667 117.5 -49.834 146.5 -81.501s43.5 -73.834 43.5 -126.501c0 -73.333 -26.167 -130.333 -78.5 -171s-125.833 -61 -220.5 -61c-40.667 0 -80 3.5 -118 10.5s-70.333 16.5 -97 28.5v142
c32.667 -8.66699 68.834 -15.834 108.501 -21.501s75.834 -8.5 108.501 -8.5c34.667 0 60.334 4.5 77.001 13.5s25 23.167 25 42.5c0 10.667 -2.16699 19.334 -6.5 26.001s-12.666 13.167 -24.999 19.5s-32.833 14.5 -61.5 24.5z" />
    <glyph glyph-name="T" unicode="T" horiz-adv-x="613" 
d="M210 0v542h-201v151h595v-151h-201v-542h-193z" />
    <glyph glyph-name="U" unicode="U" horiz-adv-x="747" 
d="M373 -17c-96 0 -170.5 23.5 -223.5 70.5s-79.5 113.833 -79.5 200.5v439h193v-445c0 -36.667 9.33301 -64.5 28 -83.5s46 -28.5 82 -28.5c74 0 111 37.333 111 112v445h193v-440c0 -86 -26.667 -152.5 -80 -199.5s-128 -70.5 -224 -70.5z" />
    <glyph glyph-name="V" unicode="V" horiz-adv-x="703" 
d="M248 0l-246 693h214l138 -511l138 511h209l-246 -693h-207z" />
    <glyph glyph-name="W" unicode="W" horiz-adv-x="994" 
d="M594 0l-98 453l-96 -453h-203l-187 693h212l81 -479l99 465h196l99 -472l82 486h205l-186 -693h-204z" />
    <glyph glyph-name="X" unicode="X" horiz-adv-x="664" 
d="M447 0l-118 222l-116 -222h-211l221 357l-203 336h215l99 -195l99 195h211l-206 -334l224 -359h-215z" />
    <glyph glyph-name="Y" unicode="Y" horiz-adv-x="664" 
d="M234 0v261l-232 432h211l123 -294l125 294h201l-235 -434v-259h-193z" />
    <glyph glyph-name="Z" unicode="Z" horiz-adv-x="617" 
d="M34 0v134l328 413h-313v146h528v-134l-325 -413h331v-146h-549z" />
    <glyph glyph-name="bracketleft" unicode="[" horiz-adv-x="390" 
d="M74 -144v898h302v-132h-110v-634h110v-132h-302z" />
    <glyph glyph-name="backslash" unicode="\" horiz-adv-x="555" 
d="M354 -144l-340 898h187l340 -898h-187z" />
    <glyph glyph-name="bracketright" unicode="]" horiz-adv-x="390" 
d="M316 754v-898h-302v132h110v634h-110v132h302z" />
    <glyph glyph-name="asciicircum" unicode="^" 
d="M396 267l-97 263l-100 -263h-176l201 426h150l201 -426h-179z" />
    <glyph glyph-name="underscore" unicode="_" horiz-adv-x="500" 
d="M0 -185v144h500v-144h-500z" />
    <glyph glyph-name="grave" unicode="`" horiz-adv-x="630" 
d="M310 600l-142 177h192l102 -177h-152z" />
    <glyph glyph-name="a" unicode="a" horiz-adv-x="566" 
d="M357 0l-14.001 39.999c-20 -18.667 -42.667 -33 -68 -43s-51.333 -15 -78 -15c-49.333 0 -89.166 14.333 -119.499 43s-45.5 67 -45.5 115c0 34 9 63.833 27 89.5s42.667 45.334 74 59.001s67 20.5 107 20.5c30 0 60 -3 90 -9v26c0 28 -6.33301 47.333 -19 58
s-35 16 -67 16c-46.667 0 -103.667 -10.333 -171 -31v116c27.333 14 60.333 25 99 33s78.334 12 119.001 12c73.333 0 127.166 -14.833 161.499 -44.5s51.5 -76.5 51.5 -140.5v-345h-147zM257.999 100.999c12.667 0 25.667 2.83203 39 8.49902s24.333 12.834 33 21.501v74
c-18.667 2.66699 -37 4 -55 4c-44.667 0 -67 -18.667 -67 -56c0 -16 4.5 -28.667 13.5 -38s21.167 -14 36.5 -14z" />
    <glyph glyph-name="b" unicode="b" horiz-adv-x="630" 
d="M64 0v740.001h188v-256c18.667 14.667 39.5 26 62.5 34s46.167 12 69.5 12c64 0 114.667 -23.667 152 -71s56 -112 56 -194c0 -56.667 -9.33301 -105.834 -28 -147.501s-44.5 -73.5 -77.5 -95.5s-70.167 -33 -111.5 -33c-28 0 -54.833 5 -80.5 15s-45.5 22.667 -59.5 38
l-13 -42h-158zM319 400.001c-23.333 0 -45.666 -5 -66.999 -15v-249c21.333 -10 43.666 -15 66.999 -15c30 0 51.333 10.667 64 32s19 56.333 19 105c0 50 -6.33301 86.167 -19 108.5s-34 33.5 -64 33.5z" />
    <glyph glyph-name="c" unicode="c" horiz-adv-x="490" 
d="M459 23c-20.667 -10.667 -44.668 -19 -72.001 -25s-55.666 -9 -84.999 -9c-86 0 -151.5 22.5 -196.5 67.5s-67.5 110.833 -67.5 197.5c0 86 23.833 152.833 71.5 200.5s114.5 71.5 200.5 71.5c57.333 0 106.333 -11 147 -33v-119c-38.667 12 -75 18 -109 18
c-41.333 0 -71.666 -10.333 -90.999 -31s-29 -53 -29 -97v-14c0 -43.333 9.66699 -75.333 29 -96s48.666 -31 87.999 -31c36 0 74 6.33301 114 19v-119z" />
    <glyph glyph-name="d" unicode="d" horiz-adv-x="627" 
d="M247 -11c-65.333 0 -116.5 23.667 -153.5 71s-55.5 112.333 -55.5 195c0 56.667 9.16699 105.667 27.5 147s43.833 73 76.5 95s70 33 112 33c46 0 86.333 -12.667 121 -38v248h188v-740h-158l-15 46c-18 -18 -39.5 -32 -64.5 -42s-51.167 -15 -78.5 -15zM312 121
c18 0 39 5.00098 63 15.001v250c-20.667 9.33301 -44 14 -70 14c-26.667 0 -46.167 -11.333 -58.5 -34s-18.5 -58.334 -18.5 -107.001c0 -48 6.5 -83 19.5 -105s34.5 -33 64.5 -33z" />
    <glyph glyph-name="e" unicode="e" horiz-adv-x="554" 
d="M209 210c3.33301 -33.333 16.166 -57.499 38.499 -72.499s55.833 -22.5 100.5 -22.5c42.667 0 94.667 8.66699 156 26v-115c-25.333 -12.667 -55.666 -22.667 -90.999 -30s-70.333 -11 -105 -11c-180 0 -270 90.667 -270 272c0 85.333 23 152.166 69 200.499
s110 72.5 192 72.5c69.333 0 123 -18.5 161 -55.5s57 -89.833 57 -158.5c0 -15.333 -1.16699 -33.5 -3.5 -54.5s-4.83301 -38.167 -7.5 -51.5h-297zM294 405.001c-24 0 -43.333 -7.5 -58 -22.5s-23.667 -36.5 -27 -64.5h150v12c0 50 -21.667 75 -65 75z" />
    <glyph glyph-name="f" unicode="f" horiz-adv-x="405" 
d="M293 754c44 0 83.667 -6.66699 119 -20v-122c-22 2.66699 -42.333 4 -61 4c-30 0 -50.833 -4.66699 -62.5 -14s-17.5 -27 -17.5 -53v-34h135v-128h-135v-387h-188v387h-75v106l75 17v26c0 145.333 70 218 210 218z" />
    <glyph glyph-name="g" unicode="g" horiz-adv-x="612" 
d="M364 57c-36 -29.333 -76.668 -44.0029 -122.001 -44.0029c-41.333 0 -77.5 10.833 -108.5 32.5s-54.667 51.834 -71 90.501s-24.5 83.334 -24.5 134.001c0 52.667 9 98.834 27 138.501s42.667 69.834 74 90.501s66.666 31 105.999 31c28 0 53.833 -4.66699 77.5 -14
s43.834 -23 60.501 -41l12 40h153v-469c0 -82.667 -23.833 -147.334 -71.5 -194.001s-113.5 -70 -197.5 -70c-37.333 0 -71.166 3.33301 -101.499 10s-62.166 18 -95.499 34v118c63.333 -20 119.666 -30 168.999 -30c40 0 68.833 8 86.5 24s26.5 42.333 26.5 79v40z
M303.999 142.997c18.667 0 38.668 4.99902 60.001 14.999v228c-22 9.33301 -44.667 14 -68 14c-24.667 0 -42.834 -10.333 -54.501 -31s-17.5 -52 -17.5 -94c0 -47.333 6.16699 -81.166 18.5 -101.499s32.833 -30.5 61.5 -30.5z" />
    <glyph glyph-name="h" unicode="h" horiz-adv-x="630" 
d="M380 0l-0.000976562 338c0 20 -3.83301 34.667 -11.5 44s-20.5 14 -38.5 14c-24.667 0 -50.667 -8.33301 -78 -25v-371h-188v740h188v-267c28.667 20 56.334 34.5 83.001 43.5s55 13.5 85 13.5c48 0 84.667 -13 110 -39s38 -63 38 -111v-380h-188z" />
    <glyph glyph-name="i" unicode="i" horiz-adv-x="316" 
d="M64 0v515h188v-515h-188zM158 580c-32 0 -57.5 8.66699 -76.5 26s-28.5 40.333 -28.5 69s9.5 51.667 28.5 69s44.5 26 76.5 26s57.5 -8.66699 76.5 -26s28.5 -40.333 28.5 -69s-9.5 -51.667 -28.5 -69s-44.5 -26 -76.5 -26z" />
    <glyph glyph-name="j" unicode="j" horiz-adv-x="316" 
d="M64 515h188v-542c0 -64.667 -14.667 -112.667 -44 -144s-74.333 -47 -135 -47c-40.667 0 -79.667 6 -117 18v121c20 -2 38.667 -3 56 -3c18.667 0 32 3.66699 40 11s12 19.333 12 36v550zM158 580c-32 0 -57.5 8.66699 -76.5 26s-28.5 40.333 -28.5 69
s9.5 51.667 28.5 69s44.5 26 76.5 26s57.5 -8.66699 76.5 -26s28.5 -40.333 28.5 -69s-9.5 -51.667 -28.5 -69s-44.5 -26 -76.5 -26z" />
    <glyph glyph-name="k" unicode="k" horiz-adv-x="631" 
d="M64 0v740h186v-437l148 212h216l-192 -240l213 -275h-224l-161 230v-230h-186z" />
    <glyph glyph-name="l" unicode="l" horiz-adv-x="350" 
d="M332 6c-32.667 -14 -69.333 -21 -110 -21c-53.333 0 -93 14.333 -119 43s-39 72 -39 130v582h188v-567c0 -17.333 3 -30 9 -38s16 -12 30 -12c11.333 0 25 1.33301 41 4v-121z" />
    <glyph glyph-name="m" unicode="m" horiz-adv-x="940" 
d="M690 0l-0.00195312 346c0 33.333 -15.333 50 -46 50c-25.333 0 -51.666 -7.33301 -78.999 -22v-374h-188v346c0 33.333 -15.333 50 -46 50c-25.333 0 -51.666 -7.33301 -78.999 -22v-374h-188v515h153l16 -50c32 23.333 62.333 40 91 50s59.334 15 92.001 15
c29.333 0 54.666 -5.33301 75.999 -16s38.333 -26 51 -46c33.333 22 64.333 37.833 93 47.5s59.667 14.5 93 14.5c46.667 0 83.167 -12.833 109.5 -38.5s39.5 -61.5 39.5 -107.5v-384h-188z" />
    <glyph glyph-name="n" unicode="n" horiz-adv-x="630" 
d="M380 0v338c0 20 -3.83301 34.667 -11.5 44s-20.5 14 -38.5 14c-24.667 0 -50.667 -8.33301 -78 -25v-371h-188v515h153l16 -52c31.333 23.333 62 40.333 92 51s61.667 16 95 16c48 0 84.667 -13 110 -39s38 -63 38 -111v-380h-188z" />
    <glyph glyph-name="o" unicode="o" horiz-adv-x="610" 
d="M305 -15c-83.333 0 -148.666 24 -195.999 72s-71 115 -71 201c0 85.333 23.667 152 71 200s112.666 72 195.999 72s148.666 -24 195.999 -72s71 -114.667 71 -200c0 -86 -23.667 -153 -71 -201s-112.666 -72 -195.999 -72zM305 117c51.333 0 77 47 77 141
c0 93.333 -25.667 140 -77 140s-77 -46.667 -77 -140c0 -94 25.667 -141 77 -141z" />
    <glyph glyph-name="p" unicode="p" horiz-adv-x="630" 
d="M64 -206l0.000976562 721.001h153l14 -46c20 19.333 43.5 34.333 70.5 45s54.5 16 82.5 16c64 0 114.667 -23.667 152 -71s56 -112 56 -194c0 -56.667 -9.33301 -105.834 -28 -147.501s-44.5 -73.5 -77.5 -95.5s-70.167 -33 -111.5 -33
c-22.667 0 -44.834 3.33301 -66.501 10s-40.5 16 -56.5 28v-233h-188zM319.001 398.001c-23.333 0 -45.666 -5.00195 -66.999 -15.002v-249c21.333 -10 43.666 -15 66.999 -15c30 0 51.333 11 64 33s19 57.333 19 106c0 32.667 -2.66699 59.334 -8 80.001
s-14 35.834 -26 45.501s-28.333 14.5 -49 14.5z" />
    <glyph glyph-name="q" unicode="q" horiz-adv-x="627" 
d="M247 -11c-65.333 0 -116.5 23.667 -153.5 71s-55.5 112.333 -55.5 195c0 56.667 9.16699 105.667 27.5 147s43.833 73 76.5 95s70 33 112 33c56.667 0 104.667 -18.333 144 -55l12 40h153v-721h-188v239c-38 -29.333 -80.667 -44 -128 -44zM312 119c18 0 39 5 63 15v250
c-20.667 9.33301 -44 14 -70 14c-26.667 0 -46.167 -11.167 -58.5 -33.5s-18.5 -57.5 -18.5 -105.5s6.5 -83.333 19.5 -106s34.5 -34 64.5 -34z" />
    <glyph glyph-name="r" unicode="r" horiz-adv-x="433" 
d="M432 351c-21.333 3.33301 -43.333 5 -66 5c-42 0 -80 -5.66699 -114 -17v-339h-188v515h153l23 -78c47.333 56 98 84 152 84c14 0 27.333 -1 40 -3v-167z" />
    <glyph glyph-name="s" unicode="s" horiz-adv-x="461" 
d="M269 145c0 9.33301 -2.99902 16.5 -8.99902 21.5s-18.333 11.167 -37 18.5l-74 29c-42 16.667 -72.333 37.167 -91 61.5s-28 56.166 -28 95.499c0 32.667 9.16699 61 27.5 85s43.666 42.333 75.999 55s69.833 19 112.5 19c61.333 0 117.333 -13 168 -39v-114
c-54.667 16.667 -105.334 25 -152.001 25c-22.667 0 -38.667 -2 -48 -6s-14 -11.333 -14 -22c0 -8 3.5 -14.667 10.5 -20s18.833 -11.333 35.5 -18l74 -29c46 -18 77.667 -38 95 -60s26 -52.333 26 -91c0 -52.667 -19.5 -94.5 -58.5 -125.5s-91.833 -46.5 -158.5 -46.5
c-77.333 0 -141.333 14.667 -192 44v116c40.667 -11.333 74.5 -19.166 101.5 -23.499s54.167 -6.5 81.5 -6.5c18.667 0 32.334 2.5 41.001 7.5s13 12.833 13 23.5z" />
    <glyph glyph-name="t" unicode="t" horiz-adv-x="413" 
d="M395 13c-39.333 -14.667 -84.333 -22 -135 -22c-63.333 0.666992 -110 15.5 -140 44.5s-45 74.833 -45 137.5v214h-71v106l76 18l30 138h153v-134h130v-128h-130v-202c0 -20 5 -34 15 -42s27 -12 51 -12c18.667 0 40.667 2 66 6v-124z" />
    <glyph glyph-name="u" unicode="u" horiz-adv-x="622" 
d="M405 0l-16 51c-58.667 -44 -117.667 -66 -177 -66c-48 0 -85.333 13.833 -112 41.5s-40 65.5 -40 113.5v375h188v-339c0 -20 3.83301 -34.5 11.5 -43.5s20.167 -13.5 37.5 -13.5c24 0 48.333 7 73 21v375h188v-515h-153z" />
    <glyph glyph-name="v" unicode="v" horiz-adv-x="560" 
d="M193 0l-193 515h199l82 -340l85 340h194l-191 -515h-176z" />
    <glyph glyph-name="w" unicode="w" horiz-adv-x="834" 
d="M490 0l-74 323l-73 -323h-178l-162 515h198l61 -334l78 334h161l81 -334l56 334h193l-162 -515h-179z" />
    <glyph glyph-name="x" unicode="x" horiz-adv-x="539" 
d="M340 0l-76 141l-69 -141h-192l166 261l-169 254h199l74 -132l65 132h192l-165 -244l174 -271h-199z" />
    <glyph glyph-name="y" unicode="y" horiz-adv-x="562" 
d="M103 -83c26.667 0 47.833 5.16699 63.5 15.5s28.5 27.5 38.5 51.5l-205 531h199l88 -342l81 342h194l-204 -567c-20.667 -58 -46.667 -100.167 -78 -126.5s-71.333 -39.5 -120 -39.5c-41.333 0 -80 6 -116 18v120c15.333 -2 35 -3 59 -3z" />
    <glyph glyph-name="z" unicode="z" horiz-adv-x="501" 
d="M26 0v124l243 263h-233v128h433v-124l-245 -263h251v-128h-449z" />
    <glyph glyph-name="braceleft" unicode="{" horiz-adv-x="413" 
d="M399 -133c-14.667 -6.66699 -29.5 -11.4961 -44.5 -14.4961s-33.167 -4.5 -54.5 -4.5c-61.333 0 -109.833 18.667 -145.5 56s-53.5 88.666 -53.5 153.999v123c0 19.333 -4.66699 33.166 -14 41.499s-24 12.5 -44 12.5h-22v140h22c20 0 34.667 4.16699 44 12.5
s14 22.166 14 41.499v123c0 65.333 17.833 116.666 53.5 153.999s84.167 56 145.5 56c21.333 0 39.5 -1.5 54.5 -4.5s29.833 -7.83301 44.5 -14.5v-117c-18.667 2.66699 -35.667 4 -51 4c-36.667 0 -55 -19.667 -55 -59v-142c0 -33.333 -9.16699 -59.833 -27.5 -79.5
s-47.5 -34.5 -87.5 -44.5c40 -10 69.167 -24.833 87.5 -44.5s27.5 -46.167 27.5 -79.5v-142c0 -39.333 18.333 -59 55 -59c15.333 0 32.333 1.33301 51 4v-117z" />
    <glyph glyph-name="bar" unicode="|" horiz-adv-x="351" 
d="M80 -206v960h191v-960h-191z" />
    <glyph glyph-name="braceright" unicode="}" horiz-adv-x="413" 
d="M14 743c14.667 6.66699 29.5 11.4961 44.5 14.4961s33.167 4.5 54.5 4.5c61.333 0 109.833 -18.667 145.5 -56s53.5 -88.666 53.5 -153.999v-123c0 -19.333 4.66699 -33.166 14 -41.499s24 -12.5 44 -12.5h22v-140h-22c-20 0 -34.667 -4.16699 -44 -12.5
s-14 -22.166 -14 -41.499v-123c0 -65.333 -17.833 -116.666 -53.5 -153.999s-84.167 -56 -145.5 -56c-21.333 0 -39.5 1.5 -54.5 4.5s-29.833 7.83301 -44.5 14.5v117c18.667 -2.66699 35.667 -4 51 -4c36.667 0 55 19.667 55 59v142c0 33.333 9 59.833 27 79.5
s47 34.5 87 44.5c-40 10 -69 24.833 -87 44.5s-27 46.167 -27 79.5v142c0 39.333 -18.333 59 -55 59c-15.333 0 -32.333 -1.33301 -51 -4v117z" />
    <glyph glyph-name="asciitilde" unicode="~" 
d="M173 238h-125.001c-6.66699 27.333 -10 52.666 -10 75.999c0 44 12.833 78.667 38.5 104s60.834 38 105.501 38c46 0 91.333 -16 136 -48c18.667 -13.333 32.667 -22.166 42 -26.499s18.333 -6.5 27 -6.5c21.333 0 33 12.667 35 38l3 41h125
c6.66699 -27.333 10 -52.666 10 -75.999c0 -44 -13 -78.667 -39 -104s-61.333 -38 -106 -38c-45.333 0 -90.333 16 -135 48c-18.667 13.333 -32.667 22.166 -42 26.499s-18.333 6.5 -27 6.5c-21.333 0 -33 -12.667 -35 -38z" />
    <glyph glyph-name="uni00A0" unicode="&#xa0;" horiz-adv-x="248" 
 />
    <glyph glyph-name="exclamdown" unicode="&#xa1;" horiz-adv-x="326" 
d="M237 267l29 -442c-34 -16 -68.333 -24 -103 -24s-69 8 -103 24l29 442h148zM163 528c32 0 57.833 -9.66699 77.5 -29s29.5 -44.666 29.5 -75.999s-9.83301 -56.666 -29.5 -75.999s-45.5 -29 -77.5 -29s-57.833 9.66699 -77.5 29s-29.5 44.666 -29.5 75.999
s9.83301 56.666 29.5 75.999s45.5 29 77.5 29z" />
    <glyph glyph-name="cent" unicode="&#xa2;" 
d="M334 -130v148.998c-82.667 0.666992 -145.834 23.167 -189.501 67.5s-65.5 108.5 -65.5 192.5c0 80.667 22.333 144.334 67 191.001s107.334 71.334 188.001 74.001v149h79v-154c37.333 -6 71.333 -16 102 -30v-121c-38.667 9.33301 -72.667 14.333 -102 15v-244
c31.333 2 66 7 104 15v-120c-24 -14 -58.667 -24.333 -104 -31v-153h-79zM254 274.998c0 -32.667 6.33301 -58 19 -76s33 -30 61 -36v236c-27.333 -6 -47.5 -17.833 -60.5 -35.5s-19.5 -42.167 -19.5 -73.5v-15z" />
    <glyph glyph-name="sterling" unicode="&#xa3;" 
d="M562 146l-0.000976562 -145.999h-492v129c48.667 29.333 74 75.666 76 138.999h-100v134h85c-10 50 -15 85 -15 105c0 62 22.5 111.333 67.5 148s105.5 55 181.5 55c74 0 136.667 -19 188 -57v-137c-64 28.667 -118 43 -162 43c-60.667 0 -91 -28.333 -91 -85
c0 -18.667 2.33301 -42.667 7 -72h182v-134h-166c-3.33301 -51.333 -25.666 -92 -66.999 -122h306z" />
    <glyph glyph-name="currency" unicode="&#xa4;" 
d="M299 112c-34 0 -66.667 5 -98 15l-80 -85l-109 95l77 78c-25.333 38.667 -38 80.334 -38 125.001s12.667 86.334 38 125.001l-77 78l109 95l80 -85c31.333 10 64 15 98 15c34.667 0 67.334 -5 98.001 -15l80 85l109 -95l-77 -78c25.333 -38.667 38 -80.334 38 -125.001
s-12.667 -86.334 -38 -125.001l77 -78l-109 -95l-80 85c-30.667 -10 -63.334 -15 -98.001 -15zM299 233c27.333 0 49 9.5 65 28.5s24 45.167 24 78.5s-8 59.5 -24 78.5s-37.667 28.5 -65 28.5s-49 -9.5 -65 -28.5s-24 -45.167 -24 -78.5s8 -59.5 24 -78.5
s37.667 -28.5 65 -28.5z" />
    <glyph glyph-name="yen" unicode="&#xa5;" 
d="M206 0v130h-155v104h155v22l-20 42h-135v104h85l-135 291h205l95 -297l97 297h199l-138 -291h82v-104h-134l-21 -45v-19h155v-104h-155v-130h-180z" />
    <glyph glyph-name="brokenbar" unicode="&#xa6;" horiz-adv-x="351" 
d="M80 -206v357h191v-357h-191zM80 397v357h191v-357h-191z" />
    <glyph glyph-name="section" unicode="&#xa7;" horiz-adv-x="492" 
d="M28 281c0 28.667 9 55.3311 27 79.998s41.667 42.334 71 53.001c-28 14.667 -48.667 32.667 -62 54s-20 47 -20 77c0 50.667 18.667 91 56 121s87.666 45 150.999 45c62 0 120 -12.667 174 -38v-116c-58 17.333 -108.667 26 -152 26c-40.667 0 -61 -10.333 -61 -31
c0 -14 13.333 -26.667 40 -38l86 -35c45.333 -18.667 77.666 -38.667 96.999 -60s29 -48 29 -80c0 -35.333 -7.5 -64.666 -22.5 -87.999s-38.167 -41.333 -69.5 -54c26.667 -16.667 45.834 -35.167 57.501 -55.5s17.5 -44.833 17.5 -73.5
c0 -50.667 -18.833 -90.667 -56.5 -120s-88.5 -44 -152.5 -44c-38 0 -74.667 4 -110 12s-65.666 19 -90.999 33v116c30.667 -10 62 -18 94 -24s60.333 -9 85 -9c42 0 63 12 63 36c0 8.66699 -4.5 16.167 -13.5 22.5s-28.167 15.5 -57.5 27.5l-71 28
c-38.667 15.333 -66.5 33.5 -83.5 54.5s-25.5 47.833 -25.5 80.5zM187 314.997c0 -13.333 3.66699 -24.166 11 -32.499s21.333 -16.833 42 -25.5l32 -14c22 11.333 33 31.666 33 60.999c0 25.333 -18.667 45.333 -56 60l-17 6c-14 -4 -25 -10.833 -33 -20.5
s-12 -21.167 -12 -34.5z" />
    <glyph glyph-name="dieresis" unicode="&#xa8;" horiz-adv-x="630" 
d="M190 578c-29.333 0 -52.833 7.83301 -70.5 23.5s-26.5 36.834 -26.5 63.501s8.83301 47.834 26.5 63.501s41.167 23.5 70.5 23.5s52.833 -7.83301 70.5 -23.5s26.5 -36.834 26.5 -63.501s-8.83301 -47.834 -26.5 -63.501s-41.167 -23.5 -70.5 -23.5zM440 578
c-29.333 0 -52.833 7.83301 -70.5 23.5s-26.5 36.834 -26.5 63.501s8.83301 47.834 26.5 63.501s41.167 23.5 70.5 23.5s52.833 -7.83301 70.5 -23.5s26.5 -36.834 26.5 -63.501s-8.83301 -47.834 -26.5 -63.501s-41.167 -23.5 -70.5 -23.5z" />
    <glyph glyph-name="copyright" unicode="&#xa9;" horiz-adv-x="798" 
d="M399 -17c-74.667 0 -140.667 16 -198 48s-101.333 75.333 -132 130s-46 116 -46 184c0 72 16.5 135.5 49.5 190.5s78 97.333 135 127s120.833 44.5 191.5 44.5c74.667 0 140.667 -16 198 -48s101.333 -75.333 132 -130s46 -116 46 -184c0 -72 -16.5 -135.5 -49.5 -190.5
s-78 -97.333 -135 -127s-120.833 -44.5 -191.5 -44.5zM399 73c54 0 101.167 11.5 141.5 34.5s71.166 55 92.499 96s32 88.167 32 141.5c0 55.333 -11.333 103.666 -34 144.999s-54 72.833 -94 94.5s-86 32.5 -138 32.5c-54 0 -101.167 -11.5 -141.5 -34.5
s-71.166 -55 -92.499 -96s-32 -88.167 -32 -141.5c0 -55.333 11.333 -103.666 34 -144.999s54 -72.833 94 -94.5s86 -32.5 138 -32.5zM531 163c-34.667 -16.667 -69.335 -25 -104.002 -25c-66.667 0 -117.834 18 -153.501 54s-53.5 87.667 -53.5 155
c0 65.333 18.5 116.5 55.5 153.5s87.833 55.5 152.5 55.5c16.667 0 33.834 -1.83301 51.501 -5.5s32.834 -8.83398 45.501 -15.501v-95c-35.333 7.33301 -61.666 11 -78.999 11c-28.667 0 -50.667 -7.66699 -66 -23s-23 -37.666 -23 -66.999v-27
c0 -28.667 7.5 -50.5 22.5 -65.5s37.167 -22.5 66.5 -22.5c24.667 0 53 5.33301 85 16v-99z" />
    <glyph glyph-name="ordfeminine" unicode="&#xaa;" horiz-adv-x="424" 
d="M257 346l-12.002 31.999c-31.333 -29.333 -65.666 -44 -102.999 -44c-34.667 0 -62.667 9.83301 -84 29.5s-32 45.834 -32 78.501c0 35.333 13.167 63.833 39.5 85.5s61.833 32.5 106.5 32.5c14.667 0 38 -3.33301 70 -10v18c0 20 -4.5 33.833 -13.5 41.5
s-24.833 11.5 -47.5 11.5c-33.333 0 -76 -7.66699 -128 -23v83c45.333 22 99.333 33 162 33c52.667 0 91.334 -10.667 116.001 -32s37 -55 37 -101v-235h-111zM367.998 275.999v-98h-331v98h331zM188.998 416.999c8 0 16.999 2.00098 26.999 6.00098s18.667 9.33301 26 16
v48c-14 2.66699 -27.333 4 -40 4c-32.667 0 -49 -12.667 -49 -38c0 -10.667 3.33301 -19.334 10 -26.001s15.334 -10 26.001 -10z" />
    <glyph glyph-name="guillemotleft" unicode="&#xab;" horiz-adv-x="685" 
d="M176 51l-138 208l138 208h178l-119 -208l119 -208h-178zM462 51l-138 208l138 208h178l-119 -208l119 -208h-178z" />
    <glyph glyph-name="logicalnot" unicode="&#xac;" 
d="M390 191v179h-334v132h486v-311h-152z" />
    <glyph glyph-name="uni00AD" unicode="&#xad;" horiz-adv-x="413" 
d="M36 182v152h341v-152h-341z" />
    <glyph glyph-name="registered" unicode="&#xae;" horiz-adv-x="540" 
d="M270 266c-50 0 -94.167 10.667 -132.5 32s-67.833 50.5 -88.5 87.5s-31 78.5 -31 124.5c0 48.667 11.167 91.5 33.5 128.5s52.5 65.5 90.5 85.5s80.667 30 128 30c50 0 94.167 -10.667 132.5 -32s67.833 -50.5 88.5 -87.5s31 -78.5 31 -124.5
c0 -48.667 -11.167 -91.5 -33.5 -128.5s-52.5 -65.5 -90.5 -85.5s-80.667 -30 -128 -30zM270 319c55.333 0 100.166 17.5 134.499 52.5s51.5 81.167 51.5 138.5s-17.167 103.5 -51.5 138.5s-79.166 52.5 -134.499 52.5s-100.166 -17.5 -134.499 -52.5
s-51.5 -81.167 -51.5 -138.5s17.167 -103.5 51.5 -138.5s79.166 -52.5 134.499 -52.5zM167 382v262h110c31.333 0 55.333 -7.5 72 -22.5s25 -36.833 25 -65.5c0 -32 -15.333 -55 -46 -69l64 -105h-78l-53 91h-25v-91h-69zM236 530h31.999c10 0 18 2.16699 24 6.5
s9 10.5 9 18.5c0 9.33301 -2.66699 16.5 -8 21.5s-12.666 7.5 -21.999 7.5h-35v-54z" />
    <glyph glyph-name="macron" unicode="&#xaf;" horiz-adv-x="630" 
d="M137 612v110h357v-110h-357z" />
    <glyph glyph-name="degree" unicode="&#xb0;" horiz-adv-x="392" 
d="M196 405c-47.333 0 -84.666 13.167 -111.999 39.5s-41 62.5 -41 108.5s13.667 82.167 41 108.5s64.666 39.5 111.999 39.5s84.666 -13.167 111.999 -39.5s41 -62.5 41 -108.5s-13.667 -82.167 -41 -108.5s-64.666 -39.5 -111.999 -39.5zM196 499
c14 0 25.333 4.66699 34 14s13 22.666 13 39.999s-4.33301 30.666 -13 39.999s-20 14 -34 14s-25.333 -4.66699 -34 -14s-13 -22.666 -13 -39.999s4.33301 -30.666 13 -39.999s20 -14 34 -14z" />
    <glyph glyph-name="plusminus" unicode="&#xb1;" 
d="M223 181v178h-167v132h167v178h152v-178h167v-132h-167v-178h-152zM56 1v132h486v-132h-486z" />
    <glyph glyph-name="uni00B2" unicode="&#xb2;" horiz-adv-x="410" 
d="M59 753c48.667 31.333 98.667 47 150 47c42 0 75.667 -10.5 101 -31.5s38 -48.833 38 -83.5c0 -28.667 -11.167 -58.667 -33.5 -90s-57.833 -66.333 -106.5 -105h154v-100h-309v80c61.333 55.333 103.333 96.5 126 123.5s34 49.833 34 68.5c0 10.667 -3.5 19 -10.5 25
s-16.833 9 -29.5 9c-14 0 -30 -3.5 -48 -10.5s-40 -18.5 -66 -34.5v102z" />
    <glyph glyph-name="uni00B3" unicode="&#xb3;" horiz-adv-x="410" 
d="M192 382c-48 0 -91.668 8.33398 -131.001 25.001v90c40 -10.667 76 -16 108 -16c24.667 0 42.834 3 54.501 9s17.5 15.333 17.5 28c0 11.333 -5.33301 19.666 -16 24.999s-28.334 8 -53.001 8c-15.333 0 -32.666 -1.33301 -51.999 -4v57l93 91h-147v97h276v-86l-90 -88h6
c30.667 0 56 -9.5 76 -28.5s30 -43.5 30 -73.5c0 -42.667 -15 -75.667 -45 -99s-72.333 -35 -127 -35z" />
    <glyph glyph-name="acute" unicode="&#xb4;" horiz-adv-x="630" 
d="M168 600l102 177h192l-142 -177h-152z" />
    <glyph glyph-name="mu" unicode="&#xb5;" 
d="M42 515h188.002v-339c0 -21.333 4.66699 -36.5 14 -45.5s24.666 -13.5 45.999 -13.5c20.667 0 41.334 8.66699 62.001 26v372h188v-342c0 -18 3 -30.833 9 -38.5s16.333 -11.5 31 -11.5c12 0 25.333 1.66699 40 5v-121c-34.667 -14.667 -71.334 -22 -110.001 -22
c-34 0 -61.333 5.16699 -82 15.5s-37.334 26.5 -50.001 48.5c-36.667 -42.667 -76.334 -64 -119.001 -64c-13.333 0 -26.666 2 -39.999 6v-197h-177v721z" />
    <glyph glyph-name="paragraph" unicode="&#xb6;" horiz-adv-x="647" 
d="M437 -104v673h-64v-775h-131v419c-66 12.667 -116.667 38.5 -152 77.5s-53 88.833 -53 149.5c0 80 26.167 142.167 78.5 186.5s125.833 66.5 220.5 66.5h232v-797h-131z" />
    <glyph glyph-name="periodcentered" unicode="&#xb7;" horiz-adv-x="316" 
d="M158 150c-32.667 0 -59.167 10 -79.5 30s-30.5 46 -30.5 78s10.167 58 30.5 78s46.833 30 79.5 30s59.167 -10 79.5 -30s30.5 -46 30.5 -78s-10.167 -58 -30.5 -78s-46.833 -30 -79.5 -30z" />
    <glyph glyph-name="cedilla" unicode="&#xb8;" horiz-adv-x="630" 
d="M306 -56c34.667 0 61.833 -7.5 81.5 -22.5s29.5 -36.833 29.5 -65.5c0 -30 -11.167 -58.333 -33.5 -85s-57.166 -52.334 -104.499 -77.001l-66 59c23.333 12.667 41.666 25.834 54.999 39.501s20 26.167 20 37.5c0 12.667 -10 19 -30 19c-12 0 -22 -1 -30 -3v86
c22 8 48 12 78 12z" />
    <glyph glyph-name="uni00B9" unicode="&#xb9;" horiz-adv-x="410" 
d="M178 390v277l-121 -31v97l134 59h118v-402h-131z" />
    <glyph glyph-name="ordmasculine" unicode="&#xba;" horiz-adv-x="440" 
d="M392 276v-98h-339v98h339zM220 323c-58.667 0 -104.667 17.3311 -138 51.998s-50 82.667 -50 144c0 60.667 16.667 108.334 50 143.001s79.333 52 138 52c59.333 0 105.5 -17.167 138.5 -51.5s49.5 -82.166 49.5 -143.499c0 -60.667 -16.667 -108.5 -50 -143.5
s-79.333 -52.5 -138 -52.5zM220 418.998c18.667 0 32.334 8 41.001 24s13 41.333 13 76c0 34 -4.33301 59.333 -13 76s-22.334 25 -41.001 25s-32.334 -8.33301 -41.001 -25s-13 -42 -13 -76c0 -34.667 4.33301 -60 13 -76s22.334 -24 41.001 -24z" />
    <glyph glyph-name="guillemotright" unicode="&#xbb;" horiz-adv-x="685" 
d="M223 467l138 -208l-138 -208h-178l119 208l-119 208h178zM509 467l138 -208l-138 -208h-178l119 208l-119 208h178z" />
    <glyph glyph-name="onequarter" unicode="&#xbc;" horiz-adv-x="984" 
d="M266 0l331 693h133l-331 -693h-133zM800 0v75h-198v87l181 246h126v-246h52v-87h-52v-75h-109zM800 162v118l-88 -118h88zM178 291v277l-121 -31v97l134 59h118v-402h-131z" />
    <glyph glyph-name="onehalf" unicode="&#xbd;" horiz-adv-x="984" 
d="M247 0l331 693h133l-331 -693h-133zM633 363c48.667 31.333 98.667 47 150 47c42 0 75.667 -10.5 101 -31.5s38 -48.833 38 -83.5c0 -28.667 -11.167 -58.667 -33.5 -90s-57.833 -66.333 -106.5 -105h154v-100h-309v80c61.333 55.333 103.333 96.5 126 123.5
s34 49.833 34 68.5c0 10.667 -3.5 19 -10.5 25s-16.833 9 -29.5 9c-14 0 -30 -3.5 -48 -10.5s-40 -18.5 -66 -34.5v102zM178 291v277l-121 -31v97l134 59h118v-402h-131z" />
    <glyph glyph-name="threequarters" unicode="&#xbe;" horiz-adv-x="984" 
d="M280 0l331 693h133l-331 -693h-133zM800 0v75h-198v87l181 246h126v-246h52v-87h-52v-75h-109zM800 162v118l-88 -118h88zM196 283c-48 0 -91.668 8.33398 -131.001 25.001v90c40 -10.667 76 -16 108 -16c24.667 0 42.834 3 54.501 9s17.5 15.333 17.5 28
c0 11.333 -5.33301 19.666 -16 24.999s-28.334 8 -53.001 8c-15.333 0 -32.666 -1.33301 -51.999 -4v57l93 91h-147v97h276v-86l-90 -88h6c30.667 0 56 -9.5 76 -28.5s30 -43.5 30 -73.5c0 -42.667 -15 -75.667 -45 -99s-72.333 -35 -127 -35z" />
    <glyph glyph-name="questiondown" unicode="&#xbf;" horiz-adv-x="458" 
d="M206 4c0 -20.667 6.50098 -36.332 19.501 -46.999s31.833 -16 56.5 -16c44.667 0 95.667 13.333 153 40v-133c-60.667 -31.333 -124 -47 -190 -47c-68.667 0 -122.334 16.5 -161.001 49.5s-58 78.833 -58 137.5c0 46 13 86 39 120s68.667 67 128 99v60h146l11 -124
l-58 -31c-30.667 -16.667 -52.667 -33.334 -66 -50.001s-20 -36 -20 -58zM264.001 528.002c32 0 57.833 -9.66699 77.5 -29s29.5 -44.666 29.5 -75.999s-9.83301 -56.666 -29.5 -75.999s-45.5 -29 -77.5 -29s-57.833 9.66699 -77.5 29s-29.5 44.666 -29.5 75.999
s9.83301 56.666 29.5 75.999s45.5 29 77.5 29z" />
    <glyph glyph-name="Agrave" unicode="&#xc0;" horiz-adv-x="705" 
d="M492 0l-38 134h-212l-36 -134h-204l244 693h213l244 -693h-211zM278 270h140l-71 257zM276 769l-140 135h185l107 -135h-152z" />
    <glyph glyph-name="Aacute" unicode="&#xc1;" horiz-adv-x="705" 
d="M492 0l-38 134h-212l-36 -134h-204l244 693h213l244 -693h-211zM278 270h140l-71 257zM276 769l107 135h185l-140 -135h-152z" />
    <glyph glyph-name="Acircumflex" unicode="&#xc2;" horiz-adv-x="705" 
d="M492 0l-38 134h-212l-36 -134h-204l244 693h213l244 -693h-211zM278 270h140l-71 257zM422 769l-70 69l-70 -69h-154l130 147h188l130 -147h-154z" />
    <glyph glyph-name="Atilde" unicode="&#xc3;" horiz-adv-x="705" 
d="M492 0l-38 134h-212l-36 -134h-204l244 693h213l244 -693h-211zM278 270h140l-71 257zM263 762l-100 0.000976562c-2 11.333 -3 26.666 -3 45.999c0 34 9.83301 60.833 29.5 80.5s47.167 29.5 82.5 29.5c20.667 0 39.167 -3.16699 55.5 -9.5
s34.166 -17.166 53.499 -32.499c17.333 -14 30.666 -21 39.999 -21c12 0 18.333 9.66699 19 29l2 31h100c2 -10.667 3 -26 3 -46c0 -34 -9.83301 -60.833 -29.5 -80.5s-47.167 -29.5 -82.5 -29.5c-20.667 0 -39.167 3.16699 -55.5 9.5s-34.166 17.166 -53.499 32.499
c-17.333 14 -30.666 21 -39.999 21c-12 0 -18.333 -9.66699 -19 -29z" />
    <glyph glyph-name="Adieresis" unicode="&#xc4;" horiz-adv-x="705" 
d="M492 0l-38 134h-212l-36 -134h-204l244 693h213l244 -693h-211zM278 270h140l-71 257zM227 756c-30 0 -54 8 -72 24s-27 37.667 -27 65s9 49 27 65s42 24 72 24s54 -8 72 -24s27 -37.667 27 -65s-9 -49 -27 -65s-42 -24 -72 -24zM477 756c-30 0 -54 8 -72 24
s-27 37.667 -27 65s9 49 27 65s42 24 72 24s54 -8 72 -24s27 -37.667 27 -65s-9 -49 -27 -65s-42 -24 -72 -24z" />
    <glyph glyph-name="Aring" unicode="&#xc5;" horiz-adv-x="705" 
d="M492 0l-38 134h-212l-36 -134h-204l244 693h213l244 -693h-211zM278 270h140l-71 257zM352 730c-40 0 -72 10.167 -96 30.5s-36 47.5 -36 81.5s12 61.167 36 81.5s56 30.5 96 30.5s72 -10.167 96 -30.5s36 -47.5 36 -81.5s-12 -61.167 -36 -81.5s-56 -30.5 -96 -30.5z
M352 799c12 0 21.333 3.83301 28 11.5s10 18.167 10 31.5s-3.33301 23.833 -10 31.5s-16 11.5 -28 11.5s-21.333 -3.83301 -28 -11.5s-10 -18.167 -10 -31.5s3.33301 -23.833 10 -31.5s16 -11.5 28 -11.5z" />
    <glyph glyph-name="AE" unicode="&#xc6;" horiz-adv-x="999" 
d="M480 0v121h-213l-57 -121h-208l363 693h598v-146h-295v-121h240v-146h-240v-134h297v-146h-485zM332 257h148v290h-9z" />
    <glyph glyph-name="Ccedilla" unicode="&#xc7;" horiz-adv-x="623" 
d="M595 18c-54.667 -20.667 -117.997 -31.002 -189.997 -31.002c-114.667 0 -201.834 30.333 -261.501 91s-89.5 149.334 -89.5 266.001c0 114.667 31.167 203.667 93.5 267s149.166 95 260.499 95c61.333 0 120.333 -9.66699 177 -29v-146c-56 12 -104 18 -144 18
c-61.333 0 -107.666 -16.167 -138.999 -48.5s-47 -80.166 -47 -143.499v-22c0 -62 15.167 -109.333 45.5 -142s75.166 -49 134.499 -49c45.333 0 98.666 6.66699 159.999 20v-146zM380.003 -56.002c34.667 0 61.832 -7.49902 81.499 -22.499s29.5 -36.833 29.5 -65.5
c0 -30 -11.333 -58.333 -34 -85s-57.667 -52.334 -105 -77.001l-67 60c22.667 12 40.834 24.833 54.501 38.5s20.5 26.167 20.5 37.5s-9.33301 17 -28 17c-12 0 -22 -1 -30 -3v88c22 8 48 12 78 12z" />
    <glyph glyph-name="Egrave" unicode="&#xc8;" horiz-adv-x="593" 
d="M74 0v693h483v-146h-295v-121h240v-146h-240v-134h297v-146h-485zM239 769l-140 135h185l107 -135h-152z" />
    <glyph glyph-name="Eacute" unicode="&#xc9;" horiz-adv-x="593" 
d="M74 0v693h483v-146h-295v-121h240v-146h-240v-134h297v-146h-485zM239 769l107 135h185l-140 -135h-152z" />
    <glyph glyph-name="Ecircumflex" unicode="&#xca;" horiz-adv-x="593" 
d="M74 0v693h483v-146h-295v-121h240v-146h-240v-134h297v-146h-485zM385 769l-70 69l-70 -69h-154l130 147h188l130 -147h-154z" />
    <glyph glyph-name="Edieresis" unicode="&#xcb;" horiz-adv-x="593" 
d="M74 0v693h483v-146h-295v-121h240v-146h-240v-134h297v-146h-485zM190 756c-30 0 -54 8 -72 24s-27 37.667 -27 65s9 49 27 65s42 24 72 24s54 -8 72 -24s27 -37.667 27 -65s-9 -49 -27 -65s-42 -24 -72 -24zM440 756c-30 0 -54 8 -72 24s-27 37.667 -27 65s9 49 27 65
s42 24 72 24s54 -8 72 -24s27 -37.667 27 -65s-9 -49 -27 -65s-42 -24 -72 -24z" />
    <glyph glyph-name="Igrave" unicode="&#xcc;" horiz-adv-x="349" 
d="M78 0v693h193v-693h-193zM98 769l-140 135h185l107 -135h-152z" />
    <glyph glyph-name="Iacute" unicode="&#xcd;" horiz-adv-x="349" 
d="M78 0v693h193v-693h-193zM98 769l107 135h185l-140 -135h-152z" />
    <glyph glyph-name="Icircumflex" unicode="&#xce;" horiz-adv-x="349" 
d="M78 0v693h193v-693h-193zM244 769l-70 69l-70 -69h-154l130 147h188l130 -147h-154z" />
    <glyph glyph-name="Idieresis" unicode="&#xcf;" horiz-adv-x="349" 
d="M78 0v693h193v-693h-193zM49 756c-30 0 -54 8 -72 24s-27 37.667 -27 65s9 49 27 65s42 24 72 24s54 -8 72 -24s27 -37.667 27 -65s-9 -49 -27 -65s-42 -24 -72 -24zM299 756c-30 0 -54 8 -72 24s-27 37.667 -27 65s9 49 27 65s42 24 72 24s54 -8 72 -24
s27 -37.667 27 -65s-9 -49 -27 -65s-42 -24 -72 -24z" />
    <glyph glyph-name="Eth" unicode="&#xd0;" horiz-adv-x="745" 
d="M84 0l-0.00195312 300h-82v114h82v279h271c106.667 0 189.334 -30 248.001 -90s88 -145.333 88 -256c0 -72.667 -13 -135.167 -39 -187.5s-63.167 -92 -111.5 -119s-106.166 -40.5 -173.499 -40.5h-283zM266.998 300v-152h76c100.667 0 151 63.333 151 190v18
c0 126 -49.667 189 -149 189h-78v-131h133v-114h-133z" />
    <glyph glyph-name="Ntilde" unicode="&#xd1;" horiz-adv-x="757" 
d="M240 434v-434h-166v693h200l243 -438v438h166v-693h-200zM307 762l-100 0.000976562c-2 11.333 -3 26.666 -3 45.999c0 34 9.83301 60.833 29.5 80.5s47.167 29.5 82.5 29.5c20.667 0 39.167 -3.16699 55.5 -9.5s34.166 -17.166 53.499 -32.499
c17.333 -14 30.666 -21 39.999 -21c12 0 18.333 9.66699 19 29l2 31h100c2 -10.667 3 -26 3 -46c0 -34 -9.83301 -60.833 -29.5 -80.5s-47.167 -29.5 -82.5 -29.5c-20.667 0 -39.167 3.16699 -55.5 9.5s-34.166 17.166 -53.499 32.499c-17.333 14 -30.666 21 -39.999 21
c-12 0 -18.333 -9.66699 -19 -29z" />
    <glyph glyph-name="Ograve" unicode="&#xd2;" horiz-adv-x="807" 
d="M403 -17c-72.667 0 -135.333 15.168 -188 45.501s-92.667 72.833 -120 127.5s-41 118.667 -41 192c0 75.333 14.333 140.166 43 194.499s69.167 95.833 121.5 124.5s113.833 43 184.5 43c72.667 0 135.334 -15 188.001 -45s92.834 -72.333 120.501 -127
s41.5 -119 41.5 -193c0 -75.333 -14.333 -140.333 -43 -195s-69.334 -96.167 -122.001 -124.5s-114.334 -42.5 -185.001 -42.5zM403.001 136.001c50.667 0 88.833 17.667 114.5 53s38.5 87.333 38.5 156c0 70 -13 122.833 -39 158.5s-64 53.5 -114 53.5
s-87.833 -17.667 -113.5 -53s-38.5 -87.333 -38.5 -156c0 -69.333 12.833 -122 38.5 -158s63.5 -54 113.5 -54zM327 769.001l-140 135h185l107 -135h-152z" />
    <glyph glyph-name="Oacute" unicode="&#xd3;" horiz-adv-x="807" 
d="M403 -17c-72.667 0 -135.333 15.168 -188 45.501s-92.667 72.833 -120 127.5s-41 118.667 -41 192c0 75.333 14.333 140.166 43 194.499s69.167 95.833 121.5 124.5s113.833 43 184.5 43c72.667 0 135.334 -15 188.001 -45s92.834 -72.333 120.501 -127
s41.5 -119 41.5 -193c0 -75.333 -14.333 -140.333 -43 -195s-69.334 -96.167 -122.001 -124.5s-114.334 -42.5 -185.001 -42.5zM403.001 136.001c50.667 0 88.833 17.667 114.5 53s38.5 87.333 38.5 156c0 70 -13 122.833 -39 158.5s-64 53.5 -114 53.5
s-87.833 -17.667 -113.5 -53s-38.5 -87.333 -38.5 -156c0 -69.333 12.833 -122 38.5 -158s63.5 -54 113.5 -54zM327 769.001l107 135h185l-140 -135h-152z" />
    <glyph glyph-name="Ocircumflex" unicode="&#xd4;" horiz-adv-x="807" 
d="M403 -17c-72.667 0 -135.333 15.168 -188 45.501s-92.667 72.833 -120 127.5s-41 118.667 -41 192c0 75.333 14.333 140.166 43 194.499s69.167 95.833 121.5 124.5s113.833 43 184.5 43c72.667 0 135.334 -15 188.001 -45s92.834 -72.333 120.501 -127
s41.5 -119 41.5 -193c0 -75.333 -14.333 -140.333 -43 -195s-69.334 -96.167 -122.001 -124.5s-114.334 -42.5 -185.001 -42.5zM403.001 136.001c50.667 0 88.833 17.667 114.5 53s38.5 87.333 38.5 156c0 70 -13 122.833 -39 158.5s-64 53.5 -114 53.5
s-87.833 -17.667 -113.5 -53s-38.5 -87.333 -38.5 -156c0 -69.333 12.833 -122 38.5 -158s63.5 -54 113.5 -54zM473 769.001l-70 69l-70 -69h-154l130 147h188l130 -147h-154z" />
    <glyph glyph-name="Otilde" unicode="&#xd5;" horiz-adv-x="807" 
d="M403 -17c-72.667 0 -135.333 15.168 -188 45.501s-92.667 72.833 -120 127.5s-41 118.667 -41 192c0 75.333 14.333 140.166 43 194.499s69.167 95.833 121.5 124.5s113.833 43 184.5 43c72.667 0 135.334 -15 188.001 -45s92.834 -72.333 120.501 -127
s41.5 -119 41.5 -193c0 -75.333 -14.333 -140.333 -43 -195s-69.334 -96.167 -122.001 -124.5s-114.334 -42.5 -185.001 -42.5zM403.001 136.001c50.667 0 88.833 17.667 114.5 53s38.5 87.333 38.5 156c0 70 -13 122.833 -39 158.5s-64 53.5 -114 53.5
s-87.833 -17.667 -113.5 -53s-38.5 -87.333 -38.5 -156c0 -69.333 12.833 -122 38.5 -158s63.5 -54 113.5 -54zM314 762.001l-100 0.000976562c-2 11.333 -3 26.666 -3 45.999c0 34 9.83301 60.833 29.5 80.5s47.167 29.5 82.5 29.5c20.667 0 39.167 -3.16699 55.5 -9.5
s34.166 -17.166 53.499 -32.499c17.333 -14 30.666 -21 39.999 -21c12 0 18.333 9.66699 19 29l2 31h100c2 -10.667 3 -26 3 -46c0 -34 -9.83301 -60.833 -29.5 -80.5s-47.167 -29.5 -82.5 -29.5c-20.667 0 -39.167 3.16699 -55.5 9.5s-34.166 17.166 -53.499 32.499
c-17.333 14 -30.666 21 -39.999 21c-12 0 -18.333 -9.66699 -19 -29z" />
    <glyph glyph-name="Odieresis" unicode="&#xd6;" horiz-adv-x="807" 
d="M403 -17c-72.667 0 -135.333 15.168 -188 45.501s-92.667 72.833 -120 127.5s-41 118.667 -41 192c0 75.333 14.333 140.166 43 194.499s69.167 95.833 121.5 124.5s113.833 43 184.5 43c72.667 0 135.334 -15 188.001 -45s92.834 -72.333 120.501 -127
s41.5 -119 41.5 -193c0 -75.333 -14.333 -140.333 -43 -195s-69.334 -96.167 -122.001 -124.5s-114.334 -42.5 -185.001 -42.5zM403.001 136.001c50.667 0 88.833 17.667 114.5 53s38.5 87.333 38.5 156c0 70 -13 122.833 -39 158.5s-64 53.5 -114 53.5
s-87.833 -17.667 -113.5 -53s-38.5 -87.333 -38.5 -156c0 -69.333 12.833 -122 38.5 -158s63.5 -54 113.5 -54zM278 756.001c-30 0 -54 8 -72 24s-27 37.667 -27 65s9 49 27 65s42 24 72 24s54 -8 72 -24s27 -37.667 27 -65s-9 -49 -27 -65s-42 -24 -72 -24zM528 756.001
c-30 0 -54 8 -72 24s-27 37.667 -27 65s9 49 27 65s42 24 72 24s54 -8 72 -24s27 -37.667 27 -65s-9 -49 -27 -65s-42 -24 -72 -24z" />
    <glyph glyph-name="multiply" unicode="&#xd7;" 
d="M165 112l-94 94l133 135l-133 135l94 94l134 -138l134 138l94 -94l-134 -135l134 -135l-94 -94l-134 138z" />
    <glyph glyph-name="Oslash" unicode="&#xd8;" horiz-adv-x="807" 
d="M58 23l69.002 82.001c-48.667 62 -73 143 -73 243c0 75.333 14.333 140.166 43 194.499s69.167 95.833 121.5 124.5s113.833 43 184.5 43c74 0 138.333 -16 193 -48l65 77l88 -69l-69 -83c48.667 -63.333 73 -144 73 -242c0 -75.333 -14.333 -140.333 -43 -195
s-69.334 -96.167 -122.001 -124.5s-114.334 -42.5 -185.001 -42.5c-73.333 0 -137.333 16 -192 48l-65 -77zM244.002 348.001c0 -34.667 3 -65.667 9 -93l238 283c-22.667 14.667 -52 22.667 -88 24c-106 0 -159 -71.333 -159 -214zM403.002 131.001
c106.667 0 160 71.332 160 213.999c0 36.667 -3.33301 67.334 -10 92.001l-238 -282c24 -16 53.333 -24 88 -24z" />
    <glyph glyph-name="Ugrave" unicode="&#xd9;" horiz-adv-x="747" 
d="M373 -17c-96 0 -170.5 23.5 -223.5 70.5s-79.5 113.833 -79.5 200.5v439h193v-445c0 -36.667 9.33301 -64.5 28 -83.5s46 -28.5 82 -28.5c74 0 111 37.333 111 112v445h193v-440c0 -86 -26.667 -152.5 -80 -199.5s-128 -70.5 -224 -70.5zM297 769l-140 135h185l107 -135
h-152z" />
    <glyph glyph-name="Uacute" unicode="&#xda;" horiz-adv-x="747" 
d="M373 -17c-96 0 -170.5 23.5 -223.5 70.5s-79.5 113.833 -79.5 200.5v439h193v-445c0 -36.667 9.33301 -64.5 28 -83.5s46 -28.5 82 -28.5c74 0 111 37.333 111 112v445h193v-440c0 -86 -26.667 -152.5 -80 -199.5s-128 -70.5 -224 -70.5zM297 769l107 135h185l-140 -135
h-152z" />
    <glyph glyph-name="Ucircumflex" unicode="&#xdb;" horiz-adv-x="747" 
d="M373 -17c-96 0 -170.5 23.5 -223.5 70.5s-79.5 113.833 -79.5 200.5v439h193v-445c0 -36.667 9.33301 -64.5 28 -83.5s46 -28.5 82 -28.5c74 0 111 37.333 111 112v445h193v-440c0 -86 -26.667 -152.5 -80 -199.5s-128 -70.5 -224 -70.5zM443 769l-70 69l-70 -69h-154
l130 147h188l130 -147h-154z" />
    <glyph glyph-name="Udieresis" unicode="&#xdc;" horiz-adv-x="747" 
d="M373 -17c-96 0 -170.5 23.5 -223.5 70.5s-79.5 113.833 -79.5 200.5v439h193v-445c0 -36.667 9.33301 -64.5 28 -83.5s46 -28.5 82 -28.5c74 0 111 37.333 111 112v445h193v-440c0 -86 -26.667 -152.5 -80 -199.5s-128 -70.5 -224 -70.5zM248 756c-30 0 -54 8 -72 24
s-27 37.667 -27 65s9 49 27 65s42 24 72 24s54 -8 72 -24s27 -37.667 27 -65s-9 -49 -27 -65s-42 -24 -72 -24zM498 756c-30 0 -54 8 -72 24s-27 37.667 -27 65s9 49 27 65s42 24 72 24s54 -8 72 -24s27 -37.667 27 -65s-9 -49 -27 -65s-42 -24 -72 -24z" />
    <glyph glyph-name="Yacute" unicode="&#xdd;" horiz-adv-x="664" 
d="M234 0v261l-232 432h211l123 -294l125 294h201l-235 -434v-259h-193zM254 769l107 135h185l-140 -135h-152z" />
    <glyph glyph-name="Thorn" unicode="&#xde;" horiz-adv-x="632" 
d="M260 584h94c79.333 0 142.166 -20.667 188.499 -62s69.5 -98 69.5 -170s-23.167 -128.667 -69.5 -170s-109.166 -62 -188.499 -62h-94v-120h-186v693h186v-109zM260 260h66c30 0 53.5 8 70.5 24s25.5 38.667 25.5 68s-8.5 52 -25.5 68s-40.5 24 -70.5 24h-66v-184z" />
    <glyph glyph-name="germandbls" unicode="&#xdf;" horiz-adv-x="676" 
d="M62 0l-0.000976562 484.995c0 86.667 24.833 153.167 74.5 199.5s120.5 69.5 212.5 69.5c74.667 0 132.834 -15 174.501 -45s62.5 -72.333 62.5 -127c0 -31.333 -6.66699 -59.333 -20 -84s-35.666 -50 -66.999 -76c-19.333 -16 -29 -30.333 -29 -43
c0 -9.33301 4.5 -18.666 13.5 -27.999s23.833 -19.333 44.5 -30l42 -22c63.333 -33.333 95 -82 95 -146c0 -51.333 -20 -92.333 -60 -123s-93.333 -46 -160 -46c-26 0 -51 2.83301 -75 8.5s-50 14.834 -78 27.501v121c57.333 -18 104.333 -27 141 -27c38.667 0 58 12 58 36
c0 8 -3.83301 15.667 -11.5 23s-20.167 15.666 -37.5 24.999l-41 22c-34 18.667 -59.333 39.334 -76 62.001s-25 48.334 -25 77.001c0 25.333 5.5 48.333 16.5 69s29.5 43 55.5 67c14.667 13.333 24.667 24.5 30 33.5s8 19.833 8 32.5c0 20.667 -6 36.334 -18 47.001
s-29.333 16 -52 16c-32.667 0 -56.834 -11.167 -72.501 -33.5s-23.5 -57.166 -23.5 -104.499v-486h-182z" />
    <glyph glyph-name="agrave" unicode="&#xe0;" horiz-adv-x="566" 
d="M357 0l-14.001 39.999c-20 -18.667 -42.667 -33 -68 -43s-51.333 -15 -78 -15c-49.333 0 -89.166 14.333 -119.499 43s-45.5 67 -45.5 115c0 34 9 63.833 27 89.5s42.667 45.334 74 59.001s67 20.5 107 20.5c30 0 60 -3 90 -9v26c0 28 -6.33301 47.333 -19 58
s-35 16 -67 16c-46.667 0 -103.667 -10.333 -171 -31v116c27.333 14 60.333 25 99 33s78.334 12 119.001 12c73.333 0 127.166 -14.833 161.499 -44.5s51.5 -76.5 51.5 -140.5v-345h-147zM257.999 100.999c12.667 0 25.667 2.83203 39 8.49902s24.333 12.834 33 21.501v74
c-18.667 2.66699 -37 4 -55 4c-44.667 0 -67 -18.667 -67 -56c0 -16 4.5 -28.667 13.5 -38s21.167 -14 36.5 -14zM205.999 599.998l-142 177h192l102 -177h-152z" />
    <glyph glyph-name="aacute" unicode="&#xe1;" horiz-adv-x="566" 
d="M357 0l-14.001 39.999c-20 -18.667 -42.667 -33 -68 -43s-51.333 -15 -78 -15c-49.333 0 -89.166 14.333 -119.499 43s-45.5 67 -45.5 115c0 34 9 63.833 27 89.5s42.667 45.334 74 59.001s67 20.5 107 20.5c30 0 60 -3 90 -9v26c0 28 -6.33301 47.333 -19 58
s-35 16 -67 16c-46.667 0 -103.667 -10.333 -171 -31v116c27.333 14 60.333 25 99 33s78.334 12 119.001 12c73.333 0 127.166 -14.833 161.499 -44.5s51.5 -76.5 51.5 -140.5v-345h-147zM257.999 100.999c12.667 0 25.667 2.83203 39 8.49902s24.333 12.834 33 21.501v74
c-18.667 2.66699 -37 4 -55 4c-44.667 0 -67 -18.667 -67 -56c0 -16 4.5 -28.667 13.5 -38s21.167 -14 36.5 -14zM205.999 599.998l102 177h192l-142 -177h-152z" />
    <glyph glyph-name="acircumflex" unicode="&#xe2;" horiz-adv-x="566" 
d="M357 0l-14.001 39.999c-20 -18.667 -42.667 -33 -68 -43s-51.333 -15 -78 -15c-49.333 0 -89.166 14.333 -119.499 43s-45.5 67 -45.5 115c0 34 9 63.833 27 89.5s42.667 45.334 74 59.001s67 20.5 107 20.5c30 0 60 -3 90 -9v26c0 28 -6.33301 47.333 -19 58
s-35 16 -67 16c-46.667 0 -103.667 -10.333 -171 -31v116c27.333 14 60.333 25 99 33s78.334 12 119.001 12c73.333 0 127.166 -14.833 161.499 -44.5s51.5 -76.5 51.5 -140.5v-345h-147zM257.999 100.999c12.667 0 25.667 2.83203 39 8.49902s24.333 12.834 33 21.501v74
c-18.667 2.66699 -37 4 -55 4c-44.667 0 -67 -18.667 -67 -56c0 -16 4.5 -28.667 13.5 -38s21.167 -14 36.5 -14zM359.999 599.998l-78 92l-78 -92h-139l127 178h180l127 -178h-139z" />
    <glyph glyph-name="atilde" unicode="&#xe3;" horiz-adv-x="566" 
d="M357 0l-14.001 39.999c-20 -18.667 -42.667 -33 -68 -43s-51.333 -15 -78 -15c-49.333 0 -89.166 14.333 -119.499 43s-45.5 67 -45.5 115c0 34 9 63.833 27 89.5s42.667 45.334 74 59.001s67 20.5 107 20.5c30 0 60 -3 90 -9v26c0 28 -6.33301 47.333 -19 58
s-35 16 -67 16c-46.667 0 -103.667 -10.333 -171 -31v116c27.333 14 60.333 25 99 33s78.334 12 119.001 12c73.333 0 127.166 -14.833 161.499 -44.5s51.5 -76.5 51.5 -140.5v-345h-147zM257.999 100.999c12.667 0 25.667 2.83203 39 8.49902s24.333 12.834 33 21.501v74
c-18.667 2.66699 -37 4 -55 4c-44.667 0 -67 -18.667 -67 -56c0 -16 4.5 -28.667 13.5 -38s21.167 -14 36.5 -14zM191.999 590.998l-99 0.000976562c-2 11.333 -3 26.666 -3 45.999c0 34 9.83301 60.833 29.5 80.5s47.167 29.5 82.5 29.5c20 0 38.167 -3.16699 54.5 -9.5
s34.5 -17.5 54.5 -33.5c18 -14.667 31.333 -22 40 -22c12 0 18.667 10.333 20 31l2 31h99c2 -10.667 3 -26 3 -46c0 -34 -9.83301 -60.833 -29.5 -80.5s-47.167 -29.5 -82.5 -29.5c-20 0 -38.167 3.16699 -54.5 9.5s-34.5 17.5 -54.5 33.5c-18 14.667 -31.333 22 -40 22
c-12 0 -18.667 -10.333 -20 -31z" />
    <glyph glyph-name="adieresis" unicode="&#xe4;" horiz-adv-x="566" 
d="M357 0l-14.001 39.999c-20 -18.667 -42.667 -33 -68 -43s-51.333 -15 -78 -15c-49.333 0 -89.166 14.333 -119.499 43s-45.5 67 -45.5 115c0 34 9 63.833 27 89.5s42.667 45.334 74 59.001s67 20.5 107 20.5c30 0 60 -3 90 -9v26c0 28 -6.33301 47.333 -19 58
s-35 16 -67 16c-46.667 0 -103.667 -10.333 -171 -31v116c27.333 14 60.333 25 99 33s78.334 12 119.001 12c73.333 0 127.166 -14.833 161.499 -44.5s51.5 -76.5 51.5 -140.5v-345h-147zM257.999 100.999c12.667 0 25.667 2.83203 39 8.49902s24.333 12.834 33 21.501v74
c-18.667 2.66699 -37 4 -55 4c-44.667 0 -67 -18.667 -67 -56c0 -16 4.5 -28.667 13.5 -38s21.167 -14 36.5 -14zM156.999 577.998c-29.333 0 -52.833 7.83301 -70.5 23.5s-26.5 36.834 -26.5 63.501s8.83301 47.834 26.5 63.501s41.167 23.5 70.5 23.5
s52.833 -7.83301 70.5 -23.5s26.5 -36.834 26.5 -63.501s-8.83301 -47.834 -26.5 -63.501s-41.167 -23.5 -70.5 -23.5zM406.999 577.998c-29.333 0 -52.833 7.83301 -70.5 23.5s-26.5 36.834 -26.5 63.501s8.83301 47.834 26.5 63.501s41.167 23.5 70.5 23.5
s52.833 -7.83301 70.5 -23.5s26.5 -36.834 26.5 -63.501s-8.83301 -47.834 -26.5 -63.501s-41.167 -23.5 -70.5 -23.5z" />
    <glyph glyph-name="aring" unicode="&#xe5;" horiz-adv-x="566" 
d="M357 0l-14.001 39.999c-20 -18.667 -42.667 -33 -68 -43s-51.333 -15 -78 -15c-49.333 0 -89.166 14.333 -119.499 43s-45.5 67 -45.5 115c0 34 9 63.833 27 89.5s42.667 45.334 74 59.001s67 20.5 107 20.5c30 0 60 -3 90 -9v26c0 28 -6.33301 47.333 -19 58
s-35 16 -67 16c-46.667 0 -103.667 -10.333 -171 -31v116c27.333 14 60.333 25 99 33s78.334 12 119.001 12c73.333 0 127.166 -14.833 161.499 -44.5s51.5 -76.5 51.5 -140.5v-345h-147zM257.999 100.999c12.667 0 25.667 2.83203 39 8.49902s24.333 12.834 33 21.501v74
c-18.667 2.66699 -37 4 -55 4c-44.667 0 -67 -18.667 -67 -56c0 -16 4.5 -28.667 13.5 -38s21.167 -14 36.5 -14zM281.999 584.998c-43.333 0 -78.166 11.167 -104.499 33.5s-39.5 51.833 -39.5 88.5s13.167 66.167 39.5 88.5s61.166 33.5 104.499 33.5
s78.166 -11.167 104.499 -33.5s39.5 -51.833 39.5 -88.5s-13.167 -66.167 -39.5 -88.5s-61.166 -33.5 -104.499 -33.5zM281.999 661.998c12.667 0 22.5 4 29.5 12s10.5 19 10.5 33s-3.5 25 -10.5 33s-16.833 12 -29.5 12s-22.5 -4 -29.5 -12s-10.5 -19 -10.5 -33
s3.5 -25 10.5 -33s16.833 -12 29.5 -12z" />
    <glyph glyph-name="ae" unicode="&#xe6;" horiz-adv-x="863" 
d="M514 199c14 -56 61.6631 -83.999 142.996 -83.999c42.667 0 94.667 8.66699 156 26v-115c-25.333 -12.667 -55.666 -22.667 -90.999 -30s-70.333 -11 -105 -11c-94.667 0 -164 25.333 -208 76c-21.333 -22.667 -50.666 -41.5 -87.999 -56.5s-75 -22.5 -113 -22.5
c-52.667 0 -95.167 14.333 -127.5 43s-48.5 67 -48.5 115c0 35.333 9 66 27 92s42.833 45.833 74.5 59.5s68.834 20.5 111.501 20.5c34 0 70.333 -3.33301 109 -10v9c0 59.333 -37.667 89 -113 89c-44.667 0 -100.667 -10.333 -168 -31v116
c26 13.333 57.5 24.166 94.5 32.499s71.833 12.5 104.5 12.5c36 0 68.667 -5.5 98 -16.5s53.333 -27.167 72 -48.5c45.333 43.333 103.333 65 174 65c66.667 0 118.334 -18.833 155.001 -56.5s55 -90.834 55 -159.501c0 -18.667 -1 -39.167 -3 -61.5
s-4.66699 -40.166 -8 -53.499h-301zM258.996 101.001c17.333 0 36.999 4.83301 58.999 14.5s37.667 20.167 47 31.5c-5.33301 16 -9 37 -11 63c-22.667 1.33301 -39 2 -49 2c-34.667 0 -59.5 -4.5 -74.5 -13.5s-22.5 -23.833 -22.5 -44.5c0 -16.667 4.33301 -29.667 13 -39
s21.334 -14 38.001 -14zM595.995 405.001c-25.333 0 -45.3311 -8.33301 -59.998 -25s-23.334 -41 -26.001 -73h158v12c0 29.333 -5.83301 51 -17.5 65s-29.834 21 -54.501 21z" />
    <glyph glyph-name="ccedilla" unicode="&#xe7;" horiz-adv-x="490" 
d="M459 23c-20.667 -10.667 -44.668 -19 -72.001 -25s-55.666 -9 -84.999 -9c-86 0 -151.5 22.5 -196.5 67.5s-67.5 110.833 -67.5 197.5c0 86 23.833 152.833 71.5 200.5s114.5 71.5 200.5 71.5c57.333 0 106.333 -11 147 -33v-119c-38.667 12 -75 18 -109 18
c-41.333 0 -71.666 -10.333 -90.999 -31s-29 -53 -29 -97v-14c0 -43.333 9.66699 -75.333 29 -96s48.666 -31 87.999 -31c36 0 74 6.33301 114 19v-119zM285.999 -56c34.667 0 61.833 -7.5 81.5 -22.5s29.5 -36.833 29.5 -65.5c0 -30 -11.167 -58.333 -33.5 -85
s-57.166 -52.334 -104.499 -77.001l-66 59c23.333 12.667 41.666 25.834 54.999 39.501s20 26.167 20 37.5c0 12.667 -10 19 -30 19c-12 0 -22 -1 -30 -3v86c22 8 48 12 78 12z" />
    <glyph glyph-name="egrave" unicode="&#xe8;" horiz-adv-x="554" 
d="M209 210c3.33301 -33.333 16.166 -57.499 38.499 -72.499s55.833 -22.5 100.5 -22.5c42.667 0 94.667 8.66699 156 26v-115c-25.333 -12.667 -55.666 -22.667 -90.999 -30s-70.333 -11 -105 -11c-180 0 -270 90.667 -270 272c0 85.333 23 152.166 69 200.499
s110 72.5 192 72.5c69.333 0 123 -18.5 161 -55.5s57 -89.833 57 -158.5c0 -15.333 -1.16699 -33.5 -3.5 -54.5s-4.83301 -38.167 -7.5 -51.5h-297zM294 405.001c-24 0 -43.333 -7.5 -58 -22.5s-23.667 -36.5 -27 -64.5h150v12c0 50 -21.667 75 -65 75zM212 600.001
l-142 177h192l102 -177h-152z" />
    <glyph glyph-name="eacute" unicode="&#xe9;" horiz-adv-x="554" 
d="M209 210c3.33301 -33.333 16.166 -57.499 38.499 -72.499s55.833 -22.5 100.5 -22.5c42.667 0 94.667 8.66699 156 26v-115c-25.333 -12.667 -55.666 -22.667 -90.999 -30s-70.333 -11 -105 -11c-180 0 -270 90.667 -270 272c0 85.333 23 152.166 69 200.499
s110 72.5 192 72.5c69.333 0 123 -18.5 161 -55.5s57 -89.833 57 -158.5c0 -15.333 -1.16699 -33.5 -3.5 -54.5s-4.83301 -38.167 -7.5 -51.5h-297zM294 405.001c-24 0 -43.333 -7.5 -58 -22.5s-23.667 -36.5 -27 -64.5h150v12c0 50 -21.667 75 -65 75zM212 600.001l102 177
h192l-142 -177h-152z" />
    <glyph glyph-name="ecircumflex" unicode="&#xea;" horiz-adv-x="554" 
d="M209 210c3.33301 -33.333 16.166 -57.499 38.499 -72.499s55.833 -22.5 100.5 -22.5c42.667 0 94.667 8.66699 156 26v-115c-25.333 -12.667 -55.666 -22.667 -90.999 -30s-70.333 -11 -105 -11c-180 0 -270 90.667 -270 272c0 85.333 23 152.166 69 200.499
s110 72.5 192 72.5c69.333 0 123 -18.5 161 -55.5s57 -89.833 57 -158.5c0 -15.333 -1.16699 -33.5 -3.5 -54.5s-4.83301 -38.167 -7.5 -51.5h-297zM294 405.001c-24 0 -43.333 -7.5 -58 -22.5s-23.667 -36.5 -27 -64.5h150v12c0 50 -21.667 75 -65 75zM366 600.001l-78 92
l-78 -92h-139l127 178h180l127 -178h-139z" />
    <glyph glyph-name="edieresis" unicode="&#xeb;" horiz-adv-x="554" 
d="M209 210c3.33301 -33.333 16.166 -57.499 38.499 -72.499s55.833 -22.5 100.5 -22.5c42.667 0 94.667 8.66699 156 26v-115c-25.333 -12.667 -55.666 -22.667 -90.999 -30s-70.333 -11 -105 -11c-180 0 -270 90.667 -270 272c0 85.333 23 152.166 69 200.499
s110 72.5 192 72.5c69.333 0 123 -18.5 161 -55.5s57 -89.833 57 -158.5c0 -15.333 -1.16699 -33.5 -3.5 -54.5s-4.83301 -38.167 -7.5 -51.5h-297zM294 405.001c-24 0 -43.333 -7.5 -58 -22.5s-23.667 -36.5 -27 -64.5h150v12c0 50 -21.667 75 -65 75zM163 578.001
c-29.333 0 -52.833 7.83301 -70.5 23.5s-26.5 36.834 -26.5 63.501s8.83301 47.834 26.5 63.501s41.167 23.5 70.5 23.5s52.833 -7.83301 70.5 -23.5s26.5 -36.834 26.5 -63.501s-8.83301 -47.834 -26.5 -63.501s-41.167 -23.5 -70.5 -23.5zM413 578.001
c-29.333 0 -52.833 7.83301 -70.5 23.5s-26.5 36.834 -26.5 63.501s8.83301 47.834 26.5 63.501s41.167 23.5 70.5 23.5s52.833 -7.83301 70.5 -23.5s26.5 -36.834 26.5 -63.501s-8.83301 -47.834 -26.5 -63.501s-41.167 -23.5 -70.5 -23.5z" />
    <glyph glyph-name="igrave" unicode="&#xec;" horiz-adv-x="316" 
d="M64 0v515h188v-515h-188zM82 600l-142 177h192l102 -177h-152z" />
    <glyph glyph-name="iacute" unicode="&#xed;" horiz-adv-x="316" 
d="M64 0v515h188v-515h-188zM82 600l102 177h192l-142 -177h-152z" />
    <glyph glyph-name="icircumflex" unicode="&#xee;" horiz-adv-x="316" 
d="M64 0v515h188v-515h-188zM236 600l-78 92l-78 -92h-139l127 178h180l127 -178h-139z" />
    <glyph glyph-name="idieresis" unicode="&#xef;" horiz-adv-x="316" 
d="M64 0v515h188v-515h-188zM33 578c-29.333 0 -52.833 7.83301 -70.5 23.5s-26.5 36.834 -26.5 63.501s8.83301 47.834 26.5 63.501s41.167 23.5 70.5 23.5s52.833 -7.83301 70.5 -23.5s26.5 -36.834 26.5 -63.501s-8.83301 -47.834 -26.5 -63.501
s-41.167 -23.5 -70.5 -23.5zM283 578c-29.333 0 -52.833 7.83301 -70.5 23.5s-26.5 36.834 -26.5 63.501s8.83301 47.834 26.5 63.501s41.167 23.5 70.5 23.5s52.833 -7.83301 70.5 -23.5s26.5 -36.834 26.5 -63.501s-8.83301 -47.834 -26.5 -63.501
s-41.167 -23.5 -70.5 -23.5z" />
    <glyph glyph-name="eth" unicode="&#xf0;" horiz-adv-x="586" 
d="M150 576l59.001 55.999c-30.667 8.66699 -62.667 14.334 -96 17.001v135c72.667 -4.66699 137.667 -20.667 195 -48l66 66l66 -61l-53 -53c53.333 -42 94.166 -95.333 122.499 -160s42.5 -137.667 42.5 -219c0 -110 -21 -191.5 -63 -244.5s-107 -79.5 -195 -79.5
c-78.667 0 -140.667 22.667 -186 68s-68 107.333 -68 186c0 50 9.83301 94 29.5 132s46.834 67.167 81.501 87.5s74 30.5 118 30.5c64 0 112.333 -18 145 -54c-26.667 75.333 -66.334 129 -119.001 161l-80 -81zM297.001 116.999c26 0 45.166 9.66797 57.499 29.001
s18.5 49.666 18.5 90.999s-6.16699 72 -18.5 92s-31.166 30 -56.499 30c-24.667 0 -43 -10 -55 -30s-18 -50.667 -18 -92c0 -80 24 -120 72 -120z" />
    <glyph glyph-name="ntilde" unicode="&#xf1;" horiz-adv-x="630" 
d="M380 0v338c0 20 -3.83301 34.667 -11.5 44s-20.5 14 -38.5 14c-24.667 0 -50.667 -8.33301 -78 -25v-371h-188v515h153l16 -52c31.333 23.333 62 40.333 92 51s61.667 16 95 16c48 0 84.667 -13 110 -39s38 -63 38 -111v-380h-188zM232 591l-99 0.000976562
c-2 11.333 -3 26.666 -3 45.999c0 34 9.83301 60.833 29.5 80.5s47.167 29.5 82.5 29.5c20 0 38.167 -3.16699 54.5 -9.5s34.5 -17.5 54.5 -33.5c18 -14.667 31.333 -22 40 -22c12 0 18.667 10.333 20 31l2 31h99c2 -10.667 3 -26 3 -46c0 -34 -9.83301 -60.833 -29.5 -80.5
s-47.167 -29.5 -82.5 -29.5c-20 0 -38.167 3.16699 -54.5 9.5s-34.5 17.5 -54.5 33.5c-18 14.667 -31.333 22 -40 22c-12 0 -18.667 -10.333 -20 -31z" />
    <glyph glyph-name="ograve" unicode="&#xf2;" horiz-adv-x="610" 
d="M305 -15c-83.333 0 -148.666 24 -195.999 72s-71 115 -71 201c0 85.333 23.667 152 71 200s112.666 72 195.999 72s148.666 -24 195.999 -72s71 -114.667 71 -200c0 -86 -23.667 -153 -71 -201s-112.666 -72 -195.999 -72zM305 117c51.333 0 77 47 77 141
c0 93.333 -25.667 140 -77 140s-77 -46.667 -77 -140c0 -94 25.667 -141 77 -141zM229 600l-142 177h192l102 -177h-152z" />
    <glyph glyph-name="oacute" unicode="&#xf3;" horiz-adv-x="610" 
d="M305 -15c-83.333 0 -148.666 24 -195.999 72s-71 115 -71 201c0 85.333 23.667 152 71 200s112.666 72 195.999 72s148.666 -24 195.999 -72s71 -114.667 71 -200c0 -86 -23.667 -153 -71 -201s-112.666 -72 -195.999 -72zM305 117c51.333 0 77 47 77 141
c0 93.333 -25.667 140 -77 140s-77 -46.667 -77 -140c0 -94 25.667 -141 77 -141zM229 600l102 177h192l-142 -177h-152z" />
    <glyph glyph-name="ocircumflex" unicode="&#xf4;" horiz-adv-x="610" 
d="M305 -15c-83.333 0 -148.666 24 -195.999 72s-71 115 -71 201c0 85.333 23.667 152 71 200s112.666 72 195.999 72s148.666 -24 195.999 -72s71 -114.667 71 -200c0 -86 -23.667 -153 -71 -201s-112.666 -72 -195.999 -72zM305 117c51.333 0 77 47 77 141
c0 93.333 -25.667 140 -77 140s-77 -46.667 -77 -140c0 -94 25.667 -141 77 -141zM383 600l-78 92l-78 -92h-139l127 178h180l127 -178h-139z" />
    <glyph glyph-name="otilde" unicode="&#xf5;" horiz-adv-x="610" 
d="M305 -15c-83.333 0 -148.666 24 -195.999 72s-71 115 -71 201c0 85.333 23.667 152 71 200s112.666 72 195.999 72s148.666 -24 195.999 -72s71 -114.667 71 -200c0 -86 -23.667 -153 -71 -201s-112.666 -72 -195.999 -72zM305 117c51.333 0 77 47 77 141
c0 93.333 -25.667 140 -77 140s-77 -46.667 -77 -140c0 -94 25.667 -141 77 -141zM215 591l-99 0.000976562c-2 11.333 -3 26.666 -3 45.999c0 34 9.83301 60.833 29.5 80.5s47.167 29.5 82.5 29.5c20 0 38.167 -3.16699 54.5 -9.5s34.5 -17.5 54.5 -33.5
c18 -14.667 31.333 -22 40 -22c12 0 18.667 10.333 20 31l2 31h99c2 -10.667 3 -26 3 -46c0 -34 -9.83301 -60.833 -29.5 -80.5s-47.167 -29.5 -82.5 -29.5c-20 0 -38.167 3.16699 -54.5 9.5s-34.5 17.5 -54.5 33.5c-18 14.667 -31.333 22 -40 22
c-12 0 -18.667 -10.333 -20 -31z" />
    <glyph glyph-name="odieresis" unicode="&#xf6;" horiz-adv-x="610" 
d="M305 -15c-83.333 0 -148.666 24 -195.999 72s-71 115 -71 201c0 85.333 23.667 152 71 200s112.666 72 195.999 72s148.666 -24 195.999 -72s71 -114.667 71 -200c0 -86 -23.667 -153 -71 -201s-112.666 -72 -195.999 -72zM305 117c51.333 0 77 47 77 141
c0 93.333 -25.667 140 -77 140s-77 -46.667 -77 -140c0 -94 25.667 -141 77 -141zM180 578c-29.333 0 -52.833 7.83301 -70.5 23.5s-26.5 36.834 -26.5 63.501s8.83301 47.834 26.5 63.501s41.167 23.5 70.5 23.5s52.833 -7.83301 70.5 -23.5s26.5 -36.834 26.5 -63.501
s-8.83301 -47.834 -26.5 -63.501s-41.167 -23.5 -70.5 -23.5zM430 578c-29.333 0 -52.833 7.83301 -70.5 23.5s-26.5 36.834 -26.5 63.501s8.83301 47.834 26.5 63.501s41.167 23.5 70.5 23.5s52.833 -7.83301 70.5 -23.5s26.5 -36.834 26.5 -63.501
s-8.83301 -47.834 -26.5 -63.501s-41.167 -23.5 -70.5 -23.5z" />
    <glyph glyph-name="divide" unicode="&#xf7;" 
d="M299 456c-26 0 -47.167 7.83301 -63.5 23.5s-24.5 36.5 -24.5 62.5s8.16699 46.833 24.5 62.5s37.5 23.5 63.5 23.5s47.167 -7.83301 63.5 -23.5s24.5 -36.5 24.5 -62.5s-8.16699 -46.833 -24.5 -62.5s-37.5 -23.5 -63.5 -23.5zM56 280v132h486v-132h-486zM299 63
c-26 0 -47.167 7.83301 -63.5 23.5s-24.5 36.5 -24.5 62.5s8.16699 46.833 24.5 62.5s37.5 23.5 63.5 23.5s47.167 -7.83301 63.5 -23.5s24.5 -36.5 24.5 -62.5s-8.16699 -46.833 -24.5 -62.5s-37.5 -23.5 -63.5 -23.5z" />
    <glyph glyph-name="oslash" unicode="&#xf8;" horiz-adv-x="610" 
d="M44 13l50 59.999c-37.333 46.667 -56 108.334 -56 185.001c0 85.333 23.667 152 71 200s112.666 72 195.999 72c53.333 0 100.333 -10.667 141 -32l49 60l71 -56l-50 -61c37.333 -46.667 56 -107.667 56 -183c0 -86 -23.667 -153 -71 -201s-112.666 -72 -195.999 -72
c-54 0 -101 10.333 -141 31l-49 -59zM305 108.999c30 0 53.833 13.333 71.5 40s26.5 63 26.5 109c0 16 -1 30.333 -3 43l-146 -176c13.333 -10.667 30.333 -16 51 -16zM207 257.999c0 -16 1.00098 -30.667 3.00098 -44l145 175c-14.667 11.333 -31.334 17 -50.001 17
c-29.333 0 -53 -13.167 -71 -39.5s-27 -62.5 -27 -108.5z" />
    <glyph glyph-name="ugrave" unicode="&#xf9;" horiz-adv-x="622" 
d="M405 0l-16 51c-58.667 -44 -117.667 -66 -177 -66c-48 0 -85.333 13.833 -112 41.5s-40 65.5 -40 113.5v375h188v-339c0 -20 3.83301 -34.5 11.5 -43.5s20.167 -13.5 37.5 -13.5c24 0 48.333 7 73 21v375h188v-515h-153zM233 600l-142 177h192l102 -177h-152z" />
    <glyph glyph-name="uacute" unicode="&#xfa;" horiz-adv-x="622" 
d="M405 0l-16 51c-58.667 -44 -117.667 -66 -177 -66c-48 0 -85.333 13.833 -112 41.5s-40 65.5 -40 113.5v375h188v-339c0 -20 3.83301 -34.5 11.5 -43.5s20.167 -13.5 37.5 -13.5c24 0 48.333 7 73 21v375h188v-515h-153zM233 600l102 177h192l-142 -177h-152z" />
    <glyph glyph-name="ucircumflex" unicode="&#xfb;" horiz-adv-x="622" 
d="M405 0l-16 51c-58.667 -44 -117.667 -66 -177 -66c-48 0 -85.333 13.833 -112 41.5s-40 65.5 -40 113.5v375h188v-339c0 -20 3.83301 -34.5 11.5 -43.5s20.167 -13.5 37.5 -13.5c24 0 48.333 7 73 21v375h188v-515h-153zM387 600l-78 92l-78 -92h-139l127 178h180
l127 -178h-139z" />
    <glyph glyph-name="udieresis" unicode="&#xfc;" horiz-adv-x="622" 
d="M405 0l-16 51c-58.667 -44 -117.667 -66 -177 -66c-48 0 -85.333 13.833 -112 41.5s-40 65.5 -40 113.5v375h188v-339c0 -20 3.83301 -34.5 11.5 -43.5s20.167 -13.5 37.5 -13.5c24 0 48.333 7 73 21v375h188v-515h-153zM184 578c-29.333 0 -52.833 7.83301 -70.5 23.5
s-26.5 36.834 -26.5 63.501s8.83301 47.834 26.5 63.501s41.167 23.5 70.5 23.5s52.833 -7.83301 70.5 -23.5s26.5 -36.834 26.5 -63.501s-8.83301 -47.834 -26.5 -63.501s-41.167 -23.5 -70.5 -23.5zM434 578c-29.333 0 -52.833 7.83301 -70.5 23.5
s-26.5 36.834 -26.5 63.501s8.83301 47.834 26.5 63.501s41.167 23.5 70.5 23.5s52.833 -7.83301 70.5 -23.5s26.5 -36.834 26.5 -63.501s-8.83301 -47.834 -26.5 -63.501s-41.167 -23.5 -70.5 -23.5z" />
    <glyph glyph-name="yacute" unicode="&#xfd;" horiz-adv-x="562" 
d="M103 -83c26.667 0 47.833 5.16699 63.5 15.5s28.5 27.5 38.5 51.5l-205 531h199l88 -342l81 342h194l-204 -567c-20.667 -58 -46.667 -100.167 -78 -126.5s-71.333 -39.5 -120 -39.5c-41.333 0 -80 6 -116 18v120c15.333 -2 35 -3 59 -3zM204.999 600l102 177h192
l-142 -177h-152z" />
    <glyph glyph-name="thorn" unicode="&#xfe;" horiz-adv-x="630" 
d="M64 -206l0.000976562 946.001h188v-256c18.667 14.667 39.5 26 62.5 34s46.167 12 69.5 12c64 0 114.667 -23.667 152 -71s56 -112 56 -194c0 -56.667 -9.33301 -105.834 -28 -147.501s-44.5 -73.5 -77.5 -95.5s-70.167 -33 -111.5 -33
c-22.667 0 -44.834 3.33301 -66.501 10s-40.5 16 -56.5 28v-233h-188zM319.001 400.001c-23.333 0 -45.666 -5 -66.999 -15v-249c21.333 -10 43.666 -15 66.999 -15c30 0 51.333 10.667 64 32s19 56.333 19 105c0 50 -6.33301 86.167 -19 108.5s-34 33.5 -64 33.5z" />
    <glyph glyph-name="ydieresis" unicode="&#xff;" horiz-adv-x="562" 
d="M103 -83c26.667 0 47.833 5.16699 63.5 15.5s28.5 27.5 38.5 51.5l-205 531h199l88 -342l81 342h194l-204 -567c-20.667 -58 -46.667 -100.167 -78 -126.5s-71.333 -39.5 -120 -39.5c-41.333 0 -80 6 -116 18v120c15.333 -2 35 -3 59 -3zM155.999 578
c-29.333 0 -52.833 7.83301 -70.5 23.5s-26.5 36.834 -26.5 63.501s8.83301 47.834 26.5 63.501s41.167 23.5 70.5 23.5s52.833 -7.83301 70.5 -23.5s26.5 -36.834 26.5 -63.501s-8.83301 -47.834 -26.5 -63.501s-41.167 -23.5 -70.5 -23.5zM405.999 578
c-29.333 0 -52.833 7.83301 -70.5 23.5s-26.5 36.834 -26.5 63.501s8.83301 47.834 26.5 63.501s41.167 23.5 70.5 23.5s52.833 -7.83301 70.5 -23.5s26.5 -36.834 26.5 -63.501s-8.83301 -47.834 -26.5 -63.501s-41.167 -23.5 -70.5 -23.5z" />
    <glyph glyph-name="Amacron" unicode="&#x100;" horiz-adv-x="705" 
d="M492 0l-38 134h-212l-36 -134h-204l244 693h213l244 -693h-211zM278 270h140l-71 257zM174 784v110h357v-110h-357z" />
    <glyph glyph-name="amacron" unicode="&#x101;" horiz-adv-x="566" 
d="M357 0l-14.001 39.999c-20 -18.667 -42.667 -33 -68 -43s-51.333 -15 -78 -15c-49.333 0 -89.166 14.333 -119.499 43s-45.5 67 -45.5 115c0 34 9 63.833 27 89.5s42.667 45.334 74 59.001s67 20.5 107 20.5c30 0 60 -3 90 -9v26c0 28 -6.33301 47.333 -19 58
s-35 16 -67 16c-46.667 0 -103.667 -10.333 -171 -31v116c27.333 14 60.333 25 99 33s78.334 12 119.001 12c73.333 0 127.166 -14.833 161.499 -44.5s51.5 -76.5 51.5 -140.5v-345h-147zM257.999 100.999c12.667 0 25.667 2.83203 39 8.49902s24.333 12.834 33 21.501v74
c-18.667 2.66699 -37 4 -55 4c-44.667 0 -67 -18.667 -67 -56c0 -16 4.5 -28.667 13.5 -38s21.167 -14 36.5 -14zM103.999 611.998v110h357v-110h-357z" />
    <glyph glyph-name="Abreve" unicode="&#x102;" horiz-adv-x="705" 
d="M492 0l-38 134h-212l-36 -134h-204l244 693h213l244 -693h-211zM278 270h140l-71 257zM352 760c-54 0 -95.4961 11 -124.496 33s-43.5 53.667 -43.5 95c0 14 1 24.333 3 31h99l1 -14c1.33301 -14 7.16602 -24 17.499 -30s26.166 -9 47.499 -9s37.166 3 47.499 9
s16.166 16 17.499 30l1 14h99c2 -6.66699 3 -17 3 -31c0 -41.333 -14.5 -73 -43.5 -95s-70.5 -33 -124.5 -33z" />
    <glyph glyph-name="abreve" unicode="&#x103;" horiz-adv-x="566" 
d="M357 0l-14.001 39.999c-20 -18.667 -42.667 -33 -68 -43s-51.333 -15 -78 -15c-49.333 0 -89.166 14.333 -119.499 43s-45.5 67 -45.5 115c0 34 9 63.833 27 89.5s42.667 45.334 74 59.001s67 20.5 107 20.5c30 0 60 -3 90 -9v26c0 28 -6.33301 47.333 -19 58
s-35 16 -67 16c-46.667 0 -103.667 -10.333 -171 -31v116c27.333 14 60.333 25 99 33s78.334 12 119.001 12c73.333 0 127.166 -14.833 161.499 -44.5s51.5 -76.5 51.5 -140.5v-345h-147zM257.999 100.999c12.667 0 25.667 2.83203 39 8.49902s24.333 12.834 33 21.501v74
c-18.667 2.66699 -37 4 -55 4c-44.667 0 -67 -18.667 -67 -56c0 -16 4.5 -28.667 13.5 -38s21.167 -14 36.5 -14zM281.999 593.998c-51.333 0 -92.168 13 -122.501 39s-45.5 61 -45.5 105c0 12.667 1 24 3 34h99l4 -29c2 -15.333 7.83301 -26.333 17.5 -33
s24.5 -10 44.5 -10s34.833 3.33301 44.5 10s15.5 17.667 17.5 33l4 29h99c2 -10 3 -21.333 3 -34c0 -44 -15.167 -79 -45.5 -105s-71.166 -39 -122.499 -39z" />
    <glyph glyph-name="Aogonek" unicode="&#x104;" horiz-adv-x="705" 
d="M459 693l243.999 -693.001c-54 -39.333 -81 -74.333 -81 -105c0 -10.667 3.83301 -19 11.5 -25s18.167 -9 31.5 -9c12.667 0 28.334 2.33301 47.001 7v-91c-24 -9.33301 -52.667 -14 -86 -14c-45.333 0 -80 8.33301 -104 25s-36 40.334 -36 71.001
c0 49.333 32.333 96.333 97 141h-91l-38 134h-212l-36 -134h-204l244 693h213zM277.999 269.999h140l-71 257z" />
    <glyph glyph-name="aogonek" unicode="&#x105;" horiz-adv-x="566" 
d="M504 0c-54 -39.333 -81.002 -75.002 -81.002 -107.002c0 -22.667 15 -34 45 -34c12.667 0 28.334 2.33301 47.001 7v-89c-24 -9.33301 -52.667 -14 -86 -14c-45.333 0 -80 8.33301 -104 25s-36 40.334 -36 71.001c0 49.333 32.333 96.333 97 141h-29l-14 40
c-20 -18.667 -42.667 -33 -68 -43s-51.333 -15 -78 -15c-49.333 0 -89.166 14.333 -119.499 43s-45.5 67 -45.5 115c0 34 9 63.833 27 89.5s42.667 45.334 74 59.001s67 20.5 107 20.5c30 0 60 -3 90 -9v26c0 28 -6.33301 47.333 -19 58s-35 16 -67 16
c-46.667 0 -103.667 -10.333 -171 -31v116c27.333 14 60.333 25 99 33s78.334 12 119.001 12c73.333 0 127.166 -14.833 161.499 -44.5s51.5 -76.5 51.5 -140.5v-345zM257.998 100.998c12.667 0 25.667 2.83203 39 8.49902s24.333 12.834 33 21.501v74
c-18.667 2.66699 -37 4 -55 4c-44.667 0 -67 -18.667 -67 -56c0 -16 4.5 -28.667 13.5 -38s21.167 -14 36.5 -14z" />
    <glyph glyph-name="Cacute" unicode="&#x106;" horiz-adv-x="623" 
d="M595 18c-54.667 -20.667 -117.997 -31.002 -189.997 -31.002c-114.667 0 -201.834 30.333 -261.501 91s-89.5 149.334 -89.5 266.001c0 114.667 31.167 203.667 93.5 267s149.166 95 260.499 95c61.333 0 120.333 -9.66699 177 -29v-146c-56 12 -104 18 -144 18
c-61.333 0 -107.666 -16.167 -138.999 -48.5s-47 -80.166 -47 -143.499v-22c0 -62 15.167 -109.333 45.5 -142s75.166 -49 134.499 -49c45.333 0 98.666 6.66699 159.999 20v-146zM318.003 768.998l107 135h185l-140 -135h-152z" />
    <glyph glyph-name="cacute" unicode="&#x107;" horiz-adv-x="490" 
d="M459 23c-20.667 -10.667 -44.668 -19 -72.001 -25s-55.666 -9 -84.999 -9c-86 0 -151.5 22.5 -196.5 67.5s-67.5 110.833 -67.5 197.5c0 86 23.833 152.833 71.5 200.5s114.5 71.5 200.5 71.5c57.333 0 106.333 -11 147 -33v-119c-38.667 12 -75 18 -109 18
c-41.333 0 -71.666 -10.333 -90.999 -31s-29 -53 -29 -97v-14c0 -43.333 9.66699 -75.333 29 -96s48.666 -31 87.999 -31c36 0 74 6.33301 114 19v-119zM203.999 600l102 177h192l-142 -177h-152z" />
    <glyph glyph-name="Ccircumflex" unicode="&#x108;" horiz-adv-x="623" 
d="M595 18c-54.667 -20.667 -117.997 -31.002 -189.997 -31.002c-114.667 0 -201.834 30.333 -261.501 91s-89.5 149.334 -89.5 266.001c0 114.667 31.167 203.667 93.5 267s149.166 95 260.499 95c61.333 0 120.333 -9.66699 177 -29v-146c-56 12 -104 18 -144 18
c-61.333 0 -107.666 -16.167 -138.999 -48.5s-47 -80.166 -47 -143.499v-22c0 -62 15.167 -109.333 45.5 -142s75.166 -49 134.499 -49c45.333 0 98.666 6.66699 159.999 20v-146zM464.003 768.998l-70 69l-70 -69h-154l130 147h188l130 -147h-154z" />
    <glyph glyph-name="ccircumflex" unicode="&#x109;" horiz-adv-x="490" 
d="M459 23c-20.667 -10.667 -44.668 -19 -72.001 -25s-55.666 -9 -84.999 -9c-86 0 -151.5 22.5 -196.5 67.5s-67.5 110.833 -67.5 197.5c0 86 23.833 152.833 71.5 200.5s114.5 71.5 200.5 71.5c57.333 0 106.333 -11 147 -33v-119c-38.667 12 -75 18 -109 18
c-41.333 0 -71.666 -10.333 -90.999 -31s-29 -53 -29 -97v-14c0 -43.333 9.66699 -75.333 29 -96s48.666 -31 87.999 -31c36 0 74 6.33301 114 19v-119zM357.999 600l-78 92l-78 -92h-139l127 178h180l127 -178h-139z" />
    <glyph glyph-name="Cdotaccent" unicode="&#x10a;" horiz-adv-x="623" 
d="M595 18c-54.667 -20.667 -117.997 -31.002 -189.997 -31.002c-114.667 0 -201.834 30.333 -261.501 91s-89.5 149.334 -89.5 266.001c0 114.667 31.167 203.667 93.5 267s149.166 95 260.499 95c61.333 0 120.333 -9.66699 177 -29v-146c-56 12 -104 18 -144 18
c-61.333 0 -107.666 -16.167 -138.999 -48.5s-47 -80.166 -47 -143.499v-22c0 -62 15.167 -109.333 45.5 -142s75.166 -49 134.499 -49c45.333 0 98.666 6.66699 159.999 20v-146zM394.003 757.998c-32.667 0 -58.667 8.83301 -78 26.5s-29 41.167 -29 70.5
s9.66699 52.833 29 70.5s45.333 26.5 78 26.5s58.667 -8.83301 78 -26.5s29 -41.167 29 -70.5s-9.66699 -52.833 -29 -70.5s-45.333 -26.5 -78 -26.5z" />
    <glyph glyph-name="cdotaccent" unicode="&#x10b;" horiz-adv-x="490" 
d="M459 23c-20.667 -10.667 -44.668 -19 -72.001 -25s-55.666 -9 -84.999 -9c-86 0 -151.5 22.5 -196.5 67.5s-67.5 110.833 -67.5 197.5c0 86 23.833 152.833 71.5 200.5s114.5 71.5 200.5 71.5c57.333 0 106.333 -11 147 -33v-119c-38.667 12 -75 18 -109 18
c-41.333 0 -71.666 -10.333 -90.999 -31s-29 -53 -29 -97v-14c0 -43.333 9.66699 -75.333 29 -96s48.666 -31 87.999 -31c36 0 74 6.33301 114 19v-119zM279.999 580c-32 0 -57.5 8.66699 -76.5 26s-28.5 40.333 -28.5 69s9.5 51.667 28.5 69s44.5 26 76.5 26
s57.5 -8.66699 76.5 -26s28.5 -40.333 28.5 -69s-9.5 -51.667 -28.5 -69s-44.5 -26 -76.5 -26z" />
    <glyph glyph-name="Ccaron" unicode="&#x10c;" horiz-adv-x="623" 
d="M595 18c-54.667 -20.667 -117.997 -31.002 -189.997 -31.002c-114.667 0 -201.834 30.333 -261.501 91s-89.5 149.334 -89.5 266.001c0 114.667 31.167 203.667 93.5 267s149.166 95 260.499 95c61.333 0 120.333 -9.66699 177 -29v-146c-56 12 -104 18 -144 18
c-61.333 0 -107.666 -16.167 -138.999 -48.5s-47 -80.166 -47 -143.499v-22c0 -62 15.167 -109.333 45.5 -142s75.166 -49 134.499 -49c45.333 0 98.666 6.66699 159.999 20v-146zM300.003 768.998l-130 147h178l46 -77l46 77h178l-130 -147h-188z" />
    <glyph glyph-name="ccaron" unicode="&#x10d;" horiz-adv-x="490" 
d="M459 23c-20.667 -10.667 -44.668 -19 -72.001 -25s-55.666 -9 -84.999 -9c-86 0 -151.5 22.5 -196.5 67.5s-67.5 110.833 -67.5 197.5c0 86 23.833 152.833 71.5 200.5s114.5 71.5 200.5 71.5c57.333 0 106.333 -11 147 -33v-119c-38.667 12 -75 18 -109 18
c-41.333 0 -71.666 -10.333 -90.999 -31s-29 -53 -29 -97v-14c0 -43.333 9.66699 -75.333 29 -96s48.666 -31 87.999 -31c36 0 74 6.33301 114 19v-119zM189.999 600l-127 178h161l56 -102l56 102h161l-127 -178h-180z" />
    <glyph glyph-name="Dcaron" unicode="&#x10e;" horiz-adv-x="735" 
d="M74 0l-0.00195312 693h271c106.667 0 189.334 -30 248.001 -90s88 -145.333 88 -256c0 -72.667 -13 -135.167 -39 -187.5s-63.167 -92 -111.5 -119s-106.166 -40.5 -173.499 -40.5h-283zM266.998 545v-397h66c100.667 0 151 63.333 151 190v18
c0 126 -49.667 189 -149 189h-68zM242.998 769l-130 147h178l46 -77l46 77h178l-130 -147h-188z" />
    <glyph glyph-name="dcaron" unicode="&#x10f;" horiz-adv-x="727" 
d="M247 -11c-65.333 0 -116.5 23.667 -153.5 71s-55.5 112.333 -55.5 195c0 56.667 9.16699 105.667 27.5 147s43.833 73 76.5 95s70 33 112 33c46 0 86.333 -12.667 121 -38v248h188v-740h-158l-15 46c-18 -18 -39.5 -32 -64.5 -42s-51.167 -15 -78.5 -15zM312 121
c18 0 39 5.00098 63 15.001v250c-20.667 9.33301 -44 14 -70 14c-26.667 0 -46.167 -11.333 -58.5 -34s-18.5 -58.334 -18.5 -107.001c0 -48 6.5 -83 19.5 -105s34.5 -33 64.5 -33zM626 529.001v209c21.333 9.33301 47.666 14 78.999 14
c36.667 0 65.334 -8.33301 86.001 -25l-49 -198h-116z" />
    <glyph glyph-name="Dcroat" unicode="&#x110;" horiz-adv-x="745" 
d="M84 0l-0.00195312 300h-82v114h82v279h271c106.667 0 189.334 -30 248.001 -90s88 -145.333 88 -256c0 -72.667 -13 -135.167 -39 -187.5s-63.167 -92 -111.5 -119s-106.166 -40.5 -173.499 -40.5h-283zM266.998 300v-152h76c100.667 0 151 63.333 151 190v18
c0 126 -49.667 189 -149 189h-78v-131h133v-114h-133z" />
    <glyph glyph-name="dcroat" unicode="&#x111;" horiz-adv-x="627" 
d="M247 -11c-64.667 0 -115.667 22.832 -153 68.499s-56 108.167 -56 187.5c0 54.667 9.33301 101.834 28 141.501s44.167 70.167 76.5 91.5s69.5 32 111.5 32c46 0 86.333 -12.667 121 -38v105h-137v100h137v63h188v-63h64v-100h-64v-577h-158l-15 46
c-18 -18 -39.5 -32 -64.5 -42s-51.167 -15 -78.5 -15zM312 120.999c18 0 39.001 5 63.001 15v230c-20.667 9.33301 -44 14 -70 14s-45.333 -10.667 -58 -32s-19 -54.333 -19 -99c0 -44 6.66699 -76.333 20 -97s34.666 -31 63.999 -31z" />
    <glyph glyph-name="Emacron" unicode="&#x112;" horiz-adv-x="593" 
d="M74 0v693h483v-146h-295v-121h240v-146h-240v-134h297v-146h-485zM137 784v110h357v-110h-357z" />
    <glyph glyph-name="emacron" unicode="&#x113;" horiz-adv-x="554" 
d="M209 210c3.33301 -33.333 16.166 -57.499 38.499 -72.499s55.833 -22.5 100.5 -22.5c42.667 0 94.667 8.66699 156 26v-115c-25.333 -12.667 -55.666 -22.667 -90.999 -30s-70.333 -11 -105 -11c-180 0 -270 90.667 -270 272c0 85.333 23 152.166 69 200.499
s110 72.5 192 72.5c69.333 0 123 -18.5 161 -55.5s57 -89.833 57 -158.5c0 -15.333 -1.16699 -33.5 -3.5 -54.5s-4.83301 -38.167 -7.5 -51.5h-297zM294 405.001c-24 0 -43.333 -7.5 -58 -22.5s-23.667 -36.5 -27 -64.5h150v12c0 50 -21.667 75 -65 75zM110 612.001v110h357
v-110h-357z" />
    <glyph glyph-name="Ebreve" unicode="&#x114;" horiz-adv-x="593" 
d="M74 0v693h483v-146h-295v-121h240v-146h-240v-134h297v-146h-485zM315 760c-54 0 -95.4961 11 -124.496 33s-43.5 53.667 -43.5 95c0 14 1 24.333 3 31h99l1 -14c1.33301 -14 7.16602 -24 17.499 -30s26.166 -9 47.499 -9s37.166 3 47.499 9s16.166 16 17.499 30l1 14h99
c2 -6.66699 3 -17 3 -31c0 -41.333 -14.5 -73 -43.5 -95s-70.5 -33 -124.5 -33z" />
    <glyph glyph-name="ebreve" unicode="&#x115;" horiz-adv-x="554" 
d="M209 210c3.33301 -33.333 16.166 -57.499 38.499 -72.499s55.833 -22.5 100.5 -22.5c42.667 0 94.667 8.66699 156 26v-115c-25.333 -12.667 -55.666 -22.667 -90.999 -30s-70.333 -11 -105 -11c-180 0 -270 90.667 -270 272c0 85.333 23 152.166 69 200.499
s110 72.5 192 72.5c69.333 0 123 -18.5 161 -55.5s57 -89.833 57 -158.5c0 -15.333 -1.16699 -33.5 -3.5 -54.5s-4.83301 -38.167 -7.5 -51.5h-297zM294 405.001c-24 0 -43.333 -7.5 -58 -22.5s-23.667 -36.5 -27 -64.5h150v12c0 50 -21.667 75 -65 75zM288 594.001
c-51.333 0 -92.168 13 -122.501 39s-45.5 61 -45.5 105c0 12.667 1 24 3 34h99l4 -29c2 -15.333 7.83301 -26.333 17.5 -33s24.5 -10 44.5 -10s34.833 3.33301 44.5 10s15.5 17.667 17.5 33l4 29h99c2 -10 3 -21.333 3 -34c0 -44 -15.167 -79 -45.5 -105
s-71.166 -39 -122.499 -39z" />
    <glyph glyph-name="Edotaccent" unicode="&#x116;" horiz-adv-x="593" 
d="M74 0v693h483v-146h-295v-121h240v-146h-240v-134h297v-146h-485zM315 758c-32.667 0 -58.667 8.83301 -78 26.5s-29 41.167 -29 70.5s9.66699 52.833 29 70.5s45.333 26.5 78 26.5s58.667 -8.83301 78 -26.5s29 -41.167 29 -70.5s-9.66699 -52.833 -29 -70.5
s-45.333 -26.5 -78 -26.5z" />
    <glyph glyph-name="edotaccent" unicode="&#x117;" horiz-adv-x="554" 
d="M209 210c3.33301 -33.333 16.166 -57.499 38.499 -72.499s55.833 -22.5 100.5 -22.5c42.667 0 94.667 8.66699 156 26v-115c-25.333 -12.667 -55.666 -22.667 -90.999 -30s-70.333 -11 -105 -11c-180 0 -270 90.667 -270 272c0 85.333 23 152.166 69 200.499
s110 72.5 192 72.5c69.333 0 123 -18.5 161 -55.5s57 -89.833 57 -158.5c0 -15.333 -1.16699 -33.5 -3.5 -54.5s-4.83301 -38.167 -7.5 -51.5h-297zM294 405.001c-24 0 -43.333 -7.5 -58 -22.5s-23.667 -36.5 -27 -64.5h150v12c0 50 -21.667 75 -65 75zM288 580.001
c-32 0 -57.5 8.66699 -76.5 26s-28.5 40.333 -28.5 69s9.5 51.667 28.5 69s44.5 26 76.5 26s57.5 -8.66699 76.5 -26s28.5 -40.333 28.5 -69s-9.5 -51.667 -28.5 -69s-44.5 -26 -76.5 -26z" />
    <glyph glyph-name="Eogonek" unicode="&#x118;" horiz-adv-x="593" 
d="M559 146l-0.000976562 -146.001c-54 -39.333 -81 -74.333 -81 -105c0 -10.667 3.83301 -19 11.5 -25s18.167 -9 31.5 -9c12.667 0 28.334 2.33301 47.001 7v-91c-24 -9.33301 -52.667 -14 -86 -14c-45.333 0 -80 8.33301 -104 25s-36 40.334 -36 71.001
c0 49.333 32.333 96.333 97 141h-365v693h483v-146h-295v-121h240v-146h-240v-134h297z" />
    <glyph glyph-name="eogonek" unicode="&#x119;" horiz-adv-x="554" 
d="M231 -136c0 42.667 31 83.001 93 121.001h-16c-180 0 -270 90.667 -270 272c0 85.333 23 152.166 69 200.499s110 72.5 192 72.5c69.333 0 123 -18.5 161 -55.5s57 -89.833 57 -158.5c0 -15.333 -1.16699 -33.5 -3.5 -54.5s-4.83301 -38.167 -7.5 -51.5h-297
c3.33301 -33.333 16.166 -57.5 38.499 -72.5s55.833 -22.5 100.5 -22.5c42.667 0 94.667 8.66699 156 26v-115c-42 -18 -75.667 -38.833 -101 -62.5s-38 -46.167 -38 -67.5c0 -24.667 15 -37 45 -37c12.667 0 28.334 2.33301 47.001 7v-89c-24 -9.33301 -52.667 -14 -86 -14
c-46 0 -80.833 8.5 -104.5 25.5s-35.5 42.167 -35.5 75.5zM294 405.001c-24 0 -43.333 -7.5 -58 -22.5s-23.667 -36.5 -27 -64.5h150v12c0 50 -21.667 75 -65 75z" />
    <glyph glyph-name="Ecaron" unicode="&#x11a;" horiz-adv-x="593" 
d="M74 0v693h483v-146h-295v-121h240v-146h-240v-134h297v-146h-485zM221 769l-130 147h178l46 -77l46 77h178l-130 -147h-188z" />
    <glyph glyph-name="ecaron" unicode="&#x11b;" horiz-adv-x="554" 
d="M209 210c3.33301 -33.333 16.166 -57.499 38.499 -72.499s55.833 -22.5 100.5 -22.5c42.667 0 94.667 8.66699 156 26v-115c-25.333 -12.667 -55.666 -22.667 -90.999 -30s-70.333 -11 -105 -11c-180 0 -270 90.667 -270 272c0 85.333 23 152.166 69 200.499
s110 72.5 192 72.5c69.333 0 123 -18.5 161 -55.5s57 -89.833 57 -158.5c0 -15.333 -1.16699 -33.5 -3.5 -54.5s-4.83301 -38.167 -7.5 -51.5h-297zM294 405.001c-24 0 -43.333 -7.5 -58 -22.5s-23.667 -36.5 -27 -64.5h150v12c0 50 -21.667 75 -65 75zM198 600.001
l-127 178h161l56 -102l56 102h161l-127 -178h-180z" />
    <glyph glyph-name="Gcircumflex" unicode="&#x11c;" horiz-adv-x="727" 
d="M431 135c22 0 42.6689 1.33203 62.002 3.99902v128h-115v134h287v-358c-32.667 -16.667 -73.334 -30.167 -122.001 -40.5s-97 -15.5 -145 -15.5c-72.667 0 -134.834 14.167 -186.501 42.5s-90.834 68.833 -117.501 121.5s-40 115.334 -40 188.001
c0 117.333 32.5 207.833 97.5 271.5s156.833 95.5 275.5 95.5c35.333 0 72.5 -4.16699 111.5 -12.5s72.167 -19.166 99.5 -32.499v-140c-30.667 10 -63.667 18 -99 24s-66.666 9 -93.999 9c-66.667 0 -116 -16.833 -148 -50.5s-48 -84.834 -48 -153.501v-15
c0 -133.333 60.667 -200 182 -200zM485.002 768.999l-70 69l-70 -69h-154l130 147h188l130 -147h-154z" />
    <glyph glyph-name="gcircumflex" unicode="&#x11d;" horiz-adv-x="612" 
d="M364 57c-36 -29.333 -76.668 -44.0029 -122.001 -44.0029c-41.333 0 -77.5 10.833 -108.5 32.5s-54.667 51.834 -71 90.501s-24.5 83.334 -24.5 134.001c0 52.667 9 98.834 27 138.501s42.667 69.834 74 90.501s66.666 31 105.999 31c28 0 53.833 -4.66699 77.5 -14
s43.834 -23 60.501 -41l12 40h153v-469c0 -82.667 -23.833 -147.334 -71.5 -194.001s-113.5 -70 -197.5 -70c-37.333 0 -71.166 3.33301 -101.499 10s-62.166 18 -95.499 34v118c63.333 -20 119.666 -30 168.999 -30c40 0 68.833 8 86.5 24s26.5 42.333 26.5 79v40z
M303.999 142.997c18.667 0 38.668 4.99902 60.001 14.999v228c-22 9.33301 -44.667 14 -68 14c-24.667 0 -42.834 -10.333 -54.501 -31s-17.5 -52 -17.5 -94c0 -47.333 6.16699 -81.166 18.5 -101.499s32.833 -30.5 61.5 -30.5zM378 599.996l-78 92l-78 -92h-139l127 178
h180l127 -178h-139z" />
    <glyph glyph-name="Gbreve" unicode="&#x11e;" horiz-adv-x="727" 
d="M431 135c22 0 42.6689 1.33203 62.002 3.99902v128h-115v134h287v-358c-32.667 -16.667 -73.334 -30.167 -122.001 -40.5s-97 -15.5 -145 -15.5c-72.667 0 -134.834 14.167 -186.501 42.5s-90.834 68.833 -117.501 121.5s-40 115.334 -40 188.001
c0 117.333 32.5 207.833 97.5 271.5s156.833 95.5 275.5 95.5c35.333 0 72.5 -4.16699 111.5 -12.5s72.167 -19.166 99.5 -32.499v-140c-30.667 10 -63.667 18 -99 24s-66.666 9 -93.999 9c-66.667 0 -116 -16.833 -148 -50.5s-48 -84.834 -48 -153.501v-15
c0 -133.333 60.667 -200 182 -200zM415.002 759.999c-54 0 -95.4961 11 -124.496 33s-43.5 53.667 -43.5 95c0 14 1 24.333 3 31h99l1 -14c1.33301 -14 7.16602 -24 17.499 -30s26.166 -9 47.499 -9s37.166 3 47.499 9s16.166 16 17.499 30l1 14h99c2 -6.66699 3 -17 3 -31
c0 -41.333 -14.5 -73 -43.5 -95s-70.5 -33 -124.5 -33z" />
    <glyph glyph-name="gbreve" unicode="&#x11f;" horiz-adv-x="612" 
d="M364 57c-36 -29.333 -76.668 -44.0029 -122.001 -44.0029c-41.333 0 -77.5 10.833 -108.5 32.5s-54.667 51.834 -71 90.501s-24.5 83.334 -24.5 134.001c0 52.667 9 98.834 27 138.501s42.667 69.834 74 90.501s66.666 31 105.999 31c28 0 53.833 -4.66699 77.5 -14
s43.834 -23 60.501 -41l12 40h153v-469c0 -82.667 -23.833 -147.334 -71.5 -194.001s-113.5 -70 -197.5 -70c-37.333 0 -71.166 3.33301 -101.499 10s-62.166 18 -95.499 34v118c63.333 -20 119.666 -30 168.999 -30c40 0 68.833 8 86.5 24s26.5 42.333 26.5 79v40z
M303.999 142.997c18.667 0 38.668 4.99902 60.001 14.999v228c-22 9.33301 -44.667 14 -68 14c-24.667 0 -42.834 -10.333 -54.501 -31s-17.5 -52 -17.5 -94c0 -47.333 6.16699 -81.166 18.5 -101.499s32.833 -30.5 61.5 -30.5zM300 593.996
c-51.333 0 -92.168 13 -122.501 39s-45.5 61 -45.5 105c0 12.667 1 24 3 34h99l4 -29c2 -15.333 7.83301 -26.333 17.5 -33s24.5 -10 44.5 -10s34.833 3.33301 44.5 10s15.5 17.667 17.5 33l4 29h99c2 -10 3 -21.333 3 -34c0 -44 -15.167 -79 -45.5 -105
s-71.166 -39 -122.499 -39z" />
    <glyph glyph-name="Gdotaccent" unicode="&#x120;" horiz-adv-x="727" 
d="M431 135c22 0 42.6689 1.33203 62.002 3.99902v128h-115v134h287v-358c-32.667 -16.667 -73.334 -30.167 -122.001 -40.5s-97 -15.5 -145 -15.5c-72.667 0 -134.834 14.167 -186.501 42.5s-90.834 68.833 -117.501 121.5s-40 115.334 -40 188.001
c0 117.333 32.5 207.833 97.5 271.5s156.833 95.5 275.5 95.5c35.333 0 72.5 -4.16699 111.5 -12.5s72.167 -19.166 99.5 -32.499v-140c-30.667 10 -63.667 18 -99 24s-66.666 9 -93.999 9c-66.667 0 -116 -16.833 -148 -50.5s-48 -84.834 -48 -153.501v-15
c0 -133.333 60.667 -200 182 -200zM415.002 757.999c-32.667 0 -58.667 8.83301 -78 26.5s-29 41.167 -29 70.5s9.66699 52.833 29 70.5s45.333 26.5 78 26.5s58.667 -8.83301 78 -26.5s29 -41.167 29 -70.5s-9.66699 -52.833 -29 -70.5s-45.333 -26.5 -78 -26.5z" />
    <glyph glyph-name="gdotaccent" unicode="&#x121;" horiz-adv-x="612" 
d="M364 57c-36 -29.333 -76.668 -44.0029 -122.001 -44.0029c-41.333 0 -77.5 10.833 -108.5 32.5s-54.667 51.834 -71 90.501s-24.5 83.334 -24.5 134.001c0 52.667 9 98.834 27 138.501s42.667 69.834 74 90.501s66.666 31 105.999 31c28 0 53.833 -4.66699 77.5 -14
s43.834 -23 60.501 -41l12 40h153v-469c0 -82.667 -23.833 -147.334 -71.5 -194.001s-113.5 -70 -197.5 -70c-37.333 0 -71.166 3.33301 -101.499 10s-62.166 18 -95.499 34v118c63.333 -20 119.666 -30 168.999 -30c40 0 68.833 8 86.5 24s26.5 42.333 26.5 79v40z
M303.999 142.997c18.667 0 38.668 4.99902 60.001 14.999v228c-22 9.33301 -44.667 14 -68 14c-24.667 0 -42.834 -10.333 -54.501 -31s-17.5 -52 -17.5 -94c0 -47.333 6.16699 -81.166 18.5 -101.499s32.833 -30.5 61.5 -30.5zM300 579.996c-32 0 -57.5 8.66699 -76.5 26
s-28.5 40.333 -28.5 69s9.5 51.667 28.5 69s44.5 26 76.5 26s57.5 -8.66699 76.5 -26s28.5 -40.333 28.5 -69s-9.5 -51.667 -28.5 -69s-44.5 -26 -76.5 -26z" />
    <glyph glyph-name="uni0122" unicode="&#x122;" horiz-adv-x="727" 
d="M431 135c22 0 42.6689 1.33203 62.002 3.99902v128h-115v134h287v-358c-32.667 -16.667 -73.334 -30.167 -122.001 -40.5s-97 -15.5 -145 -15.5c-72.667 0 -134.834 14.167 -186.501 42.5s-90.834 68.833 -117.501 121.5s-40 115.334 -40 188.001
c0 117.333 32.5 207.833 97.5 271.5s156.833 95.5 275.5 95.5c35.333 0 72.5 -4.16699 111.5 -12.5s72.167 -19.166 99.5 -32.499v-140c-30.667 10 -63.667 18 -99 24s-66.666 9 -93.999 9c-66.667 0 -116 -16.833 -148 -50.5s-48 -84.834 -48 -153.501v-15
c0 -133.333 60.667 -200 182 -200zM313.002 -294.001l37 235h61c60.667 0 91 -19.333 91 -58c0 -19.333 -9 -46 -27 -80l-51 -97h-111z" />
    <glyph glyph-name="uni0123" unicode="&#x123;" horiz-adv-x="612" 
d="M364 57c-36 -29.333 -76.668 -44.0029 -122.001 -44.0029c-41.333 0 -77.5 10.833 -108.5 32.5s-54.667 51.834 -71 90.501s-24.5 83.334 -24.5 134.001c0 52.667 9 98.834 27 138.501s42.667 69.834 74 90.501s66.666 31 105.999 31c28 0 53.833 -4.66699 77.5 -14
s43.834 -23 60.501 -41l12 40h153v-469c0 -82.667 -23.833 -147.334 -71.5 -194.001s-113.5 -70 -197.5 -70c-37.333 0 -71.166 3.33301 -101.499 10s-62.166 18 -95.499 34v118c63.333 -20 119.666 -30 168.999 -30c40 0 68.833 8 86.5 24s26.5 42.333 26.5 79v40z
M303.999 142.997c18.667 0 38.668 4.99902 60.001 14.999v228c-22 9.33301 -44.667 14 -68 14c-24.667 0 -42.834 -10.333 -54.501 -31s-17.5 -52 -17.5 -94c0 -47.333 6.16699 -81.166 18.5 -101.499s32.833 -30.5 61.5 -30.5zM408 829.996l-40 -242h-57
c-60.667 0 -91 19.333 -91 58c0 10 2 20.667 6 32s11 27.333 21 48l52 104h109z" />
    <glyph glyph-name="Hcircumflex" unicode="&#x124;" horiz-adv-x="759" 
d="M492 0v277h-225v-277h-193v693h193v-266h225v266h193v-693h-193zM449 769l-70 69l-70 -69h-154l130 147h188l130 -147h-154z" />
    <glyph glyph-name="hcircumflex" unicode="&#x125;" horiz-adv-x="630" 
d="M380 0l-0.000976562 338c0 20 -3.83301 34.667 -11.5 44s-20.5 14 -38.5 14c-24.667 0 -50.667 -8.33301 -78 -25v-371h-188v740h188v-267c28.667 20 56.334 34.5 83.001 43.5s55 13.5 85 13.5c48 0 84.667 -13 110 -39s38 -63 38 -111v-380h-188zM227.999 789l-70 69
l-70 -69h-154l130 147h188l130 -147h-154z" />
    <glyph glyph-name="Hbar" unicode="&#x126;" horiz-adv-x="791" 
d="M508 0v277h-225v-277h-193v496h-82v114h82v83h193v-83h225v83h193v-83h82v-114h-82v-496h-193zM508 412v84h-225v-84h225z" />
    <glyph glyph-name="hbar" unicode="&#x127;" horiz-adv-x="630" 
d="M252 577l-0.000976562 -124c28.667 20 56.334 34.5 83.001 43.5s55 13.5 85 13.5c48 0 84.667 -13 110 -39s38 -63 38 -111v-360h-188v318c0 20 -3.83301 34.667 -11.5 44s-20.5 14 -38.5 14c-24.667 0 -50.667 -8.33301 -78 -25v-351h-188v577h-64v100h64v63h188v-63
h137v-100h-137z" />
    <glyph glyph-name="Itilde" unicode="&#x128;" horiz-adv-x="349" 
d="M78 0v693h193v-693h-193zM85 762l-100 0.000976562c-2 11.333 -3 26.666 -3 45.999c0 34 9.83301 60.833 29.5 80.5s47.167 29.5 82.5 29.5c20.667 0 39.167 -3.16699 55.5 -9.5s34.166 -17.166 53.499 -32.499c17.333 -14 30.666 -21 39.999 -21
c12 0 18.333 9.66699 19 29l2 31h100c2 -10.667 3 -26 3 -46c0 -34 -9.83301 -60.833 -29.5 -80.5s-47.167 -29.5 -82.5 -29.5c-20.667 0 -39.167 3.16699 -55.5 9.5s-34.166 17.166 -53.499 32.499c-17.333 14 -30.666 21 -39.999 21c-12 0 -18.333 -9.66699 -19 -29z" />
    <glyph glyph-name="itilde" unicode="&#x129;" horiz-adv-x="316" 
d="M64 0v515h188v-515h-188zM68 591l-99 0.000976562c-2 11.333 -3 26.666 -3 45.999c0 34 9.83301 60.833 29.5 80.5s47.167 29.5 82.5 29.5c20 0 38.167 -3.16699 54.5 -9.5s34.5 -17.5 54.5 -33.5c18 -14.667 31.333 -22 40 -22c12 0 18.667 10.333 20 31l2 31h99
c2 -10.667 3 -26 3 -46c0 -34 -9.83301 -60.833 -29.5 -80.5s-47.167 -29.5 -82.5 -29.5c-20 0 -38.167 3.16699 -54.5 9.5s-34.5 17.5 -54.5 33.5c-18 14.667 -31.333 22 -40 22c-12 0 -18.667 -10.333 -20 -31z" />
    <glyph glyph-name="Imacron" unicode="&#x12a;" horiz-adv-x="349" 
d="M78 0v693h193v-693h-193zM-4 784v110h357v-110h-357z" />
    <glyph glyph-name="imacron" unicode="&#x12b;" horiz-adv-x="316" 
d="M64 0v515h188v-515h-188zM-20 612v110h357v-110h-357z" />
    <glyph glyph-name="Ibreve" unicode="&#x12c;" horiz-adv-x="349" 
d="M78 0v693h193v-693h-193zM174 760c-54 0 -95.4961 11 -124.496 33s-43.5 53.667 -43.5 95c0 14 1 24.333 3 31h99l1 -14c1.33301 -14 7.16602 -24 17.499 -30s26.166 -9 47.499 -9s37.166 3 47.499 9s16.166 16 17.499 30l1 14h99c2 -6.66699 3 -17 3 -31
c0 -41.333 -14.5 -73 -43.5 -95s-70.5 -33 -124.5 -33z" />
    <glyph glyph-name="ibreve" unicode="&#x12d;" horiz-adv-x="316" 
d="M64 0v515h188v-515h-188zM158 594c-51.333 0 -92.168 13 -122.501 39s-45.5 61 -45.5 105c0 12.667 1 24 3 34h99l4 -29c2 -15.333 7.83301 -26.333 17.5 -33s24.5 -10 44.5 -10s34.833 3.33301 44.5 10s15.5 17.667 17.5 33l4 29h99c2 -10 3 -21.333 3 -34
c0 -44 -15.167 -79 -45.5 -105s-71.166 -39 -122.499 -39z" />
    <glyph glyph-name="Iogonek" unicode="&#x12e;" horiz-adv-x="349" 
d="M271 693l-0.000976562 -693.001c-54 -39.333 -81 -74.333 -81 -105c0 -10.667 3.83301 -19 11.5 -25s18.167 -9 31.5 -9c12.667 0 28.334 2.33301 47.001 7v-91c-24 -9.33301 -52.667 -14 -86 -14c-45.333 0 -80 8.33301 -104 25s-36 40.334 -36 71.001
c0 49.333 32.333 96.333 97 141h-73v693h193z" />
    <glyph glyph-name="iogonek" unicode="&#x12f;" horiz-adv-x="316" 
d="M252 515l-0.000976562 -515.001c-54 -39.333 -81 -75 -81 -107c0 -22.667 15 -34 45 -34c12.667 0 28.334 2.33301 47.001 7v-89c-24 -9.33301 -52.667 -14 -86 -14c-45.333 0 -80 8.33301 -104 25s-36 40.334 -36 71.001c0 49.333 32.333 96.333 97 141h-70v515h188z
M157.999 579.999c-32 0 -57.5 8.66699 -76.5 26s-28.5 40.333 -28.5 69s9.5 51.667 28.5 69s44.5 26 76.5 26s57.5 -8.66699 76.5 -26s28.5 -40.333 28.5 -69s-9.5 -51.667 -28.5 -69s-44.5 -26 -76.5 -26z" />
    <glyph glyph-name="Idotaccent" unicode="&#x130;" horiz-adv-x="349" 
d="M78 0v693h193v-693h-193zM174 758c-32.667 0 -58.667 8.83301 -78 26.5s-29 41.167 -29 70.5s9.66699 52.833 29 70.5s45.333 26.5 78 26.5s58.667 -8.83301 78 -26.5s29 -41.167 29 -70.5s-9.66699 -52.833 -29 -70.5s-45.333 -26.5 -78 -26.5z" />
    <glyph glyph-name="dotlessi" unicode="&#x131;" horiz-adv-x="316" 
d="M64 0v515h188v-515h-188z" />
    <glyph glyph-name="IJ" unicode="&#x132;" horiz-adv-x="804" 
d="M78 0v693h193v-693h-193zM349 150c34 -8 67.002 -12 99.002 -12c33.333 0 57.166 7.83301 71.499 23.5s21.5 42.5 21.5 80.5v451h193v-450c0 -87.333 -20.833 -152.5 -62.5 -195.5s-104.5 -64.5 -188.5 -64.5c-48.667 0 -93.334 8 -134.001 24v143z" />
    <glyph glyph-name="ij" unicode="&#x133;" horiz-adv-x="632" 
d="M64 0v515h188v-515h-188zM158 580c-32 0 -57.5 8.66699 -76.5 26s-28.5 40.333 -28.5 69s9.5 51.667 28.5 69s44.5 26 76.5 26s57.5 -8.66699 76.5 -26s28.5 -40.333 28.5 -69s-9.5 -51.667 -28.5 -69s-44.5 -26 -76.5 -26zM380 515h188v-542
c0 -64.667 -14.667 -112.667 -44 -144s-74.333 -47 -135 -47c-40.667 0 -79.667 6 -117 18v121c20 -2 38.667 -3 56 -3c18.667 0 32 3.66699 40 11s12 19.333 12 36v550zM474 580c-32 0 -57.5 8.66699 -76.5 26s-28.5 40.333 -28.5 69s9.5 51.667 28.5 69s44.5 26 76.5 26
s57.5 -8.66699 76.5 -26s28.5 -40.333 28.5 -69s-9.5 -51.667 -28.5 -69s-44.5 -26 -76.5 -26z" />
    <glyph glyph-name="Jcircumflex" unicode="&#x134;" horiz-adv-x="471" 
d="M16 150c34 -8 67.002 -12 99.002 -12c33.333 0 57.166 7.83301 71.499 23.5s21.5 42.5 21.5 80.5v451h193v-450c0 -87.333 -20.833 -152.5 -62.5 -195.5s-104.5 -64.5 -188.5 -64.5c-48.667 0 -93.334 8 -134.001 24v143zM374.002 769l-70 69l-70 -69h-154l130 147h188
l130 -147h-154z" />
    <glyph glyph-name="jcircumflex" unicode="&#x135;" horiz-adv-x="316" 
d="M64 515h188v-542c0 -64.667 -14.667 -112.667 -44 -144s-74.333 -47 -135 -47c-40.667 0 -79.667 6 -117 18v121c20 -2 38.667 -3 56 -3c18.667 0 32 3.66699 40 11s12 19.333 12 36v550zM236 600l-78 92l-78 -92h-139l127 178h180l127 -178h-139z" />
    <glyph glyph-name="uni0136" unicode="&#x136;" horiz-adv-x="722" 
d="M74 0v693h193v-286l224 286h215l-261 -319l284 -374h-224l-238 328v-328h-193zM279 -294l37 235h61c60.667 0 91 -19.333 91 -58c0 -19.333 -9 -46 -27 -80l-51 -97h-111z" />
    <glyph glyph-name="uni0137" unicode="&#x137;" horiz-adv-x="631" 
d="M64 0v740h186v-437l148 212h216l-192 -240l213 -275h-224l-161 230v-230h-186zM221 -294l37 235h59c60.667 0 91 -19.333 91 -58c0 -19.333 -9 -46 -27 -80l-51 -97h-109z" />
    <glyph glyph-name="kgreenlandic" unicode="&#x138;" horiz-adv-x="633" 
d="M64 0v515h188v-221l148 221h216l-192 -247l213 -268h-224l-161 221v-221h-188z" />
    <glyph glyph-name="Lacute" unicode="&#x139;" horiz-adv-x="561" 
d="M74 0v693h193v-537h289v-156h-482zM94 769l107 135h185l-140 -135h-152z" />
    <glyph glyph-name="lacute" unicode="&#x13a;" horiz-adv-x="350" 
d="M332 6c-32.667 -14 -69.333 -21 -110 -21c-53.333 0 -93 14.333 -119 43s-39 72 -39 130v582h188v-567c0 -17.333 3 -30 9 -38s16 -12 30 -12c11.333 0 25 1.33301 41 4v-121zM82.001 789l107 135h185l-140 -135h-152z" />
    <glyph glyph-name="uni013B" unicode="&#x13b;" horiz-adv-x="561" 
d="M74 0v693h193v-537h289v-156h-482zM210 -294l37 235h61c60.667 0 91 -19.333 91 -58c0 -19.333 -9 -46 -27 -80l-51 -97h-111z" />
    <glyph glyph-name="uni013C" unicode="&#x13c;" horiz-adv-x="350" 
d="M332 6c-32.667 -14 -69.333 -21 -110 -21c-53.333 0 -93 14.333 -119 43s-39 72 -39 130v582h188v-567c0 -17.333 3 -30 9 -38s16 -12 30 -12c11.333 0 25 1.33301 41 4v-121zM114.001 -294l37 235h59c60.667 0 91 -19.333 91 -58c0 -19.333 -9 -46 -27 -80l-51 -97h-109
z" />
    <glyph glyph-name="Lcaron" unicode="&#x13d;" horiz-adv-x="561" 
d="M74 0v693h193v-537h289v-156h-482zM356 509v209c21.333 9.33301 47.666 14 78.999 14c36.667 0 65.334 -8.33301 86.001 -25l-49 -198h-116z" />
    <glyph glyph-name="lcaron" unicode="&#x13e;" horiz-adv-x="416" 
d="M332 6c-32.667 -14 -69.333 -21 -110 -21c-53.333 0 -93 14.333 -119 43s-39 72 -39 130v582h188v-567c0 -17.333 3 -30 9 -38s16 -12 30 -12c11.333 0 25 1.33301 41 4v-121zM315.001 529v209c21.333 9.33301 47.666 14 78.999 14c36.667 0 65.334 -8.33301 86.001 -25
l-49 -198h-116z" />
    <glyph glyph-name="Ldot" unicode="&#x13f;" horiz-adv-x="561" 
d="M74 0v693h193v-537h289v-156h-482zM445 305c-27.333 0 -50.166 8.16504 -68.499 24.498s-27.5 37.166 -27.5 62.499c0 24.667 9.16699 45.334 27.5 62.001s41.166 25 68.499 25c28 0 51 -8.16699 69 -24.5s27 -37.166 27 -62.499s-9 -46.166 -27 -62.499
s-41 -24.5 -69 -24.5z" />
    <glyph glyph-name="ldot" unicode="&#x140;" horiz-adv-x="510" 
d="M332 6c-32.667 -14 -69.333 -21 -110 -21c-53.333 0 -93 14.333 -119 43s-39 72 -39 130v582h188v-567c0 -17.333 3 -30 9 -38s16 -12 30 -12c11.333 0 25 1.33301 41 4v-121zM413.001 289c-27.333 0 -50.166 8.16504 -68.499 24.498s-27.5 37.166 -27.5 62.499
c0 24.667 9.16699 45.334 27.5 62.001s41.166 25 68.499 25c28 0 51 -8.16699 69 -24.5s27 -37.166 27 -62.499s-9 -46.166 -27 -62.499s-41 -24.5 -69 -24.5z" />
    <glyph glyph-name="Lslash" unicode="&#x141;" horiz-adv-x="603" 
d="M116 0v221l-90 -51v121l90 51v351h193v-240l143 82v-121l-143 -82v-176h289v-156h-482z" />
    <glyph glyph-name="lslash" unicode="&#x142;" horiz-adv-x="384" 
d="M352 6c-32.667 -14 -69.333 -21 -110 -21c-53.333 0 -93 14.333 -119 43s-39 72 -39 130v101l-83 -48v106l83 48v375h188v-264l90 53v-106l-90 -53v-197c0 -17.333 3 -30 9 -38s16 -12 30 -12c11.333 0 25 1.33301 41 4v-121z" />
    <glyph glyph-name="Nacute" unicode="&#x143;" horiz-adv-x="757" 
d="M240 434v-434h-166v693h200l243 -438v438h166v-693h-200zM320 769l107 135h185l-140 -135h-152z" />
    <glyph glyph-name="nacute" unicode="&#x144;" horiz-adv-x="630" 
d="M380 0v338c0 20 -3.83301 34.667 -11.5 44s-20.5 14 -38.5 14c-24.667 0 -50.667 -8.33301 -78 -25v-371h-188v515h153l16 -52c31.333 23.333 62 40.333 92 51s61.667 16 95 16c48 0 84.667 -13 110 -39s38 -63 38 -111v-380h-188zM246 600l102 177h192l-142 -177h-152z
" />
    <glyph glyph-name="uni0145" unicode="&#x145;" horiz-adv-x="757" 
d="M240 434v-434h-166v693h200l243 -438v438h166v-693h-200zM256 -294l37 235h61c60.667 0 91 -19.333 91 -58c0 -19.333 -9 -46 -27 -80l-51 -97h-111z" />
    <glyph glyph-name="uni0146" unicode="&#x146;" horiz-adv-x="630" 
d="M380 0v338c0 20 -3.83301 34.667 -11.5 44s-20.5 14 -38.5 14c-24.667 0 -50.667 -8.33301 -78 -25v-371h-188v515h153l16 -52c31.333 23.333 62 40.333 92 51s61.667 16 95 16c48 0 84.667 -13 110 -39s38 -63 38 -111v-380h-188zM212 -294l37 235h59
c60.667 0 91 -19.333 91 -58c0 -19.333 -9 -46 -27 -80l-51 -97h-109z" />
    <glyph glyph-name="Ncaron" unicode="&#x147;" horiz-adv-x="757" 
d="M240 434v-434h-166v693h200l243 -438v438h166v-693h-200zM302 769l-130 147h178l46 -77l46 77h178l-130 -147h-188z" />
    <glyph glyph-name="ncaron" unicode="&#x148;" horiz-adv-x="630" 
d="M380 0v338c0 20 -3.83301 34.667 -11.5 44s-20.5 14 -38.5 14c-24.667 0 -50.667 -8.33301 -78 -25v-371h-188v515h153l16 -52c31.333 23.333 62 40.333 92 51s61.667 16 95 16c48 0 84.667 -13 110 -39s38 -63 38 -111v-380h-188zM232 600l-127 178h161l56 -102l56 102
h161l-127 -178h-180z" />
    <glyph glyph-name="napostrophe" unicode="&#x149;" horiz-adv-x="865" 
d="M615 0v338c0 20 -3.83301 34.667 -11.5 44s-20.5 14 -38.5 14c-24.667 0 -50.667 -8.33301 -78 -25v-371h-188v515h153l16 -52c31.333 23.333 62 40.333 92 51s61.667 16 95 16c48 0 84.667 -13 110 -39s38 -63 38 -111v-380h-188zM44 367l46 326h78
c66.667 0 100 -22.333 100 -67c0 -18 -8.33301 -46 -25 -84l-79 -175h-120z" />
    <glyph glyph-name="Eng" unicode="&#x14a;" horiz-adv-x="757" 
d="M505 2l-265 437v-439h-166v693h200l243 -401v401h166v-651c0 -173.333 -83.333 -260 -250 -260c-22.667 0 -42.5 1.16699 -59.5 3.5s-37.167 6.5 -60.5 12.5v143c22 -4 51.667 -6 89 -6c30 0 54.667 5.66699 74 17s29 26 29 44v6z" />
    <glyph glyph-name="eng" unicode="&#x14b;" horiz-adv-x="630" 
d="M380 338c0 20 -3.83301 34.667 -11.5 44s-20.5 14 -38.5 14c-24.667 0 -50.667 -8.33301 -78 -25v-371h-188v515h153l16 -52c31.333 23.333 62 40.333 92 51s61.667 16 95 16c48 0 84.667 -13 110 -39s38 -63 38 -111v-380c0 -145.333 -70 -218 -210 -218
c-44 0 -83.667 6.66699 -119 20v120c22 -2.66699 42.333 -4 61 -4c30 0 50.833 5 62.5 15s17.5 28 17.5 54v351z" />
    <glyph glyph-name="Omacron" unicode="&#x14c;" horiz-adv-x="807" 
d="M403 -17c-72.667 0 -135.333 15.168 -188 45.501s-92.667 72.833 -120 127.5s-41 118.667 -41 192c0 75.333 14.333 140.166 43 194.499s69.167 95.833 121.5 124.5s113.833 43 184.5 43c72.667 0 135.334 -15 188.001 -45s92.834 -72.333 120.501 -127
s41.5 -119 41.5 -193c0 -75.333 -14.333 -140.333 -43 -195s-69.334 -96.167 -122.001 -124.5s-114.334 -42.5 -185.001 -42.5zM403.001 136.001c50.667 0 88.833 17.667 114.5 53s38.5 87.333 38.5 156c0 70 -13 122.833 -39 158.5s-64 53.5 -114 53.5
s-87.833 -17.667 -113.5 -53s-38.5 -87.333 -38.5 -156c0 -69.333 12.833 -122 38.5 -158s63.5 -54 113.5 -54zM225 784.001v110h357v-110h-357z" />
    <glyph glyph-name="omacron" unicode="&#x14d;" horiz-adv-x="610" 
d="M305 -15c-83.333 0 -148.666 24 -195.999 72s-71 115 -71 201c0 85.333 23.667 152 71 200s112.666 72 195.999 72s148.666 -24 195.999 -72s71 -114.667 71 -200c0 -86 -23.667 -153 -71 -201s-112.666 -72 -195.999 -72zM305 117c51.333 0 77 47 77 141
c0 93.333 -25.667 140 -77 140s-77 -46.667 -77 -140c0 -94 25.667 -141 77 -141zM127 612v110h357v-110h-357z" />
    <glyph glyph-name="Obreve" unicode="&#x14e;" horiz-adv-x="807" 
d="M403 -17c-72.667 0 -135.333 15.168 -188 45.501s-92.667 72.833 -120 127.5s-41 118.667 -41 192c0 75.333 14.333 140.166 43 194.499s69.167 95.833 121.5 124.5s113.833 43 184.5 43c72.667 0 135.334 -15 188.001 -45s92.834 -72.333 120.501 -127
s41.5 -119 41.5 -193c0 -75.333 -14.333 -140.333 -43 -195s-69.334 -96.167 -122.001 -124.5s-114.334 -42.5 -185.001 -42.5zM403.001 136.001c50.667 0 88.833 17.667 114.5 53s38.5 87.333 38.5 156c0 70 -13 122.833 -39 158.5s-64 53.5 -114 53.5
s-87.833 -17.667 -113.5 -53s-38.5 -87.333 -38.5 -156c0 -69.333 12.833 -122 38.5 -158s63.5 -54 113.5 -54zM403 760.001c-54 0 -95.4961 11 -124.496 33s-43.5 53.667 -43.5 95c0 14 1 24.333 3 31h99l1 -14c1.33301 -14 7.16602 -24 17.499 -30s26.166 -9 47.499 -9
s37.166 3 47.499 9s16.166 16 17.499 30l1 14h99c2 -6.66699 3 -17 3 -31c0 -41.333 -14.5 -73 -43.5 -95s-70.5 -33 -124.5 -33z" />
    <glyph glyph-name="obreve" unicode="&#x14f;" horiz-adv-x="610" 
d="M305 -15c-83.333 0 -148.666 24 -195.999 72s-71 115 -71 201c0 85.333 23.667 152 71 200s112.666 72 195.999 72s148.666 -24 195.999 -72s71 -114.667 71 -200c0 -86 -23.667 -153 -71 -201s-112.666 -72 -195.999 -72zM305 117c51.333 0 77 47 77 141
c0 93.333 -25.667 140 -77 140s-77 -46.667 -77 -140c0 -94 25.667 -141 77 -141zM305 594c-51.333 0 -92.168 13 -122.501 39s-45.5 61 -45.5 105c0 12.667 1 24 3 34h99l4 -29c2 -15.333 7.83301 -26.333 17.5 -33s24.5 -10 44.5 -10s34.833 3.33301 44.5 10
s15.5 17.667 17.5 33l4 29h99c2 -10 3 -21.333 3 -34c0 -44 -15.167 -79 -45.5 -105s-71.166 -39 -122.499 -39z" />
    <glyph glyph-name="Ohungarumlaut" unicode="&#x150;" horiz-adv-x="807" 
d="M403 -17c-72.667 0 -135.333 15.168 -188 45.501s-92.667 72.833 -120 127.5s-41 118.667 -41 192c0 75.333 14.333 140.166 43 194.499s69.167 95.833 121.5 124.5s113.833 43 184.5 43c72.667 0 135.334 -15 188.001 -45s92.834 -72.333 120.501 -127
s41.5 -119 41.5 -193c0 -75.333 -14.333 -140.333 -43 -195s-69.334 -96.167 -122.001 -124.5s-114.334 -42.5 -185.001 -42.5zM403.001 136.001c50.667 0 88.833 17.667 114.5 53s38.5 87.333 38.5 156c0 70 -13 122.833 -39 158.5s-64 53.5 -114 53.5
s-87.833 -17.667 -113.5 -53s-38.5 -87.333 -38.5 -156c0 -69.333 12.833 -122 38.5 -158s63.5 -54 113.5 -54zM320 904.001h185l-140 -135h-152zM534 904.001h185l-140 -135h-152z" />
    <glyph glyph-name="ohungarumlaut" unicode="&#x151;" horiz-adv-x="610" 
d="M305 -15c-83.333 0 -148.666 24 -195.999 72s-71 115 -71 201c0 85.333 23.667 152 71 200s112.666 72 195.999 72s148.666 -24 195.999 -72s71 -114.667 71 -200c0 -86 -23.667 -153 -71 -201s-112.666 -72 -195.999 -72zM305 117c51.333 0 77 47 77 141
c0 93.333 -25.667 140 -77 140s-77 -46.667 -77 -140c0 -94 25.667 -141 77 -141zM116 600l98 177h192l-138 -177h-152zM351 600l98 177h192l-138 -177h-152z" />
    <glyph glyph-name="OE" unicode="&#x152;" horiz-adv-x="1085" 
d="M575 0v62c-46.667 -52.667 -113.334 -79 -200.001 -79c-66.667 0 -124.167 14.833 -172.5 44.5s-85.166 71.667 -110.499 126s-38 118.5 -38 192.5c0 112.667 28.667 201.5 86 266.5s135.666 97.5 234.999 97.5c86.667 0 153.334 -26.333 200.001 -79v62h474v-146h-295
v-121h240v-146h-240v-134h297v-146h-476zM409 136c50 0 89.833 18.3311 119.5 54.998s45.167 86.334 46.5 149.001v12c-1.33301 62 -17 111.667 -47 149s-69.667 56 -119 56c-50.667 0 -89.667 -18.167 -117 -54.5s-41 -88.5 -41 -156.5
c0 -67.333 13.667 -119.166 41 -155.499s66.333 -54.5 117 -54.5z" />
    <glyph glyph-name="oe" unicode="&#x153;" horiz-adv-x="943" 
d="M690 -15c-43.333 0 -82.167 7.83398 -116.5 23.501s-62.166 38.5 -83.499 68.5c-39.333 -61.333 -104 -92 -194 -92c-53.333 0 -99.5 11.333 -138.5 34s-68.667 54.5 -89 95.5s-30.5 88.833 -30.5 143.5c0 56 10.833 104.5 32.5 145.5s51.834 72.333 90.501 94
s83.667 32.5 135 32.5c43.333 0 81.5 -7.83301 114.5 -23.5s59.5 -38.834 79.5 -69.501c20.667 30 47.5 53 80.5 69s70.5 24 112.5 24c72 0 127.167 -18.333 165.5 -55s57.5 -89.667 57.5 -159c0 -15.333 -1.16699 -33.5 -3.5 -54.5s-4.83301 -38.167 -7.5 -51.5h-311
c9.33301 -63.333 58.666 -95 147.999 -95c45.333 0 99 8.66699 161 26v-115c-27.333 -12.667 -58.833 -22.667 -94.5 -30s-71.834 -11 -108.501 -11zM314.999 117.001c26 0 46.167 11.999 60.5 35.999s21.5 59 21.5 105s-7 80.833 -21 104.5s-34.333 35.5 -61 35.5
c-30.667 0 -52.834 -11.167 -66.501 -33.5s-20.5 -57.833 -20.5 -106.5c0 -49.333 6.83301 -85.166 20.5 -107.499s35.834 -33.5 66.501 -33.5zM677.999 405c-26 0 -47.333 -7.66797 -64 -23.001s-26.667 -36.666 -30 -63.999h164v12c0 26 -5.66699 45 -17 57s-29 18 -53 18
z" />
    <glyph glyph-name="Racute" unicode="&#x154;" horiz-adv-x="667" 
d="M74 0l-0.000976562 692.999h286c79.333 0 142.333 -20.167 189 -60.5s70 -95.166 70 -164.499c0 -40.667 -9.16699 -77 -27.5 -109s-44.166 -57.667 -77.499 -77l153 -282h-200l-122 242h-88v-242h-183zM256.999 371.999h82.001c29.333 0 52.166 8 68.499 24
s24.5 39 24.5 69c0 60.667 -31.667 91 -95 91h-80v-184zM235 768.999l107 135h185l-140 -135h-152z" />
    <glyph glyph-name="racute" unicode="&#x155;" horiz-adv-x="433" 
d="M432 351c-21.333 3.33301 -43.333 5 -66 5c-42 0 -80 -5.66699 -114 -17v-339h-188v515h153l23 -78c47.333 56 98 84 152 84c14 0 27.333 -1 40 -3v-167zM167 600l102 177h192l-142 -177h-152z" />
    <glyph glyph-name="uni0156" unicode="&#x156;" horiz-adv-x="667" 
d="M74 0l-0.000976562 692.999h286c79.333 0 142.333 -20.167 189 -60.5s70 -95.166 70 -164.499c0 -40.667 -9.16699 -77 -27.5 -109s-44.166 -57.667 -77.499 -77l153 -282h-200l-122 242h-88v-242h-183zM256.999 371.999h82.001c29.333 0 52.166 8 68.499 24
s24.5 39 24.5 69c0 60.667 -31.667 91 -95 91h-80v-184zM257 -294.001l37 235h61c60.667 0 91 -19.333 91 -58c0 -19.333 -9 -46 -27 -80l-51 -97h-111z" />
    <glyph glyph-name="uni0157" unicode="&#x157;" horiz-adv-x="433" 
d="M432 351c-21.333 3.33301 -43.333 5 -66 5c-42 0 -80 -5.66699 -114 -17v-339h-188v515h153l23 -78c47.333 56 98 84 152 84c14 0 27.333 -1 40 -3v-167zM54 -294l37 235h59c60.667 0 91 -19.333 91 -58c0 -19.333 -9 -46 -27 -80l-51 -97h-109z" />
    <glyph glyph-name="Rcaron" unicode="&#x158;" horiz-adv-x="667" 
d="M74 0l-0.000976562 692.999h286c79.333 0 142.333 -20.167 189 -60.5s70 -95.166 70 -164.499c0 -40.667 -9.16699 -77 -27.5 -109s-44.166 -57.667 -77.499 -77l153 -282h-200l-122 242h-88v-242h-183zM256.999 371.999h82.001c29.333 0 52.166 8 68.499 24
s24.5 39 24.5 69c0 60.667 -31.667 91 -95 91h-80v-184zM217 768.999l-130 147h178l46 -77l46 77h178l-130 -147h-188z" />
    <glyph glyph-name="rcaron" unicode="&#x159;" horiz-adv-x="433" 
d="M432 351c-21.333 3.33301 -43.333 5 -66 5c-42 0 -80 -5.66699 -114 -17v-339h-188v515h153l23 -78c47.333 56 98 84 152 84c14 0 27.333 -1 40 -3v-167zM153 600l-127 178h161l56 -102l56 102h161l-127 -178h-180z" />
    <glyph glyph-name="Sacute" unicode="&#x15a;" horiz-adv-x="603" 
d="M221 280c-63.333 22 -109.004 49.668 -137.004 83.001s-42 77 -42 131c0 44 12 82.333 36 115s56.833 57.667 98.5 75s89.5 26 143.5 26c70 0 136.333 -12 199 -36v-140c-63.333 18 -124.333 27 -183 27c-68.667 0 -103 -18 -103 -54c0 -13.333 6 -24.666 18 -33.999
s34 -19.333 66 -30l60 -20c68.667 -22.667 117.5 -49.834 146.5 -81.501s43.5 -73.834 43.5 -126.501c0 -73.333 -26.167 -130.333 -78.5 -171s-125.833 -61 -220.5 -61c-40.667 0 -80 3.5 -118 10.5s-70.333 16.5 -97 28.5v142
c32.667 -8.66699 68.834 -15.834 108.501 -21.501s75.834 -8.5 108.501 -8.5c34.667 0 60.334 4.5 77.001 13.5s25 23.167 25 42.5c0 10.667 -2.16699 19.334 -6.5 26.001s-12.666 13.167 -24.999 19.5s-32.833 14.5 -61.5 24.5zM233.996 769.001l107 135h185l-140 -135
h-152z" />
    <glyph glyph-name="sacute" unicode="&#x15b;" horiz-adv-x="461" 
d="M269 145c0 9.33301 -2.99902 16.5 -8.99902 21.5s-18.333 11.167 -37 18.5l-74 29c-42 16.667 -72.333 37.167 -91 61.5s-28 56.166 -28 95.499c0 32.667 9.16699 61 27.5 85s43.666 42.333 75.999 55s69.833 19 112.5 19c61.333 0 117.333 -13 168 -39v-114
c-54.667 16.667 -105.334 25 -152.001 25c-22.667 0 -38.667 -2 -48 -6s-14 -11.333 -14 -22c0 -8 3.5 -14.667 10.5 -20s18.833 -11.333 35.5 -18l74 -29c46 -18 77.667 -38 95 -60s26 -52.333 26 -91c0 -52.667 -19.5 -94.5 -58.5 -125.5s-91.833 -46.5 -158.5 -46.5
c-77.333 0 -141.333 14.667 -192 44v116c40.667 -11.333 74.5 -19.166 101.5 -23.499s54.167 -6.5 81.5 -6.5c18.667 0 32.334 2.5 41.001 7.5s13 12.833 13 23.5zM160.001 600l102 177h192l-142 -177h-152z" />
    <glyph glyph-name="Scircumflex" unicode="&#x15c;" horiz-adv-x="603" 
d="M221 280c-63.333 22 -109.004 49.668 -137.004 83.001s-42 77 -42 131c0 44 12 82.333 36 115s56.833 57.667 98.5 75s89.5 26 143.5 26c70 0 136.333 -12 199 -36v-140c-63.333 18 -124.333 27 -183 27c-68.667 0 -103 -18 -103 -54c0 -13.333 6 -24.666 18 -33.999
s34 -19.333 66 -30l60 -20c68.667 -22.667 117.5 -49.834 146.5 -81.501s43.5 -73.834 43.5 -126.501c0 -73.333 -26.167 -130.333 -78.5 -171s-125.833 -61 -220.5 -61c-40.667 0 -80 3.5 -118 10.5s-70.333 16.5 -97 28.5v142
c32.667 -8.66699 68.834 -15.834 108.501 -21.501s75.834 -8.5 108.501 -8.5c34.667 0 60.334 4.5 77.001 13.5s25 23.167 25 42.5c0 10.667 -2.16699 19.334 -6.5 26.001s-12.666 13.167 -24.999 19.5s-32.833 14.5 -61.5 24.5zM379.996 769.001l-70 69l-70 -69h-154
l130 147h188l130 -147h-154z" />
    <glyph glyph-name="scircumflex" unicode="&#x15d;" horiz-adv-x="461" 
d="M269 145c0 9.33301 -2.99902 16.5 -8.99902 21.5s-18.333 11.167 -37 18.5l-74 29c-42 16.667 -72.333 37.167 -91 61.5s-28 56.166 -28 95.499c0 32.667 9.16699 61 27.5 85s43.666 42.333 75.999 55s69.833 19 112.5 19c61.333 0 117.333 -13 168 -39v-114
c-54.667 16.667 -105.334 25 -152.001 25c-22.667 0 -38.667 -2 -48 -6s-14 -11.333 -14 -22c0 -8 3.5 -14.667 10.5 -20s18.833 -11.333 35.5 -18l74 -29c46 -18 77.667 -38 95 -60s26 -52.333 26 -91c0 -52.667 -19.5 -94.5 -58.5 -125.5s-91.833 -46.5 -158.5 -46.5
c-77.333 0 -141.333 14.667 -192 44v116c40.667 -11.333 74.5 -19.166 101.5 -23.499s54.167 -6.5 81.5 -6.5c18.667 0 32.334 2.5 41.001 7.5s13 12.833 13 23.5zM314.001 600l-78 92l-78 -92h-139l127 178h180l127 -178h-139z" />
    <glyph glyph-name="Scedilla" unicode="&#x15e;" horiz-adv-x="603" 
d="M221 280c-63.333 22 -109.004 49.668 -137.004 83.001s-42 77 -42 131c0 44 12 82.333 36 115s56.833 57.667 98.5 75s89.5 26 143.5 26c70 0 136.333 -12 199 -36v-140c-63.333 18 -124.333 27 -183 27c-68.667 0 -103 -18 -103 -54c0 -13.333 6 -24.666 18 -33.999
s34 -19.333 66 -30l60 -20c68.667 -22.667 117.5 -49.834 146.5 -81.501s43.5 -73.834 43.5 -126.501c0 -73.333 -26.167 -130.333 -78.5 -171s-125.833 -61 -220.5 -61c-40.667 0 -80 3.5 -118 10.5s-70.333 16.5 -97 28.5v142
c32.667 -8.66699 68.834 -15.834 108.501 -21.501s75.834 -8.5 108.501 -8.5c34.667 0 60.334 4.5 77.001 13.5s25 23.167 25 42.5c0 10.667 -2.16699 19.334 -6.5 26.001s-12.666 13.167 -24.999 19.5s-32.833 14.5 -61.5 24.5zM257.996 -55.999
c34.667 0 61.832 -7.49902 81.499 -22.499s29.5 -36.833 29.5 -65.5c0 -30 -11.333 -58.333 -34 -85s-57.667 -52.334 -105 -77.001l-67 60c22.667 12 40.834 24.833 54.501 38.5s20.5 26.167 20.5 37.5s-9.33301 17 -28 17c-12 0 -22 -1 -30 -3v88c22 8 48 12 78 12z" />
    <glyph glyph-name="scedilla" unicode="&#x15f;" horiz-adv-x="461" 
d="M269 145c0 9.33301 -2.99902 16.5 -8.99902 21.5s-18.333 11.167 -37 18.5l-74 29c-42 16.667 -72.333 37.167 -91 61.5s-28 56.166 -28 95.499c0 32.667 9.16699 61 27.5 85s43.666 42.333 75.999 55s69.833 19 112.5 19c61.333 0 117.333 -13 168 -39v-114
c-54.667 16.667 -105.334 25 -152.001 25c-22.667 0 -38.667 -2 -48 -6s-14 -11.333 -14 -22c0 -8 3.5 -14.667 10.5 -20s18.833 -11.333 35.5 -18l74 -29c46 -18 77.667 -38 95 -60s26 -52.333 26 -91c0 -52.667 -19.5 -94.5 -58.5 -125.5s-91.833 -46.5 -158.5 -46.5
c-77.333 0 -141.333 14.667 -192 44v116c40.667 -11.333 74.5 -19.166 101.5 -23.499s54.167 -6.5 81.5 -6.5c18.667 0 32.334 2.5 41.001 7.5s13 12.833 13 23.5zM219.001 -56c34.667 0 61.833 -7.5 81.5 -22.5s29.5 -36.833 29.5 -65.5c0 -30 -11.167 -58.333 -33.5 -85
s-57.166 -52.334 -104.499 -77.001l-66 59c23.333 12.667 41.666 25.834 54.999 39.501s20 26.167 20 37.5c0 12.667 -10 19 -30 19c-12 0 -22 -1 -30 -3v86c22 8 48 12 78 12z" />
    <glyph glyph-name="Scaron" unicode="&#x160;" horiz-adv-x="603" 
d="M221 280c-63.333 22 -109.004 49.668 -137.004 83.001s-42 77 -42 131c0 44 12 82.333 36 115s56.833 57.667 98.5 75s89.5 26 143.5 26c70 0 136.333 -12 199 -36v-140c-63.333 18 -124.333 27 -183 27c-68.667 0 -103 -18 -103 -54c0 -13.333 6 -24.666 18 -33.999
s34 -19.333 66 -30l60 -20c68.667 -22.667 117.5 -49.834 146.5 -81.501s43.5 -73.834 43.5 -126.501c0 -73.333 -26.167 -130.333 -78.5 -171s-125.833 -61 -220.5 -61c-40.667 0 -80 3.5 -118 10.5s-70.333 16.5 -97 28.5v142
c32.667 -8.66699 68.834 -15.834 108.501 -21.501s75.834 -8.5 108.501 -8.5c34.667 0 60.334 4.5 77.001 13.5s25 23.167 25 42.5c0 10.667 -2.16699 19.334 -6.5 26.001s-12.666 13.167 -24.999 19.5s-32.833 14.5 -61.5 24.5zM215.996 769.001l-130 147h178l46 -77l46 77
h178l-130 -147h-188z" />
    <glyph glyph-name="scaron" unicode="&#x161;" horiz-adv-x="461" 
d="M269 145c0 9.33301 -2.99902 16.5 -8.99902 21.5s-18.333 11.167 -37 18.5l-74 29c-42 16.667 -72.333 37.167 -91 61.5s-28 56.166 -28 95.499c0 32.667 9.16699 61 27.5 85s43.666 42.333 75.999 55s69.833 19 112.5 19c61.333 0 117.333 -13 168 -39v-114
c-54.667 16.667 -105.334 25 -152.001 25c-22.667 0 -38.667 -2 -48 -6s-14 -11.333 -14 -22c0 -8 3.5 -14.667 10.5 -20s18.833 -11.333 35.5 -18l74 -29c46 -18 77.667 -38 95 -60s26 -52.333 26 -91c0 -52.667 -19.5 -94.5 -58.5 -125.5s-91.833 -46.5 -158.5 -46.5
c-77.333 0 -141.333 14.667 -192 44v116c40.667 -11.333 74.5 -19.166 101.5 -23.499s54.167 -6.5 81.5 -6.5c18.667 0 32.334 2.5 41.001 7.5s13 12.833 13 23.5zM146.001 600l-127 178h161l56 -102l56 102h161l-127 -178h-180z" />
    <glyph glyph-name="uni0162" unicode="&#x162;" horiz-adv-x="613" 
d="M210 0v542h-201v151h595v-151h-201v-542h-193zM292 -56c34.667 0 61.832 -7.49902 81.499 -22.499s29.5 -36.833 29.5 -65.5c0 -30 -11.333 -58.333 -34 -85s-57.667 -52.334 -105 -77.001l-67 60c22.667 12 40.834 24.833 54.501 38.5s20.5 26.167 20.5 37.5
s-9.33301 17 -28 17c-12 0 -22 -1 -30 -3v88c22 8 48 12 78 12z" />
    <glyph glyph-name="uni0163" unicode="&#x163;" horiz-adv-x="413" 
d="M395 13c-39.333 -14.667 -84.333 -22 -135 -22c-63.333 0.666992 -110 15.5 -140 44.5s-45 74.833 -45 137.5v214h-71v106l76 18l30 138h153v-134h130v-128h-130v-202c0 -20 5 -34 15 -42s27 -12 51 -12c18.667 0 40.667 2 66 6v-124zM242 -56
c34.667 0 61.833 -7.5 81.5 -22.5s29.5 -36.833 29.5 -65.5c0 -30 -11.167 -58.333 -33.5 -85s-57.166 -52.334 -104.499 -77.001l-66 59c23.333 12.667 41.666 25.834 54.999 39.501s20 26.167 20 37.5c0 12.667 -10 19 -30 19c-12 0 -22 -1 -30 -3v86c22 8 48 12 78 12z
" />
    <glyph glyph-name="Tcaron" unicode="&#x164;" horiz-adv-x="613" 
d="M210 0v542h-201v151h595v-151h-201v-542h-193zM212 769l-130 147h178l46 -77l46 77h178l-130 -147h-188z" />
    <glyph glyph-name="tcaron" unicode="&#x165;" horiz-adv-x="413" 
d="M395 13c-39.333 -14.667 -84.333 -22 -135 -22c-63.333 0.666992 -110 15.5 -140 44.5s-45 74.833 -45 137.5v214h-71v106l76 18l30 138h153v-134h130v-128h-130v-202c0 -20 5 -34 15 -42s27 -12 51 -12c18.667 0 40.667 2 66 6v-124zM313 562v203
c21.333 9.33301 47.666 14 78.999 14c36.667 0 65.334 -8 86.001 -24l-49 -193h-116z" />
    <glyph glyph-name="Tbar" unicode="&#x166;" horiz-adv-x="613" 
d="M210 0v292h-122v114h122v136h-201v151h595v-151h-201v-136h122v-114h-122v-292h-193z" />
    <glyph glyph-name="tbar" unicode="&#x167;" horiz-adv-x="453" 
d="M415 13c-39.333 -14.667 -84.333 -22 -135 -22c-63.333 0.666992 -110 15.5 -140 44.5s-45 74.833 -45 137.5v38h-71v100h71v76h-71v106l76 18l30 138h153v-134h130v-128h-130v-76h130v-100h-130v-26c0 -20 5 -34 15 -42s27 -12 51 -12c18.667 0 40.667 2 66 6v-124z" />
    <glyph glyph-name="Utilde" unicode="&#x168;" horiz-adv-x="747" 
d="M373 -17c-96 0 -170.5 23.5 -223.5 70.5s-79.5 113.833 -79.5 200.5v439h193v-445c0 -36.667 9.33301 -64.5 28 -83.5s46 -28.5 82 -28.5c74 0 111 37.333 111 112v445h193v-440c0 -86 -26.667 -152.5 -80 -199.5s-128 -70.5 -224 -70.5zM284 762l-100 0.000976562
c-2 11.333 -3 26.666 -3 45.999c0 34 9.83301 60.833 29.5 80.5s47.167 29.5 82.5 29.5c20.667 0 39.167 -3.16699 55.5 -9.5s34.166 -17.166 53.499 -32.499c17.333 -14 30.666 -21 39.999 -21c12 0 18.333 9.66699 19 29l2 31h100c2 -10.667 3 -26 3 -46
c0 -34 -9.83301 -60.833 -29.5 -80.5s-47.167 -29.5 -82.5 -29.5c-20.667 0 -39.167 3.16699 -55.5 9.5s-34.166 17.166 -53.499 32.499c-17.333 14 -30.666 21 -39.999 21c-12 0 -18.333 -9.66699 -19 -29z" />
    <glyph glyph-name="utilde" unicode="&#x169;" horiz-adv-x="622" 
d="M405 0l-16 51c-58.667 -44 -117.667 -66 -177 -66c-48 0 -85.333 13.833 -112 41.5s-40 65.5 -40 113.5v375h188v-339c0 -20 3.83301 -34.5 11.5 -43.5s20.167 -13.5 37.5 -13.5c24 0 48.333 7 73 21v375h188v-515h-153zM219 591l-99 0.000976562
c-2 11.333 -3 26.666 -3 45.999c0 34 9.83301 60.833 29.5 80.5s47.167 29.5 82.5 29.5c20 0 38.167 -3.16699 54.5 -9.5s34.5 -17.5 54.5 -33.5c18 -14.667 31.333 -22 40 -22c12 0 18.667 10.333 20 31l2 31h99c2 -10.667 3 -26 3 -46c0 -34 -9.83301 -60.833 -29.5 -80.5
s-47.167 -29.5 -82.5 -29.5c-20 0 -38.167 3.16699 -54.5 9.5s-34.5 17.5 -54.5 33.5c-18 14.667 -31.333 22 -40 22c-12 0 -18.667 -10.333 -20 -31z" />
    <glyph glyph-name="Umacron" unicode="&#x16a;" horiz-adv-x="747" 
d="M373 -17c-96 0 -170.5 23.5 -223.5 70.5s-79.5 113.833 -79.5 200.5v439h193v-445c0 -36.667 9.33301 -64.5 28 -83.5s46 -28.5 82 -28.5c74 0 111 37.333 111 112v445h193v-440c0 -86 -26.667 -152.5 -80 -199.5s-128 -70.5 -224 -70.5zM195 784v110h357v-110h-357z" />
    <glyph glyph-name="umacron" unicode="&#x16b;" horiz-adv-x="622" 
d="M405 0l-16 51c-58.667 -44 -117.667 -66 -177 -66c-48 0 -85.333 13.833 -112 41.5s-40 65.5 -40 113.5v375h188v-339c0 -20 3.83301 -34.5 11.5 -43.5s20.167 -13.5 37.5 -13.5c24 0 48.333 7 73 21v375h188v-515h-153zM131 612v110h357v-110h-357z" />
    <glyph glyph-name="Ubreve" unicode="&#x16c;" horiz-adv-x="747" 
d="M373 -17c-96 0 -170.5 23.5 -223.5 70.5s-79.5 113.833 -79.5 200.5v439h193v-445c0 -36.667 9.33301 -64.5 28 -83.5s46 -28.5 82 -28.5c74 0 111 37.333 111 112v445h193v-440c0 -86 -26.667 -152.5 -80 -199.5s-128 -70.5 -224 -70.5zM373 760
c-54 0 -95.4961 11 -124.496 33s-43.5 53.667 -43.5 95c0 14 1 24.333 3 31h99l1 -14c1.33301 -14 7.16602 -24 17.499 -30s26.166 -9 47.499 -9s37.166 3 47.499 9s16.166 16 17.499 30l1 14h99c2 -6.66699 3 -17 3 -31c0 -41.333 -14.5 -73 -43.5 -95
s-70.5 -33 -124.5 -33z" />
    <glyph glyph-name="ubreve" unicode="&#x16d;" horiz-adv-x="622" 
d="M405 0l-16 51c-58.667 -44 -117.667 -66 -177 -66c-48 0 -85.333 13.833 -112 41.5s-40 65.5 -40 113.5v375h188v-339c0 -20 3.83301 -34.5 11.5 -43.5s20.167 -13.5 37.5 -13.5c24 0 48.333 7 73 21v375h188v-515h-153zM309 594c-51.333 0 -92.168 13 -122.501 39
s-45.5 61 -45.5 105c0 12.667 1 24 3 34h99l4 -29c2 -15.333 7.83301 -26.333 17.5 -33s24.5 -10 44.5 -10s34.833 3.33301 44.5 10s15.5 17.667 17.5 33l4 29h99c2 -10 3 -21.333 3 -34c0 -44 -15.167 -79 -45.5 -105s-71.166 -39 -122.499 -39z" />
    <glyph glyph-name="Uring" unicode="&#x16e;" horiz-adv-x="747" 
d="M373 -17c-96 0 -170.5 23.5 -223.5 70.5s-79.5 113.833 -79.5 200.5v439h193v-445c0 -36.667 9.33301 -64.5 28 -83.5s46 -28.5 82 -28.5c74 0 111 37.333 111 112v445h193v-440c0 -86 -26.667 -152.5 -80 -199.5s-128 -70.5 -224 -70.5zM373 730
c-40 0 -72 10.167 -96 30.5s-36 47.5 -36 81.5s12 61.167 36 81.5s56 30.5 96 30.5s72 -10.167 96 -30.5s36 -47.5 36 -81.5s-12 -61.167 -36 -81.5s-56 -30.5 -96 -30.5zM373 799c12 0 21.333 3.83301 28 11.5s10 18.167 10 31.5s-3.33301 23.833 -10 31.5
s-16 11.5 -28 11.5s-21.333 -3.83301 -28 -11.5s-10 -18.167 -10 -31.5s3.33301 -23.833 10 -31.5s16 -11.5 28 -11.5z" />
    <glyph glyph-name="uring" unicode="&#x16f;" horiz-adv-x="622" 
d="M405 0l-16 51c-58.667 -44 -117.667 -66 -177 -66c-48 0 -85.333 13.833 -112 41.5s-40 65.5 -40 113.5v375h188v-339c0 -20 3.83301 -34.5 11.5 -43.5s20.167 -13.5 37.5 -13.5c24 0 48.333 7 73 21v375h188v-515h-153zM309 585c-43.333 0 -78.166 11.167 -104.499 33.5
s-39.5 51.833 -39.5 88.5s13.167 66.167 39.5 88.5s61.166 33.5 104.499 33.5s78.166 -11.167 104.499 -33.5s39.5 -51.833 39.5 -88.5s-13.167 -66.167 -39.5 -88.5s-61.166 -33.5 -104.499 -33.5zM309 662c12.667 0 22.5 4 29.5 12s10.5 19 10.5 33s-3.5 25 -10.5 33
s-16.833 12 -29.5 12s-22.5 -4 -29.5 -12s-10.5 -19 -10.5 -33s3.5 -25 10.5 -33s16.833 -12 29.5 -12z" />
    <glyph glyph-name="Uhungarumlaut" unicode="&#x170;" horiz-adv-x="747" 
d="M373 -17c-96 0 -170.5 23.5 -223.5 70.5s-79.5 113.833 -79.5 200.5v439h193v-445c0 -36.667 9.33301 -64.5 28 -83.5s46 -28.5 82 -28.5c74 0 111 37.333 111 112v445h193v-440c0 -86 -26.667 -152.5 -80 -199.5s-128 -70.5 -224 -70.5zM290 904h185l-140 -135h-152z
M504 904h185l-140 -135h-152z" />
    <glyph glyph-name="uhungarumlaut" unicode="&#x171;" horiz-adv-x="622" 
d="M405 0l-16 51c-58.667 -44 -117.667 -66 -177 -66c-48 0 -85.333 13.833 -112 41.5s-40 65.5 -40 113.5v375h188v-339c0 -20 3.83301 -34.5 11.5 -43.5s20.167 -13.5 37.5 -13.5c24 0 48.333 7 73 21v375h188v-515h-153zM120 600l98 177h192l-138 -177h-152zM355 600
l98 177h192l-138 -177h-152z" />
    <glyph glyph-name="Uogonek" unicode="&#x172;" horiz-adv-x="747" 
d="M373 -17c-96 0 -170.501 23.5 -223.501 70.5s-79.5 113.833 -79.5 200.5v439h193v-445c0 -36.667 9.33301 -64.5 28 -83.5s46 -28.5 82 -28.5c74 0 111 37.333 111 112v445h193v-440c0 -58.667 -12.5 -108.5 -37.5 -149.5s-61.5 -71.833 -109.5 -92.5
c-62 -33.333 -93 -72 -93 -116c0 -10.667 3.83301 -19 11.5 -25s18.5 -9 32.5 -9c12.667 0 28.334 2.33301 47.001 7v-91c-24 -9.33301 -52.667 -14 -86 -14c-45.333 0 -80 8.33301 -104 25s-36 40.334 -36 71.001c0 43.333 24.667 84.666 74 123.999h-3z" />
    <glyph glyph-name="uogonek" unicode="&#x173;" horiz-adv-x="622" 
d="M558 515l-0.000976562 -515.001c-54 -39.333 -81 -75 -81 -107c0 -22.667 15 -34 45 -34c12.667 0 28.334 2.33301 47.001 7v-89c-24 -9.33301 -52.667 -14 -86 -14c-45.333 0 -80 8.33301 -104 25s-36 40.334 -36 71.001c0 49.333 32.333 96.333 97 141h-35l-16 51
c-58.667 -44 -117.667 -66 -177 -66c-48 0 -85.333 13.833 -112 41.5s-40 65.5 -40 113.5v375h188v-339c0 -20 3.83301 -34.5 11.5 -43.5s20.167 -13.5 37.5 -13.5c24 0 48.333 7 73 21v375h188z" />
    <glyph glyph-name="Wcircumflex" unicode="&#x174;" horiz-adv-x="994" 
d="M594 0l-98 453l-96 -453h-203l-187 693h212l81 -479l99 465h196l99 -472l82 486h205l-186 -693h-204zM567 769l-70 69l-70 -69h-154l130 147h188l130 -147h-154z" />
    <glyph glyph-name="wcircumflex" unicode="&#x175;" horiz-adv-x="834" 
d="M490 0l-74 323l-73 -323h-178l-162 515h198l61 -334l78 334h161l81 -334l56 334h193l-162 -515h-179zM498 600l-78 92l-78 -92h-139l127 178h180l127 -178h-139z" />
    <glyph glyph-name="Ycircumflex" unicode="&#x176;" horiz-adv-x="664" 
d="M234 0v261l-232 432h211l123 -294l125 294h201l-235 -434v-259h-193zM400 769l-70 69l-70 -69h-154l130 147h188l130 -147h-154z" />
    <glyph glyph-name="ycircumflex" unicode="&#x177;" horiz-adv-x="562" 
d="M103 -83c26.667 0 47.833 5.16699 63.5 15.5s28.5 27.5 38.5 51.5l-205 531h199l88 -342l81 342h194l-204 -567c-20.667 -58 -46.667 -100.167 -78 -126.5s-71.333 -39.5 -120 -39.5c-41.333 0 -80 6 -116 18v120c15.333 -2 35 -3 59 -3zM358.999 600l-78 92l-78 -92
h-139l127 178h180l127 -178h-139z" />
    <glyph glyph-name="Ydieresis" unicode="&#x178;" horiz-adv-x="664" 
d="M234 0v261l-232 432h211l123 -294l125 294h201l-235 -434v-259h-193zM205 756c-30 0 -54 8 -72 24s-27 37.667 -27 65s9 49 27 65s42 24 72 24s54 -8 72 -24s27 -37.667 27 -65s-9 -49 -27 -65s-42 -24 -72 -24zM455 756c-30 0 -54 8 -72 24s-27 37.667 -27 65
s9 49 27 65s42 24 72 24s54 -8 72 -24s27 -37.667 27 -65s-9 -49 -27 -65s-42 -24 -72 -24z" />
    <glyph glyph-name="Zacute" unicode="&#x179;" horiz-adv-x="617" 
d="M34 0v134l328 413h-313v146h528v-134l-325 -413h331v-146h-549zM237 769l107 135h185l-140 -135h-152z" />
    <glyph glyph-name="zacute" unicode="&#x17a;" horiz-adv-x="501" 
d="M26 0v124l243 263h-233v128h433v-124l-245 -263h251v-128h-449zM176 600l102 177h192l-142 -177h-152z" />
    <glyph glyph-name="Zdotaccent" unicode="&#x17b;" horiz-adv-x="617" 
d="M34 0v134l328 413h-313v146h528v-134l-325 -413h331v-146h-549zM313 758c-32.667 0 -58.667 8.83301 -78 26.5s-29 41.167 -29 70.5s9.66699 52.833 29 70.5s45.333 26.5 78 26.5s58.667 -8.83301 78 -26.5s29 -41.167 29 -70.5s-9.66699 -52.833 -29 -70.5
s-45.333 -26.5 -78 -26.5z" />
    <glyph glyph-name="zdotaccent" unicode="&#x17c;" horiz-adv-x="501" 
d="M26 0v124l243 263h-233v128h433v-124l-245 -263h251v-128h-449zM252 580c-32 0 -57.5 8.66699 -76.5 26s-28.5 40.333 -28.5 69s9.5 51.667 28.5 69s44.5 26 76.5 26s57.5 -8.66699 76.5 -26s28.5 -40.333 28.5 -69s-9.5 -51.667 -28.5 -69s-44.5 -26 -76.5 -26z" />
    <glyph glyph-name="Zcaron" unicode="&#x17d;" horiz-adv-x="617" 
d="M34 0v134l328 413h-313v146h528v-134l-325 -413h331v-146h-549zM219 769l-130 147h178l46 -77l46 77h178l-130 -147h-188z" />
    <glyph glyph-name="zcaron" unicode="&#x17e;" horiz-adv-x="501" 
d="M26 0v124l243 263h-233v128h433v-124l-245 -263h251v-128h-449zM162 600l-127 178h161l56 -102l56 102h161l-127 -178h-180z" />
    <glyph glyph-name="longs" unicode="&#x17f;" horiz-adv-x="318" 
d="M62 0v536c0 145.333 70 218 210 218c44 0 83.667 -6.66699 119 -20v-122c-22 2.66699 -42.333 4 -61 4c-30 0 -50.833 -4.66699 -62.5 -14s-17.5 -27 -17.5 -53v-549h-188z" />
    <glyph glyph-name="florin" unicode="&#x192;" horiz-adv-x="405" 
d="M271 387l-0.00195312 -387c0 -71.333 -17.167 -125.5 -51.5 -162.5s-84.166 -55.5 -149.499 -55.5c-39.333 0 -77 6.66699 -113 20v122c24.667 -2.66699 43.667 -4 57 -4c24.667 0 42.334 5.33301 53.001 16s16 27.667 16 51v400h-75v106l75 17v26
c0 145.333 70 218 210 218c44 0 83.667 -6.66699 119 -20v-122c-22 2.66699 -42.333 4 -61 4c-30 0 -50.833 -4.66699 -62.5 -14s-17.5 -27 -17.5 -53v-34h135v-128h-135z" />
    <glyph glyph-name="uni01D3" unicode="&#x1d3;" horiz-adv-x="747" 
d="M373 -17c-96 0 -170.5 23.5 -223.5 70.5s-79.5 113.833 -79.5 200.5v439h193v-445c0 -36.667 9.33301 -64.5 28 -83.5s46 -28.5 82 -28.5c74 0 111 37.333 111 112v445h193v-440c0 -86 -26.667 -152.5 -80 -199.5s-128 -70.5 -224 -70.5zM279 769l-130 147h178l46 -77
l46 77h178l-130 -147h-188z" />
    <glyph glyph-name="uni01D4" unicode="&#x1d4;" horiz-adv-x="622" 
d="M405 0l-16 51c-58.667 -44 -117.667 -66 -177 -66c-48 0 -85.333 13.833 -112 41.5s-40 65.5 -40 113.5v375h188v-339c0 -20 3.83301 -34.5 11.5 -43.5s20.167 -13.5 37.5 -13.5c24 0 48.333 7 73 21v375h188v-515h-153zM219 600l-127 178h161l56 -102l56 102h161
l-127 -178h-180z" />
    <glyph glyph-name="Aringacute" unicode="&#x1fa;" horiz-adv-x="705" 
d="M492 0l-37.998 134.001h-212l-36 -134h-204l236 645c-12 17.333 -18 38.333 -18 63c0 34 12.167 61.167 36.5 81.5s56.166 30.5 95.499 30.5s71.166 -10.167 95.499 -30.5s36.5 -47.5 36.5 -81.5c0 -22.667 -6 -43.334 -18 -62.001l237 -646h-211zM292.002 849.001
l104 135h153l-134 -135h-123zM278.002 270.001h140l-71 257zM352.002 665.001c11.333 0 20.5 3.83301 27.5 11.5s10.5 18.167 10.5 31.5s-3.5 23.833 -10.5 31.5s-16.167 11.5 -27.5 11.5s-20.5 -3.83301 -27.5 -11.5s-10.5 -18.167 -10.5 -31.5s3.5 -23.833 10.5 -31.5
s16.167 -11.5 27.5 -11.5z" />
    <glyph glyph-name="aringacute" unicode="&#x1fb;" horiz-adv-x="566" 
d="M357 0l-14.001 39.999c-20 -18.667 -42.667 -33 -68 -43s-51.333 -15 -78 -15c-49.333 0 -89.166 14.333 -119.499 43s-45.5 67 -45.5 115c0 34 9 63.833 27 89.5s42.667 45.334 74 59.001s67 20.5 107 20.5c30 0 60 -3 90 -9v26c0 28 -6.33301 47.333 -19 58
s-35 16 -67 16c-46.667 0 -103.667 -10.333 -171 -31v116c27.333 14 60.333 25 99 33s78.334 12 119.001 12c73.333 0 127.166 -14.833 161.499 -44.5s51.5 -76.5 51.5 -140.5v-345h-147zM257.999 100.999c12.667 0 25.667 2.83203 39 8.49902s24.333 12.834 33 21.501v74
c-18.667 2.66699 -37 4 -55 4c-44.667 0 -67 -18.667 -67 -56c0 -16 4.5 -28.667 13.5 -38s21.167 -14 36.5 -14zM281.999 576.998c-39.333 0 -71.166 10.167 -95.499 30.5s-36.5 47.5 -36.5 81.5s12.167 61.167 36.5 81.5s56.166 30.5 95.499 30.5
s71.166 -10.167 95.499 -30.5s36.5 -47.5 36.5 -81.5s-12.167 -61.167 -36.5 -81.5s-56.166 -30.5 -95.499 -30.5zM281.999 645.998c11.333 0 20.5 3.83301 27.5 11.5s10.5 18.167 10.5 31.5s-3.5 23.833 -10.5 31.5s-16.167 11.5 -27.5 11.5s-20.5 -3.83301 -27.5 -11.5
s-10.5 -18.167 -10.5 -31.5s3.5 -23.833 10.5 -31.5s16.167 -11.5 27.5 -11.5zM221.999 829.998l104 135h153l-134 -135h-123z" />
    <glyph glyph-name="AEacute" unicode="&#x1fc;" horiz-adv-x="999" 
d="M480 0v121h-213l-57 -121h-208l363 693h598v-146h-295v-121h240v-146h-240v-134h297v-146h-485zM332 257h148v290h-9zM577 769l107 135h185l-140 -135h-152z" />
    <glyph glyph-name="aeacute" unicode="&#x1fd;" horiz-adv-x="863" 
d="M514 199c14 -56 61.6631 -83.999 142.996 -83.999c42.667 0 94.667 8.66699 156 26v-115c-25.333 -12.667 -55.666 -22.667 -90.999 -30s-70.333 -11 -105 -11c-94.667 0 -164 25.333 -208 76c-21.333 -22.667 -50.666 -41.5 -87.999 -56.5s-75 -22.5 -113 -22.5
c-52.667 0 -95.167 14.333 -127.5 43s-48.5 67 -48.5 115c0 35.333 9 66 27 92s42.833 45.833 74.5 59.5s68.834 20.5 111.501 20.5c34 0 70.333 -3.33301 109 -10v9c0 59.333 -37.667 89 -113 89c-44.667 0 -100.667 -10.333 -168 -31v116
c26 13.333 57.5 24.166 94.5 32.499s71.833 12.5 104.5 12.5c36 0 68.667 -5.5 98 -16.5s53.333 -27.167 72 -48.5c45.333 43.333 103.333 65 174 65c66.667 0 118.334 -18.833 155.001 -56.5s55 -90.834 55 -159.501c0 -18.667 -1 -39.167 -3 -61.5
s-4.66699 -40.166 -8 -53.499h-301zM258.996 101.001c17.333 0 36.999 4.83301 58.999 14.5s37.667 20.167 47 31.5c-5.33301 16 -9 37 -11 63c-22.667 1.33301 -39 2 -49 2c-34.667 0 -59.5 -4.5 -74.5 -13.5s-22.5 -23.833 -22.5 -44.5c0 -16.667 4.33301 -29.667 13 -39
s21.334 -14 38.001 -14zM595.995 405.001c-25.333 0 -45.3311 -8.33301 -59.998 -25s-23.334 -41 -26.001 -73h158v12c0 29.333 -5.83301 51 -17.5 65s-29.834 21 -54.501 21zM359.997 600.001l102 177h192l-142 -177h-152z" />
    <glyph glyph-name="Oslashacute" unicode="&#x1fe;" horiz-adv-x="807" 
d="M58 23l69.002 82.001c-48.667 62 -73 143 -73 243c0 75.333 14.333 140.166 43 194.499s69.167 95.833 121.5 124.5s113.833 43 184.5 43c74 0 138.333 -16 193 -48l65 77l88 -69l-69 -83c48.667 -63.333 73 -144 73 -242c0 -75.333 -14.333 -140.333 -43 -195
s-69.334 -96.167 -122.001 -124.5s-114.334 -42.5 -185.001 -42.5c-73.333 0 -137.333 16 -192 48l-65 -77zM244.002 348.001c0 -34.667 3 -65.667 9 -93l238 283c-22.667 14.667 -52 22.667 -88 24c-106 0 -159 -71.333 -159 -214zM403.002 131.001
c106.667 0 160 71.332 160 213.999c0 36.667 -3.33301 67.334 -10 92.001l-238 -282c24 -16 53.333 -24 88 -24zM327.002 769l107 135h185l-140 -135h-152z" />
    <glyph glyph-name="oslashacute" unicode="&#x1ff;" horiz-adv-x="610" 
d="M44 13l50 59.999c-37.333 46.667 -56 108.334 -56 185.001c0 85.333 23.667 152 71 200s112.666 72 195.999 72c53.333 0 100.333 -10.667 141 -32l49 60l71 -56l-50 -61c37.333 -46.667 56 -107.667 56 -183c0 -86 -23.667 -153 -71 -201s-112.666 -72 -195.999 -72
c-54 0 -101 10.333 -141 31l-49 -59zM305 108.999c30 0 53.833 13.333 71.5 40s26.5 63 26.5 109c0 16 -1 30.333 -3 43l-146 -176c13.333 -10.667 30.333 -16 51 -16zM207 257.999c0 -16 1.00098 -30.667 3.00098 -44l145 175c-14.667 11.333 -31.334 17 -50.001 17
c-29.333 0 -53 -13.167 -71 -39.5s-27 -62.5 -27 -108.5zM229.001 599.999l102 177h192l-142 -177h-152z" />
    <glyph glyph-name="uni0218" unicode="&#x218;" horiz-adv-x="603" 
d="M221 280c-63.333 22 -109.004 49.668 -137.004 83.001s-42 77 -42 131c0 44 12 82.333 36 115s56.833 57.667 98.5 75s89.5 26 143.5 26c70 0 136.333 -12 199 -36v-140c-63.333 18 -124.333 27 -183 27c-68.667 0 -103 -18 -103 -54c0 -13.333 6 -24.666 18 -33.999
s34 -19.333 66 -30l60 -20c68.667 -22.667 117.5 -49.834 146.5 -81.501s43.5 -73.834 43.5 -126.501c0 -73.333 -26.167 -130.333 -78.5 -171s-125.833 -61 -220.5 -61c-40.667 0 -80 3.5 -118 10.5s-70.333 16.5 -97 28.5v142
c32.667 -8.66699 68.834 -15.834 108.501 -21.501s75.834 -8.5 108.501 -8.5c34.667 0 60.334 4.5 77.001 13.5s25 23.167 25 42.5c0 10.667 -2.16699 19.334 -6.5 26.001s-12.666 13.167 -24.999 19.5s-32.833 14.5 -61.5 24.5zM166.996 -293.999l37 235h61
c60.667 0 91 -19.333 91 -58c0 -19.333 -9 -46 -27 -80l-51 -97h-111z" />
    <glyph glyph-name="uni0219" unicode="&#x219;" horiz-adv-x="461" 
d="M269 145c0 9.33301 -2.99902 16.5 -8.99902 21.5s-18.333 11.167 -37 18.5l-74 29c-42 16.667 -72.333 37.167 -91 61.5s-28 56.166 -28 95.499c0 32.667 9.16699 61 27.5 85s43.666 42.333 75.999 55s69.833 19 112.5 19c61.333 0 117.333 -13 168 -39v-114
c-54.667 16.667 -105.334 25 -152.001 25c-22.667 0 -38.667 -2 -48 -6s-14 -11.333 -14 -22c0 -8 3.5 -14.667 10.5 -20s18.833 -11.333 35.5 -18l74 -29c46 -18 77.667 -38 95 -60s26 -52.333 26 -91c0 -52.667 -19.5 -94.5 -58.5 -125.5s-91.833 -46.5 -158.5 -46.5
c-77.333 0 -141.333 14.667 -192 44v116c40.667 -11.333 74.5 -19.166 101.5 -23.499s54.167 -6.5 81.5 -6.5c18.667 0 32.334 2.5 41.001 7.5s13 12.833 13 23.5zM132.001 -294l37 235h59c60.667 0 91 -19.333 91 -58c0 -19.333 -9 -46 -27 -80l-51 -97h-109z" />
    <glyph glyph-name="uni021A" unicode="&#x21a;" horiz-adv-x="613" 
d="M210 0v542h-201v151h595v-151h-201v-542h-193zM201 -294l37 235h61c60.667 0 91 -19.333 91 -58c0 -19.333 -9 -46 -27 -80l-51 -97h-111z" />
    <glyph glyph-name="uni021B" unicode="&#x21b;" horiz-adv-x="413" 
d="M395 13c-39.333 -14.667 -84.333 -22 -135 -22c-63.333 0.666992 -110 15.5 -140 44.5s-45 74.833 -45 137.5v214h-71v106l76 18l30 138h153v-134h130v-128h-130v-202c0 -20 5 -34 15 -42s27 -12 51 -12c18.667 0 40.667 2 66 6v-124zM155 -294l37 235h59
c60.667 0 91 -19.333 91 -58c0 -19.333 -9 -46 -27 -80l-51 -97h-109z" />
    <glyph glyph-name="uni0237" unicode="&#x237;" horiz-adv-x="316" 
d="M64 515h188v-542c0 -64.667 -14.667 -112.667 -44 -144s-74.333 -47 -135 -47c-40.667 0 -79.667 6 -117 18v121c20 -2 38.667 -3 56 -3c18.667 0 32 3.66699 40 11s12 19.333 12 36v550z" />
    <glyph glyph-name="uni02B9" unicode="&#x2b9;" horiz-adv-x="324" 
d="M44 464l69 226c28.667 16 61.667 24 99 24c31.333 0 61.333 -8 90 -24l-134 -226h-124z" />
    <glyph glyph-name="uni02BA" unicode="&#x2ba;" horiz-adv-x="572" 
d="M44 464l69 226c28.667 16 61.667 24 99 24c31.333 0 61.333 -8 90 -24l-134 -226h-124zM292 464l69 226c28.667 16 61.667 24 99 24c31.333 0 61.333 -8 90 -24l-134 -226h-124z" />
    <glyph glyph-name="uni02BB" unicode="&#x2bb;" horiz-adv-x="312" 
d="M295 652c-60.667 -76.667 -90.998 -167.668 -90.998 -273.001v-33h-71c-35.333 0 -61.333 6.16699 -78 18.5s-25 32.166 -25 59.499c0 30.667 8.66699 64.834 26 102.501s39.666 72.834 66.999 105.501s56.666 59.667 87.999 81z" />
    <glyph glyph-name="uni02BC" unicode="&#x2bc;" horiz-adv-x="312" 
d="M17 387c60.667 76.667 90.998 167.668 90.998 273.001v33h71c35.333 0 61.333 -6.16699 78 -18.5s25 -32.166 25 -59.499c0 -30.667 -8.66699 -64.834 -26 -102.501s-39.666 -72.834 -66.999 -105.501s-56.666 -59.667 -87.999 -81z" />
    <glyph glyph-name="circumflex" unicode="&#x2c6;" horiz-adv-x="630" 
d="M393 600l-78 92l-78 -92h-139l127 178h180l127 -178h-139z" />
    <glyph glyph-name="caron" unicode="&#x2c7;" horiz-adv-x="630" 
d="M225 600l-127 178h161l56 -102l56 102h161l-127 -178h-180z" />
    <glyph glyph-name="uni02C9" unicode="&#x2c9;" horiz-adv-x="630" 
d="M136 612v110h357v-110h-357z" />
    <glyph glyph-name="uni02CA" unicode="&#x2ca;" horiz-adv-x="630" 
d="M168 600l102 177h192l-142 -177h-152z" />
    <glyph glyph-name="uni02CB" unicode="&#x2cb;" horiz-adv-x="630" 
d="M310 600l-142 177h192l102 -177h-152z" />
    <glyph glyph-name="breve" unicode="&#x2d8;" horiz-adv-x="630" 
d="M315 594c-51.333 0 -92.168 13 -122.501 39s-45.5 61 -45.5 105c0 12.667 1 24 3 34h99l4 -29c2 -15.333 7.83301 -26.333 17.5 -33s24.5 -10 44.5 -10s34.833 3.33301 44.5 10s15.5 17.667 17.5 33l4 29h99c2 -10 3 -21.333 3 -34c0 -44 -15.167 -79 -45.5 -105
s-71.166 -39 -122.499 -39z" />
    <glyph glyph-name="dotaccent" unicode="&#x2d9;" horiz-adv-x="630" 
d="M315 580c-32 0 -57.5 8.66699 -76.5 26s-28.5 40.333 -28.5 69s9.5 51.667 28.5 69s44.5 26 76.5 26s57.5 -8.66699 76.5 -26s28.5 -40.333 28.5 -69s-9.5 -51.667 -28.5 -69s-44.5 -26 -76.5 -26z" />
    <glyph glyph-name="ring" unicode="&#x2da;" horiz-adv-x="630" 
d="M315 585c-43.333 0 -78.166 11.167 -104.499 33.5s-39.5 51.833 -39.5 88.5s13.167 66.167 39.5 88.5s61.166 33.5 104.499 33.5s78.166 -11.167 104.499 -33.5s39.5 -51.833 39.5 -88.5s-13.167 -66.167 -39.5 -88.5s-61.166 -33.5 -104.499 -33.5zM315 662
c12.667 0 22.5 4 29.5 12s10.5 19 10.5 33s-3.5 25 -10.5 33s-16.833 12 -29.5 12s-22.5 -4 -29.5 -12s-10.5 -19 -10.5 -33s3.5 -25 10.5 -33s16.833 -12 29.5 -12z" />
    <glyph glyph-name="ogonek" unicode="&#x2db;" horiz-adv-x="630" 
d="M417 0c-54 -39.333 -81.001 -75.001 -81.001 -107.001c0 -22.667 15 -34 45 -34c12.667 0 28.334 2.33301 47.001 7v-89c-24 -9.33301 -52.667 -14 -86 -14c-45.333 0 -80 8.33301 -104 25s-36 40.334 -36 71.001c0 56 43 109.667 129 161z" />
    <glyph glyph-name="tilde" unicode="&#x2dc;" horiz-adv-x="630" 
d="M225 591l-99 0.000976562c-2 11.333 -3 26.666 -3 45.999c0 34 9.83301 60.833 29.5 80.5s47.167 29.5 82.5 29.5c20 0 38.167 -3.16699 54.5 -9.5s34.5 -17.5 54.5 -33.5c18 -14.667 31.333 -22 40 -22c12 0 18.667 10.333 20 31l2 31h99c2 -10.667 3 -26 3 -46
c0 -34 -9.83301 -60.833 -29.5 -80.5s-47.167 -29.5 -82.5 -29.5c-20 0 -38.167 3.16699 -54.5 9.5s-34.5 17.5 -54.5 33.5c-18 14.667 -31.333 22 -40 22c-12 0 -18.667 -10.333 -20 -31z" />
    <glyph glyph-name="hungarumlaut" unicode="&#x2dd;" horiz-adv-x="630" 
d="M53 600l98 177h192l-138 -177h-152zM288 600l98 177h192l-138 -177h-152z" />
    <glyph glyph-name="gravecomb" unicode="&#x300;" horiz-adv-x="0" 
d="M-76 600l-142 177h192l102 -177h-152z" />
    <glyph glyph-name="acutecomb" unicode="&#x301;" horiz-adv-x="0" 
d="M-76 600l102 177h192l-142 -177h-152z" />
    <glyph glyph-name="uni0302" unicode="&#x302;" horiz-adv-x="0" 
d="M78 600l-78 92l-78 -92h-139l127 178h180l127 -178h-139z" />
    <glyph glyph-name="tildecomb" unicode="&#x303;" horiz-adv-x="0" 
d="M-90 591l-99 0.000976562c-2 11.333 -3 26.666 -3 45.999c0 34 9.83301 60.833 29.5 80.5s47.167 29.5 82.5 29.5c20 0 38.167 -3.16699 54.5 -9.5s34.5 -17.5 54.5 -33.5c18 -14.667 31.333 -22 40 -22c12 0 18.667 10.333 20 31l2 31h99c2 -10.667 3 -26 3 -46
c0 -34 -9.83301 -60.833 -29.5 -80.5s-47.167 -29.5 -82.5 -29.5c-20 0 -38.167 3.16699 -54.5 9.5s-34.5 17.5 -54.5 33.5c-18 14.667 -31.333 22 -40 22c-12 0 -18.667 -10.333 -20 -31z" />
    <glyph glyph-name="uni0304" unicode="&#x304;" horiz-adv-x="0" 
d="M-178 612v110h357v-110h-357z" />
    <glyph glyph-name="uni0306" unicode="&#x306;" horiz-adv-x="0" 
d="M0 594c-51.333 0 -92.168 13 -122.501 39s-45.5 61 -45.5 105c0 12.667 1 24 3 34h99l4 -29c2 -15.333 7.83301 -26.333 17.5 -33s24.5 -10 44.5 -10s34.833 3.33301 44.5 10s15.5 17.667 17.5 33l4 29h99c2 -10 3 -21.333 3 -34c0 -44 -15.167 -79 -45.5 -105
s-71.166 -39 -122.499 -39z" />
    <glyph glyph-name="uni0307" unicode="&#x307;" horiz-adv-x="0" 
d="M0 580c-32 0 -57.5 8.66699 -76.5 26s-28.5 40.333 -28.5 69s9.5 51.667 28.5 69s44.5 26 76.5 26s57.5 -8.66699 76.5 -26s28.5 -40.333 28.5 -69s-9.5 -51.667 -28.5 -69s-44.5 -26 -76.5 -26z" />
    <glyph glyph-name="uni0308" unicode="&#x308;" horiz-adv-x="0" 
d="M-125 578c-29.333 0 -52.833 7.83301 -70.5 23.5s-26.5 36.834 -26.5 63.501s8.83301 47.834 26.5 63.501s41.167 23.5 70.5 23.5s52.833 -7.83301 70.5 -23.5s26.5 -36.834 26.5 -63.501s-8.83301 -47.834 -26.5 -63.501s-41.167 -23.5 -70.5 -23.5zM125 578
c-29.333 0 -52.833 7.83301 -70.5 23.5s-26.5 36.834 -26.5 63.501s8.83301 47.834 26.5 63.501s41.167 23.5 70.5 23.5s52.833 -7.83301 70.5 -23.5s26.5 -36.834 26.5 -63.501s-8.83301 -47.834 -26.5 -63.501s-41.167 -23.5 -70.5 -23.5z" />
    <glyph glyph-name="uni030A" unicode="&#x30a;" horiz-adv-x="0" 
d="M0 585c-43.333 0 -78.166 11.167 -104.499 33.5s-39.5 51.833 -39.5 88.5s13.167 66.167 39.5 88.5s61.166 33.5 104.499 33.5s78.166 -11.167 104.499 -33.5s39.5 -51.833 39.5 -88.5s-13.167 -66.167 -39.5 -88.5s-61.166 -33.5 -104.499 -33.5zM0 662
c12.667 0 22.5 4 29.5 12s10.5 19 10.5 33s-3.5 25 -10.5 33s-16.833 12 -29.5 12s-22.5 -4 -29.5 -12s-10.5 -19 -10.5 -33s3.5 -25 10.5 -33s16.833 -12 29.5 -12z" />
    <glyph glyph-name="uni030B" unicode="&#x30b;" horiz-adv-x="0" 
d="M-189 600l98 177h192l-138 -177h-152zM46 600l98 177h192l-138 -177h-152z" />
    <glyph glyph-name="uni030C" unicode="&#x30c;" horiz-adv-x="0" 
d="M-90 600l-127 178h161l56 -102l56 102h161l-127 -178h-180z" />
    <glyph glyph-name="uni0312" unicode="&#x312;" horiz-adv-x="0" 
d="M108 830l-40 -242h-57c-60.667 0 -91 19.333 -91 58c0 10 2 20.667 6 32s11 27.333 21 48l52 104h109z" />
    <glyph glyph-name="uni0315" unicode="&#x315;" horiz-adv-x="0" 
d="M-58 529v209c21.333 9.33301 47.666 14 78.999 14c36.667 0 65.334 -8.33301 86.001 -25l-49 -198h-116z" />
    <glyph glyph-name="uni0326" unicode="&#x326;" horiz-adv-x="0" 
d="M-104 -294l37 235h59c60.667 0 91 -19.333 91 -58c0 -19.333 -9 -46 -27 -80l-51 -97h-109z" />
    <glyph glyph-name="uni0327" unicode="&#x327;" horiz-adv-x="0" 
d="M-17 -56c34.667 0 61.833 -7.5 81.5 -22.5s29.5 -36.833 29.5 -65.5c0 -30 -11.167 -58.333 -33.5 -85s-57.166 -52.334 -104.499 -77.001l-66 59c23.333 12.667 41.666 25.834 54.999 39.501s20 26.167 20 37.5c0 12.667 -10 19 -30 19c-12 0 -22 -1 -30 -3v86
c22 8 48 12 78 12z" />
    <glyph glyph-name="uni0328" unicode="&#x328;" horiz-adv-x="0" 
d="M0 0c-54 -39.333 -81.001 -75.001 -81.001 -107.001c0 -22.667 15 -34 45 -34c12.667 0 28.334 2.33301 47.001 7v-89c-24 -9.33301 -52.667 -14 -86 -14c-45.333 0 -80 8.33301 -104 25s-36 40.334 -36 71.001c0 56 43 109.667 129 161z" />
    <glyph glyph-name="uni0344" unicode="&#x344;" horiz-adv-x="0" 
d="M-128 578c-28 0 -50.5 7.33301 -67.5 22s-25.5 35 -25.5 61s8.5 46.333 25.5 61s39.5 22 67.5 22s50.333 -7.5 67 -22.5s25 -35.167 25 -60.5s-8.33301 -45.5 -25 -60.5s-39 -22.5 -67 -22.5zM5 948h175l-121 -176h-120zM129 578c-28 0 -50.5 7.33301 -67.5 22
s-25.5 35 -25.5 61s8.5 46.333 25.5 61s39.5 22 67.5 22s50.333 -7.5 67 -22.5s25 -35.167 25 -60.5s-8.33301 -45.5 -25 -60.5s-39 -22.5 -67 -22.5z" />
    <glyph glyph-name="uni0374" unicode="&#x374;" horiz-adv-x="325" 
d="M44 464l69 226c28.667 16 61.667 24 99 24c31.333 0 61.333 -8 90 -24l-134 -226h-124z" />
    <glyph glyph-name="uni0375" unicode="&#x375;" horiz-adv-x="325" 
d="M43 -226l69 226c28.667 16 61.667 24 99 24c31.333 0 61.333 -8 90 -24l-134 -226h-124z" />
    <glyph glyph-name="uni037E" unicode="&#x37e;" horiz-adv-x="312" 
d="M21 -165l58.999 353.002h53c42 0 72.167 -5.33301 90.5 -16s27.5 -28.334 27.5 -53.001c0 -8.66699 -1.66699 -18.834 -5 -30.501s-9.66602 -28.167 -18.999 -49.5l-88 -204h-118zM155.999 312.002c-32.667 0 -59.167 10 -79.5 30s-30.5 46 -30.5 78s10.167 58 30.5 78
s46.833 30 79.5 30s59.167 -10 79.5 -30s30.5 -46 30.5 -78s-10.167 -58 -30.5 -78s-46.833 -30 -79.5 -30z" />
    <glyph glyph-name="tonos" unicode="&#x384;" horiz-adv-x="630" 
d="M290 789h174l-112 -189h-138z" />
    <glyph glyph-name="dieresistonos" unicode="&#x385;" horiz-adv-x="630" 
d="M187 578c-28 0 -50.5 7.33301 -67.5 22s-25.5 35 -25.5 61s8.5 46.333 25.5 61s39.5 22 67.5 22s50.333 -7.5 67 -22.5s25 -35.167 25 -60.5s-8.33301 -45.5 -25 -60.5s-39 -22.5 -67 -22.5zM320 948h175l-121 -176h-120zM444 578c-28 0 -50.5 7.33301 -67.5 22
s-25.5 35 -25.5 61s8.5 46.333 25.5 61s39.5 22 67.5 22s50.333 -7.5 67 -22.5s25 -35.167 25 -60.5s-8.33301 -45.5 -25 -60.5s-39 -22.5 -67 -22.5z" />
    <glyph glyph-name="Alphatonos" unicode="&#x386;" horiz-adv-x="758" 
d="M545 0l-38 134h-212l-36 -134h-204l244 693h213l244 -693h-211zM331 270h140l-71 257zM3 504l76 189h176l-112 -189h-140z" />
    <glyph glyph-name="anoteleia" unicode="&#x387;" horiz-adv-x="312" 
d="M156 312c-32.667 0 -59.167 10 -79.5 30s-30.5 46 -30.5 78s10.167 58 30.5 78s46.833 30 79.5 30s59.167 -10 79.5 -30s30.5 -46 30.5 -78s-10.167 -58 -30.5 -78s-46.833 -30 -79.5 -30z" />
    <glyph glyph-name="Epsilontonos" unicode="&#x388;" horiz-adv-x="806" 
d="M287 0v693h483v-146h-295v-121h240v-146h-240v-134h297v-146h-485zM3 504l76 189h176l-112 -189h-140z" />
    <glyph glyph-name="Etatonos" unicode="&#x389;" horiz-adv-x="972" 
d="M705 0v277h-225v-277h-193v693h193v-266h225v266h193v-693h-193zM3 504l76 189h176l-112 -189h-140z" />
    <glyph glyph-name="Iotatonos" unicode="&#x38a;" horiz-adv-x="558" 
d="M287 0v693h193v-693h-193zM3 504l76 189h176l-112 -189h-140z" />
    <glyph glyph-name="Omicrontonos" unicode="&#x38c;" horiz-adv-x="960" 
d="M556 -17c-72.667 0 -135.333 15.168 -188 45.501s-92.667 72.833 -120 127.5s-41 118.667 -41 192c0 75.333 14.333 140.166 43 194.499s69.167 95.833 121.5 124.5s113.833 43 184.5 43c72.667 0 135.334 -15 188.001 -45s92.834 -72.333 120.501 -127
s41.5 -119 41.5 -193c0 -75.333 -14.333 -140.333 -43 -195s-69.334 -96.167 -122.001 -124.5s-114.334 -42.5 -185.001 -42.5zM556.001 136.001c50.667 0 88.833 17.667 114.5 53s38.5 87.333 38.5 156c0 70 -13 122.833 -39 158.5s-64 53.5 -114 53.5
s-87.833 -17.667 -113.5 -53s-38.5 -87.333 -38.5 -156c0 -69.333 12.833 -122 38.5 -158s63.5 -54 113.5 -54zM3 504.001l76 189h176l-112 -189h-140z" />
    <glyph glyph-name="Upsilontonos" unicode="&#x38e;" horiz-adv-x="937" 
d="M507 0v261l-232 432h211l123 -294l125 294h201l-235 -434v-259h-193zM3 504l76 189h176l-112 -189h-140z" />
    <glyph glyph-name="Omegatonos" unicode="&#x38f;" horiz-adv-x="950" 
d="M552 557c-46 0 -82.166 -16.335 -108.499 -49.002s-39.5 -79 -39.5 -139c0 -50.667 8.5 -94 25.5 -130s46.5 -69.667 88.5 -101v-138h-341v139h154c-40 28.667 -70.667 63.5 -92 104.5s-32 85.167 -32 132.5c0 66 15 124.5 45 175.5s71 90.167 123 117.5s111 41 177 41
c69.333 0 130.166 -14.667 182.499 -44s92.5 -69.166 120.5 -119.499s42 -107.166 42 -170.499c0 -47.333 -10.833 -91.5 -32.5 -132.5s-52.5 -75.833 -92.5 -104.5h155v-139h-341v138c42 31.333 71.5 65 88.5 101s25.5 79.333 25.5 130c0 60 -13.167 106.333 -39.5 139
s-62.5 49 -108.5 49zM3.00098 503.998l76 189h176l-112 -189h-140z" />
    <glyph glyph-name="iotadieresistonos" unicode="&#x390;" horiz-adv-x="364" 
d="M345 13c-34.667 -14.667 -72.333 -22 -113 -22c-112 0 -168 60 -168 180v344h188v-329c0 -19.333 3.83301 -33.333 11.5 -42s20.167 -13 37.5 -13c15.333 0 30 1.33301 44 4v-122zM30.001 578c-28 0 -50.5 7.33301 -67.5 22s-25.5 35 -25.5 61s8.5 46.333 25.5 61
s39.5 22 67.5 22s50.333 -7.5 67 -22.5s25 -35.167 25 -60.5s-8.33301 -45.5 -25 -60.5s-39 -22.5 -67 -22.5zM163.001 948h175l-121 -176h-120zM287.001 578c-28 0 -50.5 7.33301 -67.5 22s-25.5 35 -25.5 61s8.5 46.333 25.5 61s39.5 22 67.5 22s50.333 -7.5 67 -22.5
s25 -35.167 25 -60.5s-8.33301 -45.5 -25 -60.5s-39 -22.5 -67 -22.5z" />
    <glyph glyph-name="Alpha" unicode="&#x391;" horiz-adv-x="705" 
d="M492 0l-38 134h-212l-36 -134h-204l244 693h213l244 -693h-211zM278 270h140l-71 257z" />
    <glyph glyph-name="Beta" unicode="&#x392;" horiz-adv-x="651" 
d="M74 693h273.999c71.333 0 128.333 -16.833 171 -50.5s64 -78.5 64 -134.5c0 -31.333 -7.66699 -59 -23 -83s-37.666 -43 -66.999 -57c40.667 -14.667 71.5 -36.5 92.5 -65.5s31.5 -63.833 31.5 -104.5s-10.833 -76 -32.5 -106s-52 -52.833 -91 -68.5
s-84.167 -23.5 -135.5 -23.5h-284v693zM253.999 290v-158h93c28 0 48.667 6.16699 62 18.5s20 31.833 20 58.5c0 54 -30.333 81 -91 81h-84zM253.999 561l0.000976562 -146.001h68c50 0 75 23.667 75 71c0 24.667 -5.83301 43.334 -17.5 56.001s-28.834 19 -51.501 19h-74z
" />
    <glyph glyph-name="Gamma" unicode="&#x393;" horiz-adv-x="548" 
d="M74 0v693h465v-156h-272v-537h-193z" />
    <glyph glyph-name="uni0394" unicode="&#x394;" horiz-adv-x="695" 
d="M37 0v132l204 561h218l202 -561v-132h-624zM350 539l-116 -398h219z" />
    <glyph glyph-name="Epsilon" unicode="&#x395;" horiz-adv-x="593" 
d="M74 0v693h483v-146h-295v-121h240v-146h-240v-134h297v-146h-485z" />
    <glyph glyph-name="Zeta" unicode="&#x396;" horiz-adv-x="617" 
d="M34 0v134l328 413h-313v146h528v-134l-325 -413h331v-146h-549z" />
    <glyph glyph-name="Eta" unicode="&#x397;" horiz-adv-x="759" 
d="M492 0v277h-225v-277h-193v693h193v-266h225v266h193v-693h-193z" />
    <glyph glyph-name="Theta" unicode="&#x398;" horiz-adv-x="807" 
d="M328 276v146h151v-146h-151zM403 -17c-72.667 0 -135.333 15.168 -188 45.501s-92.667 72.833 -120 127.5s-41 118.667 -41 192c0 75.333 14.333 140.166 43 194.499s69.167 95.833 121.5 124.5s113.833 43 184.5 43c72.667 0 135.334 -15 188.001 -45
s92.834 -72.333 120.501 -127s41.5 -119 41.5 -193c0 -75.333 -14.333 -140.333 -43 -195s-69.334 -96.167 -122.001 -124.5s-114.334 -42.5 -185.001 -42.5zM403.001 136.001c105.333 0 158 69.667 158 209c0 140 -52.667 210.667 -158 212
c-104.667 0 -157 -69.667 -157 -209c0 -140 52.333 -210.667 157 -212z" />
    <glyph glyph-name="Iota" unicode="&#x399;" horiz-adv-x="349" 
d="M78 0v693h193v-693h-193z" />
    <glyph glyph-name="Kappa" unicode="&#x39a;" horiz-adv-x="722" 
d="M74 0v693h193v-286l224 286h215l-261 -319l284 -374h-224l-238 328v-328h-193z" />
    <glyph glyph-name="Lambda" unicode="&#x39b;" horiz-adv-x="694" 
d="M480 0l-138 495l-136 -495h-204l243 693h206l241 -693h-212z" />
    <glyph glyph-name="Mu" unicode="&#x39c;" horiz-adv-x="889" 
d="M649 0v428l-120 -270h-169l-120 270v-428h-166v693h205l168 -376l170 376h198v-693h-166z" />
    <glyph glyph-name="Nu" unicode="&#x39d;" horiz-adv-x="757" 
d="M240 434v-434h-166v693h200l243 -438v438h166v-693h-200z" />
    <glyph glyph-name="Xi" unicode="&#x39e;" horiz-adv-x="596" 
d="M32 0v150h532v-150h-532zM108 279v150h380v-150h-380zM44 543v150h508v-150h-508z" />
    <glyph glyph-name="Omicron" unicode="&#x39f;" horiz-adv-x="807" 
d="M403 -17c-72.667 0 -135.333 15.168 -188 45.501s-92.667 72.833 -120 127.5s-41 118.667 -41 192c0 75.333 14.333 140.166 43 194.499s69.167 95.833 121.5 124.5s113.833 43 184.5 43c72.667 0 135.334 -15 188.001 -45s92.834 -72.333 120.501 -127
s41.5 -119 41.5 -193c0 -75.333 -14.333 -140.333 -43 -195s-69.334 -96.167 -122.001 -124.5s-114.334 -42.5 -185.001 -42.5zM403.001 136.001c50.667 0 88.833 17.667 114.5 53s38.5 87.333 38.5 156c0 70 -13 122.833 -39 158.5s-64 53.5 -114 53.5
s-87.833 -17.667 -113.5 -53s-38.5 -87.333 -38.5 -156c0 -69.333 12.833 -122 38.5 -158s63.5 -54 113.5 -54z" />
    <glyph glyph-name="Pi" unicode="&#x3a0;" horiz-adv-x="744" 
d="M477 0v543h-210v-543h-193v693h596v-693h-193z" />
    <glyph glyph-name="Rho" unicode="&#x3a1;" horiz-adv-x="636" 
d="M260 225v-224.998h-186v693h284c79.333 0 142.166 -20.833 188.499 -62.5s69.5 -98.834 69.5 -171.501s-23.167 -129.834 -69.5 -171.501s-109.166 -62.5 -188.499 -62.5h-98zM260 365.002h70c30.667 0 54.334 8.33301 71.001 25s25 39.667 25 69s-8.33301 52.333 -25 69
s-40.334 25 -71.001 25h-70v-188z" />
    <glyph glyph-name="Sigma" unicode="&#x3a3;" horiz-adv-x="561" 
d="M24 0v132l180 222l-171 201v138h502v-146h-295l159 -191l-169 -210h313v-146h-519z" />
    <glyph glyph-name="Tau" unicode="&#x3a4;" horiz-adv-x="613" 
d="M210 0v542h-201v151h595v-151h-201v-542h-193z" />
    <glyph glyph-name="Upsilon" unicode="&#x3a5;" horiz-adv-x="664" 
d="M234 0v261l-232 432h211l123 -294l125 294h201l-235 -434v-259h-193z" />
    <glyph glyph-name="Phi" unicode="&#x3a6;" horiz-adv-x="896" 
d="M367 -30v85c-103.333 6 -182.666 34.167 -237.999 84.5s-83 119.5 -83 207.5s27.667 157.167 83 207.5s134.666 78.5 237.999 84.5v84h162v-84c103.333 -6 182.666 -34.167 237.999 -84.5s83 -119.5 83 -207.5s-27.667 -157.167 -83 -207.5
s-134.666 -78.5 -237.999 -84.5v-85h-162zM224 347c0 -50.667 12.167 -89.8301 36.5 -117.497s59.833 -42.834 106.5 -45.501v326c-46.667 -2.66699 -82.167 -17.834 -106.5 -45.501s-36.5 -66.834 -36.5 -117.501zM529 184.004
c46.667 2.66699 82.167 17.8301 106.5 45.4971s36.5 66.834 36.5 117.501s-12.167 89.834 -36.5 117.501s-59.833 42.834 -106.5 45.501v-326z" />
    <glyph glyph-name="Chi" unicode="&#x3a7;" horiz-adv-x="664" 
d="M447 0l-118 222l-116 -222h-211l221 357l-203 336h215l99 -195l99 195h211l-206 -334l224 -359h-215z" />
    <glyph glyph-name="Psi" unicode="&#x3a8;" horiz-adv-x="810" 
d="M313 0l0.00390625 165.001c-62.667 8 -113.834 23.167 -153.501 45.5s-69.167 53 -88.5 92s-29 88.167 -29 147.5v243h184v-274c0 -34.667 6.66699 -61 20 -79s35.666 -31 66.999 -39v392h184v-392c31.333 8 53.666 21 66.999 39s20 44.333 20 79v274h184v-243
c0 -58 -9.33301 -106.5 -28 -145.5s-47.834 -69.833 -87.501 -92.5s-91.5 -38.334 -155.5 -47.001v-165h-184z" />
    <glyph glyph-name="uni03A9" unicode="&#x3a9;" horiz-adv-x="796" 
d="M398 557c-46 0 -82.166 -16.335 -108.499 -49.002s-39.5 -79 -39.5 -139c0 -50.667 8.5 -94 25.5 -130s46.5 -69.667 88.5 -101v-138h-341v139h154c-40 28.667 -70.667 63.5 -92 104.5s-32 85.167 -32 132.5c0 66 15 124.5 45 175.5s71 90.167 123 117.5s111 41 177 41
c69.333 0 130.166 -14.667 182.499 -44s92.5 -69.166 120.5 -119.499s42 -107.166 42 -170.499c0 -47.333 -10.833 -91.5 -32.5 -132.5s-52.5 -75.833 -92.5 -104.5h155v-139h-341v138c42 31.333 71.5 65 88.5 101s25.5 79.333 25.5 130c0 60 -13.167 106.333 -39.5 139
s-62.5 49 -108.5 49z" />
    <glyph glyph-name="Iotadieresis" unicode="&#x3aa;" horiz-adv-x="349" 
d="M78 0v693h193v-693h-193zM49 756c-30 0 -54 8 -72 24s-27 37.667 -27 65s9 49 27 65s42 24 72 24s54 -8 72 -24s27 -37.667 27 -65s-9 -49 -27 -65s-42 -24 -72 -24zM299 756c-30 0 -54 8 -72 24s-27 37.667 -27 65s9 49 27 65s42 24 72 24s54 -8 72 -24
s27 -37.667 27 -65s-9 -49 -27 -65s-42 -24 -72 -24z" />
    <glyph glyph-name="Upsilondieresis" unicode="&#x3ab;" horiz-adv-x="664" 
d="M234 0v261l-232 432h211l123 -294l125 294h201l-235 -434v-259h-193zM212 756c-30 0 -54 8 -72 24s-27 37.667 -27 65s9 49 27 65s42 24 72 24s54 -8 72 -24s27 -37.667 27 -65s-9 -49 -27 -65s-42 -24 -72 -24zM462 756c-30 0 -54 8 -72 24s-27 37.667 -27 65
s9 49 27 65s42 24 72 24s54 -8 72 -24s27 -37.667 27 -65s-9 -49 -27 -65s-42 -24 -72 -24z" />
    <glyph glyph-name="alphatonos" unicode="&#x3ac;" horiz-adv-x="648" 
d="M645 11c-28 -13.333 -61.001 -20 -99.001 -20c-39.333 0 -69.666 8 -90.999 24s-36 41.667 -44 77c-35.333 -71.333 -88 -107 -158 -107c-43.333 0 -81.333 11.333 -114 34s-57.667 53.5 -75 92.5s-26 83.5 -26 133.5c0 56 9.83301 105.833 29.5 149.5
s46 77.167 79 100.5s70.167 35 111.5 35c30.667 0 58.667 -8.33301 84 -25s46.666 -40.667 63.999 -72c3.33301 30 8.33301 57.333 15 82h184l-9 -35c-28 -108 -42 -198.667 -42 -272c0 -20.667 1.83301 -37.167 5.5 -49.5s9.83398 -21.333 18.501 -27s22 -8.5 40 -8.5
c9.33301 0 18.333 0.666992 27 2v-114zM298.999 117c23.333 0 43.333 14 60 42s28 66.667 34 116c-9.33301 37.333 -22.666 67.166 -39.999 89.499s-36 33.5 -56 33.5c-20.667 0 -37.334 -12.667 -50.001 -38s-19 -59.333 -19 -102c0 -43.333 6.5 -77.666 19.5 -102.999
s30.167 -38 51.5 -38zM303.999 789h174l-112 -189h-138z" />
    <glyph glyph-name="epsilontonos" unicode="&#x3ad;" horiz-adv-x="491" 
d="M459 22c-21.333 -10.667 -49.167 -19.501 -83.5 -26.501s-68.833 -10.5 -103.5 -10.5c-70.667 0 -127 13.333 -169 40s-63 62.667 -63 108c0 32 10.167 59.167 30.5 81.5s49.5 38.166 87.5 47.499c-67.333 24 -101 66 -101 126c0 42.667 19.833 77 59.5 103
s91.834 39 156.501 39c62 0 119.333 -11.333 172 -34v-124c-18.667 6.66699 -41.834 12.334 -69.501 17.001s-52.834 7 -75.501 7c-23.333 0 -41.666 -3.5 -54.999 -10.5s-20 -16.833 -20 -29.5c0 -10.667 4.5 -19 13.5 -25s21.167 -9 36.5 -9h109v-126h-109
c-19.333 0 -34.666 -3.16699 -45.999 -9.5s-17 -15.166 -17 -26.499c0 -27.333 29.333 -41 88 -41c21.333 0 46.166 2.5 74.499 7.5s56.5 11.833 84.5 20.5v-125zM273.999 788.999h174l-112 -189h-138z" />
    <glyph glyph-name="etatonos" unicode="&#x3ae;" horiz-adv-x="652" 
d="M402 -206v544c0 20 -3.83301 34.667 -11.5 44s-20.5 14 -38.5 14c-24.667 0 -50.667 -8.33301 -78 -25v-371h-188v340c0 30 -15.333 45 -46 45c-8.66699 0 -19 -1.66699 -31 -5v119c31.333 14.667 67 22 107 22c64.667 0 110 -20.333 136 -61c32 24.667 63 42.5 93 53.5
s62.333 16.5 97 16.5c48 0 84.667 -13 110 -39s38 -63 38 -111v-586h-188zM341 789h174l-112 -189h-138z" />
    <glyph glyph-name="iotatonos" unicode="&#x3af;" horiz-adv-x="364" 
d="M345 13c-34.667 -14.667 -72.333 -22 -113 -22c-112 0 -168 60 -168 180v344h188v-329c0 -19.333 3.83301 -33.333 11.5 -42s20.167 -13 37.5 -13c15.333 0 30 1.33301 44 4v-122zM165.001 789h174l-112 -189h-138z" />
    <glyph glyph-name="upsilondieresistonos" unicode="&#x3b0;" horiz-adv-x="613" 
d="M309 -15c-73.333 0 -129.499 19.5 -168.499 58.5s-58.5 94.833 -58.5 167.5v129c0 14.667 -4 25.834 -12 33.501s-19.667 11.5 -35 11.5c-8 0 -18 -1.33301 -30 -4v118c31.333 14.667 67 22 107 22c105.333 0 158 -55.667 158 -167v-167c0 -22.667 4 -40 12 -52
s19 -18 33 -18c21.333 0 38 12 50 36s18 57.333 18 100c0 43.333 -4 85.666 -12 126.999s-20.667 86.333 -38 135h182c18.667 -36.667 33 -77.167 43 -121.5s15 -88.833 15 -133.5c0 -85.333 -23.333 -152.5 -70 -201.5s-111.334 -73.5 -194.001 -73.5zM147.001 578
c-28 0 -50.5 7.33301 -67.5 22s-25.5 35 -25.5 61s8.5 46.333 25.5 61s39.5 22 67.5 22s50.333 -7.5 67 -22.5s25 -35.167 25 -60.5s-8.33301 -45.5 -25 -60.5s-39 -22.5 -67 -22.5zM280.001 948h175l-121 -176h-120zM404.001 578c-28 0 -50.5 7.33301 -67.5 22
s-25.5 35 -25.5 61s8.5 46.333 25.5 61s39.5 22 67.5 22s50.333 -7.5 67 -22.5s25 -35.167 25 -60.5s-8.33301 -45.5 -25 -60.5s-39 -22.5 -67 -22.5z" />
    <glyph glyph-name="alpha" unicode="&#x3b1;" horiz-adv-x="648" 
d="M645 11c-28 -13.333 -61.001 -20 -99.001 -20c-39.333 0 -69.666 8 -90.999 24s-36 41.667 -44 77c-35.333 -71.333 -88 -107 -158 -107c-43.333 0 -81.333 11.333 -114 34s-57.667 53.5 -75 92.5s-26 83.5 -26 133.5c0 56 9.83301 105.833 29.5 149.5
s46 77.167 79 100.5s70.167 35 111.5 35c30.667 0 58.667 -8.33301 84 -25s46.666 -40.667 63.999 -72c3.33301 30 8.33301 57.333 15 82h184l-9 -35c-28 -108 -42 -198.667 -42 -272c0 -20.667 1.83301 -37.167 5.5 -49.5s9.83398 -21.333 18.501 -27s22 -8.5 40 -8.5
c9.33301 0 18.333 0.666992 27 2v-114zM298.999 117c23.333 0 43.333 14 60 42s28 66.667 34 116c-9.33301 37.333 -22.666 67.166 -39.999 89.499s-36 33.5 -56 33.5c-20.667 0 -37.334 -12.667 -50.001 -38s-19 -59.333 -19 -102c0 -43.333 6.5 -77.666 19.5 -102.999
s30.167 -38 51.5 -38z" />
    <glyph glyph-name="beta" unicode="&#x3b2;" horiz-adv-x="630" 
d="M66 -206l-0.000976562 711c0 50 11 94 33 132s52.167 67 90.5 87s82.5 30 132.5 30c68.667 0 123.834 -17.833 165.501 -53.5s62.5 -82.834 62.5 -141.501c0 -36 -10.5 -68.333 -31.5 -97s-49.5 -50.667 -85.5 -66c50 -12 88.667 -34.167 116 -66.5
s41 -72.166 41 -119.499c0 -43.333 -10 -81.833 -30 -115.5s-46.5 -59.667 -79.5 -78s-69.167 -27.5 -108.5 -27.5c-51.333 0 -95 13 -131 39v-234h-175zM240.999 136c21.333 -10 44.001 -15 68.001 -15c30.667 0 55.167 9.33301 73.5 28s27.5 43.334 27.5 74.001
c0 29.333 -9.33301 52.5 -28 69.5s-44.667 25.5 -78 25.5h-19v128h22c52.667 0 79 31 79 93c0 25.333 -6.33301 46.166 -19 62.499s-29.334 24.5 -50.001 24.5c-22 0 -40.167 -8.33301 -54.5 -25s-21.5 -37.667 -21.5 -63v-402z" />
    <glyph glyph-name="gamma" unicode="&#x3b3;" horiz-adv-x="572" 
d="M186 -206l-3 77.001c-2.66699 84 -17.5 173.5 -44.5 268.5s-73.167 220.167 -138.5 375.5h199c40.667 -116.667 73.667 -233 99 -349c18 52 32.5 105.5 43.5 160.5s19.167 117.833 24.5 188.5h196c-12.667 -81.333 -36.667 -167.833 -72 -259.5
s-80 -183.834 -134 -276.501c4 -26 7.66699 -62.667 11 -110l5 -75h-186z" />
    <glyph glyph-name="delta" unicode="&#x3b4;" horiz-adv-x="609" 
d="M305 -15c-52.667 0 -99.168 10.6719 -139.501 32.0049s-71.333 50 -93 86s-32.5 76 -32.5 120c0 51.333 13.167 96.666 39.5 135.999s63.833 69.333 112.5 90c-27.333 20.667 -47.166 42.167 -59.499 64.5s-18.5 48.833 -18.5 79.5c0 49.333 19.833 88.5 59.5 117.5
s93.834 43.5 162.501 43.5c31.333 0 61.5 -3.83301 90.5 -11.5s55.167 -18.834 78.5 -33.501v-120c-20.667 9.33301 -45.334 17.166 -74.001 23.499s-53 9.5 -73 9.5c-25.333 0 -43.5 -2.66699 -54.5 -8s-16.5 -14.333 -16.5 -27c0 -9.33301 5.66699 -19 17 -29
s34 -25.333 68 -46c70.667 -43.333 121 -85.833 151 -127.5s45 -89.834 45 -144.501c0 -78.667 -23.667 -140.834 -71 -186.501s-111.333 -68.5 -192 -68.5zM377.999 243.005c0 32 -6.66699 58.832 -20 80.499s-36 42.834 -68 63.501c-40 -32 -60 -80 -60 -144
c0 -84 25.333 -126 76 -126c48 0 72 42 72 126z" />
    <glyph glyph-name="epsilon" unicode="&#x3b5;" horiz-adv-x="491" 
d="M459 22c-21.333 -10.667 -49.167 -19.501 -83.5 -26.501s-68.833 -10.5 -103.5 -10.5c-70.667 0 -127 13.333 -169 40s-63 62.667 -63 108c0 32 10.167 59.167 30.5 81.5s49.5 38.166 87.5 47.499c-67.333 24 -101 66 -101 126c0 42.667 19.833 77 59.5 103
s91.834 39 156.501 39c62 0 119.333 -11.333 172 -34v-124c-18.667 6.66699 -41.834 12.334 -69.501 17.001s-52.834 7 -75.501 7c-23.333 0 -41.666 -3.5 -54.999 -10.5s-20 -16.833 -20 -29.5c0 -10.667 4.5 -19 13.5 -25s21.167 -9 36.5 -9h109v-126h-109
c-19.333 0 -34.666 -3.16699 -45.999 -9.5s-17 -15.166 -17 -26.499c0 -27.333 29.333 -41 88 -41c21.333 0 46.166 2.5 74.499 7.5s56.5 11.833 84.5 20.5v-125z" />
    <glyph glyph-name="zeta" unicode="&#x3b6;" horiz-adv-x="468" 
d="M293 -206c8.66699 27.333 14.835 49.5 18.502 66.5s5.5 32.833 5.5 47.5c0 22 -5.83301 38.833 -17.5 50.5s-33.834 22.5 -66.501 32.5l-39 12c-53.333 16.667 -93.333 43 -120 79s-40 80.333 -40 133c0 65.333 20 130.833 60 196.5s99.333 130.167 178 193.5h-224v135
h415v-135c-78 -66.667 -137.333 -130.667 -178 -192s-61 -117 -61 -167c0 -28 6.83301 -49.667 20.5 -65s39.167 -29 76.5 -41l31 -10c43.333 -14 75.666 -33.167 96.999 -57.5s32 -54.833 32 -91.5c0 -25.333 -4.66699 -54.833 -14 -88.5s-22 -66.5 -38 -98.5h-136z" />
    <glyph glyph-name="eta" unicode="&#x3b7;" horiz-adv-x="652" 
d="M402 -206v544c0 20 -3.83301 34.667 -11.5 44s-20.5 14 -38.5 14c-24.667 0 -50.667 -8.33301 -78 -25v-371h-188v340c0 30 -15.333 45 -46 45c-8.66699 0 -19 -1.66699 -31 -5v119c31.333 14.667 67 22 107 22c64.667 0 110 -20.333 136 -61c32 24.667 63 42.5 93 53.5
s62.333 16.5 97 16.5c48 0 84.667 -13 110 -39s38 -63 38 -111v-586h-188z" />
    <glyph glyph-name="theta" unicode="&#x3b8;" horiz-adv-x="640" 
d="M320 -15c-86 0 -153.833 34.334 -203.5 103.001s-74.5 162.667 -74.5 282c0 79.333 11.5 148 34.5 206s55.333 102.167 97 132.5s90.5 45.5 146.5 45.5c58 0 107.833 -15.833 149.5 -47.5s73.5 -76.334 95.5 -134.001s33 -125.167 33 -202.5
c0 -119.333 -24.833 -213.333 -74.5 -282s-117.5 -103 -203.5 -103zM320 622.001c-33.333 0 -58.168 -15.5 -74.501 -46.5s-24.833 -78.5 -25.5 -142.5h200c-0.666992 64 -9.16699 111.5 -25.5 142.5s-41.166 46.5 -74.499 46.5zM319.998 117.001
c31.333 0 55.668 16.333 73.001 49s26.333 79.667 27 141h-200c0.666992 -61.333 9.66699 -108.333 27 -141s41.666 -49 72.999 -49z" />
    <glyph glyph-name="iota" unicode="&#x3b9;" horiz-adv-x="364" 
d="M345 13c-34.667 -14.667 -72.333 -22 -113 -22c-112 0 -168 60 -168 180v344h188v-329c0 -19.333 3.83301 -33.333 11.5 -42s20.167 -13 37.5 -13c15.333 0 30 1.33301 44 4v-122z" />
    <glyph glyph-name="kappa" unicode="&#x3ba;" horiz-adv-x="633" 
d="M64 0v515h188v-174l158 174h213l-211 -216l225 -299h-207l-141 205l-37 -39v-166h-188z" />
    <glyph glyph-name="lambda" unicode="&#x3bb;" horiz-adv-x="561" 
d="M368 0l-82.002 304l-83 -304h-196l202 509c-12.667 38.667 -26.667 66.334 -42 83.001s-34.666 25 -57.999 25c-17.333 0 -34 -2.33301 -50 -7v123c34 14 70 21 108 21c32 0 59.333 -6.16699 82 -18.5s43.334 -32.833 62.001 -61.5s37 -68.334 55 -119.001l195 -555h-193
z" />
    <glyph glyph-name="uni03BC" unicode="&#x3bc;" horiz-adv-x="654" 
d="M64 515h188.002v-339c0 -21.333 4.66699 -36.5 14 -45.5s24.666 -13.5 45.999 -13.5c20.667 0 41.334 8.66699 62.001 26v372h188v-342c0 -18 3 -30.833 9 -38.5s16.333 -11.5 31 -11.5c12 0 25.333 1.66699 40 5v-121c-34.667 -14.667 -71.334 -22 -110.001 -22
c-34 0 -61.333 5.16699 -82 15.5s-37.334 26.5 -50.001 48.5c-36.667 -42.667 -76.334 -64 -119.001 -64c-13.333 0 -26.666 2 -39.999 6v-197h-177v721z" />
    <glyph glyph-name="nu" unicode="&#x3bd;" horiz-adv-x="556" 
d="M189 0l-189 515h199l84 -358c32 98 56.333 217.333 73 358h190c-10.667 -76.667 -33.167 -161.667 -67.5 -255s-74.833 -180 -121.5 -260h-168z" />
    <glyph glyph-name="xi" unicode="&#x3be;" horiz-adv-x="479" 
d="M224 234c0 -24 6.99902 -42.834 20.999 -56.501s39.333 -26.167 76 -37.5l32 -10c45.333 -14 78.833 -33.167 100.5 -57.5s32.5 -54.833 32.5 -91.5c0 -25.333 -4.66699 -54.833 -14 -88.5s-22 -66.5 -38 -98.5h-136c8.66699 27.333 14.834 49.5 18.501 66.5
s5.5 32.833 5.5 47.5c0 21.333 -6 37.833 -18 49.5s-35.333 22.834 -70 33.501l-40 12c-54.667 16 -95 40.667 -121 74s-39 77 -39 131c0 44 12 82.167 36 114.5s57 54.833 99 67.5c-37.333 14.667 -65.833 35.667 -85.5 63s-29.5 60 -29.5 98
c0 60.667 22.5 109.667 67.5 147s104.167 56 177.5 56c56 0 106.333 -8.33301 151 -25v-123c-37.333 10.667 -71.333 16 -102 16c-34.667 0 -61.5 -7.66699 -80.5 -23s-28.5 -37.333 -28.5 -66c0 -23.333 8.33301 -42.5 25 -57.5s37.667 -22.5 63 -22.5h77v-130h-78
c-32 0 -57 -7.83301 -75 -23.5s-27 -37.5 -27 -65.5z" />
    <glyph glyph-name="omicron" unicode="&#x3bf;" horiz-adv-x="606" 
d="M303 -15c-82.667 0 -147.5 24 -194.5 72s-70.5 115 -70.5 201c0 85.333 23.5 152 70.5 200s111.833 72 194.5 72s147.5 -24 194.5 -72s70.5 -114.667 70.5 -200c0 -86 -23.5 -153 -70.5 -201s-111.833 -72 -194.5 -72zM303 117c50 0 75 47 75 141
c0 93.333 -25 140 -75 140s-75 -46.667 -75 -140c0 -94 25 -141 75 -141z" />
    <glyph glyph-name="pi" unicode="&#x3c0;" horiz-adv-x="667" 
d="M649 13c-33.333 -14.667 -69 -22.001 -107 -22.001c-106.667 0 -160 58 -160 174v210h-102v-375h-182v375h-86v140h637v-140h-85v-190c0 -19.333 3.66699 -33.166 11 -41.499s19 -12.5 35 -12.5c6.66699 0 13.167 0.333008 19.5 1l19.5 2v-121z" />
    <glyph glyph-name="rho" unicode="&#x3c1;" horiz-adv-x="625" 
d="M58 -206l0.000976562 457.999c0 86.667 23.167 154.667 69.5 204s110.5 74 192.5 74s147 -24.333 195 -73s72 -114.667 72 -198c0 -53.333 -9.66699 -100.666 -29 -141.999s-45.5 -73 -78.5 -95s-69.833 -33 -110.5 -33c-22 0 -43.833 3.33301 -65.5 10
s-40.834 16 -57.501 28v-233h-188zM246.001 135.999c21.333 -10 43.333 -15 66 -15c30 0 51.667 10.667 65 32s20 56 20 104c0 50 -5.83301 86 -17.5 108s-30.5 33 -56.5 33c-26.667 0 -46.167 -12 -58.5 -36s-18.5 -60.667 -18.5 -110v-116z" />
    <glyph glyph-name="sigma1" unicode="&#x3c2;" horiz-adv-x="482" 
d="M38 254c0 86 23.8311 152.828 71.498 200.495s114.5 71.5 200.5 71.5c57.333 0 106.333 -11 147 -33v-119c-38.667 12 -75 18 -109 18c-41.333 0 -71.666 -10.333 -90.999 -31s-29 -53 -29 -97v-14c0 -23.333 2.16699 -42 6.5 -56s11.5 -24.667 21.5 -32
c7.33301 -5.33301 14.5 -9.66602 21.5 -12.999s16.167 -6.66602 27.5 -9.99902l30 -9c44.667 -13.333 78 -32.166 100 -56.499s33 -55.166 33 -92.499c0 -25.333 -4.66699 -54.666 -14 -87.999s-22 -66.333 -38 -99h-136c8.66699 27.333 14.834 49.5 18.501 66.5
s5.5 32.833 5.5 47.5c0 22 -5.83301 38.833 -17.5 50.5s-34.167 23.167 -67.5 34.5l-26 9c-17.333 6 -32 12.333 -44 19s-24.333 15.667 -37 27c-49.333 43.333 -74 112 -74 206z" />
    <glyph glyph-name="sigma" unicode="&#x3c3;" horiz-adv-x="625" 
d="M605 374l-114.999 0.000976562c23.333 -18 41.166 -40.333 53.499 -67s18.5 -56.334 18.5 -89.001c0 -47.333 -11.333 -88.666 -34 -123.999s-53.667 -62.333 -93 -81s-84 -28 -134 -28c-81.333 0 -145.5 23.667 -192.5 71s-70.5 111.666 -70.5 192.999
c0 82.667 27.5 147.667 82.5 195s130.833 71 227.5 71h257v-141zM372.001 246.001c0 24 -3.33301 47.833 -10 71.5s-15 42.5 -25 56.5h-14c-63.333 0 -95 -43 -95 -129c0 -85.333 24 -128 72 -128s72 43 72 129z" />
    <glyph glyph-name="tau" unicode="&#x3c4;" horiz-adv-x="490" 
d="M441 11c-45.333 -13.333 -87.667 -20 -127 -20c-62.667 0 -108.167 14 -136.5 42s-42.5 73 -42.5 135v207h-129v140h472v-140h-155v-194c0 -18 4.66699 -30.833 14 -38.5s25 -11.5 47 -11.5c18 0 37 1.66699 57 5v-125z" />
    <glyph glyph-name="upsilon" unicode="&#x3c5;" horiz-adv-x="613" 
d="M309 -15c-73.333 0 -129.499 19.5 -168.499 58.5s-58.5 94.833 -58.5 167.5v129c0 14.667 -4 25.834 -12 33.501s-19.667 11.5 -35 11.5c-8 0 -18 -1.33301 -30 -4v118c31.333 14.667 67 22 107 22c105.333 0 158 -55.667 158 -167v-167c0 -22.667 4 -40 12 -52
s19 -18 33 -18c21.333 0 38 12 50 36s18 57.333 18 100c0 43.333 -4 85.666 -12 126.999s-20.667 86.333 -38 135h182c18.667 -36.667 33 -77.167 43 -121.5s15 -88.833 15 -133.5c0 -85.333 -23.333 -152.5 -70 -201.5s-111.334 -73.5 -194.001 -73.5z" />
    <glyph glyph-name="phi" unicode="&#x3c6;" horiz-adv-x="792" 
d="M315 639h162.002v-109c51.333 -1.33301 98.666 -14.666 141.999 -39.999s76.666 -58 99.999 -98s35 -85 35 -135c0 -53.333 -12.667 -100.166 -38 -140.499s-59.333 -72 -102 -95s-88.334 -35.167 -137.001 -36.5v-191h-162v191c-52 1.33301 -99.667 14.5 -143 39.5
s-76.5 57.667 -99.5 98s-34.5 85.5 -34.5 135.5c0 52.667 12.667 99.167 38 139.5s59.333 72.166 102 95.499s88.334 35.666 137.001 36.999v109zM575.002 257c0 44.667 -9.33301 79.668 -28 105.001s-44 38.666 -76 39.999v-289c32.667 2 58.167 15.5 76.5 40.5
s27.5 59.5 27.5 103.5zM321.002 402.001c-32 -1.33301 -57.333 -14.667 -76 -40s-28 -60.333 -28 -105c0 -44 9.16699 -78.5 27.5 -103.5s43.833 -38.5 76.5 -40.5v289z" />
    <glyph glyph-name="chi" unicode="&#x3c7;" horiz-adv-x="558" 
d="M11 -206l184.008 370l-53 116c-20.667 45.333 -37.834 75.666 -51.501 90.999s-29.834 23 -48.501 23c-10.667 0 -23.334 -2 -38.001 -6v120c30 12 59.667 18 89 18c39.333 0 72.166 -12.167 98.499 -36.5s54.166 -69.166 83.499 -134.499l21 -46l91 206h170l-176 -354
l48 -106c17.333 -38.667 32.166 -68 44.499 -88s24.833 -34.333 37.5 -43s28 -13 46 -13c10 0 18.333 1 25 3v-124c-25.333 -7.33301 -51 -11 -77 -11c-30 0 -55.833 5.33301 -77.5 16s-42.334 29.667 -62.001 57s-42.834 70.333 -69.501 129l-16 34l-99 -221h-170z" />
    <glyph glyph-name="psi" unicode="&#x3c8;" horiz-adv-x="766" 
d="M302 -206l-0.00195312 191c-85.333 6.66699 -150.666 34.334 -195.999 83.001s-68 115.334 -68 200.001v247h178v-259c0 -48 6.66699 -82.667 20 -104s35.333 -34.333 66 -39v526h162v-526c30.667 4.66699 52.667 17.667 66 39s20 56 20 104v259h178v-247
c0 -84.667 -22.667 -151.334 -68 -200.001s-110.666 -76.334 -195.999 -83.001v-191h-162z" />
    <glyph glyph-name="omega" unicode="&#x3c9;" horiz-adv-x="783" 
d="M237 -10c-40.667 0 -76.168 10.002 -106.501 30.002s-53.666 47.333 -69.999 82s-24.5 74 -24.5 118c0 50.667 10.5 103 31.5 157s48.833 100 83.5 138h179c-35.333 -50 -61.5 -98.667 -78.5 -146s-25.5 -95 -25.5 -143c0 -30.667 3.66699 -54.334 11 -71.001
s17.666 -25 30.999 -25c12 0 21.333 5.5 28 16.5s10 26.5 10 46.5v153h171v-153c0 -20 3.33301 -35.5 10 -46.5s16 -16.5 28 -16.5c13.333 0 23.666 8.33301 30.999 25s11 40.334 11 71.001c0 48 -8.5 95.667 -25.5 143s-43.167 96 -78.5 146h179
c34.667 -38 62.5 -84 83.5 -138s31.5 -106.333 31.5 -157c0 -46.667 -8.66699 -87.334 -26 -122.001s-41.166 -61.334 -71.499 -80.001s-64.833 -28 -103.5 -28c-39.333 0 -72.666 10.167 -99.999 30.5s-45.333 48.5 -54 84.5c-8 -34.667 -26.167 -62.5 -54.5 -83.5
s-61.833 -31.5 -100.5 -31.5z" />
    <glyph glyph-name="iotadieresis" unicode="&#x3ca;" horiz-adv-x="364" 
d="M345 13c-34.667 -14.667 -72.333 -22 -113 -22c-112 0 -168 60 -168 180v344h188v-329c0 -19.333 3.83301 -33.333 11.5 -42s20.167 -13 37.5 -13c15.333 0 30 1.33301 44 4v-122zM33.001 578c-29.333 0 -52.833 7.83301 -70.5 23.5s-26.5 36.834 -26.5 63.501
s8.83301 47.834 26.5 63.501s41.167 23.5 70.5 23.5s52.833 -7.83301 70.5 -23.5s26.5 -36.834 26.5 -63.501s-8.83301 -47.834 -26.5 -63.501s-41.167 -23.5 -70.5 -23.5zM283.001 578c-29.333 0 -52.833 7.83301 -70.5 23.5s-26.5 36.834 -26.5 63.501
s8.83301 47.834 26.5 63.501s41.167 23.5 70.5 23.5s52.833 -7.83301 70.5 -23.5s26.5 -36.834 26.5 -63.501s-8.83301 -47.834 -26.5 -63.501s-41.167 -23.5 -70.5 -23.5z" />
    <glyph glyph-name="upsilondieresis" unicode="&#x3cb;" horiz-adv-x="613" 
d="M309 -15c-73.333 0 -129.499 19.5 -168.499 58.5s-58.5 94.833 -58.5 167.5v129c0 14.667 -4 25.834 -12 33.501s-19.667 11.5 -35 11.5c-8 0 -18 -1.33301 -30 -4v118c31.333 14.667 67 22 107 22c105.333 0 158 -55.667 158 -167v-167c0 -22.667 4 -40 12 -52
s19 -18 33 -18c21.333 0 38 12 50 36s18 57.333 18 100c0 43.333 -4 85.666 -12 126.999s-20.667 86.333 -38 135h182c18.667 -36.667 33 -77.167 43 -121.5s15 -88.833 15 -133.5c0 -85.333 -23.333 -152.5 -70 -201.5s-111.334 -73.5 -194.001 -73.5zM150.001 578
c-29.333 0 -52.833 7.83301 -70.5 23.5s-26.5 36.834 -26.5 63.501s8.83301 47.834 26.5 63.501s41.167 23.5 70.5 23.5s52.833 -7.83301 70.5 -23.5s26.5 -36.834 26.5 -63.501s-8.83301 -47.834 -26.5 -63.501s-41.167 -23.5 -70.5 -23.5zM400.001 578
c-29.333 0 -52.833 7.83301 -70.5 23.5s-26.5 36.834 -26.5 63.501s8.83301 47.834 26.5 63.501s41.167 23.5 70.5 23.5s52.833 -7.83301 70.5 -23.5s26.5 -36.834 26.5 -63.501s-8.83301 -47.834 -26.5 -63.501s-41.167 -23.5 -70.5 -23.5z" />
    <glyph glyph-name="omicrontonos" unicode="&#x3cc;" horiz-adv-x="606" 
d="M303 -15c-82.667 0 -147.5 24 -194.5 72s-70.5 115 -70.5 201c0 85.333 23.5 152 70.5 200s111.833 72 194.5 72s147.5 -24 194.5 -72s70.5 -114.667 70.5 -200c0 -86 -23.5 -153 -70.5 -201s-111.833 -72 -194.5 -72zM303 117c50 0 75 47 75 141
c0 93.333 -25 140 -75 140s-75 -46.667 -75 -140c0 -94 25 -141 75 -141zM310 789h174l-112 -189h-138z" />
    <glyph glyph-name="upsilontonos" unicode="&#x3cd;" horiz-adv-x="613" 
d="M309 -15c-73.333 0 -129.499 19.5 -168.499 58.5s-58.5 94.833 -58.5 167.5v129c0 14.667 -4 25.834 -12 33.501s-19.667 11.5 -35 11.5c-8 0 -18 -1.33301 -30 -4v118c31.333 14.667 67 22 107 22c105.333 0 158 -55.667 158 -167v-167c0 -22.667 4 -40 12 -52
s19 -18 33 -18c21.333 0 38 12 50 36s18 57.333 18 100c0 43.333 -4 85.666 -12 126.999s-20.667 86.333 -38 135h182c18.667 -36.667 33 -77.167 43 -121.5s15 -88.833 15 -133.5c0 -85.333 -23.333 -152.5 -70 -201.5s-111.334 -73.5 -194.001 -73.5zM282.001 789h174
l-112 -189h-138z" />
    <glyph glyph-name="omegatonos" unicode="&#x3ce;" horiz-adv-x="783" 
d="M237 -10c-40.667 0 -76.168 10.002 -106.501 30.002s-53.666 47.333 -69.999 82s-24.5 74 -24.5 118c0 50.667 10.5 103 31.5 157s48.833 100 83.5 138h179c-35.333 -50 -61.5 -98.667 -78.5 -146s-25.5 -95 -25.5 -143c0 -30.667 3.66699 -54.334 11 -71.001
s17.666 -25 30.999 -25c12 0 21.333 5.5 28 16.5s10 26.5 10 46.5v153h171v-153c0 -20 3.33301 -35.5 10 -46.5s16 -16.5 28 -16.5c13.333 0 23.666 8.33301 30.999 25s11 40.334 11 71.001c0 48 -8.5 95.667 -25.5 143s-43.167 96 -78.5 146h179
c34.667 -38 62.5 -84 83.5 -138s31.5 -106.333 31.5 -157c0 -46.667 -8.66699 -87.334 -26 -122.001s-41.166 -61.334 -71.499 -80.001s-64.833 -28 -103.5 -28c-39.333 0 -72.666 10.167 -99.999 30.5s-45.333 48.5 -54 84.5c-8 -34.667 -26.167 -62.5 -54.5 -83.5
s-61.833 -31.5 -100.5 -31.5zM397.999 789.002h174l-112 -189h-138z" />
    <glyph glyph-name="uni03D7" unicode="&#x3d7;" horiz-adv-x="632" 
d="M64 0l0.000976562 515.001h188v-174l158 174h213l-211 -216l38 -50c62.667 -82.667 116.667 -138.334 162 -167.001v-71c0 -74 -23.5 -130.667 -70.5 -170s-114.5 -59 -202.5 -59c-45.333 0 -88 5.33301 -128 16v127c26 -7.33301 61.667 -11 107 -11
c43.333 0 74.666 6.66699 93.999 20s30 35 32 65c-14 13.333 -29.667 30.833 -47 52.5s-33 43.167 -47 64.5l-61 89l-37 -39v-166h-188z" />
    <glyph glyph-name="uni0400" unicode="&#x400;" horiz-adv-x="593" 
d="M74 0v693h483v-146h-295v-121h240v-146h-240v-134h297v-146h-485zM239 769l-140 135h185l107 -135h-152z" />
    <glyph glyph-name="uni0401" unicode="&#x401;" horiz-adv-x="593" 
d="M74 0v693h483v-146h-295v-121h240v-146h-240v-134h297v-146h-485zM190 756c-30 0 -54 8 -72 24s-27 37.667 -27 65s9 49 27 65s42 24 72 24s54 -8 72 -24s27 -37.667 27 -65s-9 -49 -27 -65s-42 -24 -72 -24zM440 756c-30 0 -54 8 -72 24s-27 37.667 -27 65s9 49 27 65
s42 24 72 24s54 -8 72 -24s27 -37.667 27 -65s-9 -49 -27 -65s-42 -24 -72 -24z" />
    <glyph glyph-name="uni0402" unicode="&#x402;" horiz-adv-x="812" 
d="M475 281c-28 0 -57 -2.66602 -87 -7.99902v-273h-191v542h-188v151h600v-151h-221v-136c46 6.66699 90.667 10 134 10c80.667 0 143.5 -18.667 188.5 -56s67.5 -89.333 67.5 -156c0 -68.667 -21.667 -121.834 -65 -159.501s-104.333 -56.5 -183 -56.5
c-34 0 -63 4.66699 -87 14v122c18 -2.66699 36.667 -4 56 -4c57.333 0 86 25.667 86 77c0 56 -36.667 84 -110 84z" />
    <glyph glyph-name="uni0403" unicode="&#x403;" horiz-adv-x="548" 
d="M74 0v693h465v-156h-272v-537h-193zM233 769l107 135h185l-140 -135h-152z" />
    <glyph glyph-name="uni0404" unicode="&#x404;" horiz-adv-x="646" 
d="M610 19c-56.667 -21.333 -122.666 -31.999 -197.999 -31.999c-117.333 0 -206.333 30.167 -267 90.5s-91 149.166 -91 266.499c0 114 32 202.833 96 266.5s153 95.5 267 95.5c64 0 125.333 -10 184 -30v-142c-62.667 12.667 -115.667 19 -159 19
c-56.667 0 -100 -10.333 -130 -31s-48.333 -52.667 -55 -96h251v-146h-252c4 -48 20.5 -83.333 49.5 -106s72.167 -34 129.5 -34c49.333 0 107.666 7 174.999 21v-142z" />
    <glyph glyph-name="uni0405" unicode="&#x405;" horiz-adv-x="603" 
d="M221 280c-63.333 22 -109.004 49.668 -137.004 83.001s-42 77 -42 131c0 44 12 82.333 36 115s56.833 57.667 98.5 75s89.5 26 143.5 26c70 0 136.333 -12 199 -36v-140c-63.333 18 -124.333 27 -183 27c-68.667 0 -103 -18 -103 -54c0 -13.333 6 -24.666 18 -33.999
s34 -19.333 66 -30l60 -20c68.667 -22.667 117.5 -49.834 146.5 -81.501s43.5 -73.834 43.5 -126.501c0 -73.333 -26.167 -130.333 -78.5 -171s-125.833 -61 -220.5 -61c-40.667 0 -80 3.5 -118 10.5s-70.333 16.5 -97 28.5v142
c32.667 -8.66699 68.834 -15.834 108.501 -21.501s75.834 -8.5 108.501 -8.5c34.667 0 60.334 4.5 77.001 13.5s25 23.167 25 42.5c0 10.667 -2.16699 19.334 -6.5 26.001s-12.666 13.167 -24.999 19.5s-32.833 14.5 -61.5 24.5z" />
    <glyph glyph-name="uni0406" unicode="&#x406;" horiz-adv-x="349" 
d="M78 0v693h193v-693h-193z" />
    <glyph glyph-name="uni0407" unicode="&#x407;" horiz-adv-x="349" 
d="M78 0v693h193v-693h-193zM49 756c-30 0 -54 8 -72 24s-27 37.667 -27 65s9 49 27 65s42 24 72 24s54 -8 72 -24s27 -37.667 27 -65s-9 -49 -27 -65s-42 -24 -72 -24zM299 756c-30 0 -54 8 -72 24s-27 37.667 -27 65s9 49 27 65s42 24 72 24s54 -8 72 -24
s27 -37.667 27 -65s-9 -49 -27 -65s-42 -24 -72 -24z" />
    <glyph glyph-name="uni0408" unicode="&#x408;" horiz-adv-x="471" 
d="M16 150c34 -8 67.002 -12 99.002 -12c33.333 0 57.166 7.83301 71.499 23.5s21.5 42.5 21.5 80.5v451h193v-450c0 -87.333 -20.833 -152.5 -62.5 -195.5s-104.5 -64.5 -188.5 -64.5c-48.667 0 -93.334 8 -134.001 24v143z" />
    <glyph glyph-name="uni0409" unicode="&#x409;" horiz-adv-x="1022" 
d="M660 443l75 0.000976562c81.333 0 144.166 -19.333 188.499 -58s66.5 -93 66.5 -163c0 -70.667 -22.167 -125.334 -66.5 -164.001s-107.166 -58 -188.499 -58h-268v543h-84c-12 -108 -24.833 -196.833 -38.5 -266.5s-30.667 -126.167 -51 -169.5
s-46.5 -74.833 -78.5 -94.5s-74 -29.5 -126 -29.5c-30.667 0 -57.667 3 -81 9v143c10.667 -1.33301 20 -2 28 -2c33.333 0 60.333 11.667 81 35s38 65.5 52 126.5s27.333 154.5 40 280.5l12 118h439v-250zM660 309.001v-175h50c32 0 55.333 7.16699 70 21.5s22 36.5 22 66.5
s-7.5 52 -22.5 66s-38.167 21 -69.5 21h-50z" />
    <glyph glyph-name="uni040A" unicode="&#x40a;" horiz-adv-x="1031" 
d="M476 693l193 0.000976562v-250h75c81.333 0 144.166 -19.333 188.499 -58s66.5 -93 66.5 -163c0 -70.667 -22.167 -125.334 -66.5 -164.001s-107.166 -58 -188.499 -58h-268v277h-209v-277h-193v693h193v-266h209v266zM669 309.001v-175h50c32 0 55.333 7.16699 70 21.5
s22 36.5 22 66.5s-7.5 52 -22.5 66s-38.167 21 -69.5 21h-50z" />
    <glyph glyph-name="uni040B" unicode="&#x40b;" horiz-adv-x="830" 
d="M587 0l0.000976562 193c0 31.333 -8 53.833 -24 67.5s-42.333 20.5 -79 20.5c-32 0 -63.333 -2.66699 -94 -8v-273h-193v542h-188v151h600v-151h-219v-136c51.333 8 101.333 12 150 12c79.333 0 139.166 -15.833 179.499 -47.5s60.5 -78.5 60.5 -140.5v-230h-193z" />
    <glyph glyph-name="uni040C" unicode="&#x40c;" horiz-adv-x="722" 
d="M74 0v693h193v-299l224 299h215l-253 -319l276 -374h-224l-238 342v-342h-193zM280 769l107 135h185l-140 -135h-152z" />
    <glyph glyph-name="uni040D" unicode="&#x40d;" horiz-adv-x="754" 
d="M74 693h187v-418l229 418h190v-693h-187v417l-229 -417h-190v693zM301 769l-140 135h185l107 -135h-152z" />
    <glyph glyph-name="uni040E" unicode="&#x40e;" horiz-adv-x="692" 
d="M130 139c16 -1.33301 32.332 -2.00098 48.999 -2.00098c30 0 53 3.5 69 10.5s29.333 18.5 40 34.5l-271 511h211l144 -331l115 331h205l-243 -534c-19.333 -42.667 -39.666 -76.667 -60.999 -102s-46.5 -43.666 -75.5 -54.999s-67.5 -17 -115.5 -17
c-22.667 0 -45 2.33301 -67 7v147zM356.999 759.999c-57.333 0 -102.335 13.167 -135.002 39.5s-49 62.166 -49 107.499c0 10 1.66699 21 5 33h111l2 -23c2 -19.333 8.33301 -33.5 19 -42.5s26.334 -13.5 47.001 -13.5s36.334 4.5 47.001 13.5s17 23.167 19 42.5l2 23h111
c3.33301 -12 5 -23 5 -33c0 -45.333 -16.333 -81.166 -49 -107.499s-77.667 -39.5 -135 -39.5z" />
    <glyph glyph-name="uni040F" unicode="&#x40f;" horiz-adv-x="731" 
d="M278 -176v176h-204v693h193v-543h197v543h193v-693h-204v-176h-175z" />
    <glyph glyph-name="uni0410" unicode="&#x410;" horiz-adv-x="705" 
d="M492 0l-38 134h-212l-36 -134h-204l244 693h213l244 -693h-211zM278 270h140l-71 257z" />
    <glyph glyph-name="uni0411" unicode="&#x411;" horiz-adv-x="640" 
d="M74 693h494v-142h-308v-128h93c84 0 147.5 -18 190.5 -54s64.5 -88.667 64.5 -158s-21.5 -121.833 -64.5 -157.5s-106.5 -53.5 -190.5 -53.5h-279v693zM260 289v-155h77c28.667 0 49.667 6.33301 63 19s20 32 20 58c0 52 -27.667 78 -83 78h-77z" />
    <glyph glyph-name="uni0412" unicode="&#x412;" horiz-adv-x="651" 
d="M74 693h273.999c71.333 0 128.333 -16.833 171 -50.5s64 -78.5 64 -134.5c0 -31.333 -7.66699 -59 -23 -83s-37.666 -43 -66.999 -57c40.667 -14.667 71.5 -36.5 92.5 -65.5s31.5 -63.833 31.5 -104.5s-10.833 -76 -32.5 -106s-52 -52.833 -91 -68.5
s-84.167 -23.5 -135.5 -23.5h-284v693zM253.999 290v-158h93c28 0 48.667 6.16699 62 18.5s20 31.833 20 58.5c0 54 -30.333 81 -91 81h-84zM253.999 561l0.000976562 -146.001h68c50 0 75 23.667 75 71c0 24.667 -5.83301 43.334 -17.5 56.001s-28.834 19 -51.501 19h-74z
" />
    <glyph glyph-name="uni0413" unicode="&#x413;" horiz-adv-x="548" 
d="M74 0v693h465v-156h-272v-537h-193z" />
    <glyph glyph-name="uni0414" unicode="&#x414;" horiz-adv-x="786" 
d="M16 146l63 -0.00195312c39.333 42.667 70 97.334 92 164.001s38.333 154.334 49 263.001l12 120h439v-547h105v-322h-175v176h-410v-176h-175v322zM483 542.998h-94c-10 -105.333 -24.833 -189.5 -44.5 -252.5s-45.5 -111.167 -77.5 -144.5h216v397z" />
    <glyph glyph-name="uni0415" unicode="&#x415;" horiz-adv-x="593" 
d="M74 0v693h483v-146h-295v-121h240v-146h-240v-134h297v-146h-485z" />
    <glyph glyph-name="uni0416" unicode="&#x416;" horiz-adv-x="1013" 
d="M4 0l235 367l-227 326h206l196 -310v310h185v-310l196 310h206l-227 -326l235 -367h-215l-195 340v-340h-185v340l-195 -340h-215z" />
    <glyph glyph-name="uni0417" unicode="&#x417;" horiz-adv-x="587" 
d="M229 -12c-68 0 -133 12.001 -195 36.001v144c75.333 -20 139.666 -30 192.999 -30c88.667 0 133 25.333 133 76c0 22.667 -10.167 39.334 -30.5 50.001s-52.166 16 -95.499 16h-107v146h94c41.333 0 71.833 5.16699 91.5 15.5s29.5 26.166 29.5 47.499
c0 22.667 -10.667 39.5 -32 50.5s-55 16.5 -101 16.5c-24.667 0 -52.667 -2.66699 -84 -8s-57.333 -12 -78 -20v143c24.667 10 55.5 18.333 92.5 25s71.833 10 104.5 10c88.667 0 158.167 -17 208.5 -51s75.5 -80.667 75.5 -140c0 -33.333 -9.83301 -62.833 -29.5 -88.5
s-48.167 -45.834 -85.5 -60.501c44 -13.333 77.667 -34 101 -62s35 -62 35 -102c0 -66 -28.833 -118.167 -86.5 -156.5s-135.5 -57.5 -233.5 -57.5z" />
    <glyph glyph-name="uni0418" unicode="&#x418;" horiz-adv-x="754" 
d="M74 693h187v-418l229 418h190v-693h-187v417l-229 -417h-190v693z" />
    <glyph glyph-name="uni0419" unicode="&#x419;" horiz-adv-x="754" 
d="M74 693h187v-418l229 418h190v-693h-187v417l-229 -417h-190v693zM377 760c-57.333 0 -102.335 13.167 -135.002 39.5s-49 62.166 -49 107.499c0 10 1.66699 21 5 33h111l2 -23c2 -19.333 8.33301 -33.5 19 -42.5s26.334 -13.5 47.001 -13.5s36.334 4.5 47.001 13.5
s17 23.167 19 42.5l2 23h111c3.33301 -12 5 -23 5 -33c0 -45.333 -16.333 -81.166 -49 -107.499s-77.667 -39.5 -135 -39.5z" />
    <glyph glyph-name="uni041A" unicode="&#x41a;" horiz-adv-x="722" 
d="M74 0v693h193v-299l224 299h215l-253 -319l276 -374h-224l-238 342v-342h-193z" />
    <glyph glyph-name="uni041B" unicode="&#x41b;" horiz-adv-x="740" 
d="M473 0v543h-90c-12 -108 -24.833 -196.833 -38.5 -266.5s-30.667 -126.167 -51 -169.5s-46.5 -74.833 -78.5 -94.5s-74 -29.5 -126 -29.5c-30.667 0 -57.667 3 -81 9v143c10.667 -1.33301 20 -2 28 -2c33.333 0 60.333 11.667 81 35s38 65.5 52 126.5
s27.333 154.5 40 280.5l12 118h445v-693h-193z" />
    <glyph glyph-name="uni041C" unicode="&#x41c;" horiz-adv-x="889" 
d="M649 0v428l-120 -270h-169l-120 270v-428h-166v693h205l168 -376l170 376h198v-693h-166z" />
    </font>
</defs>
</svg>
