<?xml version="1.0" standalone="no"?>
<!DOCTYPE svg PUBLIC "-//W3C//DTD SVG 20010904//EN"
 "http://www.w3.org/TR/2001/REC-SVG-20010904/DTD/svg10.dtd">
<svg version="1.0" xmlns="http://www.w3.org/2000/svg"
 width="565.000000pt" height="565.000000pt" viewBox="0 0 565.000000 565.000000"
 preserveAspectRatio="xMidYMid meet">
<metadata>
Created by potrace 1.14, written by Peter Selinger 2001-2017
</metadata>
<g transform="translate(0.000000,565.000000) scale(0.100000,-0.100000)"
fill="#000000" stroke="none">
<path d="M0 2825 l0 -2825 2825 0 2825 0 0 2825 0 2825 -2825 0 -2825 0 0
-2825z m2390 1285 c503 -491 816 -798 1100 -1077 107 -105 196 -190 198 -188
2 2 -9 108 -23 237 l-27 233 -285 286 c-157 158 -286 290 -286 294 0 4 184
187 408 405 l409 398 92 -86 c155 -142 163 -201 45 -317 -28 -27 -51 -52 -51
-55 0 -3 69 -72 153 -152 l154 -146 414 -47 c228 -25 428 -50 446 -56 41 -13
90 -69 98 -112 4 -20 -2 -68 -14 -121 -92 -387 -313 -714 -642 -948 -100 -72
-290 -171 -401 -209 l-66 -23 276 -271 c153 -148 397 -387 544 -530 l267 -260
-92 -88 c-51 -48 -102 -95 -115 -104 -28 -20 -115 -20 -144 0 -13 8 -470 452
-1015 986 -546 534 -995 971 -998 971 -2 0 -457 -443 -1010 -984 -835 -816
-1012 -985 -1045 -995 -69 -20 -107 -2 -215 101 -53 50 -95 96 -93 102 2 9
410 411 1036 1021 l54 52 -79 27 c-233 83 -423 204 -608 390 -186 186 -302
369 -384 600 -85 241 -81 345 15 391 23 11 173 32 461 65 l427 49 150 151 151
150 -57 57 c-66 67 -82 101 -72 157 5 33 24 57 107 143 l100 103 86 -82 c47
-46 286 -279 531 -518z m136 -1880 l61 -315 48 200 c26 110 60 252 75 315 l27
115 87 3 c47 1 86 0 86 -4 0 -6 137 -594 144 -619 1 -5 26 112 55 260 29 149
57 291 63 318 l10 47 99 0 c98 0 99 0 94 -22 -3 -13 -48 -212 -100 -443 -53
-231 -98 -428 -101 -437 -5 -16 -19 -18 -104 -18 l-99 0 -9 33 c-5 17 -37 148
-73 289 -35 141 -66 255 -69 252 -3 -3 -37 -132 -76 -287 l-70 -282 -101 -3
-101 -3 -17 73 c-76 331 -185 824 -185 835 0 11 20 13 97 11 l98 -3 61 -315z
m1548 -709 c92 -45 153 -131 155 -218 l1 -33 -100 0 c-94 0 -100 1 -100 20 0
66 -62 113 -150 113 -90 0 -140 -36 -140 -102 0 -53 39 -80 180 -126 212 -69
296 -144 307 -274 8 -85 -11 -138 -67 -193 -64 -61 -145 -88 -270 -88 -187 0
-323 77 -368 209 -7 19 -12 46 -12 61 0 27 0 27 90 34 49 4 94 5 98 2 5 -3 12
-23 15 -44 13 -77 105 -123 215 -106 62 9 102 48 102 99 0 49 -37 85 -115 114
-240 87 -295 118 -346 198 -25 40 -29 57 -29 113 0 118 64 198 193 240 49 16
84 19 167 17 97 -2 111 -5 174 -36z m-2299 -261 l180 -290 3 290 2 290 100 0
100 0 0 -460 0 -460 -100 0 c-93 0 -100 1 -111 23 -7 12 -31 51 -54 87 -23 36
-99 157 -169 269 l-126 204 0 -292 0 -291 -107 0 -106 0 6 142 c4 79 7 286 7
461 l0 317 98 0 97 0 180 -290z"/>
<path d="M2175 3473 l-149 -146 -28 -226 c-15 -124 -27 -237 -27 -249 -1 -19
64 40 295 265 l296 288 -112 108 c-61 59 -114 107 -118 107 -4 -1 -74 -67
-157 -147z"/>
</g>
</svg>
