<svg width="100" height="60" viewBox="0 0 100 60" fill="none" xmlns="http://www.w3.org/2000/svg">
<path d="M96 0H4C1.79086 0 0 1.79086 0 4V56C0 58.2091 1.79086 60 4 60H96C98.2091 60 100 58.2091 100 56V4C100 1.79086 98.2091 0 96 0Z" fill="#763786"/>
<path d="M33.1447 29.7156L25.075 33.8844L17 29.7156L25.075 18L33.1447 29.7156ZM25.075 35.223L17 31.0543L25.075 41L33.15 31.0543L25.075 35.223V35.223Z" fill="white"/>
<path d="M48.8316 30.5771H44.1295L43.5934 33.627H49.1568L48.7437 36H40.1744L42.3893 23.2031H50.9762L50.5631 25.585H44.9908L44.5162 28.2832H49.2271L48.8316 30.5771ZM65.3779 25.585H61.6514L59.8496 36H56.835L58.6455 25.585H54.9805L55.4023 23.2031H65.791L65.3779 25.585ZM78.892 36H75.9037L76.8266 30.6562H72.4408L71.5092 36H68.5033L70.7182 23.2031H73.7328L72.8451 28.2832H77.2396L78.1186 23.2031H81.1156L78.892 36Z" fill="white"/>
</svg>
