<svg width="531" height="466" viewBox="0 0 531 466" fill="none" xmlns="http://www.w3.org/2000/svg">
<path d="M11.7077 346.259L45.8566 379.659C51.701 385.376 61.1838 385.367 67.0335 379.645L388.3 65.4162C394.153 59.692 394.159 50.4197 388.315 44.7033L354.166 11.3025C348.322 5.58615 338.842 5.59256 332.989 11.3169L11.7224 325.546C5.87264 331.267 5.86332 340.542 11.7077 346.259Z" fill="#784132"/>
<path d="M354.166 11.3026L371.184 27.9477L28.7257 362.904L11.7077 346.259C5.86333 340.542 5.87264 331.267 11.7224 325.546L332.989 11.3169C338.842 5.5926 348.322 5.58618 354.166 11.3026Z" fill="#4C2C21"/>
<path d="M226.043 104.264C231.887 109.98 231.878 119.255 226.028 124.977L184.826 165.276L175.159 246.654C174.762 249.958 173.241 253.009 170.865 255.333C170.344 255.843 169.781 256.313 169.185 256.75C165.852 259.164 161.646 260.118 157.572 259.393C124.65 253.506 94.7453 238.167 71.0921 215.032C47.4389 191.897 31.7562 162.648 25.7403 130.45C24.9958 126.461 25.9749 122.351 28.4423 119.091C30.9152 115.831 34.6475 113.717 38.7646 113.248L121.962 103.79L163.164 63.4901C169.014 57.7685 178.497 57.7594 184.341 63.4758L226.043 104.264Z" fill="#DCE1EB"/>
<path d="M163.164 63.4901L123.336 102.446L186.2 163.932L226.028 124.977C231.878 119.255 231.887 109.98 226.043 104.264L184.341 63.4758C178.497 57.7594 169.014 57.7685 163.164 63.4901Z" fill="#BEC3D2"/>
<path d="M519.475 345.101L485.279 378.548C479.427 384.273 469.944 384.276 464.102 378.563L143.28 64.7685C137.435 59.0521 137.442 49.7798 143.294 44.0556L177.491 10.6085C183.343 4.88424 192.823 4.87783 198.667 10.5942L519.49 324.388C525.332 330.102 525.328 339.377 519.475 345.101Z" fill="#784132"/>
<path d="M177.491 10.6086L160.449 27.2767L502.434 361.77L519.475 345.101C525.328 339.377 525.332 330.102 519.49 324.388L198.667 10.5942C192.823 4.87786 183.343 4.88427 177.491 10.6086Z" fill="#4C2C21"/>
<path d="M305.481 105.024C299.629 110.748 299.625 120.023 305.467 125.737L346.612 165.98L356.164 247.345C356.556 250.649 358.073 253.698 360.445 256.018C360.966 256.528 361.528 256.997 362.124 257.433C365.453 259.842 369.657 260.791 373.733 260.06C406.663 254.129 436.589 238.749 460.275 215.582C483.961 192.415 499.685 163.145 505.747 130.939C506.497 126.949 505.524 122.84 503.061 119.583C500.593 116.327 496.863 114.218 492.747 113.754L409.563 104.409L368.417 64.1648C362.576 58.4511 353.093 58.4548 347.241 64.1791L305.481 105.024Z" fill="#DCE1EB"/>
<path d="M368.418 64.1648L408.19 103.066L345.249 164.629L305.476 125.727C299.634 120.014 299.637 110.739 305.489 105.016L347.242 64.1776C353.094 58.4541 362.576 58.4511 368.418 64.1648Z" fill="#BEC3D2"/>
<rect width="99.643" height="38.5441" transform="matrix(0.714894 -0.699233 0.714894 0.699233 288.361 109.064)" fill="#784132"/>
<rect width="16.964" height="6.21052" transform="matrix(0.139725 0.979375 -1.00112 0.137968 350.91 152.313)" fill="#DCE1EB"/>
<rect width="35.3267" height="48.1982" transform="matrix(0.714894 0.699233 -0.714894 0.699233 355.717 104.941)" fill="#BEC3D2"/>
<path d="M288.318 308.816L300.943 243.778L320.131 243.765L299.338 335.172L279.957 335.185L264.79 274.057L249.537 335.205L230.156 335.218L209.492 243.84L228.681 243.827L241.278 308.722L256.726 243.808L273.026 243.797L288.318 308.816Z" fill="#DCE1EB" fill-opacity="0.9"/>
<path d="M198.515 435.029L179.263 435.042L141.827 374.934L141.784 435.067L122.531 435.08L122.596 343.688L141.849 343.675L179.349 403.908L179.391 343.649L198.58 343.636L198.515 435.029Z" fill="#DCE1EB" fill-opacity="0.9"/>
<path d="M386.019 410.924C386.022 407.367 384.74 404.648 382.174 402.767C379.609 400.844 374.989 398.838 368.317 396.75C361.644 394.621 356.362 392.532 352.47 390.484C341.863 384.884 336.563 377.334 336.57 367.835C336.574 362.897 337.989 358.502 340.815 354.65C343.684 350.757 347.772 347.72 353.079 345.54C358.429 343.361 364.419 342.269 371.051 342.264C377.725 342.26 383.671 343.448 388.889 345.83C394.107 348.17 398.148 351.494 401.011 355.802C403.917 360.111 405.368 365.006 405.365 370.487L386.112 370.5C386.115 366.316 384.769 363.074 382.076 360.774C379.382 358.432 375.596 357.263 370.719 357.266C366.013 357.27 362.354 358.256 359.743 360.224C357.132 362.151 355.825 364.704 355.823 367.885C355.821 370.856 357.338 373.345 360.374 375.351C363.453 377.358 367.965 379.238 373.911 380.991C384.861 384.206 392.838 388.197 397.84 392.964C402.842 397.731 405.341 403.672 405.336 410.786C405.33 418.695 402.267 424.911 396.146 429.434C390.025 433.916 381.787 436.16 371.433 436.167C364.246 436.172 357.701 434.9 351.798 432.352C345.896 429.761 341.385 426.228 338.265 421.753C335.188 417.277 333.651 412.089 333.655 406.189L352.972 406.176C352.965 416.261 359.122 421.299 371.444 421.291C376.022 421.288 379.595 420.386 382.163 418.585C384.731 416.742 386.017 414.188 386.019 410.924Z" fill="#DCE1EB" fill-opacity="0.9"/>
</svg>
