<?xml version="1.0" standalone="no"?>
<!DOCTYPE svg PUBLIC "-//W3C//DTD SVG 1.1//EN" "http://www.w3.org/Graphics/SVG/1.1/DTD/svg11.dtd" >
<svg>
<metadata>
Created by FontForge 20090914 at Tue Jul 27 09:58:24 2021
 By www-data
Copyright 2015 Dalton Maag Ltd. Modification of this file requires prior written permission from Dalton Maag Ltd.
</metadata>
<defs>
<font id="AmazonEmber-BoldItalic" horiz-adv-x="586" >
  <font-face 
    font-family="Amazon Ember"
    font-weight="700"
    font-style="italic"
    font-stretch="normal"
    units-per-em="1000"
    panose-1="2 11 7 3 2 2 4 9 2 4"
    ascent="800"
    descent="-200"
    x-height="510.999"
    cap-height="693"
    bbox="-302 -289.001 1304 978.999"
    underline-thickness="80"
    underline-position="-69"
    slope="-11.02"
    unicode-range="U+0008-U+FFFD"
  />
<missing-glyph horiz-adv-x="500" 
d="M50 0v750h400v-750h-400zM400 700h-300v-650h300v650z" />
    <glyph glyph-name="ff" unicode="ff" horiz-adv-x="720" 
d="M396 0l78.002 403h-209l-79 -403h-142l78 403h-77l17 90l81 15l9 46c13.333 67.333 38.166 117.5 74.499 150.5s85.5 49.5 147.5 49.5c15.333 0 31.333 -1.83301 48 -5.5s30.667 -8.5 42 -14.5l-19 -99c-22 4 -40.667 6 -56 6c-30 0 -51.5 -5 -64.5 -15
s-21.833 -27.667 -26.5 -53l-12 -62h209l9 43c14.667 68.667 40 119.167 76 151.5s84.667 48.5 146 48.5c17.333 0 35.166 -1.83301 53.499 -5.5s33.833 -8.5 46.5 -14.5l-19 -99c-26 4 -48 6 -66 6c-30 0 -51.5 -5 -64.5 -15s-21.833 -27.667 -26.5 -53l-12 -62h143
l-21 -108h-143l-79 -403h-142z" />
    <glyph glyph-name="fi" unicode="fi" horiz-adv-x="661" 
d="M396 0l78.001 403h-209l-79 -403h-142l78 403h-77l17 90l81 15l9 46c13.333 67.333 38.166 117.5 74.499 150.5s85.5 49.5 147.5 49.5c15.333 0 31.333 -1.83301 48 -5.5s30.667 -8.5 42 -14.5l-19 -99c-22 4 -40.667 6 -56 6c-30 0 -51.5 -5 -64.5 -15
s-21.833 -27.667 -26.5 -53l-12 -62h351l-99 -511h-142zM683.001 689c0 -25.333 -9.33301 -46.833 -28 -64.5s-41.334 -26.5 -68.001 -26.5c-24 0 -42.5 5.5 -55.5 16.5s-19.5 27.167 -19.5 48.5c0 25.333 9.33301 46.833 28 64.5s41.334 26.5 68.001 26.5
c24 0 42.5 -5.5 55.5 -16.5s19.5 -27.167 19.5 -48.5z" />
    <glyph glyph-name="fl" unicode="fl" horiz-adv-x="694" 
d="M44 0l78.001 403h-77l17 90l81 15l9 46c13.333 67.333 38.166 117.5 74.499 150.5s85.5 49.5 147.5 49.5c15.333 0 31.333 -1.83301 48 -5.5s30.667 -8.5 42 -14.5l-19 -99c-22 4 -40.667 6 -56 6c-30 0 -51.5 -5 -64.5 -15s-21.833 -27.667 -26.5 -53l-12 -62h135
l-21 -108h-135l-79 -403h-142zM667.001 26c-35.333 -22 -77.334 -32.999 -126.001 -32.999c-39.333 0 -69.166 10.167 -89.499 30.5s-30.5 50.166 -30.5 89.499c0 22 5 59.333 15 112l100 515h142l-100 -515c-5.33301 -28.667 -8.83301 -48.5 -10.5 -59.5
s-2.5 -21.167 -2.5 -30.5c0 -10.667 3.5 -19.167 10.5 -25.5s16.833 -9.5 29.5 -9.5c10.667 0 21.667 1.66699 33 5z" />
    <glyph glyph-name="ffi" unicode="ffi" horiz-adv-x="1013" 
d="M396 0l78.001 403h-209l-79 -403h-142l78 403h-77l17 90l81 15l9 46c13.333 67.333 38.166 117.5 74.499 150.5s85.5 49.5 147.5 49.5c15.333 0 31.333 -1.83301 48 -5.5s30.667 -8.5 42 -14.5l-19 -99c-22 4 -40.667 6 -56 6c-30 0 -51.5 -5 -64.5 -15
s-21.833 -27.667 -26.5 -53l-12 -62h209l9 43c14.667 68.667 40 119.167 76 151.5s84.667 48.5 146 48.5c15.333 0 31.333 -1.83301 48 -5.5s30.667 -8.5 42 -14.5l-19 -99c-22 4 -40.667 6 -56 6c-30 0 -51.5 -5 -64.5 -15s-21.833 -27.667 -26.5 -53l-12 -62h351l-99 -511
h-142l78 403h-209l-79 -403h-142zM1035 689c0 -25.333 -9.33301 -46.833 -28 -64.5s-41.334 -26.5 -68.001 -26.5c-24 0 -42.5 5.5 -55.5 16.5s-19.5 27.167 -19.5 48.5c0 25.333 9.33301 46.833 28 64.5s41.334 26.5 68.001 26.5c24 0 42.5 -5.5 55.5 -16.5
s19.5 -27.167 19.5 -48.5z" />
    <glyph glyph-name="ffl" unicode="ffl" horiz-adv-x="1046" 
d="M396 0l78.002 403h-209l-79 -403h-142l78 403h-77l17 90l81 15l9 46c13.333 67.333 38.166 117.5 74.499 150.5s85.5 49.5 147.5 49.5c15.333 0 31.333 -1.83301 48 -5.5s30.667 -8.5 42 -14.5l-19 -99c-22 4 -40.667 6 -56 6c-30 0 -51.5 -5 -64.5 -15
s-21.833 -27.667 -26.5 -53l-12 -62h209l9 43c14 68 39.167 118.333 75.5 151s85.166 49 146.499 49c15.333 0 31.333 -1.83301 48 -5.5s30.667 -8.5 42 -14.5l-19 -99c-22 4 -40.667 6 -56 6c-30 0 -51.5 -5 -64.5 -15s-21.833 -27.667 -26.5 -53l-12 -62h135l-21 -108
h-135l-79 -403h-142zM1019 26c-35.333 -22 -77.334 -32.999 -126.001 -32.999c-39.333 0 -69.166 10.167 -89.499 30.5s-30.5 50.166 -30.5 89.499c0 22 5 59.333 15 112l100 515h142l-100 -515c-5.33301 -28.667 -8.83301 -48.5 -10.5 -59.5s-2.5 -21.167 -2.5 -30.5
c0 -10.667 3.5 -19.167 10.5 -25.5s16.833 -9.5 29.5 -9.5c10.667 0 21.667 1.66699 33 5z" />
    <glyph glyph-name=".notdef" horiz-adv-x="500" 
d="M50 0v750h400v-750h-400zM400 700h-300v-650h300v650z" />
    <glyph glyph-name=".null" horiz-adv-x="0" 
 />
    <glyph glyph-name=".null" horiz-adv-x="0" 
 />
    <glyph glyph-name=".null" horiz-adv-x="0" 
 />
    <glyph glyph-name="nonmarkingreturn" unicode="&#x9;" horiz-adv-x="262" 
 />
    <glyph glyph-name="nonmarkingreturn" unicode="&#xd;" horiz-adv-x="262" 
 />
    <glyph glyph-name="space" unicode=" " horiz-adv-x="262" 
 />
    <glyph glyph-name="exclam" unicode="!" horiz-adv-x="292" 
d="M83 231l72.001 460c27.333 12.667 54.666 19 81.999 19c26 0 50.667 -6.33301 74 -19l-116 -460h-112zM104.001 -13c-25.333 0 -45 6.83301 -59 20.5s-21 32.5 -21 56.5c0 28 10 52.167 30 72.5s43.667 30.5 71 30.5c25.333 0 45 -6.83301 59 -20.5s21 -32.5 21 -56.5
c0 -28 -10 -52.167 -30 -72.5s-43.667 -30.5 -71 -30.5z" />
    <glyph glyph-name="quotedbl" unicode="&#x22;" horiz-adv-x="450" 
d="M99 432l39 256c25.333 12.667 50 19 74 19s46 -6.33301 66 -19l-77 -256h-102zM303 432l39 256c25.333 12.667 50 19 74 19s46 -6.33301 66 -19l-77 -256h-102z" />
    <glyph glyph-name="numbersign" unicode="#" 
d="M256 0l59 171h-128l-59 -171h-100l59 171h-82l17 94h97l57 166h-92l17 94h108l58 168h101l-59 -168h128l59 168h100l-58 -168h72l-18 -94h-87l-57 -166h83l-18 -94h-97l-59 -171h-101zM405 431h-128l-58 -166h128z" />
    <glyph glyph-name="dollar" unicode="$" 
d="M180 -130l24 123.998c-33.333 4.66699 -65.333 13.334 -96 26.001s-58 28.334 -82 47.001l21 105c38 -24 70.833 -41.667 98.5 -53s53.834 -18.333 78.501 -21l39 203l-39 18c-84 38.667 -126 95.334 -126 170.001c0 37.333 10.167 71.666 30.5 102.999
s48.833 56.5 85.5 75.5s78 28.5 124 28.5h1l24 121h73l-25 -127c51.333 -9.33301 97.666 -28 138.999 -56l-20 -102c-50 26.667 -96.333 44 -139 52l-39 -202l34 -15c49.333 -22.667 83.833 -46 103.5 -70s29.5 -55 29.5 -93c0 -62.667 -22 -113.5 -66 -152.5
s-103 -59.833 -177 -62.5l-23 -119h-73zM395 193.998c0 16 -4.99902 29.833 -14.999 41.5s-26.667 23.167 -50 34.5l-34 -174c29.333 1.33301 53.166 11 71.499 29s27.5 41 27.5 69zM222.001 497.998c0 -18 5 -34.167 15 -48.5s24.667 -25.833 44 -34.5l4 -2l34 177
c-17.333 -0.666992 -33.333 -5 -48 -13s-26.5 -19 -35.5 -33s-13.5 -29.333 -13.5 -46z" />
    <glyph glyph-name="percent" unicode="%" horiz-adv-x="940" 
d="M208 0l452 693h110l-452 -693h-110zM699 -10c-45.333 0 -81.166 13.5 -107.499 40.5s-39.5 63.167 -39.5 108.5c0 52.667 8.16699 99 24.5 139s40.166 71.333 71.499 94s68 34 110 34c45.333 0 81.166 -13.5 107.499 -40.5s39.5 -63.167 39.5 -108.5
c0 -52.667 -8.16699 -99 -24.5 -139s-40.166 -71.333 -71.499 -94s-68 -34 -110 -34zM708 70c26 0 47.667 16.833 65 50.5s26 76.167 26 127.5c0 25.333 -4.33301 44.666 -13 57.999s-21 20 -37 20c-26 0 -47.667 -16.833 -65 -50.5s-26 -76.167 -26 -127.5
c0 -25.333 4.33301 -44.666 13 -57.999s21 -20 37 -20zM218 287c-45.333 0 -81.166 13.5 -107.499 40.5s-39.5 63.167 -39.5 108.5c0 52.667 8.16699 99 24.5 139s40.166 71.333 71.499 94s68 34 110 34c45.333 0 81.166 -13.5 107.499 -40.5s39.5 -63.167 39.5 -108.5
c0 -52.667 -8.16699 -99 -24.5 -139s-40.166 -71.333 -71.499 -94s-68 -34 -110 -34zM227 367c26 0 47.667 16.833 65 50.5s26 76.167 26 127.5c0 25.333 -4.33301 44.666 -13 57.999s-21 20 -37 20c-26 0 -47.667 -16.833 -65 -50.5s-26 -76.167 -26 -127.5
c0 -25.333 4.33301 -44.666 13 -57.999s21 -20 37 -20z" />
    <glyph glyph-name="ampersand" unicode="&#x26;" horiz-adv-x="733" 
d="M684 24c-14 -10 -30.999 -17.8301 -50.999 -23.4971s-40.667 -8.5 -62 -8.5c-23.333 0 -44.333 4 -63 12s-36.667 20.667 -54 38c-60.667 -38.667 -128.334 -58 -203.001 -58c-64.667 0 -117.667 16.5 -159 49.5s-62 75.5 -62 127.5c0 47.333 15.667 89.666 47 126.999
s77 68.333 137 93c-16.667 26 -29 50.833 -37 74.5s-12 48.5 -12 74.5c0 32.667 8.66699 62.667 26 90s42.166 49.166 74.499 65.499s68.833 24.5 109.5 24.5c54 0 98 -13.333 132 -40s51 -61.334 51 -104.001c0 -38 -14.833 -74.667 -44.5 -110s-71.5 -66 -125.5 -92
l-15 -7l112 -161c32.667 48.667 54.667 112.667 66 192h115c-18 -110 -59 -200 -123 -270c15.333 -13.333 36 -20 62 -20c14.667 0 31.334 2.33301 50.001 7zM277.001 92.0029c46 0 86.001 8 120.001 24l-136 198c-30.667 -14 -55.167 -32.5 -73.5 -55.5
s-27.5 -46.833 -27.5 -71.5c0 -29.333 10.667 -52.5 32 -69.5s49.666 -25.5 84.999 -25.5zM285.002 528.003c0 -29.333 13.6699 -64.667 41.0029 -106l22 10c27.333 12 49.166 29 65.499 51s24.5 45 24.5 69c0 19.333 -6.33301 35 -19 47s-29.334 18 -50.001 18
c-24.667 0 -44.834 -8.5 -60.501 -25.5s-23.5 -38.167 -23.5 -63.5z" />
    <glyph glyph-name="quotesingle" unicode="'" horiz-adv-x="246" 
d="M99 432l39 256c25.333 12.667 50 19 74 19s46 -6.33301 66 -19l-77 -256h-102z" />
    <glyph glyph-name="parenleft" unicode="(" horiz-adv-x="341" 
d="M110 -144c-42.667 96 -63.999 199.333 -63.999 310c0 104.667 20.333 207.834 61 309.501s98.667 194.5 174 278.5h135c-68.667 -80 -122.834 -172.333 -162.501 -277s-59.5 -206.334 -59.5 -305.001c0 -66.667 4 -125 12 -175s21 -97 39 -141h-135z" />
    <glyph glyph-name="parenright" unicode=")" horiz-adv-x="341" 
d="M-64 -144c68.667 80 122.833 172.333 162.5 277s59.5 206.334 59.5 305.001c0 66.667 -4 125 -12 175s-21 97 -39 141h135c42.667 -96 64 -199.333 64 -310c0 -104.667 -20.333 -207.834 -61 -309.501s-98.667 -194.5 -174 -278.5h-135z" />
    <glyph glyph-name="asterisk" unicode="*" horiz-adv-x="392" 
d="M230 466l-85.999 -118.999c-36 5.33301 -60 26 -72 62l110 92l-109 20c0.666992 38 18 70.667 52 98l88 -55l7 121c19.333 8.66699 37.666 13 54.999 13c18.667 0 35.667 -4.33301 51 -13l-42 -122l111 56c14.667 -16.667 22 -37.667 22 -63
c0 -12.667 -2.66699 -24.334 -8 -35.001l-118 -21l76 -90c-12 -18.667 -26.5 -33.5 -43.5 -44.5s-34.5 -17.167 -52.5 -18.5z" />
    <glyph glyph-name="plus" unicode="+" 
d="M356 292l-36 -183h-120l36 183h-170l21 110h170l36 183h120l-36 -183h176l-21 -110h-176z" />
    <glyph glyph-name="comma" unicode="," horiz-adv-x="282" 
d="M-44 -159l114 313.001h68c22.667 0 39.167 -3.83301 49.5 -11.5s15.5 -19.834 15.5 -36.501c0 -18.667 -9.33301 -42.667 -28 -72l-122 -193h-97z" />
    <glyph glyph-name="hyphen" unicode="-" horiz-adv-x="423" 
d="M38 199l23 118h328l-23 -118h-328z" />
    <glyph glyph-name="period" unicode="." horiz-adv-x="282" 
d="M99 -13c-25.333 0 -45 6.83301 -59 20.5s-21 32.5 -21 56.5c0 28 10 52.167 30 72.5s43.667 30.5 71 30.5c25.333 0 45 -6.83301 59 -20.5s21 -32.5 21 -56.5c0 -28 -10 -52.167 -30 -72.5s-43.667 -30.5 -71 -30.5z" />
    <glyph glyph-name="slash" unicode="/" horiz-adv-x="488" 
d="M-56 -144l506 898h142l-506 -898h-142z" />
    <glyph glyph-name="zero" unicode="0" 
d="M259 -15c-70 0 -124 21.833 -162 65.5s-57 105.5 -57 185.5c0 91.333 12.833 172.666 38.5 243.999s62.667 127.5 111 168.5s104.5 61.5 168.5 61.5c70 0 124 -21.833 162 -65.5s57 -105.5 57 -185.5c0 -91.333 -12.833 -172.666 -38.5 -243.999
s-62.667 -127.5 -111 -168.5s-104.5 -61.5 -168.5 -61.5zM269 101c29.333 0 56.333 14.667 81 44s44.334 70.666 59.001 123.999s22 113.666 22 180.999c0 49.333 -6.66699 85.666 -20 108.999s-34.333 35 -63 35c-29.333 0 -56.333 -14.667 -81 -44
s-44.334 -70.666 -59.001 -123.999s-22 -113.666 -22 -180.999c0 -49.333 6.66699 -85.666 20 -108.999s34.333 -35 63 -35z" />
    <glyph glyph-name="one" unicode="1" 
d="M221 0l106 549l-184 -58l22 114l213 88h120l-134 -693h-143z" />
    <glyph glyph-name="two" unicode="2" 
d="M18 0l19.998 103.999c108.667 92 188.667 162.667 240 212s86.833 88.833 106.5 118.5s29.5 56.834 29.5 81.501c0 50 -28.333 75 -85 75c-27.333 0 -55.666 -5.83301 -84.999 -17.5s-63.666 -30.5 -102.999 -56.5l-23 100c72.667 62 152.334 93 239.001 93
c40 0 75.667 -7 107 -21s55.666 -34 72.999 -60s26 -57.333 26 -94c0 -39.333 -11.667 -78.833 -35 -118.5s-60.5 -83.667 -111.5 -132s-119.833 -105.833 -206.5 -172.5h299l-23 -112h-468z" />
    <glyph glyph-name="three" unicode="3" 
d="M51 138c63.333 -26 120.669 -38.9971 172.002 -38.9971c43.333 0 77.333 11 102 33s37 51.667 37 89c0 27.333 -10.667 48.333 -32 63s-51.333 22 -90 22c-26.667 0 -51 -1.66699 -73 -5l17 88l213 192h-258l22 112h415l-22 -110l-216 -188
c50 -1.33301 90.333 -17.5 121 -48.5s46 -70.833 46 -119.5c0 -44.667 -11.833 -85.334 -35.5 -122.001s-57.334 -65.834 -101.001 -87.501s-93.167 -32.5 -148.5 -32.5c-32.667 0 -65.834 4.16699 -99.501 12.5s-64.167 20.166 -91.5 35.499z" />
    <glyph glyph-name="four" unicode="4" 
d="M285 0l26 137h-310l20 107l391 449h131l-86 -446h99l-22 -110h-99l-26 -137h-124zM333 247l51 265l-231 -265h180z" />
    <glyph glyph-name="five" unicode="5" 
d="M57 138c64 -26 122.333 -38.9971 175 -38.9971c46.667 0 82.834 10.5 108.501 31.5s38.5 51.167 38.5 90.5c0 32.667 -10.833 56.834 -32.5 72.501s-55.167 23.5 -100.5 23.5c-38.667 0 -85 -3.66699 -139 -11l12 66l77 321h391l-23 -112h-270l-38 -162c22 4 44 6 66 6
c62.667 0 112 -16.833 148 -50.5s54 -79.834 54 -138.501c0 -48.667 -12.167 -91.834 -36.5 -129.501s-59 -67.334 -104 -89.001s-97.5 -32.5 -157.5 -32.5c-32.667 0 -65.834 4.16699 -99.501 12.5s-64.167 20.166 -91.5 35.499z" />
    <glyph glyph-name="six" unicode="6" 
d="M557 567c-48.667 20 -91.9971 30 -129.997 30c-57.333 0 -105.333 -17.833 -144 -53.5s-65.667 -86.834 -81 -153.501c24 9.33301 49.667 16.833 77 22.5s53 8.5 77 8.5c58.667 0 105.667 -17.167 141 -51.5s53 -79.166 53 -134.499c0 -46 -11 -87.833 -33 -125.5
s-52.833 -67.834 -92.5 -90.501s-84.834 -34 -135.501 -34c-76.667 0 -135.667 23.833 -177 71.5s-62 116.167 -62 205.5c0 84.667 15.167 160.834 45.5 228.501s73.666 121.167 129.999 160.5s121.166 59 194.499 59c60 0 112 -14 156 -42zM298.003 318
c-31.333 0 -67.667 -6.33301 -109 -19v-32c0 -114 37.333 -171 112 -171c31.333 0 56.833 11.5 76.5 34.5s29.5 52.833 29.5 89.5c0 30.667 -9.5 54.667 -28.5 72s-45.833 26 -80.5 26z" />
    <glyph glyph-name="seven" unicode="7" 
d="M73 0l372 579h-338l22 114h481l-22 -110l-361 -583h-154z" />
    <glyph glyph-name="eight" unicode="8" 
d="M579 547c0 -40.667 -12.001 -77.5 -36.001 -110.5s-58.333 -60.167 -103 -81.5c35.333 -22.667 60.833 -46.5 76.5 -71.5s23.5 -54.5 23.5 -88.5c0 -40 -11.167 -75.833 -33.5 -107.5s-54.5 -56.667 -96.5 -75s-91 -27.5 -147 -27.5c-70.667 0 -126.5 15.5 -167.5 46.5
s-61.5 73.167 -61.5 126.5c0 94.667 55.333 164 166 208c-48.667 36.667 -73 83.667 -73 141c0 37.333 10.333 71.333 31 102s49.834 55.167 87.501 73.5s80.167 27.5 127.5 27.5c61.333 0 111 -15 149 -45s57 -69.333 57 -118zM288.999 313l-10.999 -4
c-36 -13.333 -62.333 -30 -79 -50s-25 -45 -25 -75c0 -26.667 9.66699 -48.5 29 -65.5s44.333 -25.5 75 -25.5c35.333 0 64.666 8.83301 87.999 26.5s35 39.5 35 65.5c0 23.333 -7.66699 44.333 -23 63s-40.333 37.667 -75 57zM261 515
c0 -40.667 25.333 -74.665 76 -101.998l12 -7l6 3c28 11.333 50 27.666 66 48.999s24 45 24 71c0 24 -8 43.167 -24 57.5s-36.667 21.5 -62 21.5c-28 0 -51.333 -8.83301 -70 -26.5s-28 -39.834 -28 -66.501z" />
    <glyph glyph-name="nine" unicode="9" 
d="M216 99c50.667 0 93 15.001 127 45.001s58.667 74.333 74 133c-48 -19.333 -94 -29 -138 -29c-38.667 0 -73 8.16699 -103 24.5s-53.667 40 -71 71s-26 67.167 -26 108.5c0 47.333 10.833 90.5 32.5 129.5s52.5 70.167 92.5 93.5s85.333 35 136 35
c74.667 0 132.667 -24.667 174 -74s62 -118.333 62 -207c0 -89.333 -14.333 -167.333 -43 -234s-70.167 -118.334 -124.5 -155.001s-118.833 -55 -193.5 -55c-64.667 0 -120 15.333 -166 46l21 104c55.333 -24 104 -36 146 -36zM330 352.001c28 0 62 5.33301 102 16
c2 22 3 45.667 3 71c0 106 -34.333 159 -103 159c-32.667 0 -59 -12.167 -79 -36.5s-30 -56.5 -30 -96.5c0 -36 9.33301 -63.833 28 -83.5s45 -29.5 79 -29.5z" />
    <glyph glyph-name="colon" unicode=":" horiz-adv-x="282" 
d="M99 -13c-25.333 0 -45 6.83301 -59 20.5s-21 32.5 -21 56.5c0 28 10 52.167 30 72.5s43.667 30.5 71 30.5c25.333 0 45 -6.83301 59 -20.5s21 -32.5 21 -56.5c0 -28 -10 -52.167 -30 -72.5s-43.667 -30.5 -71 -30.5zM173 342c-25.333 0 -45 6.83301 -59 20.5
s-21 32.5 -21 56.5c0 28 10 52.167 30 72.5s43.667 30.5 71 30.5c25.333 0 45 -6.83301 59 -20.5s21 -32.5 21 -56.5c0 -28 -10 -52.167 -30 -72.5s-43.667 -30.5 -71 -30.5z" />
    <glyph glyph-name="semicolon" unicode=";" horiz-adv-x="282" 
d="M-44 -159l114 313.001h68c22.667 0 39.167 -3.83301 49.5 -11.5s15.5 -19.834 15.5 -36.501c0 -18.667 -9.33301 -42.667 -28 -72l-122 -193h-97zM173 342.001c-25.333 0 -45 6.83301 -59 20.5s-21 32.5 -21 56.5c0 28 10 52.167 30 72.5s43.667 30.5 71 30.5
c25.333 0 45 -6.83301 59 -20.5s21 -32.5 21 -56.5c0 -28 -10 -52.167 -30 -72.5s-43.667 -30.5 -71 -30.5z" />
    <glyph glyph-name="less" unicode="&#x3c;" 
d="M72 289l23 114l473 189l-25 -132l-331 -118l284 -117l-24 -124z" />
    <glyph glyph-name="equal" unicode="=" 
d="M46 184l21 110h466l-21 -110h-466zM88 404l21 110h466l-21 -110h-466z" />
    <glyph glyph-name="greater" unicode="&#x3e;" 
d="M49 101l25 132l330 117l-283 118l24 124l400 -188l-23 -114z" />
    <glyph glyph-name="question" unicode="?" horiz-adv-x="437" 
d="M120 231l20 138.001l59 28c82 39.333 123 85 123 137c0 18 -6.66699 32.167 -20 42.5s-31.666 15.5 -54.999 15.5c-43.333 0 -89.333 -16.333 -138 -49l-20 98c25.333 21.333 54.666 38.166 87.999 50.499s66.333 18.5 99 18.5c34.667 0 66.5 -6.66699 95.5 -20
s51.667 -32.333 68 -57s24.5 -54 24.5 -88c0 -50 -17.5 -94 -52.5 -132s-88.833 -71 -161.5 -99l-21 -83h-109zM145 -12.999c-25.333 0 -45 6.83301 -59 20.5s-21 32.5 -21 56.5c0 28 10 52.167 30 72.5s43.667 30.5 71 30.5c25.333 0 45 -6.83301 59 -20.5
s21 -32.5 21 -56.5c0 -28 -10 -52.167 -30 -72.5s-43.667 -30.5 -71 -30.5z" />
    <glyph glyph-name="at" unicode="@" horiz-adv-x="975" 
d="M597 -174c-68 -29.333 -138.335 -43.999 -211.002 -43.999c-111.333 0 -197.333 28.833 -258 86.5s-91 139.167 -91 244.5c0 100 22.833 192.667 68.5 278s109.834 154.333 192.501 207s175.334 79 278.001 79c112.667 0 200.667 -27.833 264 -83.5
s95 -133.167 95 -232.5c0 -67.333 -11.333 -129 -34 -185s-54.667 -101 -96 -135s-88 -51 -140 -51c-65.333 0 -104.666 29.667 -117.999 89c-23.333 -28.667 -49.833 -51 -79.5 -67s-59.5 -24 -89.5 -24c-80 0 -120 50.333 -120 151c0 56.667 13 110.167 39 160.5
s62.167 91.333 108.5 123s97.833 47.5 154.5 47.5c58.667 0 114 -12 166 -36l-59 -240c-7.33301 -28 -11 -51 -11 -69c0 -15.333 2.5 -26.333 7.5 -33s12.833 -10 23.5 -10c22 0 43.167 12 63.5 36s37.333 57.167 51 99.5s20.5 87.5 20.5 135.5
c0 71.333 -22.5 126.166 -67.5 164.499s-109.167 57.5 -192.5 57.5c-71.333 0 -137.333 -19.167 -198 -57.5s-109.834 -92.333 -147.501 -162s-56.5 -147.5 -56.5 -233.5c0 -77.333 20.833 -136.333 62.5 -177s102.5 -61 182.5 -61c54 0 112 9.33301 174 28zM432.998 80.001
c16.667 0 35.168 6.66797 55.501 20.001s39.5 31.666 57.5 54.999c2.66699 16 8.33398 41 17.001 75l37 142c-24.667 5.33301 -43 8 -55 8c-26.667 0 -52.334 -10.333 -77.001 -31s-45.334 -49 -62.001 -85s-25 -74.333 -25 -115c0 -46 17.333 -69 52 -69z" />
    <glyph glyph-name="A" unicode="A" horiz-adv-x="631" 
d="M433 0l-16 159h-231l-76 -159h-155l370 693h161l101 -693h-154zM237 265h171l-30 292z" />
    <glyph glyph-name="B" unicode="B" horiz-adv-x="630" 
d="M37 0l134.999 692.999h236c60.667 0 108.834 -15.167 144.501 -45.5s53.5 -71.5 53.5 -123.5c0 -40 -10.667 -74.667 -32 -104s-51.333 -50.666 -90 -63.999c32 -14 56.667 -33.167 74 -57.5s26 -52.5 26 -84.5c0 -66 -25.5 -118.167 -76.5 -156.5
s-120.167 -57.5 -207.5 -57.5h-263zM234.999 302.999l-38 -197h120c40 0 70.5 10 91.5 30s31.5 48.667 31.5 86c0 26 -8 46 -24 60s-38.667 21 -68 21h-113zM289.999 586.999l-35 -184h99c35.333 0 63.333 10 84 30s31 46.667 31 80c0 24 -7.5 42.333 -22.5 55
s-36.167 19 -63.5 19h-93z" />
    <glyph glyph-name="C" unicode="C" horiz-adv-x="601" 
d="M554 55c-37.333 -26 -74.665 -44.834 -111.998 -56.501s-77.333 -17.5 -120 -17.5c-83.333 0 -149 25.333 -197 76s-72 120.334 -72 209.001c0 78 17.167 150.667 51.5 218s82.666 121.833 144.999 163.5s131.833 62.5 208.5 62.5c61.333 0 115.666 -12.667 162.999 -38
l-22 -111c-44 18 -89.333 27 -136 27c-48 0 -91.333 -12.667 -130 -38s-69.5 -61.5 -92.5 -108.5s-34.5 -100.167 -34.5 -159.5c0 -118.667 47 -178 141 -178c52.667 0 111 18.333 175 55z" />
    <glyph glyph-name="D" unicode="D" horiz-adv-x="708" 
d="M37 0l134.999 692.999h230c89.333 0 159 -24.333 209 -73s75 -115.667 75 -201c0 -76 -16.333 -145.667 -49 -209s-79.167 -114.166 -139.5 -152.499s-128.166 -57.5 -203.499 -57.5h-257zM294.999 578.999l-90.002 -465.001h87c44.667 0 85.334 12.333 122.001 37
s66.167 59.334 88.5 104.001s33.5 96 33.5 154c0 55.333 -12.167 97.5 -36.5 126.5s-60.166 43.5 -107.499 43.5h-97z" />
    <glyph glyph-name="E" unicode="E" horiz-adv-x="566" 
d="M37 0l135 693h442l-22 -114h-297l-33 -167h242l-22 -114h-242l-36 -184h297l-22 -114h-442z" />
    <glyph glyph-name="F" unicode="F" horiz-adv-x="538" 
d="M37 0l135 693h422l-22 -114h-277l-35 -177h221l-22 -114h-221l-56 -288h-145z" />
    <glyph glyph-name="G" unicode="G" horiz-adv-x="685" 
d="M355 96c28 0 62.332 5.33105 102.999 15.998l33 169h-126l21 108h260l-68 -347c-30.667 -18 -67.5 -32.667 -110.5 -44s-84.167 -17 -123.5 -17c-95.333 0 -167.666 24.333 -216.999 73s-74 119.334 -74 212.001c0 78.667 17.5 151.834 52.5 219.501
s84.167 122.167 147.5 163.5s134.666 62 213.999 62c35.333 0 71.5 -4.5 108.5 -13.5s66.833 -20.167 89.5 -33.5l-21 -106c-57.333 22.667 -117 34 -179 34c-49.333 0 -93.833 -12.833 -133.5 -38.5s-71.167 -62.5 -94.5 -110.5s-35 -102.333 -35 -163
c0 -62.667 12.333 -109 37 -139s63.334 -45 116.001 -45z" />
    <glyph glyph-name="H" unicode="H" horiz-adv-x="734" 
d="M450 0l57 295h-268l-57 -295h-145l135 693h145l-55 -282h268l55 282h145l-135 -693h-145z" />
    <glyph glyph-name="I" unicode="I" horiz-adv-x="329" 
d="M41 0l135 693h145l-135 -693h-145z" />
    <glyph glyph-name="J" unicode="J" horiz-adv-x="444" 
d="M302 693l145 -0.000976562l-94 -483c-14.667 -75.333 -41.834 -131.166 -81.501 -167.499s-92.5 -54.5 -158.5 -54.5c-43.333 0 -91 10.333 -143 31l21 109c44.667 -10.667 84 -16 118 -16c28.667 0 50.834 8.5 66.501 25.5s27.167 44.833 34.5 83.5z" />
    <glyph glyph-name="K" unicode="K" horiz-adv-x="654" 
d="M37 0l135 693h145l-58 -297l302 297h183l-351 -336l216 -357h-170l-193 329l-64 -329h-145z" />
    <glyph glyph-name="L" unicode="L" horiz-adv-x="535" 
d="M37 0l135 693h145l-112 -575h284l-23 -118h-429z" />
    <glyph glyph-name="M" unicode="M" horiz-adv-x="858" 
d="M591 0l96 492l-215 -321h-120l-90 324l-97 -495h-128l135 693h159l106 -389l261 389h156l-135 -693h-128z" />
    <glyph glyph-name="N" unicode="N" horiz-adv-x="732" 
d="M440 0l-178 492l-95 -492h-130l135 693h153l177 -491l96 491h130l-135 -693h-153z" />
    <glyph glyph-name="O" unicode="O" horiz-adv-x="751" 
d="M339 -17c-88.667 0 -158.502 25.498 -209.502 76.498s-76.5 120.833 -76.5 209.5c0 82.667 15.833 157.334 47.5 224.001s76.5 119.667 134.5 159s124.667 59 200 59c88.667 0 158.5 -25.5 209.5 -76.5s76.5 -121.167 76.5 -210.5c0 -82.667 -15.667 -157.167 -47 -223.5
s-76.166 -119.166 -134.499 -158.499s-125.166 -59 -200.499 -59zM348.998 102.998c40.667 0 77.668 12.8301 111.001 38.4971s60.166 62.334 80.499 110.001s30.5 101.834 30.5 162.501c0 56.667 -12.667 100.334 -38 131.001s-61.333 46 -108 46
c-30 0 -58.167 -7.16699 -84.5 -21.5s-49.833 -35.333 -70.5 -63s-37 -61 -49 -100s-18 -81.833 -18 -128.5c0 -56 12.667 -99.167 38 -129.5s61.333 -45.5 108 -45.5z" />
    <glyph glyph-name="P" unicode="P" horiz-adv-x="614" 
d="M37 0l135 693h225c70 0 124.5 -16.833 163.5 -50.5s58.5 -80.834 58.5 -141.501c0 -48 -12 -90.667 -36 -128s-58.667 -66.666 -104 -87.999s-98 -32 -158 -32h-93l-49 -253h-142zM249 363h71.999c48 0 85.667 11.5 113 34.5s41 54.5 41 94.5
c0 31.333 -9.16699 54.333 -27.5 69s-46.166 22 -83.499 22h-72z" />
    <glyph glyph-name="Q" unicode="Q" horiz-adv-x="751" 
d="M608 -174c-58 9.33301 -113.5 27.999 -166.5 55.999s-98.833 62.333 -137.5 103c-78.667 6.66699 -140.167 35 -184.5 85s-66.5 116.333 -66.5 199s15.833 157.334 47.5 224.001s76.5 119.667 134.5 159s124.667 59 200 59c88.667 0 158.5 -25.5 209.5 -76.5
s76.5 -121.167 76.5 -210.5c0 -69.333 -11.333 -133.5 -34 -192.5s-55.5 -109 -98.5 -150s-93.5 -69.5 -151.5 -85.5c22.667 -12 49.5 -22 80.5 -30s68.833 -14.667 113.5 -20zM349 102.999c40.667 0 77.668 12.8301 111.001 38.4971s60.166 62.334 80.499 110.001
s30.5 101.834 30.5 162.501c0 56.667 -12.667 100.334 -38 131.001s-61.333 46 -108 46c-30 0 -58.167 -7.16699 -84.5 -21.5s-49.833 -35.333 -70.5 -63s-37 -61 -49 -100s-18 -81.833 -18 -128.5c0 -56 12.667 -99.167 38 -129.5s61.333 -45.5 108 -45.5z" />
    <glyph glyph-name="R" unicode="R" horiz-adv-x="635" 
d="M423 0l-100 269h-6h-86l-52 -269h-142l135 693h224c70.667 0 125.5 -16.5 164.5 -49.5s58.5 -79.167 58.5 -138.5c0 -50.667 -14.167 -94.667 -42.5 -132s-68.833 -65.333 -121.5 -84l112 -289h-144zM250 371h76c46.667 0 83.167 11 109.5 33s39.5 52.667 39.5 92
c0 59.333 -37 89 -111 89h-72z" />
    <glyph glyph-name="S" unicode="S" horiz-adv-x="556" 
d="M216 307c-44.667 20.667 -77.332 45.335 -97.999 74.002s-31 63.334 -31 104.001s11.167 78 33.5 112s54 61.333 95 82s87.5 31 139.5 31c35.333 0 69.166 -4.16699 101.499 -12.5s60.833 -20.166 85.5 -35.499l-22 -107c-20 10.667 -44.5 19.5 -73.5 26.5
s-56.5 10.5 -82.5 10.5c-42.667 0 -74.834 -7.33301 -96.501 -22s-32.5 -36.334 -32.5 -65.001c0 -16.667 5.16699 -30.834 15.5 -42.501s27.5 -22.834 51.5 -33.501l78 -35c42.667 -18.667 74.334 -42.334 95.001 -71.001s31 -63.334 31 -104.001
c0 -45.333 -11.667 -85.833 -35 -121.5s-57 -63.667 -101 -84s-95 -30.5 -153 -30.5c-86 0 -156.333 17.667 -211 53l24 109c61.333 -28 124.333 -42 189 -42c42 0 75.333 7.83301 100 23.5s37 36.834 37 63.501c0 20.667 -5.66699 37.167 -17 49.5s-34.333 26.5 -69 42.5z
" />
    <glyph glyph-name="T" unicode="T" horiz-adv-x="585" 
d="M167 0l112 575h-204l23 118h553l-23 -118h-204l-112 -575h-145z" />
    <glyph glyph-name="U" unicode="U" horiz-adv-x="713" 
d="M571 693h144.999l-90 -458c-16 -82 -50.833 -144.5 -104.5 -187.5s-123.167 -64.5 -208.5 -64.5c-47.333 0 -88.833 8.16699 -124.5 24.5s-63.667 40 -84 71s-30.5 67.5 -30.5 109.5c0 41.333 7.33301 98.333 22 171l66 334h145l-67 -334
c-9.33301 -46 -15.666 -79.5 -18.999 -100.5s-5 -37.833 -5 -50.5c0 -34 9.83301 -60 29.5 -78s48.167 -27 85.5 -27c82.667 0 133 45 151 135z" />
    <glyph glyph-name="V" unicode="V" horiz-adv-x="629" 
d="M177 0l-103 693h158l52 -546l261 546h160l-370 -693h-158z" />
    <glyph glyph-name="W" unicode="W" horiz-adv-x="922" 
d="M509 0l-9 493l-201 -493h-158l-51 693h156l7 -521l202 504h161l7 -509l203 526h162l-321 -693h-158z" />
    <glyph glyph-name="X" unicode="X" 
d="M392 0l-96 251l-184 -251h-167l294 373l-135 320h156l83 -225l163 225h168l-273 -345l147 -348h-156z" />
    <glyph glyph-name="Y" unicode="Y" horiz-adv-x="568" 
d="M152 0l50 255l-138 438h152l75 -323l205 323h160l-311 -438l-50 -255h-143z" />
    <glyph glyph-name="Z" unicode="Z" horiz-adv-x="564" 
d="M-23 0l20 103l427 476h-319l23 114h486l-20 -103l-426 -476h337l-23 -114h-505z" />
    <glyph glyph-name="bracketleft" unicode="[" horiz-adv-x="362" 
d="M-12 -144l174 898h276l-21 -108h-130l-133 -682h130l-21 -108h-275z" />
    <glyph glyph-name="backslash" unicode="\" horiz-adv-x="488" 
d="M251 -144l-143 898h137l143 -898h-137z" />
    <glyph glyph-name="bracketright" unicode="]" horiz-adv-x="362" 
d="M-84 -144l21 108h130l133 682h-130l21 108h275l-174 -898h-276z" />
    <glyph glyph-name="asciicircum" unicode="^" 
d="M418 284l-61 278l-163 -278h-142l272 409h116l114 -409h-136z" />
    <glyph glyph-name="underscore" unicode="_" horiz-adv-x="500" 
d="M-69 -167l22 112h500l-22 -112h-500z" />
    <glyph glyph-name="grave" unicode="`" horiz-adv-x="601" 
d="M361 600l-101 169h152l66 -169h-117z" />
    <glyph glyph-name="a" unicode="a" horiz-adv-x="573" 
d="M338 0v88.001c-25.333 -33.333 -53.333 -58.833 -84 -76.5s-61.667 -26.5 -93 -26.5c-42 0 -74.667 15.167 -98 45.5s-35 73.166 -35 128.499c0 62 14 121 42 177s66.833 101.667 116.5 137s104.5 53 164.5 53c28 0 60.667 -3.83301 98 -11.5s70.333 -17.167 99 -28.5
l-95 -486h-115zM221 96.001c18.667 0 38.833 7.99902 60.5 23.999s44.167 39.333 67.5 70l44 225c-20 3.33301 -35 5 -45 5c-29.333 0 -57.333 -10.667 -84 -32s-48.667 -51.166 -66 -89.499s-26 -78.833 -26 -121.5c0 -54 16.333 -81 49 -81z" />
    <glyph glyph-name="b" unicode="b" horiz-adv-x="572" 
d="M249 441c23.333 27.333 48.999 48.333 76.999 63s56.667 22 86 22c42.667 0 75.334 -15.333 98.001 -46s34 -74.667 34 -132c0 -64 -13.5 -123.667 -40.5 -179s-64.833 -99.833 -113.5 -133.5s-104 -50.5 -166 -50.5c-29.333 0 -62.333 3.66699 -99 11s-69.667 17 -99 29
l139 715h142zM348.999 415c-35.333 0 -76.333 -29.667 -123 -89l-45 -231c15.333 -2.66699 30 -4 44 -4c32 0 61 10 87 30s47.167 48.667 63.5 86s24.5 77.666 24.5 120.999c0 28.667 -4.5 50.334 -13.5 65.001s-21.5 22 -37.5 22z" />
    <glyph glyph-name="c" unicode="c" horiz-adv-x="455" 
d="M414 48c-26.667 -20 -57.8311 -35.499 -93.498 -46.499s-71.167 -16.5 -106.5 -16.5c-57.333 0 -102.666 17.667 -135.999 53s-50 83.333 -50 144c0 56 13.167 110.667 39.5 164s62.666 96.666 108.999 129.999s98.5 50 156.5 50c50.667 0 94 -9.33301 130 -28l-19 -98
c-32.667 10.667 -66.334 16 -101.001 16c-48.667 0 -89.334 -21 -122.001 -63s-49 -95 -49 -159c0 -31.333 6.83301 -55.5 20.5 -72.5s33.5 -25.5 59.5 -25.5c35.333 0 78.333 11.667 129 35z" />
    <glyph glyph-name="d" unicode="d" horiz-adv-x="573" 
d="M338 0l0.000976562 89c-24 -32 -51.333 -57.333 -82 -76s-60.334 -28 -89.001 -28c-44 0 -78.167 14.5 -102.5 43.5s-36.5 69.5 -36.5 121.5c0 64.667 13.167 125.5 39.5 182.5s63 103.5 110 139.5s99.167 54 156.5 54c24 0 50 -5 78 -15l44 229h142l-145 -740h-115z
M225.001 96c16 0 34.999 8.16797 56.999 24.501s44.333 39.166 67 68.499l44 226c-21.333 3.33301 -37.666 5 -48.999 5c-30 0 -58 -10.833 -84 -32.5s-47.167 -52 -63.5 -91s-24.5 -81.833 -24.5 -128.5c0 -48 17.667 -72 53 -72z" />
    <glyph glyph-name="e" unicode="e" horiz-adv-x="497" 
d="M432 46c-64.667 -42 -139.333 -63 -224 -63c-58 0 -102.5 16.167 -133.5 48.5s-46.5 78.5 -46.5 138.5c0 61.333 13.5 119.5 40.5 174.5s64.667 99.333 113 133s103.5 50.5 165.5 50.5c44 0 78.667 -11 104 -33s38 -51.667 38 -89c0 -55.333 -23.667 -102.833 -71 -142.5
s-114.666 -68.167 -201.999 -85.5l-57 -12c2 -28.667 9.66699 -49 23 -61s35.333 -18 66 -18c47.333 0 96.666 13.333 147.999 40zM313.001 426c-20.667 0 -41.5 -7.16992 -62.5 -21.5029s-39.333 -34.166 -55 -59.499s-26.5 -54.666 -32.5 -87.999l57 13
c42.667 9.33301 76.834 24.333 102.501 45s38.5 44.334 38.5 71.001c0 11.333 -4.33301 20.833 -13 28.5s-20.334 11.5 -35.001 11.5z" />
    <glyph glyph-name="f" unicode="f" horiz-adv-x="397" 
d="M52 0l78.002 405h-77l17 88l81 15l9 46c13.333 67.333 38.166 117.5 74.499 150.5s85.5 49.5 147.5 49.5c17.333 0 35.166 -1.83301 53.499 -5.5s33.833 -8.5 46.5 -14.5l-19 -99c-26 4 -48 6 -66 6c-30 0 -51.5 -5 -64.5 -15s-21.833 -27.667 -26.5 -53l-12 -62h143
l-21 -106h-143l-79 -405h-142z" />
    <glyph glyph-name="g" unicode="g" horiz-adv-x="580" 
d="M340 106c-24 -30 -50.666 -53.668 -79.999 -71.001s-58 -26 -86 -26c-44 0 -78.167 14.5 -102.5 43.5s-36.5 69.5 -36.5 121.5c0 58.667 13.833 114.834 41.5 168.501s66 97.667 115 132s102.833 51.5 161.5 51.5c31.333 0 65.166 -3.66699 101.499 -11
s69.833 -17 100.5 -29l-83 -424c-18 -92.667 -54.667 -162.5 -110 -209.5s-128.333 -70.5 -219 -70.5c-54.667 0 -106 12 -154 36l21 103c49.333 -18.667 94.333 -28 135 -28c54.667 0 96.5 13.667 125.5 41s49.833 73 62.5 137zM232.001 117.999
c16.667 0 36.3311 9.00098 58.998 27.001s46.334 43.667 71.001 77l38 193c-20 3.33301 -35.667 5 -47 5c-29.333 0 -57.166 -10 -83.499 -30s-48 -47.833 -65 -83.5s-25.5 -73.834 -25.5 -114.501c0 -49.333 17.667 -74 53 -74z" />
    <glyph glyph-name="h" unicode="h" horiz-adv-x="601" 
d="M346 0l53 273.999c8.66699 46 13 78 13 96c0 16.667 -3.83301 28.834 -11.5 36.501s-19.834 11.5 -36.501 11.5c-18 0 -39.333 -8.16699 -64 -24.5s-49.334 -38.833 -74.001 -67.5l-63 -326h-142l144 740h142l-59 -304c24.667 28 51.834 50 81.501 66
s58.834 24 87.501 24c44.667 0 79 -11.833 103 -35.5s36 -57.5 36 -101.5c0 -25.333 -5 -64.333 -15 -117l-53 -272h-142z" />
    <glyph glyph-name="i" unicode="i" horiz-adv-x="290" 
d="M216 590c-24 0 -42.5 5.5 -55.5 16.5s-19.5 27.167 -19.5 48.5c0 25.333 9.33301 46.833 28 64.5s41.334 26.5 68.001 26.5c24 0 42.5 -5.5 55.5 -16.5s19.5 -27.167 19.5 -48.5c0 -25.333 -9.33301 -46.833 -28 -64.5s-41.334 -26.5 -68.001 -26.5zM124 511h142
l-99 -511h-142z" />
    <glyph glyph-name="j" unicode="j" horiz-adv-x="290" 
d="M-16 -218c-41.333 0 -78 8 -110 24l18 93c20.667 -4.66699 39.667 -7 57 -7c37.333 1.33301 60.333 25.333 69 72l106 547h142l-106 -547c-24 -121.333 -82.667 -182 -176 -182zM216 590c-24.667 0 -43.334 5.5 -56.001 16.5s-19 27.167 -19 48.5
c0 25.333 9.33301 46.833 28 64.5s41.334 26.5 68.001 26.5c24.667 0 43.334 -5.5 56.001 -16.5s19 -27.167 19 -48.5c0 -25.333 -9.33301 -46.833 -28 -64.5s-41.334 -26.5 -68.001 -26.5z" />
    <glyph glyph-name="k" unicode="k" horiz-adv-x="547" 
d="M21 0l144 740h140l-85 -436l189 207h176l-241 -241l169 -270h-160l-145 243l-47 -243h-140z" />
    <glyph glyph-name="l" unicode="l" horiz-adv-x="322" 
d="M295 26c-35.333 -22 -77.334 -32.999 -126.001 -32.999c-39.333 0 -69.166 10.167 -89.499 30.5s-30.5 50.166 -30.5 89.499c0 22 5 59.333 15 112l100 515h142l-100 -515c-5.33301 -28.667 -8.83301 -48.5 -10.5 -59.5s-2.5 -21.167 -2.5 -30.5
c0 -10.667 3.5 -19.167 10.5 -25.5s16.833 -9.5 29.5 -9.5c10.667 0 21.667 1.66699 33 5z" />
    <glyph glyph-name="m" unicode="m" horiz-adv-x="906" 
d="M651 0l52.999 274c8.66699 43.333 13 75 13 95c0 16.667 -3.66699 29 -11 37s-18.666 12 -33.999 12c-34.667 0 -77.667 -25 -129 -75c-2 -18 -6 -41.667 -12 -71l-53 -272h-142l53 274c8.66699 44 13 75.667 13 95c0 17.333 -3.5 29.833 -10.5 37.5
s-18.167 11.5 -33.5 11.5c-18 0 -38.5 -8 -61.5 -24s-45.833 -38 -68.5 -66l-65 -328h-142l99 511h115l2 -86c24.667 31.333 52.334 56 83.001 74s60.667 27 90 27c35.333 0 64.5 -8.33301 87.5 -25s37.833 -40.667 44.5 -72c26 30.667 55.167 54.5 87.5 71.5
s64.166 25.5 95.499 25.5c44 0 77.667 -11.667 101 -35s35 -57.333 35 -102c0 -27.333 -5 -66.333 -15 -117l-53 -272h-142z" />
    <glyph glyph-name="n" unicode="n" horiz-adv-x="601" 
d="M346 0l53 273.999c8.66699 46 13 78 13 96c0 16.667 -3.83301 28.834 -11.5 36.501s-19.834 11.5 -36.501 11.5c-18 0 -39.333 -8 -64 -24s-49 -38 -73 -66l-64 -328h-142l99 511h115l2 -87c26 32 54.833 57 86.5 75s62.834 27 93.501 27c44.667 0 79 -11.833 103 -35.5
s36 -57.5 36 -101.5c0 -25.333 -5 -64.333 -15 -117l-53 -272h-142z" />
    <glyph glyph-name="o" unicode="o" horiz-adv-x="559" 
d="M237 -15c-64 0 -114.833 18.5 -152.5 55.5s-56.5 87.167 -56.5 150.5c0 62 12.167 118.333 36.5 169s58.833 91 103.5 121s96 45 154 45c64 0 114.833 -18.5 152.5 -55.5s56.5 -87.167 56.5 -150.5c0 -62 -12.167 -118.333 -36.5 -169s-58.833 -91 -103.5 -121
s-96 -45 -154 -45zM247 93c25.333 0 48.5 9.33301 69.5 28s38 44.834 51 78.501s19.5 71.5 19.5 113.5c0 32 -6.83301 57.5 -20.5 76.5s-31.834 28.5 -54.501 28.5c-25.333 0 -48.5 -9.33301 -69.5 -28s-38 -44.834 -51 -78.501s-19.5 -71.5 -19.5 -113.5
c0 -32 6.83301 -57.5 20.5 -76.5s31.834 -28.5 54.501 -28.5z" />
    <glyph glyph-name="p" unicode="p" horiz-adv-x="571" 
d="M-20 -206l140.001 717h115v-85c25.333 32.667 53.166 57.5 83.499 74.5s61.166 25.5 92.499 25.5c42.667 0 75.334 -15.333 98.001 -46s34 -74.667 34 -132c0 -64 -13 -123.5 -39 -178.5s-62.5 -99.5 -109.5 -133.5s-99.5 -51 -157.5 -51c-24.667 0 -50 4.66699 -76 14
l-40 -205h-141zM348.001 415c-35.333 0 -76.332 -29.333 -122.999 -88l-45 -233c14 -2 28.667 -3 44 -3c32 0 61.167 9.83301 87.5 29.5s47.5 47.667 63.5 84s24 77.5 24 123.5c0 28 -4.33301 49.5 -13 64.5s-21.334 22.5 -38.001 22.5z" />
    <glyph glyph-name="q" unicode="q" horiz-adv-x="573" 
d="M272 -206l53.999 280.001c-23.333 -28 -49.166 -49.833 -77.499 -65.5s-57.5 -23.5 -87.5 -23.5c-42 0 -74.667 15.167 -98 45.5s-35 73.166 -35 128.499c0 62 14 121 42 177s66.833 101.667 116.5 137s104.5 53 164.5 53c28 0 60.667 -3.83301 98 -11.5
s70.333 -17.167 99 -28.5l-135 -692h-141zM220.999 96.001c37.333 0 80 30.999 128 92.999l44 226c-20 3.33301 -35 5 -45 5c-29.333 0 -57.333 -10.667 -84 -32s-48.667 -51.166 -66 -89.499s-26 -78.833 -26 -121.5c0 -54 16.333 -81 49 -81z" />
    <glyph glyph-name="r" unicode="r" horiz-adv-x="402" 
d="M21 0l99.001 510.999h115l2 -88c21.333 28.667 46 51.334 74 68.001s56.333 25 85 25c16.667 0 32 -2 46 -6l-26 -132c-20.667 4 -40.334 6 -59.001 6c-48.667 0 -91.667 -19 -129 -57l-65 -327h-142z" />
    <glyph glyph-name="s" unicode="s" horiz-adv-x="445" 
d="M159 221c-32.667 18 -56.3311 37.667 -70.998 59s-22 47.333 -22 78c0 50 18.833 90.5 56.5 121.5s87.167 46.5 148.5 46.5c29.333 0 58.166 -3.16699 86.499 -9.5s52.166 -15.166 71.499 -26.499l-19 -97c-16.667 8.66699 -37.167 15.5 -61.5 20.5
s-48.166 7.5 -71.499 7.5c-25.333 0 -44.5 -4.16699 -57.5 -12.5s-19.5 -20.5 -19.5 -36.5c0 -9.33301 4.16699 -18 12.5 -26s24.166 -18.333 47.499 -31l44 -24c34 -18.667 58.167 -38.334 72.5 -59.001s21.5 -46.334 21.5 -77.001c0 -53.333 -19.333 -95.166 -58 -125.499
s-92.334 -45.5 -161.001 -45.5c-31.333 0 -63 3.5 -95 10.5s-60 16.833 -84 29.5l19 98c22 -9.33301 47.833 -17 77.5 -23s57.834 -9 84.501 -9c54 0 81 17 81 51c0 10 -3.5 18.5 -10.5 25.5s-23.167 17.167 -48.5 30.5z" />
    <glyph glyph-name="t" unicode="t" horiz-adv-x="411" 
d="M373 42c-18.667 -14.667 -41.832 -26.667 -69.499 -36s-54.834 -14 -81.501 -14c-100.667 0 -151 42.667 -151 128c0 20.667 5 55 15 103l36 182h-79l17 88l86 16l48 140h117l-27 -138h141l-21 -106h-140l-32 -169c-9.33301 -52 -14 -82.333 -14 -91
c0 -14.667 4.16699 -25.5 12.5 -32.5s21.5 -10.5 39.5 -10.5c22.667 0 47 5.66699 73 17z" />
    <glyph glyph-name="u" unicode="u" horiz-adv-x="587" 
d="M353 0v89c-24.667 -32.667 -52.667 -58.167 -84 -76.5s-62.333 -27.5 -93 -27.5c-44 0 -77.167 11.5 -99.5 34.5s-33.5 57.167 -33.5 102.5c0 30.667 4.66699 69.667 14 117l53 272h142l-53 -274c-8 -42.667 -12 -73 -12 -91s3.33301 -30.5 10 -37.5
s17.667 -10.5 33 -10.5c18 0 38.333 7.5 61 22.5s45.667 35.833 69 62.5l65 328h142l-99 -511h-115z" />
    <glyph glyph-name="v" unicode="v" horiz-adv-x="514" 
d="M138 0l-89.998 510.999h149l38 -382c63.333 118.667 119.333 246 168 382h145c-26.667 -70.667 -64.834 -151.667 -114.501 -243s-103.834 -180.666 -162.501 -267.999h-133z" />
    <glyph glyph-name="w" unicode="w" horiz-adv-x="775" 
d="M424 0l-18 363.002l-146 -363h-136l-72 511h147l25 -373l139 373h137l21 -382c58 126.667 104.333 254 139 382h143c-12 -39.333 -31 -88.833 -57 -148.5s-56 -122.834 -90 -189.501s-66 -124.334 -96 -173.001h-136z" />
    <glyph glyph-name="x" unicode="x" horiz-adv-x="498" 
d="M300 0l-67 161l-121 -161h-156l227 263l-123 248h147l63 -155l115 155h156l-218 -252l124 -259h-147z" />
    <glyph glyph-name="y" unicode="y" horiz-adv-x="495" 
d="M-70 -127c58 22.667 100.001 43 126.001 61c28 19.333 53.667 43.333 77 72l-97 505h149l46 -382c24.667 48.667 49.167 102.5 73.5 161.5s52.166 132.5 83.499 220.5h145c-32.667 -89.333 -78.167 -189 -136.5 -299s-110.5 -194 -156.5 -252
c-41.333 -52 -82 -92.5 -122 -121.5s-82.667 -48.5 -128 -58.5z" />
    <glyph glyph-name="z" unicode="z" horiz-adv-x="470" 
d="M-20 0l18 99l301 305h-232l21 107h402l-19 -99l-303 -305h249l-21 -107h-416z" />
    <glyph glyph-name="braceleft" unicode="{" horiz-adv-x="392" 
d="M325 -123c-37.333 -19.333 -77.3301 -29.0029 -119.997 -29.0029c-45.333 0 -80.333 11 -105 33s-37 53.333 -37 94c0 16.667 0.833008 31.834 2.5 45.501s5.5 34.834 11.5 63.501l15 78c6 29.333 9 49.666 9 60.999c0 14.667 -4.16699 25.167 -12.5 31.5
s-21.5 9.5 -39.5 9.5h-21l21 110h21c24.667 0 42.167 4.33301 52.5 13s17.833 25 22.5 49l26 135c25.333 127.333 92.666 191 201.999 191c31.333 0 65 -6.33301 101 -19l-19 -96c-25.333 4.66699 -43 7 -53 7c-24.667 0 -44 -7.16699 -58 -21.5s-23.667 -35.833 -29 -64.5
l-25 -129c-6 -33.333 -18.833 -59.666 -38.5 -78.999s-47.5 -33.333 -83.5 -42c26.667 -4.66699 46.5 -14 59.5 -28s19.5 -33 19.5 -57c0 -11.333 -4.33301 -38.666 -13 -81.999l-13 -70c-8.66699 -42.667 -13 -70 -13 -82c0 -13.333 4.16699 -23.833 12.5 -31.5
s20.166 -11.5 35.499 -11.5c21.333 0 36.666 2.33301 45.999 7z" />
    <glyph glyph-name="bar" unicode="|" horiz-adv-x="308" 
d="M-9 -206l187 960h144l-187 -960h-144z" />
    <glyph glyph-name="braceright" unicode="}" horiz-adv-x="392" 
d="M334 236c-24.667 0 -42.1689 -4.33301 -52.502 -13s-17.833 -25 -22.5 -49l-26 -135c-25.333 -127.333 -92.666 -191 -201.999 -191c-31.333 0 -65 6.33301 -101 19l19 96c25.333 -4.66699 43 -7 53 -7c24.667 0 44 7.16699 58 21.5s23.667 35.833 29 64.5l25 129
c6 32.667 18.833 58.834 38.5 78.501s47.167 33.834 82.5 42.501c-26.667 4.66699 -46.334 14 -59.001 28s-19 33 -19 57c0 11.333 4.33301 38.666 13 81.999l13 70c8.66699 42.667 13 70 13 82c0 13.333 -4.16699 23.833 -12.5 31.5s-20.166 11.5 -35.499 11.5
c-21.333 0 -36.666 -2.33301 -45.999 -7l-23 86c37.333 19.333 77.333 29 120 29c45.333 0 80.333 -11 105 -33s37 -53.333 37 -94c0 -16.667 -0.833008 -31.834 -2.5 -45.501s-5.5 -34.834 -11.5 -63.501l-15 -78c-6 -29.333 -9 -49.666 -9 -60.999
c0 -14.667 4.16699 -25.167 12.5 -31.5s21.5 -9.5 39.5 -9.5h21l-21 -110h-21z" />
    <glyph glyph-name="asciitilde" unicode="~" 
d="M464 441h98c0 -59.333 -14.333 -106.5 -43 -141.5s-67.334 -52.5 -116.001 -52.5c-39.333 0 -79.666 18 -120.999 54c-17.333 15.333 -31.166 25.666 -41.499 30.999s-20.5 8 -30.5 8c-27.333 0 -44 -16.333 -50 -49l-7 -38h-98c0 59.333 14.333 106.5 43 141.5
s67.334 52.5 116.001 52.5c39.333 0 79.666 -18 120.999 -54c17.333 -15.333 31.166 -25.666 41.499 -30.999s20.5 -8 30.5 -8c27.333 0 44 16.333 50 49z" />
    <glyph glyph-name="uni00A0" unicode="&#xa0;" horiz-adv-x="262" 
 />
    <glyph glyph-name="exclamdown" unicode="&#xa1;" horiz-adv-x="292" 
d="M103 278h111.999l-72 -460c-27.333 -12.667 -54.666 -19 -81.999 -19c-26 0 -50.667 6.33301 -74 19zM172.999 342c-25.333 0 -45 6.83301 -59 20.5s-21 32.5 -21 56.5c0 28 10 52.167 30 72.5s43.667 30.5 71 30.5c25.333 0 45 -6.83301 59 -20.5s21 -32.5 21 -56.5
c0 -28 -10 -52.167 -30 -72.5s-43.667 -30.5 -71 -30.5z" />
    <glyph glyph-name="cent" unicode="&#xa2;" 
d="M232 -130l28.001 146c-56.667 2 -101 20.167 -133 54.5s-48 80.833 -48 139.5c0 50.667 12.167 100.834 36.5 150.501s58 91.5 101 125.5s91.833 54.333 146.5 61l28 146h75l-28 -146c34 -2.66699 67.333 -11.334 100 -26.001l-19 -96c-35.333 10.667 -69 16.667 -101 18
l-61 -314c29.333 6 61.666 17 96.999 33l32 -81c-42 -29.333 -92 -49.333 -150 -60l-29 -151h-75zM219.001 221c0 -54 20.667 -85.668 62 -95.001l59 305c-36.667 -15.333 -66 -42.166 -88 -80.499s-33 -81.5 -33 -129.5z" />
    <glyph glyph-name="sterling" unicode="&#xa3;" 
d="M301 287c-11.333 -66.667 -43.001 -124 -95.001 -172h304l-23 -115h-453l21 106c64.667 36.667 103 97 115 181h-105l21 107h86c-2.66699 32 -4 56 -4 72c0 46 10.333 87.167 31 123.5s50.167 65 88.5 86s82.5 31.5 132.5 31.5c33.333 0 65.833 -5.16699 97.5 -15.5
s59.834 -24.833 84.501 -43.5l-22 -102c-51.333 28.667 -101 43 -149 43c-84.667 0 -127 -44 -127 -132c0 -8.66699 0.166992 -18.5 0.5 -29.5s0.5 -22.167 0.5 -33.5h184l-21 -107h-167z" />
    <glyph glyph-name="currency" unicode="&#xa4;" 
d="M432 52l-62 83c-27.333 -14 -63.333 -21 -108 -21c-36.667 0 -69 7.33301 -97 22l-95 -84l-71 76l92 79c-12.667 23.333 -19 54.333 -19 93c0 64.667 23 122.667 69 174l-64 81l102 73l62 -83c27.333 14 63.333 21 108 21c36.667 0 69 -7.33301 97 -22l95 84l71 -76
l-92 -79c12.667 -23.333 19 -54.333 19 -93c0 -64.667 -23 -122.667 -69 -174l64 -81zM281 208c38 0 70.167 16.333 96.5 49s39.5 72 39.5 118c0 32 -7.5 56.167 -22.5 72.5s-36.5 24.5 -64.5 24.5c-38 0 -70.167 -16.333 -96.5 -49s-39.5 -72 -39.5 -118
c0 -32 7.5 -56.167 22.5 -72.5s36.5 -24.5 64.5 -24.5z" />
    <glyph glyph-name="yen" unicode="&#xa5;" 
d="M331 143l-27 -143h-138l27 143h-154l16 85h155l5 26l-13 50h-133l16 85h93l-82 304h156l54 -325l188 325h154l-204 -304h93l-16 -85h-134l-34 -52l-5 -24h159l-16 -85h-160z" />
    <glyph glyph-name="brokenbar" unicode="&#xa6;" horiz-adv-x="308" 
d="M-9 -206l70 357h144l-70 -357h-144zM108 397l70 357h144l-70 -357h-144z" />
    <glyph glyph-name="section" unicode="&#xa7;" horiz-adv-x="482" 
d="M153 152c-42 22 -70.499 41.999 -85.499 59.999s-22.5 41 -22.5 69c0 39.333 11.5 72.333 34.5 99s55.833 45 98.5 55c-22.667 15.333 -39.167 31.833 -49.5 49.5s-15.5 38.5 -15.5 62.5c0 48.667 19 88 57 118s88 45 150 45c30.667 0 61.5 -3.33301 92.5 -10
s55.833 -15.334 74.5 -26.001l-19 -97c-17.333 8.66699 -38.666 15.5 -63.999 20.5s-50.333 7.5 -75 7.5c-57.333 0 -86 -16.667 -86 -50c0 -11.333 2.16699 -20 6.5 -26s17.166 -14.667 38.499 -26l70 -37c37.333 -19.333 63.833 -39 79.5 -59s23.5 -44.667 23.5 -74
c0 -71.333 -39 -122.333 -117 -153c33.333 -27.333 50 -63.666 50 -108.999c0 -52.667 -18.333 -93.5 -55 -122.5s-87.667 -43.5 -153 -43.5c-33.333 0 -66.833 3.66699 -100.5 11s-63.167 17 -88.5 29l19 98c22.667 -9.33301 50 -17.166 82 -23.499s61.333 -9.5 88 -9.5
c27.333 0 47.166 4 59.499 12s18.5 21 18.5 39c0 12.667 -4.33301 23.5 -13 32.5s-26.667 20.833 -54 35.5zM259.001 390.999c-28 -4.66699 -49.333 -13.835 -64 -27.502s-22 -31.834 -22 -54.501c0 -17.333 5.16699 -31.666 15.5 -42.999s28.833 -22.666 55.5 -33.999
l23 -10c22.667 8.66699 39.334 19.5 50.001 32.5s16 29.167 16 48.5c0 18.667 -5.33301 34.334 -16 47.001s-29.334 26 -56.001 40z" />
    <glyph glyph-name="dieresis" unicode="&#xa8;" horiz-adv-x="601" 
d="M261 587c-46.667 0 -70 20.333 -70 61c0 24 8.66699 44.167 26 60.5s38.666 24.5 63.999 24.5c46.667 0 70 -20.333 70 -61c0 -24 -8.66699 -44.167 -26 -60.5s-38.666 -24.5 -63.999 -24.5zM491 587c-46.667 0 -70 20.333 -70 61c0 24 8.66699 44.167 26 60.5
s38.666 24.5 63.999 24.5c46.667 0 70 -20.333 70 -61c0 -24 -8.66699 -44.167 -26 -60.5s-38.666 -24.5 -63.999 -24.5z" />
    <glyph glyph-name="copyright" unicode="&#xa9;" horiz-adv-x="782" 
d="M777 345c0 -68 -15 -129.333 -45 -184s-73.167 -98 -129.5 -130s-121.166 -48 -194.499 -48c-69.333 0 -131.833 14.833 -187.5 44.5s-99.834 72 -132.501 127s-49 118.5 -49 190.5c0 68 15.167 129.333 45.5 184s73.666 98 129.999 130s120.833 48 193.5 48
c69.333 0 131.833 -14.833 187.5 -44.5s99.834 -72 132.501 -127s49 -118.5 49 -190.5zM408 63c53.333 0 100.667 11.333 142 34s73.5 55.334 96.5 98.001s34.5 92.667 34.5 150c0 55.333 -11 104.166 -33 146.499s-53.667 75.5 -95 99.5s-89.666 36 -144.999 36
c-53.333 0 -100.5 -11.333 -141.5 -34s-73.167 -55.334 -96.5 -98.001s-35 -92.667 -35 -150c0 -55.333 11 -104.166 33 -146.499s53.667 -75.5 95 -99.5s89.666 -36 144.999 -36zM531.001 163c-31.333 -14.667 -64.666 -22 -99.999 -22
c-62.667 0 -110.834 17.667 -144.501 53s-50.5 86.333 -50.5 153c0 64.667 17.333 115.167 52 151.5s82.667 54.5 144 54.5c16.667 0 33.5 -1.66699 50.5 -5s31.5 -8 43.5 -14v-79c-30.667 6.66699 -57.667 10 -81 10c-31.333 0 -55.333 -9.16699 -72 -27.5
s-25 -44.5 -25 -78.5v-22c0 -70.667 34 -106 102 -106c22.667 0 49.667 4.66699 81 14v-82z" />
    <glyph glyph-name="ordfeminine" unicode="&#xaa;" horiz-adv-x="406" 
d="M267 631c-36 0 -77.333 -9.00098 -124 -27.001l-16 67c22.667 12 48.167 21.333 76.5 28s55.833 10 82.5 10c43.333 0 76.333 -8.16699 99 -24.5s34 -40.833 34 -73.5c0 -10.667 -2.33301 -27 -7 -49l-42 -216h-83l-3 39c-41.333 -32.667 -81.333 -49 -120 -49
c-26 0 -47 8.16699 -63 24.5s-24 37.833 -24 64.5c0 39.333 13.5 70.5 40.5 93.5s63.5 34.5 109.5 34.5c24.667 0 51.667 -3.33301 81 -10l4 22c2.66699 12.667 4 22.334 4 29.001c0 24.667 -16.333 37 -49 37zM39 195.999l16 80h302l-16 -80h-302zM218 406.999
c8 0 16.6689 1.83203 26.002 5.49902s23.666 10.834 42.999 21.501l10 53c-20.667 4.66699 -39.334 7 -56.001 7c-18 0 -32.5 -4.83301 -43.5 -14.5s-16.5 -22.167 -16.5 -37.5c0 -11.333 3.33301 -20 10 -26s15.667 -9 27 -9z" />
    <glyph glyph-name="guillemotleft" unicode="&#xab;" horiz-adv-x="595" 
d="M145 51l-101 208l182 208h136l-180 -213l93 -203h-130zM382 51l-101 208l182 208h136l-180 -213l93 -203h-130z" />
    <glyph glyph-name="logicalnot" unicode="&#xac;" 
d="M394 203l35 177h-346l21 110h466l-56 -287h-120z" />
    <glyph glyph-name="uni00AD" unicode="&#xad;" horiz-adv-x="423" 
d="M38 199l23 118h328l-23 -118h-328z" />
    <glyph glyph-name="registered" unicode="&#xae;" horiz-adv-x="534" 
d="M557 513c0 -45.333 -10 -86.333 -30 -123s-48.667 -65.667 -86 -87s-80.333 -32 -129 -32c-46 0 -87.5 9.83301 -124.5 29.5s-66.333 48 -88 85s-32.5 79.167 -32.5 126.5c0 45.333 10 86.333 30 123s48.667 65.667 86 87s80.333 32 129 32
c46 0 87.5 -9.83301 124.5 -29.5s66.333 -48 88 -85s32.5 -79.167 32.5 -126.5zM312 319c56 0 101.167 17.667 135.5 53s51.5 82.333 51.5 141s-17 105.5 -51 140.5s-79.333 52.5 -136 52.5c-56 0 -101.167 -17.667 -135.5 -53s-51.5 -82.333 -51.5 -141
s17 -105.5 51 -140.5s79.333 -52.5 136 -52.5zM216 384l0.000976562 262h104c29.333 0 52.166 -7.5 68.499 -22.5s24.5 -36.167 24.5 -63.5c0 -32 -16 -55.333 -48 -70l66 -106h-68l-55 95h-32v-95h-60zM276.001 529h32.999c26 0 39 10 39 30c0 10.667 -3.16699 19 -9.5 25
s-15.166 9 -26.499 9h-36v-64z" />
    <glyph glyph-name="macron" unicode="&#xaf;" horiz-adv-x="601" 
d="M205 623l17 88h337l-17 -88h-337z" />
    <glyph glyph-name="degree" unicode="&#xb0;" horiz-adv-x="309" 
d="M340 579c0 -30 -7 -57.5 -21 -82.5s-33.833 -45.167 -59.5 -60.5s-54.5 -23 -86.5 -23c-37.333 0 -67 11 -89 33s-33 51.667 -33 89c0 30 7 57.5 21 82.5s33.833 45.167 59.5 60.5s54.5 23 86.5 23c37.333 0 67 -11 89 -33s33 -51.667 33 -89zM183 488
c20 0 36.667 8 50 24s20 35.667 20 59c0 17.333 -4 30.833 -12 40.5s-19 14.5 -33 14.5c-20 0 -36.667 -8 -50 -24s-20 -35.667 -20 -59c0 -17.333 4 -30.833 12 -40.5s19 -14.5 33 -14.5z" />
    <glyph glyph-name="plusminus" unicode="&#xb1;" 
d="M366 361l-36 -183h-120l36 183h-170l21 110h170l36 183h120l-36 -183h176l-21 -110h-176zM14 1l21 110h466l-21 -110h-466z" />
    <glyph glyph-name="uni00B2" unicode="&#xb2;" horiz-adv-x="410" 
d="M90 390l13.999 68.998c77.333 56 132.166 100.167 164.499 132.5s48.5 59.5 48.5 81.5c0 12.667 -3.66699 22.334 -11 29.001s-17.666 10 -30.999 10c-14 0 -29 -3.16699 -45 -9.5s-36.667 -17.833 -62 -34.5l-17 71c51.333 38 102.333 57 153 57
c38.667 0 68.834 -8.66699 90.501 -26s32.5 -41.666 32.5 -72.999c0 -33.333 -14.5 -67.5 -43.5 -102.5s-77.167 -75.5 -144.5 -121.5h157l-17 -83h-289z" />
    <glyph glyph-name="uni00B3" unicode="&#xb3;" horiz-adv-x="410" 
d="M304 616l4.99707 -0.000976562c30.667 0 54.834 -8.33301 72.501 -25s26.5 -38.667 26.5 -66s-7.5 -51.833 -22.5 -73.5s-36.667 -39 -65 -52s-59.166 -19.5 -92.499 -19.5c-46 0 -89 9 -129 27l14 75c38.667 -13.333 76.334 -20 113.001 -20c24.667 0 44.5 5 59.5 15
s22.5 23.333 22.5 40c0 14.667 -5.16699 25.334 -15.5 32.001s-25.833 10 -46.5 10c-13.333 0 -35.333 -1.33301 -66 -4l10 48l118 103h-150l16 80h262l-14 -70z" />
    <glyph glyph-name="acute" unicode="&#xb4;" horiz-adv-x="601" 
d="M270 600l124 169h160l-167 -169h-117z" />
    <glyph glyph-name="mu" unicode="&#xb5;" 
d="M571 24c-14.667 -9.33301 -32.998 -16.834 -54.998 -22.501s-43 -8.5 -63 -8.5c-60 0 -96 28.333 -108 85c-17.333 -28 -39.333 -50.5 -66 -67.5s-52.667 -25.5 -78 -25.5c-14 0 -27.5 3.16699 -40.5 9.5s-23.833 15.5 -32.5 27.5l-44 -228h-132l140 717h142l-53 -274
c-7.33301 -39.333 -11 -69.666 -11 -90.999c0 -14.667 4.33301 -26.5 13 -35.5s20 -13.5 34 -13.5c20.667 0 41.667 6.5 63 19.5s41.666 31.5 60.999 55.5l66 339h142l-56 -286c-8.66699 -44 -13 -74 -13 -90c0 -11.333 3.16699 -20 9.5 -26s15.166 -9 26.499 -9
c9.33301 0 19 1.66699 29 5z" />
    <glyph glyph-name="paragraph" unicode="&#xb6;" horiz-adv-x="613" 
d="M353 -104l135 694.999h-82l-155 -797h-107l86 438c-56 20.667 -96.5 47.667 -121.5 81s-37.5 77 -37.5 131c0 78.667 24.167 139.834 72.5 183.501s115.833 65.5 202.5 65.5h269l-155 -797h-107z" />
    <glyph glyph-name="periodcentered" unicode="&#xb7;" horiz-adv-x="282" 
d="M131 168c-25.333 0 -45 6.83301 -59 20.5s-21 32.5 -21 56.5c0 28 10 52.167 30 72.5s43.667 30.5 71 30.5c25.333 0 45 -6.83301 59 -20.5s21 -32.5 21 -56.5c0 -28 -10 -52.167 -30 -72.5s-43.667 -30.5 -71 -30.5z" />
    <glyph glyph-name="cedilla" unicode="&#xb8;" horiz-adv-x="601" 
d="M116 -240c33.333 18 57.332 33.166 71.999 45.499s22 23.5 22 33.5c0 15.333 -9.66699 23 -29 23c-6 0 -17 -1 -33 -3l15 71c23.333 7.33301 47 11 71 11c26.667 0 47.334 -5.83301 62.001 -17.5s22 -28.167 22 -49.5c0 -29.333 -12.333 -56.666 -37 -81.999
s-64.667 -52.333 -120 -81z" />
    <glyph glyph-name="uni00B9" unicode="&#xb9;" horiz-adv-x="410" 
d="M214 390l57 296l-126 -36l15 79l139 57h97l-77 -396h-105z" />
    <glyph glyph-name="ordmasculine" unicode="&#xba;" horiz-adv-x="424" 
d="M38 196l16 80h319l-16 -80h-319zM229 328c-44.667 0 -80.167 13 -106.5 39s-39.5 61.333 -39.5 106c0 44 8.5 83.833 25.5 119.5s41.167 64.167 72.5 85.5s67.333 32 108 32c44.667 0 80.167 -13 106.5 -39s39.5 -61.333 39.5 -106c0 -44 -8.5 -83.833 -25.5 -119.5
s-41.167 -64.167 -72.5 -85.5s-67.333 -32 -108 -32zM238 413c26 0 47.5 13.499 64.5 40.499s25.5 61.5 25.5 103.5c0 21.333 -4.33301 38 -13 50s-20.334 18 -35.001 18c-26 0 -47.5 -13.667 -64.5 -41s-25.5 -61.666 -25.5 -102.999c0 -21.333 4.33301 -38 13 -50
s20.334 -18 35.001 -18z" />
    <glyph glyph-name="guillemotright" unicode="&#xbb;" horiz-adv-x="595" 
d="M4 51l180 213l-93 203h130l101 -208l-182 -208h-136zM241 51l180 213l-93 203h130l101 -208l-182 -208h-136z" />
    <glyph glyph-name="onequarter" unicode="&#xbc;" horiz-adv-x="940" 
d="M209 0l452 693h110l-452 -693h-110zM715 0l15 78h-192l14 73l233 251h103l-49 -251h62l-14 -73h-62l-15 -78h-95zM744 151l27 138l-129 -138h102zM185 297l57 296l-126 -36l15 79l139 57h97l-77 -396h-105z" />
    <glyph glyph-name="onehalf" unicode="&#xbd;" horiz-adv-x="940" 
d="M195 0l452 693h110l-452 -693h-110zM547 0l13.999 68.998c77.333 56 132.166 100.167 164.499 132.5s48.5 59.5 48.5 81.5c0 12.667 -3.66699 22.334 -11 29.001s-17.666 10 -30.999 10c-14 0 -29 -3.16699 -45 -9.5s-36.667 -17.833 -62 -34.5l-17 71
c51.333 38 102.333 57 153 57c38.667 0 68.834 -8.66699 90.501 -26s32.5 -41.666 32.5 -72.999c0 -33.333 -14.5 -67.5 -43.5 -102.5s-77.167 -75.5 -144.5 -121.5h157l-17 -83h-289zM184.999 296.998l57 296l-126 -36l15 79l139 57h97l-77 -396h-105z" />
    <glyph glyph-name="threequarters" unicode="&#xbe;" horiz-adv-x="940" 
d="M228 0l452 693h110l-452 -693h-110zM715 0l15 78h-192l14 73l233 251h103l-49 -251h62l-14 -73h-62l-15 -78h-95zM744 151l27 138l-129 -138h102zM280 523l4.99707 -0.000976562c30.667 0 54.834 -8.33301 72.501 -25s26.5 -38.667 26.5 -66s-7.5 -51.833 -22.5 -73.5
s-36.667 -39 -65 -52s-59.166 -19.5 -92.499 -19.5c-46 0 -89 9 -129 27l14 75c38.667 -13.333 76.334 -20 113.001 -20c24.667 0 44.5 5 59.5 15s22.5 23.333 22.5 40c0 14.667 -5.16699 25.334 -15.5 32.001s-25.833 10 -46.5 10c-13.333 0 -35.333 -1.33301 -66 -4l10 48
l118 103h-150l16 80h262l-14 -70z" />
    <glyph glyph-name="questiondown" unicode="&#xbf;" horiz-adv-x="437" 
d="M348 -132c-25.333 -21.333 -54.666 -38.166 -87.999 -50.499s-66.333 -18.5 -99 -18.5c-34.667 0 -66.5 6.66699 -95.5 20s-51.667 32.333 -68 57s-24.5 54 -24.5 88c0 50 17.5 94 52.5 132s88.833 71 161.5 99l21 83h109l-20 -138l-59 -28
c-82 -38.667 -123 -84.334 -123 -137.001c0 -18 6.66699 -32.167 20 -42.5s31.666 -15.5 54.999 -15.5c43.333 0 89.333 16.333 138 49zM271 342c-25.333 0 -45 6.83301 -59 20.5s-21 32.5 -21 56.5c0 28 10 52.167 30 72.5s43.667 30.5 71 30.5
c25.333 0 45 -6.83301 59 -20.5s21 -32.5 21 -56.5c0 -28 -10 -52.167 -30 -72.5s-43.667 -30.5 -71 -30.5z" />
    <glyph glyph-name="Agrave" unicode="&#xc0;" horiz-adv-x="631" 
d="M433 0l-16 159h-231l-76 -159h-155l370 693h161l101 -693h-154zM237 265h171l-30 292zM349 769l-108 129h150l79 -129h-121z" />
    <glyph glyph-name="Aacute" unicode="&#xc1;" horiz-adv-x="631" 
d="M433 0l-16 159h-231l-76 -159h-155l370 693h161l101 -693h-154zM237 265h171l-30 292zM472 769h-121l121 129h158z" />
    <glyph glyph-name="Acircumflex" unicode="&#xc2;" horiz-adv-x="631" 
d="M433 0l-16 159h-231l-76 -159h-155l370 693h161l101 -693h-154zM237 265h171l-30 292zM490 769l-61 75l-90 -75h-131l157 141h147l103 -141h-125z" />
    <glyph glyph-name="Atilde" unicode="&#xc3;" horiz-adv-x="631" 
d="M433 0l-16 159h-231l-76 -159h-155l370 693h161l101 -693h-154zM237 265h171l-30 292zM535 906h79.998c0 -9.33301 -1.66699 -22.333 -5 -39c-7.33301 -32.667 -22 -58 -44 -76s-48.667 -27 -80 -27c-18 0 -33.167 2.66699 -45.5 8s-25.5 14.666 -39.5 27.999
c-15.333 14 -25.166 22.5 -29.499 25.5s-9.5 4.5 -15.5 4.5c-14.667 0 -24.667 -9.66699 -30 -29l-9 -34h-80c0.666992 13.333 2.33398 26.333 5.00098 39c6 32 20.167 57.167 42.5 75.5s49.5 27.5 81.5 27.5c17.333 0 32 -2.5 44 -7.5s25.667 -14.5 41 -28.5
c14 -13.333 23.5 -21.666 28.5 -24.999s10.5 -5 16.5 -5c14.667 0 24.667 9.66699 30 29z" />
    <glyph glyph-name="Adieresis" unicode="&#xc4;" horiz-adv-x="631" 
d="M433 0l-16 159h-231l-76 -159h-155l370 693h161l101 -693h-154zM237 265h171l-30 292zM308 770c-23.333 0 -41.166 5.33203 -53.499 15.999s-18.5 26.334 -18.5 47.001c0 23.333 9 43.5 27 60.5s39.667 25.5 65 25.5c23.333 0 41.166 -5.33301 53.499 -16
s18.5 -26 18.5 -46c0 -24 -9 -44.5 -27 -61.5s-39.667 -25.5 -65 -25.5zM534 769.999c-23.333 0 -41.166 5.33203 -53.499 15.999s-18.5 26.334 -18.5 47.001c0 23.333 9 43.5 27 60.5s39.667 25.5 65 25.5c23.333 0 41.166 -5.33301 53.499 -16s18.5 -26 18.5 -46
c0 -24 -9 -44.5 -27 -61.5s-39.667 -25.5 -65 -25.5z" />
    <glyph glyph-name="Aring" unicode="&#xc5;" horiz-adv-x="631" 
d="M433 0l-16 159h-231l-76 -159h-155l370 693h161l101 -693h-154zM237 265h171l-30 292zM556 853c0 -34.667 -13.167 -63.334 -39.5 -86.001s-59.166 -34 -98.499 -34c-32.667 0 -58.5 8 -77.5 24s-28.5 38 -28.5 66c0 34.667 13.167 63.334 39.5 86.001
s59.166 34 98.499 34c32.667 0 58.5 -8 77.5 -24s28.5 -38 28.5 -66zM426 793c15.333 0 27.666 5.5 36.999 16.5s14 23.833 14 38.5c0 10.667 -3.16699 19.167 -9.5 25.5s-14.833 9.5 -25.5 9.5c-15.333 0 -27.666 -5.5 -36.999 -16.5s-14 -23.833 -14 -38.5
c0 -10.667 3.16699 -19.167 9.5 -25.5s14.833 -9.5 25.5 -9.5z" />
    <glyph glyph-name="AE" unicode="&#xc6;" horiz-adv-x="924" 
d="M395 0l31 159h-227l-107 -159h-152l487 693h545l-22 -114h-297l-33 -167h242l-22 -114h-242l-36 -184h297l-22 -114h-442zM271 265h177l60 314h-25z" />
    <glyph glyph-name="Ccedilla" unicode="&#xc7;" horiz-adv-x="601" 
d="M554 55c-37.333 -26 -74.665 -44.834 -111.998 -56.501s-77.333 -17.5 -120 -17.5c-83.333 0 -149 25.333 -197 76s-72 120.334 -72 209.001c0 78 17.167 150.667 51.5 218s82.666 121.833 144.999 163.5s131.833 62.5 208.5 62.5c61.333 0 115.666 -12.667 162.999 -38
l-22 -111c-44 18 -89.333 27 -136 27c-48 0 -91.333 -12.667 -130 -38s-69.5 -61.5 -92.5 -108.5s-34.5 -100.167 -34.5 -159.5c0 -118.667 47 -178 141 -178c52.667 0 111 18.333 175 55zM191.001 -239.001c33.333 18 57.166 32.999 71.499 44.999s21.5 23 21.5 33
c0 14 -9 21 -27 21c-6 0 -17 -1 -33 -3l15 73c23.333 7.33301 47 11 71 11c26.667 0 47.334 -5.83301 62.001 -17.5s22 -28.167 22 -49.5c0 -29.333 -12.333 -56.666 -37 -81.999s-64.667 -52.333 -120 -81z" />
    <glyph glyph-name="Egrave" unicode="&#xc8;" horiz-adv-x="566" 
d="M37 0l135 693h442l-22 -114h-297l-33 -167h242l-22 -114h-242l-36 -184h297l-22 -114h-442zM336 769l-108 129h150l79 -129h-121z" />
    <glyph glyph-name="Eacute" unicode="&#xc9;" horiz-adv-x="566" 
d="M37 0l135 693h442l-22 -114h-297l-33 -167h242l-22 -114h-242l-36 -184h297l-22 -114h-442zM459 769h-121l121 129h158z" />
    <glyph glyph-name="Ecircumflex" unicode="&#xca;" horiz-adv-x="566" 
d="M37 0l135 693h442l-22 -114h-297l-33 -167h242l-22 -114h-242l-36 -184h297l-22 -114h-442zM477 769l-61 75l-90 -75h-131l157 141h147l103 -141h-125z" />
    <glyph glyph-name="Edieresis" unicode="&#xcb;" horiz-adv-x="566" 
d="M37 0l135 693h442l-22 -114h-297l-33 -167h242l-22 -114h-242l-36 -184h297l-22 -114h-442zM295 770c-23.333 0 -41.166 5.33203 -53.499 15.999s-18.5 26.334 -18.5 47.001c0 23.333 9 43.5 27 60.5s39.667 25.5 65 25.5c23.333 0 41.166 -5.33301 53.499 -16
s18.5 -26 18.5 -46c0 -24 -9 -44.5 -27 -61.5s-39.667 -25.5 -65 -25.5zM521 769.999c-23.333 0 -41.166 5.33203 -53.499 15.999s-18.5 26.334 -18.5 47.001c0 23.333 9 43.5 27 60.5s39.667 25.5 65 25.5c23.333 0 41.166 -5.33301 53.499 -16s18.5 -26 18.5 -46
c0 -24 -9 -44.5 -27 -61.5s-39.667 -25.5 -65 -25.5z" />
    <glyph glyph-name="Igrave" unicode="&#xcc;" horiz-adv-x="329" 
d="M41 0l135 693h145l-135 -693h-145zM192 769l-108 129h150l79 -129h-121z" />
    <glyph glyph-name="Iacute" unicode="&#xcd;" horiz-adv-x="329" 
d="M41 0l135 693h145l-135 -693h-145zM315 769h-121l121 129h158z" />
    <glyph glyph-name="Icircumflex" unicode="&#xce;" horiz-adv-x="329" 
d="M41 0l135 693h145l-135 -693h-145zM333 769l-61 75l-90 -75h-131l157 141h147l103 -141h-125z" />
    <glyph glyph-name="Idieresis" unicode="&#xcf;" horiz-adv-x="329" 
d="M41 0l135 693h145l-135 -693h-145zM151 770c-23.333 0 -41.166 5.33203 -53.499 15.999s-18.5 26.334 -18.5 47.001c0 23.333 9 43.5 27 60.5s39.667 25.5 65 25.5c23.333 0 41.166 -5.33301 53.499 -16s18.5 -26 18.5 -46c0 -24 -9 -44.5 -27 -61.5
s-39.667 -25.5 -65 -25.5zM377 769.999c-23.333 0 -41.166 5.33203 -53.499 15.999s-18.5 26.334 -18.5 47.001c0 23.333 9 43.5 27 60.5s39.667 25.5 65 25.5c23.333 0 41.166 -5.33301 53.499 -16s18.5 -26 18.5 -46c0 -24 -9 -44.5 -27 -61.5s-39.667 -25.5 -65 -25.5z
" />
    <glyph glyph-name="Eth" unicode="&#xd0;" horiz-adv-x="711" 
d="M47 0l59.999 306.999h-80l19 100h80l56 286h230c89.333 0 159 -24.333 209 -73s75 -115.667 75 -201c0 -76 -16.333 -145.667 -49 -209s-79.167 -114.166 -139.5 -152.499s-128.166 -57.5 -203.499 -57.5h-257zM251.999 306.999l-37.002 -193.001h87
c44.667 0 85.334 12.333 122.001 37s66.167 59.334 88.5 104.001s33.5 96 33.5 154c0 55.333 -12.167 97.5 -36.5 126.5s-60.166 43.5 -107.499 43.5h-97l-33 -172h141l-19 -100h-142z" />
    <glyph glyph-name="Ntilde" unicode="&#xd1;" horiz-adv-x="732" 
d="M440 0l-178 492l-95 -492h-130l135 693h153l177 -491l96 491h130l-135 -693h-153zM580 906h79.998c0 -9.33301 -1.66699 -22.333 -5 -39c-7.33301 -32.667 -22 -58 -44 -76s-48.667 -27 -80 -27c-18 0 -33.167 2.66699 -45.5 8s-25.5 14.666 -39.5 27.999
c-15.333 14 -25.166 22.5 -29.499 25.5s-9.5 4.5 -15.5 4.5c-14.667 0 -24.667 -9.66699 -30 -29l-9 -34h-80c0.666992 13.333 2.33398 26.333 5.00098 39c6 32 20.167 57.167 42.5 75.5s49.5 27.5 81.5 27.5c17.333 0 32 -2.5 44 -7.5s25.667 -14.5 41 -28.5
c14 -13.333 23.5 -21.666 28.5 -24.999s10.5 -5 16.5 -5c14.667 0 24.667 9.66699 30 29z" />
    <glyph glyph-name="Ograve" unicode="&#xd2;" horiz-adv-x="751" 
d="M339 -17c-88.667 0 -158.502 25.498 -209.502 76.498s-76.5 120.833 -76.5 209.5c0 82.667 15.833 157.334 47.5 224.001s76.5 119.667 134.5 159s124.667 59 200 59c88.667 0 158.5 -25.5 209.5 -76.5s76.5 -121.167 76.5 -210.5c0 -82.667 -15.667 -157.167 -47 -223.5
s-76.166 -119.166 -134.499 -158.499s-125.166 -59 -200.499 -59zM348.998 102.998c40.667 0 77.668 12.8301 111.001 38.4971s60.166 62.334 80.499 110.001s30.5 101.834 30.5 162.501c0 56.667 -12.667 100.334 -38 131.001s-61.333 46 -108 46
c-30 0 -58.167 -7.16699 -84.5 -21.5s-49.833 -35.333 -70.5 -63s-37 -61 -49 -100s-18 -81.833 -18 -128.5c0 -56 12.667 -99.167 38 -129.5s61.333 -45.5 108 -45.5zM398.999 768.995l-108 129h150l79 -129h-121z" />
    <glyph glyph-name="Oacute" unicode="&#xd3;" horiz-adv-x="751" 
d="M339 -17c-88.667 0 -158.502 25.498 -209.502 76.498s-76.5 120.833 -76.5 209.5c0 82.667 15.833 157.334 47.5 224.001s76.5 119.667 134.5 159s124.667 59 200 59c88.667 0 158.5 -25.5 209.5 -76.5s76.5 -121.167 76.5 -210.5c0 -82.667 -15.667 -157.167 -47 -223.5
s-76.166 -119.166 -134.499 -158.499s-125.166 -59 -200.499 -59zM348.998 102.998c40.667 0 77.668 12.8301 111.001 38.4971s60.166 62.334 80.499 110.001s30.5 101.834 30.5 162.501c0 56.667 -12.667 100.334 -38 131.001s-61.333 46 -108 46
c-30 0 -58.167 -7.16699 -84.5 -21.5s-49.833 -35.333 -70.5 -63s-37 -61 -49 -100s-18 -81.833 -18 -128.5c0 -56 12.667 -99.167 38 -129.5s61.333 -45.5 108 -45.5zM521.999 768.995h-121l121 129h158z" />
    <glyph glyph-name="Ocircumflex" unicode="&#xd4;" horiz-adv-x="751" 
d="M339 -17c-88.667 0 -158.502 25.498 -209.502 76.498s-76.5 120.833 -76.5 209.5c0 82.667 15.833 157.334 47.5 224.001s76.5 119.667 134.5 159s124.667 59 200 59c88.667 0 158.5 -25.5 209.5 -76.5s76.5 -121.167 76.5 -210.5c0 -82.667 -15.667 -157.167 -47 -223.5
s-76.166 -119.166 -134.499 -158.499s-125.166 -59 -200.499 -59zM348.998 102.998c40.667 0 77.668 12.8301 111.001 38.4971s60.166 62.334 80.499 110.001s30.5 101.834 30.5 162.501c0 56.667 -12.667 100.334 -38 131.001s-61.333 46 -108 46
c-30 0 -58.167 -7.16699 -84.5 -21.5s-49.833 -35.333 -70.5 -63s-37 -61 -49 -100s-18 -81.833 -18 -128.5c0 -56 12.667 -99.167 38 -129.5s61.333 -45.5 108 -45.5zM539.999 768.995l-61 75l-90 -75h-131l157 141h147l103 -141h-125z" />
    <glyph glyph-name="Otilde" unicode="&#xd5;" horiz-adv-x="751" 
d="M339 -17c-88.667 0 -158.502 25.498 -209.502 76.498s-76.5 120.833 -76.5 209.5c0 82.667 15.833 157.334 47.5 224.001s76.5 119.667 134.5 159s124.667 59 200 59c88.667 0 158.5 -25.5 209.5 -76.5s76.5 -121.167 76.5 -210.5c0 -82.667 -15.667 -157.167 -47 -223.5
s-76.166 -119.166 -134.499 -158.499s-125.166 -59 -200.499 -59zM348.998 102.998c40.667 0 77.668 12.8301 111.001 38.4971s60.166 62.334 80.499 110.001s30.5 101.834 30.5 162.501c0 56.667 -12.667 100.334 -38 131.001s-61.333 46 -108 46
c-30 0 -58.167 -7.16699 -84.5 -21.5s-49.833 -35.333 -70.5 -63s-37 -61 -49 -100s-18 -81.833 -18 -128.5c0 -56 12.667 -99.167 38 -129.5s61.333 -45.5 108 -45.5zM584.999 905.995h79.998c0 -9.33301 -1.66699 -22.333 -5 -39c-7.33301 -32.667 -22 -58 -44 -76
s-48.667 -27 -80 -27c-18 0 -33.167 2.66699 -45.5 8s-25.5 14.666 -39.5 27.999c-15.333 14 -25.166 22.5 -29.499 25.5s-9.5 4.5 -15.5 4.5c-14.667 0 -24.667 -9.66699 -30 -29l-9 -34h-80c0.666992 13.333 2.33398 26.333 5.00098 39c6 32 20.167 57.167 42.5 75.5
s49.5 27.5 81.5 27.5c17.333 0 32 -2.5 44 -7.5s25.667 -14.5 41 -28.5c14 -13.333 23.5 -21.666 28.5 -24.999s10.5 -5 16.5 -5c14.667 0 24.667 9.66699 30 29z" />
    <glyph glyph-name="Odieresis" unicode="&#xd6;" horiz-adv-x="751" 
d="M339 -17c-88.667 0 -158.502 25.498 -209.502 76.498s-76.5 120.833 -76.5 209.5c0 82.667 15.833 157.334 47.5 224.001s76.5 119.667 134.5 159s124.667 59 200 59c88.667 0 158.5 -25.5 209.5 -76.5s76.5 -121.167 76.5 -210.5c0 -82.667 -15.667 -157.167 -47 -223.5
s-76.166 -119.166 -134.499 -158.499s-125.166 -59 -200.499 -59zM348.998 102.998c40.667 0 77.668 12.8301 111.001 38.4971s60.166 62.334 80.499 110.001s30.5 101.834 30.5 162.501c0 56.667 -12.667 100.334 -38 131.001s-61.333 46 -108 46
c-30 0 -58.167 -7.16699 -84.5 -21.5s-49.833 -35.333 -70.5 -63s-37 -61 -49 -100s-18 -81.833 -18 -128.5c0 -56 12.667 -99.167 38 -129.5s61.333 -45.5 108 -45.5zM357.999 769.995c-23.333 0 -41.166 5.33203 -53.499 15.999s-18.5 26.334 -18.5 47.001
c0 23.333 9 43.5 27 60.5s39.667 25.5 65 25.5c23.333 0 41.166 -5.33301 53.499 -16s18.5 -26 18.5 -46c0 -24 -9 -44.5 -27 -61.5s-39.667 -25.5 -65 -25.5zM583.999 769.994c-23.333 0 -41.166 5.33203 -53.499 15.999s-18.5 26.334 -18.5 47.001
c0 23.333 9 43.5 27 60.5s39.667 25.5 65 25.5c23.333 0 41.166 -5.33301 53.499 -16s18.5 -26 18.5 -46c0 -24 -9 -44.5 -27 -61.5s-39.667 -25.5 -65 -25.5z" />
    <glyph glyph-name="multiply" unicode="&#xd7;" 
d="M415 120l-113 144l-172 -144l-63 78l175 148l-116 148l88 67l113 -144l172 144l63 -78l-175 -148l116 -148z" />
    <glyph glyph-name="Oslash" unicode="&#xd8;" horiz-adv-x="751" 
d="M-8 8l99.998 99.998c-26 44 -39 97.667 -39 161c0 82.667 15.833 157.334 47.5 224.001s76.5 119.667 134.5 159s124.667 59 200 59c80 0 145 -21 195 -63l86 86l61 -57l-94 -94c25.333 -44.667 38 -97.667 38 -159c0 -82.667 -15.667 -157.167 -47 -223.5
s-76.166 -119.166 -134.499 -158.499s-125.166 -59 -200.499 -59c-80 0 -144.333 20.333 -193 61l-93 -93zM202.998 277.998c0 -22 1.33301 -40 4 -54l323 324c-24.667 28.667 -59.667 43 -105 43c-30 0 -58.167 -7.16699 -84.5 -21.5s-49.833 -35.333 -70.5 -63
s-37 -61 -49 -100s-18 -81.833 -18 -128.5zM348.998 102.998c40.667 0 77.667 12.8311 111 38.498s60.166 62.334 80.499 110.001s30.5 101.834 30.5 162.501c0 20.667 -1.33301 38 -4 52l-322 -323c24.667 -26.667 59.334 -40 104.001 -40z" />
    <glyph glyph-name="Ugrave" unicode="&#xd9;" horiz-adv-x="713" 
d="M571 693h144.999l-90 -458c-16 -82 -50.833 -144.5 -104.5 -187.5s-123.167 -64.5 -208.5 -64.5c-47.333 0 -88.833 8.16699 -124.5 24.5s-63.667 40 -84 71s-30.5 67.5 -30.5 109.5c0 41.333 7.33301 98.333 22 171l66 334h145l-67 -334
c-9.33301 -46 -15.666 -79.5 -18.999 -100.5s-5 -37.833 -5 -50.5c0 -34 9.83301 -60 29.5 -78s48.167 -27 85.5 -27c82.667 0 133 45 151 135zM377.999 769l-108 129h150l79 -129h-121z" />
    <glyph glyph-name="Uacute" unicode="&#xda;" horiz-adv-x="713" 
d="M571 693h144.999l-90 -458c-16 -82 -50.833 -144.5 -104.5 -187.5s-123.167 -64.5 -208.5 -64.5c-47.333 0 -88.833 8.16699 -124.5 24.5s-63.667 40 -84 71s-30.5 67.5 -30.5 109.5c0 41.333 7.33301 98.333 22 171l66 334h145l-67 -334
c-9.33301 -46 -15.666 -79.5 -18.999 -100.5s-5 -37.833 -5 -50.5c0 -34 9.83301 -60 29.5 -78s48.167 -27 85.5 -27c82.667 0 133 45 151 135zM500.999 769h-121l121 129h158z" />
    <glyph glyph-name="Ucircumflex" unicode="&#xdb;" horiz-adv-x="713" 
d="M571 693h144.999l-90 -458c-16 -82 -50.833 -144.5 -104.5 -187.5s-123.167 -64.5 -208.5 -64.5c-47.333 0 -88.833 8.16699 -124.5 24.5s-63.667 40 -84 71s-30.5 67.5 -30.5 109.5c0 41.333 7.33301 98.333 22 171l66 334h145l-67 -334
c-9.33301 -46 -15.666 -79.5 -18.999 -100.5s-5 -37.833 -5 -50.5c0 -34 9.83301 -60 29.5 -78s48.167 -27 85.5 -27c82.667 0 133 45 151 135zM518.999 769l-61 75l-90 -75h-131l157 141h147l103 -141h-125z" />
    <glyph glyph-name="Udieresis" unicode="&#xdc;" horiz-adv-x="713" 
d="M571 693h144.999l-90 -458c-16 -82 -50.833 -144.5 -104.5 -187.5s-123.167 -64.5 -208.5 -64.5c-47.333 0 -88.833 8.16699 -124.5 24.5s-63.667 40 -84 71s-30.5 67.5 -30.5 109.5c0 41.333 7.33301 98.333 22 171l66 334h145l-67 -334
c-9.33301 -46 -15.666 -79.5 -18.999 -100.5s-5 -37.833 -5 -50.5c0 -34 9.83301 -60 29.5 -78s48.167 -27 85.5 -27c82.667 0 133 45 151 135zM336.999 770c-23.333 0 -41.166 5.33203 -53.499 15.999s-18.5 26.334 -18.5 47.001c0 23.333 9 43.5 27 60.5
s39.667 25.5 65 25.5c23.333 0 41.166 -5.33301 53.499 -16s18.5 -26 18.5 -46c0 -24 -9 -44.5 -27 -61.5s-39.667 -25.5 -65 -25.5zM562.999 769.999c-23.333 0 -41.166 5.33203 -53.499 15.999s-18.5 26.334 -18.5 47.001c0 23.333 9 43.5 27 60.5s39.667 25.5 65 25.5
c23.333 0 41.166 -5.33301 53.499 -16s18.5 -26 18.5 -46c0 -24 -9 -44.5 -27 -61.5s-39.667 -25.5 -65 -25.5z" />
    <glyph glyph-name="Yacute" unicode="&#xdd;" horiz-adv-x="568" 
d="M152 0l50 255l-138 438h152l75 -323l205 323h160l-311 -438l-50 -255h-143zM425 769h-121l121 129h158z" />
    <glyph glyph-name="Thorn" unicode="&#xde;" horiz-adv-x="608" 
d="M37 0l135 692.998h142l-24 -123h97c70 0 124.5 -17.167 163.5 -51.5s58.5 -81.833 58.5 -142.5c0 -47.333 -11.833 -89.166 -35.5 -125.499s-58.167 -64.666 -103.5 -84.999s-98.333 -30.5 -159 -30.5h-106l-26 -135h-142zM226 244.998l84.999 0.000976562
c49.333 0 87.333 10.667 114 32s40 51.333 40 90c0 31.333 -9.16699 54.666 -27.5 69.999s-46.166 23 -83.499 23h-86z" />
    <glyph glyph-name="germandbls" unicode="&#xdf;" horiz-adv-x="589" 
d="M227 116c44 -18 83.999 -27.0049 119.999 -27.0049c23.333 0 42.833 5.16699 58.5 15.5s23.5 23.5 23.5 39.5c0 9.33301 -3.66699 18.833 -11 28.5s-19.333 20.834 -36 33.501l-32 24c-49.333 36 -74 75.667 -74 119c0 26.667 7.5 51.334 22.5 74.001
s39.5 46.334 73.5 71.001c23.333 16.667 40 31.834 50 45.501s15 28.167 15 43.5c0 20 -7.16699 36.167 -21.5 48.5s-32.833 18.5 -55.5 18.5c-32 0 -57.833 -11.833 -77.5 -35.5s-34.167 -60.167 -43.5 -109.5l-98 -505h-141l100 515c14.667 78 45.334 137.333 92.001 178
s107 61 181 61c60.667 0 109.167 -14 145.5 -42s54.5 -65 54.5 -111c0 -31.333 -9.66699 -61.166 -29 -89.499s-50.333 -57.833 -93 -88.5c-29.333 -20.667 -44 -40.334 -44 -59.001c0 -9.33301 3.66699 -18.666 11 -27.999s21.333 -21.333 42 -36l32 -24
c24.667 -18.667 42.667 -37.667 54 -57s17 -40.333 17 -63c0 -30.667 -8.66699 -59 -26 -85s-42 -46.833 -74 -62.5s-68 -23.5 -108 -23.5c-58 0 -107 11 -147 33z" />
    <glyph glyph-name="agrave" unicode="&#xe0;" horiz-adv-x="573" 
d="M338 0v88.001c-25.333 -33.333 -53.333 -58.833 -84 -76.5s-61.667 -26.5 -93 -26.5c-42 0 -74.667 15.167 -98 45.5s-35 73.166 -35 128.499c0 62 14 121 42 177s66.833 101.667 116.5 137s104.5 53 164.5 53c28 0 60.667 -3.83301 98 -11.5s70.333 -17.167 99 -28.5
l-95 -486h-115zM221 96.001c18.667 0 38.833 7.99902 60.5 23.999s44.167 39.333 67.5 70l44 225c-20 3.33301 -35 5 -45 5c-29.333 0 -57.333 -10.667 -84 -32s-48.667 -51.166 -66 -89.499s-26 -78.833 -26 -121.5c0 -54 16.333 -81 49 -81zM310.999 600l-101 169h152
l66 -169h-117z" />
    <glyph glyph-name="aacute" unicode="&#xe1;" horiz-adv-x="573" 
d="M338 0v88.001c-25.333 -33.333 -53.333 -58.833 -84 -76.5s-61.667 -26.5 -93 -26.5c-42 0 -74.667 15.167 -98 45.5s-35 73.166 -35 128.499c0 62 14 121 42 177s66.833 101.667 116.5 137s104.5 53 164.5 53c28 0 60.667 -3.83301 98 -11.5s70.333 -17.167 99 -28.5
l-95 -486h-115zM221 96.001c18.667 0 38.833 7.99902 60.5 23.999s44.167 39.333 67.5 70l44 225c-20 3.33301 -35 5 -45 5c-29.333 0 -57.333 -10.667 -84 -32s-48.667 -51.166 -66 -89.499s-26 -78.833 -26 -121.5c0 -54 16.333 -81 49 -81zM320.999 600l124 169h160
l-167 -169h-117z" />
    <glyph glyph-name="acircumflex" unicode="&#xe2;" horiz-adv-x="573" 
d="M338 0v88.001c-25.333 -33.333 -53.333 -58.833 -84 -76.5s-61.667 -26.5 -93 -26.5c-42 0 -74.667 15.167 -98 45.5s-35 73.166 -35 128.499c0 62 14 121 42 177s66.833 101.667 116.5 137s104.5 53 164.5 53c28 0 60.667 -3.83301 98 -11.5s70.333 -17.167 99 -28.5
l-95 -486h-115zM221 96.001c18.667 0 38.833 7.99902 60.5 23.999s44.167 39.333 67.5 70l44 225c-20 3.33301 -35 5 -45 5c-29.333 0 -57.333 -10.667 -84 -32s-48.667 -51.166 -66 -89.499s-26 -78.833 -26 -121.5c0 -54 16.333 -81 49 -81zM467.999 600l-66 98l-103 -98
h-117l160 170h143l94 -170h-111z" />
    <glyph glyph-name="atilde" unicode="&#xe3;" horiz-adv-x="573" 
d="M338 0v88.001c-25.333 -33.333 -53.333 -58.833 -84 -76.5s-61.667 -26.5 -93 -26.5c-42 0 -74.667 15.167 -98 45.5s-35 73.166 -35 128.499c0 62 14 121 42 177s66.833 101.667 116.5 137s104.5 53 164.5 53c28 0 60.667 -3.83301 98 -11.5s70.333 -17.167 99 -28.5
l-95 -486h-115zM221 96.001c18.667 0 38.833 7.99902 60.5 23.999s44.167 39.333 67.5 70l44 225c-20 3.33301 -35 5 -45 5c-29.333 0 -57.333 -10.667 -84 -32s-48.667 -51.166 -66 -89.499s-26 -78.833 -26 -121.5c0 -54 16.333 -81 49 -81zM508.999 737h79.998
c0 -9.33301 -1.66699 -22.333 -5 -39c-7.33301 -32.667 -22 -58 -44 -76s-48.667 -27 -80 -27c-17.333 0 -32 2.66699 -44 8s-25.667 15.333 -41 30c-13.333 13.333 -22.666 21.666 -27.999 24.999s-11 5 -17 5c-14.667 0 -24.667 -10.333 -30 -31l-9 -34h-80
c0.666992 13.333 2.33398 26.333 5.00098 39c6 31.333 20 56.333 42 75s49.333 28 82 28c18 0 33 -2.66699 45 -8s25.333 -15.333 40 -30c14 -13.333 23.5 -21.666 28.5 -24.999s10.5 -5 16.5 -5c14.667 0 24.667 10.333 30 31z" />
    <glyph glyph-name="adieresis" unicode="&#xe4;" horiz-adv-x="573" 
d="M338 0v88.001c-25.333 -33.333 -53.333 -58.833 -84 -76.5s-61.667 -26.5 -93 -26.5c-42 0 -74.667 15.167 -98 45.5s-35 73.166 -35 128.499c0 62 14 121 42 177s66.833 101.667 116.5 137s104.5 53 164.5 53c28 0 60.667 -3.83301 98 -11.5s70.333 -17.167 99 -28.5
l-95 -486h-115zM221 96.001c18.667 0 38.833 7.99902 60.5 23.999s44.167 39.333 67.5 70l44 225c-20 3.33301 -35 5 -45 5c-29.333 0 -57.333 -10.667 -84 -32s-48.667 -51.166 -66 -89.499s-26 -78.833 -26 -121.5c0 -54 16.333 -81 49 -81zM278.999 587
c-46.667 0 -70 20.333 -70 61c0 24 8.66699 44.167 26 60.5s38.666 24.5 63.999 24.5c46.667 0 70 -20.333 70 -61c0 -24 -8.66699 -44.167 -26 -60.5s-38.666 -24.5 -63.999 -24.5zM508.999 587c-46.667 0 -70 20.333 -70 61c0 24 8.66699 44.167 26 60.5
s38.666 24.5 63.999 24.5c46.667 0 70 -20.333 70 -61c0 -24 -8.66699 -44.167 -26 -60.5s-38.666 -24.5 -63.999 -24.5z" />
    <glyph glyph-name="aring" unicode="&#xe5;" horiz-adv-x="573" 
d="M338 0v88.001c-25.333 -33.333 -53.333 -58.833 -84 -76.5s-61.667 -26.5 -93 -26.5c-42 0 -74.667 15.167 -98 45.5s-35 73.166 -35 128.499c0 62 14 121 42 177s66.833 101.667 116.5 137s104.5 53 164.5 53c28 0 60.667 -3.83301 98 -11.5s70.333 -17.167 99 -28.5
l-95 -486h-115zM221 96.001c18.667 0 38.833 7.99902 60.5 23.999s44.167 39.333 67.5 70l44 225c-20 3.33301 -35 5 -45 5c-29.333 0 -57.333 -10.667 -84 -32s-48.667 -51.166 -66 -89.499s-26 -78.833 -26 -121.5c0 -54 16.333 -81 49 -81zM533.999 715
c0 -24 -6.16699 -45.833 -18.5 -65.5s-29.833 -35.334 -52.5 -47.001s-48.334 -17.5 -77.001 -17.5c-35.333 0 -63.166 8.66699 -83.499 26s-30.5 41.333 -30.5 72c0 24 6.16699 45.833 18.5 65.5s29.833 35.334 52.5 47.001s48.334 17.5 77.001 17.5
c35.333 0 63.166 -8.66699 83.499 -26s30.5 -41.333 30.5 -72zM393.999 650c16.667 0 30.001 6.00098 40.001 18.001s15 26 15 42c0 12 -3.33301 21.333 -10 28s-15.334 10 -26.001 10c-16.667 0 -30.167 -5.83301 -40.5 -17.5s-15.5 -25.834 -15.5 -42.501
c0 -12 3.33301 -21.333 10 -28s15.667 -10 27 -10z" />
    <glyph glyph-name="ae" unicode="&#xe6;" horiz-adv-x="817" 
d="M752 46c-64.667 -42 -139.332 -62.999 -223.999 -62.999c-42 0 -77.167 9.5 -105.5 28.5s-47.833 46.5 -58.5 82.5c-23.333 -35.333 -51.666 -62.333 -84.999 -81s-70.333 -28 -111 -28c-45.333 0 -80 15.167 -104 45.5s-36 73.166 -36 128.499c0 46 7.5 90.667 22.5 134
s36.667 82.5 65 117.5s62.666 63 102.999 84s83.833 31.5 130.5 31.5c57.333 0 112 -15.667 164 -47c49.333 32.667 100.666 49 153.999 49c44 0 78.667 -11 104 -33s38 -51.667 38 -89c0 -55.333 -23.667 -102.833 -71 -142.5s-114.666 -68.167 -201.999 -85.5l-57 -12v-4
c0 -26 7 -45 21 -57s36.667 -18 68 -18c47.333 0 96.666 13.333 147.999 40zM431.002 399.001c-28.667 14 -56 20.999 -82 20.999c-32 0 -61.167 -10.333 -87.5 -31s-47.833 -50.167 -64.5 -88.5s-25 -79.5 -25 -123.5c0 -54 18.333 -81 55 -81
c27.333 0 53.666 15.333 78.999 46s45.333 71.334 60 122.001c14.667 52 36.334 97 65.001 135zM540.002 270c44 10 78.502 25.167 103.502 45.5s37.5 43.833 37.5 70.5c0 11.333 -4.33301 20.833 -13 28.5s-20.334 11.5 -35.001 11.5c-20.667 0 -41.334 -7 -62.001 -21
s-39 -33.833 -55 -59.5s-27 -55.167 -33 -88.5z" />
    <glyph glyph-name="ccedilla" unicode="&#xe7;" horiz-adv-x="455" 
d="M414 48c-26.667 -20 -57.8311 -35.499 -93.498 -46.499s-71.167 -16.5 -106.5 -16.5c-57.333 0 -102.666 17.667 -135.999 53s-50 83.333 -50 144c0 56 13.167 110.667 39.5 164s62.666 96.666 108.999 129.999s98.5 50 156.5 50c50.667 0 94 -9.33301 130 -28l-19 -98
c-32.667 10.667 -66.334 16 -101.001 16c-48.667 0 -89.334 -21 -122.001 -63s-49 -95 -49 -159c0 -31.333 6.83301 -55.5 20.5 -72.5s33.5 -25.5 59.5 -25.5c35.333 0 78.333 11.667 129 35zM80.0029 -239.999c33.333 18 57.332 33.166 71.999 45.499s22 23.5 22 33.5
c0 15.333 -9.66699 23 -29 23c-6 0 -17 -1 -33 -3l15 71c23.333 7.33301 47 11 71 11c26.667 0 47.334 -5.83301 62.001 -17.5s22 -28.167 22 -49.5c0 -29.333 -12.333 -56.666 -37 -81.999s-64.667 -52.333 -120 -81z" />
    <glyph glyph-name="egrave" unicode="&#xe8;" horiz-adv-x="497" 
d="M432 46c-64.667 -42 -139.333 -63 -224 -63c-58 0 -102.5 16.167 -133.5 48.5s-46.5 78.5 -46.5 138.5c0 61.333 13.5 119.5 40.5 174.5s64.667 99.333 113 133s103.5 50.5 165.5 50.5c44 0 78.667 -11 104 -33s38 -51.667 38 -89c0 -55.333 -23.667 -102.833 -71 -142.5
s-114.666 -68.167 -201.999 -85.5l-57 -12c2 -28.667 9.66699 -49 23 -61s35.333 -18 66 -18c47.333 0 96.666 13.333 147.999 40zM313.001 426c-20.667 0 -41.5 -7.16992 -62.5 -21.5029s-39.333 -34.166 -55 -59.499s-26.5 -54.666 -32.5 -87.999l57 13
c42.667 9.33301 76.834 24.333 102.501 45s38.5 44.334 38.5 71.001c0 11.333 -4.33301 20.833 -13 28.5s-20.334 11.5 -35.001 11.5zM267.001 599.997l-101 169h152l66 -169h-117z" />
    <glyph glyph-name="eacute" unicode="&#xe9;" horiz-adv-x="497" 
d="M432 46c-64.667 -42 -139.333 -63 -224 -63c-58 0 -102.5 16.167 -133.5 48.5s-46.5 78.5 -46.5 138.5c0 61.333 13.5 119.5 40.5 174.5s64.667 99.333 113 133s103.5 50.5 165.5 50.5c44 0 78.667 -11 104 -33s38 -51.667 38 -89c0 -55.333 -23.667 -102.833 -71 -142.5
s-114.666 -68.167 -201.999 -85.5l-57 -12c2 -28.667 9.66699 -49 23 -61s35.333 -18 66 -18c47.333 0 96.666 13.333 147.999 40zM313.001 426c-20.667 0 -41.5 -7.16992 -62.5 -21.5029s-39.333 -34.166 -55 -59.499s-26.5 -54.666 -32.5 -87.999l57 13
c42.667 9.33301 76.834 24.333 102.501 45s38.5 44.334 38.5 71.001c0 11.333 -4.33301 20.833 -13 28.5s-20.334 11.5 -35.001 11.5zM277.001 599.997l124 169h160l-167 -169h-117z" />
    <glyph glyph-name="ecircumflex" unicode="&#xea;" horiz-adv-x="497" 
d="M432 46c-64.667 -42 -139.333 -63 -224 -63c-58 0 -102.5 16.167 -133.5 48.5s-46.5 78.5 -46.5 138.5c0 61.333 13.5 119.5 40.5 174.5s64.667 99.333 113 133s103.5 50.5 165.5 50.5c44 0 78.667 -11 104 -33s38 -51.667 38 -89c0 -55.333 -23.667 -102.833 -71 -142.5
s-114.666 -68.167 -201.999 -85.5l-57 -12c2 -28.667 9.66699 -49 23 -61s35.333 -18 66 -18c47.333 0 96.666 13.333 147.999 40zM313.001 426c-20.667 0 -41.5 -7.16992 -62.5 -21.5029s-39.333 -34.166 -55 -59.499s-26.5 -54.666 -32.5 -87.999l57 13
c42.667 9.33301 76.834 24.333 102.501 45s38.5 44.334 38.5 71.001c0 11.333 -4.33301 20.833 -13 28.5s-20.334 11.5 -35.001 11.5zM424.001 599.997l-66 98l-103 -98h-117l160 170h143l94 -170h-111z" />
    <glyph glyph-name="edieresis" unicode="&#xeb;" horiz-adv-x="497" 
d="M432 46c-64.667 -42 -139.333 -63 -224 -63c-58 0 -102.5 16.167 -133.5 48.5s-46.5 78.5 -46.5 138.5c0 61.333 13.5 119.5 40.5 174.5s64.667 99.333 113 133s103.5 50.5 165.5 50.5c44 0 78.667 -11 104 -33s38 -51.667 38 -89c0 -55.333 -23.667 -102.833 -71 -142.5
s-114.666 -68.167 -201.999 -85.5l-57 -12c2 -28.667 9.66699 -49 23 -61s35.333 -18 66 -18c47.333 0 96.666 13.333 147.999 40zM313.001 426c-20.667 0 -41.5 -7.16992 -62.5 -21.5029s-39.333 -34.166 -55 -59.499s-26.5 -54.666 -32.5 -87.999l57 13
c42.667 9.33301 76.834 24.333 102.501 45s38.5 44.334 38.5 71.001c0 11.333 -4.33301 20.833 -13 28.5s-20.334 11.5 -35.001 11.5zM235.001 586.997c-46.667 0 -70 20.333 -70 61c0 24 8.66699 44.167 26 60.5s38.666 24.5 63.999 24.5c46.667 0 70 -20.333 70 -61
c0 -24 -8.66699 -44.167 -26 -60.5s-38.666 -24.5 -63.999 -24.5zM465.001 586.997c-46.667 0 -70 20.333 -70 61c0 24 8.66699 44.167 26 60.5s38.666 24.5 63.999 24.5c46.667 0 70 -20.333 70 -61c0 -24 -8.66699 -44.167 -26 -60.5s-38.666 -24.5 -63.999 -24.5z" />
    <glyph glyph-name="igrave" unicode="&#xec;" horiz-adv-x="290" 
d="M25 0l99 511h142l-99 -511h-142zM134 600l-101 169h152l66 -169h-117z" />
    <glyph glyph-name="iacute" unicode="&#xed;" horiz-adv-x="290" 
d="M25 0l99 511h142l-99 -511h-142zM144 600l124 169h160l-167 -169h-117z" />
    <glyph glyph-name="icircumflex" unicode="&#xee;" horiz-adv-x="290" 
d="M25 0l99 511h142l-99 -511h-142zM291 600l-66 98l-103 -98h-117l160 170h143l94 -170h-111z" />
    <glyph glyph-name="idieresis" unicode="&#xef;" horiz-adv-x="290" 
d="M25 0l99 511h142l-99 -511h-142zM102 587c-46.667 0 -70 20.333 -70 61c0 24 8.66699 44.167 26 60.5s38.666 24.5 63.999 24.5c46.667 0 70 -20.333 70 -61c0 -24 -8.66699 -44.167 -26 -60.5s-38.666 -24.5 -63.999 -24.5zM332 587c-46.667 0 -70 20.333 -70 61
c0 24 8.66699 44.167 26 60.5s38.666 24.5 63.999 24.5c46.667 0 70 -20.333 70 -61c0 -24 -8.66699 -44.167 -26 -60.5s-38.666 -24.5 -63.999 -24.5z" />
    <glyph glyph-name="eth" unicode="&#xf0;" horiz-adv-x="574" 
d="M437 651c64 -73.333 95.999 -173.332 95.999 -299.999c0 -72.667 -11.667 -136.334 -35 -191.001s-57.166 -97.5 -101.499 -128.5s-95.5 -46.5 -153.5 -46.5c-69.333 0 -122.5 17 -159.5 51s-55.5 83 -55.5 147c0 53.333 11.333 102.833 34 148.5s54.667 82.667 96 111
s86.666 42.5 135.999 42.5c52.667 0 95.334 -15.667 128.001 -47c-14 69.333 -37.667 120.333 -71 153l-98 -70l-39 60l74 53c-25.333 12 -57 21.667 -95 29l20 107c64.667 -12.667 121 -35.667 169 -69l114 80l40 -59zM251.999 87.001
c25.333 0 48.832 8.49902 70.499 25.499s39.334 41 53.001 72s20.5 65.167 20.5 102.5c0 32.667 -7 56.834 -21 72.501s-35.667 23.5 -65 23.5c-24.667 0 -47.667 -8.16699 -69 -24.5s-38.5 -39.333 -51.5 -69s-19.5 -62.167 -19.5 -97.5c0 -70 27.333 -105 82 -105z" />
    <glyph glyph-name="ntilde" unicode="&#xf1;" horiz-adv-x="601" 
d="M346 0l53 273.999c8.66699 46 13 78 13 96c0 16.667 -3.83301 28.834 -11.5 36.501s-19.834 11.5 -36.501 11.5c-18 0 -39.333 -8 -64 -24s-49 -38 -73 -66l-64 -328h-142l99 511h115l2 -87c26 32 54.833 57 86.5 75s62.834 27 93.501 27c44.667 0 79 -11.833 103 -35.5
s36 -57.5 36 -101.5c0 -25.333 -5 -64.333 -15 -117l-53 -272h-142zM493 736.999h79.998c0 -9.33301 -1.66699 -22.333 -5 -39c-7.33301 -32.667 -22 -58 -44 -76s-48.667 -27 -80 -27c-17.333 0 -32 2.66699 -44 8s-25.667 15.333 -41 30
c-13.333 13.333 -22.666 21.666 -27.999 24.999s-11 5 -17 5c-14.667 0 -24.667 -10.333 -30 -31l-9 -34h-80c0.666992 13.333 2.33398 26.333 5.00098 39c6 31.333 20 56.333 42 75s49.333 28 82 28c18 0 33 -2.66699 45 -8s25.333 -15.333 40 -30
c14 -13.333 23.5 -21.666 28.5 -24.999s10.5 -5 16.5 -5c14.667 0 24.667 10.333 30 31z" />
    <glyph glyph-name="ograve" unicode="&#xf2;" horiz-adv-x="559" 
d="M237 -15c-64 0 -114.833 18.5 -152.5 55.5s-56.5 87.167 -56.5 150.5c0 62 12.167 118.333 36.5 169s58.833 91 103.5 121s96 45 154 45c64 0 114.833 -18.5 152.5 -55.5s56.5 -87.167 56.5 -150.5c0 -62 -12.167 -118.333 -36.5 -169s-58.833 -91 -103.5 -121
s-96 -45 -154 -45zM247 93c25.333 0 48.5 9.33301 69.5 28s38 44.834 51 78.501s19.5 71.5 19.5 113.5c0 32 -6.83301 57.5 -20.5 76.5s-31.834 28.5 -54.501 28.5c-25.333 0 -48.5 -9.33301 -69.5 -28s-38 -44.834 -51 -78.501s-19.5 -71.5 -19.5 -113.5
c0 -32 6.83301 -57.5 20.5 -76.5s31.834 -28.5 54.501 -28.5zM268 600l-101 169h152l66 -169h-117z" />
    <glyph glyph-name="oacute" unicode="&#xf3;" horiz-adv-x="559" 
d="M237 -15c-64 0 -114.833 18.5 -152.5 55.5s-56.5 87.167 -56.5 150.5c0 62 12.167 118.333 36.5 169s58.833 91 103.5 121s96 45 154 45c64 0 114.833 -18.5 152.5 -55.5s56.5 -87.167 56.5 -150.5c0 -62 -12.167 -118.333 -36.5 -169s-58.833 -91 -103.5 -121
s-96 -45 -154 -45zM247 93c25.333 0 48.5 9.33301 69.5 28s38 44.834 51 78.501s19.5 71.5 19.5 113.5c0 32 -6.83301 57.5 -20.5 76.5s-31.834 28.5 -54.501 28.5c-25.333 0 -48.5 -9.33301 -69.5 -28s-38 -44.834 -51 -78.501s-19.5 -71.5 -19.5 -113.5
c0 -32 6.83301 -57.5 20.5 -76.5s31.834 -28.5 54.501 -28.5zM278 600l124 169h160l-167 -169h-117z" />
    <glyph glyph-name="ocircumflex" unicode="&#xf4;" horiz-adv-x="559" 
d="M237 -15c-64 0 -114.833 18.5 -152.5 55.5s-56.5 87.167 -56.5 150.5c0 62 12.167 118.333 36.5 169s58.833 91 103.5 121s96 45 154 45c64 0 114.833 -18.5 152.5 -55.5s56.5 -87.167 56.5 -150.5c0 -62 -12.167 -118.333 -36.5 -169s-58.833 -91 -103.5 -121
s-96 -45 -154 -45zM247 93c25.333 0 48.5 9.33301 69.5 28s38 44.834 51 78.501s19.5 71.5 19.5 113.5c0 32 -6.83301 57.5 -20.5 76.5s-31.834 28.5 -54.501 28.5c-25.333 0 -48.5 -9.33301 -69.5 -28s-38 -44.834 -51 -78.501s-19.5 -71.5 -19.5 -113.5
c0 -32 6.83301 -57.5 20.5 -76.5s31.834 -28.5 54.501 -28.5zM425 600l-66 98l-103 -98h-117l160 170h143l94 -170h-111z" />
    <glyph glyph-name="otilde" unicode="&#xf5;" horiz-adv-x="559" 
d="M237 -15c-64 0 -114.833 18.5 -152.5 55.5s-56.5 87.167 -56.5 150.5c0 62 12.167 118.333 36.5 169s58.833 91 103.5 121s96 45 154 45c64 0 114.833 -18.5 152.5 -55.5s56.5 -87.167 56.5 -150.5c0 -62 -12.167 -118.333 -36.5 -169s-58.833 -91 -103.5 -121
s-96 -45 -154 -45zM247 93c25.333 0 48.5 9.33301 69.5 28s38 44.834 51 78.501s19.5 71.5 19.5 113.5c0 32 -6.83301 57.5 -20.5 76.5s-31.834 28.5 -54.501 28.5c-25.333 0 -48.5 -9.33301 -69.5 -28s-38 -44.834 -51 -78.501s-19.5 -71.5 -19.5 -113.5
c0 -32 6.83301 -57.5 20.5 -76.5s31.834 -28.5 54.501 -28.5zM466 737h79.998c0 -9.33301 -1.66699 -22.333 -5 -39c-7.33301 -32.667 -22 -58 -44 -76s-48.667 -27 -80 -27c-17.333 0 -32 2.66699 -44 8s-25.667 15.333 -41 30
c-13.333 13.333 -22.666 21.666 -27.999 24.999s-11 5 -17 5c-14.667 0 -24.667 -10.333 -30 -31l-9 -34h-80c0.666992 13.333 2.33398 26.333 5.00098 39c6 31.333 20 56.333 42 75s49.333 28 82 28c18 0 33 -2.66699 45 -8s25.333 -15.333 40 -30
c14 -13.333 23.5 -21.666 28.5 -24.999s10.5 -5 16.5 -5c14.667 0 24.667 10.333 30 31z" />
    <glyph glyph-name="odieresis" unicode="&#xf6;" horiz-adv-x="559" 
d="M237 -15c-64 0 -114.833 18.5 -152.5 55.5s-56.5 87.167 -56.5 150.5c0 62 12.167 118.333 36.5 169s58.833 91 103.5 121s96 45 154 45c64 0 114.833 -18.5 152.5 -55.5s56.5 -87.167 56.5 -150.5c0 -62 -12.167 -118.333 -36.5 -169s-58.833 -91 -103.5 -121
s-96 -45 -154 -45zM247 93c25.333 0 48.5 9.33301 69.5 28s38 44.834 51 78.501s19.5 71.5 19.5 113.5c0 32 -6.83301 57.5 -20.5 76.5s-31.834 28.5 -54.501 28.5c-25.333 0 -48.5 -9.33301 -69.5 -28s-38 -44.834 -51 -78.501s-19.5 -71.5 -19.5 -113.5
c0 -32 6.83301 -57.5 20.5 -76.5s31.834 -28.5 54.501 -28.5zM236 587c-46.667 0 -70 20.333 -70 61c0 24 8.66699 44.167 26 60.5s38.666 24.5 63.999 24.5c46.667 0 70 -20.333 70 -61c0 -24 -8.66699 -44.167 -26 -60.5s-38.666 -24.5 -63.999 -24.5zM466 587
c-46.667 0 -70 20.333 -70 61c0 24 8.66699 44.167 26 60.5s38.666 24.5 63.999 24.5c46.667 0 70 -20.333 70 -61c0 -24 -8.66699 -44.167 -26 -60.5s-38.666 -24.5 -63.999 -24.5z" />
    <glyph glyph-name="divide" unicode="&#xf7;" 
d="M424 546c0 -23.333 -8.83203 -44 -26.499 -62s-38.834 -27 -63.501 -27c-19.333 0 -34.833 5.66699 -46.5 17s-17.5 26.333 -17.5 45c0 24 9 44.833 27 62.5s39 26.5 63 26.5c19.333 0 34.833 -5.66699 46.5 -17s17.5 -26.333 17.5 -45zM349.001 175
c0 -23.333 -8.83203 -44 -26.499 -62s-38.834 -27 -63.501 -27c-19.333 0 -34.833 5.66699 -46.5 17s-17.5 26.333 -17.5 45c0 24 9 44.833 27 62.5s39 26.5 63 26.5c19.333 0 34.833 -5.66699 46.5 -17s17.5 -26.333 17.5 -45zM66.002 292l21 110h466l-21 -110h-466z" />
    <glyph glyph-name="oslash" unicode="&#xf8;" horiz-adv-x="559" 
d="M-8 11l64 65.001c-18.667 33.333 -28 71.666 -28 114.999c0 62 12.167 118.333 36.5 169s58.833 91 103.5 121s96 45 154 45c55.333 0 101 -14.333 137 -43l67 68l50 -47l-72 -73c18 -32.667 27 -69.667 27 -111c0 -62 -12.167 -118.333 -36.5 -169
s-58.833 -91 -103.5 -121s-96 -45 -154 -45c-54 0 -99 13.333 -135 40l-60 -61zM172 193.001l194 197.001c-13.333 18.667 -31.333 28 -54 28c-25.333 0 -48.5 -9.33301 -69.5 -28s-38 -44.834 -51 -78.501s-19.5 -71.5 -19.5 -113.5v-5zM247 93.002
c25.333 0 48.5 9.33203 69.5 27.999s38 44.834 51 78.501s19.5 71.5 19.5 113.5l-193 -195c13.333 -16.667 31 -25 53 -25z" />
    <glyph glyph-name="ugrave" unicode="&#xf9;" horiz-adv-x="587" 
d="M353 0v89c-24.667 -32.667 -52.667 -58.167 -84 -76.5s-62.333 -27.5 -93 -27.5c-44 0 -77.167 11.5 -99.5 34.5s-33.5 57.167 -33.5 102.5c0 30.667 4.66699 69.667 14 117l53 272h142l-53 -274c-8 -42.667 -12 -73 -12 -91s3.33301 -30.5 10 -37.5
s17.667 -10.5 33 -10.5c18 0 38.333 7.5 61 22.5s45.667 35.833 69 62.5l65 328h142l-99 -511h-115zM271 600l-101 169h152l66 -169h-117z" />
    <glyph glyph-name="uacute" unicode="&#xfa;" horiz-adv-x="587" 
d="M353 0v89c-24.667 -32.667 -52.667 -58.167 -84 -76.5s-62.333 -27.5 -93 -27.5c-44 0 -77.167 11.5 -99.5 34.5s-33.5 57.167 -33.5 102.5c0 30.667 4.66699 69.667 14 117l53 272h142l-53 -274c-8 -42.667 -12 -73 -12 -91s3.33301 -30.5 10 -37.5
s17.667 -10.5 33 -10.5c18 0 38.333 7.5 61 22.5s45.667 35.833 69 62.5l65 328h142l-99 -511h-115zM281 600l124 169h160l-167 -169h-117z" />
    <glyph glyph-name="ucircumflex" unicode="&#xfb;" horiz-adv-x="587" 
d="M353 0v89c-24.667 -32.667 -52.667 -58.167 -84 -76.5s-62.333 -27.5 -93 -27.5c-44 0 -77.167 11.5 -99.5 34.5s-33.5 57.167 -33.5 102.5c0 30.667 4.66699 69.667 14 117l53 272h142l-53 -274c-8 -42.667 -12 -73 -12 -91s3.33301 -30.5 10 -37.5
s17.667 -10.5 33 -10.5c18 0 38.333 7.5 61 22.5s45.667 35.833 69 62.5l65 328h142l-99 -511h-115zM428 600l-66 98l-103 -98h-117l160 170h143l94 -170h-111z" />
    <glyph glyph-name="udieresis" unicode="&#xfc;" horiz-adv-x="587" 
d="M353 0v89c-24.667 -32.667 -52.667 -58.167 -84 -76.5s-62.333 -27.5 -93 -27.5c-44 0 -77.167 11.5 -99.5 34.5s-33.5 57.167 -33.5 102.5c0 30.667 4.66699 69.667 14 117l53 272h142l-53 -274c-8 -42.667 -12 -73 -12 -91s3.33301 -30.5 10 -37.5
s17.667 -10.5 33 -10.5c18 0 38.333 7.5 61 22.5s45.667 35.833 69 62.5l65 328h142l-99 -511h-115zM239 587c-46.667 0 -70 20.333 -70 61c0 24 8.66699 44.167 26 60.5s38.666 24.5 63.999 24.5c46.667 0 70 -20.333 70 -61c0 -24 -8.66699 -44.167 -26 -60.5
s-38.666 -24.5 -63.999 -24.5zM469 587c-46.667 0 -70 20.333 -70 61c0 24 8.66699 44.167 26 60.5s38.666 24.5 63.999 24.5c46.667 0 70 -20.333 70 -61c0 -24 -8.66699 -44.167 -26 -60.5s-38.666 -24.5 -63.999 -24.5z" />
    <glyph glyph-name="yacute" unicode="&#xfd;" horiz-adv-x="495" 
d="M-70 -127c58 22.667 100.001 43 126.001 61c28 19.333 53.667 43.333 77 72l-97 505h149l46 -382c24.667 48.667 49.167 102.5 73.5 161.5s52.166 132.5 83.499 220.5h145c-32.667 -89.333 -78.167 -189 -136.5 -299s-110.5 -194 -156.5 -252
c-41.333 -52 -82 -92.5 -122 -121.5s-82.667 -48.5 -128 -58.5zM239.001 600l124 169h160l-167 -169h-117z" />
    <glyph glyph-name="thorn" unicode="&#xfe;" horiz-adv-x="571" 
d="M-20 -206l184.999 946h142l-59 -299c50.667 56.667 105 85 163 85c42.667 0 75.334 -15.333 98.001 -46s34 -74.667 34 -132c0 -64 -13 -123.5 -39 -178.5s-62.5 -99.5 -109.5 -133.5s-99.5 -51 -157.5 -51c-24.667 0 -50 4.66699 -76 14l-40 -205h-141zM347.999 415
c-35.333 0 -76.332 -29.333 -122.999 -88l-45 -233c14 -2 28.667 -3 44 -3c32 0 61.167 9.83301 87.5 29.5s47.5 47.667 63.5 84s24 77.5 24 123.5c0 28 -4.33301 49.5 -13 64.5s-21.334 22.5 -38.001 22.5z" />
    <glyph glyph-name="ydieresis" unicode="&#xff;" horiz-adv-x="495" 
d="M-70 -127c58 22.667 100.001 43 126.001 61c28 19.333 53.667 43.333 77 72l-97 505h149l46 -382c24.667 48.667 49.167 102.5 73.5 161.5s52.166 132.5 83.499 220.5h145c-32.667 -89.333 -78.167 -189 -136.5 -299s-110.5 -194 -156.5 -252
c-41.333 -52 -82 -92.5 -122 -121.5s-82.667 -48.5 -128 -58.5zM197.001 587c-46.667 0 -70 20.333 -70 61c0 24 8.66699 44.167 26 60.5s38.666 24.5 63.999 24.5c46.667 0 70 -20.333 70 -61c0 -24 -8.66699 -44.167 -26 -60.5s-38.666 -24.5 -63.999 -24.5zM427.001 587
c-46.667 0 -70 20.333 -70 61c0 24 8.66699 44.167 26 60.5s38.666 24.5 63.999 24.5c46.667 0 70 -20.333 70 -61c0 -24 -8.66699 -44.167 -26 -60.5s-38.666 -24.5 -63.999 -24.5z" />
    <glyph glyph-name="Amacron" unicode="&#x100;" horiz-adv-x="631" 
d="M433 0l-16 159h-231l-76 -159h-155l370 693h161l101 -693h-154zM237 265h171l-30 292zM251 791l17 90h337l-17 -90h-337z" />
    <glyph glyph-name="amacron" unicode="&#x101;" horiz-adv-x="573" 
d="M338 0v88.001c-25.333 -33.333 -53.333 -58.833 -84 -76.5s-61.667 -26.5 -93 -26.5c-42 0 -74.667 15.167 -98 45.5s-35 73.166 -35 128.499c0 62 14 121 42 177s66.833 101.667 116.5 137s104.5 53 164.5 53c28 0 60.667 -3.83301 98 -11.5s70.333 -17.167 99 -28.5
l-95 -486h-115zM221 96.001c18.667 0 38.833 7.99902 60.5 23.999s44.167 39.333 67.5 70l44 225c-20 3.33301 -35 5 -45 5c-29.333 0 -57.333 -10.667 -84 -32s-48.667 -51.166 -66 -89.499s-26 -78.833 -26 -121.5c0 -54 16.333 -81 49 -81zM222.999 623l17 88h337
l-17 -88h-337z" />
    <glyph glyph-name="Abreve" unicode="&#x102;" horiz-adv-x="631" 
d="M433 0l-16 159h-231l-76 -159h-155l370 693h161l101 -693h-154zM237 265h171l-30 292zM505 910l84.998 -0.00195312c0 -43.333 -17.167 -78.833 -51.5 -106.5s-78.166 -41.5 -131.499 -41.5c-39.333 0 -71.166 9 -95.499 27s-36.5 41.667 -36.5 71
c0 16.667 4 33.334 12 50.001h80c-2 -10.667 -3 -18 -3 -22c0 -26.667 18.667 -40 56 -40c22 0 40 4.33301 54 13s23.333 21.334 28 38.001z" />
    <glyph glyph-name="abreve" unicode="&#x103;" horiz-adv-x="573" 
d="M338 0v88.001c-25.333 -33.333 -53.333 -58.833 -84 -76.5s-61.667 -26.5 -93 -26.5c-42 0 -74.667 15.167 -98 45.5s-35 73.166 -35 128.499c0 62 14 121 42 177s66.833 101.667 116.5 137s104.5 53 164.5 53c28 0 60.667 -3.83301 98 -11.5s70.333 -17.167 99 -28.5
l-95 -486h-115zM221 96.001c18.667 0 38.833 7.99902 60.5 23.999s44.167 39.333 67.5 70l44 225c-20 3.33301 -35 5 -45 5c-29.333 0 -57.333 -10.667 -84 -32s-48.667 -51.166 -66 -89.499s-26 -78.833 -26 -121.5c0 -54 16.333 -81 49 -81zM483.999 762h83.001
c-0.666992 -31.333 -8.33398 -59.5 -23.001 -84.5s-35.5 -44.833 -62.5 -59.5s-58.5 -22 -94.5 -22c-42 0 -75.333 9.83301 -100 29.5s-37 46.167 -37 79.5c0 16.667 4.66699 35.667 14 57h78c-2.66699 -13.333 -4 -24.666 -4 -33.999c0 -15.333 5 -27 15 -35
s24.333 -12 43 -12c22 0 39.833 5.16699 53.5 15.5s23.5 26.166 29.5 47.499z" />
    <glyph glyph-name="Aogonek" unicode="&#x104;" horiz-adv-x="631" 
d="M595 -205c-36.667 -17.333 -75.999 -25.999 -117.999 -25.999c-35.333 0 -62.5 7 -81.5 21s-28.5 33.667 -28.5 59c0 53.333 40 103.666 120 150.999h-54l-16 159h-231l-76 -159h-155l370 693h161l101 -693c-69.333 -42.667 -104 -82.334 -104 -119.001
c0 -9.33301 3.66699 -16.666 11 -21.999s17.666 -8 30.999 -8c9.33301 0 23.333 2.33301 42 7zM237.001 265.001h171l-30 292z" />
    <glyph glyph-name="aogonek" unicode="&#x105;" horiz-adv-x="573" 
d="M461 -205c-36.667 -17.333 -75.999 -25.998 -117.999 -25.998c-34.667 0 -61.334 7 -80.001 21s-28 33.667 -28 59c0 52 40.333 102.333 121 151h-18v88c-25.333 -33.333 -53.333 -58.833 -84 -76.5s-61.667 -26.5 -93 -26.5c-42 0 -74.667 15.167 -98 45.5
s-35 73.166 -35 128.499c0 62 14 121 42 177s66.833 101.667 116.5 137s104.5 53 164.5 53c28 0 60.667 -3.83301 98 -11.5s70.333 -17.167 99 -28.5l-95 -486c-69.333 -42.667 -104 -82.334 -104 -119.001c0 -21.333 14.333 -32 43 -32c9.33301 0 23.333 2.33301 42 7z
M221.001 96.002c18.667 0 38.833 7.99902 60.5 23.999s44.167 39.333 67.5 70l44 225c-20 3.33301 -35 5 -45 5c-29.333 0 -57.333 -10.667 -84 -32s-48.667 -51.166 -66 -89.499s-26 -78.833 -26 -121.5c0 -54 16.333 -81 49 -81z" />
    <glyph glyph-name="Cacute" unicode="&#x106;" horiz-adv-x="601" 
d="M554 55c-37.333 -26 -74.665 -44.834 -111.998 -56.501s-77.333 -17.5 -120 -17.5c-83.333 0 -149 25.333 -197 76s-72 120.334 -72 209.001c0 78 17.167 150.667 51.5 218s82.666 121.833 144.999 163.5s131.833 62.5 208.5 62.5c61.333 0 115.666 -12.667 162.999 -38
l-22 -111c-44 18 -89.333 27 -136 27c-48 0 -91.333 -12.667 -130 -38s-69.5 -61.5 -92.5 -108.5s-34.5 -100.167 -34.5 -159.5c0 -118.667 47 -178 141 -178c52.667 0 111 18.333 175 55zM513.001 768.999h-121l121 129h158z" />
    <glyph glyph-name="cacute" unicode="&#x107;" horiz-adv-x="455" 
d="M414 48c-26.667 -20 -57.8311 -35.499 -93.498 -46.499s-71.167 -16.5 -106.5 -16.5c-57.333 0 -102.666 17.667 -135.999 53s-50 83.333 -50 144c0 56 13.167 110.667 39.5 164s62.666 96.666 108.999 129.999s98.5 50 156.5 50c50.667 0 94 -9.33301 130 -28l-19 -98
c-32.667 10.667 -66.334 16 -101.001 16c-48.667 0 -89.334 -21 -122.001 -63s-49 -95 -49 -159c0 -31.333 6.83301 -55.5 20.5 -72.5s33.5 -25.5 59.5 -25.5c35.333 0 78.333 11.667 129 35zM282.003 600.001l124 169h160l-167 -169h-117z" />
    <glyph glyph-name="Ccircumflex" unicode="&#x108;" horiz-adv-x="601" 
d="M554 55c-37.333 -26 -74.665 -44.834 -111.998 -56.501s-77.333 -17.5 -120 -17.5c-83.333 0 -149 25.333 -197 76s-72 120.334 -72 209.001c0 78 17.167 150.667 51.5 218s82.666 121.833 144.999 163.5s131.833 62.5 208.5 62.5c61.333 0 115.666 -12.667 162.999 -38
l-22 -111c-44 18 -89.333 27 -136 27c-48 0 -91.333 -12.667 -130 -38s-69.5 -61.5 -92.5 -108.5s-34.5 -100.167 -34.5 -159.5c0 -118.667 47 -178 141 -178c52.667 0 111 18.333 175 55zM531.001 768.999l-61 75l-90 -75h-131l157 141h147l103 -141h-125z" />
    <glyph glyph-name="ccircumflex" unicode="&#x109;" horiz-adv-x="455" 
d="M414 48c-26.667 -20 -57.8311 -35.499 -93.498 -46.499s-71.167 -16.5 -106.5 -16.5c-57.333 0 -102.666 17.667 -135.999 53s-50 83.333 -50 144c0 56 13.167 110.667 39.5 164s62.666 96.666 108.999 129.999s98.5 50 156.5 50c50.667 0 94 -9.33301 130 -28l-19 -98
c-32.667 10.667 -66.334 16 -101.001 16c-48.667 0 -89.334 -21 -122.001 -63s-49 -95 -49 -159c0 -31.333 6.83301 -55.5 20.5 -72.5s33.5 -25.5 59.5 -25.5c35.333 0 78.333 11.667 129 35zM429.003 600.001l-66 98l-103 -98h-117l160 170h143l94 -170h-111z" />
    <glyph glyph-name="Cdotaccent" unicode="&#x10a;" horiz-adv-x="601" 
d="M554 55c-37.333 -26 -74.665 -44.834 -111.998 -56.501s-77.333 -17.5 -120 -17.5c-83.333 0 -149 25.333 -197 76s-72 120.334 -72 209.001c0 78 17.167 150.667 51.5 218s82.666 121.833 144.999 163.5s131.833 62.5 208.5 62.5c61.333 0 115.666 -12.667 162.999 -38
l-22 -111c-44 18 -89.333 27 -136 27c-48 0 -91.333 -12.667 -130 -38s-69.5 -61.5 -92.5 -108.5s-34.5 -100.167 -34.5 -159.5c0 -118.667 47 -178 141 -178c52.667 0 111 18.333 175 55zM559.001 862.999c0 -26 -9.5 -48 -28.5 -66s-42.167 -27 -69.5 -27
c-24.667 0 -43.667 5.83301 -57 17.5s-20 28.167 -20 49.5c0 26 9.5 48 28.5 66s42.167 27 69.5 27c25.333 0 44.5 -5.66699 57.5 -17s19.5 -28 19.5 -50z" />
    <glyph glyph-name="cdotaccent" unicode="&#x10b;" horiz-adv-x="455" 
d="M414 48c-26.667 -20 -57.8311 -35.499 -93.498 -46.499s-71.167 -16.5 -106.5 -16.5c-57.333 0 -102.666 17.667 -135.999 53s-50 83.333 -50 144c0 56 13.167 110.667 39.5 164s62.666 96.666 108.999 129.999s98.5 50 156.5 50c50.667 0 94 -9.33301 130 -28l-19 -98
c-32.667 10.667 -66.334 16 -101.001 16c-48.667 0 -89.334 -21 -122.001 -63s-49 -95 -49 -159c0 -31.333 6.83301 -55.5 20.5 -72.5s33.5 -25.5 59.5 -25.5c35.333 0 78.333 11.667 129 35zM450.003 681.001c0 -25.333 -9.33301 -46.833 -28 -64.5
s-41.334 -26.5 -68.001 -26.5c-24 0 -42.5 5.5 -55.5 16.5s-19.5 27.167 -19.5 48.5c0 25.333 9.33301 46.833 28 64.5s41.334 26.5 68.001 26.5c24 0 42.5 -5.5 55.5 -16.5s19.5 -27.167 19.5 -48.5z" />
    <glyph glyph-name="Ccaron" unicode="&#x10c;" horiz-adv-x="601" 
d="M554 55c-37.333 -26 -74.665 -44.834 -111.998 -56.501s-77.333 -17.5 -120 -17.5c-83.333 0 -149 25.333 -197 76s-72 120.334 -72 209.001c0 78 17.167 150.667 51.5 218s82.666 121.833 144.999 163.5s131.833 62.5 208.5 62.5c61.333 0 115.666 -12.667 162.999 -38
l-22 -111c-44 18 -89.333 27 -136 27c-48 0 -91.333 -12.667 -130 -38s-69.5 -61.5 -92.5 -108.5s-34.5 -100.167 -34.5 -159.5c0 -118.667 47 -178 141 -178c52.667 0 111 18.333 175 55zM524.001 768.999h-145l-104 141h143l42 -83l73 83h149z" />
    <glyph glyph-name="ccaron" unicode="&#x10d;" horiz-adv-x="455" 
d="M414 48c-26.667 -20 -57.8311 -35.499 -93.498 -46.499s-71.167 -16.5 -106.5 -16.5c-57.333 0 -102.666 17.667 -135.999 53s-50 83.333 -50 144c0 56 13.167 110.667 39.5 164s62.666 96.666 108.999 129.999s98.5 50 156.5 50c50.667 0 94 -9.33301 130 -28l-19 -98
c-32.667 10.667 -66.334 16 -101.001 16c-48.667 0 -89.334 -21 -122.001 -63s-49 -95 -49 -159c0 -31.333 6.83301 -55.5 20.5 -72.5s33.5 -25.5 59.5 -25.5c35.333 0 78.333 11.667 129 35zM274.003 600.001l-95 170h129l46 -107l87 107h135l-161 -170h-141z" />
    <glyph glyph-name="Dcaron" unicode="&#x10e;" horiz-adv-x="708" 
d="M37 0l134.999 692.999h230c89.333 0 159 -24.333 209 -73s75 -115.667 75 -201c0 -76 -16.333 -145.667 -49 -209s-79.167 -114.166 -139.5 -152.499s-128.166 -57.5 -203.499 -57.5h-257zM294.999 578.999l-90.002 -465.001h87c44.667 0 85.334 12.333 122.001 37
s66.167 59.334 88.5 104.001s33.5 96 33.5 154c0 55.333 -12.167 97.5 -36.5 126.5s-60.166 43.5 -107.499 43.5h-97zM499.997 768.998h-145l-104 141h143l42 -83l73 83h149z" />
    <glyph glyph-name="dcaron" unicode="&#x10f;" horiz-adv-x="653" 
d="M338 0l0.000976562 89c-24 -32 -51.333 -57.333 -82 -76s-60.334 -28 -89.001 -28c-44 0 -78.167 14.5 -102.5 43.5s-36.5 69.5 -36.5 121.5c0 64.667 13.167 125.5 39.5 182.5s63 103.5 110 139.5s99.167 54 156.5 54c24 0 50 -5 78 -15l44 229h142l-145 -740h-115z
M225.001 96c16 0 34.999 8.16797 56.999 24.501s44.333 39.166 67 68.499l44 226c-21.333 3.33301 -37.666 5 -48.999 5c-30 0 -58 -10.833 -84 -32.5s-47.167 -52 -63.5 -91s-24.5 -81.833 -24.5 -128.5c0 -48 17.667 -72 53 -72zM623 537.001l39 203c21.333 8 43 12 65 12
c28.667 0 50.667 -6.66699 66 -20l-79 -195h-91z" />
    <glyph glyph-name="Dcroat" unicode="&#x110;" horiz-adv-x="711" 
d="M47 0l59.999 306.999h-80l19 100h80l56 286h230c89.333 0 159 -24.333 209 -73s75 -115.667 75 -201c0 -76 -16.333 -145.667 -49 -209s-79.167 -114.166 -139.5 -152.499s-128.166 -57.5 -203.499 -57.5h-257zM251.999 306.999l-37.002 -193.001h87
c44.667 0 85.334 12.333 122.001 37s66.167 59.334 88.5 104.001s33.5 96 33.5 154c0 55.333 -12.167 97.5 -36.5 126.5s-60.166 43.5 -107.499 43.5h-97l-33 -172h141l-19 -100h-142z" />
    <glyph glyph-name="dcroat" unicode="&#x111;" horiz-adv-x="573" 
d="M338 0l0.000976562 89c-24 -32 -51.333 -57.333 -82 -76s-60.334 -28 -89.001 -28c-44 0 -78.167 14.5 -102.5 43.5s-36.5 69.5 -36.5 121.5c0 64.667 13.167 125.5 39.5 182.5s63 103.5 110 139.5s99.167 54 156.5 54c24 0 50 -5 78 -15l14 72h-144l18 86h142l14 71h142
l-14 -71h80l-18 -86h-79l-114 -583h-115zM225.001 96c16 0 34.999 8.16797 56.999 24.501s44.333 39.166 67 68.499l44 226c-21.333 3.33301 -37.666 5 -48.999 5c-30 0 -58 -10.833 -84 -32.5s-47.167 -52 -63.5 -91s-24.5 -81.833 -24.5 -128.5c0 -48 17.667 -72 53 -72z
" />
    <glyph glyph-name="Emacron" unicode="&#x112;" horiz-adv-x="566" 
d="M37 0l135 693h442l-22 -114h-297l-33 -167h242l-22 -114h-242l-36 -184h297l-22 -114h-442zM238 791l17 90h337l-17 -90h-337z" />
    <glyph glyph-name="emacron" unicode="&#x113;" horiz-adv-x="497" 
d="M432 46c-64.667 -42 -139.333 -63 -224 -63c-58 0 -102.5 16.167 -133.5 48.5s-46.5 78.5 -46.5 138.5c0 61.333 13.5 119.5 40.5 174.5s64.667 99.333 113 133s103.5 50.5 165.5 50.5c44 0 78.667 -11 104 -33s38 -51.667 38 -89c0 -55.333 -23.667 -102.833 -71 -142.5
s-114.666 -68.167 -201.999 -85.5l-57 -12c2 -28.667 9.66699 -49 23 -61s35.333 -18 66 -18c47.333 0 96.666 13.333 147.999 40zM313.001 426c-20.667 0 -41.5 -7.16992 -62.5 -21.5029s-39.333 -34.166 -55 -59.499s-26.5 -54.666 -32.5 -87.999l57 13
c42.667 9.33301 76.834 24.333 102.501 45s38.5 44.334 38.5 71.001c0 11.333 -4.33301 20.833 -13 28.5s-20.334 11.5 -35.001 11.5zM179.001 622.997l17 88h337l-17 -88h-337z" />
    <glyph glyph-name="Ebreve" unicode="&#x114;" horiz-adv-x="566" 
d="M37 0l135 693h442l-22 -114h-297l-33 -167h242l-22 -114h-242l-36 -184h297l-22 -114h-442zM492 910l84.998 -0.00195312c0 -43.333 -17.167 -78.833 -51.5 -106.5s-78.166 -41.5 -131.499 -41.5c-39.333 0 -71.166 9 -95.499 27s-36.5 41.667 -36.5 71
c0 16.667 4 33.334 12 50.001h80c-2 -10.667 -3 -18 -3 -22c0 -26.667 18.667 -40 56 -40c22 0 40 4.33301 54 13s23.333 21.334 28 38.001z" />
    <glyph glyph-name="ebreve" unicode="&#x115;" horiz-adv-x="497" 
d="M432 46c-64.667 -42 -139.333 -63 -224 -63c-58 0 -102.5 16.167 -133.5 48.5s-46.5 78.5 -46.5 138.5c0 61.333 13.5 119.5 40.5 174.5s64.667 99.333 113 133s103.5 50.5 165.5 50.5c44 0 78.667 -11 104 -33s38 -51.667 38 -89c0 -55.333 -23.667 -102.833 -71 -142.5
s-114.666 -68.167 -201.999 -85.5l-57 -12c2 -28.667 9.66699 -49 23 -61s35.333 -18 66 -18c47.333 0 96.666 13.333 147.999 40zM313.001 426c-20.667 0 -41.5 -7.16992 -62.5 -21.5029s-39.333 -34.166 -55 -59.499s-26.5 -54.666 -32.5 -87.999l57 13
c42.667 9.33301 76.834 24.333 102.501 45s38.5 44.334 38.5 71.001c0 11.333 -4.33301 20.833 -13 28.5s-20.334 11.5 -35.001 11.5zM440.001 761.997h83.001c-0.666992 -31.333 -8.33398 -59.5 -23.001 -84.5s-35.5 -44.833 -62.5 -59.5s-58.5 -22 -94.5 -22
c-42 0 -75.333 9.83301 -100 29.5s-37 46.167 -37 79.5c0 16.667 4.66699 35.667 14 57h78c-2.66699 -13.333 -4 -24.666 -4 -33.999c0 -15.333 5 -27 15 -35s24.333 -12 43 -12c22 0 39.833 5.16699 53.5 15.5s23.5 26.166 29.5 47.499z" />
    <glyph glyph-name="Edotaccent" unicode="&#x116;" horiz-adv-x="566" 
d="M37 0l135 693h442l-22 -114h-297l-33 -167h242l-22 -114h-242l-36 -184h297l-22 -114h-442zM505 863c0 -26 -9.5 -48 -28.5 -66s-42.167 -27 -69.5 -27c-24.667 0 -43.667 5.83301 -57 17.5s-20 28.167 -20 49.5c0 26 9.5 48 28.5 66s42.167 27 69.5 27
c25.333 0 44.5 -5.66699 57.5 -17s19.5 -28 19.5 -50z" />
    <glyph glyph-name="edotaccent" unicode="&#x117;" horiz-adv-x="497" 
d="M432 46c-64.667 -42 -139.333 -63 -224 -63c-58 0 -102.5 16.167 -133.5 48.5s-46.5 78.5 -46.5 138.5c0 61.333 13.5 119.5 40.5 174.5s64.667 99.333 113 133s103.5 50.5 165.5 50.5c44 0 78.667 -11 104 -33s38 -51.667 38 -89c0 -55.333 -23.667 -102.833 -71 -142.5
s-114.666 -68.167 -201.999 -85.5l-57 -12c2 -28.667 9.66699 -49 23 -61s35.333 -18 66 -18c47.333 0 96.666 13.333 147.999 40zM313.001 426c-20.667 0 -41.5 -7.16992 -62.5 -21.5029s-39.333 -34.166 -55 -59.499s-26.5 -54.666 -32.5 -87.999l57 13
c42.667 9.33301 76.834 24.333 102.501 45s38.5 44.334 38.5 71.001c0 11.333 -4.33301 20.833 -13 28.5s-20.334 11.5 -35.001 11.5zM445.001 680.997c0 -25.333 -9.33301 -46.833 -28 -64.5s-41.334 -26.5 -68.001 -26.5c-24 0 -42.5 5.5 -55.5 16.5
s-19.5 27.167 -19.5 48.5c0 25.333 9.33301 46.833 28 64.5s41.334 26.5 68.001 26.5c24 0 42.5 -5.5 55.5 -16.5s19.5 -27.167 19.5 -48.5z" />
    <glyph glyph-name="Eogonek" unicode="&#x118;" horiz-adv-x="566" 
d="M487 -205c-36.667 -17.333 -75.999 -25.999 -117.999 -25.999c-35.333 0 -62.5 7 -81.5 21s-28.5 33.667 -28.5 59c0 53.333 40 103.666 120 150.999h-342l135 693h442l-22 -114h-297l-33 -167h242l-22 -114h-242l-36 -184h297l-22 -114
c-69.333 -42.667 -104 -82.334 -104 -119.001c0 -9.33301 3.66699 -16.666 11 -21.999s17.666 -8 30.999 -8c9.33301 0 23.333 2.33301 42 7z" />
    <glyph glyph-name="eogonek" unicode="&#x119;" horiz-adv-x="497" 
d="M342 -205c-36.667 -17.333 -76 -26 -118 -26c-71.333 0 -107 25.667 -107 77c0 46.667 32.667 92.334 98 137.001h-7c-58 0 -102.5 16.167 -133.5 48.5s-46.5 78.5 -46.5 138.5c0 61.333 13.5 119.5 40.5 174.5s64.667 99.333 113 133s103.5 50.5 165.5 50.5
c44 0 78.667 -11 104 -33s38 -51.667 38 -89c0 -55.333 -23.667 -102.833 -71 -142.5s-114.666 -68.167 -201.999 -85.5l-57 -12c2 -28.667 9.66699 -49 23 -61s35.333 -18 66 -18c47.333 0 96.666 13.333 147.999 40l36 -81c-20.667 -12.667 -50.667 -27.334 -90 -44.001
c-33.333 -14 -60.333 -32.333 -81 -55s-31 -44.667 -31 -66s14.333 -32 43 -32c10 0 24 2.33301 42 7zM313 426c-20.667 0 -41.499 -7.16895 -62.499 -21.502s-39.333 -34.166 -55 -59.499s-26.5 -54.666 -32.5 -87.999l57 13c44 10.667 78.5 26.167 103.5 46.5
s37.5 43.5 37.5 69.5c0 11.333 -4.33301 20.833 -13 28.5s-20.334 11.5 -35.001 11.5z" />
    <glyph glyph-name="Ecaron" unicode="&#x11a;" horiz-adv-x="566" 
d="M37 0l135 693h442l-22 -114h-297l-33 -167h242l-22 -114h-242l-36 -184h297l-22 -114h-442zM470 769h-145l-104 141h143l42 -83l73 83h149z" />
    <glyph glyph-name="ecaron" unicode="&#x11b;" horiz-adv-x="497" 
d="M432 46c-64.667 -42 -139.333 -63 -224 -63c-58 0 -102.5 16.167 -133.5 48.5s-46.5 78.5 -46.5 138.5c0 61.333 13.5 119.5 40.5 174.5s64.667 99.333 113 133s103.5 50.5 165.5 50.5c44 0 78.667 -11 104 -33s38 -51.667 38 -89c0 -55.333 -23.667 -102.833 -71 -142.5
s-114.666 -68.167 -201.999 -85.5l-57 -12c2 -28.667 9.66699 -49 23 -61s35.333 -18 66 -18c47.333 0 96.666 13.333 147.999 40zM313.001 426c-20.667 0 -41.5 -7.16992 -62.5 -21.5029s-39.333 -34.166 -55 -59.499s-26.5 -54.666 -32.5 -87.999l57 13
c42.667 9.33301 76.834 24.333 102.501 45s38.5 44.334 38.5 71.001c0 11.333 -4.33301 20.833 -13 28.5s-20.334 11.5 -35.001 11.5zM269.001 599.997l-95 170h129l46 -107l87 107h135l-161 -170h-141z" />
    <glyph glyph-name="Gcircumflex" unicode="&#x11c;" horiz-adv-x="685" 
d="M355 96c28 0 62.332 5.33105 102.999 15.998l33 169h-126l21 108h260l-68 -347c-30.667 -18 -67.5 -32.667 -110.5 -44s-84.167 -17 -123.5 -17c-95.333 0 -167.666 24.333 -216.999 73s-74 119.334 -74 212.001c0 78.667 17.5 151.834 52.5 219.501
s84.167 122.167 147.5 163.5s134.666 62 213.999 62c35.333 0 71.5 -4.5 108.5 -13.5s66.833 -20.167 89.5 -33.5l-21 -106c-57.333 22.667 -117 34 -179 34c-49.333 0 -93.833 -12.833 -133.5 -38.5s-71.167 -62.5 -94.5 -110.5s-35 -102.333 -35 -163
c0 -62.667 12.333 -109 37 -139s63.334 -45 116.001 -45zM541.999 768.998l-61 75l-90 -75h-131l157 141h147l103 -141h-125z" />
    <glyph glyph-name="gcircumflex" unicode="&#x11d;" horiz-adv-x="580" 
d="M340 106c-24 -30 -50.666 -53.668 -79.999 -71.001s-58 -26 -86 -26c-44 0 -78.167 14.5 -102.5 43.5s-36.5 69.5 -36.5 121.5c0 58.667 13.833 114.834 41.5 168.501s66 97.667 115 132s102.833 51.5 161.5 51.5c31.333 0 65.166 -3.66699 101.499 -11
s69.833 -17 100.5 -29l-83 -424c-18 -92.667 -54.667 -162.5 -110 -209.5s-128.333 -70.5 -219 -70.5c-54.667 0 -106 12 -154 36l21 103c49.333 -18.667 94.333 -28 135 -28c54.667 0 96.5 13.667 125.5 41s49.833 73 62.5 137zM232.001 117.999
c16.667 0 36.3311 9.00098 58.998 27.001s46.334 43.667 71.001 77l38 193c-20 3.33301 -35.667 5 -47 5c-29.333 0 -57.166 -10 -83.499 -30s-48 -47.833 -65 -83.5s-25.5 -73.834 -25.5 -114.501c0 -49.333 17.667 -74 53 -74zM467.998 600l-66 98l-103 -98h-117l160 170
h143l94 -170h-111z" />
    <glyph glyph-name="Gbreve" unicode="&#x11e;" horiz-adv-x="685" 
d="M355 96c28 0 62.332 5.33105 102.999 15.998l33 169h-126l21 108h260l-68 -347c-30.667 -18 -67.5 -32.667 -110.5 -44s-84.167 -17 -123.5 -17c-95.333 0 -167.666 24.333 -216.999 73s-74 119.334 -74 212.001c0 78.667 17.5 151.834 52.5 219.501
s84.167 122.167 147.5 163.5s134.666 62 213.999 62c35.333 0 71.5 -4.5 108.5 -13.5s66.833 -20.167 89.5 -33.5l-21 -106c-57.333 22.667 -117 34 -179 34c-49.333 0 -93.833 -12.833 -133.5 -38.5s-71.167 -62.5 -94.5 -110.5s-35 -102.333 -35 -163
c0 -62.667 12.333 -109 37 -139s63.334 -45 116.001 -45zM556.999 909.998l84.998 -0.00195312c0 -43.333 -17.167 -78.833 -51.5 -106.5s-78.166 -41.5 -131.499 -41.5c-39.333 0 -71.166 9 -95.499 27s-36.5 41.667 -36.5 71c0 16.667 4 33.334 12 50.001h80
c-2 -10.667 -3 -18 -3 -22c0 -26.667 18.667 -40 56 -40c22 0 40 4.33301 54 13s23.333 21.334 28 38.001z" />
    <glyph glyph-name="gbreve" unicode="&#x11f;" horiz-adv-x="580" 
d="M340 106c-24 -30 -50.666 -53.668 -79.999 -71.001s-58 -26 -86 -26c-44 0 -78.167 14.5 -102.5 43.5s-36.5 69.5 -36.5 121.5c0 58.667 13.833 114.834 41.5 168.501s66 97.667 115 132s102.833 51.5 161.5 51.5c31.333 0 65.166 -3.66699 101.499 -11
s69.833 -17 100.5 -29l-83 -424c-18 -92.667 -54.667 -162.5 -110 -209.5s-128.333 -70.5 -219 -70.5c-54.667 0 -106 12 -154 36l21 103c49.333 -18.667 94.333 -28 135 -28c54.667 0 96.5 13.667 125.5 41s49.833 73 62.5 137zM232.001 117.999
c16.667 0 36.3311 9.00098 58.998 27.001s46.334 43.667 71.001 77l38 193c-20 3.33301 -35.667 5 -47 5c-29.333 0 -57.166 -10 -83.499 -30s-48 -47.833 -65 -83.5s-25.5 -73.834 -25.5 -114.501c0 -49.333 17.667 -74 53 -74zM483.998 762h83.001
c-0.666992 -31.333 -8.33398 -59.5 -23.001 -84.5s-35.5 -44.833 -62.5 -59.5s-58.5 -22 -94.5 -22c-42 0 -75.333 9.83301 -100 29.5s-37 46.167 -37 79.5c0 16.667 4.66699 35.667 14 57h78c-2.66699 -13.333 -4 -24.666 -4 -33.999c0 -15.333 5 -27 15 -35
s24.333 -12 43 -12c22 0 39.833 5.16699 53.5 15.5s23.5 26.166 29.5 47.499z" />
    <glyph glyph-name="Gdotaccent" unicode="&#x120;" horiz-adv-x="685" 
d="M355 96c28 0 62.332 5.33105 102.999 15.998l33 169h-126l21 108h260l-68 -347c-30.667 -18 -67.5 -32.667 -110.5 -44s-84.167 -17 -123.5 -17c-95.333 0 -167.666 24.333 -216.999 73s-74 119.334 -74 212.001c0 78.667 17.5 151.834 52.5 219.501
s84.167 122.167 147.5 163.5s134.666 62 213.999 62c35.333 0 71.5 -4.5 108.5 -13.5s66.833 -20.167 89.5 -33.5l-21 -106c-57.333 22.667 -117 34 -179 34c-49.333 0 -93.833 -12.833 -133.5 -38.5s-71.167 -62.5 -94.5 -110.5s-35 -102.333 -35 -163
c0 -62.667 12.333 -109 37 -139s63.334 -45 116.001 -45zM569.999 862.998c0 -26 -9.5 -48 -28.5 -66s-42.167 -27 -69.5 -27c-24.667 0 -43.667 5.83301 -57 17.5s-20 28.167 -20 49.5c0 26 9.5 48 28.5 66s42.167 27 69.5 27c25.333 0 44.5 -5.66699 57.5 -17
s19.5 -28 19.5 -50z" />
    <glyph glyph-name="gdotaccent" unicode="&#x121;" horiz-adv-x="580" 
d="M340 106c-24 -30 -50.666 -53.668 -79.999 -71.001s-58 -26 -86 -26c-44 0 -78.167 14.5 -102.5 43.5s-36.5 69.5 -36.5 121.5c0 58.667 13.833 114.834 41.5 168.501s66 97.667 115 132s102.833 51.5 161.5 51.5c31.333 0 65.166 -3.66699 101.499 -11
s69.833 -17 100.5 -29l-83 -424c-18 -92.667 -54.667 -162.5 -110 -209.5s-128.333 -70.5 -219 -70.5c-54.667 0 -106 12 -154 36l21 103c49.333 -18.667 94.333 -28 135 -28c54.667 0 96.5 13.667 125.5 41s49.833 73 62.5 137zM232.001 117.999
c16.667 0 36.3311 9.00098 58.998 27.001s46.334 43.667 71.001 77l38 193c-20 3.33301 -35.667 5 -47 5c-29.333 0 -57.166 -10 -83.499 -30s-48 -47.833 -65 -83.5s-25.5 -73.834 -25.5 -114.501c0 -49.333 17.667 -74 53 -74zM488.998 681
c0 -25.333 -9.33301 -46.833 -28 -64.5s-41.334 -26.5 -68.001 -26.5c-24 0 -42.5 5.5 -55.5 16.5s-19.5 27.167 -19.5 48.5c0 25.333 9.33301 46.833 28 64.5s41.334 26.5 68.001 26.5c24 0 42.5 -5.5 55.5 -16.5s19.5 -27.167 19.5 -48.5z" />
    <glyph glyph-name="uni0122" unicode="&#x122;" horiz-adv-x="685" 
d="M355 96c28 0 62.332 5.33105 102.999 15.998l33 169h-126l21 108h260l-68 -347c-30.667 -18 -67.5 -32.667 -110.5 -44s-84.167 -17 -123.5 -17c-95.333 0 -167.666 24.333 -216.999 73s-74 119.334 -74 212.001c0 78.667 17.5 151.834 52.5 219.501
s84.167 122.167 147.5 163.5s134.666 62 213.999 62c35.333 0 71.5 -4.5 108.5 -13.5s66.833 -20.167 89.5 -33.5l-21 -106c-57.333 22.667 -117 34 -179 34c-49.333 0 -93.833 -12.833 -133.5 -38.5s-71.167 -62.5 -94.5 -110.5s-35 -102.333 -35 -163
c0 -62.667 12.333 -109 37 -139s63.334 -45 116.001 -45zM199.999 -286.002l79 224h58c36.667 0 55 -12 55 -36c0 -8.66699 -2.5 -18.667 -7.5 -30s-14.5 -28 -28.5 -50l-67 -108h-89z" />
    <glyph glyph-name="uni0123" unicode="&#x123;" horiz-adv-x="580" 
d="M340 106c-24 -30 -50.666 -53.668 -79.999 -71.001s-58 -26 -86 -26c-44 0 -78.167 14.5 -102.5 43.5s-36.5 69.5 -36.5 121.5c0 58.667 13.833 114.834 41.5 168.501s66 97.667 115 132s102.833 51.5 161.5 51.5c31.333 0 65.166 -3.66699 101.499 -11
s69.833 -17 100.5 -29l-83 -424c-18 -92.667 -54.667 -162.5 -110 -209.5s-128.333 -70.5 -219 -70.5c-54.667 0 -106 12 -154 36l21 103c49.333 -18.667 94.333 -28 135 -28c54.667 0 96.5 13.667 125.5 41s49.833 73 62.5 137zM232.001 117.999
c16.667 0 36.3311 9.00098 58.998 27.001s46.334 43.667 71.001 77l38 193c-20 3.33301 -35.667 5 -47 5c-29.333 0 -57.166 -10 -83.499 -30s-48 -47.833 -65 -83.5s-25.5 -73.834 -25.5 -114.501c0 -49.333 17.667 -74 53 -74zM377.998 588
c-36.667 0 -55 12.3311 -55 36.998c0 8.66699 2 17.334 6 26.001s13.667 26.334 29 53.001l70 116h87l-82 -232h-55z" />
    <glyph glyph-name="Hcircumflex" unicode="&#x124;" horiz-adv-x="734" 
d="M450 0l57 295h-268l-57 -295h-145l135 693h145l-55 -282h268l55 282h145l-135 -693h-145zM536 769l-61 75l-90 -75h-131l157 141h147l103 -141h-125z" />
    <glyph glyph-name="hcircumflex" unicode="&#x125;" horiz-adv-x="601" 
d="M346 0l53 273.999c8.66699 46 13 78 13 96c0 16.667 -3.83301 28.834 -11.5 36.501s-19.834 11.5 -36.501 11.5c-18 0 -39.333 -8.16699 -64 -24.5s-49.334 -38.833 -74.001 -67.5l-63 -326h-142l144 740h142l-59 -304c24.667 28 51.834 50 81.501 66
s58.834 24 87.501 24c44.667 0 79 -11.833 103 -35.5s36 -57.5 36 -101.5c0 -25.333 -5 -64.333 -15 -117l-53 -272h-142zM322 788.999l-61 75l-90 -75h-131l157 141h147l103 -141h-125z" />
    <glyph glyph-name="Hbar" unicode="&#x126;" horiz-adv-x="754" 
d="M460 0l57 295h-268l-57 -295h-145l97 499h-79l19 92h78l20 102h145l-20 -102h268l20 102h145l-20 -102h82l-20 -92h-80l-97 -499h-145zM540 411l17 88h-268l-17 -88h268z" />
    <glyph glyph-name="hbar" unicode="&#x127;" horiz-adv-x="601" 
d="M346 0l53 273.999c8.66699 46 13 78 13 96c0 16.667 -3.83301 28.834 -11.5 36.501s-19.834 11.5 -36.501 11.5c-18 0 -39.333 -8.16699 -64 -24.5s-49.334 -38.833 -74.001 -67.5l-63 -326h-142l113 583h-80l18 86h79l14 71h142l-14 -71h143l-18 -86h-142l-28 -147
c24.667 28 51.834 50 81.501 66s58.834 24 87.501 24c44.667 0 79 -11.833 103 -35.5s36 -57.5 36 -101.5c0 -25.333 -5 -64.333 -15 -117l-53 -272h-142z" />
    <glyph glyph-name="Itilde" unicode="&#x128;" horiz-adv-x="329" 
d="M41 0l135 693h145l-135 -693h-145zM378 906h79.998c0 -9.33301 -1.66699 -22.333 -5 -39c-7.33301 -32.667 -22 -58 -44 -76s-48.667 -27 -80 -27c-18 0 -33.167 2.66699 -45.5 8s-25.5 14.666 -39.5 27.999c-15.333 14 -25.166 22.5 -29.499 25.5s-9.5 4.5 -15.5 4.5
c-14.667 0 -24.667 -9.66699 -30 -29l-9 -34h-80c0.666992 13.333 2.33398 26.333 5.00098 39c6 32 20.167 57.167 42.5 75.5s49.5 27.5 81.5 27.5c17.333 0 32 -2.5 44 -7.5s25.667 -14.5 41 -28.5c14 -13.333 23.5 -21.666 28.5 -24.999s10.5 -5 16.5 -5
c14.667 0 24.667 9.66699 30 29z" />
    <glyph glyph-name="itilde" unicode="&#x129;" horiz-adv-x="290" 
d="M25 0l99 511h142l-99 -511h-142zM332 737h79.998c0 -9.33301 -1.66699 -22.333 -5 -39c-7.33301 -32.667 -22 -58 -44 -76s-48.667 -27 -80 -27c-17.333 0 -32 2.66699 -44 8s-25.667 15.333 -41 30c-13.333 13.333 -22.666 21.666 -27.999 24.999s-11 5 -17 5
c-14.667 0 -24.667 -10.333 -30 -31l-9 -34h-80c0.666992 13.333 2.33398 26.333 5.00098 39c6 31.333 20 56.333 42 75s49.333 28 82 28c18 0 33 -2.66699 45 -8s25.333 -15.333 40 -30c14 -13.333 23.5 -21.666 28.5 -24.999s10.5 -5 16.5 -5
c14.667 0 24.667 10.333 30 31z" />
    <glyph glyph-name="Imacron" unicode="&#x12a;" horiz-adv-x="329" 
d="M41 0l135 693h145l-135 -693h-145zM94 791l17 90h337l-17 -90h-337z" />
    <glyph glyph-name="imacron" unicode="&#x12b;" horiz-adv-x="290" 
d="M25 0l99 511h142l-99 -511h-142zM46 623l17 88h337l-17 -88h-337z" />
    <glyph glyph-name="Ibreve" unicode="&#x12c;" horiz-adv-x="329" 
d="M41 0l135 693h145l-135 -693h-145zM348 910l84.998 -0.00195312c0 -43.333 -17.167 -78.833 -51.5 -106.5s-78.166 -41.5 -131.499 -41.5c-39.333 0 -71.166 9 -95.499 27s-36.5 41.667 -36.5 71c0 16.667 4 33.334 12 50.001h80c-2 -10.667 -3 -18 -3 -22
c0 -26.667 18.667 -40 56 -40c22 0 40 4.33301 54 13s23.333 21.334 28 38.001z" />
    <glyph glyph-name="ibreve" unicode="&#x12d;" horiz-adv-x="290" 
d="M25 0l99 511h142l-99 -511h-142zM307 762h83.001c-0.666992 -31.333 -8.33398 -59.5 -23.001 -84.5s-35.5 -44.833 -62.5 -59.5s-58.5 -22 -94.5 -22c-42 0 -75.333 9.83301 -100 29.5s-37 46.167 -37 79.5c0 16.667 4.66699 35.667 14 57h78
c-2.66699 -13.333 -4 -24.666 -4 -33.999c0 -15.333 5 -27 15 -35s24.333 -12 43 -12c22 0 39.833 5.16699 53.5 15.5s23.5 26.166 29.5 47.499z" />
    <glyph glyph-name="Iogonek" unicode="&#x12e;" horiz-adv-x="329" 
d="M194 -205c-36.667 -17.333 -75.999 -25.999 -117.999 -25.999c-35.333 0 -62.5 7 -81.5 21s-28.5 33.667 -28.5 59c0 53.333 40 103.666 120 150.999h-45l135 693h145l-135 -693c-69.333 -42.667 -104 -82.334 -104 -119.001c0 -9.33301 3.66699 -16.666 11 -21.999
s17.666 -8 30.999 -8c9.33301 0 23.333 2.33301 42 7z" />
    <glyph glyph-name="iogonek" unicode="&#x12f;" horiz-adv-x="290" 
d="M175 -205c-36.667 -17.333 -75.999 -25.999 -117.999 -25.999c-34.667 0 -61.334 7 -80.001 21s-28 33.667 -28 59c0 52 40.333 102.333 121 151h-45l99 511h142l-99 -511c-69.333 -42.667 -104 -82.334 -104 -119.001c0 -21.333 14.333 -32 43 -32
c9.33301 0 23.333 2.33301 42 7zM312.001 681.001c0 -25.333 -9.33301 -46.833 -28 -64.5s-41.334 -26.5 -68.001 -26.5c-24 0 -42.5 5.5 -55.5 16.5s-19.5 27.167 -19.5 48.5c0 25.333 9.33301 46.833 28 64.5s41.334 26.5 68.001 26.5c24 0 42.5 -5.5 55.5 -16.5
s19.5 -27.167 19.5 -48.5z" />
    <glyph glyph-name="Idotaccent" unicode="&#x130;" horiz-adv-x="329" 
d="M41 0l135 693h145l-135 -693h-145zM361 863c0 -26 -9.5 -48 -28.5 -66s-42.167 -27 -69.5 -27c-24.667 0 -43.667 5.83301 -57 17.5s-20 28.167 -20 49.5c0 26 9.5 48 28.5 66s42.167 27 69.5 27c25.333 0 44.5 -5.66699 57.5 -17s19.5 -28 19.5 -50z" />
    <glyph glyph-name="dotlessi" unicode="&#x131;" horiz-adv-x="290" 
d="M25 0l99 511h142l-99 -511h-142z" />
    <glyph glyph-name="IJ" unicode="&#x132;" horiz-adv-x="761" 
d="M619 693l145 -0.000976562l-94 -483c-14.667 -75.333 -41.834 -131.166 -81.501 -167.499s-92.5 -54.5 -158.5 -54.5c-43.333 0 -91 10.333 -143 31l21 109c44.667 -10.667 84 -16 118 -16c28.667 0 50.834 8.5 66.501 25.5s27.167 44.833 34.5 83.5zM41 -0.000976562
l135 693h145l-135 -693h-145z" />
    <glyph glyph-name="ij" unicode="&#x133;" horiz-adv-x="580" 
d="M274 -218c-41.333 0 -78 8 -110 24l18 93c20.667 -4.66699 39.667 -7 57 -7c37.333 1.33301 60.333 25.333 69 72l106 547h142l-106 -547c-24 -121.333 -82.667 -182 -176 -182zM506 590c-24.667 0 -43.334 5.5 -56.001 16.5s-19 27.167 -19 48.5
c0 25.333 9.33301 46.833 28 64.5s41.334 26.5 68.001 26.5c24.667 0 43.334 -5.5 56.001 -16.5s19 -27.167 19 -48.5c0 -25.333 -9.33301 -46.833 -28 -64.5s-41.334 -26.5 -68.001 -26.5zM216 590c-24 0 -42.5 5.5 -55.5 16.5s-19.5 27.167 -19.5 48.5
c0 25.333 9.33301 46.833 28 64.5s41.334 26.5 68.001 26.5c24 0 42.5 -5.5 55.5 -16.5s19.5 -27.167 19.5 -48.5c0 -25.333 -9.33301 -46.833 -28 -64.5s-41.334 -26.5 -68.001 -26.5zM124 511h142l-99 -511h-142z" />
    <glyph glyph-name="Jcircumflex" unicode="&#x134;" horiz-adv-x="444" 
d="M302 693l145 -0.000976562l-94 -483c-14.667 -75.333 -41.834 -131.166 -81.501 -167.499s-92.5 -54.5 -158.5 -54.5c-43.333 0 -91 10.333 -143 31l21 109c44.667 -10.667 84 -16 118 -16c28.667 0 50.834 8.5 66.501 25.5s27.167 44.833 34.5 83.5zM459 768.999l-61 75
l-90 -75h-131l157 141h147l103 -141h-125z" />
    <glyph glyph-name="jcircumflex" unicode="&#x135;" horiz-adv-x="290" 
d="M-108 -101c20.667 -4.66699 39.667 -7 57 -7c37.333 1.33301 60.333 25.333 69 72l106 547h142l-106 -547c-24 -121.333 -82.667 -182 -176 -182c-41.333 0 -78 8 -110 24zM291 600l-66 98l-103 -98h-117l160 170h143l94 -170h-111z" />
    <glyph glyph-name="uni0136" unicode="&#x136;" horiz-adv-x="654" 
d="M37 0l135 693h145l-58 -297l302 297h183l-351 -336l216 -357h-170l-193 329l-64 -329h-145zM162 -286l79 224h58c36.667 0 55 -12 55 -36c0 -8.66699 -2.5 -18.667 -7.5 -30s-14.5 -28 -28.5 -50l-67 -108h-89z" />
    <glyph glyph-name="uni0137" unicode="&#x137;" horiz-adv-x="547" 
d="M21 0l144 740h140l-85 -436l189 207h176l-241 -241l169 -270h-160l-145 243l-47 -243h-140zM106 -286l79 223.999h55c36.667 0 55 -12.333 55 -37c0 -8.66699 -2 -17.667 -6 -27s-13.667 -26.666 -29 -51.999l-67 -108h-87z" />
    <glyph glyph-name="kgreenlandic" unicode="&#x138;" horiz-adv-x="547" 
d="M21 0l99 511h140l-44 -227l201 227h168l-244 -259l172 -252h-162l-147 223l-43 -223h-140z" />
    <glyph glyph-name="Lacute" unicode="&#x139;" horiz-adv-x="535" 
d="M37 0l135 693h145l-112 -575h284l-23 -118h-429zM311 769h-121l121 129h158z" />
    <glyph glyph-name="lacute" unicode="&#x13a;" horiz-adv-x="322" 
d="M295 26c-35.333 -22 -77.334 -32.999 -126.001 -32.999c-39.333 0 -69.166 10.167 -89.499 30.5s-30.5 50.166 -30.5 89.499c0 22 5 59.333 15 112l100 515h142l-100 -515c-5.33301 -28.667 -8.83301 -48.5 -10.5 -59.5s-2.5 -21.167 -2.5 -30.5
c0 -10.667 3.5 -19.167 10.5 -25.5s16.833 -9.5 29.5 -9.5c10.667 0 21.667 1.66699 33 5zM302.999 789.001h-121l121 129h158z" />
    <glyph glyph-name="uni013B" unicode="&#x13b;" horiz-adv-x="535" 
d="M37 0l135 693h145l-112 -575h284l-23 -118h-429zM110 -286l79 224h58c36.667 0 55 -12 55 -36c0 -8.66699 -2.5 -18.667 -7.5 -30s-14.5 -28 -28.5 -50l-67 -108h-89z" />
    <glyph glyph-name="uni013C" unicode="&#x13c;" horiz-adv-x="322" 
d="M295 26c-35.333 -22 -77.334 -32.999 -126.001 -32.999c-39.333 0 -69.166 10.167 -89.499 30.5s-30.5 50.166 -30.5 89.499c0 22 5 59.333 15 112l100 515h142l-100 -515c-5.33301 -28.667 -8.83301 -48.5 -10.5 -59.5s-2.5 -21.167 -2.5 -30.5
c0 -10.667 3.5 -19.167 10.5 -25.5s16.833 -9.5 29.5 -9.5c10.667 0 21.667 1.66699 33 5zM10.999 -285.999l79 223.999h55c36.667 0 55 -12.333 55 -37c0 -8.66699 -2 -17.667 -6 -27s-13.667 -26.666 -29 -51.999l-67 -108h-87z" />
    <glyph glyph-name="Lcaron" unicode="&#x13d;" horiz-adv-x="535" 
d="M37 0l135 693h145l-112 -575h284l-23 -118h-429zM377 517l39 203c21.333 8 43 12 65 12c28.667 0 50.667 -6.66699 66 -20l-79 -195h-91z" />
    <glyph glyph-name="lcaron" unicode="&#x13e;" horiz-adv-x="361" 
d="M295 26c-35.333 -22 -77.334 -32.999 -126.001 -32.999c-39.333 0 -69.166 10.167 -89.499 30.5s-30.5 50.166 -30.5 89.499c0 22 5 59.333 15 112l100 515h142l-100 -515c-5.33301 -28.667 -8.83301 -48.5 -10.5 -59.5s-2.5 -21.167 -2.5 -30.5
c0 -10.667 3.5 -19.167 10.5 -25.5s16.833 -9.5 29.5 -9.5c10.667 0 21.667 1.66699 33 5zM330.999 537.001l39 203c21.333 8 43 12 65 12c28.667 0 50.667 -6.66699 66 -20l-79 -195h-91z" />
    <glyph glyph-name="Ldot" unicode="&#x13f;" horiz-adv-x="535" 
d="M37 0l135 693h145l-112 -575h284l-23 -118h-429zM514 396c0 -22.667 -8.5 -42.334 -25.5 -59.001s-37.5 -25 -61.5 -25c-22.667 0 -40 5.5 -52 16.5s-18 26.167 -18 45.5c0 22.667 8.5 42.334 25.5 59.001s37.5 25 61.5 25c22.667 0 40 -5.5 52 -16.5
s18 -26.167 18 -45.5z" />
    <glyph glyph-name="ldot" unicode="&#x140;" horiz-adv-x="436" 
d="M295 26c-35.333 -22 -77.334 -32.999 -126.001 -32.999c-39.333 0 -69.166 10.167 -89.499 30.5s-30.5 50.166 -30.5 89.499c0 22 5 59.333 15 112l100 515h142l-100 -515c-5.33301 -28.667 -8.83301 -48.5 -10.5 -59.5s-2.5 -21.167 -2.5 -30.5
c0 -10.667 3.5 -19.167 10.5 -25.5s16.833 -9.5 29.5 -9.5c10.667 0 21.667 1.66699 33 5zM457.999 382.001c0 -22.667 -8.5 -42.334 -25.5 -59.001s-37.5 -25 -61.5 -25c-22.667 0 -40 5.5 -52 16.5s-18 26.167 -18 45.5c0 22.667 8.5 42.334 25.5 59.001s37.5 25 61.5 25
c22.667 0 40 -5.5 52 -16.5s18 -26.167 18 -45.5z" />
    <glyph glyph-name="Lslash" unicode="&#x141;" horiz-adv-x="525" 
d="M37 0l44 224l-93 -49l22 112l93 49l69 357h145l-53 -270l179 96l-22 -112l-179 -96l-37 -193h284l-23 -118h-429z" />
    <glyph glyph-name="lslash" unicode="&#x142;" horiz-adv-x="322" 
d="M295 26c-35.333 -22 -77.334 -32.999 -126.001 -32.999c-39.333 0 -69.166 10.167 -89.499 30.5s-30.5 50.166 -30.5 89.499c0 22 5 59.333 15 112l9 46l-83 -44l18 95l83 44l73 374h142l-56 -290l111 59l-19 -95l-111 -59l-25 -130
c-5.33301 -28.667 -8.83301 -48.5 -10.5 -59.5s-2.5 -21.167 -2.5 -30.5c0 -10.667 3.5 -19.167 10.5 -25.5s16.833 -9.5 29.5 -9.5c10.667 0 21.667 1.66699 33 5z" />
    <glyph glyph-name="Nacute" unicode="&#x143;" horiz-adv-x="732" 
d="M440 0l-178 492l-95 -492h-130l135 693h153l177 -491l96 491h130l-135 -693h-153zM517 769h-121l121 129h158z" />
    <glyph glyph-name="nacute" unicode="&#x144;" horiz-adv-x="601" 
d="M346 0l53 273.999c8.66699 46 13 78 13 96c0 16.667 -3.83301 28.834 -11.5 36.501s-19.834 11.5 -36.501 11.5c-18 0 -39.333 -8 -64 -24s-49 -38 -73 -66l-64 -328h-142l99 511h115l2 -87c26 32 54.833 57 86.5 75s62.834 27 93.501 27c44.667 0 79 -11.833 103 -35.5
s36 -57.5 36 -101.5c0 -25.333 -5 -64.333 -15 -117l-53 -272h-142zM305 599.999l124 169h160l-167 -169h-117z" />
    <glyph glyph-name="uni0145" unicode="&#x145;" horiz-adv-x="732" 
d="M440 0l-178 492l-95 -492h-130l135 693h153l177 -491l96 491h130l-135 -693h-153zM174 -286l79 224h58c36.667 0 55 -12 55 -36c0 -8.66699 -2.5 -18.667 -7.5 -30s-14.5 -28 -28.5 -50l-67 -108h-89z" />
    <glyph glyph-name="uni0146" unicode="&#x146;" horiz-adv-x="601" 
d="M346 0l53 273.999c8.66699 46 13 78 13 96c0 16.667 -3.83301 28.834 -11.5 36.501s-19.834 11.5 -36.501 11.5c-18 0 -39.333 -8 -64 -24s-49 -38 -73 -66l-64 -328h-142l99 511h115l2 -87c26 32 54.833 57 86.5 75s62.834 27 93.501 27c44.667 0 79 -11.833 103 -35.5
s36 -57.5 36 -101.5c0 -25.333 -5 -64.333 -15 -117l-53 -272h-142zM112 -286.001l79 223.999h55c36.667 0 55 -12.333 55 -37c0 -8.66699 -2 -17.667 -6 -27s-13.667 -26.666 -29 -51.999l-67 -108h-87z" />
    <glyph glyph-name="Ncaron" unicode="&#x147;" horiz-adv-x="732" 
d="M440 0l-178 492l-95 -492h-130l135 693h153l177 -491l96 491h130l-135 -693h-153zM528 769h-145l-104 141h143l42 -83l73 83h149z" />
    <glyph glyph-name="ncaron" unicode="&#x148;" horiz-adv-x="601" 
d="M346 0l53 273.999c8.66699 46 13 78 13 96c0 16.667 -3.83301 28.834 -11.5 36.501s-19.834 11.5 -36.501 11.5c-18 0 -39.333 -8 -64 -24s-49 -38 -73 -66l-64 -328h-142l99 511h115l2 -87c26 32 54.833 57 86.5 75s62.834 27 93.501 27c44.667 0 79 -11.833 103 -35.5
s36 -57.5 36 -101.5c0 -25.333 -5 -64.333 -15 -117l-53 -272h-142zM297 599.999l-95 170h129l46 -107l87 107h135l-161 -170h-141z" />
    <glyph glyph-name="napostrophe" unicode="&#x149;" horiz-adv-x="811" 
d="M556 0l53 273.999c8.66699 46 13 78 13 96c0 16.667 -3.83301 28.834 -11.5 36.501s-19.834 11.5 -36.501 11.5c-18 0 -39.333 -8 -64 -24s-49 -38 -73 -66l-64 -328h-142l99 511h115l2 -87c26 32 54.833 57 86.5 75s62.834 27 93.501 27c44.667 0 79 -11.833 103 -35.5
s36 -57.5 36 -101.5c0 -25.333 -5 -64.333 -15 -117l-53 -272h-142zM85 400.999l107 292h60c22.667 0 39.167 -3.83301 49.5 -11.5s15.5 -19.5 15.5 -35.5c0 -18.667 -9.33301 -43 -28 -73l-108 -172h-96z" />
    <glyph glyph-name="Eng" unicode="&#x14a;" horiz-adv-x="732" 
d="M453 0l-190 495l-96 -495h-130l135 693h153l178 -488l95 488h130l-135 -693c-28 -145.333 -107.667 -218 -239 -218c-43.333 0 -91 10.333 -143 31l21 107c44.667 -10.667 84 -16 118 -16c53.333 0 87 29.333 101 88z" />
    <glyph glyph-name="eng" unicode="&#x14b;" horiz-adv-x="601" 
d="M399 274c8.66699 46 13 77.999 13 95.999c0 16.667 -3.83301 28.834 -11.5 36.501s-19.834 11.5 -36.501 11.5c-18 0 -39.333 -8 -64 -24s-49 -38 -73 -66l-64 -328h-142l99 511h115l2 -87c26 32 54.833 57 86.5 75s62.834 27 93.501 27c44.667 0 79 -11.833 103 -35.5
s36 -57.5 36 -101.5c0 -25.333 -5 -64.333 -15 -117l-59 -305c-12 -60.667 -34.5 -106.667 -67.5 -138s-75.833 -47 -128.5 -47c-48.667 0 -87.667 10 -117 30l18 93c26 -8.66699 50.667 -13 74 -13c42.667 0 69 25.333 79 76z" />
    <glyph glyph-name="Omacron" unicode="&#x14c;" horiz-adv-x="751" 
d="M339 -17c-88.667 0 -158.502 25.498 -209.502 76.498s-76.5 120.833 -76.5 209.5c0 82.667 15.833 157.334 47.5 224.001s76.5 119.667 134.5 159s124.667 59 200 59c88.667 0 158.5 -25.5 209.5 -76.5s76.5 -121.167 76.5 -210.5c0 -82.667 -15.667 -157.167 -47 -223.5
s-76.166 -119.166 -134.499 -158.499s-125.166 -59 -200.499 -59zM348.998 102.998c40.667 0 77.668 12.8301 111.001 38.4971s60.166 62.334 80.499 110.001s30.5 101.834 30.5 162.501c0 56.667 -12.667 100.334 -38 131.001s-61.333 46 -108 46
c-30 0 -58.167 -7.16699 -84.5 -21.5s-49.833 -35.333 -70.5 -63s-37 -61 -49 -100s-18 -81.833 -18 -128.5c0 -56 12.667 -99.167 38 -129.5s61.333 -45.5 108 -45.5zM300.999 790.995l17 90h337l-17 -90h-337z" />
    <glyph glyph-name="omacron" unicode="&#x14d;" horiz-adv-x="559" 
d="M237 -15c-64 0 -114.833 18.5 -152.5 55.5s-56.5 87.167 -56.5 150.5c0 62 12.167 118.333 36.5 169s58.833 91 103.5 121s96 45 154 45c64 0 114.833 -18.5 152.5 -55.5s56.5 -87.167 56.5 -150.5c0 -62 -12.167 -118.333 -36.5 -169s-58.833 -91 -103.5 -121
s-96 -45 -154 -45zM247 93c25.333 0 48.5 9.33301 69.5 28s38 44.834 51 78.501s19.5 71.5 19.5 113.5c0 32 -6.83301 57.5 -20.5 76.5s-31.834 28.5 -54.501 28.5c-25.333 0 -48.5 -9.33301 -69.5 -28s-38 -44.834 -51 -78.501s-19.5 -71.5 -19.5 -113.5
c0 -32 6.83301 -57.5 20.5 -76.5s31.834 -28.5 54.501 -28.5zM180 623l17 88h337l-17 -88h-337z" />
    <glyph glyph-name="Obreve" unicode="&#x14e;" horiz-adv-x="751" 
d="M339 -17c-88.667 0 -158.502 25.498 -209.502 76.498s-76.5 120.833 -76.5 209.5c0 82.667 15.833 157.334 47.5 224.001s76.5 119.667 134.5 159s124.667 59 200 59c88.667 0 158.5 -25.5 209.5 -76.5s76.5 -121.167 76.5 -210.5c0 -82.667 -15.667 -157.167 -47 -223.5
s-76.166 -119.166 -134.499 -158.499s-125.166 -59 -200.499 -59zM348.998 102.998c40.667 0 77.668 12.8301 111.001 38.4971s60.166 62.334 80.499 110.001s30.5 101.834 30.5 162.501c0 56.667 -12.667 100.334 -38 131.001s-61.333 46 -108 46
c-30 0 -58.167 -7.16699 -84.5 -21.5s-49.833 -35.333 -70.5 -63s-37 -61 -49 -100s-18 -81.833 -18 -128.5c0 -56 12.667 -99.167 38 -129.5s61.333 -45.5 108 -45.5zM554.999 909.995l84.998 -0.00195312c0 -43.333 -17.167 -78.833 -51.5 -106.5
s-78.166 -41.5 -131.499 -41.5c-39.333 0 -71.166 9 -95.499 27s-36.5 41.667 -36.5 71c0 16.667 4 33.334 12 50.001h80c-2 -10.667 -3 -18 -3 -22c0 -26.667 18.667 -40 56 -40c22 0 40 4.33301 54 13s23.333 21.334 28 38.001z" />
    <glyph glyph-name="obreve" unicode="&#x14f;" horiz-adv-x="559" 
d="M237 -15c-64 0 -114.833 18.5 -152.5 55.5s-56.5 87.167 -56.5 150.5c0 62 12.167 118.333 36.5 169s58.833 91 103.5 121s96 45 154 45c64 0 114.833 -18.5 152.5 -55.5s56.5 -87.167 56.5 -150.5c0 -62 -12.167 -118.333 -36.5 -169s-58.833 -91 -103.5 -121
s-96 -45 -154 -45zM247 93c25.333 0 48.5 9.33301 69.5 28s38 44.834 51 78.501s19.5 71.5 19.5 113.5c0 32 -6.83301 57.5 -20.5 76.5s-31.834 28.5 -54.501 28.5c-25.333 0 -48.5 -9.33301 -69.5 -28s-38 -44.834 -51 -78.501s-19.5 -71.5 -19.5 -113.5
c0 -32 6.83301 -57.5 20.5 -76.5s31.834 -28.5 54.501 -28.5zM441 762h83.001c-0.666992 -31.333 -8.33398 -59.5 -23.001 -84.5s-35.5 -44.833 -62.5 -59.5s-58.5 -22 -94.5 -22c-42 0 -75.333 9.83301 -100 29.5s-37 46.167 -37 79.5c0 16.667 4.66699 35.667 14 57h78
c-2.66699 -13.333 -4 -24.666 -4 -33.999c0 -15.333 5 -27 15 -35s24.333 -12 43 -12c22 0 39.833 5.16699 53.5 15.5s23.5 26.166 29.5 47.499z" />
    <glyph glyph-name="Ohungarumlaut" unicode="&#x150;" horiz-adv-x="751" 
d="M339 -17c-88.667 0 -158.502 25.498 -209.502 76.498s-76.5 120.833 -76.5 209.5c0 82.667 15.833 157.334 47.5 224.001s76.5 119.667 134.5 159s124.667 59 200 59c88.667 0 158.5 -25.5 209.5 -76.5s76.5 -121.167 76.5 -210.5c0 -82.667 -15.667 -157.167 -47 -223.5
s-76.166 -119.166 -134.499 -158.499s-125.166 -59 -200.499 -59zM348.998 102.998c40.667 0 77.668 12.8301 111.001 38.4971s60.166 62.334 80.499 110.001s30.5 101.834 30.5 162.501c0 56.667 -12.667 100.334 -38 131.001s-61.333 46 -108 46
c-30 0 -58.167 -7.16699 -84.5 -21.5s-49.833 -35.333 -70.5 -63s-37 -61 -49 -100s-18 -81.833 -18 -128.5c0 -56 12.667 -99.167 38 -129.5s61.333 -45.5 108 -45.5zM413.999 768.995h-122l126 129h153zM610.999 768.995h-121l125 129h154z" />
    <glyph glyph-name="ohungarumlaut" unicode="&#x151;" horiz-adv-x="559" 
d="M237 -15c-64 0 -114.833 18.5 -152.5 55.5s-56.5 87.167 -56.5 150.5c0 62 12.167 118.333 36.5 169s58.833 91 103.5 121s96 45 154 45c64 0 114.833 -18.5 152.5 -55.5s56.5 -87.167 56.5 -150.5c0 -62 -12.167 -118.333 -36.5 -169s-58.833 -91 -103.5 -121
s-96 -45 -154 -45zM247 93c25.333 0 48.5 9.33301 69.5 28s38 44.834 51 78.501s19.5 71.5 19.5 113.5c0 32 -6.83301 57.5 -20.5 76.5s-31.834 28.5 -54.501 28.5c-25.333 0 -48.5 -9.33301 -69.5 -28s-38 -44.834 -51 -78.501s-19.5 -71.5 -19.5 -113.5
c0 -32 6.83301 -57.5 20.5 -76.5s31.834 -28.5 54.501 -28.5zM157 600l130 170h155l-167 -170h-118zM366 600l130 170h156l-168 -170h-118z" />
    <glyph glyph-name="OE" unicode="&#x152;" horiz-adv-x="1025" 
d="M499 0l8.00195 44.001c-53.333 -40.667 -112 -61 -176 -61c-86.667 0 -154.667 25.5 -204 76.5s-74 120.833 -74 209.5c0 82.667 15.667 157.167 47 223.5s76.166 119.166 134.499 158.499s125.166 59 200.499 59c40 0 75.833 -6.5 107.5 -19.5
s58.167 -32.167 79.5 -57.5l12 60h439l-22 -114h-297l-33 -167h242l-22 -114h-242l-36 -184h297l-22 -114h-439zM342.002 103.001c42 0 80.168 12.832 114.501 38.499s62 62.334 83 110.001s31.5 101.834 31.5 162.501c0 56.667 -12.667 100.167 -38 130.5
s-61.333 45.5 -108 45.5c-40.667 0 -77.834 -13 -111.501 -39s-60.5 -62.833 -80.5 -110.5s-30 -101.834 -30 -162.501c0 -56 12 -99.167 36 -129.5s58.333 -45.5 103 -45.5z" />
    <glyph glyph-name="oe" unicode="&#x153;" horiz-adv-x="846" 
d="M781 46c-64.667 -42 -139.331 -63 -223.998 -63c-36 0 -66.667 7.5 -92 22.5s-44.333 36.833 -57 65.5c-23.333 -28 -50.333 -49.333 -81 -64s-63.334 -22 -98.001 -22c-60.667 0 -109.334 18.667 -146.001 56s-55 87.333 -55 150c0 61.333 12.167 117.333 36.5 168
s58.666 91.167 102.999 121.5s94.5 45.5 150.5 45.5c40 0 74 -8.16699 102 -24.5s48.333 -39.833 61 -70.5c28.667 31.333 61.334 55.333 98.001 72s75.667 25 117 25c44 0 78.667 -11 104 -33s38 -51.667 38 -89c0 -55.333 -23.667 -102.833 -71 -142.5
s-114.666 -68.167 -201.999 -85.5l-57 -12v-4c0 -26 7 -45 21 -57s36.667 -18 68 -18c47.333 0 96.666 13.333 147.999 40zM247.003 93c25.333 0 48.5 9.33301 69.5 28s38 44.834 51 78.501s19.5 71.5 19.5 113.5c0 32 -6.83301 57.5 -20.5 76.5s-31.834 28.5 -54.501 28.5
c-25.333 0 -48.5 -9.33301 -69.5 -28s-38 -44.834 -51 -78.501s-19.5 -71.5 -19.5 -113.5c0 -32 6.83301 -57.5 20.5 -76.5s31.834 -28.5 54.501 -28.5zM569.003 270c44 10 78.502 25.167 103.502 45.5s37.5 43.833 37.5 70.5c0 11.333 -4.33301 20.833 -13 28.5
s-20.334 11.5 -35.001 11.5c-20.667 0 -41.334 -7 -62.001 -21s-39 -33.833 -55 -59.5s-27 -55.167 -33 -88.5z" />
    <glyph glyph-name="Racute" unicode="&#x154;" horiz-adv-x="635" 
d="M423 0l-100 269h-6h-86l-52 -269h-142l135 693h224c70.667 0 125.5 -16.5 164.5 -49.5s58.5 -79.167 58.5 -138.5c0 -50.667 -14.167 -94.667 -42.5 -132s-68.833 -65.333 -121.5 -84l112 -289h-144zM250 371h76c46.667 0 83.167 11 109.5 33s39.5 52.667 39.5 92
c0 59.333 -37 89 -111 89h-72zM474 769h-121l121 129h158z" />
    <glyph glyph-name="racute" unicode="&#x155;" horiz-adv-x="402" 
d="M21 0l99.001 510.999h115l2 -88c21.333 28.667 46 51.334 74 68.001s56.333 25 85 25c16.667 0 32 -2 46 -6l-26 -132c-20.667 4 -40.334 6 -59.001 6c-48.667 0 -91.667 -19 -129 -57l-65 -327h-142zM234.001 599.999l124 169h160l-167 -169h-117z" />
    <glyph glyph-name="uni0156" unicode="&#x156;" horiz-adv-x="635" 
d="M423 0l-100 269h-6h-86l-52 -269h-142l135 693h224c70.667 0 125.5 -16.5 164.5 -49.5s58.5 -79.167 58.5 -138.5c0 -50.667 -14.167 -94.667 -42.5 -132s-68.833 -65.333 -121.5 -84l112 -289h-144zM250 371h76c46.667 0 83.167 11 109.5 33s39.5 52.667 39.5 92
c0 59.333 -37 89 -111 89h-72zM149 -286l79 224h58c36.667 0 55 -12 55 -36c0 -8.66699 -2.5 -18.667 -7.5 -30s-14.5 -28 -28.5 -50l-67 -108h-89z" />
    <glyph glyph-name="uni0157" unicode="&#x157;" horiz-adv-x="402" 
d="M21 0l99.001 510.999h115l2 -88c21.333 28.667 46 51.334 74 68.001s56.333 25 85 25c16.667 0 32 -2 46 -6l-26 -132c-20.667 4 -40.334 6 -59.001 6c-48.667 0 -91.667 -19 -129 -57l-65 -327h-142zM-52.999 -286.001l79 223.999h55c36.667 0 55 -12.333 55 -37
c0 -8.66699 -2 -17.667 -6 -27s-13.667 -26.666 -29 -51.999l-67 -108h-87z" />
    <glyph glyph-name="Rcaron" unicode="&#x158;" horiz-adv-x="635" 
d="M423 0l-100 269h-6h-86l-52 -269h-142l135 693h224c70.667 0 125.5 -16.5 164.5 -49.5s58.5 -79.167 58.5 -138.5c0 -50.667 -14.167 -94.667 -42.5 -132s-68.833 -65.333 -121.5 -84l112 -289h-144zM250 371h76c46.667 0 83.167 11 109.5 33s39.5 52.667 39.5 92
c0 59.333 -37 89 -111 89h-72zM485 769h-145l-104 141h143l42 -83l73 83h149z" />
    <glyph glyph-name="rcaron" unicode="&#x159;" horiz-adv-x="402" 
d="M21 0l99.001 510.999h115l2 -88c21.333 28.667 46 51.334 74 68.001s56.333 25 85 25c16.667 0 32 -2 46 -6l-26 -132c-20.667 4 -40.334 6 -59.001 6c-48.667 0 -91.667 -19 -129 -57l-65 -327h-142zM226.001 599.999l-95 170h129l46 -107l87 107h135l-161 -170h-141z
" />
    <glyph glyph-name="Sacute" unicode="&#x15a;" horiz-adv-x="556" 
d="M216 307c-44.667 20.667 -77.332 45.335 -97.999 74.002s-31 63.334 -31 104.001s11.167 78 33.5 112s54 61.333 95 82s87.5 31 139.5 31c35.333 0 69.166 -4.16699 101.499 -12.5s60.833 -20.166 85.5 -35.499l-22 -107c-20 10.667 -44.5 19.5 -73.5 26.5
s-56.5 10.5 -82.5 10.5c-42.667 0 -74.834 -7.33301 -96.501 -22s-32.5 -36.334 -32.5 -65.001c0 -16.667 5.16699 -30.834 15.5 -42.501s27.5 -22.834 51.5 -33.501l78 -35c42.667 -18.667 74.334 -42.334 95.001 -71.001s31 -63.334 31 -104.001
c0 -45.333 -11.667 -85.833 -35 -121.5s-57 -63.667 -101 -84s-95 -30.5 -153 -30.5c-86 0 -156.333 17.667 -211 53l24 109c61.333 -28 124.333 -42 189 -42c42 0 75.333 7.83301 100 23.5s37 36.834 37 63.501c0 20.667 -5.66699 37.167 -17 49.5s-34.333 26.5 -69 42.5z
M421.002 769.001h-121l121 129h158z" />
    <glyph glyph-name="sacute" unicode="&#x15b;" horiz-adv-x="445" 
d="M159 221c-32.667 18 -56.3311 37.667 -70.998 59s-22 47.333 -22 78c0 50 18.833 90.5 56.5 121.5s87.167 46.5 148.5 46.5c29.333 0 58.166 -3.16699 86.499 -9.5s52.166 -15.166 71.499 -26.499l-19 -97c-16.667 8.66699 -37.167 15.5 -61.5 20.5
s-48.166 7.5 -71.499 7.5c-25.333 0 -44.5 -4.16699 -57.5 -12.5s-19.5 -20.5 -19.5 -36.5c0 -9.33301 4.16699 -18 12.5 -26s24.166 -18.333 47.499 -31l44 -24c34 -18.667 58.167 -38.334 72.5 -59.001s21.5 -46.334 21.5 -77.001c0 -53.333 -19.333 -95.166 -58 -125.499
s-92.334 -45.5 -161.001 -45.5c-31.333 0 -63 3.5 -95 10.5s-60 16.833 -84 29.5l19 98c22 -9.33301 47.833 -17 77.5 -23s57.834 -9 84.501 -9c54 0 81 17 81 51c0 10 -3.5 18.5 -10.5 25.5s-23.167 17.167 -48.5 30.5zM220.003 600l124 169h160l-167 -169h-117z" />
    <glyph glyph-name="Scircumflex" unicode="&#x15c;" horiz-adv-x="556" 
d="M216 307c-44.667 20.667 -77.332 45.335 -97.999 74.002s-31 63.334 -31 104.001s11.167 78 33.5 112s54 61.333 95 82s87.5 31 139.5 31c35.333 0 69.166 -4.16699 101.499 -12.5s60.833 -20.166 85.5 -35.499l-22 -107c-20 10.667 -44.5 19.5 -73.5 26.5
s-56.5 10.5 -82.5 10.5c-42.667 0 -74.834 -7.33301 -96.501 -22s-32.5 -36.334 -32.5 -65.001c0 -16.667 5.16699 -30.834 15.5 -42.501s27.5 -22.834 51.5 -33.501l78 -35c42.667 -18.667 74.334 -42.334 95.001 -71.001s31 -63.334 31 -104.001
c0 -45.333 -11.667 -85.833 -35 -121.5s-57 -63.667 -101 -84s-95 -30.5 -153 -30.5c-86 0 -156.333 17.667 -211 53l24 109c61.333 -28 124.333 -42 189 -42c42 0 75.333 7.83301 100 23.5s37 36.834 37 63.501c0 20.667 -5.66699 37.167 -17 49.5s-34.333 26.5 -69 42.5z
M439.002 769.001l-61 75l-90 -75h-131l157 141h147l103 -141h-125z" />
    <glyph glyph-name="scircumflex" unicode="&#x15d;" horiz-adv-x="445" 
d="M159 221c-32.667 18 -56.3311 37.667 -70.998 59s-22 47.333 -22 78c0 50 18.833 90.5 56.5 121.5s87.167 46.5 148.5 46.5c29.333 0 58.166 -3.16699 86.499 -9.5s52.166 -15.166 71.499 -26.499l-19 -97c-16.667 8.66699 -37.167 15.5 -61.5 20.5
s-48.166 7.5 -71.499 7.5c-25.333 0 -44.5 -4.16699 -57.5 -12.5s-19.5 -20.5 -19.5 -36.5c0 -9.33301 4.16699 -18 12.5 -26s24.166 -18.333 47.499 -31l44 -24c34 -18.667 58.167 -38.334 72.5 -59.001s21.5 -46.334 21.5 -77.001c0 -53.333 -19.333 -95.166 -58 -125.499
s-92.334 -45.5 -161.001 -45.5c-31.333 0 -63 3.5 -95 10.5s-60 16.833 -84 29.5l19 98c22 -9.33301 47.833 -17 77.5 -23s57.834 -9 84.501 -9c54 0 81 17 81 51c0 10 -3.5 18.5 -10.5 25.5s-23.167 17.167 -48.5 30.5zM367.003 600l-66 98l-103 -98h-117l160 170h143
l94 -170h-111z" />
    <glyph glyph-name="Scedilla" unicode="&#x15e;" horiz-adv-x="556" 
d="M216 307c-44.667 20.667 -77.332 45.335 -97.999 74.002s-31 63.334 -31 104.001s11.167 78 33.5 112s54 61.333 95 82s87.5 31 139.5 31c35.333 0 69.166 -4.16699 101.499 -12.5s60.833 -20.166 85.5 -35.499l-22 -107c-20 10.667 -44.5 19.5 -73.5 26.5
s-56.5 10.5 -82.5 10.5c-42.667 0 -74.834 -7.33301 -96.501 -22s-32.5 -36.334 -32.5 -65.001c0 -16.667 5.16699 -30.834 15.5 -42.501s27.5 -22.834 51.5 -33.501l78 -35c42.667 -18.667 74.334 -42.334 95.001 -71.001s31 -63.334 31 -104.001
c0 -45.333 -11.667 -85.833 -35 -121.5s-57 -63.667 -101 -84s-95 -30.5 -153 -30.5c-86 0 -156.333 17.667 -211 53l24 109c61.333 -28 124.333 -42 189 -42c42 0 75.333 7.83301 100 23.5s37 36.834 37 63.501c0 20.667 -5.66699 37.167 -17 49.5s-34.333 26.5 -69 42.5z
M73.002 -238.999c33.333 18 57.166 32.999 71.499 44.999s21.5 23 21.5 33c0 14 -9 21 -27 21c-6 0 -17 -1 -33 -3l15 73c23.333 7.33301 47 11 71 11c26.667 0 47.334 -5.83301 62.001 -17.5s22 -28.167 22 -49.5c0 -29.333 -12.333 -56.666 -37 -81.999
s-64.667 -52.333 -120 -81z" />
    <glyph glyph-name="scedilla" unicode="&#x15f;" horiz-adv-x="445" 
d="M159 221c-32.667 18 -56.3311 37.667 -70.998 59s-22 47.333 -22 78c0 50 18.833 90.5 56.5 121.5s87.167 46.5 148.5 46.5c29.333 0 58.166 -3.16699 86.499 -9.5s52.166 -15.166 71.499 -26.499l-19 -97c-16.667 8.66699 -37.167 15.5 -61.5 20.5
s-48.166 7.5 -71.499 7.5c-25.333 0 -44.5 -4.16699 -57.5 -12.5s-19.5 -20.5 -19.5 -36.5c0 -9.33301 4.16699 -18 12.5 -26s24.166 -18.333 47.499 -31l44 -24c34 -18.667 58.167 -38.334 72.5 -59.001s21.5 -46.334 21.5 -77.001c0 -53.333 -19.333 -95.166 -58 -125.499
s-92.334 -45.5 -161.001 -45.5c-31.333 0 -63 3.5 -95 10.5s-60 16.833 -84 29.5l19 98c22 -9.33301 47.833 -17 77.5 -23s57.834 -9 84.501 -9c54 0 81 17 81 51c0 10 -3.5 18.5 -10.5 25.5s-23.167 17.167 -48.5 30.5zM29.0029 -240
c33.333 18 57.332 33.166 71.999 45.499s22 23.5 22 33.5c0 15.333 -9.66699 23 -29 23c-6 0 -17 -1 -33 -3l15 71c23.333 7.33301 47 11 71 11c26.667 0 47.334 -5.83301 62.001 -17.5s22 -28.167 22 -49.5c0 -29.333 -12.333 -56.666 -37 -81.999
s-64.667 -52.333 -120 -81z" />
    <glyph glyph-name="Scaron" unicode="&#x160;" horiz-adv-x="556" 
d="M216 307c-44.667 20.667 -77.332 45.335 -97.999 74.002s-31 63.334 -31 104.001s11.167 78 33.5 112s54 61.333 95 82s87.5 31 139.5 31c35.333 0 69.166 -4.16699 101.499 -12.5s60.833 -20.166 85.5 -35.499l-22 -107c-20 10.667 -44.5 19.5 -73.5 26.5
s-56.5 10.5 -82.5 10.5c-42.667 0 -74.834 -7.33301 -96.501 -22s-32.5 -36.334 -32.5 -65.001c0 -16.667 5.16699 -30.834 15.5 -42.501s27.5 -22.834 51.5 -33.501l78 -35c42.667 -18.667 74.334 -42.334 95.001 -71.001s31 -63.334 31 -104.001
c0 -45.333 -11.667 -85.833 -35 -121.5s-57 -63.667 -101 -84s-95 -30.5 -153 -30.5c-86 0 -156.333 17.667 -211 53l24 109c61.333 -28 124.333 -42 189 -42c42 0 75.333 7.83301 100 23.5s37 36.834 37 63.501c0 20.667 -5.66699 37.167 -17 49.5s-34.333 26.5 -69 42.5z
M432.002 769.001h-145l-104 141h143l42 -83l73 83h149z" />
    <glyph glyph-name="scaron" unicode="&#x161;" horiz-adv-x="445" 
d="M159 221c-32.667 18 -56.3311 37.667 -70.998 59s-22 47.333 -22 78c0 50 18.833 90.5 56.5 121.5s87.167 46.5 148.5 46.5c29.333 0 58.166 -3.16699 86.499 -9.5s52.166 -15.166 71.499 -26.499l-19 -97c-16.667 8.66699 -37.167 15.5 -61.5 20.5
s-48.166 7.5 -71.499 7.5c-25.333 0 -44.5 -4.16699 -57.5 -12.5s-19.5 -20.5 -19.5 -36.5c0 -9.33301 4.16699 -18 12.5 -26s24.166 -18.333 47.499 -31l44 -24c34 -18.667 58.167 -38.334 72.5 -59.001s21.5 -46.334 21.5 -77.001c0 -53.333 -19.333 -95.166 -58 -125.499
s-92.334 -45.5 -161.001 -45.5c-31.333 0 -63 3.5 -95 10.5s-60 16.833 -84 29.5l19 98c22 -9.33301 47.833 -17 77.5 -23s57.834 -9 84.501 -9c54 0 81 17 81 51c0 10 -3.5 18.5 -10.5 25.5s-23.167 17.167 -48.5 30.5zM212.003 600l-95 170h129l46 -107l87 107h135
l-161 -170h-141z" />
    <glyph glyph-name="uni0162" unicode="&#x162;" horiz-adv-x="585" 
d="M167 0l112 575h-204l23 118h553l-23 -118h-204l-112 -575h-145zM105 -239c33.333 18 57.166 32.999 71.499 44.999s21.5 23 21.5 33c0 14 -9 21 -27 21c-6 0 -17 -1 -33 -3l15 73c23.333 7.33301 47 11 71 11c26.667 0 47.334 -5.83301 62.001 -17.5s22 -28.167 22 -49.5
c0 -29.333 -12.333 -56.666 -37 -81.999s-64.667 -52.333 -120 -81z" />
    <glyph glyph-name="uni0163" unicode="&#x163;" horiz-adv-x="411" 
d="M373 42c-18.667 -14.667 -41.832 -26.667 -69.499 -36s-54.834 -14 -81.501 -14c-100.667 0 -151 42.667 -151 128c0 20.667 5 55 15 103l36 182h-79l17 88l86 16l48 140h117l-27 -138h141l-21 -106h-140l-32 -169c-9.33301 -52 -14 -82.333 -14 -91
c0 -14.667 4.16699 -25.5 12.5 -32.5s21.5 -10.5 39.5 -10.5c22.667 0 47 5.66699 73 17zM64.002 -240c33.333 18 57.332 33.166 71.999 45.499s22 23.5 22 33.5c0 15.333 -9.66699 23 -29 23c-6 0 -17 -1 -33 -3l15 71c23.333 7.33301 47 11 71 11
c26.667 0 47.334 -5.83301 62.001 -17.5s22 -28.167 22 -49.5c0 -29.333 -12.333 -56.666 -37 -81.999s-64.667 -52.333 -120 -81z" />
    <glyph glyph-name="Tcaron" unicode="&#x164;" horiz-adv-x="585" 
d="M167 0l112 575h-204l23 118h553l-23 -118h-204l-112 -575h-145zM452 769h-145l-104 141h143l42 -83l73 83h149z" />
    <glyph glyph-name="tcaron" unicode="&#x165;" horiz-adv-x="508" 
d="M373 42c-18.667 -14.667 -41.832 -26.667 -69.499 -36s-54.834 -14 -81.501 -14c-100.667 0 -151 42.667 -151 128c0 20.667 5 55 15 103l36 182h-79l17 88l86 16l48 140h117l-27 -138h141l-21 -106h-140l-32 -169c-9.33301 -52 -14 -82.333 -14 -91
c0 -14.667 4.16699 -25.5 12.5 -32.5s21.5 -10.5 39.5 -10.5c22.667 0 47 5.66699 73 17zM356.002 568l37 189c20 8 41.667 12 65 12c29.333 0 51 -6.66699 65 -20l-76 -181h-91z" />
    <glyph glyph-name="Tbar" unicode="&#x166;" horiz-adv-x="585" 
d="M167 0l59 303h-131l18 92h131l35 180h-204l23 118h553l-23 -118h-204l-35 -180h132l-18 -92h-132l-59 -303h-145z" />
    <glyph glyph-name="tbar" unicode="&#x167;" horiz-adv-x="451" 
d="M393 42c-18.667 -14.667 -41.832 -26.666 -69.499 -35.999s-54.834 -14 -81.501 -14c-100.667 0 -151 42.667 -151 128c0 23.333 4.66699 56.666 14 99.999h-76l17 86h76l20 99h-79l17 88l86 16l48 140h117l-27 -138h141l-21 -106h-140l-19 -99h137l-18 -86h-135
c-7.33301 -40 -11 -65 -11 -75c0 -14.667 4.16699 -25.5 12.5 -32.5s21.5 -10.5 39.5 -10.5c22.667 0 47 5.66699 73 17z" />
    <glyph glyph-name="Utilde" unicode="&#x168;" horiz-adv-x="713" 
d="M571 693h144.999l-90 -458c-16 -82 -50.833 -144.5 -104.5 -187.5s-123.167 -64.5 -208.5 -64.5c-47.333 0 -88.833 8.16699 -124.5 24.5s-63.667 40 -84 71s-30.5 67.5 -30.5 109.5c0 41.333 7.33301 98.333 22 171l66 334h145l-67 -334
c-9.33301 -46 -15.666 -79.5 -18.999 -100.5s-5 -37.833 -5 -50.5c0 -34 9.83301 -60 29.5 -78s48.167 -27 85.5 -27c82.667 0 133 45 151 135zM563.999 906h79.998c0 -9.33301 -1.66699 -22.333 -5 -39c-7.33301 -32.667 -22 -58 -44 -76s-48.667 -27 -80 -27
c-18 0 -33.167 2.66699 -45.5 8s-25.5 14.666 -39.5 27.999c-15.333 14 -25.166 22.5 -29.499 25.5s-9.5 4.5 -15.5 4.5c-14.667 0 -24.667 -9.66699 -30 -29l-9 -34h-80c0.666992 13.333 2.33398 26.333 5.00098 39c6 32 20.167 57.167 42.5 75.5s49.5 27.5 81.5 27.5
c17.333 0 32 -2.5 44 -7.5s25.667 -14.5 41 -28.5c14 -13.333 23.5 -21.666 28.5 -24.999s10.5 -5 16.5 -5c14.667 0 24.667 9.66699 30 29z" />
    <glyph glyph-name="utilde" unicode="&#x169;" horiz-adv-x="587" 
d="M353 0v89c-24.667 -32.667 -52.667 -58.167 -84 -76.5s-62.333 -27.5 -93 -27.5c-44 0 -77.167 11.5 -99.5 34.5s-33.5 57.167 -33.5 102.5c0 30.667 4.66699 69.667 14 117l53 272h142l-53 -274c-8 -42.667 -12 -73 -12 -91s3.33301 -30.5 10 -37.5
s17.667 -10.5 33 -10.5c18 0 38.333 7.5 61 22.5s45.667 35.833 69 62.5l65 328h142l-99 -511h-115zM469 737h79.998c0 -9.33301 -1.66699 -22.333 -5 -39c-7.33301 -32.667 -22 -58 -44 -76s-48.667 -27 -80 -27c-17.333 0 -32 2.66699 -44 8s-25.667 15.333 -41 30
c-13.333 13.333 -22.666 21.666 -27.999 24.999s-11 5 -17 5c-14.667 0 -24.667 -10.333 -30 -31l-9 -34h-80c0.666992 13.333 2.33398 26.333 5.00098 39c6 31.333 20 56.333 42 75s49.333 28 82 28c18 0 33 -2.66699 45 -8s25.333 -15.333 40 -30
c14 -13.333 23.5 -21.666 28.5 -24.999s10.5 -5 16.5 -5c14.667 0 24.667 10.333 30 31z" />
    <glyph glyph-name="Umacron" unicode="&#x16a;" horiz-adv-x="713" 
d="M571 693h144.999l-90 -458c-16 -82 -50.833 -144.5 -104.5 -187.5s-123.167 -64.5 -208.5 -64.5c-47.333 0 -88.833 8.16699 -124.5 24.5s-63.667 40 -84 71s-30.5 67.5 -30.5 109.5c0 41.333 7.33301 98.333 22 171l66 334h145l-67 -334
c-9.33301 -46 -15.666 -79.5 -18.999 -100.5s-5 -37.833 -5 -50.5c0 -34 9.83301 -60 29.5 -78s48.167 -27 85.5 -27c82.667 0 133 45 151 135zM279.999 791l17 90h337l-17 -90h-337z" />
    <glyph glyph-name="umacron" unicode="&#x16b;" horiz-adv-x="587" 
d="M353 0v89c-24.667 -32.667 -52.667 -58.167 -84 -76.5s-62.333 -27.5 -93 -27.5c-44 0 -77.167 11.5 -99.5 34.5s-33.5 57.167 -33.5 102.5c0 30.667 4.66699 69.667 14 117l53 272h142l-53 -274c-8 -42.667 -12 -73 -12 -91s3.33301 -30.5 10 -37.5
s17.667 -10.5 33 -10.5c18 0 38.333 7.5 61 22.5s45.667 35.833 69 62.5l65 328h142l-99 -511h-115zM183 623l17 88h337l-17 -88h-337z" />
    <glyph glyph-name="Ubreve" unicode="&#x16c;" horiz-adv-x="713" 
d="M571 693h144.999l-90 -458c-16 -82 -50.833 -144.5 -104.5 -187.5s-123.167 -64.5 -208.5 -64.5c-47.333 0 -88.833 8.16699 -124.5 24.5s-63.667 40 -84 71s-30.5 67.5 -30.5 109.5c0 41.333 7.33301 98.333 22 171l66 334h145l-67 -334
c-9.33301 -46 -15.666 -79.5 -18.999 -100.5s-5 -37.833 -5 -50.5c0 -34 9.83301 -60 29.5 -78s48.167 -27 85.5 -27c82.667 0 133 45 151 135zM533.999 910l84.998 -0.00195312c0 -43.333 -17.167 -78.833 -51.5 -106.5s-78.166 -41.5 -131.499 -41.5
c-39.333 0 -71.166 9 -95.499 27s-36.5 41.667 -36.5 71c0 16.667 4 33.334 12 50.001h80c-2 -10.667 -3 -18 -3 -22c0 -26.667 18.667 -40 56 -40c22 0 40 4.33301 54 13s23.333 21.334 28 38.001z" />
    <glyph glyph-name="ubreve" unicode="&#x16d;" horiz-adv-x="587" 
d="M353 0v89c-24.667 -32.667 -52.667 -58.167 -84 -76.5s-62.333 -27.5 -93 -27.5c-44 0 -77.167 11.5 -99.5 34.5s-33.5 57.167 -33.5 102.5c0 30.667 4.66699 69.667 14 117l53 272h142l-53 -274c-8 -42.667 -12 -73 -12 -91s3.33301 -30.5 10 -37.5
s17.667 -10.5 33 -10.5c18 0 38.333 7.5 61 22.5s45.667 35.833 69 62.5l65 328h142l-99 -511h-115zM444 762h83.001c-0.666992 -31.333 -8.33398 -59.5 -23.001 -84.5s-35.5 -44.833 -62.5 -59.5s-58.5 -22 -94.5 -22c-42 0 -75.333 9.83301 -100 29.5s-37 46.167 -37 79.5
c0 16.667 4.66699 35.667 14 57h78c-2.66699 -13.333 -4 -24.666 -4 -33.999c0 -15.333 5 -27 15 -35s24.333 -12 43 -12c22 0 39.833 5.16699 53.5 15.5s23.5 26.166 29.5 47.499z" />
    <glyph glyph-name="Uring" unicode="&#x16e;" horiz-adv-x="713" 
d="M571 693h144.999l-90 -458c-16 -82 -50.833 -144.5 -104.5 -187.5s-123.167 -64.5 -208.5 -64.5c-47.333 0 -88.833 8.16699 -124.5 24.5s-63.667 40 -84 71s-30.5 67.5 -30.5 109.5c0 41.333 7.33301 98.333 22 171l66 334h145l-67 -334
c-9.33301 -46 -15.666 -79.5 -18.999 -100.5s-5 -37.833 -5 -50.5c0 -34 9.83301 -60 29.5 -78s48.167 -27 85.5 -27c82.667 0 133 45 151 135zM584.999 853c0 -34.667 -13.167 -63.334 -39.5 -86.001s-59.166 -34 -98.499 -34c-32.667 0 -58.5 8 -77.5 24
s-28.5 38 -28.5 66c0 34.667 13.167 63.334 39.5 86.001s59.166 34 98.499 34c32.667 0 58.5 -8 77.5 -24s28.5 -38 28.5 -66zM454.999 793c15.333 0 27.666 5.5 36.999 16.5s14 23.833 14 38.5c0 10.667 -3.16699 19.167 -9.5 25.5s-14.833 9.5 -25.5 9.5
c-15.333 0 -27.666 -5.5 -36.999 -16.5s-14 -23.833 -14 -38.5c0 -10.667 3.16699 -19.167 9.5 -25.5s14.833 -9.5 25.5 -9.5z" />
    <glyph glyph-name="uring" unicode="&#x16f;" horiz-adv-x="587" 
d="M353 0v89c-24.667 -32.667 -52.667 -58.167 -84 -76.5s-62.333 -27.5 -93 -27.5c-44 0 -77.167 11.5 -99.5 34.5s-33.5 57.167 -33.5 102.5c0 30.667 4.66699 69.667 14 117l53 272h142l-53 -274c-8 -42.667 -12 -73 -12 -91s3.33301 -30.5 10 -37.5
s17.667 -10.5 33 -10.5c18 0 38.333 7.5 61 22.5s45.667 35.833 69 62.5l65 328h142l-99 -511h-115zM494 715c0 -24 -6.16699 -45.833 -18.5 -65.5s-29.833 -35.334 -52.5 -47.001s-48.334 -17.5 -77.001 -17.5c-35.333 0 -63.166 8.66699 -83.499 26s-30.5 41.333 -30.5 72
c0 24 6.16699 45.833 18.5 65.5s29.833 35.334 52.5 47.001s48.334 17.5 77.001 17.5c35.333 0 63.166 -8.66699 83.499 -26s30.5 -41.333 30.5 -72zM354 650c16.667 0 30.001 6.00098 40.001 18.001s15 26 15 42c0 12 -3.33301 21.333 -10 28s-15.334 10 -26.001 10
c-16.667 0 -30.167 -5.83301 -40.5 -17.5s-15.5 -25.834 -15.5 -42.501c0 -12 3.33301 -21.333 10 -28s15.667 -10 27 -10z" />
    <glyph glyph-name="Uhungarumlaut" unicode="&#x170;" horiz-adv-x="713" 
d="M571 693h144.999l-90 -458c-16 -82 -50.833 -144.5 -104.5 -187.5s-123.167 -64.5 -208.5 -64.5c-47.333 0 -88.833 8.16699 -124.5 24.5s-63.667 40 -84 71s-30.5 67.5 -30.5 109.5c0 41.333 7.33301 98.333 22 171l66 334h145l-67 -334
c-9.33301 -46 -15.666 -79.5 -18.999 -100.5s-5 -37.833 -5 -50.5c0 -34 9.83301 -60 29.5 -78s48.167 -27 85.5 -27c82.667 0 133 45 151 135zM392.999 769h-122l126 129h153zM589.999 769h-121l125 129h154z" />
    <glyph glyph-name="uhungarumlaut" unicode="&#x171;" horiz-adv-x="587" 
d="M353 0v89c-24.667 -32.667 -52.667 -58.167 -84 -76.5s-62.333 -27.5 -93 -27.5c-44 0 -77.167 11.5 -99.5 34.5s-33.5 57.167 -33.5 102.5c0 30.667 4.66699 69.667 14 117l53 272h142l-53 -274c-8 -42.667 -12 -73 -12 -91s3.33301 -30.5 10 -37.5
s17.667 -10.5 33 -10.5c18 0 38.333 7.5 61 22.5s45.667 35.833 69 62.5l65 328h142l-99 -511h-115zM160 600l130 170h155l-167 -170h-118zM369 600l130 170h156l-168 -170h-118z" />
    <glyph glyph-name="Uogonek" unicode="&#x172;" horiz-adv-x="713" 
d="M449 -205c-36.667 -17.333 -76 -25.999 -118 -25.999c-34.667 0 -61.334 6.66699 -80.001 20s-28 32.666 -28 57.999c0 49.333 29.333 94.666 88 135.999c-72.667 0.666992 -130.334 19.5 -173.001 56.5s-64 86.5 -64 148.5c0 40.667 7.33301 97.667 22 171l66 334h145
l-67 -334c-9.33301 -46.667 -15.666 -80.5 -18.999 -101.5s-5 -37.5 -5 -49.5c0 -34 9.83301 -60 29.5 -78s48.167 -27 85.5 -27c82.667 0 133 45 151 135l89 455h145l-90 -458c-10.667 -55.333 -30.167 -102.166 -58.5 -140.499s-64.166 -66.166 -107.499 -83.499
c-35.333 -14.667 -64.333 -33.834 -87 -57.501s-34 -46.5 -34 -68.5c0 -10.667 3.5 -19 10.5 -25s16.833 -9 29.5 -9c8.66699 0 22.667 2.33301 42 7z" />
    <glyph glyph-name="uogonek" unicode="&#x173;" horiz-adv-x="587" 
d="M476 -205c-36.667 -17.333 -75.999 -25.999 -117.999 -25.999c-34.667 0 -61.334 7 -80.001 21s-28 33.667 -28 59c0 52 40.333 102.333 121 151h-18v89c-24.667 -32.667 -52.667 -58.167 -84 -76.5s-62.333 -27.5 -93 -27.5c-44 0 -77.167 11.5 -99.5 34.5
s-33.5 57.167 -33.5 102.5c0 30.667 4.66699 69.667 14 117l53 272h142l-53 -274c-8 -42.667 -12 -73 -12 -91s3.33301 -30.5 10 -37.5s17.667 -10.5 33 -10.5c18 0 38.333 7.5 61 22.5s45.667 35.833 69 62.5l65 328h142l-99 -511
c-69.333 -42.667 -104 -82.334 -104 -119.001c0 -21.333 14.333 -32 43 -32c9.33301 0 23.333 2.33301 42 7z" />
    <glyph glyph-name="Wcircumflex" unicode="&#x174;" horiz-adv-x="922" 
d="M509 0l-9 493l-201 -493h-158l-51 693h156l7 -521l202 504h161l7 -509l203 526h162l-321 -693h-158zM623 769l-61 75l-90 -75h-131l157 141h147l103 -141h-125z" />
    <glyph glyph-name="wcircumflex" unicode="&#x175;" horiz-adv-x="775" 
d="M424 0l-18 363.002l-146 -363h-136l-72 511h147l25 -373l139 373h137l21 -382c58 126.667 104.333 254 139 382h143c-12 -39.333 -31 -88.833 -57 -148.5s-56 -122.834 -90 -189.501s-66 -124.334 -96 -173.001h-136zM527 600.002l-66 98l-103 -98h-117l160 170h143
l94 -170h-111z" />
    <glyph glyph-name="Ycircumflex" unicode="&#x176;" horiz-adv-x="568" 
d="M152 0l50 255l-138 438h152l75 -323l205 323h160l-311 -438l-50 -255h-143zM443 769l-61 75l-90 -75h-131l157 141h147l103 -141h-125z" />
    <glyph glyph-name="ycircumflex" unicode="&#x177;" horiz-adv-x="495" 
d="M-70 -127c58 22.667 100.001 43 126.001 61c28 19.333 53.667 43.333 77 72l-97 505h149l46 -382c24.667 48.667 49.167 102.5 73.5 161.5s52.166 132.5 83.499 220.5h145c-32.667 -89.333 -78.167 -189 -136.5 -299s-110.5 -194 -156.5 -252
c-41.333 -52 -82 -92.5 -122 -121.5s-82.667 -48.5 -128 -58.5zM386.001 600l-66 98l-103 -98h-117l160 170h143l94 -170h-111z" />
    <glyph glyph-name="Ydieresis" unicode="&#x178;" horiz-adv-x="568" 
d="M152 0l50 255l-138 438h152l75 -323l205 323h160l-311 -438l-50 -255h-143zM261 770c-23.333 0 -41.166 5.33203 -53.499 15.999s-18.5 26.334 -18.5 47.001c0 23.333 9 43.5 27 60.5s39.667 25.5 65 25.5c23.333 0 41.166 -5.33301 53.499 -16s18.5 -26 18.5 -46
c0 -24 -9 -44.5 -27 -61.5s-39.667 -25.5 -65 -25.5zM487 769.999c-23.333 0 -41.166 5.33203 -53.499 15.999s-18.5 26.334 -18.5 47.001c0 23.333 9 43.5 27 60.5s39.667 25.5 65 25.5c23.333 0 41.166 -5.33301 53.499 -16s18.5 -26 18.5 -46c0 -24 -9 -44.5 -27 -61.5
s-39.667 -25.5 -65 -25.5z" />
    <glyph glyph-name="Zacute" unicode="&#x179;" horiz-adv-x="564" 
d="M-23 0l20 103l427 476h-319l23 114h486l-20 -103l-426 -476h337l-23 -114h-505zM437 769h-121l121 129h158z" />
    <glyph glyph-name="zacute" unicode="&#x17a;" horiz-adv-x="470" 
d="M-20 0l18 99l301 305h-232l21 107h402l-19 -99l-303 -305h249l-21 -107h-416zM238 600l124 169h160l-167 -169h-117z" />
    <glyph glyph-name="Zdotaccent" unicode="&#x17b;" horiz-adv-x="564" 
d="M-23 0l20 103l427 476h-319l23 114h486l-20 -103l-426 -476h337l-23 -114h-505zM483 863c0 -26 -9.5 -48 -28.5 -66s-42.167 -27 -69.5 -27c-24.667 0 -43.667 5.83301 -57 17.5s-20 28.167 -20 49.5c0 26 9.5 48 28.5 66s42.167 27 69.5 27
c25.333 0 44.5 -5.66699 57.5 -17s19.5 -28 19.5 -50z" />
    <glyph glyph-name="zdotaccent" unicode="&#x17c;" horiz-adv-x="470" 
d="M-20 0l18 99l301 305h-232l21 107h402l-19 -99l-303 -305h249l-21 -107h-416zM406 681c0 -25.333 -9.33301 -46.833 -28 -64.5s-41.334 -26.5 -68.001 -26.5c-24 0 -42.5 5.5 -55.5 16.5s-19.5 27.167 -19.5 48.5c0 25.333 9.33301 46.833 28 64.5
s41.334 26.5 68.001 26.5c24 0 42.5 -5.5 55.5 -16.5s19.5 -27.167 19.5 -48.5z" />
    <glyph glyph-name="Zcaron" unicode="&#x17d;" horiz-adv-x="564" 
d="M-23 0l20 103l427 476h-319l23 114h486l-20 -103l-426 -476h337l-23 -114h-505zM448 769h-145l-104 141h143l42 -83l73 83h149z" />
    <glyph glyph-name="zcaron" unicode="&#x17e;" horiz-adv-x="470" 
d="M-20 0l18 99l301 305h-232l21 107h402l-19 -99l-303 -305h249l-21 -107h-416zM230 600l-95 170h129l46 -107l87 107h135l-161 -170h-141z" />
    <glyph glyph-name="longs" unicode="&#x17f;" horiz-adv-x="291" 
d="M21 0l108.001 555c13.333 67.333 38.166 117.333 74.499 150s85.5 49 147.5 49c17.333 0 35.166 -1.83301 53.499 -5.5s33.833 -8.5 46.5 -14.5l-19 -99c-26 4 -48 6 -66 6c-29.333 0 -50.666 -4.83301 -63.999 -14.5s-22.333 -26.5 -27 -50.5l-112 -576h-142z" />
    <glyph glyph-name="florin" unicode="&#x192;" horiz-adv-x="397" 
d="M-99 -101c20.667 -4.66699 39.6699 -7 57.0029 -7c25.333 0 44.833 6 58.5 18s23.167 31.333 28.5 58l84 435h-77l17 90l81 15l9 46c13.333 67.333 38.166 117.5 74.499 150.5s85.5 49.5 147.5 49.5c17.333 0 35.166 -1.83301 53.499 -5.5s33.833 -8.5 46.5 -14.5
l-19 -99c-26 4 -48 6 -66 6c-30 0 -51.5 -5 -64.5 -15s-21.833 -27.667 -26.5 -53l-12 -62h143l-21 -108h-143l-85 -436c-12 -60.667 -34.833 -106.667 -68.5 -138s-76.834 -47 -129.501 -47c-40 0 -75.333 8 -106 24z" />
    <glyph glyph-name="uni01D3" unicode="&#x1d3;" horiz-adv-x="713" 
d="M571 693h144.999l-90 -458c-16 -82 -50.833 -144.5 -104.5 -187.5s-123.167 -64.5 -208.5 -64.5c-47.333 0 -88.833 8.16699 -124.5 24.5s-63.667 40 -84 71s-30.5 67.5 -30.5 109.5c0 41.333 7.33301 98.333 22 171l66 334h145l-67 -334
c-9.33301 -46 -15.666 -79.5 -18.999 -100.5s-5 -37.833 -5 -50.5c0 -34 9.83301 -60 29.5 -78s48.167 -27 85.5 -27c82.667 0 133 45 151 135zM511.999 769h-145l-104 141h143l42 -83l73 83h149z" />
    <glyph glyph-name="uni01D4" unicode="&#x1d4;" horiz-adv-x="587" 
d="M353 0v89c-24.667 -32.667 -52.667 -58.167 -84 -76.5s-62.333 -27.5 -93 -27.5c-44 0 -77.167 11.5 -99.5 34.5s-33.5 57.167 -33.5 102.5c0 30.667 4.66699 69.667 14 117l53 272h142l-53 -274c-8 -42.667 -12 -73 -12 -91s3.33301 -30.5 10 -37.5
s17.667 -10.5 33 -10.5c18 0 38.333 7.5 61 22.5s45.667 35.833 69 62.5l65 328h142l-99 -511h-115zM273 600l-95 170h129l46 -107l87 107h135l-161 -170h-141z" />
    <glyph glyph-name="Aringacute" unicode="&#x1fa;" horiz-adv-x="631" 
d="M528 728c0 -36 -14.666 -66.001 -43.999 -90.001l103 -638h-154l-16 159h-231l-76 -159h-155l350 638c-14 15.333 -21 35.333 -21 60c0 34.667 13.167 63.334 39.5 86.001s59.166 34 98.499 34c32.667 0 58.5 -8 77.5 -24s28.5 -38 28.5 -66zM237.001 264.999h171
l-30 292zM483.001 849.999h-105l119 129h142zM398.001 667.999c15.333 0 27.666 5.5 36.999 16.5s14 23.833 14 38.5c0 10.667 -3.16699 19.167 -9.5 25.5s-14.833 9.5 -25.5 9.5c-15.333 0 -27.666 -5.5 -36.999 -16.5s-14 -23.833 -14 -38.5
c0 -10.667 3.16699 -19.167 9.5 -25.5s14.833 -9.5 25.5 -9.5z" />
    <glyph glyph-name="aringacute" unicode="&#x1fb;" horiz-adv-x="573" 
d="M338 0v88.001c-25.333 -33.333 -53.333 -58.833 -84 -76.5s-61.667 -26.5 -93 -26.5c-42 0 -74.667 15.167 -98 45.5s-35 73.166 -35 128.499c0 62 14 121 42 177s66.833 101.667 116.5 137s104.5 53 164.5 53c28 0 60.667 -3.83301 98 -11.5s70.333 -17.167 99 -28.5
l-95 -486h-115zM221 96.001c18.667 0 38.833 7.99902 60.5 23.999s44.167 39.333 67.5 70l44 225c-20 3.33301 -35 5 -45 5c-29.333 0 -57.333 -10.667 -84 -32s-48.667 -51.166 -66 -89.499s-26 -78.833 -26 -121.5c0 -54 16.333 -81 49 -81zM523.999 699
c0 -34.667 -13.167 -63.334 -39.5 -86.001s-59.166 -34 -98.499 -34c-32.667 0 -58.5 8 -77.5 24s-28.5 38 -28.5 66c0 34.667 13.167 63.334 39.5 86.001s59.166 34 98.499 34c32.667 0 58.5 -8 77.5 -24s28.5 -38 28.5 -66zM393.999 639c15.333 0 27.666 5.5 36.999 16.5
s14 23.833 14 38.5c0 10.667 -3.16699 19.167 -9.5 25.5s-14.833 9.5 -25.5 9.5c-15.333 0 -27.666 -5.5 -36.999 -16.5s-14 -23.833 -14 -38.5c0 -10.667 3.16699 -19.167 9.5 -25.5s14.833 -9.5 25.5 -9.5zM478.999 821h-105l119 129h142z" />
    <glyph glyph-name="AEacute" unicode="&#x1fc;" horiz-adv-x="924" 
d="M395 0l31 159h-227l-107 -159h-152l487 693h545l-22 -114h-297l-33 -167h242l-22 -114h-242l-36 -184h297l-22 -114h-442zM271 265h177l60 314h-25zM775 769h-121l121 129h158z" />
    <glyph glyph-name="aeacute" unicode="&#x1fd;" horiz-adv-x="817" 
d="M752 46c-64.667 -42 -139.332 -62.999 -223.999 -62.999c-42 0 -77.167 9.5 -105.5 28.5s-47.833 46.5 -58.5 82.5c-23.333 -35.333 -51.666 -62.333 -84.999 -81s-70.333 -28 -111 -28c-45.333 0 -80 15.167 -104 45.5s-36 73.166 -36 128.499c0 46 7.5 90.667 22.5 134
s36.667 82.5 65 117.5s62.666 63 102.999 84s83.833 31.5 130.5 31.5c57.333 0 112 -15.667 164 -47c49.333 32.667 100.666 49 153.999 49c44 0 78.667 -11 104 -33s38 -51.667 38 -89c0 -55.333 -23.667 -102.833 -71 -142.5s-114.666 -68.167 -201.999 -85.5l-57 -12v-4
c0 -26 7 -45 21 -57s36.667 -18 68 -18c47.333 0 96.666 13.333 147.999 40zM431.002 399.001c-28.667 14 -56 20.999 -82 20.999c-32 0 -61.167 -10.333 -87.5 -31s-47.833 -50.167 -64.5 -88.5s-25 -79.5 -25 -123.5c0 -54 18.333 -81 55 -81
c27.333 0 53.666 15.333 78.999 46s45.333 71.334 60 122.001c14.667 52 36.334 97 65.001 135zM540.002 270c44 10 78.502 25.167 103.502 45.5s37.5 43.833 37.5 70.5c0 11.333 -4.33301 20.833 -13 28.5s-20.334 11.5 -35.001 11.5c-20.667 0 -41.334 -7 -62.001 -21
s-39 -33.833 -55 -59.5s-27 -55.167 -33 -88.5zM458.004 600l124 169h160l-167 -169h-117z" />
    <glyph glyph-name="Oslashacute" unicode="&#x1fe;" horiz-adv-x="751" 
d="M-8 8l99.998 99.998c-26 44 -39 97.667 -39 161c0 82.667 15.833 157.334 47.5 224.001s76.5 119.667 134.5 159s124.667 59 200 59c80 0 145 -21 195 -63l86 86l61 -57l-94 -94c25.333 -44.667 38 -97.667 38 -159c0 -82.667 -15.667 -157.167 -47 -223.5
s-76.166 -119.166 -134.499 -158.499s-125.166 -59 -200.499 -59c-80 0 -144.333 20.333 -193 61l-93 -93zM202.998 277.998c0 -22 1.33301 -40 4 -54l323 324c-24.667 28.667 -59.667 43 -105 43c-30 0 -58.167 -7.16699 -84.5 -21.5s-49.833 -35.333 -70.5 -63
s-37 -61 -49 -100s-18 -81.833 -18 -128.5zM348.998 102.998c40.667 0 77.667 12.8311 111 38.498s60.166 62.334 80.499 110.001s30.5 101.834 30.5 162.501c0 20.667 -1.33301 38 -4 52l-322 -323c24.667 -26.667 59.334 -40 104.001 -40zM521.998 768.996h-121l121 129
h158z" />
    <glyph glyph-name="oslashacute" unicode="&#x1ff;" horiz-adv-x="559" 
d="M-8 11l64 65.001c-18.667 33.333 -28 71.666 -28 114.999c0 62 12.167 118.333 36.5 169s58.833 91 103.5 121s96 45 154 45c55.333 0 101 -14.333 137 -43l67 68l50 -47l-72 -73c18 -32.667 27 -69.667 27 -111c0 -62 -12.167 -118.333 -36.5 -169
s-58.833 -91 -103.5 -121s-96 -45 -154 -45c-54 0 -99 13.333 -135 40l-60 -61zM172 193.001l194 197.001c-13.333 18.667 -31.333 28 -54 28c-25.333 0 -48.5 -9.33301 -69.5 -28s-38 -44.834 -51 -78.501s-19.5 -71.5 -19.5 -113.5v-5zM247 93.002
c25.333 0 48.5 9.33203 69.5 27.999s38 44.834 51 78.501s19.5 71.5 19.5 113.5l-193 -195c13.333 -16.667 31 -25 53 -25zM278 600.001l124 169h160l-167 -169h-117z" />
    <glyph glyph-name="uni0218" unicode="&#x218;" horiz-adv-x="556" 
d="M216 307c-44.667 20.667 -77.332 45.335 -97.999 74.002s-31 63.334 -31 104.001s11.167 78 33.5 112s54 61.333 95 82s87.5 31 139.5 31c35.333 0 69.166 -4.16699 101.499 -12.5s60.833 -20.166 85.5 -35.499l-22 -107c-20 10.667 -44.5 19.5 -73.5 26.5
s-56.5 10.5 -82.5 10.5c-42.667 0 -74.834 -7.33301 -96.501 -22s-32.5 -36.334 -32.5 -65.001c0 -16.667 5.16699 -30.834 15.5 -42.501s27.5 -22.834 51.5 -33.501l78 -35c42.667 -18.667 74.334 -42.334 95.001 -71.001s31 -63.334 31 -104.001
c0 -45.333 -11.667 -85.833 -35 -121.5s-57 -63.667 -101 -84s-95 -30.5 -153 -30.5c-86 0 -156.333 17.667 -211 53l24 109c61.333 -28 124.333 -42 189 -42c42 0 75.333 7.83301 100 23.5s37 36.834 37 63.501c0 20.667 -5.66699 37.167 -17 49.5s-34.333 26.5 -69 42.5z
M66.002 -285.999l79 224h58c36.667 0 55 -12 55 -36c0 -8.66699 -2.5 -18.667 -7.5 -30s-14.5 -28 -28.5 -50l-67 -108h-89z" />
    <glyph glyph-name="uni0219" unicode="&#x219;" horiz-adv-x="445" 
d="M159 221c-32.667 18 -56.3311 37.667 -70.998 59s-22 47.333 -22 78c0 50 18.833 90.5 56.5 121.5s87.167 46.5 148.5 46.5c29.333 0 58.166 -3.16699 86.499 -9.5s52.166 -15.166 71.499 -26.499l-19 -97c-16.667 8.66699 -37.167 15.5 -61.5 20.5
s-48.166 7.5 -71.499 7.5c-25.333 0 -44.5 -4.16699 -57.5 -12.5s-19.5 -20.5 -19.5 -36.5c0 -9.33301 4.16699 -18 12.5 -26s24.166 -18.333 47.499 -31l44 -24c34 -18.667 58.167 -38.334 72.5 -59.001s21.5 -46.334 21.5 -77.001c0 -53.333 -19.333 -95.166 -58 -125.499
s-92.334 -45.5 -161.001 -45.5c-31.333 0 -63 3.5 -95 10.5s-60 16.833 -84 29.5l19 98c22 -9.33301 47.833 -17 77.5 -23s57.834 -9 84.501 -9c54 0 81 17 81 51c0 10 -3.5 18.5 -10.5 25.5s-23.167 17.167 -48.5 30.5zM17.0029 -286l79 223.999h55
c36.667 0 55 -12.333 55 -37c0 -8.66699 -2 -17.667 -6 -27s-13.667 -26.666 -29 -51.999l-67 -108h-87z" />
    <glyph glyph-name="uni021A" unicode="&#x21a;" horiz-adv-x="585" 
d="M167 0l112 575h-204l23 118h553l-23 -118h-204l-112 -575h-145zM98 -286l79 224h58c36.667 0 55 -12 55 -36c0 -8.66699 -2.5 -18.667 -7.5 -30s-14.5 -28 -28.5 -50l-67 -108h-89z" />
    <glyph glyph-name="uni021B" unicode="&#x21b;" horiz-adv-x="411" 
d="M373 42c-18.667 -14.667 -41.832 -26.667 -69.499 -36s-54.834 -14 -81.501 -14c-100.667 0 -151 42.667 -151 128c0 20.667 5 55 15 103l36 182h-79l17 88l86 16l48 140h117l-27 -138h141l-21 -106h-140l-32 -169c-9.33301 -52 -14 -82.333 -14 -91
c0 -14.667 4.16699 -25.5 12.5 -32.5s21.5 -10.5 39.5 -10.5c22.667 0 47 5.66699 73 17zM52.002 -286l79 223.999h55c36.667 0 55 -12.333 55 -37c0 -8.66699 -2 -17.667 -6 -27s-13.667 -26.666 -29 -51.999l-67 -108h-87z" />
    <glyph glyph-name="uni0237" unicode="&#x237;" horiz-adv-x="290" 
d="M-108 -101c20.667 -4.66699 39.667 -7 57 -7c37.333 1.33301 60.333 25.333 69 72l106 547h142l-106 -547c-24 -121.333 -82.667 -182 -176 -182c-41.333 0 -78 8 -110 24z" />
    <glyph glyph-name="uni02B9" unicode="&#x2b9;" horiz-adv-x="297" 
d="M90 472l109 219c26.667 12.667 54.667 19 84 19c28 0 51.333 -6.33301 70 -19l-160 -219h-103z" />
    <glyph glyph-name="uni02BA" unicode="&#x2ba;" horiz-adv-x="511" 
d="M90 472l109 219c26.667 12.667 54.667 19 84 19c28 0 51.333 -6.33301 70 -19l-160 -219h-103zM304 472l109 219c26.667 12.667 54.667 19 84 19c28 0 51.333 -6.33301 70 -19l-160 -219h-103z" />
    <glyph glyph-name="uni02BB" unicode="&#x2bb;" horiz-adv-x="284" 
d="M345 659c-53.333 -56 -90.667 -117.332 -112 -183.999c-8 -24 -15.333 -54 -22 -90h-57c-24 0 -41.667 3.66699 -53 11s-17 18.666 -17 33.999c0 25.333 8.83301 54.333 26.5 87s43 66.667 76 102s66.833 65 101.5 89z" />
    <glyph glyph-name="uni02BC" unicode="&#x2bc;" horiz-adv-x="284" 
d="M56 419c53.333 56 90.667 117.332 112 183.999c8 24 15.333 54 22 90h57c24 0 41.667 -3.66699 53 -11s17 -18.666 17 -33.999c0 -25.333 -8.83301 -54.333 -26.5 -87s-43 -66.667 -76 -102s-66.833 -65 -101.5 -89z" />
    <glyph glyph-name="circumflex" unicode="&#x2c6;" horiz-adv-x="601" 
d="M454 600l-66 98l-103 -98h-117l160 170h143l94 -170h-111z" />
    <glyph glyph-name="caron" unicode="&#x2c7;" horiz-adv-x="601" 
d="M295 600l-95 170h129l46 -107l87 107h135l-161 -170h-141z" />
    <glyph glyph-name="uni02C9" unicode="&#x2c9;" horiz-adv-x="601" 
d="M205 623l17 88h337l-17 -88h-337z" />
    <glyph glyph-name="uni02CA" unicode="&#x2ca;" horiz-adv-x="601" 
d="M270 600l124 169h160l-167 -169h-117z" />
    <glyph glyph-name="uni02CB" unicode="&#x2cb;" horiz-adv-x="601" 
d="M361 600l-101 169h152l66 -169h-117z" />
    <glyph glyph-name="breve" unicode="&#x2d8;" horiz-adv-x="601" 
d="M466 762h83.001c-0.666992 -31.333 -8.33398 -59.5 -23.001 -84.5s-35.5 -44.833 -62.5 -59.5s-58.5 -22 -94.5 -22c-42 0 -75.333 9.83301 -100 29.5s-37 46.167 -37 79.5c0 16.667 4.66699 35.667 14 57h78c-2.66699 -13.333 -4 -24.666 -4 -33.999
c0 -15.333 5 -27 15 -35s24.333 -12 43 -12c22 0 39.833 5.16699 53.5 15.5s23.5 26.166 29.5 47.499z" />
    <glyph glyph-name="dotaccent" unicode="&#x2d9;" horiz-adv-x="601" 
d="M471 681c0 -25.333 -9.33301 -46.833 -28 -64.5s-41.334 -26.5 -68.001 -26.5c-24 0 -42.5 5.5 -55.5 16.5s-19.5 27.167 -19.5 48.5c0 25.333 9.33301 46.833 28 64.5s41.334 26.5 68.001 26.5c24 0 42.5 -5.5 55.5 -16.5s19.5 -27.167 19.5 -48.5z" />
    <glyph glyph-name="ring" unicode="&#x2da;" horiz-adv-x="601" 
d="M516 715c0 -24 -6.16699 -45.833 -18.5 -65.5s-29.833 -35.334 -52.5 -47.001s-48.334 -17.5 -77.001 -17.5c-35.333 0 -63.166 8.66699 -83.499 26s-30.5 41.333 -30.5 72c0 24 6.16699 45.833 18.5 65.5s29.833 35.334 52.5 47.001s48.334 17.5 77.001 17.5
c35.333 0 63.166 -8.66699 83.499 -26s30.5 -41.333 30.5 -72zM376 650c16.667 0 30.001 6.00098 40.001 18.001s15 26 15 42c0 12 -3.33301 21.333 -10 28s-15.334 10 -26.001 10c-16.667 0 -30.167 -5.83301 -40.5 -17.5s-15.5 -25.834 -15.5 -42.501
c0 -12 3.33301 -21.333 10 -28s15.667 -10 27 -10z" />
    <glyph glyph-name="ogonek" unicode="&#x2db;" horiz-adv-x="601" 
d="M333 -205c-36.667 -17.333 -75.999 -25.999 -117.999 -25.999c-34.667 0 -61.334 7 -80.001 21s-28 33.667 -28 59c0 58.667 50.333 114.667 151 168l67 -17c-69.333 -42.667 -104 -82.334 -104 -119.001c0 -21.333 14.333 -32 43 -32c9.33301 0 23.333 2.33301 42 7z
" />
    <glyph glyph-name="tilde" unicode="&#x2dc;" horiz-adv-x="601" 
d="M495 737h79.998c0 -9.33301 -1.66699 -22.333 -5 -39c-7.33301 -32.667 -22 -58 -44 -76s-48.667 -27 -80 -27c-17.333 0 -32 2.66699 -44 8s-25.667 15.333 -41 30c-13.333 13.333 -22.666 21.666 -27.999 24.999s-11 5 -17 5c-14.667 0 -24.667 -10.333 -30 -31l-9 -34
h-80c0.666992 13.333 2.33398 26.333 5.00098 39c6 31.333 20 56.333 42 75s49.333 28 82 28c18 0 33 -2.66699 45 -8s25.333 -15.333 40 -30c14 -13.333 23.5 -21.666 28.5 -24.999s10.5 -5 16.5 -5c14.667 0 24.667 10.333 30 31z" />
    <glyph glyph-name="hungarumlaut" unicode="&#x2dd;" horiz-adv-x="601" 
d="M158 600l130 170h155l-167 -170h-118zM367 600l130 170h156l-168 -170h-118z" />
    <glyph glyph-name="gravecomb" unicode="&#x300;" horiz-adv-x="0" 
d="M-69 600l-101 169h152l66 -169h-117z" />
    <glyph glyph-name="acutecomb" unicode="&#x301;" horiz-adv-x="0" 
d="M-59 600l124 169h160l-167 -169h-117z" />
    <glyph glyph-name="uni0302" unicode="&#x302;" horiz-adv-x="0" 
d="M88 600l-66 98l-103 -98h-117l160 170h143l94 -170h-111z" />
    <glyph glyph-name="tildecomb" unicode="&#x303;" horiz-adv-x="0" 
d="M129 737h79.998c0 -9.33301 -1.66699 -22.333 -5 -39c-7.33301 -32.667 -22 -58 -44 -76s-48.667 -27 -80 -27c-17.333 0 -32 2.66699 -44 8s-25.667 15.333 -41 30c-13.333 13.333 -22.666 21.666 -27.999 24.999s-11 5 -17 5c-14.667 0 -24.667 -10.333 -30 -31l-9 -34
h-80c0.666992 13.333 2.33398 26.333 5.00098 39c6 31.333 20 56.333 42 75s49.333 28 82 28c18 0 33 -2.66699 45 -8s25.333 -15.333 40 -30c14 -13.333 23.5 -21.666 28.5 -24.999s10.5 -5 16.5 -5c14.667 0 24.667 10.333 30 31z" />
    <glyph glyph-name="uni0304" unicode="&#x304;" horiz-adv-x="0" 
d="M-157 623l17 88h337l-17 -88h-337z" />
    <glyph glyph-name="uni0306" unicode="&#x306;" horiz-adv-x="0" 
d="M104 762h83.001c-0.666992 -31.333 -8.33398 -59.5 -23.001 -84.5s-35.5 -44.833 -62.5 -59.5s-58.5 -22 -94.5 -22c-42 0 -75.333 9.83301 -100 29.5s-37 46.167 -37 79.5c0 16.667 4.66699 35.667 14 57h78c-2.66699 -13.333 -4 -24.666 -4 -33.999
c0 -15.333 5 -27 15 -35s24.333 -12 43 -12c22 0 39.833 5.16699 53.5 15.5s23.5 26.166 29.5 47.499z" />
    <glyph glyph-name="uni0307" unicode="&#x307;" horiz-adv-x="0" 
d="M109 681c0 -25.333 -9.33301 -46.833 -28 -64.5s-41.334 -26.5 -68.001 -26.5c-24 0 -42.5 5.5 -55.5 16.5s-19.5 27.167 -19.5 48.5c0 25.333 9.33301 46.833 28 64.5s41.334 26.5 68.001 26.5c24 0 42.5 -5.5 55.5 -16.5s19.5 -27.167 19.5 -48.5z" />
    <glyph glyph-name="uni0308" unicode="&#x308;" horiz-adv-x="0" 
d="M-101 587c-46.667 0 -70 20.333 -70 61c0 24 8.66699 44.167 26 60.5s38.666 24.5 63.999 24.5c46.667 0 70 -20.333 70 -61c0 -24 -8.66699 -44.167 -26 -60.5s-38.666 -24.5 -63.999 -24.5zM129 587c-46.667 0 -70 20.333 -70 61c0 24 8.66699 44.167 26 60.5
s38.666 24.5 63.999 24.5c46.667 0 70 -20.333 70 -61c0 -24 -8.66699 -44.167 -26 -60.5s-38.666 -24.5 -63.999 -24.5z" />
    <glyph glyph-name="uni030A" unicode="&#x30a;" horiz-adv-x="0" 
d="M154 715c0 -24 -6.16699 -45.833 -18.5 -65.5s-29.833 -35.334 -52.5 -47.001s-48.334 -17.5 -77.001 -17.5c-35.333 0 -63.166 8.66699 -83.499 26s-30.5 41.333 -30.5 72c0 24 6.16699 45.833 18.5 65.5s29.833 35.334 52.5 47.001s48.334 17.5 77.001 17.5
c35.333 0 63.166 -8.66699 83.499 -26s30.5 -41.333 30.5 -72zM14 650c16.667 0 30.001 6.00098 40.001 18.001s15 26 15 42c0 12 -3.33301 21.333 -10 28s-15.334 10 -26.001 10c-16.667 0 -30.167 -5.83301 -40.5 -17.5s-15.5 -25.834 -15.5 -42.501
c0 -12 3.33301 -21.333 10 -28s15.667 -10 27 -10z" />
    <glyph glyph-name="uni030B" unicode="&#x30b;" horiz-adv-x="0" 
d="M-180 600l130 170h155l-167 -170h-118zM29 600l130 170h156l-168 -170h-118z" />
    <glyph glyph-name="uni030C" unicode="&#x30c;" horiz-adv-x="0" 
d="M-67 600l-95 170h129l46 -107l87 107h135l-161 -170h-141z" />
    <glyph glyph-name="uni0312" unicode="&#x312;" horiz-adv-x="0" 
d="M-2 588c-36.667 0 -55 12.3311 -55 36.998c0 8.66699 2 17.334 6 26.001s13.667 26.334 29 53.001l70 116h87l-82 -232h-55z" />
    <glyph glyph-name="uni0315" unicode="&#x315;" horiz-adv-x="0" 
d="M-48 537l39 203c21.333 8 43 12 65 12c28.667 0 50.667 -6.66699 66 -20l-79 -195h-91z" />
    <glyph glyph-name="uni0326" unicode="&#x326;" horiz-adv-x="0" 
d="M-139 -286l79 223.999h55c36.667 0 55 -12.333 55 -37c0 -8.66699 -2 -17.667 -6 -27s-13.667 -26.666 -29 -51.999l-67 -108h-87z" />
    <glyph glyph-name="uni0327" unicode="&#x327;" horiz-adv-x="0" 
d="M-127 -240c33.333 18 57.332 33.166 71.999 45.499s22 23.5 22 33.5c0 15.333 -9.66699 23 -29 23c-6 0 -17 -1 -33 -3l15 71c23.333 7.33301 47 11 71 11c26.667 0 47.334 -5.83301 62.001 -17.5s22 -28.167 22 -49.5c0 -29.333 -12.333 -56.666 -37 -81.999
s-64.667 -52.333 -120 -81z" />
    <glyph glyph-name="uni0328" unicode="&#x328;" horiz-adv-x="0" 
d="M8 -205c-36.667 -17.333 -75.999 -25.999 -117.999 -25.999c-34.667 0 -61.334 7 -80.001 21s-28 33.667 -28 59c0 58.667 50.333 114.667 151 168l67 -17c-69.333 -42.667 -104 -82.334 -104 -119.001c0 -21.333 14.333 -32 43 -32c9.33301 0 23.333 2.33301 42 7z" />
    <glyph glyph-name="uni0344" unicode="&#x344;" horiz-adv-x="0" 
d="M-104 587c-44.667 0 -67 19.333 -67 58c0 23.333 8.16699 42.833 24.5 58.5s36.833 23.5 61.5 23.5c44.667 0 67 -19.333 67 -58c0 -23.333 -8.16699 -42.833 -24.5 -58.5s-36.833 -23.5 -61.5 -23.5zM133 587c-44.667 0 -67 19.333 -67 58
c0 23.333 8.16699 42.833 24.5 58.5s36.833 23.5 61.5 23.5c44.667 0 67 -19.333 67 -58c0 -23.333 -8.16699 -42.833 -24.5 -58.5s-36.833 -23.5 -61.5 -23.5zM74 920h149l-138 -169h-96z" />
    <glyph glyph-name="uni0374" unicode="&#x374;" horiz-adv-x="297" 
d="M90 472l109 219c26.667 12.667 54.667 19 84 19c28 0 51.333 -6.33301 70 -19l-160 -219h-103z" />
    <glyph glyph-name="uni0375" unicode="&#x375;" horiz-adv-x="297" 
d="M64 0c26.667 12.667 54.667 19 84 19c28 0 51.333 -6.33301 70 -19l-161 -220h-103z" />
    <glyph glyph-name="uni037E" unicode="&#x37e;" horiz-adv-x="282" 
d="M-44 -159l114 313.001h68c22.667 0 39.167 -3.83301 49.5 -11.5s15.5 -19.834 15.5 -36.501c0 -18.667 -9.33301 -42.667 -28 -72l-122 -193h-97zM173 342.001c-25.333 0 -45 6.83301 -59 20.5s-21 32.5 -21 56.5c0 28 10 52.167 30 72.5s43.667 30.5 71 30.5
c25.333 0 45 -6.83301 59 -20.5s21 -32.5 21 -56.5c0 -28 -10 -52.167 -30 -72.5s-43.667 -30.5 -71 -30.5z" />
    <glyph glyph-name="tonos" unicode="&#x384;" horiz-adv-x="601" 
d="M268 781h149l-137 -181h-96z" />
    <glyph glyph-name="dieresistonos" unicode="&#x385;" horiz-adv-x="601" 
d="M170 587c-44.667 0 -67 19.333 -67 58c0 23.333 8.16699 42.833 24.5 58.5s36.833 23.5 61.5 23.5c44.667 0 67 -19.333 67 -58c0 -23.333 -8.16699 -42.833 -24.5 -58.5s-36.833 -23.5 -61.5 -23.5zM407 587c-44.667 0 -67 19.333 -67 58
c0 23.333 8.16699 42.833 24.5 58.5s36.833 23.5 61.5 23.5c44.667 0 67 -19.333 67 -58c0 -23.333 -8.16699 -42.833 -24.5 -58.5s-36.833 -23.5 -61.5 -23.5zM348 920h149l-138 -169h-96z" />
    <glyph glyph-name="Alphatonos" unicode="&#x386;" horiz-adv-x="642" 
d="M444 0l-16 159h-231l-76 -159h-155l370 693h161l101 -693h-154zM248 265h171l-30 292zM111 693h151l-137 -181h-98z" />
    <glyph glyph-name="anoteleia" unicode="&#x387;" horiz-adv-x="282" 
d="M173 342c-25.333 0 -45 6.83301 -59 20.5s-21 32.5 -21 56.5c0 28 10 52.167 30 72.5s43.667 30.5 71 30.5c25.333 0 45 -6.83301 59 -20.5s21 -32.5 21 -56.5c0 -28 -10 -52.167 -30 -72.5s-43.667 -30.5 -71 -30.5z" />
    <glyph glyph-name="Epsilontonos" unicode="&#x388;" horiz-adv-x="708" 
d="M179 0l135 693h442l-22 -114h-297l-33 -167h242l-22 -114h-242l-36 -184h297l-22 -114h-442zM120 693h151l-137 -181h-98z" />
    <glyph glyph-name="Etatonos" unicode="&#x389;" horiz-adv-x="876" 
d="M592 0l57 295h-268l-57 -295h-145l135 693h145l-55 -282h268l55 282h145l-135 -693h-145zM120 693h151l-137 -181h-98z" />
    <glyph glyph-name="Iotatonos" unicode="&#x38a;" horiz-adv-x="467" 
d="M179 0l135 693h145l-135 -693h-145zM120 693h151l-137 -181h-98z" />
    <glyph glyph-name="Omicrontonos" unicode="&#x38c;" horiz-adv-x="873" 
d="M461 -17c-88.667 0 -158.502 25.498 -209.502 76.498s-76.5 120.833 -76.5 209.5c0 82.667 15.833 157.334 47.5 224.001s76.5 119.667 134.5 159s124.667 59 200 59c88.667 0 158.5 -25.5 209.5 -76.5s76.5 -121.167 76.5 -210.5c0 -82.667 -15.667 -157.167 -47 -223.5
s-76.166 -119.166 -134.499 -158.499s-125.166 -59 -200.499 -59zM470.998 102.998c40.667 0 77.668 12.8301 111.001 38.4971s60.166 62.334 80.499 110.001s30.5 101.834 30.5 162.501c0 56.667 -12.667 100.334 -38 131.001s-61.333 46 -108 46
c-30 0 -58.167 -7.16699 -84.5 -21.5s-49.833 -35.333 -70.5 -63s-37 -61 -49 -100s-18 -81.833 -18 -128.5c0 -56 12.667 -99.167 38 -129.5s61.333 -45.5 108 -45.5zM119.999 692.995h151l-137 -181h-98z" />
    <glyph glyph-name="Upsilontonos" unicode="&#x38e;" horiz-adv-x="801" 
d="M385 0l50 255l-138 438h152l75 -323l205 323h160l-311 -438l-50 -255h-143zM120 693h151l-137 -181h-98z" />
    <glyph glyph-name="Omegatonos" unicode="&#x38f;" horiz-adv-x="870" 
d="M402 0l-287.003 0.000976562l19 109h132c-47.333 58.667 -71 129 -71 211c0 51.333 8.66699 100.166 26 146.499s42.333 87.833 75 124.5s72.167 65.834 118.5 87.501s96.833 32.5 151.5 32.5c55.333 0 104 -10.833 146 -32.5s74.667 -53.167 98 -94.5
s35 -90.333 35 -147c0 -64.667 -13.667 -125.334 -41 -182.001s-66.666 -105.334 -117.999 -146.001h129l-19 -109h-302l20 103c56.667 33.333 101.334 78.333 134.001 135s49 118 49 184c0 52 -12.5 93.167 -37.5 123.5s-59.5 45.5 -103.5 45.5
c-38.667 0 -74.167 -11 -106.5 -33s-58.166 -53.333 -77.499 -94s-29 -86.667 -29 -138c0 -45.333 7.16699 -88.166 21.5 -128.499s33.5 -71.833 57.5 -94.5zM119.997 693.001h151l-137 -181h-98z" />
    <glyph glyph-name="iotadieresistonos" unicode="&#x390;" horiz-adv-x="331" 
d="M171 -7c-39.333 0 -69.335 10.167 -90.002 30.5s-31 49.833 -31 88.5c0 26 4.66699 63.333 14 112l56 287h142l-56 -287c-8 -42 -12 -71 -12 -87c0 -25.333 14 -38 42 -38c15.333 0 30.333 2.66699 45 8l27 -79c-21.333 -12 -42.666 -20.833 -63.999 -26.5
s-45.666 -8.5 -72.999 -8.5zM93.998 587c-44.667 0 -67 19.333 -67 58c0 23.333 8.16699 42.833 24.5 58.5s36.833 23.5 61.5 23.5c44.667 0 67 -19.333 67 -58c0 -23.333 -8.16699 -42.833 -24.5 -58.5s-36.833 -23.5 -61.5 -23.5zM330.998 587
c-44.667 0 -67 19.333 -67 58c0 23.333 8.16699 42.833 24.5 58.5s36.833 23.5 61.5 23.5c44.667 0 67 -19.333 67 -58c0 -23.333 -8.16699 -42.833 -24.5 -58.5s-36.833 -23.5 -61.5 -23.5zM271.998 920h149l-138 -169h-96z" />
    <glyph glyph-name="Alpha" unicode="&#x391;" horiz-adv-x="631" 
d="M433 0l-16 159h-231l-76 -159h-155l370 693h161l101 -693h-154zM237 265h171l-30 292z" />
    <glyph glyph-name="Beta" unicode="&#x392;" horiz-adv-x="630" 
d="M37 0l134.999 692.999h236c60.667 0 108.834 -15.167 144.501 -45.5s53.5 -71.5 53.5 -123.5c0 -40 -10.667 -74.667 -32 -104s-51.333 -50.666 -90 -63.999c32 -14 56.667 -33.167 74 -57.5s26 -52.5 26 -84.5c0 -66 -25.5 -118.167 -76.5 -156.5
s-120.167 -57.5 -207.5 -57.5h-263zM234.999 302.999l-38 -197h120c40 0 70.5 10 91.5 30s31.5 48.667 31.5 86c0 26 -8 46 -24 60s-38.667 21 -68 21h-113zM289.999 586.999l-35 -184h99c35.333 0 63.333 10 84 30s31 46.667 31 80c0 24 -7.5 42.333 -22.5 55
s-36.167 19 -63.5 19h-93z" />
    <glyph glyph-name="Gamma" unicode="&#x393;" horiz-adv-x="538" 
d="M37 0l135 693h422l-23 -118h-277l-112 -575h-145z" />
    <glyph glyph-name="uni0394" unicode="&#x394;" horiz-adv-x="622" 
d="M-9 103l325 590h165l91 -590l-20 -103h-581zM423 110l-51 452l-231 -452h282z" />
    <glyph glyph-name="Epsilon" unicode="&#x395;" horiz-adv-x="566" 
d="M37 0l135 693h442l-22 -114h-297l-33 -167h242l-22 -114h-242l-36 -184h297l-22 -114h-442z" />
    <glyph glyph-name="Zeta" unicode="&#x396;" horiz-adv-x="564" 
d="M-23 0l20 103l427 476h-319l23 114h486l-20 -103l-426 -476h337l-23 -114h-505z" />
    <glyph glyph-name="Eta" unicode="&#x397;" horiz-adv-x="734" 
d="M450 0l57 295h-268l-57 -295h-145l135 693h145l-55 -282h268l55 282h145l-135 -693h-145z" />
    <glyph glyph-name="Theta" unicode="&#x398;" horiz-adv-x="751" 
d="M339 -17c-88.667 0 -158.502 25.498 -209.502 76.498s-76.5 120.833 -76.5 209.5c0 82.667 15.833 157.334 47.5 224.001s76.5 119.667 134.5 159s124.667 59 200 59c88.667 0 158.5 -25.5 209.5 -76.5s76.5 -121.167 76.5 -210.5c0 -82.667 -15.667 -157.167 -47 -223.5
s-76.166 -119.166 -134.499 -158.499s-125.166 -59 -200.499 -59zM348.998 102.998c40.667 0 77.668 12.8301 111.001 38.4971s60.166 62.334 80.499 110.001s30.5 101.834 30.5 162.501c0 56.667 -12.667 100.334 -38 131.001s-61.333 46 -108 46
c-30 0 -58.167 -7.16699 -84.5 -21.5s-49.833 -35.333 -70.5 -63s-37 -61 -49 -100s-18 -81.833 -18 -128.5c0 -56 12.667 -99.167 38 -129.5s61.333 -45.5 108 -45.5zM287.999 405.995h221l-22 -114h-221z" />
    <glyph glyph-name="Iota" unicode="&#x399;" horiz-adv-x="329" 
d="M41 0l135 693h145l-135 -693h-145z" />
    <glyph glyph-name="Kappa" unicode="&#x39a;" horiz-adv-x="654" 
d="M37 0l135 693h145l-58 -297l302 297h183l-351 -336l216 -357h-170l-193 329l-64 -329h-145z" />
    <glyph glyph-name="Lambda" unicode="&#x39b;" horiz-adv-x="619" 
d="M369 538l-256 -538h-158l364 693h161l95 -693h-157z" />
    <glyph glyph-name="Mu" unicode="&#x39c;" horiz-adv-x="858" 
d="M591 0l96 492l-215 -321h-120l-90 324l-97 -495h-128l135 693h159l106 -389l261 389h156l-135 -693h-128z" />
    <glyph glyph-name="Nu" unicode="&#x39d;" horiz-adv-x="732" 
d="M440 0l-178 492l-95 -492h-130l135 693h153l177 -491l96 491h130l-135 -693h-153z" />
    <glyph glyph-name="Xi" unicode="&#x39e;" horiz-adv-x="585" 
d="M23 118h486l-23 -118h-486zM145 411h359l-23 -118h-359zM143 693h468l-23 -118h-468z" />
    <glyph glyph-name="Omicron" unicode="&#x39f;" horiz-adv-x="751" 
d="M339 -17c-88.667 0 -158.502 25.498 -209.502 76.498s-76.5 120.833 -76.5 209.5c0 82.667 15.833 157.334 47.5 224.001s76.5 119.667 134.5 159s124.667 59 200 59c88.667 0 158.5 -25.5 209.5 -76.5s76.5 -121.167 76.5 -210.5c0 -82.667 -15.667 -157.167 -47 -223.5
s-76.166 -119.166 -134.499 -158.499s-125.166 -59 -200.499 -59zM348.998 102.998c40.667 0 77.668 12.8301 111.001 38.4971s60.166 62.334 80.499 110.001s30.5 101.834 30.5 162.501c0 56.667 -12.667 100.334 -38 131.001s-61.333 46 -108 46
c-30 0 -58.167 -7.16699 -84.5 -21.5s-49.833 -35.333 -70.5 -63s-37 -61 -49 -100s-18 -81.833 -18 -128.5c0 -56 12.667 -99.167 38 -129.5s61.333 -45.5 108 -45.5z" />
    <glyph glyph-name="Pi" unicode="&#x3a0;" horiz-adv-x="720" 
d="M436 0l112 579h-254l-112 -579h-145l135 693h544l-135 -693h-145z" />
    <glyph glyph-name="Rho" unicode="&#x3a1;" horiz-adv-x="614" 
d="M37 0l135 693h225c70 0 124.5 -16.833 163.5 -50.5s58.5 -80.834 58.5 -141.501c0 -48 -12 -90.667 -36 -128s-58.667 -66.666 -104 -87.999s-98 -32 -158 -32h-93l-49 -253h-142zM249 363h71.999c48 0 85.667 11.5 113 34.5s41 54.5 41 94.5
c0 31.333 -9.16699 54.333 -27.5 69s-46.166 22 -83.499 22h-72z" />
    <glyph glyph-name="Sigma" unicode="&#x3a3;" horiz-adv-x="528" 
d="M-4 101l228 253l-124 234l20 105h468l-22 -114h-306l118 -223l-219 -242h334l-22 -114h-495z" />
    <glyph glyph-name="Tau" unicode="&#x3a4;" horiz-adv-x="585" 
d="M167 0l112 575h-204l23 118h553l-23 -118h-204l-112 -575h-145z" />
    <glyph glyph-name="Upsilon" unicode="&#x3a5;" horiz-adv-x="568" 
d="M152 0l50 255l-138 438h152l75 -323l205 323h160l-311 -438l-50 -255h-143z" />
    <glyph glyph-name="Phi" unicode="&#x3a6;" horiz-adv-x="825" 
d="M312 59c-84 9.33301 -148.333 34.832 -193 76.499s-67 97.5 -67 167.5c0 61.333 14.833 116.333 44.5 165s72.5 87.834 128.5 117.501s122.333 47.167 199 52.5l17 85h122l-17 -87c83.333 -9.33301 147.333 -35 192 -77s67 -97.667 67 -167
c0 -61.333 -14.833 -116.333 -44.5 -165s-72.5 -88 -128.5 -118s-122 -47.667 -198 -53l-17 -86h-122zM192 306.999c0 -42.667 11.5 -76 34.5 -100s58.167 -39.333 105.5 -46l72 374c-141.333 -16 -212 -92 -212 -228zM665 387.999c0 42 -11.5 75.001 -34.5 99.001
s-57.833 39.333 -104.5 46l-72 -373c70 8 122.667 31.167 158 69.5s53 91.166 53 158.499z" />
    <glyph glyph-name="Chi" unicode="&#x3a7;" 
d="M392 0l-96 251l-184 -251h-167l294 373l-135 320h156l83 -225l163 225h168l-273 -345l147 -348h-156z" />
    <glyph glyph-name="Psi" unicode="&#x3a8;" horiz-adv-x="781" 
d="M265 0l34.002 174.998c-41.333 4.66699 -78 16.167 -110 34.5s-57 42 -75 71s-27 61.833 -27 98.5c0 24 5 60.667 15 110l40 204h141l-41 -209c-5.33301 -27.333 -9 -48.166 -11 -62.499s-3 -28.5 -3 -42.5c0 -26 8 -47.167 24 -63.5s38.667 -26.5 68 -30.5l80 408h141
l-79 -404c39.333 8.66699 71.666 26.834 96.999 54.501s42.666 64.5 51.999 110.5l47 239h141l-45 -230c-16.667 -84.667 -52.167 -152 -106.5 -202s-123.5 -78.667 -207.5 -86l-34 -175h-141z" />
    <glyph glyph-name="uni03A9" unicode="&#x3a9;" horiz-adv-x="733" 
d="M265 0l-287.003 0.000976562l19 109h132c-47.333 58.667 -71 129 -71 211c0 51.333 8.66699 100.166 26 146.499s42.333 87.833 75 124.5s72.167 65.834 118.5 87.501s96.833 32.5 151.5 32.5c55.333 0 104 -10.833 146 -32.5s74.667 -53.167 98 -94.5
s35 -90.333 35 -147c0 -64.667 -13.667 -125.334 -41 -182.001s-66.666 -105.334 -117.999 -146.001h129l-19 -109h-302l20 103c56.667 33.333 101.334 78.333 134.001 135s49 118 49 184c0 52 -12.5 93.167 -37.5 123.5s-59.5 45.5 -103.5 45.5
c-38.667 0 -74.167 -11 -106.5 -33s-58.166 -53.333 -77.499 -94s-29 -86.667 -29 -138c0 -45.333 7.16699 -88.166 21.5 -128.499s33.5 -71.833 57.5 -94.5z" />
    <glyph glyph-name="Iotadieresis" unicode="&#x3aa;" horiz-adv-x="329" 
d="M41 0l135 693h145l-135 -693h-145zM151 770c-23.333 0 -41.166 5.33203 -53.499 15.999s-18.5 26.334 -18.5 47.001c0 23.333 9 43.5 27 60.5s39.667 25.5 65 25.5c23.333 0 41.166 -5.33301 53.499 -16s18.5 -26 18.5 -46c0 -24 -9 -44.5 -27 -61.5
s-39.667 -25.5 -65 -25.5zM377 769.999c-23.333 0 -41.166 5.33203 -53.499 15.999s-18.5 26.334 -18.5 47.001c0 23.333 9 43.5 27 60.5s39.667 25.5 65 25.5c23.333 0 41.166 -5.33301 53.499 -16s18.5 -26 18.5 -46c0 -24 -9 -44.5 -27 -61.5s-39.667 -25.5 -65 -25.5z
" />
    <glyph glyph-name="Upsilondieresis" unicode="&#x3ab;" horiz-adv-x="568" 
d="M152 0l50 255l-138 438h152l75 -323l205 323h160l-311 -438l-50 -255h-143zM261 770c-23.333 0 -41.166 5.33203 -53.499 15.999s-18.5 26.334 -18.5 47.001c0 23.333 9 43.5 27 60.5s39.667 25.5 65 25.5c23.333 0 41.166 -5.33301 53.499 -16s18.5 -26 18.5 -46
c0 -24 -9 -44.5 -27 -61.5s-39.667 -25.5 -65 -25.5zM487 769.999c-23.333 0 -41.166 5.33203 -53.499 15.999s-18.5 26.334 -18.5 47.001c0 23.333 9 43.5 27 60.5s39.667 25.5 65 25.5c23.333 0 41.166 -5.33301 53.499 -16s18.5 -26 18.5 -46c0 -24 -9 -44.5 -27 -61.5
s-39.667 -25.5 -65 -25.5z" />
    <glyph glyph-name="alphatonos" unicode="&#x3ac;" horiz-adv-x="625" 
d="M185 -15c-50.667 0 -89.499 16.334 -116.499 49.001s-40.5 79.334 -40.5 140.001c0 43.333 6 85.666 18 126.999s29.5 78.833 52.5 112.5s50.667 60.834 83 81.501s66.5 31 102.5 31c37.333 0 67 -9.5 89 -28.5s38.333 -49.167 49 -90.5
c7.33301 28.667 13.5 50.667 18.5 66s9.5 28 13.5 38h147l-31 -78c-21.333 -54 -38 -105.667 -50 -155s-18 -90.333 -18 -123c0 -24 3.66699 -39.667 11 -47c6.66699 -6.66699 16 -10 28 -10c10.667 0 22.334 2 35.001 6l25 -82c-20 -10.667 -38.167 -18.167 -54.5 -22.5
s-35.833 -6.5 -58.5 -6.5c-33.333 0 -59.5 9.66699 -78.5 29s-28.5 45.666 -28.5 78.999v22c-24.667 -44.667 -53.834 -78.834 -87.501 -102.501s-69.834 -35.5 -108.501 -35.5zM228.001 95.001c30 0 59.668 16.168 89.001 48.501s52.333 74.166 69 125.499
c-4.66699 98 -31.334 147 -80.001 147c-22 0 -43 -10 -63 -30s-36.5 -47.667 -49.5 -83s-19.5 -73.333 -19.5 -114c0 -30.667 4.5 -54 13.5 -70s22.5 -24 40.5 -24zM380.002 781.002h149l-137 -181h-96z" />
    <glyph glyph-name="epsilontonos" unicode="&#x3ad;" horiz-adv-x="460" 
d="M205 -15c-53.333 0 -96.8301 12.5039 -130.497 37.5039s-50.5 57.167 -50.5 96.5s12.5 72.166 37.5 98.499s60.167 43.5 105.5 51.5c-26 10 -45.833 24.5 -59.5 43.5s-20.5 41.167 -20.5 66.5c0 43.333 18.667 78.666 56 105.999s85 41 143 41
c28.667 0 58.5 -3.33301 89.5 -10s57.833 -15.334 80.5 -26.001l-19 -95c-20 7.33301 -41.833 13.333 -65.5 18s-44.834 7 -63.501 7c-26.667 0 -47.834 -5.16699 -63.501 -15.5s-23.5 -24.166 -23.5 -41.499c0 -15.333 5.16699 -27.333 15.5 -36s25.5 -13 45.5 -13h93
l-21 -102h-92c-30.667 0 -55.334 -6.33301 -74.001 -19s-28 -29.334 -28 -50.001c0 -16.667 7.16699 -29.5 21.5 -38.5s34.833 -13.5 61.5 -13.5c46.667 0 93.667 12.667 141 38l32 -81c-25.333 -18.667 -57.5 -33.834 -96.5 -45.501s-77.167 -17.5 -114.5 -17.5z
M338.003 781.004h149l-137 -181h-96z" />
    <glyph glyph-name="etatonos" unicode="&#x3ae;" horiz-adv-x="630" 
d="M428 274c8.66699 46 13.001 77.999 13.001 95.999c0 16.667 -3.83301 28.834 -11.5 36.501s-19.834 11.5 -36.501 11.5c-18 0 -39.333 -8 -64 -24s-49 -38 -73 -66l-64 -328h-142l55 282l9.5 53c3 16 4.5 28.667 4.5 38c0 23.333 -12.333 35 -37 35c-4 0 -12 -1 -24 -3
l-26 84c35.333 18.667 73.666 28 114.999 28c31.333 0 57 -8.83301 77 -26.5s32 -42.5 36 -74.5c26.667 34.667 56.334 61.667 89.001 81s65 29 97 29c44.667 0 79 -11.833 103 -35.5s36 -57.5 36 -101.5c0 -25.333 -5 -64.333 -15 -117l-93 -478h-142zM423.001 780.999h149
l-137 -181h-96z" />
    <glyph glyph-name="iotatonos" unicode="&#x3af;" horiz-adv-x="331" 
d="M171 -7c-39.333 0 -69.335 10.167 -90.002 30.5s-31 49.833 -31 88.5c0 26 4.66699 63.333 14 112l56 287h142l-56 -287c-8 -42 -12 -71 -12 -87c0 -25.333 14 -38 42 -38c15.333 0 30.333 2.66699 45 8l27 -79c-21.333 -12 -42.666 -20.833 -63.999 -26.5
s-45.666 -8.5 -72.999 -8.5zM233.998 781h149l-137 -181h-96z" />
    <glyph glyph-name="upsilondieresistonos" unicode="&#x3b0;" horiz-adv-x="561" 
d="M253 -15c-54.667 0 -97.666 15 -128.999 45s-47 71.333 -47 124c0 7.33301 0.666992 17 2 29s2.66602 21 3.99902 27l14 71c3.33301 19.333 6.5 36.833 9.5 52.5s4.5 28.5 4.5 38.5c0 24 -12.333 36 -37 36c-4 0 -11.333 -0.666992 -22 -2l-28 83
c16.667 8.66699 35.167 15.5 55.5 20.5s40.5 7.5 60.5 7.5c36 0 64.333 -11 85 -33s31 -51.667 31 -89c0 -16 -2 -34.667 -6 -56l-25 -129c-4 -20 -6 -39.333 -6 -58c0 -40.667 17.333 -61 52 -61c39.333 0 70.333 22 93 66s34 104.667 34 182c0 58.667 -7 116 -21 172h129
c9.33301 -23.333 16.833 -51 22.5 -83s8.5 -64 8.5 -96c0 -70.667 -11.167 -132 -33.5 -184s-54.833 -92.167 -97.5 -120.5s-93.667 -42.5 -153 -42.5zM208.001 587c-44.667 0 -67 19.333 -67 58c0 23.333 8.16699 42.833 24.5 58.5s36.833 23.5 61.5 23.5
c44.667 0 67 -19.333 67 -58c0 -23.333 -8.16699 -42.833 -24.5 -58.5s-36.833 -23.5 -61.5 -23.5zM445.001 587c-44.667 0 -67 19.333 -67 58c0 23.333 8.16699 42.833 24.5 58.5s36.833 23.5 61.5 23.5c44.667 0 67 -19.333 67 -58
c0 -23.333 -8.16699 -42.833 -24.5 -58.5s-36.833 -23.5 -61.5 -23.5zM386.001 920h149l-138 -169h-96z" />
    <glyph glyph-name="alpha" unicode="&#x3b1;" horiz-adv-x="625" 
d="M185 -15c-50.667 0 -89.499 16.334 -116.499 49.001s-40.5 79.334 -40.5 140.001c0 43.333 6 85.666 18 126.999s29.5 78.833 52.5 112.5s50.667 60.834 83 81.501s66.5 31 102.5 31c37.333 0 67 -9.5 89 -28.5s38.333 -49.167 49 -90.5
c7.33301 28.667 13.5 50.667 18.5 66s9.5 28 13.5 38h147l-31 -78c-21.333 -54 -38 -105.667 -50 -155s-18 -90.333 -18 -123c0 -24 3.66699 -39.667 11 -47c6.66699 -6.66699 16 -10 28 -10c10.667 0 22.334 2 35.001 6l25 -82c-20 -10.667 -38.167 -18.167 -54.5 -22.5
s-35.833 -6.5 -58.5 -6.5c-33.333 0 -59.5 9.66699 -78.5 29s-28.5 45.666 -28.5 78.999v22c-24.667 -44.667 -53.834 -78.834 -87.501 -102.501s-69.834 -35.5 -108.501 -35.5zM228.001 95.001c30 0 59.668 16.168 89.001 48.501s52.333 74.166 69 125.499
c-4.66699 98 -31.334 147 -80.001 147c-22 0 -43 -10 -63 -30s-36.5 -47.667 -49.5 -83s-19.5 -73.333 -19.5 -114c0 -30.667 4.5 -54 13.5 -70s22.5 -24 40.5 -24z" />
    <glyph glyph-name="beta" unicode="&#x3b2;" horiz-adv-x="578" 
d="M120 507c16 80 46 141.169 90 183.502s99.667 63.5 167 63.5c53.333 0 96.5 -15.333 129.5 -46s49.5 -70.334 49.5 -119.001c0 -42.667 -12.167 -81.334 -36.5 -116.001s-56.5 -59.667 -96.5 -75c36 -11.333 63.833 -31.5 83.5 -60.5s29.5 -64.167 29.5 -105.5
c0 -43.333 -10.667 -83.833 -32 -121.5s-51.5 -68 -90.5 -91s-82.5 -34.5 -130.5 -34.5c-46 0 -89 9.66699 -129 29l-43 -220h-131zM172 106.002c28 -9.33301 57.667 -13.998 89 -13.998c41.333 0 74.166 11.667 98.499 35s36.5 54.666 36.5 93.999
c0 37.333 -8.66699 65.5 -26 84.5s-42.666 28.5 -75.999 28.5h-22l20 102h20c32.667 0 60.167 13.833 82.5 41.5s33.5 61.5 33.5 101.5c0 23.333 -5.5 41.166 -16.5 53.499s-26.833 18.5 -47.5 18.5c-26.667 0 -50.167 -12.5 -70.5 -37.5s-34.5 -59.167 -42.5 -102.5z" />
    <glyph glyph-name="gamma" unicode="&#x3b3;" horiz-adv-x="519" 
d="M94 -206c14.667 88 22 163.336 22 226.003c0 54 -3.16699 107.167 -9.5 159.5s-14.5 105.666 -24.5 159.999s-21.333 111.5 -34 171.5h147c12 -72.667 21.667 -142.834 29 -210.501s11.666 -128.834 12.999 -183.501c67.333 103.333 117.333 234.666 150 393.999h147
c-18 -86.667 -53.667 -180.167 -107 -280.5s-111.333 -184.5 -174 -252.5c-1.33301 -57.333 -7.66602 -118.666 -18.999 -183.999h-140z" />
    <glyph glyph-name="delta" unicode="&#x3b4;" horiz-adv-x="550" 
d="M229 -15c-62.667 0 -111.831 17.3291 -147.498 51.9961s-53.5 82.334 -53.5 143.001s18.167 116.5 54.5 167.5s84.833 88.833 145.5 113.5c-19.333 16 -33.5 33.333 -42.5 52s-13.5 40.334 -13.5 65.001c0 33.333 8.5 63.333 25.5 90s41.667 47.667 74 63
s69.833 23 112.5 23c31.333 0 62.833 -3.66699 94.5 -11s59.167 -17.666 82.5 -30.999l-19 -97c-46.667 19.333 -96.334 29 -149.001 29c-28 0 -49.5 -4.66699 -64.5 -14s-22.5 -22.666 -22.5 -39.999c0 -13.333 5.5 -26.166 16.5 -38.499s31.5 -28.833 61.5 -49.5
c44.667 -30.667 77.334 -63.834 98.001 -99.501s31 -77.167 31 -124.5c0 -52.667 -11.833 -101.167 -35.5 -145.5s-57.334 -80 -101.001 -107s-92.834 -40.5 -147.501 -40.5zM369.003 271.996c0 32 -4.66602 57.5 -13.999 76.5s-26.333 38.5 -51 58.5
c-42.667 -24 -75.334 -54.5 -98.001 -91.5s-34 -78.833 -34 -125.5c0 -64.667 24.333 -97 73 -97c36 0 65.667 16.833 89 50.5s35 76.5 35 128.5z" />
    <glyph glyph-name="epsilon" unicode="&#x3b5;" horiz-adv-x="460" 
d="M205 -15c-53.333 0 -96.8301 12.5039 -130.497 37.5039s-50.5 57.167 -50.5 96.5s12.5 72.166 37.5 98.499s60.167 43.5 105.5 51.5c-26 10 -45.833 24.5 -59.5 43.5s-20.5 41.167 -20.5 66.5c0 43.333 18.667 78.666 56 105.999s85 41 143 41
c28.667 0 58.5 -3.33301 89.5 -10s57.833 -15.334 80.5 -26.001l-19 -95c-20 7.33301 -41.833 13.333 -65.5 18s-44.834 7 -63.501 7c-26.667 0 -47.834 -5.16699 -63.501 -15.5s-23.5 -24.166 -23.5 -41.499c0 -15.333 5.16699 -27.333 15.5 -36s25.5 -13 45.5 -13h93
l-21 -102h-92c-30.667 0 -55.334 -6.33301 -74.001 -19s-28 -29.334 -28 -50.001c0 -16.667 7.16699 -29.5 21.5 -38.5s34.833 -13.5 61.5 -13.5c46.667 0 93.667 12.667 141 38l32 -81c-25.333 -18.667 -57.5 -33.834 -96.5 -45.501s-77.167 -17.5 -114.5 -17.5z" />
    <glyph glyph-name="zeta" unicode="&#x3b6;" horiz-adv-x="439" 
d="M198 -144c56 33.333 84 59.998 84 79.998c0 11.333 -4 20.333 -12 27s-24.667 14.667 -50 24l-46 17c-50.667 18.667 -87.667 43 -111 73s-35 67.667 -35 113c0 74 26.167 146.333 78.5 217s135.5 145.667 249.5 225h-225l22 108h384l-19 -100
c-116 -80 -202.333 -154.667 -259 -224s-85 -134.666 -85 -195.999c0 -29.333 5.66699 -51.833 17 -67.5s33.333 -30.167 66 -43.5l51 -21c40.667 -16.667 68.667 -33.5 84 -50.5s23 -39.167 23 -66.5c0 -75.333 -56.333 -138.666 -169 -189.999z" />
    <glyph glyph-name="eta" unicode="&#x3b7;" horiz-adv-x="630" 
d="M428 274c8.66699 46 13.001 77.999 13.001 95.999c0 16.667 -3.83301 28.834 -11.5 36.501s-19.834 11.5 -36.501 11.5c-18 0 -39.333 -8 -64 -24s-49 -38 -73 -66l-64 -328h-142l55 282l9.5 53c3 16 4.5 28.667 4.5 38c0 23.333 -12.333 35 -37 35c-4 0 -12 -1 -24 -3
l-26 84c35.333 18.667 73.666 28 114.999 28c31.333 0 57 -8.83301 77 -26.5s32 -42.5 36 -74.5c26.667 34.667 56.334 61.667 89.001 81s65 29 97 29c44.667 0 79 -11.833 103 -35.5s36 -57.5 36 -101.5c0 -25.333 -5 -64.333 -15 -117l-93 -478h-142z" />
    <glyph glyph-name="theta" unicode="&#x3b8;" horiz-adv-x="590" 
d="M247 -15c-66.667 0 -116.167 22 -148.5 66s-48.5 111.333 -48.5 202c0 74.667 8.83301 144.667 26.5 210s42.834 121.333 75.501 168c28 40 60.833 70.5 98.5 91.5s78.5 31.5 122.5 31.5c66.667 0 116.167 -22 148.5 -66s48.5 -111.333 48.5 -202
c0 -74.667 -8.83301 -144.667 -26.5 -210s-42.834 -121.333 -75.501 -168c-28 -40 -60.833 -70.5 -98.5 -91.5s-78.5 -31.5 -122.5 -31.5zM268 93c40.667 0 74.667 25.333 102 76c20 36.667 36.333 86.334 49 149.001h-232c-1.33301 -14.667 -2 -36.334 -2 -65.001
c0 -56 6.5 -96.667 19.5 -122s34.167 -38 63.5 -38zM250 570c-21.333 -40 -37.667 -89.335 -49 -148.002h232c0.666992 10.667 1.16699 21.334 1.5 32.001s0.5 21.334 0.5 32.001c0 56 -6.5 96.667 -19.5 122s-34.167 38 -63.5 38c-40.667 0 -74.667 -25.333 -102 -76z" />
    <glyph glyph-name="iota" unicode="&#x3b9;" horiz-adv-x="331" 
d="M171 -7c-39.333 0 -69.335 10.167 -90.002 30.5s-31 49.833 -31 88.5c0 26 4.66699 63.333 14 112l56 287h142l-56 -287c-8 -42 -12 -71 -12 -87c0 -25.333 14 -38 42 -38c15.333 0 30.333 2.66699 45 8l27 -79c-21.333 -12 -42.666 -20.833 -63.999 -26.5
s-45.666 -8.5 -72.999 -8.5z" />
    </font>
</defs>
</svg>
